<?xml version="1.0" encoding="utf-8" standalone="no"?>
<!DOCTYPE svg PUBLIC "-//W3C//DTD SVG 1.1//EN"
  "http://www.w3.org/Graphics/SVG/1.1/DTD/svg11.dtd">
<svg xmlns:xlink="http://www.w3.org/1999/xlink" width="1000.581406pt" height="356.398281pt" viewBox="0 0 1000.581406 356.398281" xmlns="http://www.w3.org/2000/svg" version="1.1">
 <metadata>
  <rdf:RDF xmlns:dc="http://purl.org/dc/elements/1.1/" xmlns:cc="http://creativecommons.org/ns#" xmlns:rdf="http://www.w3.org/1999/02/22-rdf-syntax-ns#">
   <cc:Work>
    <dc:type rdf:resource="http://purl.org/dc/dcmitype/StillImage"/>
    <dc:date>2026-06-20T19:08:26.988161</dc:date>
    <dc:format>image/svg+xml</dc:format>
    <dc:creator>
     <cc:Agent>
      <dc:title>Matplotlib v3.11.0, https://matplotlib.org/</dc:title>
     </cc:Agent>
    </dc:creator>
   </cc:Work>
  </rdf:RDF>
 </metadata>
 <defs>
  <style type="text/css">*{stroke-linejoin: round; stroke-linecap: butt}</style>
 </defs>
 <g id="figure_1">
  <g id="patch_1">
   <path d="M 0 356.398281 
L 1000.581406 356.398281 
L 1000.581406 0 
L 0 0 
z
" style="fill: #ffffff"/>
  </g>
  <g id="axes_1">
   <g id="patch_2">
    <path d="M 45.103984 316.995078 
L 482.501406 316.995078 
L 482.501406 47.282812 
L 45.103984 47.282812 
z
" style="fill: #ffffff"/>
   </g>
   <g id="matplotlib.axis_1">
    <g id="xtick_1">
     <g id="line2d_1">
      <path d="M 64.985685 316.995078 
L 64.985685 47.282812 
" clip-path="url(#pe9eab7e7d5)" style="fill: none; stroke: #b0b0b0; stroke-opacity: 0.15; stroke-width: 0.8; stroke-linecap: square"/>
     </g>
     <g id="line2d_2">
      <defs>
       <path id="m975d3214f5" d="M 0 0 
L 0 3.5 
" style="stroke: #000000; stroke-width: 0.8"/>
      </defs>
      <g>
       <use xlink:href="#m975d3214f5" x="64.985685" y="316.995078" style="stroke: #000000; stroke-width: 0.8"/>
      </g>
     </g>
     <g id="text_1">
      <!-- 0 -->
      <g transform="translate(61.804435 331.592734) scale(0.1 -0.1)">
       <defs>
        <path id="DejaVuSans-13" d="M 2034 4250 
Q 1547 4250 1301 3770 
Q 1056 3291 1056 2328 
Q 1056 1369 1301 889 
Q 1547 409 2034 409 
Q 2525 409 2770 889 
Q 3016 1369 3016 2328 
Q 3016 3291 2770 3770 
Q 2525 4250 2034 4250 
z
M 2034 4750 
Q 2819 4750 3233 4129 
Q 3647 3509 3647 2328 
Q 3647 1150 3233 529 
Q 2819 -91 2034 -91 
Q 1250 -91 836 529 
Q 422 1150 422 2328 
Q 422 3509 836 4129 
Q 1250 4750 2034 4750 
z
" transform="scale(0.015625)"/>
       </defs>
       <use xlink:href="#DejaVuSans-13"/>
      </g>
     </g>
    </g>
    <g id="xtick_2">
     <g id="line2d_3">
      <path d="M 158.718935 316.995078 
L 158.718935 47.282812 
" clip-path="url(#pe9eab7e7d5)" style="fill: none; stroke: #b0b0b0; stroke-opacity: 0.15; stroke-width: 0.8; stroke-linecap: square"/>
     </g>
     <g id="line2d_4">
      <g>
       <use xlink:href="#m975d3214f5" x="158.718935" y="316.995078" style="stroke: #000000; stroke-width: 0.8"/>
      </g>
     </g>
     <g id="text_2">
      <!-- 2 -->
      <g transform="translate(155.537685 331.592734) scale(0.1 -0.1)">
       <defs>
        <path id="DejaVuSans-15" d="M 1228 531 
L 3431 531 
L 3431 0 
L 469 0 
L 469 531 
Q 828 903 1448 1529 
Q 2069 2156 2228 2338 
Q 2531 2678 2651 2914 
Q 2772 3150 2772 3378 
Q 2772 3750 2511 3984 
Q 2250 4219 1831 4219 
Q 1534 4219 1204 4116 
Q 875 4013 500 3803 
L 500 4441 
Q 881 4594 1212 4672 
Q 1544 4750 1819 4750 
Q 2544 4750 2975 4387 
Q 3406 4025 3406 3419 
Q 3406 3131 3298 2873 
Q 3191 2616 2906 2266 
Q 2828 2175 2409 1742 
Q 1991 1309 1228 531 
z
" transform="scale(0.015625)"/>
       </defs>
       <use xlink:href="#DejaVuSans-15"/>
      </g>
     </g>
    </g>
    <g id="xtick_3">
     <g id="line2d_5">
      <path d="M 252.452185 316.995078 
L 252.452185 47.282812 
" clip-path="url(#pe9eab7e7d5)" style="fill: none; stroke: #b0b0b0; stroke-opacity: 0.15; stroke-width: 0.8; stroke-linecap: square"/>
     </g>
     <g id="line2d_6">
      <g>
       <use xlink:href="#m975d3214f5" x="252.452185" y="316.995078" style="stroke: #000000; stroke-width: 0.8"/>
      </g>
     </g>
     <g id="text_3">
      <!-- 4 -->
      <g transform="translate(249.270935 331.592734) scale(0.1 -0.1)">
       <defs>
        <path id="DejaVuSans-17" d="M 2419 4116 
L 825 1625 
L 2419 1625 
L 2419 4116 
z
M 2253 4666 
L 3047 4666 
L 3047 1625 
L 3713 1625 
L 3713 1100 
L 3047 1100 
L 3047 0 
L 2419 0 
L 2419 1100 
L 313 1100 
L 313 1709 
L 2253 4666 
z
" transform="scale(0.015625)"/>
       </defs>
       <use xlink:href="#DejaVuSans-17"/>
      </g>
     </g>
    </g>
    <g id="xtick_4">
     <g id="line2d_7">
      <path d="M 346.185434 316.995078 
L 346.185434 47.282812 
" clip-path="url(#pe9eab7e7d5)" style="fill: none; stroke: #b0b0b0; stroke-opacity: 0.15; stroke-width: 0.8; stroke-linecap: square"/>
     </g>
     <g id="line2d_8">
      <g>
       <use xlink:href="#m975d3214f5" x="346.185434" y="316.995078" style="stroke: #000000; stroke-width: 0.8"/>
      </g>
     </g>
     <g id="text_4">
      <!-- 6 -->
      <g transform="translate(343.004184 331.592734) scale(0.1 -0.1)">
       <defs>
        <path id="DejaVuSans-19" d="M 2113 2584 
Q 1688 2584 1439 2293 
Q 1191 2003 1191 1497 
Q 1191 994 1439 701 
Q 1688 409 2113 409 
Q 2538 409 2786 701 
Q 3034 994 3034 1497 
Q 3034 2003 2786 2293 
Q 2538 2584 2113 2584 
z
M 3366 4563 
L 3366 3988 
Q 3128 4100 2886 4159 
Q 2644 4219 2406 4219 
Q 1781 4219 1451 3797 
Q 1122 3375 1075 2522 
Q 1259 2794 1537 2939 
Q 1816 3084 2150 3084 
Q 2853 3084 3261 2657 
Q 3669 2231 3669 1497 
Q 3669 778 3244 343 
Q 2819 -91 2113 -91 
Q 1303 -91 875 529 
Q 447 1150 447 2328 
Q 447 3434 972 4092 
Q 1497 4750 2381 4750 
Q 2619 4750 2861 4703 
Q 3103 4656 3366 4563 
z
" transform="scale(0.015625)"/>
       </defs>
       <use xlink:href="#DejaVuSans-19"/>
      </g>
     </g>
    </g>
    <g id="xtick_5">
     <g id="line2d_9">
      <path d="M 439.918684 316.995078 
L 439.918684 47.282812 
" clip-path="url(#pe9eab7e7d5)" style="fill: none; stroke: #b0b0b0; stroke-opacity: 0.15; stroke-width: 0.8; stroke-linecap: square"/>
     </g>
     <g id="line2d_10">
      <g>
       <use xlink:href="#m975d3214f5" x="439.918684" y="316.995078" style="stroke: #000000; stroke-width: 0.8"/>
      </g>
     </g>
     <g id="text_5">
      <!-- 8 -->
      <g transform="translate(436.737434 331.592734) scale(0.1 -0.1)">
       <defs>
        <path id="DejaVuSans-1b" d="M 2034 2216 
Q 1584 2216 1326 1975 
Q 1069 1734 1069 1313 
Q 1069 891 1326 650 
Q 1584 409 2034 409 
Q 2484 409 2743 651 
Q 3003 894 3003 1313 
Q 3003 1734 2745 1975 
Q 2488 2216 2034 2216 
z
M 1403 2484 
Q 997 2584 770 2862 
Q 544 3141 544 3541 
Q 544 4100 942 4425 
Q 1341 4750 2034 4750 
Q 2731 4750 3128 4425 
Q 3525 4100 3525 3541 
Q 3525 3141 3298 2862 
Q 3072 2584 2669 2484 
Q 3125 2378 3379 2068 
Q 3634 1759 3634 1313 
Q 3634 634 3220 271 
Q 2806 -91 2034 -91 
Q 1263 -91 848 271 
Q 434 634 434 1313 
Q 434 1759 690 2068 
Q 947 2378 1403 2484 
z
M 1172 3481 
Q 1172 3119 1398 2916 
Q 1625 2713 2034 2713 
Q 2441 2713 2670 2916 
Q 2900 3119 2900 3481 
Q 2900 3844 2670 4047 
Q 2441 4250 2034 4250 
Q 1625 4250 1398 4047 
Q 1172 3844 1172 3481 
z
" transform="scale(0.015625)"/>
       </defs>
       <use xlink:href="#DejaVuSans-1b"/>
      </g>
     </g>
    </g>
    <g id="text_6">
     <!-- Frequency (bins) -->
     <g transform="translate(217.979102 346.353359) scale(0.11 -0.11)">
      <defs>
       <path id="DejaVuSans-29" d="M 628 4666 
L 3309 4666 
L 3309 4134 
L 1259 4134 
L 1259 2759 
L 3109 2759 
L 3109 2228 
L 1259 2228 
L 1259 0 
L 628 0 
L 628 4666 
z
" transform="scale(0.015625)"/>
       <path id="DejaVuSans-55" d="M 2631 2963 
Q 2534 3019 2420 3045 
Q 2306 3072 2169 3072 
Q 1681 3072 1420 2755 
Q 1159 2438 1159 1844 
L 1159 0 
L 581 0 
L 581 3500 
L 1159 3500 
L 1159 2956 
Q 1341 3275 1631 3429 
Q 1922 3584 2338 3584 
Q 2397 3584 2469 3576 
Q 2541 3569 2628 3553 
L 2631 2963 
z
" transform="scale(0.015625)"/>
       <path id="DejaVuSans-48" d="M 3597 1894 
L 3597 1613 
L 953 1613 
Q 991 1019 1311 708 
Q 1631 397 2203 397 
Q 2534 397 2845 478 
Q 3156 559 3463 722 
L 3463 178 
Q 3153 47 2828 -22 
Q 2503 -91 2169 -91 
Q 1331 -91 842 396 
Q 353 884 353 1716 
Q 353 2575 817 3079 
Q 1281 3584 2069 3584 
Q 2775 3584 3186 3129 
Q 3597 2675 3597 1894 
z
M 3022 2063 
Q 3016 2534 2758 2815 
Q 2500 3097 2075 3097 
Q 1594 3097 1305 2825 
Q 1016 2553 972 2059 
L 3022 2063 
z
" transform="scale(0.015625)"/>
       <path id="DejaVuSans-54" d="M 947 1747 
Q 947 1113 1208 752 
Q 1469 391 1925 391 
Q 2381 391 2643 752 
Q 2906 1113 2906 1747 
Q 2906 2381 2643 2742 
Q 2381 3103 1925 3103 
Q 1469 3103 1208 2742 
Q 947 2381 947 1747 
z
M 2906 525 
Q 2725 213 2448 61 
Q 2172 -91 1784 -91 
Q 1150 -91 751 415 
Q 353 922 353 1747 
Q 353 2572 751 3078 
Q 1150 3584 1784 3584 
Q 2172 3584 2448 3432 
Q 2725 3281 2906 2969 
L 2906 3500 
L 3481 3500 
L 3481 -1331 
L 2906 -1331 
L 2906 525 
z
" transform="scale(0.015625)"/>
       <path id="DejaVuSans-58" d="M 544 1381 
L 544 3500 
L 1119 3500 
L 1119 1403 
Q 1119 906 1312 657 
Q 1506 409 1894 409 
Q 2359 409 2629 706 
Q 2900 1003 2900 1516 
L 2900 3500 
L 3475 3500 
L 3475 0 
L 2900 0 
L 2900 538 
Q 2691 219 2414 64 
Q 2138 -91 1772 -91 
Q 1169 -91 856 284 
Q 544 659 544 1381 
z
M 1991 3584 
L 1991 3584 
z
" transform="scale(0.015625)"/>
       <path id="DejaVuSans-51" d="M 3513 2113 
L 3513 0 
L 2938 0 
L 2938 2094 
Q 2938 2591 2744 2837 
Q 2550 3084 2163 3084 
Q 1697 3084 1428 2787 
Q 1159 2491 1159 1978 
L 1159 0 
L 581 0 
L 581 3500 
L 1159 3500 
L 1159 2956 
Q 1366 3272 1645 3428 
Q 1925 3584 2291 3584 
Q 2894 3584 3203 3211 
Q 3513 2838 3513 2113 
z
" transform="scale(0.015625)"/>
       <path id="DejaVuSans-46" d="M 3122 3366 
L 3122 2828 
Q 2878 2963 2633 3030 
Q 2388 3097 2138 3097 
Q 1578 3097 1268 2742 
Q 959 2388 959 1747 
Q 959 1106 1268 751 
Q 1578 397 2138 397 
Q 2388 397 2633 464 
Q 2878 531 3122 666 
L 3122 134 
Q 2881 22 2623 -34 
Q 2366 -91 2075 -91 
Q 1284 -91 818 406 
Q 353 903 353 1747 
Q 353 2603 823 3093 
Q 1294 3584 2113 3584 
Q 2378 3584 2631 3529 
Q 2884 3475 3122 3366 
z
" transform="scale(0.015625)"/>
       <path id="DejaVuSans-5c" d="M 2059 -325 
Q 1816 -950 1584 -1140 
Q 1353 -1331 966 -1331 
L 506 -1331 
L 506 -850 
L 844 -850 
Q 1081 -850 1212 -737 
Q 1344 -625 1503 -206 
L 1606 56 
L 191 3500 
L 800 3500 
L 1894 763 
L 2988 3500 
L 3597 3500 
L 2059 -325 
z
" transform="scale(0.015625)"/>
       <path id="DejaVuSans-3" transform="scale(0.015625)"/>
       <path id="DejaVuSans-b" d="M 1984 4856 
Q 1566 4138 1362 3434 
Q 1159 2731 1159 2009 
Q 1159 1288 1364 580 
Q 1569 -128 1984 -844 
L 1484 -844 
Q 1016 -109 783 600 
Q 550 1309 550 2009 
Q 550 2706 781 3412 
Q 1013 4119 1484 4856 
L 1984 4856 
z
" transform="scale(0.015625)"/>
       <path id="DejaVuSans-45" d="M 3116 1747 
Q 3116 2381 2855 2742 
Q 2594 3103 2138 3103 
Q 1681 3103 1420 2742 
Q 1159 2381 1159 1747 
Q 1159 1113 1420 752 
Q 1681 391 2138 391 
Q 2594 391 2855 752 
Q 3116 1113 3116 1747 
z
M 1159 2969 
Q 1341 3281 1617 3432 
Q 1894 3584 2278 3584 
Q 2916 3584 3314 3078 
Q 3713 2572 3713 1747 
Q 3713 922 3314 415 
Q 2916 -91 2278 -91 
Q 1894 -91 1617 61 
Q 1341 213 1159 525 
L 1159 0 
L 581 0 
L 581 4863 
L 1159 4863 
L 1159 2969 
z
" transform="scale(0.015625)"/>
       <path id="DejaVuSans-4c" d="M 603 3500 
L 1178 3500 
L 1178 0 
L 603 0 
L 603 3500 
z
M 603 4863 
L 1178 4863 
L 1178 4134 
L 603 4134 
L 603 4863 
z
" transform="scale(0.015625)"/>
       <path id="DejaVuSans-56" d="M 2834 3397 
L 2834 2853 
Q 2591 2978 2328 3040 
Q 2066 3103 1784 3103 
Q 1356 3103 1142 2972 
Q 928 2841 928 2578 
Q 928 2378 1081 2264 
Q 1234 2150 1697 2047 
L 1894 2003 
Q 2506 1872 2764 1633 
Q 3022 1394 3022 966 
Q 3022 478 2636 193 
Q 2250 -91 1575 -91 
Q 1294 -91 989 -36 
Q 684 19 347 128 
L 347 722 
Q 666 556 975 473 
Q 1284 391 1588 391 
Q 1994 391 2212 530 
Q 2431 669 2431 922 
Q 2431 1156 2273 1281 
Q 2116 1406 1581 1522 
L 1381 1569 
Q 847 1681 609 1914 
Q 372 2147 372 2553 
Q 372 3047 722 3315 
Q 1072 3584 1716 3584 
Q 2034 3584 2315 3537 
Q 2597 3491 2834 3397 
z
" transform="scale(0.015625)"/>
       <path id="DejaVuSans-c" d="M 513 4856 
L 1013 4856 
Q 1481 4119 1714 3412 
Q 1947 2706 1947 2009 
Q 1947 1309 1714 600 
Q 1481 -109 1013 -844 
L 513 -844 
Q 928 -128 1133 580 
Q 1338 1288 1338 2009 
Q 1338 2731 1133 3434 
Q 928 4138 513 4856 
z
" transform="scale(0.015625)"/>
      </defs>
      <use xlink:href="#DejaVuSans-29"/>
      <use xlink:href="#DejaVuSans-55" transform="translate(50.234375 0)"/>
      <use xlink:href="#DejaVuSans-48" transform="translate(89.140625 0)"/>
      <use xlink:href="#DejaVuSans-54" transform="translate(150.671875 0)"/>
      <use xlink:href="#DejaVuSans-58" transform="translate(214.15625 0)"/>
      <use xlink:href="#DejaVuSans-48" transform="translate(277.53125 0)"/>
      <use xlink:href="#DejaVuSans-51" transform="translate(339.0625 0)"/>
      <use xlink:href="#DejaVuSans-46" transform="translate(402.4375 0)"/>
      <use xlink:href="#DejaVuSans-5c" transform="translate(457.421875 0)"/>
      <use xlink:href="#DejaVuSans-3" transform="translate(516.609375 0)"/>
      <use xlink:href="#DejaVuSans-b" transform="translate(548.390625 0)"/>
      <use xlink:href="#DejaVuSans-45" transform="translate(587.40625 0)"/>
      <use xlink:href="#DejaVuSans-4c" transform="translate(650.890625 0)"/>
      <use xlink:href="#DejaVuSans-51" transform="translate(678.671875 0)"/>
      <use xlink:href="#DejaVuSans-56" transform="translate(742.046875 0)"/>
      <use xlink:href="#DejaVuSans-c" transform="translate(794.140625 0)"/>
     </g>
    </g>
   </g>
   <g id="matplotlib.axis_2">
    <g id="ytick_1">
     <g id="line2d_11">
      <path d="M 45.103984 304.73543 
L 482.501406 304.73543 
" clip-path="url(#pe9eab7e7d5)" style="fill: none; stroke: #b0b0b0; stroke-opacity: 0.15; stroke-width: 0.8; stroke-linecap: square"/>
     </g>
     <g id="line2d_12">
      <defs>
       <path id="m8ae2663d44" d="M 0 0 
L -3.5 0 
" style="stroke: #000000; stroke-width: 0.8"/>
      </defs>
      <g>
       <use xlink:href="#m8ae2663d44" x="45.103984" y="304.73543" style="stroke: #000000; stroke-width: 0.8"/>
      </g>
     </g>
     <g id="text_7">
      <!-- 0.0 -->
      <g transform="translate(22.200859 308.534258) scale(0.1 -0.1)">
       <defs>
        <path id="DejaVuSans-11" d="M 684 794 
L 1344 794 
L 1344 0 
L 684 0 
L 684 794 
z
" transform="scale(0.015625)"/>
       </defs>
       <use xlink:href="#DejaVuSans-13"/>
       <use xlink:href="#DejaVuSans-11" transform="translate(63.625 0)"/>
       <use xlink:href="#DejaVuSans-13" transform="translate(95.40625 0)"/>
      </g>
     </g>
    </g>
    <g id="ytick_2">
     <g id="line2d_13">
      <path d="M 45.103984 255.696836 
L 482.501406 255.696836 
" clip-path="url(#pe9eab7e7d5)" style="fill: none; stroke: #b0b0b0; stroke-opacity: 0.15; stroke-width: 0.8; stroke-linecap: square"/>
     </g>
     <g id="line2d_14">
      <g>
       <use xlink:href="#m8ae2663d44" x="45.103984" y="255.696836" style="stroke: #000000; stroke-width: 0.8"/>
      </g>
     </g>
     <g id="text_8">
      <!-- 0.2 -->
      <g transform="translate(22.200859 259.495664) scale(0.1 -0.1)">
       <use xlink:href="#DejaVuSans-13"/>
       <use xlink:href="#DejaVuSans-11" transform="translate(63.625 0)"/>
       <use xlink:href="#DejaVuSans-15" transform="translate(95.40625 0)"/>
      </g>
     </g>
    </g>
    <g id="ytick_3">
     <g id="line2d_15">
      <path d="M 45.103984 206.658242 
L 482.501406 206.658242 
" clip-path="url(#pe9eab7e7d5)" style="fill: none; stroke: #b0b0b0; stroke-opacity: 0.15; stroke-width: 0.8; stroke-linecap: square"/>
     </g>
     <g id="line2d_16">
      <g>
       <use xlink:href="#m8ae2663d44" x="45.103984" y="206.658242" style="stroke: #000000; stroke-width: 0.8"/>
      </g>
     </g>
     <g id="text_9">
      <!-- 0.4 -->
      <g transform="translate(22.200859 210.45707) scale(0.1 -0.1)">
       <use xlink:href="#DejaVuSans-13"/>
       <use xlink:href="#DejaVuSans-11" transform="translate(63.625 0)"/>
       <use xlink:href="#DejaVuSans-17" transform="translate(95.40625 0)"/>
      </g>
     </g>
    </g>
    <g id="ytick_4">
     <g id="line2d_17">
      <path d="M 45.103984 157.619648 
L 482.501406 157.619648 
" clip-path="url(#pe9eab7e7d5)" style="fill: none; stroke: #b0b0b0; stroke-opacity: 0.15; stroke-width: 0.8; stroke-linecap: square"/>
     </g>
     <g id="line2d_18">
      <g>
       <use xlink:href="#m8ae2663d44" x="45.103984" y="157.619648" style="stroke: #000000; stroke-width: 0.8"/>
      </g>
     </g>
     <g id="text_10">
      <!-- 0.6 -->
      <g transform="translate(22.200859 161.418477) scale(0.1 -0.1)">
       <use xlink:href="#DejaVuSans-13"/>
       <use xlink:href="#DejaVuSans-11" transform="translate(63.625 0)"/>
       <use xlink:href="#DejaVuSans-19" transform="translate(95.40625 0)"/>
      </g>
     </g>
    </g>
    <g id="ytick_5">
     <g id="line2d_19">
      <path d="M 45.103984 108.581055 
L 482.501406 108.581055 
" clip-path="url(#pe9eab7e7d5)" style="fill: none; stroke: #b0b0b0; stroke-opacity: 0.15; stroke-width: 0.8; stroke-linecap: square"/>
     </g>
     <g id="line2d_20">
      <g>
       <use xlink:href="#m8ae2663d44" x="45.103984" y="108.581055" style="stroke: #000000; stroke-width: 0.8"/>
      </g>
     </g>
     <g id="text_11">
      <!-- 0.8 -->
      <g transform="translate(22.200859 112.379883) scale(0.1 -0.1)">
       <use xlink:href="#DejaVuSans-13"/>
       <use xlink:href="#DejaVuSans-11" transform="translate(63.625 0)"/>
       <use xlink:href="#DejaVuSans-1b" transform="translate(95.40625 0)"/>
      </g>
     </g>
    </g>
    <g id="ytick_6">
     <g id="line2d_21">
      <path d="M 45.103984 59.542461 
L 482.501406 59.542461 
" clip-path="url(#pe9eab7e7d5)" style="fill: none; stroke: #b0b0b0; stroke-opacity: 0.15; stroke-width: 0.8; stroke-linecap: square"/>
     </g>
     <g id="line2d_22">
      <g>
       <use xlink:href="#m8ae2663d44" x="45.103984" y="59.542461" style="stroke: #000000; stroke-width: 0.8"/>
      </g>
     </g>
     <g id="text_12">
      <!-- 1.0 -->
      <g transform="translate(22.200859 63.341289) scale(0.1 -0.1)">
       <defs>
        <path id="DejaVuSans-14" d="M 794 531 
L 1825 531 
L 1825 4091 
L 703 3866 
L 703 4441 
L 1819 4666 
L 2450 4666 
L 2450 531 
L 3481 531 
L 3481 0 
L 794 0 
L 794 531 
z
" transform="scale(0.015625)"/>
       </defs>
       <use xlink:href="#DejaVuSans-14"/>
       <use xlink:href="#DejaVuSans-11" transform="translate(63.625 0)"/>
       <use xlink:href="#DejaVuSans-13" transform="translate(95.40625 0)"/>
      </g>
     </g>
    </g>
    <g id="text_13">
     <!-- Normalized magnitude -->
     <g transform="translate(15.558281 244.828633) rotate(-90) scale(0.11 -0.11)">
      <defs>
       <path id="DejaVuSans-31" d="M 628 4666 
L 1478 4666 
L 3547 763 
L 3547 4666 
L 4159 4666 
L 4159 0 
L 3309 0 
L 1241 3903 
L 1241 0 
L 628 0 
L 628 4666 
z
" transform="scale(0.015625)"/>
       <path id="DejaVuSans-52" d="M 1959 3097 
Q 1497 3097 1228 2736 
Q 959 2375 959 1747 
Q 959 1119 1226 758 
Q 1494 397 1959 397 
Q 2419 397 2687 759 
Q 2956 1122 2956 1747 
Q 2956 2369 2687 2733 
Q 2419 3097 1959 3097 
z
M 1959 3584 
Q 2709 3584 3137 3096 
Q 3566 2609 3566 1747 
Q 3566 888 3137 398 
Q 2709 -91 1959 -91 
Q 1206 -91 779 398 
Q 353 888 353 1747 
Q 353 2609 779 3096 
Q 1206 3584 1959 3584 
z
" transform="scale(0.015625)"/>
       <path id="DejaVuSans-50" d="M 3328 2828 
Q 3544 3216 3844 3400 
Q 4144 3584 4550 3584 
Q 5097 3584 5394 3201 
Q 5691 2819 5691 2113 
L 5691 0 
L 5113 0 
L 5113 2094 
Q 5113 2597 4934 2840 
Q 4756 3084 4391 3084 
Q 3944 3084 3684 2787 
Q 3425 2491 3425 1978 
L 3425 0 
L 2847 0 
L 2847 2094 
Q 2847 2600 2669 2842 
Q 2491 3084 2119 3084 
Q 1678 3084 1418 2786 
Q 1159 2488 1159 1978 
L 1159 0 
L 581 0 
L 581 3500 
L 1159 3500 
L 1159 2956 
Q 1356 3278 1631 3431 
Q 1906 3584 2284 3584 
Q 2666 3584 2933 3390 
Q 3200 3197 3328 2828 
z
" transform="scale(0.015625)"/>
       <path id="DejaVuSans-44" d="M 2194 1759 
Q 1497 1759 1228 1600 
Q 959 1441 959 1056 
Q 959 750 1161 570 
Q 1363 391 1709 391 
Q 2188 391 2477 730 
Q 2766 1069 2766 1631 
L 2766 1759 
L 2194 1759 
z
M 3341 1997 
L 3341 0 
L 2766 0 
L 2766 531 
Q 2569 213 2275 61 
Q 1981 -91 1556 -91 
Q 1019 -91 701 211 
Q 384 513 384 1019 
Q 384 1609 779 1909 
Q 1175 2209 1959 2209 
L 2766 2209 
L 2766 2266 
Q 2766 2663 2505 2880 
Q 2244 3097 1772 3097 
Q 1472 3097 1187 3025 
Q 903 2953 641 2809 
L 641 3341 
Q 956 3463 1253 3523 
Q 1550 3584 1831 3584 
Q 2591 3584 2966 3190 
Q 3341 2797 3341 1997 
z
" transform="scale(0.015625)"/>
       <path id="DejaVuSans-4f" d="M 603 4863 
L 1178 4863 
L 1178 0 
L 603 0 
L 603 4863 
z
" transform="scale(0.015625)"/>
       <path id="DejaVuSans-5d" d="M 353 3500 
L 3084 3500 
L 3084 2975 
L 922 459 
L 3084 459 
L 3084 0 
L 275 0 
L 275 525 
L 2438 3041 
L 353 3041 
L 353 3500 
z
" transform="scale(0.015625)"/>
       <path id="DejaVuSans-47" d="M 2906 2969 
L 2906 4863 
L 3481 4863 
L 3481 0 
L 2906 0 
L 2906 525 
Q 2725 213 2448 61 
Q 2172 -91 1784 -91 
Q 1150 -91 751 415 
Q 353 922 353 1747 
Q 353 2572 751 3078 
Q 1150 3584 1784 3584 
Q 2172 3584 2448 3432 
Q 2725 3281 2906 2969 
z
M 947 1747 
Q 947 1113 1208 752 
Q 1469 391 1925 391 
Q 2381 391 2643 752 
Q 2906 1113 2906 1747 
Q 2906 2381 2643 2742 
Q 2381 3103 1925 3103 
Q 1469 3103 1208 2742 
Q 947 2381 947 1747 
z
" transform="scale(0.015625)"/>
       <path id="DejaVuSans-4a" d="M 2906 1791 
Q 2906 2416 2648 2759 
Q 2391 3103 1925 3103 
Q 1463 3103 1205 2759 
Q 947 2416 947 1791 
Q 947 1169 1205 825 
Q 1463 481 1925 481 
Q 2391 481 2648 825 
Q 2906 1169 2906 1791 
z
M 3481 434 
Q 3481 -459 3084 -895 
Q 2688 -1331 1869 -1331 
Q 1566 -1331 1297 -1286 
Q 1028 -1241 775 -1147 
L 775 -588 
Q 1028 -725 1275 -790 
Q 1522 -856 1778 -856 
Q 2344 -856 2625 -561 
Q 2906 -266 2906 331 
L 2906 616 
Q 2728 306 2450 153 
Q 2172 0 1784 0 
Q 1141 0 747 490 
Q 353 981 353 1791 
Q 353 2603 747 3093 
Q 1141 3584 1784 3584 
Q 2172 3584 2450 3431 
Q 2728 3278 2906 2969 
L 2906 3500 
L 3481 3500 
L 3481 434 
z
" transform="scale(0.015625)"/>
       <path id="DejaVuSans-57" d="M 1172 4494 
L 1172 3500 
L 2356 3500 
L 2356 3053 
L 1172 3053 
L 1172 1153 
Q 1172 725 1289 603 
Q 1406 481 1766 481 
L 2356 481 
L 2356 0 
L 1766 0 
Q 1100 0 847 248 
Q 594 497 594 1153 
L 594 3053 
L 172 3053 
L 172 3500 
L 594 3500 
L 594 4494 
L 1172 4494 
z
" transform="scale(0.015625)"/>
      </defs>
      <use xlink:href="#DejaVuSans-31"/>
      <use xlink:href="#DejaVuSans-52" transform="translate(74.8125 0)"/>
      <use xlink:href="#DejaVuSans-55" transform="translate(136 0)"/>
      <use xlink:href="#DejaVuSans-50" transform="translate(175.359375 0)"/>
      <use xlink:href="#DejaVuSans-44" transform="translate(272.765625 0)"/>
      <use xlink:href="#DejaVuSans-4f" transform="translate(334.046875 0)"/>
      <use xlink:href="#DejaVuSans-4c" transform="translate(361.828125 0)"/>
      <use xlink:href="#DejaVuSans-5d" transform="translate(389.609375 0)"/>
      <use xlink:href="#DejaVuSans-48" transform="translate(442.09375 0)"/>
      <use xlink:href="#DejaVuSans-47" transform="translate(503.625 0)"/>
      <use xlink:href="#DejaVuSans-3" transform="translate(567.109375 0)"/>
      <use xlink:href="#DejaVuSans-50" transform="translate(598.890625 0)"/>
      <use xlink:href="#DejaVuSans-44" transform="translate(696.296875 0)"/>
      <use xlink:href="#DejaVuSans-4a" transform="translate(757.578125 0)"/>
      <use xlink:href="#DejaVuSans-51" transform="translate(821.0625 0)"/>
      <use xlink:href="#DejaVuSans-4c" transform="translate(884.4375 0)"/>
      <use xlink:href="#DejaVuSans-57" transform="translate(912.21875 0)"/>
      <use xlink:href="#DejaVuSans-58" transform="translate(951.421875 0)"/>
      <use xlink:href="#DejaVuSans-47" transform="translate(1014.796875 0)"/>
      <use xlink:href="#DejaVuSans-48" transform="translate(1078.28125 0)"/>
     </g>
    </g>
   </g>
   <g id="line2d_23">
    <path d="M 64.985685 59.542461 
L 65.763745 59.653606 
L 66.564688 60.000018 
L 67.411399 60.621476 
L 68.326763 61.587052 
L 69.310779 62.96295 
L 70.386332 64.863148 
L 71.576304 67.440803 
L 72.857814 70.764157 
L 74.276628 75.088361 
L 75.809862 80.496789 
L 77.503285 87.318091 
L 79.356896 95.74478 
L 81.393581 106.071501 
L 83.68199 118.871487 
L 86.267893 134.646229 
L 89.334362 154.790653 
L 93.361962 182.841738 
L 103.957298 257.348931 
L 107.183955 278.049972 
L 109.930046 294.277316 
L 111.85231 304.73543 
L 111.875194 304.615762 
L 114.14072 293.364888 
L 116.223172 284.116368 
L 118.145436 276.56149 
L 119.930395 270.421505 
L 121.57805 265.518269 
L 123.111285 261.621783 
L 124.552982 258.545054 
L 125.88026 256.213272 
L 127.116001 254.46954 
L 128.28309 253.195587 
L 129.358642 252.336667 
L 130.388426 251.791763 
L 131.372442 251.518912 
L 132.333574 251.480326 
L 133.31759 251.6676 
L 134.324491 252.089191 
L 135.400043 252.787 
L 136.567132 253.820822 
L 137.825757 255.241552 
L 139.221687 257.164746 
L 140.777805 259.705158 
L 142.516996 262.989108 
L 144.485028 267.196575 
L 146.796322 272.684249 
L 149.679718 280.136626 
L 154.439609 293.164954 
L 158.718935 304.73543 
L 161.785404 297.021844 
L 164.302654 291.268489 
L 166.499527 286.780838 
L 168.490443 283.205082 
L 170.298287 280.399536 
L 171.968826 278.202746 
L 173.524944 276.511352 
L 174.989526 275.239343 
L 176.362572 274.331752 
L 177.689849 273.717096 
L 178.971358 273.367354 
L 180.229983 273.254114 
L 181.488609 273.364854 
L 182.770118 273.701972 
L 184.097395 274.282049 
L 185.516209 275.151185 
L 187.026559 276.344234 
L 188.674214 277.93935 
L 190.482058 280.011 
L 192.495858 282.668477 
L 194.807151 286.100188 
L 197.621895 290.700189 
L 201.695264 297.8354 
L 205.58556 304.73543 
L 205.631328 304.655622 
L 209.269899 298.536336 
L 212.01599 294.338255 
L 214.373052 291.128577 
L 216.478389 288.626385 
L 218.400653 286.676726 
L 220.185612 285.173892 
L 221.856151 284.048638 
L 223.458037 283.23263 
L 224.991272 282.696532 
L 226.501622 282.403635 
L 227.989088 282.341955 
L 229.476554 282.501824 
L 231.009788 282.892624 
L 232.588791 283.526258 
L 234.25933 284.439495 
L 236.044289 285.673324 
L 237.989437 287.295186 
L 240.140542 289.386259 
L 242.612024 292.111431 
L 245.60984 295.766022 
L 250.186659 301.746379 
L 252.452185 304.73543 
L 252.497953 304.675559 
L 256.594206 299.500711 
L 259.52337 296.149286 
L 261.994852 293.647462 
L 264.214609 291.70737 
L 266.251293 290.214623 
L 268.150673 289.090162 
L 269.958517 288.272158 
L 271.697708 287.724551 
L 273.391131 287.42017 
L 275.084554 287.341771 
L 276.777977 287.486718 
L 278.517168 287.862391 
L 280.302127 288.477811 
L 282.178623 289.362216 
L 284.192423 290.561857 
L 286.389296 292.136105 
L 288.860778 294.190891 
L 291.767058 296.91025 
L 295.680238 300.904085 
L 299.318809 304.73543 
L 299.387462 304.663572 
L 303.872744 300.130538 
L 306.939213 297.339537 
L 309.548 295.258347 
L 311.882177 293.674417 
L 314.033282 292.477349 
L 316.069966 291.595044 
L 318.015114 290.991974 
L 319.914494 290.635369 
L 321.79099 290.510727 
L 323.667486 290.611029 
L 325.566865 290.936702 
L 327.534898 291.502974 
L 329.594466 292.330727 
L 331.791339 293.457228 
L 334.194169 294.944435 
L 336.917376 296.89936 
L 340.23557 299.570214 
L 345.613332 304.235239 
L 346.254087 304.675529 
L 351.105514 300.591268 
L 354.309288 298.179708 
L 357.032495 296.401966 
L 359.481093 295.064426 
L 361.746618 294.075549 
L 363.897723 293.375609 
L 365.980176 292.930456 
L 368.01686 292.721592 
L 370.053544 292.737596 
L 372.113113 292.97909 
L 374.21845 293.452245 
L 376.415323 294.176499 
L 378.7495 295.183109 
L 381.312519 296.536962 
L 384.218799 298.33298 
L 387.788717 300.815291 
L 393.212248 304.61562 
L 398.315401 300.93879 
L 401.633594 298.816569 
L 404.448338 297.271684 
L 407.011356 296.11445 
L 409.391302 295.280337 
L 411.656828 294.718302 
L 413.853701 294.398967 
L 416.02769 294.305772 
L 418.224563 294.435964 
L 420.44432 294.7909 
L 422.755613 295.387699 
L 425.204211 296.253882 
L 427.858766 297.434599 
L 430.856583 299.020278 
L 434.495154 301.20983 
L 440.101757 304.615575 
L 445.479519 301.2286 
L 448.935017 299.312599 
L 451.864181 297.936569 
L 454.518736 296.930231 
L 457.013102 296.21969 
L 459.393048 295.769954 
L 461.727226 295.553908 
L 462.619705 295.530938 
L 462.619705 295.530938 
" clip-path="url(#pe9eab7e7d5)" style="fill: none; stroke: #2563eb; stroke-linecap: square"/>
   </g>
   <g id="patch_3">
    <path d="M 45.103984 316.995078 
L 45.103984 47.282812 
" style="fill: none; stroke: #000000; stroke-width: 0.8; stroke-linejoin: miter; stroke-linecap: square"/>
   </g>
   <g id="patch_4">
    <path d="M 45.103984 316.995078 
L 482.501406 316.995078 
" style="fill: none; stroke: #000000; stroke-width: 0.8; stroke-linejoin: miter; stroke-linecap: square"/>
   </g>
   <g id="text_14">
    <!-- 1 -->
    <g style="fill: #dc2626" transform="translate(129.468197 250.242576) scale(0.08 -0.08)">
     <use xlink:href="#DejaVuSans-14"/>
    </g>
   </g>
   <g id="text_15">
    <!-- 2 -->
    <g style="fill: #dc2626" transform="translate(177.684983 272.02815) scale(0.08 -0.08)">
     <use xlink:href="#DejaVuSans-15"/>
    </g>
   </g>
   <g id="text_16">
    <!-- 3 -->
    <g style="fill: #dc2626" transform="translate(225.100827 281.110399) scale(0.08 -0.08)">
     <defs>
      <path id="DejaVuSans-16" d="M 2597 2516 
Q 3050 2419 3304 2112 
Q 3559 1806 3559 1356 
Q 3559 666 3084 287 
Q 2609 -91 1734 -91 
Q 1441 -91 1130 -33 
Q 819 25 488 141 
L 488 750 
Q 750 597 1062 519 
Q 1375 441 1716 441 
Q 2309 441 2620 675 
Q 2931 909 2931 1356 
Q 2931 1769 2642 2001 
Q 2353 2234 1838 2234 
L 1294 2234 
L 1294 2753 
L 1863 2753 
Q 2328 2753 2575 2939 
Q 2822 3125 2822 3475 
Q 2822 3834 2567 4026 
Q 2313 4219 1838 4219 
Q 1578 4219 1281 4162 
Q 984 4106 628 3988 
L 628 4550 
Q 988 4650 1302 4700 
Q 1616 4750 1894 4750 
Q 2613 4750 3031 4423 
Q 3450 4097 3450 3541 
Q 3450 3153 3228 2886 
Q 3006 2619 2597 2516 
z
" transform="scale(0.015625)"/>
     </defs>
     <use xlink:href="#DejaVuSans-16"/>
    </g>
   </g>
   <g id="text_17">
    <!-- 4 -->
    <g style="fill: #dc2626" transform="translate(272.287829 286.113232) scale(0.08 -0.08)">
     <use xlink:href="#DejaVuSans-17"/>
    </g>
   </g>
   <g id="text_18">
    <!-- 5 -->
    <g style="fill: #dc2626" transform="translate(319.337526 289.284462) scale(0.08 -0.08)">
     <defs>
      <path id="DejaVuSans-18" d="M 691 4666 
L 3169 4666 
L 3169 4134 
L 1269 4134 
L 1269 2991 
Q 1406 3038 1543 3061 
Q 1681 3084 1819 3084 
Q 2600 3084 3056 2656 
Q 3513 2228 3513 1497 
Q 3513 744 3044 326 
Q 2575 -91 1722 -91 
Q 1428 -91 1123 -41 
Q 819 9 494 109 
L 494 744 
Q 775 591 1075 516 
Q 1375 441 1709 441 
Q 2250 441 2565 725 
Q 2881 1009 2881 1497 
Q 2881 1984 2565 2268 
Q 2250 2553 1709 2553 
Q 1456 2553 1204 2497 
Q 953 2441 691 2322 
L 691 4666 
z
" transform="scale(0.015625)"/>
     </defs>
     <use xlink:href="#DejaVuSans-18"/>
    </g>
   </g>
   <g id="text_19">
    <!-- 6 -->
    <g style="fill: #dc2626" transform="translate(366.341456 291.475049) scale(0.08 -0.08)">
     <use xlink:href="#DejaVuSans-19"/>
    </g>
   </g>
   <g id="text_20">
    <!-- Side-lobe maxima -->
    <g transform="translate(45.103984 41.282812) scale(0.1 -0.1)">
     <defs>
      <path id="DejaVuSans-Oblique-36" d="M 3859 4513 
L 3738 3897 
Q 3422 4066 3111 4152 
Q 2800 4238 2509 4238 
Q 1944 4238 1609 3991 
Q 1275 3744 1275 3334 
Q 1275 3109 1398 2989 
Q 1522 2869 2034 2731 
L 2413 2638 
Q 3053 2472 3303 2217 
Q 3553 1963 3553 1503 
Q 3553 797 2998 353 
Q 2444 -91 1538 -91 
Q 1166 -91 791 -17 
Q 416 56 38 206 
L 166 856 
Q 513 641 861 531 
Q 1209 422 1556 422 
Q 2147 422 2503 684 
Q 2859 947 2859 1369 
Q 2859 1650 2717 1795 
Q 2575 1941 2106 2059 
L 1728 2156 
Q 1081 2325 845 2545 
Q 609 2766 609 3163 
Q 609 3859 1145 4304 
Q 1681 4750 2541 4750 
Q 2875 4750 3203 4690 
Q 3531 4631 3859 4513 
z
" transform="scale(0.015625)"/>
      <path id="DejaVuSans-Oblique-4c" d="M 1172 4863 
L 1747 4863 
L 1606 4134 
L 1031 4134 
L 1172 4863 
z
M 909 3500 
L 1484 3500 
L 800 0 
L 225 0 
L 909 3500 
z
" transform="scale(0.015625)"/>
      <path id="DejaVuSans-Oblique-47" d="M 2675 525 
Q 2444 222 2128 65 
Q 1813 -91 1428 -91 
Q 903 -91 598 267 
Q 294 625 294 1247 
Q 294 1766 478 2236 
Q 663 2706 1013 3078 
Q 1244 3325 1534 3454 
Q 1825 3584 2144 3584 
Q 2481 3584 2739 3421 
Q 2997 3259 3138 2956 
L 3513 4863 
L 4091 4863 
L 3144 0 
L 2566 0 
L 2675 525 
z
M 891 1350 
Q 891 897 1095 644 
Q 1300 391 1663 391 
Q 1931 391 2161 520 
Q 2391 650 2566 903 
Q 2750 1166 2856 1509 
Q 2963 1853 2963 2188 
Q 2963 2622 2758 2865 
Q 2553 3109 2194 3109 
Q 1922 3109 1687 2981 
Q 1453 2853 1288 2613 
Q 1106 2353 998 2009 
Q 891 1666 891 1350 
z
" transform="scale(0.015625)"/>
      <path id="DejaVuSans-Oblique-48" d="M 3078 2063 
Q 3088 2113 3092 2166 
Q 3097 2219 3097 2272 
Q 3097 2653 2873 2875 
Q 2650 3097 2266 3097 
Q 1838 3097 1509 2826 
Q 1181 2556 1013 2059 
L 3078 2063 
z
M 3578 1613 
L 903 1613 
Q 884 1494 878 1425 
Q 872 1356 872 1306 
Q 872 872 1139 634 
Q 1406 397 1894 397 
Q 2269 397 2603 481 
Q 2938 566 3225 728 
L 3116 159 
Q 2806 34 2476 -28 
Q 2147 -91 1806 -91 
Q 1078 -91 686 257 
Q 294 606 294 1247 
Q 294 1794 489 2264 
Q 684 2734 1063 3103 
Q 1306 3334 1642 3459 
Q 1978 3584 2356 3584 
Q 2950 3584 3301 3228 
Q 3653 2872 3653 2272 
Q 3653 2128 3634 1964 
Q 3616 1800 3578 1613 
z
" transform="scale(0.015625)"/>
      <path id="DejaVuSans-Oblique-10" d="M 391 2009 
L 2075 2009 
L 1978 1497 
L 288 1497 
L 391 2009 
z
" transform="scale(0.015625)"/>
      <path id="DejaVuSans-Oblique-4f" d="M 1172 4863 
L 1747 4863 
L 800 0 
L 225 0 
L 1172 4863 
z
" transform="scale(0.015625)"/>
      <path id="DejaVuSans-Oblique-52" d="M 1625 -91 
Q 1009 -91 651 289 
Q 294 669 294 1325 
Q 294 1706 417 2101 
Q 541 2497 738 2766 
Q 1047 3184 1428 3384 
Q 1809 3584 2291 3584 
Q 2888 3584 3255 3212 
Q 3622 2841 3622 2241 
Q 3622 1825 3500 1412 
Q 3378 1000 3181 728 
Q 2875 309 2494 109 
Q 2113 -91 1625 -91 
z
M 891 1344 
Q 891 869 1089 633 
Q 1288 397 1691 397 
Q 2269 397 2648 901 
Q 3028 1406 3028 2181 
Q 3028 2634 2825 2865 
Q 2622 3097 2228 3097 
Q 1903 3097 1650 2945 
Q 1397 2794 1197 2484 
Q 1050 2253 970 1956 
Q 891 1659 891 1344 
z
" transform="scale(0.015625)"/>
      <path id="DejaVuSans-Oblique-45" d="M 3169 2138 
Q 3169 2591 2961 2847 
Q 2753 3103 2388 3103 
Q 2122 3103 1889 2973 
Q 1656 2844 1484 2597 
Q 1303 2338 1198 1995 
Q 1094 1653 1094 1313 
Q 1094 881 1298 636 
Q 1503 391 1863 391 
Q 2134 391 2365 517 
Q 2597 644 2772 891 
Q 2950 1147 3059 1487 
Q 3169 1828 3169 2138 
z
M 1381 2969 
Q 1594 3256 1914 3420 
Q 2234 3584 2584 3584 
Q 3122 3584 3439 3221 
Q 3756 2859 3756 2241 
Q 3756 1734 3570 1259 
Q 3384 784 3041 416 
Q 2816 172 2522 40 
Q 2228 -91 1906 -91 
Q 1566 -91 1316 65 
Q 1066 222 909 531 
L 806 0 
L 231 0 
L 1178 4863 
L 1753 4863 
L 1381 2969 
z
" transform="scale(0.015625)"/>
      <path id="DejaVuSans-Oblique-3" transform="scale(0.015625)"/>
      <path id="DejaVuSans-Oblique-50" d="M 5747 2113 
L 5338 0 
L 4763 0 
L 5166 2094 
Q 5191 2228 5203 2325 
Q 5216 2422 5216 2491 
Q 5216 2772 5059 2928 
Q 4903 3084 4622 3084 
Q 4203 3084 3875 2770 
Q 3547 2456 3450 1953 
L 3066 0 
L 2491 0 
L 2900 2094 
Q 2925 2209 2937 2307 
Q 2950 2406 2950 2484 
Q 2950 2769 2794 2926 
Q 2638 3084 2363 3084 
Q 1938 3084 1609 2770 
Q 1281 2456 1184 1953 
L 800 0 
L 225 0 
L 909 3500 
L 1484 3500 
L 1375 2956 
Q 1609 3263 1923 3423 
Q 2238 3584 2597 3584 
Q 2978 3584 3223 3384 
Q 3469 3184 3519 2828 
Q 3781 3197 4126 3390 
Q 4472 3584 4856 3584 
Q 5306 3584 5551 3325 
Q 5797 3066 5797 2591 
Q 5797 2488 5784 2364 
Q 5772 2241 5747 2113 
z
" transform="scale(0.015625)"/>
      <path id="DejaVuSans-Oblique-44" d="M 3438 1997 
L 3047 0 
L 2472 0 
L 2578 531 
Q 2325 219 2001 64 
Q 1678 -91 1281 -91 
Q 834 -91 548 182 
Q 263 456 263 884 
Q 263 1497 752 1853 
Q 1241 2209 2100 2209 
L 2900 2209 
L 2931 2363 
Q 2938 2388 2941 2417 
Q 2944 2447 2944 2509 
Q 2944 2788 2717 2942 
Q 2491 3097 2081 3097 
Q 1800 3097 1504 3025 
Q 1209 2953 897 2809 
L 997 3341 
Q 1322 3463 1633 3523 
Q 1944 3584 2234 3584 
Q 2853 3584 3176 3315 
Q 3500 3047 3500 2534 
Q 3500 2431 3484 2292 
Q 3469 2153 3438 1997 
z
M 2816 1759 
L 2241 1759 
Q 1534 1759 1195 1570 
Q 856 1381 856 984 
Q 856 709 1029 553 
Q 1203 397 1509 397 
Q 1978 397 2328 733 
Q 2678 1069 2791 1631 
L 2816 1759 
z
" transform="scale(0.015625)"/>
      <path id="DejaVuSans-Oblique-5b" d="M 3841 3500 
L 2234 1784 
L 3219 0 
L 2559 0 
L 1819 1388 
L 531 0 
L -166 0 
L 1556 1844 
L 641 3500 
L 1300 3500 
L 1972 2234 
L 3144 3500 
L 3841 3500 
z
" transform="scale(0.015625)"/>
     </defs>
     <use xlink:href="#DejaVuSans-Oblique-36"/>
     <use xlink:href="#DejaVuSans-Oblique-4c" transform="translate(63.484375 0)"/>
     <use xlink:href="#DejaVuSans-Oblique-47" transform="translate(91.265625 0)"/>
     <use xlink:href="#DejaVuSans-Oblique-48" transform="translate(154.75 0)"/>
     <use xlink:href="#DejaVuSans-Oblique-10" transform="translate(216.28125 0)"/>
     <use xlink:href="#DejaVuSans-Oblique-4f" transform="translate(252.359375 0)"/>
     <use xlink:href="#DejaVuSans-Oblique-52" transform="translate(280.140625 0)"/>
     <use xlink:href="#DejaVuSans-Oblique-45" transform="translate(341.328125 0)"/>
     <use xlink:href="#DejaVuSans-Oblique-48" transform="translate(404.8125 0)"/>
     <use xlink:href="#DejaVuSans-Oblique-3" transform="translate(466.34375 0)"/>
     <use xlink:href="#DejaVuSans-Oblique-50" transform="translate(498.125 0)"/>
     <use xlink:href="#DejaVuSans-Oblique-44" transform="translate(595.53125 0)"/>
     <use xlink:href="#DejaVuSans-Oblique-5b" transform="translate(656.8125 0)"/>
     <use xlink:href="#DejaVuSans-Oblique-4c" transform="translate(716 0)"/>
     <use xlink:href="#DejaVuSans-Oblique-50" transform="translate(743.78125 0)"/>
     <use xlink:href="#DejaVuSans-Oblique-44" transform="translate(841.1875 0)"/>
    </g>
   </g>
   <g id="line2d_24">
    <defs>
     <path id="m57863d192f" d="M 0 3 
C 0.795609 3 1.55874 2.683901 2.12132 2.12132 
C 2.683901 1.55874 3 0.795609 3 0 
C 3 -0.795609 2.683901 -1.55874 2.12132 -2.12132 
C 1.55874 -2.683901 0.795609 -3 0 -3 
C -0.795609 -3 -1.55874 -2.683901 -2.12132 -2.12132 
C -2.683901 -1.55874 -3 -0.795609 -3 0 
C -3 0.795609 -2.683901 1.55874 -2.12132 2.12132 
C -1.55874 2.683901 -0.795609 3 0 3 
z
" style="stroke: #dc2626"/>
    </defs>
    <g clip-path="url(#pe9eab7e7d5)">
     <use xlink:href="#m57863d192f" x="132.013197" y="251.468541" style="fill: #dc2626; stroke: #dc2626"/>
     <use xlink:href="#m57863d192f" x="180.229983" y="273.254114" style="fill: #dc2626; stroke: #dc2626"/>
     <use xlink:href="#m57863d192f" x="227.645827" y="282.336364" style="fill: #dc2626; stroke: #dc2626"/>
     <use xlink:href="#m57863d192f" x="274.832829" y="287.339197" style="fill: #dc2626; stroke: #dc2626"/>
     <use xlink:href="#m57863d192f" x="321.882526" y="290.510427" style="fill: #dc2626; stroke: #dc2626"/>
     <use xlink:href="#m57863d192f" x="368.886456" y="292.701014" style="fill: #dc2626; stroke: #dc2626"/>
    </g>
   </g>
   <g id="legend_1">
    <g id="patch_5">
     <path d="M 366.179219 67.983516 
L 476.201406 67.983516 
Q 478.001406 67.983516 478.001406 66.183516 
L 478.001406 53.582812 
Q 478.001406 51.782812 476.201406 51.782812 
L 366.179219 51.782812 
Q 364.379219 51.782812 364.379219 53.582812 
L 364.379219 66.183516 
Q 364.379219 67.983516 366.179219 67.983516 
z
" style="fill: #ffffff; opacity: 0.8; stroke: #cccccc; stroke-linejoin: miter"/>
    </g>
    <g id="line2d_25">
     <g>
      <use xlink:href="#m57863d192f" x="376.979219" y="59.071406" style="fill: #dc2626; stroke: #dc2626"/>
     </g>
    </g>
    <g id="text_21">
     <!-- Side-lobe maxima -->
     <g transform="translate(393.179219 62.221406) scale(0.09 -0.09)">
      <defs>
       <path id="DejaVuSans-36" d="M 3425 4513 
L 3425 3897 
Q 3066 4069 2747 4153 
Q 2428 4238 2131 4238 
Q 1616 4238 1336 4038 
Q 1056 3838 1056 3469 
Q 1056 3159 1242 3001 
Q 1428 2844 1947 2747 
L 2328 2669 
Q 3034 2534 3370 2195 
Q 3706 1856 3706 1288 
Q 3706 609 3251 259 
Q 2797 -91 1919 -91 
Q 1588 -91 1214 -16 
Q 841 59 441 206 
L 441 856 
Q 825 641 1194 531 
Q 1563 422 1919 422 
Q 2459 422 2753 634 
Q 3047 847 3047 1241 
Q 3047 1584 2836 1778 
Q 2625 1972 2144 2069 
L 1759 2144 
Q 1053 2284 737 2584 
Q 422 2884 422 3419 
Q 422 4038 858 4394 
Q 1294 4750 2059 4750 
Q 2388 4750 2728 4690 
Q 3069 4631 3425 4513 
z
" transform="scale(0.015625)"/>
       <path id="DejaVuSans-10" d="M 313 2009 
L 1997 2009 
L 1997 1497 
L 313 1497 
L 313 2009 
z
" transform="scale(0.015625)"/>
       <path id="DejaVuSans-5b" d="M 3513 3500 
L 2247 1797 
L 3578 0 
L 2900 0 
L 1881 1375 
L 863 0 
L 184 0 
L 1544 1831 
L 300 3500 
L 978 3500 
L 1906 2253 
L 2834 3500 
L 3513 3500 
z
" transform="scale(0.015625)"/>
      </defs>
      <use xlink:href="#DejaVuSans-36"/>
      <use xlink:href="#DejaVuSans-4c" transform="translate(63.484375 0)"/>
      <use xlink:href="#DejaVuSans-47" transform="translate(91.265625 0)"/>
      <use xlink:href="#DejaVuSans-48" transform="translate(154.75 0)"/>
      <use xlink:href="#DejaVuSans-10" transform="translate(216.28125 0)"/>
      <use xlink:href="#DejaVuSans-4f" transform="translate(252.359375 0)"/>
      <use xlink:href="#DejaVuSans-52" transform="translate(280.140625 0)"/>
      <use xlink:href="#DejaVuSans-45" transform="translate(341.328125 0)"/>
      <use xlink:href="#DejaVuSans-48" transform="translate(404.8125 0)"/>
      <use xlink:href="#DejaVuSans-3" transform="translate(466.34375 0)"/>
      <use xlink:href="#DejaVuSans-50" transform="translate(498.125 0)"/>
      <use xlink:href="#DejaVuSans-44" transform="translate(595.53125 0)"/>
      <use xlink:href="#DejaVuSans-5b" transform="translate(656.8125 0)"/>
      <use xlink:href="#DejaVuSans-4c" transform="translate(716 0)"/>
      <use xlink:href="#DejaVuSans-50" transform="translate(743.78125 0)"/>
      <use xlink:href="#DejaVuSans-44" transform="translate(841.1875 0)"/>
     </g>
    </g>
   </g>
  </g>
  <g id="axes_2">
   <g id="patch_6">
    <path d="M 555.983984 316.995078 
L 993.381406 316.995078 
L 993.381406 47.282812 
L 555.983984 47.282812 
z
" style="fill: #ffffff"/>
   </g>
   <g id="matplotlib.axis_3">
    <g id="xtick_6">
     <g id="line2d_26">
      <path d="M 691.707441 316.995078 
L 691.707441 47.282812 
" clip-path="url(#p41f7837cb5)" style="fill: none; stroke: #b0b0b0; stroke-opacity: 0.15; stroke-width: 0.8; stroke-linecap: square"/>
     </g>
     <g id="line2d_27">
      <defs>
       <path id="mce5491954d" d="M 0 0 
L 0 2 
" style="stroke: #000000; stroke-width: 0.6"/>
      </defs>
      <g>
       <use xlink:href="#mce5491954d" x="691.707441" y="316.995078" style="stroke: #000000; stroke-width: 0.6"/>
      </g>
     </g>
     <g id="text_22">
      <!-- $\mathdefault{2\times10^{0}}$ -->
      <g transform="translate(673.607441 331.795078) scale(0.1 -0.1)">
       <defs>
        <path id="DejaVuSans-99" d="M 4488 3438 
L 3059 2003 
L 4488 575 
L 4116 197 
L 2681 1631 
L 1247 197 
L 878 575 
L 2303 2003 
L 878 3438 
L 1247 3816 
L 2681 2381 
L 4116 3816 
L 4488 3438 
z
" transform="scale(0.015625)"/>
       </defs>
       <use xlink:href="#DejaVuSans-15" transform="translate(0 0.746875)"/>
       <use xlink:href="#DejaVuSans-99" transform="translate(83.105469 0.746875)"/>
       <use xlink:href="#DejaVuSans-14" transform="translate(186.376953 0.746875)"/>
       <use xlink:href="#DejaVuSans-13" transform="translate(250 0.746875)"/>
       <use xlink:href="#DejaVuSans-13" transform="translate(314.580078 42.046875) scale(0.7)"/>
      </g>
     </g>
    </g>
    <g id="xtick_7">
     <g id="line2d_28">
      <path d="M 775.808331 316.995078 
L 775.808331 47.282812 
" clip-path="url(#p41f7837cb5)" style="fill: none; stroke: #b0b0b0; stroke-opacity: 0.15; stroke-width: 0.8; stroke-linecap: square"/>
     </g>
     <g id="line2d_29">
      <g>
       <use xlink:href="#mce5491954d" x="775.808331" y="316.995078" style="stroke: #000000; stroke-width: 0.6"/>
      </g>
     </g>
     <g id="text_23">
      <!-- $\mathdefault{3\times10^{0}}$ -->
      <g transform="translate(757.708331 331.795078) scale(0.1 -0.1)">
       <use xlink:href="#DejaVuSans-16" transform="translate(0 0.746875)"/>
       <use xlink:href="#DejaVuSans-99" transform="translate(83.105469 0.746875)"/>
       <use xlink:href="#DejaVuSans-14" transform="translate(186.376953 0.746875)"/>
       <use xlink:href="#DejaVuSans-13" transform="translate(250 0.746875)"/>
       <use xlink:href="#DejaVuSans-13" transform="translate(314.580078 42.046875) scale(0.7)"/>
      </g>
     </g>
    </g>
    <g id="xtick_8">
     <g id="line2d_30">
      <path d="M 835.478863 316.995078 
L 835.478863 47.282812 
" clip-path="url(#p41f7837cb5)" style="fill: none; stroke: #b0b0b0; stroke-opacity: 0.15; stroke-width: 0.8; stroke-linecap: square"/>
     </g>
     <g id="line2d_31">
      <g>
       <use xlink:href="#mce5491954d" x="835.478863" y="316.995078" style="stroke: #000000; stroke-width: 0.6"/>
      </g>
     </g>
     <g id="text_24">
      <!-- $\mathdefault{4\times10^{0}}$ -->
      <g transform="translate(817.378863 331.795078) scale(0.1 -0.1)">
       <use xlink:href="#DejaVuSans-17" transform="translate(0 0.746875)"/>
       <use xlink:href="#DejaVuSans-99" transform="translate(83.105469 0.746875)"/>
       <use xlink:href="#DejaVuSans-14" transform="translate(186.376953 0.746875)"/>
       <use xlink:href="#DejaVuSans-13" transform="translate(250 0.746875)"/>
       <use xlink:href="#DejaVuSans-13" transform="translate(314.580078 42.046875) scale(0.7)"/>
      </g>
     </g>
    </g>
    <g id="xtick_9">
     <g id="line2d_32">
      <path d="M 881.762922 316.995078 
L 881.762922 47.282812 
" clip-path="url(#p41f7837cb5)" style="fill: none; stroke: #b0b0b0; stroke-opacity: 0.15; stroke-width: 0.8; stroke-linecap: square"/>
     </g>
     <g id="line2d_33">
      <g>
       <use xlink:href="#mce5491954d" x="881.762922" y="316.995078" style="stroke: #000000; stroke-width: 0.6"/>
      </g>
     </g>
    </g>
    <g id="xtick_10">
     <g id="line2d_34">
      <path d="M 919.579753 316.995078 
L 919.579753 47.282812 
" clip-path="url(#p41f7837cb5)" style="fill: none; stroke: #b0b0b0; stroke-opacity: 0.15; stroke-width: 0.8; stroke-linecap: square"/>
     </g>
     <g id="line2d_35">
      <g>
       <use xlink:href="#mce5491954d" x="919.579753" y="316.995078" style="stroke: #000000; stroke-width: 0.6"/>
      </g>
     </g>
     <g id="text_25">
      <!-- $\mathdefault{6\times10^{0}}$ -->
      <g transform="translate(901.479753 331.795078) scale(0.1 -0.1)">
       <use xlink:href="#DejaVuSans-19" transform="translate(0 0.746875)"/>
       <use xlink:href="#DejaVuSans-99" transform="translate(83.105469 0.746875)"/>
       <use xlink:href="#DejaVuSans-14" transform="translate(186.376953 0.746875)"/>
       <use xlink:href="#DejaVuSans-13" transform="translate(250 0.746875)"/>
       <use xlink:href="#DejaVuSans-13" transform="translate(314.580078 42.046875) scale(0.7)"/>
      </g>
     </g>
    </g>
    <g id="xtick_11">
     <g id="line2d_36">
      <path d="M 951.553428 316.995078 
L 951.553428 47.282812 
" clip-path="url(#p41f7837cb5)" style="fill: none; stroke: #b0b0b0; stroke-opacity: 0.15; stroke-width: 0.8; stroke-linecap: square"/>
     </g>
     <g id="line2d_37">
      <g>
       <use xlink:href="#mce5491954d" x="951.553428" y="316.995078" style="stroke: #000000; stroke-width: 0.6"/>
      </g>
     </g>
    </g>
    <g id="xtick_12">
     <g id="line2d_38">
      <path d="M 979.250284 316.995078 
L 979.250284 47.282812 
" clip-path="url(#p41f7837cb5)" style="fill: none; stroke: #b0b0b0; stroke-opacity: 0.15; stroke-width: 0.8; stroke-linecap: square"/>
     </g>
     <g id="line2d_39">
      <g>
       <use xlink:href="#mce5491954d" x="979.250284" y="316.995078" style="stroke: #000000; stroke-width: 0.6"/>
      </g>
     </g>
    </g>
    <g id="text_26">
     <!-- Bin position (log scale) -->
     <g transform="translate(712.01793 346.555703) scale(0.11 -0.11)">
      <defs>
       <path id="DejaVuSans-25" d="M 1259 2228 
L 1259 519 
L 2272 519 
Q 2781 519 3026 730 
Q 3272 941 3272 1375 
Q 3272 1813 3026 2020 
Q 2781 2228 2272 2228 
L 1259 2228 
z
M 1259 4147 
L 1259 2741 
L 2194 2741 
Q 2656 2741 2882 2914 
Q 3109 3088 3109 3444 
Q 3109 3797 2882 3972 
Q 2656 4147 2194 4147 
L 1259 4147 
z
M 628 4666 
L 2241 4666 
Q 2963 4666 3353 4366 
Q 3744 4066 3744 3513 
Q 3744 3084 3544 2831 
Q 3344 2578 2956 2516 
Q 3422 2416 3680 2098 
Q 3938 1781 3938 1306 
Q 3938 681 3513 340 
Q 3088 0 2303 0 
L 628 0 
L 628 4666 
z
" transform="scale(0.015625)"/>
       <path id="DejaVuSans-53" d="M 1159 525 
L 1159 -1331 
L 581 -1331 
L 581 3500 
L 1159 3500 
L 1159 2969 
Q 1341 3281 1617 3432 
Q 1894 3584 2278 3584 
Q 2916 3584 3314 3078 
Q 3713 2572 3713 1747 
Q 3713 922 3314 415 
Q 2916 -91 2278 -91 
Q 1894 -91 1617 61 
Q 1341 213 1159 525 
z
M 3116 1747 
Q 3116 2381 2855 2742 
Q 2594 3103 2138 3103 
Q 1681 3103 1420 2742 
Q 1159 2381 1159 1747 
Q 1159 1113 1420 752 
Q 1681 391 2138 391 
Q 2594 391 2855 752 
Q 3116 1113 3116 1747 
z
" transform="scale(0.015625)"/>
      </defs>
      <use xlink:href="#DejaVuSans-25"/>
      <use xlink:href="#DejaVuSans-4c" transform="translate(68.609375 0)"/>
      <use xlink:href="#DejaVuSans-51" transform="translate(96.390625 0)"/>
      <use xlink:href="#DejaVuSans-3" transform="translate(159.765625 0)"/>
      <use xlink:href="#DejaVuSans-53" transform="translate(191.546875 0)"/>
      <use xlink:href="#DejaVuSans-52" transform="translate(255.03125 0)"/>
      <use xlink:href="#DejaVuSans-56" transform="translate(316.21875 0)"/>
      <use xlink:href="#DejaVuSans-4c" transform="translate(368.3125 0)"/>
      <use xlink:href="#DejaVuSans-57" transform="translate(396.09375 0)"/>
      <use xlink:href="#DejaVuSans-4c" transform="translate(435.296875 0)"/>
      <use xlink:href="#DejaVuSans-52" transform="translate(463.078125 0)"/>
      <use xlink:href="#DejaVuSans-51" transform="translate(524.265625 0)"/>
      <use xlink:href="#DejaVuSans-3" transform="translate(587.640625 0)"/>
      <use xlink:href="#DejaVuSans-b" transform="translate(619.421875 0)"/>
      <use xlink:href="#DejaVuSans-4f" transform="translate(658.4375 0)"/>
      <use xlink:href="#DejaVuSans-52" transform="translate(686.21875 0)"/>
      <use xlink:href="#DejaVuSans-4a" transform="translate(747.40625 0)"/>
      <use xlink:href="#DejaVuSans-3" transform="translate(810.890625 0)"/>
      <use xlink:href="#DejaVuSans-56" transform="translate(842.671875 0)"/>
      <use xlink:href="#DejaVuSans-46" transform="translate(894.765625 0)"/>
      <use xlink:href="#DejaVuSans-44" transform="translate(949.75 0)"/>
      <use xlink:href="#DejaVuSans-4f" transform="translate(1011.03125 0)"/>
      <use xlink:href="#DejaVuSans-48" transform="translate(1038.8125 0)"/>
      <use xlink:href="#DejaVuSans-c" transform="translate(1100.34375 0)"/>
     </g>
    </g>
   </g>
   <g id="matplotlib.axis_4">
    <g id="ytick_7">
     <g id="line2d_40">
      <path d="M 555.983984 189.350853 
L 993.381406 189.350853 
" clip-path="url(#p41f7837cb5)" style="fill: none; stroke: #b0b0b0; stroke-opacity: 0.15; stroke-width: 0.8; stroke-linecap: square"/>
     </g>
     <g id="line2d_41">
      <g>
       <use xlink:href="#m8ae2663d44" x="555.983984" y="189.350853" style="stroke: #000000; stroke-width: 0.8"/>
      </g>
     </g>
     <g id="text_27">
      <!-- $\mathdefault{10^{-1}}$ -->
      <g transform="translate(525.483984 194.000853) scale(0.1 -0.1)">
       <defs>
        <path id="DejaVuSans-c9c" d="M 678 2272 
L 4684 2272 
L 4684 1741 
L 678 1741 
L 678 2272 
z
" transform="scale(0.015625)"/>
       </defs>
       <use xlink:href="#DejaVuSans-14" transform="translate(0 0.665625)"/>
       <use xlink:href="#DejaVuSans-13" transform="translate(63.623047 0.665625)"/>
       <use xlink:href="#DejaVuSans-c9c" transform="translate(128.203125 41.965625) scale(0.7)"/>
       <use xlink:href="#DejaVuSans-14" transform="translate(186.855469 41.965625) scale(0.7)"/>
      </g>
     </g>
    </g>
    <g id="ytick_8">
     <g id="line2d_42">
      <path d="M 555.983984 308.362235 
L 993.381406 308.362235 
" clip-path="url(#p41f7837cb5)" style="fill: none; stroke: #b0b0b0; stroke-opacity: 0.15; stroke-width: 0.8; stroke-linecap: square"/>
     </g>
     <g id="line2d_43">
      <defs>
       <path id="mf14dae9e99" d="M 0 0 
L -2 0 
" style="stroke: #000000; stroke-width: 0.6"/>
      </defs>
      <g>
       <use xlink:href="#mf14dae9e99" x="555.983984" y="308.362235" style="stroke: #000000; stroke-width: 0.6"/>
      </g>
     </g>
     <g id="text_28">
      <!-- $\mathdefault{4\times10^{-2}}$ -->
      <g transform="translate(508.483984 313.062235) scale(0.1 -0.1)">
       <use xlink:href="#DejaVuSans-17" transform="translate(0 0.746875)"/>
       <use xlink:href="#DejaVuSans-99" transform="translate(83.105469 0.746875)"/>
       <use xlink:href="#DejaVuSans-14" transform="translate(186.376953 0.746875)"/>
       <use xlink:href="#DejaVuSans-13" transform="translate(250 0.746875)"/>
       <use xlink:href="#DejaVuSans-c9c" transform="translate(314.580078 42.046875) scale(0.7)"/>
       <use xlink:href="#DejaVuSans-15" transform="translate(373.232422 42.046875) scale(0.7)"/>
      </g>
     </g>
    </g>
    <g id="ytick_9">
     <g id="line2d_44">
      <path d="M 555.983984 279.379488 
L 993.381406 279.379488 
" clip-path="url(#p41f7837cb5)" style="fill: none; stroke: #b0b0b0; stroke-opacity: 0.15; stroke-width: 0.8; stroke-linecap: square"/>
     </g>
     <g id="line2d_45">
      <g>
       <use xlink:href="#mf14dae9e99" x="555.983984" y="279.379488" style="stroke: #000000; stroke-width: 0.6"/>
      </g>
     </g>
    </g>
    <g id="ytick_10">
     <g id="line2d_46">
      <path d="M 555.983984 255.698859 
L 993.381406 255.698859 
" clip-path="url(#p41f7837cb5)" style="fill: none; stroke: #b0b0b0; stroke-opacity: 0.15; stroke-width: 0.8; stroke-linecap: square"/>
     </g>
     <g id="line2d_47">
      <g>
       <use xlink:href="#mf14dae9e99" x="555.983984" y="255.698859" style="stroke: #000000; stroke-width: 0.6"/>
      </g>
     </g>
     <g id="text_29">
      <!-- $\mathdefault{6\times10^{-2}}$ -->
      <g transform="translate(508.483984 260.398859) scale(0.1 -0.1)">
       <use xlink:href="#DejaVuSans-19" transform="translate(0 0.746875)"/>
       <use xlink:href="#DejaVuSans-99" transform="translate(83.105469 0.746875)"/>
       <use xlink:href="#DejaVuSans-14" transform="translate(186.376953 0.746875)"/>
       <use xlink:href="#DejaVuSans-13" transform="translate(250 0.746875)"/>
       <use xlink:href="#DejaVuSans-c9c" transform="translate(314.580078 42.046875) scale(0.7)"/>
       <use xlink:href="#DejaVuSans-15" transform="translate(373.232422 42.046875) scale(0.7)"/>
      </g>
     </g>
    </g>
    <g id="ytick_11">
     <g id="line2d_48">
      <path d="M 555.983984 235.677173 
L 993.381406 235.677173 
" clip-path="url(#p41f7837cb5)" style="fill: none; stroke: #b0b0b0; stroke-opacity: 0.15; stroke-width: 0.8; stroke-linecap: square"/>
     </g>
     <g id="line2d_49">
      <g>
       <use xlink:href="#mf14dae9e99" x="555.983984" y="235.677173" style="stroke: #000000; stroke-width: 0.6"/>
      </g>
     </g>
    </g>
    <g id="ytick_12">
     <g id="line2d_50">
      <path d="M 555.983984 218.3336 
L 993.381406 218.3336 
" clip-path="url(#p41f7837cb5)" style="fill: none; stroke: #b0b0b0; stroke-opacity: 0.15; stroke-width: 0.8; stroke-linecap: square"/>
     </g>
     <g id="line2d_51">
      <g>
       <use xlink:href="#mf14dae9e99" x="555.983984" y="218.3336" style="stroke: #000000; stroke-width: 0.6"/>
      </g>
     </g>
    </g>
    <g id="ytick_13">
     <g id="line2d_52">
      <path d="M 555.983984 203.035484 
L 993.381406 203.035484 
" clip-path="url(#p41f7837cb5)" style="fill: none; stroke: #b0b0b0; stroke-opacity: 0.15; stroke-width: 0.8; stroke-linecap: square"/>
     </g>
     <g id="line2d_53">
      <g>
       <use xlink:href="#mf14dae9e99" x="555.983984" y="203.035484" style="stroke: #000000; stroke-width: 0.6"/>
      </g>
     </g>
    </g>
    <g id="ytick_14">
     <g id="line2d_54">
      <path d="M 555.983984 99.322218 
L 993.381406 99.322218 
" clip-path="url(#p41f7837cb5)" style="fill: none; stroke: #b0b0b0; stroke-opacity: 0.15; stroke-width: 0.8; stroke-linecap: square"/>
     </g>
     <g id="line2d_55">
      <g>
       <use xlink:href="#mf14dae9e99" x="555.983984" y="99.322218" style="stroke: #000000; stroke-width: 0.6"/>
      </g>
     </g>
     <g id="text_30">
      <!-- $\mathdefault{2\times10^{-1}}$ -->
      <g transform="translate(508.483984 103.972218) scale(0.1 -0.1)">
       <use xlink:href="#DejaVuSans-15" transform="translate(0 0.665625)"/>
       <use xlink:href="#DejaVuSans-99" transform="translate(83.105469 0.665625)"/>
       <use xlink:href="#DejaVuSans-14" transform="translate(186.376953 0.665625)"/>
       <use xlink:href="#DejaVuSans-13" transform="translate(250 0.665625)"/>
       <use xlink:href="#DejaVuSans-c9c" transform="translate(314.580078 41.965625) scale(0.7)"/>
       <use xlink:href="#DejaVuSans-14" transform="translate(373.232422 41.965625) scale(0.7)"/>
      </g>
     </g>
    </g>
    <g id="text_31">
     <!-- Magnitude (log scale) -->
     <g transform="translate(501.841406 241.622305) rotate(-90) scale(0.11 -0.11)">
      <defs>
       <path id="DejaVuSans-30" d="M 628 4666 
L 1569 4666 
L 2759 1491 
L 3956 4666 
L 4897 4666 
L 4897 0 
L 4281 0 
L 4281 4097 
L 3078 897 
L 2444 897 
L 1241 4097 
L 1241 0 
L 628 0 
L 628 4666 
z
" transform="scale(0.015625)"/>
      </defs>
      <use xlink:href="#DejaVuSans-30"/>
      <use xlink:href="#DejaVuSans-44" transform="translate(86.28125 0)"/>
      <use xlink:href="#DejaVuSans-4a" transform="translate(147.5625 0)"/>
      <use xlink:href="#DejaVuSans-51" transform="translate(211.046875 0)"/>
      <use xlink:href="#DejaVuSans-4c" transform="translate(274.421875 0)"/>
      <use xlink:href="#DejaVuSans-57" transform="translate(302.203125 0)"/>
      <use xlink:href="#DejaVuSans-58" transform="translate(341.40625 0)"/>
      <use xlink:href="#DejaVuSans-47" transform="translate(404.78125 0)"/>
      <use xlink:href="#DejaVuSans-48" transform="translate(468.265625 0)"/>
      <use xlink:href="#DejaVuSans-3" transform="translate(529.796875 0)"/>
      <use xlink:href="#DejaVuSans-b" transform="translate(561.578125 0)"/>
      <use xlink:href="#DejaVuSans-4f" transform="translate(600.59375 0)"/>
      <use xlink:href="#DejaVuSans-52" transform="translate(628.375 0)"/>
      <use xlink:href="#DejaVuSans-4a" transform="translate(689.5625 0)"/>
      <use xlink:href="#DejaVuSans-3" transform="translate(753.046875 0)"/>
      <use xlink:href="#DejaVuSans-56" transform="translate(784.828125 0)"/>
      <use xlink:href="#DejaVuSans-46" transform="translate(836.921875 0)"/>
      <use xlink:href="#DejaVuSans-44" transform="translate(891.90625 0)"/>
      <use xlink:href="#DejaVuSans-4f" transform="translate(953.1875 0)"/>
      <use xlink:href="#DejaVuSans-48" transform="translate(980.96875 0)"/>
      <use xlink:href="#DejaVuSans-c" transform="translate(1042.5 0)"/>
     </g>
    </g>
   </g>
   <g id="line2d_56">
    <path d="M 575.865685 59.542461 
L 587.676716 66.825494 
L 598.85127 73.716056 
L 609.454452 80.254294 
L 619.541862 86.474491 
L 629.161356 92.406158 
L 638.354429 98.074879 
L 647.157285 103.502982 
L 655.601707 108.710064 
L 663.715746 113.713423 
L 671.524284 118.528399 
L 679.049493 123.168667 
L 686.311217 127.646462 
L 693.327284 131.972778 
L 700.113771 136.157528 
L 706.68523 140.209685 
L 713.054868 144.137393 
L 719.234715 147.94807 
L 725.235752 151.648489 
L 731.068039 155.24485 
L 736.740805 158.742847 
L 742.262546 162.147717 
L 747.641095 165.46429 
L 752.883691 168.697031 
L 757.997038 171.850073 
L 762.987356 174.927251 
L 767.860427 177.932132 
L 772.621633 180.868033 
L 777.275995 183.738051 
L 781.828204 186.545078 
L 786.282647 189.291821 
L 790.643436 191.980813 
L 794.914428 194.614434 
L 799.099247 197.194917 
L 803.2013 199.724366 
L 807.2238 202.204759 
L 811.169772 204.637963 
L 815.042074 207.025739 
L 818.843407 209.369754 
L 822.576326 211.671583 
L 826.243249 213.932717 
L 829.846469 216.15457 
L 833.388163 218.338483 
L 836.870395 220.485731 
L 840.29513 222.597525 
L 843.664236 224.675016 
L 846.979491 226.719301 
L 850.242589 228.731424 
L 853.455146 230.712382 
L 856.618704 232.663126 
L 859.734736 234.584564 
L 862.804647 236.477563 
L 865.829784 238.342952 
L 868.811433 240.181526 
L 871.750828 241.994044 
L 874.649149 243.781236 
L 877.507529 245.543797 
L 880.327053 247.2824 
L 883.108763 248.997685 
L 885.85366 250.69027 
L 888.562707 252.360749 
L 891.236827 254.009691 
L 893.876909 255.637644 
L 896.48381 257.245137 
L 899.058352 258.832676 
L 901.60133 260.400752 
L 904.113508 261.949836 
L 906.595622 263.480381 
L 909.048385 264.992828 
L 911.472483 266.487599 
L 913.868577 267.965101 
L 916.237307 269.425731 
L 918.579291 270.869868 
L 920.895126 272.297881 
L 923.18539 273.710126 
L 925.450642 275.106948 
L 927.691422 276.488679 
L 929.908252 277.855642 
L 932.10164 279.208151 
L 934.272076 280.546506 
L 936.420035 281.871002 
L 938.545979 283.181922 
L 940.650353 284.479542 
L 942.733592 285.764129 
L 944.796115 287.035942 
L 946.838331 288.295233 
L 948.860635 289.542246 
L 950.863412 290.777218 
L 952.847036 292.000379 
L 954.811869 293.211954 
L 956.758264 294.412159 
L 958.686564 295.601206 
L 960.597102 296.779301 
L 962.490203 297.946643 
L 964.366181 299.103427 
L 966.225345 300.249843 
L 968.067992 301.386074 
L 969.894413 302.512299 
L 971.704892 303.628695 
L 973.499705 304.73543 
" clip-path="url(#p41f7837cb5)" style="fill: none; stroke-dasharray: 5.55,2.4; stroke-dashoffset: 0; stroke: #059669; stroke-width: 1.5"/>
   </g>
   <g id="patch_7">
    <path d="M 555.983984 316.995078 
L 555.983984 47.282813 
" style="fill: none; stroke: #000000; stroke-width: 0.8; stroke-linejoin: miter; stroke-linecap: square"/>
   </g>
   <g id="patch_8">
    <path d="M 555.983984 316.995078 
L 993.381406 316.995078 
" style="fill: none; stroke: #000000; stroke-width: 0.8; stroke-linejoin: miter; stroke-linecap: square"/>
   </g>
   <g id="text_32">
    <!-- Log-log regression → decay rate -->
    <g transform="translate(555.983984 41.282812) scale(0.1 -0.1)">
     <defs>
      <path id="DejaVuSans-Oblique-2f" d="M 1075 4666 
L 1709 4666 
L 909 525 
L 3181 525 
L 3078 0 
L 172 0 
L 1075 4666 
z
" transform="scale(0.015625)"/>
      <path id="DejaVuSans-Oblique-4a" d="M 3816 3500 
L 3219 434 
Q 3047 -456 2561 -893 
Q 2075 -1331 1253 -1331 
Q 950 -1331 690 -1286 
Q 431 -1241 206 -1147 
L 313 -588 
Q 525 -725 762 -790 
Q 1000 -856 1269 -856 
Q 1816 -856 2167 -557 
Q 2519 -259 2631 300 
L 2681 563 
Q 2441 288 2122 144 
Q 1803 0 1434 0 
Q 903 0 598 351 
Q 294 703 294 1319 
Q 294 1803 478 2267 
Q 663 2731 997 3091 
Q 1219 3328 1514 3456 
Q 1809 3584 2131 3584 
Q 2484 3584 2746 3420 
Q 3009 3256 3138 2956 
L 3238 3500 
L 3816 3500 
z
M 2950 2216 
Q 2950 2641 2750 2872 
Q 2550 3103 2181 3103 
Q 1953 3103 1747 3012 
Q 1541 2922 1394 2759 
Q 1156 2491 1023 2127 
Q 891 1763 891 1375 
Q 891 944 1092 712 
Q 1294 481 1672 481 
Q 2219 481 2584 976 
Q 2950 1472 2950 2216 
z
" transform="scale(0.015625)"/>
      <path id="DejaVuSans-Oblique-55" d="M 2853 2969 
Q 2766 3016 2653 3041 
Q 2541 3066 2413 3066 
Q 1953 3066 1609 2717 
Q 1266 2369 1153 1784 
L 800 0 
L 225 0 
L 909 3500 
L 1484 3500 
L 1375 2956 
Q 1603 3259 1920 3421 
Q 2238 3584 2597 3584 
Q 2691 3584 2781 3573 
Q 2872 3563 2963 3538 
L 2853 2969 
z
" transform="scale(0.015625)"/>
      <path id="DejaVuSans-Oblique-56" d="M 3200 3397 
L 3091 2853 
Q 2863 2978 2609 3040 
Q 2356 3103 2088 3103 
Q 1634 3103 1373 2948 
Q 1113 2794 1113 2528 
Q 1113 2219 1719 2053 
Q 1766 2041 1788 2034 
L 1972 1978 
Q 2547 1819 2739 1644 
Q 2931 1469 2931 1166 
Q 2931 609 2489 259 
Q 2047 -91 1331 -91 
Q 1053 -91 747 -37 
Q 441 16 72 128 
L 184 722 
Q 500 559 806 475 
Q 1113 391 1394 391 
Q 1816 391 2080 572 
Q 2344 753 2344 1031 
Q 2344 1331 1650 1516 
L 1591 1531 
L 1394 1581 
Q 956 1697 753 1886 
Q 550 2075 550 2369 
Q 550 2928 970 3256 
Q 1391 3584 2113 3584 
Q 2397 3584 2667 3537 
Q 2938 3491 3200 3397 
z
" transform="scale(0.015625)"/>
      <path id="DejaVuSans-Oblique-51" d="M 3566 2113 
L 3156 0 
L 2578 0 
L 2988 2091 
Q 3016 2238 3031 2350 
Q 3047 2463 3047 2528 
Q 3047 2791 2881 2937 
Q 2716 3084 2419 3084 
Q 1956 3084 1622 2776 
Q 1288 2469 1184 1941 
L 800 0 
L 225 0 
L 903 3500 
L 1478 3500 
L 1363 2950 
Q 1603 3253 1940 3418 
Q 2278 3584 2650 3584 
Q 3113 3584 3367 3334 
Q 3622 3084 3622 2631 
Q 3622 2519 3608 2391 
Q 3594 2263 3566 2113 
z
" transform="scale(0.015625)"/>
      <path id="DejaVuSans-Oblique-b24" d="M 5050 2147 
L 5050 1866 
L 3822 638 
L 3447 1013 
L 4175 1741 
L 366 1741 
L 366 2272 
L 4175 2272 
L 3447 3000 
L 3822 3375 
L 5050 2147 
z
" transform="scale(0.015625)"/>
      <path id="DejaVuSans-Oblique-46" d="M 3431 3366 
L 3316 2797 
Q 3109 2947 2876 3022 
Q 2644 3097 2394 3097 
Q 2119 3097 1870 3000 
Q 1622 2903 1453 2725 
Q 1184 2453 1037 2087 
Q 891 1722 891 1331 
Q 891 859 1127 628 
Q 1363 397 1844 397 
Q 2081 397 2348 469 
Q 2616 541 2906 684 
L 2797 116 
Q 2547 13 2283 -39 
Q 2019 -91 1741 -91 
Q 1044 -91 669 257 
Q 294 606 294 1253 
Q 294 1797 489 2255 
Q 684 2713 1069 3078 
Q 1331 3328 1684 3456 
Q 2038 3584 2456 3584 
Q 2700 3584 2940 3529 
Q 3181 3475 3431 3366 
z
" transform="scale(0.015625)"/>
      <path id="DejaVuSans-Oblique-5c" d="M 1588 -325 
Q 1188 -997 936 -1164 
Q 684 -1331 294 -1331 
L -159 -1331 
L -63 -850 
L 269 -850 
Q 509 -850 678 -719 
Q 847 -588 1056 -206 
L 1234 128 
L 459 3500 
L 1069 3500 
L 1650 819 
L 3256 3500 
L 3859 3500 
L 1588 -325 
z
" transform="scale(0.015625)"/>
      <path id="DejaVuSans-Oblique-57" d="M 2706 3500 
L 2619 3053 
L 1472 3053 
L 1100 1153 
Q 1081 1047 1072 975 
Q 1063 903 1063 863 
Q 1063 663 1183 572 
Q 1303 481 1569 481 
L 2150 481 
L 2053 0 
L 1503 0 
Q 991 0 739 200 
Q 488 400 488 806 
Q 488 878 497 964 
Q 506 1050 525 1153 
L 897 3053 
L 409 3053 
L 500 3500 
L 978 3500 
L 1172 4494 
L 1747 4494 
L 1556 3500 
L 2706 3500 
z
" transform="scale(0.015625)"/>
     </defs>
     <use xlink:href="#DejaVuSans-Oblique-2f"/>
     <use xlink:href="#DejaVuSans-Oblique-52" transform="translate(55.71875 0)"/>
     <use xlink:href="#DejaVuSans-Oblique-4a" transform="translate(116.90625 0)"/>
     <use xlink:href="#DejaVuSans-Oblique-10" transform="translate(180.390625 0)"/>
     <use xlink:href="#DejaVuSans-Oblique-4f" transform="translate(216.46875 0)"/>
     <use xlink:href="#DejaVuSans-Oblique-52" transform="translate(244.25 0)"/>
     <use xlink:href="#DejaVuSans-Oblique-4a" transform="translate(305.4375 0)"/>
     <use xlink:href="#DejaVuSans-Oblique-3" transform="translate(368.921875 0)"/>
     <use xlink:href="#DejaVuSans-Oblique-55" transform="translate(400.703125 0)"/>
     <use xlink:href="#DejaVuSans-Oblique-48" transform="translate(441.8125 0)"/>
     <use xlink:href="#DejaVuSans-Oblique-4a" transform="translate(503.34375 0)"/>
     <use xlink:href="#DejaVuSans-Oblique-55" transform="translate(566.828125 0)"/>
     <use xlink:href="#DejaVuSans-Oblique-48" transform="translate(607.9375 0)"/>
     <use xlink:href="#DejaVuSans-Oblique-56" transform="translate(669.46875 0)"/>
     <use xlink:href="#DejaVuSans-Oblique-56" transform="translate(721.5625 0)"/>
     <use xlink:href="#DejaVuSans-Oblique-4c" transform="translate(773.65625 0)"/>
     <use xlink:href="#DejaVuSans-Oblique-52" transform="translate(801.4375 0)"/>
     <use xlink:href="#DejaVuSans-Oblique-51" transform="translate(862.625 0)"/>
     <use xlink:href="#DejaVuSans-Oblique-3" transform="translate(926 0)"/>
     <use xlink:href="#DejaVuSans-Oblique-b24" transform="translate(957.78125 0)"/>
     <use xlink:href="#DejaVuSans-Oblique-3" transform="translate(1041.578125 0)"/>
     <use xlink:href="#DejaVuSans-Oblique-47" transform="translate(1073.359375 0)"/>
     <use xlink:href="#DejaVuSans-Oblique-48" transform="translate(1136.84375 0)"/>
     <use xlink:href="#DejaVuSans-Oblique-46" transform="translate(1198.375 0)"/>
     <use xlink:href="#DejaVuSans-Oblique-44" transform="translate(1253.359375 0)"/>
     <use xlink:href="#DejaVuSans-Oblique-5c" transform="translate(1314.640625 0)"/>
     <use xlink:href="#DejaVuSans-Oblique-3" transform="translate(1373.828125 0)"/>
     <use xlink:href="#DejaVuSans-Oblique-55" transform="translate(1405.609375 0)"/>
     <use xlink:href="#DejaVuSans-Oblique-44" transform="translate(1446.71875 0)"/>
     <use xlink:href="#DejaVuSans-Oblique-57" transform="translate(1508 0)"/>
     <use xlink:href="#DejaVuSans-Oblique-48" transform="translate(1547.203125 0)"/>
    </g>
   </g>
   <g id="line2d_57">
    <g clip-path="url(#p41f7837cb5)">
     <use xlink:href="#m57863d192f" x="622.149745" y="88.579873" style="fill: #dc2626; stroke: #dc2626"/>
     <use xlink:href="#m57863d192f" x="734.56032" y="156.888489" style="fill: #dc2626; stroke: #dc2626"/>
     <use xlink:href="#m57863d192f" x="806.038496" y="201.097706" style="fill: #dc2626; stroke: #dc2626"/>
     <use xlink:href="#m57863d192f" x="858.871338" y="233.927873" style="fill: #dc2626; stroke: #dc2626"/>
     <use xlink:href="#m57863d192f" x="900.831074" y="260.067323" style="fill: #dc2626; stroke: #dc2626"/>
     <use xlink:href="#m57863d192f" x="935.682875" y="281.787889" style="fill: #dc2626; stroke: #dc2626"/>
    </g>
   </g>
   <g id="legend_2">
    <g id="patch_9">
     <path d="M 832.44875 94.088437 
L 987.081406 94.088437 
Q 988.881406 94.088437 988.881406 92.288437 
L 988.881406 53.582812 
Q 988.881406 51.782812 987.081406 51.782812 
L 832.44875 51.782812 
Q 830.64875 51.782812 830.64875 53.582812 
L 830.64875 92.288437 
Q 830.64875 94.088437 832.44875 94.088437 
z
" style="fill: #ffffff; opacity: 0.8; stroke: #cccccc; stroke-linejoin: miter"/>
    </g>
    <g id="line2d_58">
     <g>
      <use xlink:href="#m57863d192f" x="843.24875" y="59.071406" style="fill: #dc2626; stroke: #dc2626"/>
     </g>
    </g>
    <g id="text_33">
     <!-- Measured maxima -->
     <g transform="translate(859.44875 62.221406) scale(0.09 -0.09)">
      <use xlink:href="#DejaVuSans-30"/>
      <use xlink:href="#DejaVuSans-48" transform="translate(86.28125 0)"/>
      <use xlink:href="#DejaVuSans-44" transform="translate(147.8125 0)"/>
      <use xlink:href="#DejaVuSans-56" transform="translate(209.09375 0)"/>
      <use xlink:href="#DejaVuSans-58" transform="translate(261.1875 0)"/>
      <use xlink:href="#DejaVuSans-55" transform="translate(324.5625 0)"/>
      <use xlink:href="#DejaVuSans-48" transform="translate(363.46875 0)"/>
      <use xlink:href="#DejaVuSans-47" transform="translate(425 0)"/>
      <use xlink:href="#DejaVuSans-3" transform="translate(488.484375 0)"/>
      <use xlink:href="#DejaVuSans-50" transform="translate(520.265625 0)"/>
      <use xlink:href="#DejaVuSans-44" transform="translate(617.671875 0)"/>
      <use xlink:href="#DejaVuSans-5b" transform="translate(678.953125 0)"/>
      <use xlink:href="#DejaVuSans-4c" transform="translate(738.140625 0)"/>
      <use xlink:href="#DejaVuSans-50" transform="translate(765.921875 0)"/>
      <use xlink:href="#DejaVuSans-44" transform="translate(863.328125 0)"/>
     </g>
    </g>
    <g id="line2d_59">
     <path d="M 834.24875 79.955273 
L 843.24875 79.955273 
L 852.24875 79.955273 
" style="fill: none; stroke-dasharray: 5.55,2.4; stroke-dashoffset: 0; stroke: #059669; stroke-width: 1.5"/>
    </g>
    <g id="text_34">
     <!-- Fit: slope=-0.98, R²=1.0000 -->
     <g transform="translate(859.44875 76.622988) scale(0.09 -0.09)">
      <defs>
       <path id="DejaVuSans-1d" d="M 750 794 
L 1409 794 
L 1409 0 
L 750 0 
L 750 794 
z
M 750 3309 
L 1409 3309 
L 1409 2516 
L 750 2516 
L 750 3309 
z
" transform="scale(0.015625)"/>
       <path id="DejaVuSans-20" d="M 678 2906 
L 4684 2906 
L 4684 2381 
L 678 2381 
L 678 2906 
z
M 678 1631 
L 4684 1631 
L 4684 1100 
L 678 1100 
L 678 1631 
z
" transform="scale(0.015625)"/>
       <path id="DejaVuSans-1c" d="M 703 97 
L 703 672 
Q 941 559 1184 500 
Q 1428 441 1663 441 
Q 2288 441 2617 861 
Q 2947 1281 2994 2138 
Q 2813 1869 2534 1725 
Q 2256 1581 1919 1581 
Q 1219 1581 811 2004 
Q 403 2428 403 3163 
Q 403 3881 828 4315 
Q 1253 4750 1959 4750 
Q 2769 4750 3195 4129 
Q 3622 3509 3622 2328 
Q 3622 1225 3098 567 
Q 2575 -91 1691 -91 
Q 1453 -91 1209 -44 
Q 966 3 703 97 
z
M 1959 2075 
Q 2384 2075 2632 2365 
Q 2881 2656 2881 3163 
Q 2881 3666 2632 3958 
Q 2384 4250 1959 4250 
Q 1534 4250 1286 3958 
Q 1038 3666 1038 3163 
Q 1038 2656 1286 2365 
Q 1534 2075 1959 2075 
z
" transform="scale(0.015625)"/>
       <path id="DejaVuSans-f" d="M 750 794 
L 1409 794 
L 1409 256 
L 897 -744 
L 494 -744 
L 750 256 
L 750 794 
z
" transform="scale(0.015625)"/>
       <path id="DejaVuSans-35" d="M 2841 2188 
Q 3044 2119 3236 1894 
Q 3428 1669 3622 1275 
L 4263 0 
L 3584 0 
L 2988 1197 
Q 2756 1666 2539 1819 
Q 2322 1972 1947 1972 
L 1259 1972 
L 1259 0 
L 628 0 
L 628 4666 
L 2053 4666 
Q 2853 4666 3247 4331 
Q 3641 3997 3641 3322 
Q 3641 2881 3436 2590 
Q 3231 2300 2841 2188 
z
M 1259 4147 
L 1259 2491 
L 2053 2491 
Q 2509 2491 2742 2702 
Q 2975 2913 2975 3322 
Q 2975 3731 2742 3939 
Q 2509 4147 2053 4147 
L 1259 4147 
z
" transform="scale(0.015625)"/>
       <path id="DejaVuSans-74" d="M 838 2444 
L 2163 2444 
L 2163 2088 
L 294 2088 
L 294 2431 
Q 400 2528 597 2703 
Q 1672 3656 1672 3950 
Q 1672 4156 1509 4282 
Q 1347 4409 1081 4409 
Q 919 4409 728 4354 
Q 538 4300 313 4191 
L 313 4575 
Q 553 4663 761 4706 
Q 969 4750 1147 4750 
Q 1600 4750 1872 4544 
Q 2144 4338 2144 4000 
Q 2144 3566 1109 2678 
Q 934 2528 838 2444 
z
" transform="scale(0.015625)"/>
      </defs>
      <use xlink:href="#DejaVuSans-29"/>
      <use xlink:href="#DejaVuSans-4c" transform="translate(50.234375 0)"/>
      <use xlink:href="#DejaVuSans-57" transform="translate(78.015625 0)"/>
      <use xlink:href="#DejaVuSans-1d" transform="translate(117.21875 0)"/>
      <use xlink:href="#DejaVuSans-3" transform="translate(150.90625 0)"/>
      <use xlink:href="#DejaVuSans-56" transform="translate(182.6875 0)"/>
      <use xlink:href="#DejaVuSans-4f" transform="translate(234.78125 0)"/>
      <use xlink:href="#DejaVuSans-52" transform="translate(262.5625 0)"/>
      <use xlink:href="#DejaVuSans-53" transform="translate(323.75 0)"/>
      <use xlink:href="#DejaVuSans-48" transform="translate(387.234375 0)"/>
      <use xlink:href="#DejaVuSans-20" transform="translate(448.765625 0)"/>
      <use xlink:href="#DejaVuSans-10" transform="translate(532.5625 0)"/>
      <use xlink:href="#DejaVuSans-13" transform="translate(568.640625 0)"/>
      <use xlink:href="#DejaVuSans-11" transform="translate(632.265625 0)"/>
      <use xlink:href="#DejaVuSans-1c" transform="translate(664.046875 0)"/>
      <use xlink:href="#DejaVuSans-1b" transform="translate(727.671875 0)"/>
      <use xlink:href="#DejaVuSans-f" transform="translate(791.296875 0)"/>
      <use xlink:href="#DejaVuSans-3" transform="translate(823.078125 0)"/>
      <use xlink:href="#DejaVuSans-35" transform="translate(854.859375 0)"/>
      <use xlink:href="#DejaVuSans-74" transform="translate(924.34375 0)"/>
      <use xlink:href="#DejaVuSans-20" transform="translate(964.4375 0)"/>
      <use xlink:href="#DejaVuSans-14" transform="translate(1048.234375 0)"/>
      <use xlink:href="#DejaVuSans-11" transform="translate(1111.859375 0)"/>
      <use xlink:href="#DejaVuSans-13" transform="translate(1143.640625 0)"/>
      <use xlink:href="#DejaVuSans-13" transform="translate(1207.265625 0)"/>
      <use xlink:href="#DejaVuSans-13" transform="translate(1270.890625 0)"/>
      <use xlink:href="#DejaVuSans-13" transform="translate(1334.515625 0)"/>
     </g>
     <!-- = -5.9 dB/oct -->
     <g transform="translate(859.44875 87.425449) scale(0.09 -0.09)">
      <defs>
       <path id="DejaVuSans-12" d="M 1625 4666 
L 2156 4666 
L 531 -594 
L 0 -594 
L 1625 4666 
z
" transform="scale(0.015625)"/>
      </defs>
      <use xlink:href="#DejaVuSans-20"/>
      <use xlink:href="#DejaVuSans-3" transform="translate(83.796875 0)"/>
      <use xlink:href="#DejaVuSans-10" transform="translate(115.578125 0)"/>
      <use xlink:href="#DejaVuSans-18" transform="translate(151.65625 0)"/>
      <use xlink:href="#DejaVuSans-11" transform="translate(215.28125 0)"/>
      <use xlink:href="#DejaVuSans-1c" transform="translate(247.0625 0)"/>
      <use xlink:href="#DejaVuSans-3" transform="translate(310.6875 0)"/>
      <use xlink:href="#DejaVuSans-47" transform="translate(342.46875 0)"/>
      <use xlink:href="#DejaVuSans-25" transform="translate(405.953125 0)"/>
      <use xlink:href="#DejaVuSans-12" transform="translate(474.5625 0)"/>
      <use xlink:href="#DejaVuSans-52" transform="translate(508.25 0)"/>
      <use xlink:href="#DejaVuSans-46" transform="translate(569.4375 0)"/>
      <use xlink:href="#DejaVuSans-57" transform="translate(624.421875 0)"/>
     </g>
    </g>
   </g>
  </g>
  <g id="text_35">
   <!-- Figure B.12 — Side-lobe decay analysis ($M = 256$) -->
   <g transform="translate(351.201406 16.32) scale(0.12 -0.12)">
    <defs>
     <path id="DejaVuSans-Oblique-29" d="M 1081 4666 
L 3756 4666 
L 3653 4134 
L 1606 4134 
L 1338 2759 
L 3188 2759 
L 3084 2228 
L 1234 2228 
L 800 0 
L 172 0 
L 1081 4666 
z
" transform="scale(0.015625)"/>
     <path id="DejaVuSans-Oblique-58" d="M 428 1388 
L 838 3500 
L 1416 3500 
L 1006 1409 
Q 975 1256 961 1147 
Q 947 1038 947 966 
Q 947 700 1109 554 
Q 1272 409 1569 409 
Q 2031 409 2368 721 
Q 2706 1034 2809 1563 
L 3194 3500 
L 3769 3500 
L 3091 0 
L 2516 0 
L 2631 550 
Q 2388 244 2052 76 
Q 1716 -91 1338 -91 
Q 878 -91 622 161 
Q 366 413 366 863 
Q 366 956 381 1097 
Q 397 1238 428 1388 
z
" transform="scale(0.015625)"/>
     <path id="DejaVuSans-Oblique-25" d="M 1081 4666 
L 2694 4666 
Q 3350 4666 3675 4422 
Q 4000 4178 4000 3688 
Q 4000 3238 3720 2911 
Q 3441 2584 2988 2516 
Q 3375 2428 3569 2181 
Q 3763 1934 3763 1522 
Q 3763 819 3242 409 
Q 2722 0 1819 0 
L 172 0 
L 1081 4666 
z
M 1234 2228 
L 903 519 
L 1919 519 
Q 2491 519 2800 781 
Q 3109 1044 3109 1522 
Q 3109 1891 2904 2059 
Q 2700 2228 2247 2228 
L 1234 2228 
z
M 1606 4147 
L 1331 2741 
L 2272 2741 
Q 2775 2741 3058 2959 
Q 3341 3178 3341 3566 
Q 3341 3869 3150 4008 
Q 2959 4147 2541 4147 
L 1606 4147 
z
" transform="scale(0.015625)"/>
     <path id="DejaVuSans-Oblique-11" d="M 525 794 
L 1184 794 
L 1031 0 
L 372 0 
L 525 794 
z
" transform="scale(0.015625)"/>
     <path id="DejaVuSans-Oblique-14" d="M 416 531 
L 1447 531 
L 2144 4122 
L 978 3897 
L 1088 4441 
L 2247 4666 
L 2881 4666 
L 2075 531 
L 3103 531 
L 3003 0 
L 313 0 
L 416 531 
z
" transform="scale(0.015625)"/>
     <path id="DejaVuSans-Oblique-15" d="M 2950 2253 
L 934 525 
L 3163 525 
L 3053 0 
L 25 0 
L 128 531 
L 2234 2338 
Q 2656 2703 2832 2979 
Q 3009 3256 3009 3547 
Q 3009 3850 2796 4040 
Q 2584 4231 2241 4231 
Q 1944 4231 1581 4125 
Q 1219 4019 806 3816 
L 922 4441 
Q 1309 4594 1662 4672 
Q 2016 4750 2316 4750 
Q 2928 4750 3301 4425 
Q 3675 4100 3675 3572 
Q 3675 3216 3497 2892 
Q 3319 2569 2950 2253 
z
" transform="scale(0.015625)"/>
     <path id="DejaVuSansDisplay-4" d="M 313 1978 
L 6088 1978 
L 6088 1528 
L 313 1528 
L 313 1978 
z
" transform="scale(0.015625)"/>
     <path id="DejaVuSans-Oblique-b" d="M 2731 4856 
Q 1903 3822 1495 2892 
Q 1088 1963 1088 1100 
Q 1088 606 1206 120 
Q 1325 -366 1563 -844 
L 1063 -844 
Q 775 -306 634 201 
Q 494 709 494 1197 
Q 494 2125 923 3036 
Q 1353 3947 2222 4856 
L 2731 4856 
z
" transform="scale(0.015625)"/>
     <path id="DejaVuSans-Oblique-30" d="M 1081 4666 
L 2028 4666 
L 2572 1522 
L 4378 4666 
L 5350 4666 
L 4441 0 
L 3828 0 
L 4622 4091 
L 2791 897 
L 2175 897 
L 1581 4103 
L 788 0 
L 172 0 
L 1081 4666 
z
" transform="scale(0.015625)"/>
     <path id="DejaVuSans-Oblique-c" d="M -397 -844 
Q 434 191 840 1120 
Q 1247 2050 1247 2913 
Q 1247 3406 1130 3892 
Q 1013 4378 775 4856 
L 1275 4856 
Q 1563 4316 1703 3812 
Q 1844 3309 1844 2822 
Q 1844 1891 1411 973 
Q 978 56 116 -844 
L -397 -844 
z
" transform="scale(0.015625)"/>
    </defs>
    <use xlink:href="#DejaVuSans-Oblique-29" transform="translate(0 0.015625)"/>
    <use xlink:href="#DejaVuSans-Oblique-4c" transform="translate(57.519531 0.015625)"/>
    <use xlink:href="#DejaVuSans-Oblique-4a" transform="translate(85.302734 0.015625)"/>
    <use xlink:href="#DejaVuSans-Oblique-58" transform="translate(148.779297 0.015625)"/>
    <use xlink:href="#DejaVuSans-Oblique-55" transform="translate(212.158203 0.015625)"/>
    <use xlink:href="#DejaVuSans-Oblique-48" transform="translate(253.271484 0.015625)"/>
    <use xlink:href="#DejaVuSans-Oblique-3" transform="translate(314.794922 0.015625)"/>
    <use xlink:href="#DejaVuSans-Oblique-25" transform="translate(346.582031 0.015625)"/>
    <use xlink:href="#DejaVuSans-Oblique-11" transform="translate(415.185547 0.015625)"/>
    <use xlink:href="#DejaVuSans-Oblique-14" transform="translate(446.972656 0.015625)"/>
    <use xlink:href="#DejaVuSans-Oblique-15" transform="translate(510.595703 0.015625)"/>
    <use xlink:href="#DejaVuSans-Oblique-3" transform="translate(574.21875 0.015625)"/>
    <use xlink:href="#DejaVuSansDisplay-4" transform="translate(606.005859 0.015625)"/>
    <use xlink:href="#DejaVuSans-Oblique-3" transform="translate(706.005859 0.015625)"/>
    <use xlink:href="#DejaVuSans-Oblique-36" transform="translate(737.792969 0.015625)"/>
    <use xlink:href="#DejaVuSans-Oblique-4c" transform="translate(801.269531 0.015625)"/>
    <use xlink:href="#DejaVuSans-Oblique-47" transform="translate(829.052734 0.015625)"/>
    <use xlink:href="#DejaVuSans-Oblique-48" transform="translate(892.529297 0.015625)"/>
    <use xlink:href="#DejaVuSans-Oblique-10" transform="translate(954.052734 0.015625)"/>
    <use xlink:href="#DejaVuSans-Oblique-4f" transform="translate(990.136719 0.015625)"/>
    <use xlink:href="#DejaVuSans-Oblique-52" transform="translate(1017.919922 0.015625)"/>
    <use xlink:href="#DejaVuSans-Oblique-45" transform="translate(1079.101562 0.015625)"/>
    <use xlink:href="#DejaVuSans-Oblique-48" transform="translate(1142.578125 0.015625)"/>
    <use xlink:href="#DejaVuSans-Oblique-3" transform="translate(1204.101562 0.015625)"/>
    <use xlink:href="#DejaVuSans-Oblique-47" transform="translate(1235.888672 0.015625)"/>
    <use xlink:href="#DejaVuSans-Oblique-48" transform="translate(1299.365234 0.015625)"/>
    <use xlink:href="#DejaVuSans-Oblique-46" transform="translate(1360.888672 0.015625)"/>
    <use xlink:href="#DejaVuSans-Oblique-44" transform="translate(1415.869141 0.015625)"/>
    <use xlink:href="#DejaVuSans-Oblique-5c" transform="translate(1477.148438 0.015625)"/>
    <use xlink:href="#DejaVuSans-Oblique-3" transform="translate(1536.328125 0.015625)"/>
    <use xlink:href="#DejaVuSans-Oblique-44" transform="translate(1568.115234 0.015625)"/>
    <use xlink:href="#DejaVuSans-Oblique-51" transform="translate(1629.394531 0.015625)"/>
    <use xlink:href="#DejaVuSans-Oblique-44" transform="translate(1692.773438 0.015625)"/>
    <use xlink:href="#DejaVuSans-Oblique-4f" transform="translate(1754.052734 0.015625)"/>
    <use xlink:href="#DejaVuSans-Oblique-5c" transform="translate(1781.835938 0.015625)"/>
    <use xlink:href="#DejaVuSans-Oblique-56" transform="translate(1841.015625 0.015625)"/>
    <use xlink:href="#DejaVuSans-Oblique-4c" transform="translate(1893.115234 0.015625)"/>
    <use xlink:href="#DejaVuSans-Oblique-56" transform="translate(1920.898438 0.015625)"/>
    <use xlink:href="#DejaVuSans-Oblique-3" transform="translate(1972.998047 0.015625)"/>
    <use xlink:href="#DejaVuSans-Oblique-b" transform="translate(2004.785156 0.015625)"/>
    <use xlink:href="#DejaVuSans-Oblique-30" transform="translate(2043.798828 0.015625)"/>
    <use xlink:href="#DejaVuSans-20" transform="translate(2149.560547 0.015625)"/>
    <use xlink:href="#DejaVuSans-15" transform="translate(2252.832031 0.015625)"/>
    <use xlink:href="#DejaVuSans-18" transform="translate(2316.455078 0.015625)"/>
    <use xlink:href="#DejaVuSans-19" transform="translate(2380.078125 0.015625)"/>
    <use xlink:href="#DejaVuSans-Oblique-c" transform="translate(2443.701172 0.015625)"/>
   </g>
  </g>
 </g>
 <defs>
  <clipPath id="pe9eab7e7d5">
   <rect x="45.103984" y="47.282812" width="437.397422" height="269.712266"/>
  </clipPath>
  <clipPath id="p41f7837cb5">
   <rect x="555.983984" y="47.282812" width="437.397422" height="269.712266"/>
  </clipPath>
 </defs>
</svg>
