<?xml version="1.0" encoding="utf-8" standalone="no"?>
<!DOCTYPE svg PUBLIC "-//W3C//DTD SVG 1.1//EN"
  "http://www.w3.org/Graphics/SVG/1.1/DTD/svg11.dtd">
<svg xmlns:xlink="http://www.w3.org/1999/xlink" width="1000.405156pt" height="424.675937pt" viewBox="0 0 1000.405156 424.675937" xmlns="http://www.w3.org/2000/svg" version="1.1">
 <metadata>
  <rdf:RDF xmlns:dc="http://purl.org/dc/elements/1.1/" xmlns:cc="http://creativecommons.org/ns#" xmlns:rdf="http://www.w3.org/1999/02/22-rdf-syntax-ns#">
   <cc:Work>
    <dc:type rdf:resource="http://purl.org/dc/dcmitype/StillImage"/>
    <dc:date>2026-06-20T19:08:27.412952</dc:date>
    <dc:format>image/svg+xml</dc:format>
    <dc:creator>
     <cc:Agent>
      <dc:title>Matplotlib v3.11.0, https://matplotlib.org/</dc:title>
     </cc:Agent>
    </dc:creator>
   </cc:Work>
  </rdf:RDF>
 </metadata>
 <defs>
  <style type="text/css">*{stroke-linejoin: round; stroke-linecap: butt}</style>
 </defs>
 <g id="figure_1">
  <g id="patch_1">
   <path d="M 0 424.675937 
L 1000.405156 424.675937 
L 1000.405156 0 
L 0 0 
z
" style="fill: #ffffff"/>
  </g>
  <g id="axes_1">
   <g id="patch_2">
    <path d="M 51.466484 385.475078 
L 990.023906 385.475078 
L 990.023906 22.32 
L 51.466484 22.32 
z
" style="fill: #ffffff"/>
   </g>
   <g id="matplotlib.axis_1">
    <g id="xtick_1">
     <g id="line2d_1">
      <path d="M 51.466484 385.475078 
L 51.466484 22.32 
" clip-path="url(#pcca74bfdb1)" style="fill: none; stroke: #b0b0b0; stroke-opacity: 0.15; stroke-width: 0.8; stroke-linecap: square"/>
     </g>
     <g id="line2d_2">
      <defs>
       <path id="m6f18bb223d" d="M 0 0 
L 0 3.5 
" style="stroke: #000000; stroke-width: 0.8"/>
      </defs>
      <g>
       <use xlink:href="#m6f18bb223d" x="51.466484" y="385.475078" style="stroke: #000000; stroke-width: 0.8"/>
      </g>
     </g>
     <g id="text_1">
      <!-- −8 -->
      <g transform="translate(44.095391 400.072734) scale(0.1 -0.1)">
       <defs>
        <path id="DejaVuSans-c9c" d="M 678 2272 
L 4684 2272 
L 4684 1741 
L 678 1741 
L 678 2272 
z
" transform="scale(0.015625)"/>
        <path id="DejaVuSans-1b" d="M 2034 2216 
Q 1584 2216 1326 1975 
Q 1069 1734 1069 1313 
Q 1069 891 1326 650 
Q 1584 409 2034 409 
Q 2484 409 2743 651 
Q 3003 894 3003 1313 
Q 3003 1734 2745 1975 
Q 2488 2216 2034 2216 
z
M 1403 2484 
Q 997 2584 770 2862 
Q 544 3141 544 3541 
Q 544 4100 942 4425 
Q 1341 4750 2034 4750 
Q 2731 4750 3128 4425 
Q 3525 4100 3525 3541 
Q 3525 3141 3298 2862 
Q 3072 2584 2669 2484 
Q 3125 2378 3379 2068 
Q 3634 1759 3634 1313 
Q 3634 634 3220 271 
Q 2806 -91 2034 -91 
Q 1263 -91 848 271 
Q 434 634 434 1313 
Q 434 1759 690 2068 
Q 947 2378 1403 2484 
z
M 1172 3481 
Q 1172 3119 1398 2916 
Q 1625 2713 2034 2713 
Q 2441 2713 2670 2916 
Q 2900 3119 2900 3481 
Q 2900 3844 2670 4047 
Q 2441 4250 2034 4250 
Q 1625 4250 1398 4047 
Q 1172 3844 1172 3481 
z
" transform="scale(0.015625)"/>
       </defs>
       <use xlink:href="#DejaVuSans-c9c"/>
       <use xlink:href="#DejaVuSans-1b" transform="translate(83.796875 0)"/>
      </g>
     </g>
    </g>
    <g id="xtick_2">
     <g id="line2d_3">
      <path d="M 168.786162 385.475078 
L 168.786162 22.32 
" clip-path="url(#pcca74bfdb1)" style="fill: none; stroke: #b0b0b0; stroke-opacity: 0.15; stroke-width: 0.8; stroke-linecap: square"/>
     </g>
     <g id="line2d_4">
      <g>
       <use xlink:href="#m6f18bb223d" x="168.786162" y="385.475078" style="stroke: #000000; stroke-width: 0.8"/>
      </g>
     </g>
     <g id="text_2">
      <!-- −6 -->
      <g transform="translate(161.415068 400.072734) scale(0.1 -0.1)">
       <defs>
        <path id="DejaVuSans-19" d="M 2113 2584 
Q 1688 2584 1439 2293 
Q 1191 2003 1191 1497 
Q 1191 994 1439 701 
Q 1688 409 2113 409 
Q 2538 409 2786 701 
Q 3034 994 3034 1497 
Q 3034 2003 2786 2293 
Q 2538 2584 2113 2584 
z
M 3366 4563 
L 3366 3988 
Q 3128 4100 2886 4159 
Q 2644 4219 2406 4219 
Q 1781 4219 1451 3797 
Q 1122 3375 1075 2522 
Q 1259 2794 1537 2939 
Q 1816 3084 2150 3084 
Q 2853 3084 3261 2657 
Q 3669 2231 3669 1497 
Q 3669 778 3244 343 
Q 2819 -91 2113 -91 
Q 1303 -91 875 529 
Q 447 1150 447 2328 
Q 447 3434 972 4092 
Q 1497 4750 2381 4750 
Q 2619 4750 2861 4703 
Q 3103 4656 3366 4563 
z
" transform="scale(0.015625)"/>
       </defs>
       <use xlink:href="#DejaVuSans-c9c"/>
       <use xlink:href="#DejaVuSans-19" transform="translate(83.796875 0)"/>
      </g>
     </g>
    </g>
    <g id="xtick_3">
     <g id="line2d_5">
      <path d="M 286.10584 385.475078 
L 286.10584 22.32 
" clip-path="url(#pcca74bfdb1)" style="fill: none; stroke: #b0b0b0; stroke-opacity: 0.15; stroke-width: 0.8; stroke-linecap: square"/>
     </g>
     <g id="line2d_6">
      <g>
       <use xlink:href="#m6f18bb223d" x="286.10584" y="385.475078" style="stroke: #000000; stroke-width: 0.8"/>
      </g>
     </g>
     <g id="text_3">
      <!-- −4 -->
      <g transform="translate(278.734746 400.072734) scale(0.1 -0.1)">
       <defs>
        <path id="DejaVuSans-17" d="M 2419 4116 
L 825 1625 
L 2419 1625 
L 2419 4116 
z
M 2253 4666 
L 3047 4666 
L 3047 1625 
L 3713 1625 
L 3713 1100 
L 3047 1100 
L 3047 0 
L 2419 0 
L 2419 1100 
L 313 1100 
L 313 1709 
L 2253 4666 
z
" transform="scale(0.015625)"/>
       </defs>
       <use xlink:href="#DejaVuSans-c9c"/>
       <use xlink:href="#DejaVuSans-17" transform="translate(83.796875 0)"/>
      </g>
     </g>
    </g>
    <g id="xtick_4">
     <g id="line2d_7">
      <path d="M 403.425518 385.475078 
L 403.425518 22.32 
" clip-path="url(#pcca74bfdb1)" style="fill: none; stroke: #b0b0b0; stroke-opacity: 0.15; stroke-width: 0.8; stroke-linecap: square"/>
     </g>
     <g id="line2d_8">
      <g>
       <use xlink:href="#m6f18bb223d" x="403.425518" y="385.475078" style="stroke: #000000; stroke-width: 0.8"/>
      </g>
     </g>
     <g id="text_4">
      <!-- −2 -->
      <g transform="translate(396.054424 400.072734) scale(0.1 -0.1)">
       <defs>
        <path id="DejaVuSans-15" d="M 1228 531 
L 3431 531 
L 3431 0 
L 469 0 
L 469 531 
Q 828 903 1448 1529 
Q 2069 2156 2228 2338 
Q 2531 2678 2651 2914 
Q 2772 3150 2772 3378 
Q 2772 3750 2511 3984 
Q 2250 4219 1831 4219 
Q 1534 4219 1204 4116 
Q 875 4013 500 3803 
L 500 4441 
Q 881 4594 1212 4672 
Q 1544 4750 1819 4750 
Q 2544 4750 2975 4387 
Q 3406 4025 3406 3419 
Q 3406 3131 3298 2873 
Q 3191 2616 2906 2266 
Q 2828 2175 2409 1742 
Q 1991 1309 1228 531 
z
" transform="scale(0.015625)"/>
       </defs>
       <use xlink:href="#DejaVuSans-c9c"/>
       <use xlink:href="#DejaVuSans-15" transform="translate(83.796875 0)"/>
      </g>
     </g>
    </g>
    <g id="xtick_5">
     <g id="line2d_9">
      <path d="M 520.745195 385.475078 
L 520.745195 22.32 
" clip-path="url(#pcca74bfdb1)" style="fill: none; stroke: #b0b0b0; stroke-opacity: 0.15; stroke-width: 0.8; stroke-linecap: square"/>
     </g>
     <g id="line2d_10">
      <g>
       <use xlink:href="#m6f18bb223d" x="520.745195" y="385.475078" style="stroke: #000000; stroke-width: 0.8"/>
      </g>
     </g>
     <g id="text_5">
      <!-- 0 -->
      <g transform="translate(517.563945 400.072734) scale(0.1 -0.1)">
       <defs>
        <path id="DejaVuSans-13" d="M 2034 4250 
Q 1547 4250 1301 3770 
Q 1056 3291 1056 2328 
Q 1056 1369 1301 889 
Q 1547 409 2034 409 
Q 2525 409 2770 889 
Q 3016 1369 3016 2328 
Q 3016 3291 2770 3770 
Q 2525 4250 2034 4250 
z
M 2034 4750 
Q 2819 4750 3233 4129 
Q 3647 3509 3647 2328 
Q 3647 1150 3233 529 
Q 2819 -91 2034 -91 
Q 1250 -91 836 529 
Q 422 1150 422 2328 
Q 422 3509 836 4129 
Q 1250 4750 2034 4750 
z
" transform="scale(0.015625)"/>
       </defs>
       <use xlink:href="#DejaVuSans-13"/>
      </g>
     </g>
    </g>
    <g id="xtick_6">
     <g id="line2d_11">
      <path d="M 638.064873 385.475078 
L 638.064873 22.32 
" clip-path="url(#pcca74bfdb1)" style="fill: none; stroke: #b0b0b0; stroke-opacity: 0.15; stroke-width: 0.8; stroke-linecap: square"/>
     </g>
     <g id="line2d_12">
      <g>
       <use xlink:href="#m6f18bb223d" x="638.064873" y="385.475078" style="stroke: #000000; stroke-width: 0.8"/>
      </g>
     </g>
     <g id="text_6">
      <!-- 2 -->
      <g transform="translate(634.883623 400.072734) scale(0.1 -0.1)">
       <use xlink:href="#DejaVuSans-15"/>
      </g>
     </g>
    </g>
    <g id="xtick_7">
     <g id="line2d_13">
      <path d="M 755.384551 385.475078 
L 755.384551 22.32 
" clip-path="url(#pcca74bfdb1)" style="fill: none; stroke: #b0b0b0; stroke-opacity: 0.15; stroke-width: 0.8; stroke-linecap: square"/>
     </g>
     <g id="line2d_14">
      <g>
       <use xlink:href="#m6f18bb223d" x="755.384551" y="385.475078" style="stroke: #000000; stroke-width: 0.8"/>
      </g>
     </g>
     <g id="text_7">
      <!-- 4 -->
      <g transform="translate(752.203301 400.072734) scale(0.1 -0.1)">
       <use xlink:href="#DejaVuSans-17"/>
      </g>
     </g>
    </g>
    <g id="xtick_8">
     <g id="line2d_15">
      <path d="M 872.704229 385.475078 
L 872.704229 22.32 
" clip-path="url(#pcca74bfdb1)" style="fill: none; stroke: #b0b0b0; stroke-opacity: 0.15; stroke-width: 0.8; stroke-linecap: square"/>
     </g>
     <g id="line2d_16">
      <g>
       <use xlink:href="#m6f18bb223d" x="872.704229" y="385.475078" style="stroke: #000000; stroke-width: 0.8"/>
      </g>
     </g>
     <g id="text_8">
      <!-- 6 -->
      <g transform="translate(869.522979 400.072734) scale(0.1 -0.1)">
       <use xlink:href="#DejaVuSans-19"/>
      </g>
     </g>
    </g>
    <g id="xtick_9">
     <g id="line2d_17">
      <path d="M 990.023906 385.475078 
L 990.023906 22.32 
" clip-path="url(#pcca74bfdb1)" style="fill: none; stroke: #b0b0b0; stroke-opacity: 0.15; stroke-width: 0.8; stroke-linecap: square"/>
     </g>
     <g id="line2d_18">
      <g>
       <use xlink:href="#m6f18bb223d" x="990.023906" y="385.475078" style="stroke: #000000; stroke-width: 0.8"/>
      </g>
     </g>
     <g id="text_9">
      <!-- 8 -->
      <g transform="translate(986.842656 400.072734) scale(0.1 -0.1)">
       <use xlink:href="#DejaVuSans-1b"/>
      </g>
     </g>
    </g>
    <g id="text_10">
     <!-- Frequency (bins) -->
     <g transform="translate(474.921602 414.833359) scale(0.11 -0.11)">
      <defs>
       <path id="DejaVuSans-29" d="M 628 4666 
L 3309 4666 
L 3309 4134 
L 1259 4134 
L 1259 2759 
L 3109 2759 
L 3109 2228 
L 1259 2228 
L 1259 0 
L 628 0 
L 628 4666 
z
" transform="scale(0.015625)"/>
       <path id="DejaVuSans-55" d="M 2631 2963 
Q 2534 3019 2420 3045 
Q 2306 3072 2169 3072 
Q 1681 3072 1420 2755 
Q 1159 2438 1159 1844 
L 1159 0 
L 581 0 
L 581 3500 
L 1159 3500 
L 1159 2956 
Q 1341 3275 1631 3429 
Q 1922 3584 2338 3584 
Q 2397 3584 2469 3576 
Q 2541 3569 2628 3553 
L 2631 2963 
z
" transform="scale(0.015625)"/>
       <path id="DejaVuSans-48" d="M 3597 1894 
L 3597 1613 
L 953 1613 
Q 991 1019 1311 708 
Q 1631 397 2203 397 
Q 2534 397 2845 478 
Q 3156 559 3463 722 
L 3463 178 
Q 3153 47 2828 -22 
Q 2503 -91 2169 -91 
Q 1331 -91 842 396 
Q 353 884 353 1716 
Q 353 2575 817 3079 
Q 1281 3584 2069 3584 
Q 2775 3584 3186 3129 
Q 3597 2675 3597 1894 
z
M 3022 2063 
Q 3016 2534 2758 2815 
Q 2500 3097 2075 3097 
Q 1594 3097 1305 2825 
Q 1016 2553 972 2059 
L 3022 2063 
z
" transform="scale(0.015625)"/>
       <path id="DejaVuSans-54" d="M 947 1747 
Q 947 1113 1208 752 
Q 1469 391 1925 391 
Q 2381 391 2643 752 
Q 2906 1113 2906 1747 
Q 2906 2381 2643 2742 
Q 2381 3103 1925 3103 
Q 1469 3103 1208 2742 
Q 947 2381 947 1747 
z
M 2906 525 
Q 2725 213 2448 61 
Q 2172 -91 1784 -91 
Q 1150 -91 751 415 
Q 353 922 353 1747 
Q 353 2572 751 3078 
Q 1150 3584 1784 3584 
Q 2172 3584 2448 3432 
Q 2725 3281 2906 2969 
L 2906 3500 
L 3481 3500 
L 3481 -1331 
L 2906 -1331 
L 2906 525 
z
" transform="scale(0.015625)"/>
       <path id="DejaVuSans-58" d="M 544 1381 
L 544 3500 
L 1119 3500 
L 1119 1403 
Q 1119 906 1312 657 
Q 1506 409 1894 409 
Q 2359 409 2629 706 
Q 2900 1003 2900 1516 
L 2900 3500 
L 3475 3500 
L 3475 0 
L 2900 0 
L 2900 538 
Q 2691 219 2414 64 
Q 2138 -91 1772 -91 
Q 1169 -91 856 284 
Q 544 659 544 1381 
z
M 1991 3584 
L 1991 3584 
z
" transform="scale(0.015625)"/>
       <path id="DejaVuSans-51" d="M 3513 2113 
L 3513 0 
L 2938 0 
L 2938 2094 
Q 2938 2591 2744 2837 
Q 2550 3084 2163 3084 
Q 1697 3084 1428 2787 
Q 1159 2491 1159 1978 
L 1159 0 
L 581 0 
L 581 3500 
L 1159 3500 
L 1159 2956 
Q 1366 3272 1645 3428 
Q 1925 3584 2291 3584 
Q 2894 3584 3203 3211 
Q 3513 2838 3513 2113 
z
" transform="scale(0.015625)"/>
       <path id="DejaVuSans-46" d="M 3122 3366 
L 3122 2828 
Q 2878 2963 2633 3030 
Q 2388 3097 2138 3097 
Q 1578 3097 1268 2742 
Q 959 2388 959 1747 
Q 959 1106 1268 751 
Q 1578 397 2138 397 
Q 2388 397 2633 464 
Q 2878 531 3122 666 
L 3122 134 
Q 2881 22 2623 -34 
Q 2366 -91 2075 -91 
Q 1284 -91 818 406 
Q 353 903 353 1747 
Q 353 2603 823 3093 
Q 1294 3584 2113 3584 
Q 2378 3584 2631 3529 
Q 2884 3475 3122 3366 
z
" transform="scale(0.015625)"/>
       <path id="DejaVuSans-5c" d="M 2059 -325 
Q 1816 -950 1584 -1140 
Q 1353 -1331 966 -1331 
L 506 -1331 
L 506 -850 
L 844 -850 
Q 1081 -850 1212 -737 
Q 1344 -625 1503 -206 
L 1606 56 
L 191 3500 
L 800 3500 
L 1894 763 
L 2988 3500 
L 3597 3500 
L 2059 -325 
z
" transform="scale(0.015625)"/>
       <path id="DejaVuSans-3" transform="scale(0.015625)"/>
       <path id="DejaVuSans-b" d="M 1984 4856 
Q 1566 4138 1362 3434 
Q 1159 2731 1159 2009 
Q 1159 1288 1364 580 
Q 1569 -128 1984 -844 
L 1484 -844 
Q 1016 -109 783 600 
Q 550 1309 550 2009 
Q 550 2706 781 3412 
Q 1013 4119 1484 4856 
L 1984 4856 
z
" transform="scale(0.015625)"/>
       <path id="DejaVuSans-45" d="M 3116 1747 
Q 3116 2381 2855 2742 
Q 2594 3103 2138 3103 
Q 1681 3103 1420 2742 
Q 1159 2381 1159 1747 
Q 1159 1113 1420 752 
Q 1681 391 2138 391 
Q 2594 391 2855 752 
Q 3116 1113 3116 1747 
z
M 1159 2969 
Q 1341 3281 1617 3432 
Q 1894 3584 2278 3584 
Q 2916 3584 3314 3078 
Q 3713 2572 3713 1747 
Q 3713 922 3314 415 
Q 2916 -91 2278 -91 
Q 1894 -91 1617 61 
Q 1341 213 1159 525 
L 1159 0 
L 581 0 
L 581 4863 
L 1159 4863 
L 1159 2969 
z
" transform="scale(0.015625)"/>
       <path id="DejaVuSans-4c" d="M 603 3500 
L 1178 3500 
L 1178 0 
L 603 0 
L 603 3500 
z
M 603 4863 
L 1178 4863 
L 1178 4134 
L 603 4134 
L 603 4863 
z
" transform="scale(0.015625)"/>
       <path id="DejaVuSans-56" d="M 2834 3397 
L 2834 2853 
Q 2591 2978 2328 3040 
Q 2066 3103 1784 3103 
Q 1356 3103 1142 2972 
Q 928 2841 928 2578 
Q 928 2378 1081 2264 
Q 1234 2150 1697 2047 
L 1894 2003 
Q 2506 1872 2764 1633 
Q 3022 1394 3022 966 
Q 3022 478 2636 193 
Q 2250 -91 1575 -91 
Q 1294 -91 989 -36 
Q 684 19 347 128 
L 347 722 
Q 666 556 975 473 
Q 1284 391 1588 391 
Q 1994 391 2212 530 
Q 2431 669 2431 922 
Q 2431 1156 2273 1281 
Q 2116 1406 1581 1522 
L 1381 1569 
Q 847 1681 609 1914 
Q 372 2147 372 2553 
Q 372 3047 722 3315 
Q 1072 3584 1716 3584 
Q 2034 3584 2315 3537 
Q 2597 3491 2834 3397 
z
" transform="scale(0.015625)"/>
       <path id="DejaVuSans-c" d="M 513 4856 
L 1013 4856 
Q 1481 4119 1714 3412 
Q 1947 2706 1947 2009 
Q 1947 1309 1714 600 
Q 1481 -109 1013 -844 
L 513 -844 
Q 928 -128 1133 580 
Q 1338 1288 1338 2009 
Q 1338 2731 1133 3434 
Q 928 4138 513 4856 
z
" transform="scale(0.015625)"/>
      </defs>
      <use xlink:href="#DejaVuSans-29"/>
      <use xlink:href="#DejaVuSans-55" transform="translate(50.234375 0)"/>
      <use xlink:href="#DejaVuSans-48" transform="translate(89.140625 0)"/>
      <use xlink:href="#DejaVuSans-54" transform="translate(150.671875 0)"/>
      <use xlink:href="#DejaVuSans-58" transform="translate(214.15625 0)"/>
      <use xlink:href="#DejaVuSans-48" transform="translate(277.53125 0)"/>
      <use xlink:href="#DejaVuSans-51" transform="translate(339.0625 0)"/>
      <use xlink:href="#DejaVuSans-46" transform="translate(402.4375 0)"/>
      <use xlink:href="#DejaVuSans-5c" transform="translate(457.421875 0)"/>
      <use xlink:href="#DejaVuSans-3" transform="translate(516.609375 0)"/>
      <use xlink:href="#DejaVuSans-b" transform="translate(548.390625 0)"/>
      <use xlink:href="#DejaVuSans-45" transform="translate(587.40625 0)"/>
      <use xlink:href="#DejaVuSans-4c" transform="translate(650.890625 0)"/>
      <use xlink:href="#DejaVuSans-51" transform="translate(678.671875 0)"/>
      <use xlink:href="#DejaVuSans-56" transform="translate(742.046875 0)"/>
      <use xlink:href="#DejaVuSans-c" transform="translate(794.140625 0)"/>
     </g>
    </g>
   </g>
   <g id="matplotlib.axis_2">
    <g id="ytick_1">
     <g id="line2d_19">
      <path d="M 51.466484 371.507575 
L 990.023906 371.507575 
" clip-path="url(#pcca74bfdb1)" style="fill: none; stroke: #b0b0b0; stroke-opacity: 0.15; stroke-width: 0.8; stroke-linecap: square"/>
     </g>
     <g id="line2d_20">
      <defs>
       <path id="me04f13d091" d="M 0 0 
L -3.5 0 
" style="stroke: #000000; stroke-width: 0.8"/>
      </defs>
      <g>
       <use xlink:href="#me04f13d091" x="51.466484" y="371.507575" style="stroke: #000000; stroke-width: 0.8"/>
      </g>
     </g>
     <g id="text_11">
      <!-- 0.00 -->
      <g transform="translate(22.200859 375.306403) scale(0.1 -0.1)">
       <defs>
        <path id="DejaVuSans-11" d="M 684 794 
L 1344 794 
L 1344 0 
L 684 0 
L 684 794 
z
" transform="scale(0.015625)"/>
       </defs>
       <use xlink:href="#DejaVuSans-13"/>
       <use xlink:href="#DejaVuSans-11" transform="translate(63.625 0)"/>
       <use xlink:href="#DejaVuSans-13" transform="translate(95.40625 0)"/>
       <use xlink:href="#DejaVuSans-13" transform="translate(159.03125 0)"/>
      </g>
     </g>
    </g>
    <g id="ytick_2">
     <g id="line2d_21">
      <path d="M 51.466484 301.67006 
L 990.023906 301.67006 
" clip-path="url(#pcca74bfdb1)" style="fill: none; stroke: #b0b0b0; stroke-opacity: 0.15; stroke-width: 0.8; stroke-linecap: square"/>
     </g>
     <g id="line2d_22">
      <g>
       <use xlink:href="#me04f13d091" x="51.466484" y="301.67006" style="stroke: #000000; stroke-width: 0.8"/>
      </g>
     </g>
     <g id="text_12">
      <!-- 0.05 -->
      <g transform="translate(22.200859 305.468888) scale(0.1 -0.1)">
       <defs>
        <path id="DejaVuSans-18" d="M 691 4666 
L 3169 4666 
L 3169 4134 
L 1269 4134 
L 1269 2991 
Q 1406 3038 1543 3061 
Q 1681 3084 1819 3084 
Q 2600 3084 3056 2656 
Q 3513 2228 3513 1497 
Q 3513 744 3044 326 
Q 2575 -91 1722 -91 
Q 1428 -91 1123 -41 
Q 819 9 494 109 
L 494 744 
Q 775 591 1075 516 
Q 1375 441 1709 441 
Q 2250 441 2565 725 
Q 2881 1009 2881 1497 
Q 2881 1984 2565 2268 
Q 2250 2553 1709 2553 
Q 1456 2553 1204 2497 
Q 953 2441 691 2322 
L 691 4666 
z
" transform="scale(0.015625)"/>
       </defs>
       <use xlink:href="#DejaVuSans-13"/>
       <use xlink:href="#DejaVuSans-11" transform="translate(63.625 0)"/>
       <use xlink:href="#DejaVuSans-13" transform="translate(95.40625 0)"/>
       <use xlink:href="#DejaVuSans-18" transform="translate(159.03125 0)"/>
      </g>
     </g>
    </g>
    <g id="ytick_3">
     <g id="line2d_23">
      <path d="M 51.466484 231.832545 
L 990.023906 231.832545 
" clip-path="url(#pcca74bfdb1)" style="fill: none; stroke: #b0b0b0; stroke-opacity: 0.15; stroke-width: 0.8; stroke-linecap: square"/>
     </g>
     <g id="line2d_24">
      <g>
       <use xlink:href="#me04f13d091" x="51.466484" y="231.832545" style="stroke: #000000; stroke-width: 0.8"/>
      </g>
     </g>
     <g id="text_13">
      <!-- 0.10 -->
      <g transform="translate(22.200859 235.631373) scale(0.1 -0.1)">
       <defs>
        <path id="DejaVuSans-14" d="M 794 531 
L 1825 531 
L 1825 4091 
L 703 3866 
L 703 4441 
L 1819 4666 
L 2450 4666 
L 2450 531 
L 3481 531 
L 3481 0 
L 794 0 
L 794 531 
z
" transform="scale(0.015625)"/>
       </defs>
       <use xlink:href="#DejaVuSans-13"/>
       <use xlink:href="#DejaVuSans-11" transform="translate(63.625 0)"/>
       <use xlink:href="#DejaVuSans-14" transform="translate(95.40625 0)"/>
       <use xlink:href="#DejaVuSans-13" transform="translate(159.03125 0)"/>
      </g>
     </g>
    </g>
    <g id="ytick_4">
     <g id="line2d_25">
      <path d="M 51.466484 161.99503 
L 990.023906 161.99503 
" clip-path="url(#pcca74bfdb1)" style="fill: none; stroke: #b0b0b0; stroke-opacity: 0.15; stroke-width: 0.8; stroke-linecap: square"/>
     </g>
     <g id="line2d_26">
      <g>
       <use xlink:href="#me04f13d091" x="51.466484" y="161.99503" style="stroke: #000000; stroke-width: 0.8"/>
      </g>
     </g>
     <g id="text_14">
      <!-- 0.15 -->
      <g transform="translate(22.200859 165.793858) scale(0.1 -0.1)">
       <use xlink:href="#DejaVuSans-13"/>
       <use xlink:href="#DejaVuSans-11" transform="translate(63.625 0)"/>
       <use xlink:href="#DejaVuSans-14" transform="translate(95.40625 0)"/>
       <use xlink:href="#DejaVuSans-18" transform="translate(159.03125 0)"/>
      </g>
     </g>
    </g>
    <g id="ytick_5">
     <g id="line2d_27">
      <path d="M 51.466484 92.157515 
L 990.023906 92.157515 
" clip-path="url(#pcca74bfdb1)" style="fill: none; stroke: #b0b0b0; stroke-opacity: 0.15; stroke-width: 0.8; stroke-linecap: square"/>
     </g>
     <g id="line2d_28">
      <g>
       <use xlink:href="#me04f13d091" x="51.466484" y="92.157515" style="stroke: #000000; stroke-width: 0.8"/>
      </g>
     </g>
     <g id="text_15">
      <!-- 0.20 -->
      <g transform="translate(22.200859 95.956343) scale(0.1 -0.1)">
       <use xlink:href="#DejaVuSans-13"/>
       <use xlink:href="#DejaVuSans-11" transform="translate(63.625 0)"/>
       <use xlink:href="#DejaVuSans-15" transform="translate(95.40625 0)"/>
       <use xlink:href="#DejaVuSans-13" transform="translate(159.03125 0)"/>
      </g>
     </g>
    </g>
    <g id="ytick_6">
     <g id="line2d_29">
      <path d="M 51.466484 22.32 
L 990.023906 22.32 
" clip-path="url(#pcca74bfdb1)" style="fill: none; stroke: #b0b0b0; stroke-opacity: 0.15; stroke-width: 0.8; stroke-linecap: square"/>
     </g>
     <g id="line2d_30">
      <g>
       <use xlink:href="#me04f13d091" x="51.466484" y="22.32" style="stroke: #000000; stroke-width: 0.8"/>
      </g>
     </g>
     <g id="text_16">
      <!-- 0.25 -->
      <g transform="translate(22.200859 26.118828) scale(0.1 -0.1)">
       <use xlink:href="#DejaVuSans-13"/>
       <use xlink:href="#DejaVuSans-11" transform="translate(63.625 0)"/>
       <use xlink:href="#DejaVuSans-15" transform="translate(95.40625 0)"/>
       <use xlink:href="#DejaVuSans-18" transform="translate(159.03125 0)"/>
      </g>
     </g>
    </g>
    <g id="text_17">
     <!-- Normalized magnitude -->
     <g transform="translate(15.558281 266.587227) rotate(-90) scale(0.11 -0.11)">
      <defs>
       <path id="DejaVuSans-31" d="M 628 4666 
L 1478 4666 
L 3547 763 
L 3547 4666 
L 4159 4666 
L 4159 0 
L 3309 0 
L 1241 3903 
L 1241 0 
L 628 0 
L 628 4666 
z
" transform="scale(0.015625)"/>
       <path id="DejaVuSans-52" d="M 1959 3097 
Q 1497 3097 1228 2736 
Q 959 2375 959 1747 
Q 959 1119 1226 758 
Q 1494 397 1959 397 
Q 2419 397 2687 759 
Q 2956 1122 2956 1747 
Q 2956 2369 2687 2733 
Q 2419 3097 1959 3097 
z
M 1959 3584 
Q 2709 3584 3137 3096 
Q 3566 2609 3566 1747 
Q 3566 888 3137 398 
Q 2709 -91 1959 -91 
Q 1206 -91 779 398 
Q 353 888 353 1747 
Q 353 2609 779 3096 
Q 1206 3584 1959 3584 
z
" transform="scale(0.015625)"/>
       <path id="DejaVuSans-50" d="M 3328 2828 
Q 3544 3216 3844 3400 
Q 4144 3584 4550 3584 
Q 5097 3584 5394 3201 
Q 5691 2819 5691 2113 
L 5691 0 
L 5113 0 
L 5113 2094 
Q 5113 2597 4934 2840 
Q 4756 3084 4391 3084 
Q 3944 3084 3684 2787 
Q 3425 2491 3425 1978 
L 3425 0 
L 2847 0 
L 2847 2094 
Q 2847 2600 2669 2842 
Q 2491 3084 2119 3084 
Q 1678 3084 1418 2786 
Q 1159 2488 1159 1978 
L 1159 0 
L 581 0 
L 581 3500 
L 1159 3500 
L 1159 2956 
Q 1356 3278 1631 3431 
Q 1906 3584 2284 3584 
Q 2666 3584 2933 3390 
Q 3200 3197 3328 2828 
z
" transform="scale(0.015625)"/>
       <path id="DejaVuSans-44" d="M 2194 1759 
Q 1497 1759 1228 1600 
Q 959 1441 959 1056 
Q 959 750 1161 570 
Q 1363 391 1709 391 
Q 2188 391 2477 730 
Q 2766 1069 2766 1631 
L 2766 1759 
L 2194 1759 
z
M 3341 1997 
L 3341 0 
L 2766 0 
L 2766 531 
Q 2569 213 2275 61 
Q 1981 -91 1556 -91 
Q 1019 -91 701 211 
Q 384 513 384 1019 
Q 384 1609 779 1909 
Q 1175 2209 1959 2209 
L 2766 2209 
L 2766 2266 
Q 2766 2663 2505 2880 
Q 2244 3097 1772 3097 
Q 1472 3097 1187 3025 
Q 903 2953 641 2809 
L 641 3341 
Q 956 3463 1253 3523 
Q 1550 3584 1831 3584 
Q 2591 3584 2966 3190 
Q 3341 2797 3341 1997 
z
" transform="scale(0.015625)"/>
       <path id="DejaVuSans-4f" d="M 603 4863 
L 1178 4863 
L 1178 0 
L 603 0 
L 603 4863 
z
" transform="scale(0.015625)"/>
       <path id="DejaVuSans-5d" d="M 353 3500 
L 3084 3500 
L 3084 2975 
L 922 459 
L 3084 459 
L 3084 0 
L 275 0 
L 275 525 
L 2438 3041 
L 353 3041 
L 353 3500 
z
" transform="scale(0.015625)"/>
       <path id="DejaVuSans-47" d="M 2906 2969 
L 2906 4863 
L 3481 4863 
L 3481 0 
L 2906 0 
L 2906 525 
Q 2725 213 2448 61 
Q 2172 -91 1784 -91 
Q 1150 -91 751 415 
Q 353 922 353 1747 
Q 353 2572 751 3078 
Q 1150 3584 1784 3584 
Q 2172 3584 2448 3432 
Q 2725 3281 2906 2969 
z
M 947 1747 
Q 947 1113 1208 752 
Q 1469 391 1925 391 
Q 2381 391 2643 752 
Q 2906 1113 2906 1747 
Q 2906 2381 2643 2742 
Q 2381 3103 1925 3103 
Q 1469 3103 1208 2742 
Q 947 2381 947 1747 
z
" transform="scale(0.015625)"/>
       <path id="DejaVuSans-4a" d="M 2906 1791 
Q 2906 2416 2648 2759 
Q 2391 3103 1925 3103 
Q 1463 3103 1205 2759 
Q 947 2416 947 1791 
Q 947 1169 1205 825 
Q 1463 481 1925 481 
Q 2391 481 2648 825 
Q 2906 1169 2906 1791 
z
M 3481 434 
Q 3481 -459 3084 -895 
Q 2688 -1331 1869 -1331 
Q 1566 -1331 1297 -1286 
Q 1028 -1241 775 -1147 
L 775 -588 
Q 1028 -725 1275 -790 
Q 1522 -856 1778 -856 
Q 2344 -856 2625 -561 
Q 2906 -266 2906 331 
L 2906 616 
Q 2728 306 2450 153 
Q 2172 0 1784 0 
Q 1141 0 747 490 
Q 353 981 353 1791 
Q 353 2603 747 3093 
Q 1141 3584 1784 3584 
Q 2172 3584 2450 3431 
Q 2728 3278 2906 2969 
L 2906 3500 
L 3481 3500 
L 3481 434 
z
" transform="scale(0.015625)"/>
       <path id="DejaVuSans-57" d="M 1172 4494 
L 1172 3500 
L 2356 3500 
L 2356 3053 
L 1172 3053 
L 1172 1153 
Q 1172 725 1289 603 
Q 1406 481 1766 481 
L 2356 481 
L 2356 0 
L 1766 0 
Q 1100 0 847 248 
Q 594 497 594 1153 
L 594 3053 
L 172 3053 
L 172 3500 
L 594 3500 
L 594 4494 
L 1172 4494 
z
" transform="scale(0.015625)"/>
      </defs>
      <use xlink:href="#DejaVuSans-31"/>
      <use xlink:href="#DejaVuSans-52" transform="translate(74.8125 0)"/>
      <use xlink:href="#DejaVuSans-55" transform="translate(136 0)"/>
      <use xlink:href="#DejaVuSans-50" transform="translate(175.359375 0)"/>
      <use xlink:href="#DejaVuSans-44" transform="translate(272.765625 0)"/>
      <use xlink:href="#DejaVuSans-4f" transform="translate(334.046875 0)"/>
      <use xlink:href="#DejaVuSans-4c" transform="translate(361.828125 0)"/>
      <use xlink:href="#DejaVuSans-5d" transform="translate(389.609375 0)"/>
      <use xlink:href="#DejaVuSans-48" transform="translate(442.09375 0)"/>
      <use xlink:href="#DejaVuSans-47" transform="translate(503.625 0)"/>
      <use xlink:href="#DejaVuSans-3" transform="translate(567.109375 0)"/>
      <use xlink:href="#DejaVuSans-50" transform="translate(598.890625 0)"/>
      <use xlink:href="#DejaVuSans-44" transform="translate(696.296875 0)"/>
      <use xlink:href="#DejaVuSans-4a" transform="translate(757.578125 0)"/>
      <use xlink:href="#DejaVuSans-51" transform="translate(821.0625 0)"/>
      <use xlink:href="#DejaVuSans-4c" transform="translate(884.4375 0)"/>
      <use xlink:href="#DejaVuSans-57" transform="translate(912.21875 0)"/>
      <use xlink:href="#DejaVuSans-58" transform="translate(951.421875 0)"/>
      <use xlink:href="#DejaVuSans-47" transform="translate(1014.796875 0)"/>
      <use xlink:href="#DejaVuSans-48" transform="translate(1078.28125 0)"/>
     </g>
    </g>
   </g>
   <g id="line2d_31">
    <path d="M 579.405034 385.475078 
L 579.405034 22.32 
" clip-path="url(#pcca74bfdb1)" style="fill: none; stroke-dasharray: 0.5,0.825; stroke-dashoffset: 0; stroke: #2563eb; stroke-opacity: 0.5; stroke-width: 0.5"/>
   </g>
   <g id="line2d_32">
    <path d="M 462.085356 385.475078 
L 462.085356 22.32 
" clip-path="url(#pcca74bfdb1)" style="fill: none; stroke-dasharray: 0.5,0.825; stroke-dashoffset: 0; stroke: #2563eb; stroke-opacity: 0.5; stroke-width: 0.5"/>
   </g>
   <g id="line2d_33">
    <path d="M 638.064873 385.475078 
L 638.064873 22.32 
" clip-path="url(#pcca74bfdb1)" style="fill: none; stroke-dasharray: 0.5,0.825; stroke-dashoffset: 0; stroke: #dc2626; stroke-opacity: 0.5; stroke-width: 0.5"/>
   </g>
   <g id="line2d_34">
    <path d="M 403.425518 385.475078 
L 403.425518 22.32 
" clip-path="url(#pcca74bfdb1)" style="fill: none; stroke-dasharray: 0.5,0.825; stroke-dashoffset: 0; stroke: #dc2626; stroke-opacity: 0.5; stroke-width: 0.5"/>
   </g>
   <g id="line2d_35">
    <path d="M 638.064873 385.475078 
L 638.064873 22.32 
" clip-path="url(#pcca74bfdb1)" style="fill: none; stroke-dasharray: 0.5,0.825; stroke-dashoffset: 0; stroke: #059669; stroke-opacity: 0.5; stroke-width: 0.5"/>
   </g>
   <g id="line2d_36">
    <path d="M 403.425518 385.475078 
L 403.425518 22.32 
" clip-path="url(#pcca74bfdb1)" style="fill: none; stroke-dasharray: 0.5,0.825; stroke-dashoffset: 0; stroke: #059669; stroke-opacity: 0.5; stroke-width: 0.5"/>
   </g>
   <g id="line2d_37">
    <path d="M 696.724712 385.475078 
L 696.724712 22.32 
" clip-path="url(#pcca74bfdb1)" style="fill: none; stroke-dasharray: 0.5,0.825; stroke-dashoffset: 0; stroke: #f59e0b; stroke-opacity: 0.5; stroke-width: 0.5"/>
   </g>
   <g id="line2d_38">
    <path d="M 344.765679 385.475078 
L 344.765679 22.32 
" clip-path="url(#pcca74bfdb1)" style="fill: none; stroke-dasharray: 0.5,0.825; stroke-dashoffset: 0; stroke: #f59e0b; stroke-opacity: 0.5; stroke-width: 0.5"/>
   </g>
   <g id="patch_3">
    <path d="M 51.466484 385.475078 
L 51.466484 22.32 
" style="fill: none; stroke: #000000; stroke-width: 0.8; stroke-linejoin: miter; stroke-linecap: square"/>
   </g>
   <g id="patch_4">
    <path d="M 51.466484 385.475078 
L 990.023906 385.475078 
" style="fill: none; stroke: #000000; stroke-width: 0.8; stroke-linejoin: miter; stroke-linecap: square"/>
   </g>
   <g id="line2d_39">
    <path d="M 51.466484 371.507575 
L 59.600954 347.60418 
L 62.780272 339.024919 
L 65.415382 332.529985 
L 67.706782 327.450052 
L 69.769042 323.401362 
L 71.630804 320.218865 
L 73.349354 317.71107 
L 74.924691 315.796369 
L 76.385459 314.363893 
L 77.731656 313.345734 
L 78.991926 312.661544 
L 80.194911 312.255452 
L 81.369254 312.094667 
L 82.514954 312.163976 
L 83.660654 312.457583 
L 84.834996 312.991379 
L 86.066624 313.803536 
L 87.355536 314.927859 
L 88.730376 316.432318 
L 90.191144 318.36919 
L 91.766481 320.837922 
L 93.456389 323.908125 
L 95.289509 327.707521 
L 97.294483 332.384439 
L 99.528598 338.17911 
L 102.049138 345.361581 
L 104.970673 354.385376 
L 108.722841 366.748376 
L 110.126323 371.507575 
L 110.183608 371.312449 
L 118.547218 343.211477 
L 121.697893 333.503777 
L 124.30436 326.166858 
L 126.567118 320.433784 
L 128.600735 315.865334 
L 130.433855 312.27301 
L 132.09512 309.48234 
L 133.641815 307.305105 
L 135.045298 305.696487 
L 136.362853 304.514935 
L 137.565838 303.721061 
L 138.711538 303.222611 
L 139.799953 302.985036 
L 140.859725 302.976688 
L 141.919498 303.189611 
L 143.007913 303.639188 
L 144.12497 304.343695 
L 145.299313 305.348688 
L 146.559583 306.726064 
L 147.90578 308.534438 
L 149.366547 310.882728 
L 150.941885 313.852819 
L 152.631792 317.524498 
L 154.493555 322.121493 
L 156.527172 327.758292 
L 158.78993 334.714342 
L 161.339112 343.300932 
L 164.317932 354.148244 
L 168.213312 369.23621 
L 168.786162 371.507575 
L 168.843447 371.279997 
L 177.665337 336.675777 
L 180.758727 325.584363 
L 183.336552 317.142742 
L 185.570667 310.559131 
L 187.575642 305.319828 
L 189.380119 301.204312 
L 191.012742 298.009273 
L 192.502152 295.55838 
L 193.876992 293.706452 
L 195.137262 292.36677 
L 196.311604 291.434548 
L 197.400019 290.848134 
L 198.431149 290.542475 
L 199.404994 290.479348 
L 200.378839 290.636865 
L 201.381326 291.030448 
L 202.412456 291.680571 
L 203.500871 292.63626 
L 204.675214 293.976216 
L 205.935484 295.767527 
L 207.281681 298.079202 
L 208.742449 301.043272 
L 210.317786 304.755908 
L 212.036336 309.392696 
L 213.898099 315.069917 
L 215.960359 322.095515 
L 218.251759 330.72127 
L 220.858226 341.437321 
L 223.951616 355.147848 
L 227.446001 371.507575 
L 227.531928 371.097996 
L 237.041238 326.292996 
L 240.048701 313.417121 
L 242.569241 303.568114 
L 244.774713 295.819616 
L 246.722403 289.753486 
L 248.498238 284.925273 
L 250.102218 281.185575 
L 251.562986 278.323198 
L 252.88054 276.2057 
L 254.083525 274.670022 
L 255.200583 273.592816 
L 256.231713 272.902529 
L 257.176915 272.530058 
L 258.064833 272.409496 
L 258.95275 272.512924 
L 259.840668 272.84163 
L 260.757228 273.418075 
L 261.731073 274.294843 
L 262.790845 275.557979 
L 263.936545 277.284211 
L 265.168173 279.554326 
L 266.51437 282.52016 
L 267.975138 286.299536 
L 269.550475 291.011521 
L 271.269025 296.875844 
L 273.15943 304.153523 
L 275.22169 313.010811 
L 277.51309 323.86681 
L 280.119557 337.337024 
L 283.212947 354.557627 
L 286.10584 371.507575 
L 286.163125 371.166352 
L 296.961347 307.482255 
L 299.825597 292.33439 
L 302.26021 280.61267 
L 304.379754 271.456139 
L 306.270159 264.230095 
L 307.988709 258.509169 
L 309.535404 254.103599 
L 310.938887 250.750622 
L 312.199157 248.285615 
L 313.344857 246.508178 
L 314.375987 245.295793 
L 315.321189 244.513317 
L 316.180464 244.079221 
L 316.982454 243.915166 
L 317.755802 243.979491 
L 318.529149 244.263873 
L 319.359782 244.815796 
L 320.247699 245.689199 
L 321.192902 246.941457 
L 322.224032 248.686818 
L 323.369732 251.08885 
L 324.601359 254.210604 
L 325.947557 258.254791 
L 327.408324 263.376648 
L 328.983662 269.733849 
L 330.702211 277.620354 
L 332.592616 287.385879 
L 334.654876 299.254693 
L 336.946276 313.792752 
L 339.524101 331.627399 
L 342.560206 354.25557 
L 344.765679 371.507575 
L 344.822964 371.052654 
L 351.525309 316.912569 
L 355.878968 282.799129 
L 358.886431 260.919715 
L 361.378328 244.347474 
L 363.555158 231.308719 
L 365.474206 221.104537 
L 367.192756 213.110023 
L 368.739451 206.917235 
L 370.142933 202.172984 
L 371.403203 198.658193 
L 372.520261 196.155631 
L 373.522748 194.415152 
L 374.410666 193.282437 
L 375.212656 192.595724 
L 375.928718 192.256434 
L 376.587496 192.175199 
L 377.246273 192.317447 
L 377.933693 192.706185 
L 378.649756 193.374055 
L 379.451746 194.442722 
L 380.339663 196.023317 
L 381.313508 198.23914 
L 382.37328 201.225065 
L 383.547623 205.233012 
L 384.807893 210.348772 
L 386.182733 216.883253 
L 387.672143 225.069222 
L 389.304765 235.336007 
L 391.051958 247.774915 
L 392.971005 263.090441 
L 395.061908 281.627327 
L 397.38195 304.261806 
L 399.988418 331.971806 
L 403.024523 366.749673 
L 403.425518 371.507575 
L 403.45416 371.166454 
L 407.521395 321.37961 
L 417.002062 204.391836 
L 419.980882 170.916961 
L 422.444137 145.619671 
L 424.592325 125.765379 
L 426.48273 110.281073 
L 428.172637 98.207107 
L 429.69069 88.916752 
L 431.036887 81.999618 
L 432.239872 76.930047 
L 433.299645 73.373383 
L 434.216204 71.009662 
L 435.018194 69.49945 
L 435.705614 68.62939 
L 436.307107 68.195662 
L 436.851314 68.070884 
L 437.366879 68.190416 
L 437.882444 68.544105 
L 438.455294 69.214977 
L 439.114072 70.352498 
L 439.858777 72.115956 
L 440.689409 74.688815 
L 441.605969 78.279463 
L 442.637099 83.274256 
L 443.754157 89.841366 
L 444.957142 98.273853 
L 446.274697 109.14374 
L 447.678179 122.615559 
L 449.196232 139.39446 
L 450.828854 159.999676 
L 452.576047 184.97447 
L 454.437809 214.874961 
L 456.442784 250.795295 
L 458.590972 293.435979 
L 460.882371 343.45759 
L 462.085356 371.507575 
L 462.142641 370.142196 
L 464.749109 305.287332 
L 467.613359 228.296002 
L 470.821319 135.911747 
L 474.602129 20.365045 
L 475.281562 -1 
M 566.208829 -1 
L 570.468574 129.94864 
L 573.934317 229.889798 
L 576.970422 311.19663 
L 579.405034 371.507575 
L 581.925574 314.136595 
L 584.245617 266.220024 
L 586.422447 225.752976 
L 588.427422 192.469122 
L 590.317826 164.674705 
L 592.065019 142.12652 
L 593.697641 123.801802 
L 595.215694 109.14374 
L 596.619176 97.624449 
L 597.936731 88.573484 
L 599.139716 81.784609 
L 600.228131 76.8399 
L 601.201976 73.366438 
L 602.089894 70.970422 
L 602.863241 69.473784 
L 603.550661 68.597976 
L 604.152154 68.177657 
L 604.667719 68.071053 
L 605.183284 68.195662 
L 605.727491 68.574824 
L 606.328984 69.285594 
L 607.016404 70.466765 
L 607.789751 72.25667 
L 608.677669 74.899529 
L 609.680156 78.616848 
L 610.797214 83.643319 
L 612.057484 90.385617 
L 613.460966 99.161483 
L 615.036303 110.5006 
L 616.783496 124.771364 
L 618.731186 142.569638 
L 620.965301 165.12031 
L 623.571768 193.807059 
L 626.779728 231.727798 
L 631.677596 292.637573 
L 637.978946 370.483716 
L 638.064873 371.507575 
L 638.093516 371.166621 
L 641.444688 332.605011 
L 644.22301 303.09663 
L 646.657623 279.506305 
L 648.863095 260.224361 
L 650.86807 244.580201 
L 652.70119 231.949946 
L 654.391098 221.785887 
L 655.966435 213.628701 
L 657.39856 207.338948 
L 658.716115 202.511064 
L 659.9191 198.910306 
L 661.007515 196.317492 
L 661.98136 194.532072 
L 662.869278 193.342166 
L 663.671268 192.624272 
L 664.38733 192.267414 
L 665.046108 192.173918 
L 665.704885 192.303463 
L 666.392305 192.674081 
L 667.13701 193.343772 
L 667.967642 194.415152 
L 668.884202 195.987526 
L 669.88669 198.166021 
L 671.003747 201.14314 
L 672.235375 205.07522 
L 673.610215 210.236401 
L 675.128267 216.832757 
L 676.818175 225.212155 
L 678.679937 235.603753 
L 680.77084 248.569915 
L 683.17681 264.944754 
L 686.012417 285.841271 
L 689.7073 314.841295 
L 696.724712 371.507575 
L 696.781997 371.05295 
L 700.648734 341.258537 
L 703.627554 319.967756 
L 706.176737 303.29574 
L 708.439494 289.917322 
L 710.473112 279.170372 
L 712.334874 270.478498 
L 714.053424 263.48459 
L 715.628762 257.977127 
L 717.060887 253.741653 
L 718.378441 250.506058 
L 719.581426 248.11157 
L 720.669841 246.408425 
L 721.672329 245.229962 
L 722.588889 244.479649 
L 723.448164 244.059088 
L 724.250154 243.912246 
L 725.023501 243.993781 
L 725.825491 244.307792 
L 726.656124 244.876785 
L 727.572684 245.788801 
L 728.575171 247.122176 
L 729.663586 248.959014 
L 730.866571 251.448412 
L 732.184126 254.710124 
L 733.644894 258.953442 
L 735.248874 264.332485 
L 737.024709 271.107657 
L 738.972399 279.443711 
L 741.177871 289.896793 
L 743.698411 302.958549 
L 746.734516 319.91779 
L 750.973606 344.985195 
L 755.384551 371.507575 
L 755.413193 371.337026 
L 759.652283 346.763011 
L 762.745673 330.095822 
L 765.352141 317.232133 
L 767.643541 307.003522 
L 769.705801 298.776984 
L 771.596205 292.125025 
L 773.314755 286.863024 
L 774.890093 282.726441 
L 776.35086 279.496694 
L 777.668415 277.0948 
L 778.900043 275.294355 
L 780.0171 274.036263 
L 781.04823 273.19272 
L 782.022075 272.676296 
L 782.938635 272.438385 
L 783.826553 272.436302 
L 784.71447 272.657467 
L 785.63103 273.117818 
L 786.604875 273.86221 
L 787.664648 274.966597 
L 788.810348 276.498872 
L 790.041975 278.528394 
L 791.388173 281.185575 
L 792.877583 284.63812 
L 794.510205 289.009619 
L 796.314682 294.508251 
L 798.291015 301.265356 
L 800.52513 309.724166 
L 803.102955 320.398163 
L 806.196345 334.204615 
L 810.578647 354.891206 
L 814.04439 371.507575 
L 814.073032 371.371101 
L 818.598547 350.348782 
L 821.749222 336.737849 
L 824.384332 326.30708 
L 826.704374 318.003754 
L 828.795277 311.326003 
L 830.685682 306.00874 
L 832.404232 301.80825 
L 834.008212 298.458213 
L 835.468979 295.902864 
L 836.815177 293.976216 
L 838.075447 292.550774 
L 839.221147 291.575406 
L 840.309562 290.932922 
L 841.340692 290.579894 
L 842.314537 290.474397 
L 843.288382 290.589244 
L 844.290869 290.935899 
L 845.321999 291.531689 
L 846.410414 292.420102 
L 847.584757 293.672163 
L 848.845026 295.346822 
L 850.219866 297.552776 
L 851.709276 300.371754 
L 853.341899 303.949332 
L 855.146376 308.459076 
L 857.151351 314.097354 
L 859.385466 321.072376 
L 861.934649 329.788141 
L 864.999396 341.099932 
L 869.238486 357.684366 
L 872.704229 371.507575 
L 872.761514 371.280071 
L 877.487526 352.966531 
L 880.666843 341.506763 
L 883.330596 332.709694 
L 885.650638 325.78436 
L 887.741541 320.215541 
L 889.660588 315.720791 
L 891.407781 312.177386 
L 893.011761 309.407986 
L 894.501171 307.265652 
L 895.876011 305.664159 
L 897.164923 304.496145 
L 898.367908 303.700122 
L 899.484965 303.216595 
L 900.57338 302.982532 
L 901.633153 302.978945 
L 902.692925 303.195462 
L 903.78134 303.644928 
L 904.92704 304.363574 
L 906.130025 305.384648 
L 907.418938 306.774961 
L 908.82242 308.62754 
L 910.340473 311.014226 
L 912.001738 314.060326 
L 913.806215 317.851635 
L 915.782548 322.534695 
L 917.98802 328.34692 
L 920.50856 335.638083 
L 923.516023 345.054695 
L 927.525972 358.405631 
L 931.364067 371.507575 
L 931.421352 371.312504 
L 936.31922 355.027279 
L 939.52718 345.106684 
L 942.190932 337.558534 
L 944.539617 331.545939 
L 946.659162 326.713535 
L 948.57821 322.872944 
L 950.354045 319.803953 
L 951.986667 317.414824 
L 953.504719 315.578616 
L 954.908202 314.219761 
L 956.225757 313.24543 
L 957.457384 312.601336 
L 958.631727 312.228487 
L 959.777427 312.091946 
L 960.923127 312.179156 
L 962.068827 312.488633 
L 963.271812 313.050261 
L 964.532082 313.894761 
L 965.849637 315.052172 
L 967.253119 316.585527 
L 968.771172 318.580973 
L 970.432437 321.147977 
L 972.236914 324.363808 
L 974.213247 328.358093 
L 976.418719 333.340013 
L 978.910616 339.54414 
L 981.832151 347.443766 
L 985.612961 358.356573 
L 990.023906 371.507575 
L 990.023906 371.507575 
" clip-path="url(#pcca74bfdb1)" style="fill: none; stroke: #2563eb; stroke-width: 1.5; stroke-linecap: square"/>
   </g>
   <g id="line2d_40">
    <path d="M 51.466484 371.507575 
L 74.151344 370.546614 
L 83.202374 370.42567 
L 91.537341 370.537135 
L 100.072806 370.877167 
L 111.873516 371.382325 
L 130.806208 370.122192 
L 138.539683 369.863475 
L 145.38524 369.855187 
L 152.001657 370.070375 
L 158.78993 370.516097 
L 166.46612 371.250409 
L 169.301727 371.448862 
L 190.210752 369.168232 
L 196.282962 368.804648 
L 201.696394 368.700067 
L 206.823401 368.82271 
L 211.864481 369.166793 
L 216.991489 369.741081 
L 222.490849 370.584749 
L 227.932923 371.410472 
L 238.559291 369.16728 
L 246.120911 367.68692 
L 251.276561 366.900395 
L 255.687505 366.448849 
L 259.697455 366.25955 
L 263.478265 366.302521 
L 267.115863 366.564835 
L 270.696175 367.044516 
L 274.30513 367.75267 
L 278.000013 368.705049 
L 281.895392 369.940516 
L 286.392265 371.393476 
L 291.633842 369.177817 
L 306.356087 362.804553 
L 310.079612 361.527316 
L 313.287572 360.65553 
L 316.180464 360.094075 
L 318.872859 359.794459 
L 321.422042 359.732899 
L 323.856654 359.894432 
L 326.233982 360.274594 
L 328.582667 360.877575 
L 330.902709 361.703708 
L 333.251394 362.779239 
L 335.628721 364.115759 
L 338.063334 365.742114 
L 340.583874 367.69506 
L 343.247626 370.044521 
L 344.851606 371.422189 
L 347.859069 368.271018 
L 351.238884 364.395009 
L 355.363404 359.307287 
L 367.536466 344.052707 
L 370.372073 340.994848 
L 372.749401 338.747955 
L 374.811661 337.093032 
L 376.673423 335.877192 
L 378.363331 335.034974 
L 379.910026 334.507638 
L 381.342151 334.247138 
L 382.71699 334.220439 
L 384.034545 334.415438 
L 385.323458 334.829142 
L 386.61237 335.476991 
L 387.929925 336.395385 
L 389.276123 337.616191 
L 390.650963 339.173555 
L 392.054445 341.103946 
L 393.515213 343.497 
L 395.033265 346.419116 
L 396.608603 349.942911 
L 398.241225 354.147442 
L 399.959775 359.208194 
L 401.73561 365.151335 
L 403.425518 371.507575 
L 403.511445 371.165655 
L 405.430493 363.045693 
L 407.406825 353.691474 
L 409.469085 342.821112 
L 411.58863 330.431865 
L 413.794102 316.195052 
L 416.085502 299.916418 
L 418.46283 281.395061 
L 420.926085 260.426147 
L 423.50391 236.527811 
L 426.167662 209.729374 
L 428.974627 179.189958 
L 431.896162 144.934088 
L 434.989552 105.987841 
L 438.254797 62.010105 
L 441.749182 11.869912 
L 442.613827 -1 
M 598.876564 -1 
L 602.576816 52.794099 
L 606.013916 99.613192 
L 609.250519 140.741012 
L 612.315266 176.919015 
L 615.236801 208.8294 
L 618.015123 236.804354 
L 620.678876 261.441831 
L 623.256701 283.253345 
L 625.719956 302.245715 
L 628.097283 318.887108 
L 630.388683 333.388986 
L 632.594156 345.956346 
L 634.713701 356.785363 
L 636.775961 366.184723 
L 638.064873 371.507575 
L 638.093516 371.394009 
L 640.012563 364.24247 
L 641.874325 358.142611 
L 643.65016 353.061296 
L 645.36871 348.798919 
L 647.029975 345.262994 
L 648.605313 342.415474 
L 650.123365 340.114381 
L 651.584133 338.290049 
L 652.987615 336.879099 
L 654.362455 335.804733 
L 655.708653 335.03196 
L 657.026208 334.52816 
L 658.343763 334.259583 
L 659.68996 334.2131 
L 661.0648 334.387627 
L 662.525568 334.800927 
L 664.072263 335.473571 
L 665.76217 336.458985 
L 667.59529 337.791362 
L 669.65755 339.574888 
L 672.006235 341.913113 
L 674.755915 344.976965 
L 678.2503 349.222743 
L 684.866717 357.70128 
L 689.993725 364.087024 
L 693.631322 368.271018 
L 696.724712 371.507575 
L 699.588962 368.821511 
L 702.281357 366.596386 
L 704.830539 364.772935 
L 707.293794 363.280721 
L 709.699764 362.081799 
L 712.048449 361.156469 
L 714.397134 360.468453 
L 716.745819 360.010012 
L 719.151789 359.767552 
L 721.615044 359.743278 
L 724.192869 359.942067 
L 726.913906 360.376793 
L 729.864084 361.077155 
L 733.129329 362.085694 
L 736.938781 363.503909 
L 741.865291 365.59291 
L 755.441836 371.484859 
L 759.938708 369.822638 
L 763.948658 368.574872 
L 767.700826 367.63783 
L 771.338423 366.957264 
L 774.947378 366.508645 
L 778.584975 366.281334 
L 782.337143 366.271632 
L 786.289808 366.486939 
L 790.586183 366.948731 
L 795.455408 367.701933 
L 801.642187 368.897783 
L 814.416742 371.433984 
L 820.947232 370.261466 
L 826.446592 369.497176 
L 831.573599 369.007401 
L 836.614679 368.749494 
L 841.741687 368.711307 
L 847.183762 368.896979 
L 853.255971 369.332793 
L 860.874876 370.116054 
L 873.363006 371.43332 
L 882.127611 370.563283 
L 889.173666 370.086163 
L 895.790083 369.860372 
L 902.492428 369.855958 
L 909.73898 370.078423 
L 918.532228 370.582994 
L 932.595695 371.421149 
L 943.53713 370.772981 
L 952.129879 370.486348 
L 960.436204 370.432832 
L 969.344022 370.602815 
L 980.686451 371.058016 
L 990.023906 371.507575 
L 990.023906 371.507575 
" clip-path="url(#pcca74bfdb1)" style="fill: none; stroke: #dc2626; stroke-width: 1.5; stroke-linecap: square"/>
   </g>
   <g id="line2d_41">
    <path d="M 51.466484 371.507575 
L 61.348147 367.657527 
L 65.902304 366.14023 
L 69.769042 365.081467 
L 73.292069 364.344249 
L 76.614599 363.874873 
L 79.822559 363.646588 
L 82.973234 363.646578 
L 86.095266 363.868184 
L 89.274584 364.316605 
L 92.568471 365.006981 
L 96.062856 365.969557 
L 99.900951 367.263427 
L 104.369181 369.014482 
L 110.384106 371.392957 
L 119.750203 367.347515 
L 124.161148 365.699547 
L 127.913315 364.530309 
L 131.321773 363.698894 
L 134.50109 363.149453 
L 137.565838 362.844234 
L 140.544658 362.769036 
L 143.523478 362.916458 
L 146.53094 363.289666 
L 149.62433 363.900965 
L 152.860932 364.771858 
L 156.326675 365.939985 
L 160.193412 367.485332 
L 164.86214 369.603133 
L 168.929375 371.437072 
L 178.152259 367.01892 
L 182.419992 365.237322 
L 186.028947 363.964724 
L 189.294192 363.043463 
L 192.358939 362.406372 
L 195.280474 362.022696 
L 198.144724 361.869859 
L 200.980331 361.941962 
L 203.815939 362.236649 
L 206.708831 362.761507 
L 209.716294 363.535643 
L 212.895611 364.587123 
L 216.361354 365.972861 
L 220.314019 367.800421 
L 225.412384 370.419616 
L 227.560571 371.446004 
L 236.153321 366.953503 
L 240.335126 365.032115 
L 243.858153 363.652585 
L 247.037471 362.641884 
L 250.016291 361.925805 
L 252.851898 361.47044 
L 255.601578 361.251093 
L 258.322615 361.255145 
L 261.072295 361.483284 
L 263.850618 361.937876 
L 266.74351 362.639703 
L 269.779615 363.608139 
L 273.073503 364.896465 
L 276.797028 366.598215 
L 281.465755 368.991712 
L 286.249052 371.429563 
L 292.98004 367.88924 
L 297.047275 366.000175 
L 300.513017 364.631427 
L 303.63505 363.633319 
L 306.556584 362.92815 
L 309.363549 362.475466 
L 312.113229 362.254331 
L 314.862909 362.255352 
L 317.669874 362.481116 
L 320.562767 362.939366 
L 323.627514 363.652484 
L 327.007329 364.671744 
L 331.017279 366.122869 
L 337.519126 368.754569 
L 343.333554 371.013459 
L 344.908891 371.460067 
L 348.317349 370.45009 
L 351.324811 369.78697 
L 354.103134 369.400128 
L 356.738243 369.254892 
L 359.344711 369.334007 
L 362.008463 369.641036 
L 365.073211 370.231182 
L 367.851533 370.725061 
L 368.997233 370.687719 
L 370.257503 370.405282 
L 372.090623 369.74272 
L 375.069443 368.405507 
L 384.292328 364.123883 
L 386.698298 363.332438 
L 388.731915 362.889416 
L 390.536393 362.71774 
L 392.197658 362.781018 
L 393.744353 363.061236 
L 395.233763 363.559805 
L 396.665888 364.275317 
L 398.06937 365.224184 
L 399.472853 366.44103 
L 400.904978 367.982817 
L 402.365745 369.893198 
L 403.425518 371.507575 
L 403.511445 371.367898 
L 405.029498 368.673856 
L 406.576193 365.467049 
L 408.180172 361.615688 
L 409.841437 357.025921 
L 411.531345 351.691093 
L 413.278537 345.428069 
L 415.083015 338.118274 
L 416.944777 329.633964 
L 418.863825 319.838556 
L 420.8688 308.415241 
L 422.93106 295.346248 
L 425.050605 280.469772 
L 427.256077 263.387214 
L 429.547477 243.862658 
L 431.924805 221.654173 
L 434.388059 196.518432 
L 436.965884 167.885314 
L 439.658279 135.446128 
L 442.493887 98.522505 
L 445.472707 56.769018 
L 448.652024 9.001186 
L 449.292223 -1 
M 592.198168 -1 
L 595.530761 49.663282 
L 598.681436 94.248089 
L 601.631614 132.927689 
L 604.438579 166.889895 
L 607.130974 196.823196 
L 609.708799 223.048844 
L 612.172054 245.897688 
L 614.549381 265.929346 
L 616.840781 283.398723 
L 619.046253 298.555253 
L 621.194441 311.805963 
L 623.256701 323.175423 
L 625.261676 333.013377 
L 627.209366 341.475445 
L 629.071128 348.605797 
L 630.875606 354.670255 
L 632.622798 359.792754 
L 634.312706 364.087344 
L 635.973971 367.716057 
L 637.577951 370.698224 
L 638.064873 371.507575 
L 638.122158 371.4152 
L 639.668853 369.139968 
L 641.186905 367.296784 
L 642.676315 365.835031 
L 644.137083 364.70802 
L 645.59785 363.858734 
L 647.058618 363.261862 
L 648.57667 362.882441 
L 650.152008 362.719619 
L 651.841915 362.773418 
L 653.675035 363.059535 
L 655.737295 363.613219 
L 658.171908 364.507877 
L 661.322583 365.918755 
L 670.430897 370.140118 
L 672.120805 370.626804 
L 673.295147 370.737897 
L 674.555417 370.612809 
L 677.476952 370.005956 
L 680.513057 369.496075 
L 683.17681 369.276023 
L 685.783277 369.285098 
L 688.418387 369.516675 
L 691.19671 369.987387 
L 694.175529 370.721272 
L 697.011137 371.411476 
L 701.021087 369.939182 
L 709.413339 366.537513 
L 714.139352 364.787089 
L 717.748307 363.683292 
L 720.927624 362.939366 
L 723.877801 362.474302 
L 726.713409 362.251983 
L 729.463089 362.257874 
L 732.212769 362.48595 
L 734.991091 362.939726 
L 737.855341 363.633319 
L 740.891446 364.600807 
L 744.185333 365.889934 
L 747.908858 367.594 
L 752.577586 369.990412 
L 755.499121 371.445143 
L 763.977301 366.949725 
L 768.073178 365.043562 
L 771.53892 363.66955 
L 774.689595 362.655848 
L 777.639773 361.937876 
L 780.47538 361.476256 
L 783.22506 361.252781 
L 785.946098 361.253382 
L 788.695778 361.477366 
L 791.502743 361.931557 
L 794.395635 362.625928 
L 797.460382 363.591924 
L 800.811555 364.886835 
L 804.621007 366.606491 
L 809.375662 369.011802 
L 814.187602 371.430634 
L 821.205015 367.786405 
L 825.415462 365.849884 
L 828.995774 364.442199 
L 832.232377 363.403284 
L 835.268482 362.657703 
L 838.190017 362.166667 
L 841.054267 361.9108 
L 843.889874 361.881544 
L 846.725482 362.073941 
L 849.647016 362.497179 
L 852.683121 363.165609 
L 855.891081 364.103055 
L 859.385466 365.359556 
L 863.395416 367.044475 
L 868.608351 369.493959 
L 872.847441 371.437106 
L 879.807568 368.136112 
L 884.132586 366.329346 
L 887.827468 365.021677 
L 891.178641 364.066819 
L 894.329316 363.395852 
L 897.365421 362.973214 
L 900.34424 362.78083 
L 903.32306 362.811235 
L 906.330523 363.064786 
L 909.423913 363.54979 
L 912.660515 364.283623 
L 916.1549 365.307706 
L 920.05028 366.686538 
L 924.776293 368.606712 
L 931.593207 371.405779 
L 938.696547 368.372356 
L 943.164777 366.705305 
L 946.97423 365.515999 
L 950.468615 364.655202 
L 953.762502 364.070885 
L 956.941819 363.730918 
L 960.092494 363.618504 
L 963.243169 363.730326 
L 966.451129 364.068759 
L 969.773659 364.644917 
L 973.296687 365.483657 
L 977.192066 366.645321 
L 981.746224 368.245425 
L 988.219429 370.781773 
L 990.023906 371.507575 
L 990.023906 371.507575 
" clip-path="url(#pcca74bfdb1)" style="fill: none; stroke: #059669; stroke-width: 1.5; stroke-linecap: square"/>
   </g>
   <g id="line2d_42">
    <path d="M 51.466484 371.507575 
L 79.650704 371.098441 
L 93.227249 371.155887 
L 108.035421 371.45249 
L 112.217226 371.450926 
L 135.41765 370.92699 
L 146.87465 370.913144 
L 157.98794 371.125788 
L 171.421272 371.39912 
L 191.843374 370.65839 
L 201.438611 370.554636 
L 210.231859 370.681826 
L 219.368816 371.041158 
L 228.906768 371.413942 
L 248.756021 370.240468 
L 256.66135 370.031116 
L 263.76469 370.063477 
L 270.782103 370.319168 
L 278.372365 370.823981 
L 287.108327 371.412501 
L 301.11451 370.191331 
L 307.759569 369.852231 
L 313.631282 369.774051 
L 319.359782 369.92223 
L 325.603847 370.313832 
L 342.130569 371.495103 
L 348.145494 371.286709 
L 350.923816 370.879932 
L 353.444356 370.290043 
L 355.793041 369.514143 
L 358.027156 368.540425 
L 360.146701 367.374356 
L 362.208961 365.985261 
L 364.213936 364.367308 
L 366.218911 362.458817 
L 368.195243 360.266504 
L 370.171576 357.738201 
L 372.147908 354.846289 
L 374.152883 351.512049 
L 376.186501 347.687811 
L 378.248761 343.322784 
L 380.339663 338.363084 
L 382.459208 332.751822 
L 384.607395 326.42922 
L 386.812868 319.234629 
L 389.075625 311.072722 
L 391.367025 301.96128 
L 393.71571 291.696639 
L 396.12168 280.167913 
L 398.584935 267.259344 
L 401.105475 252.851165 
L 403.711943 236.635109 
L 406.375695 218.641533 
L 409.125375 198.526805 
L 411.960982 176.11637 
L 414.882517 151.237179 
L 417.918622 123.450392 
L 421.069297 92.542045 
L 424.363185 58.002648 
L 427.828927 19.267331 
L 429.562473 -1 
M 611.927918 -1 
L 615.609153 41.33318 
L 619.103538 78.996776 
L 622.426068 112.45423 
L 625.634028 142.538884 
L 628.698776 169.22822 
L 631.677596 193.250283 
L 634.541846 214.581033 
L 637.320168 233.64273 
L 640.041206 250.790247 
L 642.676315 266.000244 
L 645.25414 279.592633 
L 647.746038 291.565509 
L 650.18065 302.199767 
L 652.557978 311.613494 
L 654.87802 319.919131 
L 657.16942 327.310496 
L 659.403535 333.781675 
L 661.609008 339.497876 
L 663.757195 344.461787 
L 665.87674 348.811929 
L 667.967642 352.60519 
L 670.029902 355.89516 
L 672.06352 358.732087 
L 674.097137 361.195106 
L 676.130755 363.314061 
L 678.164372 365.118073 
L 680.226632 366.65488 
L 682.346177 367.957153 
L 684.523007 369.033041 
L 686.785765 369.903151 
L 689.191735 370.586925 
L 691.76956 371.084542 
L 694.605167 371.400271 
L 697.354847 371.493523 
L 704.658684 371.265935 
L 712.965009 370.556405 
L 720.755769 369.989787 
L 726.656124 369.786705 
L 732.384624 369.81437 
L 738.485476 370.071424 
L 745.789313 370.613447 
L 756.329753 371.418669 
L 766.698338 370.559631 
L 774.145388 370.166418 
L 781.134158 370.019808 
L 788.323425 370.094689 
L 796.40061 370.40858 
L 807.771682 371.097669 
L 814.84638 371.457026 
L 826.332022 370.84902 
L 835.354409 370.594763 
L 844.176299 370.57047 
L 853.943391 370.772854 
L 868.150071 371.318691 
L 874.021783 371.454782 
L 887.913396 371.015507 
L 898.969401 370.89101 
L 910.512328 370.989669 
L 926.523485 371.375193 
L 933.397685 371.453973 
L 949.95305 371.13645 
L 963.443667 371.106198 
L 979.311611 371.308052 
L 990.023906 371.507575 
L 990.023906 371.507575 
" clip-path="url(#pcca74bfdb1)" style="fill: none; stroke: #f59e0b; stroke-width: 1.5; stroke-linecap: square"/>
   </g>
   <g id="text_18">
    <!-- Figure B.13 — Window spectra comparison, linear scale ($M = 256$) -->
    <g transform="translate(51.466484 16.32) scale(0.12 -0.12)">
     <defs>
      <path id="DejaVuSans-Oblique-29" d="M 1081 4666 
L 3756 4666 
L 3653 4134 
L 1606 4134 
L 1338 2759 
L 3188 2759 
L 3084 2228 
L 1234 2228 
L 800 0 
L 172 0 
L 1081 4666 
z
" transform="scale(0.015625)"/>
      <path id="DejaVuSans-Oblique-4c" d="M 1172 4863 
L 1747 4863 
L 1606 4134 
L 1031 4134 
L 1172 4863 
z
M 909 3500 
L 1484 3500 
L 800 0 
L 225 0 
L 909 3500 
z
" transform="scale(0.015625)"/>
      <path id="DejaVuSans-Oblique-4a" d="M 3816 3500 
L 3219 434 
Q 3047 -456 2561 -893 
Q 2075 -1331 1253 -1331 
Q 950 -1331 690 -1286 
Q 431 -1241 206 -1147 
L 313 -588 
Q 525 -725 762 -790 
Q 1000 -856 1269 -856 
Q 1816 -856 2167 -557 
Q 2519 -259 2631 300 
L 2681 563 
Q 2441 288 2122 144 
Q 1803 0 1434 0 
Q 903 0 598 351 
Q 294 703 294 1319 
Q 294 1803 478 2267 
Q 663 2731 997 3091 
Q 1219 3328 1514 3456 
Q 1809 3584 2131 3584 
Q 2484 3584 2746 3420 
Q 3009 3256 3138 2956 
L 3238 3500 
L 3816 3500 
z
M 2950 2216 
Q 2950 2641 2750 2872 
Q 2550 3103 2181 3103 
Q 1953 3103 1747 3012 
Q 1541 2922 1394 2759 
Q 1156 2491 1023 2127 
Q 891 1763 891 1375 
Q 891 944 1092 712 
Q 1294 481 1672 481 
Q 2219 481 2584 976 
Q 2950 1472 2950 2216 
z
" transform="scale(0.015625)"/>
      <path id="DejaVuSans-Oblique-58" d="M 428 1388 
L 838 3500 
L 1416 3500 
L 1006 1409 
Q 975 1256 961 1147 
Q 947 1038 947 966 
Q 947 700 1109 554 
Q 1272 409 1569 409 
Q 2031 409 2368 721 
Q 2706 1034 2809 1563 
L 3194 3500 
L 3769 3500 
L 3091 0 
L 2516 0 
L 2631 550 
Q 2388 244 2052 76 
Q 1716 -91 1338 -91 
Q 878 -91 622 161 
Q 366 413 366 863 
Q 366 956 381 1097 
Q 397 1238 428 1388 
z
" transform="scale(0.015625)"/>
      <path id="DejaVuSans-Oblique-55" d="M 2853 2969 
Q 2766 3016 2653 3041 
Q 2541 3066 2413 3066 
Q 1953 3066 1609 2717 
Q 1266 2369 1153 1784 
L 800 0 
L 225 0 
L 909 3500 
L 1484 3500 
L 1375 2956 
Q 1603 3259 1920 3421 
Q 2238 3584 2597 3584 
Q 2691 3584 2781 3573 
Q 2872 3563 2963 3538 
L 2853 2969 
z
" transform="scale(0.015625)"/>
      <path id="DejaVuSans-Oblique-48" d="M 3078 2063 
Q 3088 2113 3092 2166 
Q 3097 2219 3097 2272 
Q 3097 2653 2873 2875 
Q 2650 3097 2266 3097 
Q 1838 3097 1509 2826 
Q 1181 2556 1013 2059 
L 3078 2063 
z
M 3578 1613 
L 903 1613 
Q 884 1494 878 1425 
Q 872 1356 872 1306 
Q 872 872 1139 634 
Q 1406 397 1894 397 
Q 2269 397 2603 481 
Q 2938 566 3225 728 
L 3116 159 
Q 2806 34 2476 -28 
Q 2147 -91 1806 -91 
Q 1078 -91 686 257 
Q 294 606 294 1247 
Q 294 1794 489 2264 
Q 684 2734 1063 3103 
Q 1306 3334 1642 3459 
Q 1978 3584 2356 3584 
Q 2950 3584 3301 3228 
Q 3653 2872 3653 2272 
Q 3653 2128 3634 1964 
Q 3616 1800 3578 1613 
z
" transform="scale(0.015625)"/>
      <path id="DejaVuSans-Oblique-3" transform="scale(0.015625)"/>
      <path id="DejaVuSans-Oblique-25" d="M 1081 4666 
L 2694 4666 
Q 3350 4666 3675 4422 
Q 4000 4178 4000 3688 
Q 4000 3238 3720 2911 
Q 3441 2584 2988 2516 
Q 3375 2428 3569 2181 
Q 3763 1934 3763 1522 
Q 3763 819 3242 409 
Q 2722 0 1819 0 
L 172 0 
L 1081 4666 
z
M 1234 2228 
L 903 519 
L 1919 519 
Q 2491 519 2800 781 
Q 3109 1044 3109 1522 
Q 3109 1891 2904 2059 
Q 2700 2228 2247 2228 
L 1234 2228 
z
M 1606 4147 
L 1331 2741 
L 2272 2741 
Q 2775 2741 3058 2959 
Q 3341 3178 3341 3566 
Q 3341 3869 3150 4008 
Q 2959 4147 2541 4147 
L 1606 4147 
z
" transform="scale(0.015625)"/>
      <path id="DejaVuSans-Oblique-11" d="M 525 794 
L 1184 794 
L 1031 0 
L 372 0 
L 525 794 
z
" transform="scale(0.015625)"/>
      <path id="DejaVuSans-Oblique-14" d="M 416 531 
L 1447 531 
L 2144 4122 
L 978 3897 
L 1088 4441 
L 2247 4666 
L 2881 4666 
L 2075 531 
L 3103 531 
L 3003 0 
L 313 0 
L 416 531 
z
" transform="scale(0.015625)"/>
      <path id="DejaVuSans-Oblique-16" d="M 1013 4550 
Q 1356 4650 1679 4700 
Q 2003 4750 2316 4750 
Q 2934 4750 3296 4475 
Q 3659 4200 3659 3738 
Q 3659 3284 3373 2959 
Q 3088 2634 2584 2516 
Q 2978 2403 3162 2165 
Q 3347 1928 3347 1538 
Q 3347 1163 3167 834 
Q 2988 506 2650 269 
Q 2394 88 2037 -1 
Q 1681 -91 1216 -91 
Q 922 -91 622 -33 
Q 322 25 13 141 
L 128 738 
Q 422 575 720 495 
Q 1019 416 1331 416 
Q 1947 416 2330 733 
Q 2713 1050 2713 1556 
Q 2713 1881 2469 2057 
Q 2225 2234 1772 2234 
L 1228 2234 
L 1325 2747 
L 1900 2747 
Q 2419 2747 2717 2984 
Q 3016 3222 3016 3628 
Q 3016 3922 2797 4083 
Q 2578 4244 2181 4244 
Q 1881 4244 1567 4180 
Q 1253 4116 916 3988 
L 1013 4550 
z
" transform="scale(0.015625)"/>
      <path id="DejaVuSansDisplay-4" d="M 313 1978 
L 6088 1978 
L 6088 1528 
L 313 1528 
L 313 1978 
z
" transform="scale(0.015625)"/>
      <path id="DejaVuSans-Oblique-3a" d="M 616 4666 
L 1228 4666 
L 1453 697 
L 3213 4666 
L 3916 4666 
L 4147 697 
L 5888 4666 
L 6528 4666 
L 4453 0 
L 3659 0 
L 3444 3891 
L 1697 0 
L 903 0 
L 616 4666 
z
" transform="scale(0.015625)"/>
      <path id="DejaVuSans-Oblique-51" d="M 3566 2113 
L 3156 0 
L 2578 0 
L 2988 2091 
Q 3016 2238 3031 2350 
Q 3047 2463 3047 2528 
Q 3047 2791 2881 2937 
Q 2716 3084 2419 3084 
Q 1956 3084 1622 2776 
Q 1288 2469 1184 1941 
L 800 0 
L 225 0 
L 903 3500 
L 1478 3500 
L 1363 2950 
Q 1603 3253 1940 3418 
Q 2278 3584 2650 3584 
Q 3113 3584 3367 3334 
Q 3622 3084 3622 2631 
Q 3622 2519 3608 2391 
Q 3594 2263 3566 2113 
z
" transform="scale(0.015625)"/>
      <path id="DejaVuSans-Oblique-47" d="M 2675 525 
Q 2444 222 2128 65 
Q 1813 -91 1428 -91 
Q 903 -91 598 267 
Q 294 625 294 1247 
Q 294 1766 478 2236 
Q 663 2706 1013 3078 
Q 1244 3325 1534 3454 
Q 1825 3584 2144 3584 
Q 2481 3584 2739 3421 
Q 2997 3259 3138 2956 
L 3513 4863 
L 4091 4863 
L 3144 0 
L 2566 0 
L 2675 525 
z
M 891 1350 
Q 891 897 1095 644 
Q 1300 391 1663 391 
Q 1931 391 2161 520 
Q 2391 650 2566 903 
Q 2750 1166 2856 1509 
Q 2963 1853 2963 2188 
Q 2963 2622 2758 2865 
Q 2553 3109 2194 3109 
Q 1922 3109 1687 2981 
Q 1453 2853 1288 2613 
Q 1106 2353 998 2009 
Q 891 1666 891 1350 
z
" transform="scale(0.015625)"/>
      <path id="DejaVuSans-Oblique-52" d="M 1625 -91 
Q 1009 -91 651 289 
Q 294 669 294 1325 
Q 294 1706 417 2101 
Q 541 2497 738 2766 
Q 1047 3184 1428 3384 
Q 1809 3584 2291 3584 
Q 2888 3584 3255 3212 
Q 3622 2841 3622 2241 
Q 3622 1825 3500 1412 
Q 3378 1000 3181 728 
Q 2875 309 2494 109 
Q 2113 -91 1625 -91 
z
M 891 1344 
Q 891 869 1089 633 
Q 1288 397 1691 397 
Q 2269 397 2648 901 
Q 3028 1406 3028 2181 
Q 3028 2634 2825 2865 
Q 2622 3097 2228 3097 
Q 1903 3097 1650 2945 
Q 1397 2794 1197 2484 
Q 1050 2253 970 1956 
Q 891 1659 891 1344 
z
" transform="scale(0.015625)"/>
      <path id="DejaVuSans-Oblique-5a" d="M 544 3500 
L 1113 3500 
L 1259 684 
L 2566 3500 
L 3231 3500 
L 3425 684 
L 4666 3500 
L 5241 3500 
L 3641 0 
L 2969 0 
L 2797 2900 
L 1459 0 
L 781 0 
L 544 3500 
z
" transform="scale(0.015625)"/>
      <path id="DejaVuSans-Oblique-56" d="M 3200 3397 
L 3091 2853 
Q 2863 2978 2609 3040 
Q 2356 3103 2088 3103 
Q 1634 3103 1373 2948 
Q 1113 2794 1113 2528 
Q 1113 2219 1719 2053 
Q 1766 2041 1788 2034 
L 1972 1978 
Q 2547 1819 2739 1644 
Q 2931 1469 2931 1166 
Q 2931 609 2489 259 
Q 2047 -91 1331 -91 
Q 1053 -91 747 -37 
Q 441 16 72 128 
L 184 722 
Q 500 559 806 475 
Q 1113 391 1394 391 
Q 1816 391 2080 572 
Q 2344 753 2344 1031 
Q 2344 1331 1650 1516 
L 1591 1531 
L 1394 1581 
Q 956 1697 753 1886 
Q 550 2075 550 2369 
Q 550 2928 970 3256 
Q 1391 3584 2113 3584 
Q 2397 3584 2667 3537 
Q 2938 3491 3200 3397 
z
" transform="scale(0.015625)"/>
      <path id="DejaVuSans-Oblique-53" d="M 3175 2156 
Q 3175 2616 2975 2859 
Q 2775 3103 2400 3103 
Q 2144 3103 1911 2972 
Q 1678 2841 1497 2591 
Q 1319 2344 1212 1994 
Q 1106 1644 1106 1300 
Q 1106 863 1306 627 
Q 1506 391 1875 391 
Q 2147 391 2380 519 
Q 2613 647 2778 891 
Q 2956 1147 3065 1494 
Q 3175 1841 3175 2156 
z
M 1394 2969 
Q 1625 3272 1939 3428 
Q 2253 3584 2638 3584 
Q 3175 3584 3472 3232 
Q 3769 2881 3769 2247 
Q 3769 1728 3584 1258 
Q 3400 788 3053 416 
Q 2822 169 2531 39 
Q 2241 -91 1919 -91 
Q 1547 -91 1294 64 
Q 1041 219 916 525 
L 556 -1331 
L -19 -1331 
L 922 3500 
L 1497 3500 
L 1394 2969 
z
" transform="scale(0.015625)"/>
      <path id="DejaVuSans-Oblique-46" d="M 3431 3366 
L 3316 2797 
Q 3109 2947 2876 3022 
Q 2644 3097 2394 3097 
Q 2119 3097 1870 3000 
Q 1622 2903 1453 2725 
Q 1184 2453 1037 2087 
Q 891 1722 891 1331 
Q 891 859 1127 628 
Q 1363 397 1844 397 
Q 2081 397 2348 469 
Q 2616 541 2906 684 
L 2797 116 
Q 2547 13 2283 -39 
Q 2019 -91 1741 -91 
Q 1044 -91 669 257 
Q 294 606 294 1253 
Q 294 1797 489 2255 
Q 684 2713 1069 3078 
Q 1331 3328 1684 3456 
Q 2038 3584 2456 3584 
Q 2700 3584 2940 3529 
Q 3181 3475 3431 3366 
z
" transform="scale(0.015625)"/>
      <path id="DejaVuSans-Oblique-57" d="M 2706 3500 
L 2619 3053 
L 1472 3053 
L 1100 1153 
Q 1081 1047 1072 975 
Q 1063 903 1063 863 
Q 1063 663 1183 572 
Q 1303 481 1569 481 
L 2150 481 
L 2053 0 
L 1503 0 
Q 991 0 739 200 
Q 488 400 488 806 
Q 488 878 497 964 
Q 506 1050 525 1153 
L 897 3053 
L 409 3053 
L 500 3500 
L 978 3500 
L 1172 4494 
L 1747 4494 
L 1556 3500 
L 2706 3500 
z
" transform="scale(0.015625)"/>
      <path id="DejaVuSans-Oblique-44" d="M 3438 1997 
L 3047 0 
L 2472 0 
L 2578 531 
Q 2325 219 2001 64 
Q 1678 -91 1281 -91 
Q 834 -91 548 182 
Q 263 456 263 884 
Q 263 1497 752 1853 
Q 1241 2209 2100 2209 
L 2900 2209 
L 2931 2363 
Q 2938 2388 2941 2417 
Q 2944 2447 2944 2509 
Q 2944 2788 2717 2942 
Q 2491 3097 2081 3097 
Q 1800 3097 1504 3025 
Q 1209 2953 897 2809 
L 997 3341 
Q 1322 3463 1633 3523 
Q 1944 3584 2234 3584 
Q 2853 3584 3176 3315 
Q 3500 3047 3500 2534 
Q 3500 2431 3484 2292 
Q 3469 2153 3438 1997 
z
M 2816 1759 
L 2241 1759 
Q 1534 1759 1195 1570 
Q 856 1381 856 984 
Q 856 709 1029 553 
Q 1203 397 1509 397 
Q 1978 397 2328 733 
Q 2678 1069 2791 1631 
L 2816 1759 
z
" transform="scale(0.015625)"/>
      <path id="DejaVuSans-Oblique-50" d="M 5747 2113 
L 5338 0 
L 4763 0 
L 5166 2094 
Q 5191 2228 5203 2325 
Q 5216 2422 5216 2491 
Q 5216 2772 5059 2928 
Q 4903 3084 4622 3084 
Q 4203 3084 3875 2770 
Q 3547 2456 3450 1953 
L 3066 0 
L 2491 0 
L 2900 2094 
Q 2925 2209 2937 2307 
Q 2950 2406 2950 2484 
Q 2950 2769 2794 2926 
Q 2638 3084 2363 3084 
Q 1938 3084 1609 2770 
Q 1281 2456 1184 1953 
L 800 0 
L 225 0 
L 909 3500 
L 1484 3500 
L 1375 2956 
Q 1609 3263 1923 3423 
Q 2238 3584 2597 3584 
Q 2978 3584 3223 3384 
Q 3469 3184 3519 2828 
Q 3781 3197 4126 3390 
Q 4472 3584 4856 3584 
Q 5306 3584 5551 3325 
Q 5797 3066 5797 2591 
Q 5797 2488 5784 2364 
Q 5772 2241 5747 2113 
z
" transform="scale(0.015625)"/>
      <path id="DejaVuSans-Oblique-f" d="M 575 794 
L 1234 794 
L 1131 256 
L 422 -744 
L 19 -744 
L 469 256 
L 575 794 
z
" transform="scale(0.015625)"/>
      <path id="DejaVuSans-Oblique-4f" d="M 1172 4863 
L 1747 4863 
L 800 0 
L 225 0 
L 1172 4863 
z
" transform="scale(0.015625)"/>
      <path id="DejaVuSans-Oblique-b" d="M 2731 4856 
Q 1903 3822 1495 2892 
Q 1088 1963 1088 1100 
Q 1088 606 1206 120 
Q 1325 -366 1563 -844 
L 1063 -844 
Q 775 -306 634 201 
Q 494 709 494 1197 
Q 494 2125 923 3036 
Q 1353 3947 2222 4856 
L 2731 4856 
z
" transform="scale(0.015625)"/>
      <path id="DejaVuSans-Oblique-30" d="M 1081 4666 
L 2028 4666 
L 2572 1522 
L 4378 4666 
L 5350 4666 
L 4441 0 
L 3828 0 
L 4622 4091 
L 2791 897 
L 2175 897 
L 1581 4103 
L 788 0 
L 172 0 
L 1081 4666 
z
" transform="scale(0.015625)"/>
      <path id="DejaVuSans-20" d="M 678 2906 
L 4684 2906 
L 4684 2381 
L 678 2381 
L 678 2906 
z
M 678 1631 
L 4684 1631 
L 4684 1100 
L 678 1100 
L 678 1631 
z
" transform="scale(0.015625)"/>
      <path id="DejaVuSans-Oblique-c" d="M -397 -844 
Q 434 191 840 1120 
Q 1247 2050 1247 2913 
Q 1247 3406 1130 3892 
Q 1013 4378 775 4856 
L 1275 4856 
Q 1563 4316 1703 3812 
Q 1844 3309 1844 2822 
Q 1844 1891 1411 973 
Q 978 56 116 -844 
L -397 -844 
z
" transform="scale(0.015625)"/>
     </defs>
     <use xlink:href="#DejaVuSans-Oblique-29" transform="translate(0 0.015625)"/>
     <use xlink:href="#DejaVuSans-Oblique-4c" transform="translate(57.519531 0.015625)"/>
     <use xlink:href="#DejaVuSans-Oblique-4a" transform="translate(85.302734 0.015625)"/>
     <use xlink:href="#DejaVuSans-Oblique-58" transform="translate(148.779297 0.015625)"/>
     <use xlink:href="#DejaVuSans-Oblique-55" transform="translate(212.158203 0.015625)"/>
     <use xlink:href="#DejaVuSans-Oblique-48" transform="translate(253.271484 0.015625)"/>
     <use xlink:href="#DejaVuSans-Oblique-3" transform="translate(314.794922 0.015625)"/>
     <use xlink:href="#DejaVuSans-Oblique-25" transform="translate(346.582031 0.015625)"/>
     <use xlink:href="#DejaVuSans-Oblique-11" transform="translate(415.185547 0.015625)"/>
     <use xlink:href="#DejaVuSans-Oblique-14" transform="translate(446.972656 0.015625)"/>
     <use xlink:href="#DejaVuSans-Oblique-16" transform="translate(510.595703 0.015625)"/>
     <use xlink:href="#DejaVuSans-Oblique-3" transform="translate(574.21875 0.015625)"/>
     <use xlink:href="#DejaVuSansDisplay-4" transform="translate(606.005859 0.015625)"/>
     <use xlink:href="#DejaVuSans-Oblique-3" transform="translate(706.005859 0.015625)"/>
     <use xlink:href="#DejaVuSans-Oblique-3a" transform="translate(737.792969 0.015625)"/>
     <use xlink:href="#DejaVuSans-Oblique-4c" transform="translate(836.669922 0.015625)"/>
     <use xlink:href="#DejaVuSans-Oblique-51" transform="translate(864.453125 0.015625)"/>
     <use xlink:href="#DejaVuSans-Oblique-47" transform="translate(927.832031 0.015625)"/>
     <use xlink:href="#DejaVuSans-Oblique-52" transform="translate(991.308594 0.015625)"/>
     <use xlink:href="#DejaVuSans-Oblique-5a" transform="translate(1052.490234 0.015625)"/>
     <use xlink:href="#DejaVuSans-Oblique-3" transform="translate(1134.277344 0.015625)"/>
     <use xlink:href="#DejaVuSans-Oblique-56" transform="translate(1166.064453 0.015625)"/>
     <use xlink:href="#DejaVuSans-Oblique-53" transform="translate(1218.164062 0.015625)"/>
     <use xlink:href="#DejaVuSans-Oblique-48" transform="translate(1281.640625 0.015625)"/>
     <use xlink:href="#DejaVuSans-Oblique-46" transform="translate(1343.164062 0.015625)"/>
     <use xlink:href="#DejaVuSans-Oblique-57" transform="translate(1398.144531 0.015625)"/>
     <use xlink:href="#DejaVuSans-Oblique-55" transform="translate(1437.353516 0.015625)"/>
     <use xlink:href="#DejaVuSans-Oblique-44" transform="translate(1478.466797 0.015625)"/>
     <use xlink:href="#DejaVuSans-Oblique-3" transform="translate(1539.746094 0.015625)"/>
     <use xlink:href="#DejaVuSans-Oblique-46" transform="translate(1571.533203 0.015625)"/>
     <use xlink:href="#DejaVuSans-Oblique-52" transform="translate(1626.513672 0.015625)"/>
     <use xlink:href="#DejaVuSans-Oblique-50" transform="translate(1687.695312 0.015625)"/>
     <use xlink:href="#DejaVuSans-Oblique-53" transform="translate(1785.107422 0.015625)"/>
     <use xlink:href="#DejaVuSans-Oblique-44" transform="translate(1848.583984 0.015625)"/>
     <use xlink:href="#DejaVuSans-Oblique-55" transform="translate(1909.863281 0.015625)"/>
     <use xlink:href="#DejaVuSans-Oblique-4c" transform="translate(1950.976562 0.015625)"/>
     <use xlink:href="#DejaVuSans-Oblique-56" transform="translate(1978.759766 0.015625)"/>
     <use xlink:href="#DejaVuSans-Oblique-52" transform="translate(2030.859375 0.015625)"/>
     <use xlink:href="#DejaVuSans-Oblique-51" transform="translate(2092.041016 0.015625)"/>
     <use xlink:href="#DejaVuSans-Oblique-f" transform="translate(2155.419922 0.015625)"/>
     <use xlink:href="#DejaVuSans-Oblique-3" transform="translate(2187.207031 0.015625)"/>
     <use xlink:href="#DejaVuSans-Oblique-4f" transform="translate(2218.994141 0.015625)"/>
     <use xlink:href="#DejaVuSans-Oblique-4c" transform="translate(2246.777344 0.015625)"/>
     <use xlink:href="#DejaVuSans-Oblique-51" transform="translate(2274.560547 0.015625)"/>
     <use xlink:href="#DejaVuSans-Oblique-48" transform="translate(2337.939453 0.015625)"/>
     <use xlink:href="#DejaVuSans-Oblique-44" transform="translate(2399.462891 0.015625)"/>
     <use xlink:href="#DejaVuSans-Oblique-55" transform="translate(2460.742188 0.015625)"/>
     <use xlink:href="#DejaVuSans-Oblique-3" transform="translate(2501.855469 0.015625)"/>
     <use xlink:href="#DejaVuSans-Oblique-56" transform="translate(2533.642578 0.015625)"/>
     <use xlink:href="#DejaVuSans-Oblique-46" transform="translate(2585.742188 0.015625)"/>
     <use xlink:href="#DejaVuSans-Oblique-44" transform="translate(2640.722656 0.015625)"/>
     <use xlink:href="#DejaVuSans-Oblique-4f" transform="translate(2702.001953 0.015625)"/>
     <use xlink:href="#DejaVuSans-Oblique-48" transform="translate(2729.785156 0.015625)"/>
     <use xlink:href="#DejaVuSans-Oblique-3" transform="translate(2791.308594 0.015625)"/>
     <use xlink:href="#DejaVuSans-Oblique-b" transform="translate(2823.095703 0.015625)"/>
     <use xlink:href="#DejaVuSans-Oblique-30" transform="translate(2862.109375 0.015625)"/>
     <use xlink:href="#DejaVuSans-20" transform="translate(2967.871094 0.015625)"/>
     <use xlink:href="#DejaVuSans-15" transform="translate(3071.142578 0.015625)"/>
     <use xlink:href="#DejaVuSans-18" transform="translate(3134.765625 0.015625)"/>
     <use xlink:href="#DejaVuSans-19" transform="translate(3198.388672 0.015625)"/>
     <use xlink:href="#DejaVuSans-Oblique-c" transform="translate(3262.011719 0.015625)"/>
    </g>
   </g>
   <g id="legend_1">
    <g id="patch_5">
     <path d="M 858.678594 90.573125 
L 983.023906 90.573125 
Q 985.023906 90.573125 985.023906 88.573125 
L 985.023906 29.32 
Q 985.023906 27.32 983.023906 27.32 
L 858.678594 27.32 
Q 856.678594 27.32 856.678594 29.32 
L 856.678594 88.573125 
Q 856.678594 90.573125 858.678594 90.573125 
z
" style="fill: #ffffff; opacity: 0.8; stroke: #cccccc; stroke-linejoin: miter"/>
    </g>
    <g id="line2d_43">
     <path d="M 860.678594 35.480937 
L 870.678594 35.480937 
L 880.678594 35.480937 
" style="fill: none; stroke: #2563eb; stroke-width: 1.5; stroke-linecap: square"/>
    </g>
    <g id="text_19">
     <!-- Rectangular (β=1) -->
     <g transform="translate(888.678594 38.980937) scale(0.1 -0.1)">
      <defs>
       <path id="DejaVuSans-35" d="M 2841 2188 
Q 3044 2119 3236 1894 
Q 3428 1669 3622 1275 
L 4263 0 
L 3584 0 
L 2988 1197 
Q 2756 1666 2539 1819 
Q 2322 1972 1947 1972 
L 1259 1972 
L 1259 0 
L 628 0 
L 628 4666 
L 2053 4666 
Q 2853 4666 3247 4331 
Q 3641 3997 3641 3322 
Q 3641 2881 3436 2590 
Q 3231 2300 2841 2188 
z
M 1259 4147 
L 1259 2491 
L 2053 2491 
Q 2509 2491 2742 2702 
Q 2975 2913 2975 3322 
Q 2975 3731 2742 3939 
Q 2509 4147 2053 4147 
L 1259 4147 
z
" transform="scale(0.015625)"/>
       <path id="DejaVuSans-346" d="M 1178 216 
L 1178 -1331 
L 600 -1331 
L 600 3478 
Q 600 4903 1931 4903 
Q 3288 4903 3288 3700 
Q 3288 2844 2750 2531 
Q 3625 2250 3625 1416 
Q 3625 -66 2119 -66 
Q 1456 -66 1178 216 
z
M 1178 966 
Q 1525 425 2141 425 
Q 3041 425 3041 1406 
Q 3041 2288 1591 2219 
L 1591 2750 
Q 2725 2750 2725 3750 
Q 2725 4434 1994 4434 
Q 1178 4434 1178 3459 
L 1178 966 
z
" transform="scale(0.015625)"/>
      </defs>
      <use xlink:href="#DejaVuSans-35"/>
      <use xlink:href="#DejaVuSans-48" transform="translate(65 0)"/>
      <use xlink:href="#DejaVuSans-46" transform="translate(126.53125 0)"/>
      <use xlink:href="#DejaVuSans-57" transform="translate(181.515625 0)"/>
      <use xlink:href="#DejaVuSans-44" transform="translate(220.71875 0)"/>
      <use xlink:href="#DejaVuSans-51" transform="translate(282 0)"/>
      <use xlink:href="#DejaVuSans-4a" transform="translate(345.375 0)"/>
      <use xlink:href="#DejaVuSans-58" transform="translate(408.859375 0)"/>
      <use xlink:href="#DejaVuSans-4f" transform="translate(472.234375 0)"/>
      <use xlink:href="#DejaVuSans-44" transform="translate(500.015625 0)"/>
      <use xlink:href="#DejaVuSans-55" transform="translate(561.296875 0)"/>
      <use xlink:href="#DejaVuSans-3" transform="translate(602.40625 0)"/>
      <use xlink:href="#DejaVuSans-b" transform="translate(634.1875 0)"/>
      <use xlink:href="#DejaVuSans-346" transform="translate(673.203125 0)"/>
      <use xlink:href="#DejaVuSans-20" transform="translate(737.015625 0)"/>
      <use xlink:href="#DejaVuSans-14" transform="translate(820.8125 0)"/>
      <use xlink:href="#DejaVuSans-c" transform="translate(884.4375 0)"/>
     </g>
    </g>
    <g id="line2d_44">
     <path d="M 860.678594 50.544219 
L 870.678594 50.544219 
L 880.678594 50.544219 
" style="fill: none; stroke: #dc2626; stroke-width: 1.5; stroke-linecap: square"/>
    </g>
    <g id="text_20">
     <!-- Hann (β=2) -->
     <g transform="translate(888.678594 54.044219) scale(0.1 -0.1)">
      <defs>
       <path id="DejaVuSans-2b" d="M 628 4666 
L 1259 4666 
L 1259 2753 
L 3553 2753 
L 3553 4666 
L 4184 4666 
L 4184 0 
L 3553 0 
L 3553 2222 
L 1259 2222 
L 1259 0 
L 628 0 
L 628 4666 
z
" transform="scale(0.015625)"/>
      </defs>
      <use xlink:href="#DejaVuSans-2b"/>
      <use xlink:href="#DejaVuSans-44" transform="translate(75.203125 0)"/>
      <use xlink:href="#DejaVuSans-51" transform="translate(136.484375 0)"/>
      <use xlink:href="#DejaVuSans-51" transform="translate(199.859375 0)"/>
      <use xlink:href="#DejaVuSans-3" transform="translate(263.234375 0)"/>
      <use xlink:href="#DejaVuSans-b" transform="translate(295.015625 0)"/>
      <use xlink:href="#DejaVuSans-346" transform="translate(334.03125 0)"/>
      <use xlink:href="#DejaVuSans-20" transform="translate(397.84375 0)"/>
      <use xlink:href="#DejaVuSans-15" transform="translate(481.640625 0)"/>
      <use xlink:href="#DejaVuSans-c" transform="translate(545.265625 0)"/>
     </g>
    </g>
    <g id="line2d_45">
     <path d="M 860.678594 65.6075 
L 870.678594 65.6075 
L 880.678594 65.6075 
" style="fill: none; stroke: #059669; stroke-width: 1.5; stroke-linecap: square"/>
    </g>
    <g id="text_21">
     <!-- Hamming (β=2) -->
     <g transform="translate(888.678594 69.1075) scale(0.1 -0.1)">
      <use xlink:href="#DejaVuSans-2b"/>
      <use xlink:href="#DejaVuSans-44" transform="translate(75.203125 0)"/>
      <use xlink:href="#DejaVuSans-50" transform="translate(136.484375 0)"/>
      <use xlink:href="#DejaVuSans-50" transform="translate(233.890625 0)"/>
      <use xlink:href="#DejaVuSans-4c" transform="translate(331.296875 0)"/>
      <use xlink:href="#DejaVuSans-51" transform="translate(359.078125 0)"/>
      <use xlink:href="#DejaVuSans-4a" transform="translate(422.453125 0)"/>
      <use xlink:href="#DejaVuSans-3" transform="translate(485.9375 0)"/>
      <use xlink:href="#DejaVuSans-b" transform="translate(517.71875 0)"/>
      <use xlink:href="#DejaVuSans-346" transform="translate(556.734375 0)"/>
      <use xlink:href="#DejaVuSans-20" transform="translate(620.546875 0)"/>
      <use xlink:href="#DejaVuSans-15" transform="translate(704.34375 0)"/>
      <use xlink:href="#DejaVuSans-c" transform="translate(767.96875 0)"/>
     </g>
    </g>
    <g id="line2d_46">
     <path d="M 860.678594 80.670781 
L 870.678594 80.670781 
L 880.678594 80.670781 
" style="fill: none; stroke: #f59e0b; stroke-width: 1.5; stroke-linecap: square"/>
    </g>
    <g id="text_22">
     <!-- Blackman (β=3) -->
     <g transform="translate(888.678594 84.170781) scale(0.1 -0.1)">
      <defs>
       <path id="DejaVuSans-25" d="M 1259 2228 
L 1259 519 
L 2272 519 
Q 2781 519 3026 730 
Q 3272 941 3272 1375 
Q 3272 1813 3026 2020 
Q 2781 2228 2272 2228 
L 1259 2228 
z
M 1259 4147 
L 1259 2741 
L 2194 2741 
Q 2656 2741 2882 2914 
Q 3109 3088 3109 3444 
Q 3109 3797 2882 3972 
Q 2656 4147 2194 4147 
L 1259 4147 
z
M 628 4666 
L 2241 4666 
Q 2963 4666 3353 4366 
Q 3744 4066 3744 3513 
Q 3744 3084 3544 2831 
Q 3344 2578 2956 2516 
Q 3422 2416 3680 2098 
Q 3938 1781 3938 1306 
Q 3938 681 3513 340 
Q 3088 0 2303 0 
L 628 0 
L 628 4666 
z
" transform="scale(0.015625)"/>
       <path id="DejaVuSans-4e" d="M 581 4863 
L 1159 4863 
L 1159 1991 
L 2875 3500 
L 3609 3500 
L 1753 1863 
L 3688 0 
L 2938 0 
L 1159 1709 
L 1159 0 
L 581 0 
L 581 4863 
z
" transform="scale(0.015625)"/>
       <path id="DejaVuSans-16" d="M 2597 2516 
Q 3050 2419 3304 2112 
Q 3559 1806 3559 1356 
Q 3559 666 3084 287 
Q 2609 -91 1734 -91 
Q 1441 -91 1130 -33 
Q 819 25 488 141 
L 488 750 
Q 750 597 1062 519 
Q 1375 441 1716 441 
Q 2309 441 2620 675 
Q 2931 909 2931 1356 
Q 2931 1769 2642 2001 
Q 2353 2234 1838 2234 
L 1294 2234 
L 1294 2753 
L 1863 2753 
Q 2328 2753 2575 2939 
Q 2822 3125 2822 3475 
Q 2822 3834 2567 4026 
Q 2313 4219 1838 4219 
Q 1578 4219 1281 4162 
Q 984 4106 628 3988 
L 628 4550 
Q 988 4650 1302 4700 
Q 1616 4750 1894 4750 
Q 2613 4750 3031 4423 
Q 3450 4097 3450 3541 
Q 3450 3153 3228 2886 
Q 3006 2619 2597 2516 
z
" transform="scale(0.015625)"/>
      </defs>
      <use xlink:href="#DejaVuSans-25"/>
      <use xlink:href="#DejaVuSans-4f" transform="translate(68.609375 0)"/>
      <use xlink:href="#DejaVuSans-44" transform="translate(96.390625 0)"/>
      <use xlink:href="#DejaVuSans-46" transform="translate(157.671875 0)"/>
      <use xlink:href="#DejaVuSans-4e" transform="translate(212.65625 0)"/>
      <use xlink:href="#DejaVuSans-50" transform="translate(270.5625 0)"/>
      <use xlink:href="#DejaVuSans-44" transform="translate(367.96875 0)"/>
      <use xlink:href="#DejaVuSans-51" transform="translate(429.25 0)"/>
      <use xlink:href="#DejaVuSans-3" transform="translate(492.625 0)"/>
      <use xlink:href="#DejaVuSans-b" transform="translate(524.40625 0)"/>
      <use xlink:href="#DejaVuSans-346" transform="translate(563.421875 0)"/>
      <use xlink:href="#DejaVuSans-20" transform="translate(627.234375 0)"/>
      <use xlink:href="#DejaVuSans-16" transform="translate(711.03125 0)"/>
      <use xlink:href="#DejaVuSans-c" transform="translate(774.65625 0)"/>
     </g>
    </g>
   </g>
  </g>
 </g>
 <defs>
  <clipPath id="pcca74bfdb1">
   <rect x="51.466484" y="22.32" width="938.557422" height="363.155078"/>
  </clipPath>
 </defs>
</svg>
