<?xml version="1.0" encoding="utf-8" standalone="no"?>
<!DOCTYPE svg PUBLIC "-//W3C//DTD SVG 1.1//EN"
  "http://www.w3.org/Graphics/SVG/1.1/DTD/svg11.dtd">
<svg xmlns:xlink="http://www.w3.org/1999/xlink" width="1000.522656pt" height="424.675937pt" viewBox="0 0 1000.522656 424.675937" xmlns="http://www.w3.org/2000/svg" version="1.1">
 <metadata>
  <rdf:RDF xmlns:dc="http://purl.org/dc/elements/1.1/" xmlns:cc="http://creativecommons.org/ns#" xmlns:rdf="http://www.w3.org/1999/02/22-rdf-syntax-ns#">
   <cc:Work>
    <dc:type rdf:resource="http://purl.org/dc/dcmitype/StillImage"/>
    <dc:date>2026-06-20T19:08:27.771922</dc:date>
    <dc:format>image/svg+xml</dc:format>
    <dc:creator>
     <cc:Agent>
      <dc:title>Matplotlib v3.11.0, https://matplotlib.org/</dc:title>
     </cc:Agent>
    </dc:creator>
   </cc:Work>
  </rdf:RDF>
 </metadata>
 <defs>
  <style type="text/css">*{stroke-linejoin: round; stroke-linecap: butt}</style>
 </defs>
 <g id="figure_1">
  <g id="patch_1">
   <path d="M 0 424.675937 
L 1000.522656 424.675937 
L 1000.522656 0 
L 0 0 
z
" style="fill: #ffffff"/>
  </g>
  <g id="axes_1">
   <g id="patch_2">
    <path d="M 45.103984 385.475078 
L 990.141406 385.475078 
L 990.141406 22.32 
L 45.103984 22.32 
z
" style="fill: #ffffff"/>
   </g>
   <g id="matplotlib.axis_1">
    <g id="xtick_1">
     <g id="line2d_1">
      <path d="M 45.103984 385.475078 
L 45.103984 22.32 
" clip-path="url(#p9992116c9c)" style="fill: none; stroke: #b0b0b0; stroke-opacity: 0.15; stroke-width: 0.8; stroke-linecap: square"/>
     </g>
     <g id="line2d_2">
      <defs>
       <path id="m09accde804" d="M 0 0 
L 0 3.5 
" style="stroke: #000000; stroke-width: 0.8"/>
      </defs>
      <g>
       <use xlink:href="#m09accde804" x="45.103984" y="385.475078" style="stroke: #000000; stroke-width: 0.8"/>
      </g>
     </g>
     <g id="text_1">
      <!-- −8 -->
      <g transform="translate(37.732891 400.072734) scale(0.1 -0.1)">
       <defs>
        <path id="DejaVuSans-c9c" d="M 678 2272 
L 4684 2272 
L 4684 1741 
L 678 1741 
L 678 2272 
z
" transform="scale(0.015625)"/>
        <path id="DejaVuSans-1b" d="M 2034 2216 
Q 1584 2216 1326 1975 
Q 1069 1734 1069 1313 
Q 1069 891 1326 650 
Q 1584 409 2034 409 
Q 2484 409 2743 651 
Q 3003 894 3003 1313 
Q 3003 1734 2745 1975 
Q 2488 2216 2034 2216 
z
M 1403 2484 
Q 997 2584 770 2862 
Q 544 3141 544 3541 
Q 544 4100 942 4425 
Q 1341 4750 2034 4750 
Q 2731 4750 3128 4425 
Q 3525 4100 3525 3541 
Q 3525 3141 3298 2862 
Q 3072 2584 2669 2484 
Q 3125 2378 3379 2068 
Q 3634 1759 3634 1313 
Q 3634 634 3220 271 
Q 2806 -91 2034 -91 
Q 1263 -91 848 271 
Q 434 634 434 1313 
Q 434 1759 690 2068 
Q 947 2378 1403 2484 
z
M 1172 3481 
Q 1172 3119 1398 2916 
Q 1625 2713 2034 2713 
Q 2441 2713 2670 2916 
Q 2900 3119 2900 3481 
Q 2900 3844 2670 4047 
Q 2441 4250 2034 4250 
Q 1625 4250 1398 4047 
Q 1172 3844 1172 3481 
z
" transform="scale(0.015625)"/>
       </defs>
       <use xlink:href="#DejaVuSans-c9c"/>
       <use xlink:href="#DejaVuSans-1b" transform="translate(83.796875 0)"/>
      </g>
     </g>
    </g>
    <g id="xtick_2">
     <g id="line2d_3">
      <path d="M 163.233662 385.475078 
L 163.233662 22.32 
" clip-path="url(#p9992116c9c)" style="fill: none; stroke: #b0b0b0; stroke-opacity: 0.15; stroke-width: 0.8; stroke-linecap: square"/>
     </g>
     <g id="line2d_4">
      <g>
       <use xlink:href="#m09accde804" x="163.233662" y="385.475078" style="stroke: #000000; stroke-width: 0.8"/>
      </g>
     </g>
     <g id="text_2">
      <!-- −6 -->
      <g transform="translate(155.862568 400.072734) scale(0.1 -0.1)">
       <defs>
        <path id="DejaVuSans-19" d="M 2113 2584 
Q 1688 2584 1439 2293 
Q 1191 2003 1191 1497 
Q 1191 994 1439 701 
Q 1688 409 2113 409 
Q 2538 409 2786 701 
Q 3034 994 3034 1497 
Q 3034 2003 2786 2293 
Q 2538 2584 2113 2584 
z
M 3366 4563 
L 3366 3988 
Q 3128 4100 2886 4159 
Q 2644 4219 2406 4219 
Q 1781 4219 1451 3797 
Q 1122 3375 1075 2522 
Q 1259 2794 1537 2939 
Q 1816 3084 2150 3084 
Q 2853 3084 3261 2657 
Q 3669 2231 3669 1497 
Q 3669 778 3244 343 
Q 2819 -91 2113 -91 
Q 1303 -91 875 529 
Q 447 1150 447 2328 
Q 447 3434 972 4092 
Q 1497 4750 2381 4750 
Q 2619 4750 2861 4703 
Q 3103 4656 3366 4563 
z
" transform="scale(0.015625)"/>
       </defs>
       <use xlink:href="#DejaVuSans-c9c"/>
       <use xlink:href="#DejaVuSans-19" transform="translate(83.796875 0)"/>
      </g>
     </g>
    </g>
    <g id="xtick_3">
     <g id="line2d_5">
      <path d="M 281.36334 385.475078 
L 281.36334 22.32 
" clip-path="url(#p9992116c9c)" style="fill: none; stroke: #b0b0b0; stroke-opacity: 0.15; stroke-width: 0.8; stroke-linecap: square"/>
     </g>
     <g id="line2d_6">
      <g>
       <use xlink:href="#m09accde804" x="281.36334" y="385.475078" style="stroke: #000000; stroke-width: 0.8"/>
      </g>
     </g>
     <g id="text_3">
      <!-- −4 -->
      <g transform="translate(273.992246 400.072734) scale(0.1 -0.1)">
       <defs>
        <path id="DejaVuSans-17" d="M 2419 4116 
L 825 1625 
L 2419 1625 
L 2419 4116 
z
M 2253 4666 
L 3047 4666 
L 3047 1625 
L 3713 1625 
L 3713 1100 
L 3047 1100 
L 3047 0 
L 2419 0 
L 2419 1100 
L 313 1100 
L 313 1709 
L 2253 4666 
z
" transform="scale(0.015625)"/>
       </defs>
       <use xlink:href="#DejaVuSans-c9c"/>
       <use xlink:href="#DejaVuSans-17" transform="translate(83.796875 0)"/>
      </g>
     </g>
    </g>
    <g id="xtick_4">
     <g id="line2d_7">
      <path d="M 399.493018 385.475078 
L 399.493018 22.32 
" clip-path="url(#p9992116c9c)" style="fill: none; stroke: #b0b0b0; stroke-opacity: 0.15; stroke-width: 0.8; stroke-linecap: square"/>
     </g>
     <g id="line2d_8">
      <g>
       <use xlink:href="#m09accde804" x="399.493018" y="385.475078" style="stroke: #000000; stroke-width: 0.8"/>
      </g>
     </g>
     <g id="text_4">
      <!-- −2 -->
      <g transform="translate(392.121924 400.072734) scale(0.1 -0.1)">
       <defs>
        <path id="DejaVuSans-15" d="M 1228 531 
L 3431 531 
L 3431 0 
L 469 0 
L 469 531 
Q 828 903 1448 1529 
Q 2069 2156 2228 2338 
Q 2531 2678 2651 2914 
Q 2772 3150 2772 3378 
Q 2772 3750 2511 3984 
Q 2250 4219 1831 4219 
Q 1534 4219 1204 4116 
Q 875 4013 500 3803 
L 500 4441 
Q 881 4594 1212 4672 
Q 1544 4750 1819 4750 
Q 2544 4750 2975 4387 
Q 3406 4025 3406 3419 
Q 3406 3131 3298 2873 
Q 3191 2616 2906 2266 
Q 2828 2175 2409 1742 
Q 1991 1309 1228 531 
z
" transform="scale(0.015625)"/>
       </defs>
       <use xlink:href="#DejaVuSans-c9c"/>
       <use xlink:href="#DejaVuSans-15" transform="translate(83.796875 0)"/>
      </g>
     </g>
    </g>
    <g id="xtick_5">
     <g id="line2d_9">
      <path d="M 517.622695 385.475078 
L 517.622695 22.32 
" clip-path="url(#p9992116c9c)" style="fill: none; stroke: #b0b0b0; stroke-opacity: 0.15; stroke-width: 0.8; stroke-linecap: square"/>
     </g>
     <g id="line2d_10">
      <g>
       <use xlink:href="#m09accde804" x="517.622695" y="385.475078" style="stroke: #000000; stroke-width: 0.8"/>
      </g>
     </g>
     <g id="text_5">
      <!-- 0 -->
      <g transform="translate(514.441445 400.072734) scale(0.1 -0.1)">
       <defs>
        <path id="DejaVuSans-13" d="M 2034 4250 
Q 1547 4250 1301 3770 
Q 1056 3291 1056 2328 
Q 1056 1369 1301 889 
Q 1547 409 2034 409 
Q 2525 409 2770 889 
Q 3016 1369 3016 2328 
Q 3016 3291 2770 3770 
Q 2525 4250 2034 4250 
z
M 2034 4750 
Q 2819 4750 3233 4129 
Q 3647 3509 3647 2328 
Q 3647 1150 3233 529 
Q 2819 -91 2034 -91 
Q 1250 -91 836 529 
Q 422 1150 422 2328 
Q 422 3509 836 4129 
Q 1250 4750 2034 4750 
z
" transform="scale(0.015625)"/>
       </defs>
       <use xlink:href="#DejaVuSans-13"/>
      </g>
     </g>
    </g>
    <g id="xtick_6">
     <g id="line2d_11">
      <path d="M 635.752373 385.475078 
L 635.752373 22.32 
" clip-path="url(#p9992116c9c)" style="fill: none; stroke: #b0b0b0; stroke-opacity: 0.15; stroke-width: 0.8; stroke-linecap: square"/>
     </g>
     <g id="line2d_12">
      <g>
       <use xlink:href="#m09accde804" x="635.752373" y="385.475078" style="stroke: #000000; stroke-width: 0.8"/>
      </g>
     </g>
     <g id="text_6">
      <!-- 2 -->
      <g transform="translate(632.571123 400.072734) scale(0.1 -0.1)">
       <use xlink:href="#DejaVuSans-15"/>
      </g>
     </g>
    </g>
    <g id="xtick_7">
     <g id="line2d_13">
      <path d="M 753.882051 385.475078 
L 753.882051 22.32 
" clip-path="url(#p9992116c9c)" style="fill: none; stroke: #b0b0b0; stroke-opacity: 0.15; stroke-width: 0.8; stroke-linecap: square"/>
     </g>
     <g id="line2d_14">
      <g>
       <use xlink:href="#m09accde804" x="753.882051" y="385.475078" style="stroke: #000000; stroke-width: 0.8"/>
      </g>
     </g>
     <g id="text_7">
      <!-- 4 -->
      <g transform="translate(750.700801 400.072734) scale(0.1 -0.1)">
       <use xlink:href="#DejaVuSans-17"/>
      </g>
     </g>
    </g>
    <g id="xtick_8">
     <g id="line2d_15">
      <path d="M 872.011729 385.475078 
L 872.011729 22.32 
" clip-path="url(#p9992116c9c)" style="fill: none; stroke: #b0b0b0; stroke-opacity: 0.15; stroke-width: 0.8; stroke-linecap: square"/>
     </g>
     <g id="line2d_16">
      <g>
       <use xlink:href="#m09accde804" x="872.011729" y="385.475078" style="stroke: #000000; stroke-width: 0.8"/>
      </g>
     </g>
     <g id="text_8">
      <!-- 6 -->
      <g transform="translate(868.830479 400.072734) scale(0.1 -0.1)">
       <use xlink:href="#DejaVuSans-19"/>
      </g>
     </g>
    </g>
    <g id="xtick_9">
     <g id="line2d_17">
      <path d="M 990.141406 385.475078 
L 990.141406 22.32 
" clip-path="url(#p9992116c9c)" style="fill: none; stroke: #b0b0b0; stroke-opacity: 0.15; stroke-width: 0.8; stroke-linecap: square"/>
     </g>
     <g id="line2d_18">
      <g>
       <use xlink:href="#m09accde804" x="990.141406" y="385.475078" style="stroke: #000000; stroke-width: 0.8"/>
      </g>
     </g>
     <g id="text_9">
      <!-- 8 -->
      <g transform="translate(986.960156 400.072734) scale(0.1 -0.1)">
       <use xlink:href="#DejaVuSans-1b"/>
      </g>
     </g>
    </g>
    <g id="text_10">
     <!-- Frequency (bins) -->
     <g transform="translate(471.799102 414.833359) scale(0.11 -0.11)">
      <defs>
       <path id="DejaVuSans-29" d="M 628 4666 
L 3309 4666 
L 3309 4134 
L 1259 4134 
L 1259 2759 
L 3109 2759 
L 3109 2228 
L 1259 2228 
L 1259 0 
L 628 0 
L 628 4666 
z
" transform="scale(0.015625)"/>
       <path id="DejaVuSans-55" d="M 2631 2963 
Q 2534 3019 2420 3045 
Q 2306 3072 2169 3072 
Q 1681 3072 1420 2755 
Q 1159 2438 1159 1844 
L 1159 0 
L 581 0 
L 581 3500 
L 1159 3500 
L 1159 2956 
Q 1341 3275 1631 3429 
Q 1922 3584 2338 3584 
Q 2397 3584 2469 3576 
Q 2541 3569 2628 3553 
L 2631 2963 
z
" transform="scale(0.015625)"/>
       <path id="DejaVuSans-48" d="M 3597 1894 
L 3597 1613 
L 953 1613 
Q 991 1019 1311 708 
Q 1631 397 2203 397 
Q 2534 397 2845 478 
Q 3156 559 3463 722 
L 3463 178 
Q 3153 47 2828 -22 
Q 2503 -91 2169 -91 
Q 1331 -91 842 396 
Q 353 884 353 1716 
Q 353 2575 817 3079 
Q 1281 3584 2069 3584 
Q 2775 3584 3186 3129 
Q 3597 2675 3597 1894 
z
M 3022 2063 
Q 3016 2534 2758 2815 
Q 2500 3097 2075 3097 
Q 1594 3097 1305 2825 
Q 1016 2553 972 2059 
L 3022 2063 
z
" transform="scale(0.015625)"/>
       <path id="DejaVuSans-54" d="M 947 1747 
Q 947 1113 1208 752 
Q 1469 391 1925 391 
Q 2381 391 2643 752 
Q 2906 1113 2906 1747 
Q 2906 2381 2643 2742 
Q 2381 3103 1925 3103 
Q 1469 3103 1208 2742 
Q 947 2381 947 1747 
z
M 2906 525 
Q 2725 213 2448 61 
Q 2172 -91 1784 -91 
Q 1150 -91 751 415 
Q 353 922 353 1747 
Q 353 2572 751 3078 
Q 1150 3584 1784 3584 
Q 2172 3584 2448 3432 
Q 2725 3281 2906 2969 
L 2906 3500 
L 3481 3500 
L 3481 -1331 
L 2906 -1331 
L 2906 525 
z
" transform="scale(0.015625)"/>
       <path id="DejaVuSans-58" d="M 544 1381 
L 544 3500 
L 1119 3500 
L 1119 1403 
Q 1119 906 1312 657 
Q 1506 409 1894 409 
Q 2359 409 2629 706 
Q 2900 1003 2900 1516 
L 2900 3500 
L 3475 3500 
L 3475 0 
L 2900 0 
L 2900 538 
Q 2691 219 2414 64 
Q 2138 -91 1772 -91 
Q 1169 -91 856 284 
Q 544 659 544 1381 
z
M 1991 3584 
L 1991 3584 
z
" transform="scale(0.015625)"/>
       <path id="DejaVuSans-51" d="M 3513 2113 
L 3513 0 
L 2938 0 
L 2938 2094 
Q 2938 2591 2744 2837 
Q 2550 3084 2163 3084 
Q 1697 3084 1428 2787 
Q 1159 2491 1159 1978 
L 1159 0 
L 581 0 
L 581 3500 
L 1159 3500 
L 1159 2956 
Q 1366 3272 1645 3428 
Q 1925 3584 2291 3584 
Q 2894 3584 3203 3211 
Q 3513 2838 3513 2113 
z
" transform="scale(0.015625)"/>
       <path id="DejaVuSans-46" d="M 3122 3366 
L 3122 2828 
Q 2878 2963 2633 3030 
Q 2388 3097 2138 3097 
Q 1578 3097 1268 2742 
Q 959 2388 959 1747 
Q 959 1106 1268 751 
Q 1578 397 2138 397 
Q 2388 397 2633 464 
Q 2878 531 3122 666 
L 3122 134 
Q 2881 22 2623 -34 
Q 2366 -91 2075 -91 
Q 1284 -91 818 406 
Q 353 903 353 1747 
Q 353 2603 823 3093 
Q 1294 3584 2113 3584 
Q 2378 3584 2631 3529 
Q 2884 3475 3122 3366 
z
" transform="scale(0.015625)"/>
       <path id="DejaVuSans-5c" d="M 2059 -325 
Q 1816 -950 1584 -1140 
Q 1353 -1331 966 -1331 
L 506 -1331 
L 506 -850 
L 844 -850 
Q 1081 -850 1212 -737 
Q 1344 -625 1503 -206 
L 1606 56 
L 191 3500 
L 800 3500 
L 1894 763 
L 2988 3500 
L 3597 3500 
L 2059 -325 
z
" transform="scale(0.015625)"/>
       <path id="DejaVuSans-3" transform="scale(0.015625)"/>
       <path id="DejaVuSans-b" d="M 1984 4856 
Q 1566 4138 1362 3434 
Q 1159 2731 1159 2009 
Q 1159 1288 1364 580 
Q 1569 -128 1984 -844 
L 1484 -844 
Q 1016 -109 783 600 
Q 550 1309 550 2009 
Q 550 2706 781 3412 
Q 1013 4119 1484 4856 
L 1984 4856 
z
" transform="scale(0.015625)"/>
       <path id="DejaVuSans-45" d="M 3116 1747 
Q 3116 2381 2855 2742 
Q 2594 3103 2138 3103 
Q 1681 3103 1420 2742 
Q 1159 2381 1159 1747 
Q 1159 1113 1420 752 
Q 1681 391 2138 391 
Q 2594 391 2855 752 
Q 3116 1113 3116 1747 
z
M 1159 2969 
Q 1341 3281 1617 3432 
Q 1894 3584 2278 3584 
Q 2916 3584 3314 3078 
Q 3713 2572 3713 1747 
Q 3713 922 3314 415 
Q 2916 -91 2278 -91 
Q 1894 -91 1617 61 
Q 1341 213 1159 525 
L 1159 0 
L 581 0 
L 581 4863 
L 1159 4863 
L 1159 2969 
z
" transform="scale(0.015625)"/>
       <path id="DejaVuSans-4c" d="M 603 3500 
L 1178 3500 
L 1178 0 
L 603 0 
L 603 3500 
z
M 603 4863 
L 1178 4863 
L 1178 4134 
L 603 4134 
L 603 4863 
z
" transform="scale(0.015625)"/>
       <path id="DejaVuSans-56" d="M 2834 3397 
L 2834 2853 
Q 2591 2978 2328 3040 
Q 2066 3103 1784 3103 
Q 1356 3103 1142 2972 
Q 928 2841 928 2578 
Q 928 2378 1081 2264 
Q 1234 2150 1697 2047 
L 1894 2003 
Q 2506 1872 2764 1633 
Q 3022 1394 3022 966 
Q 3022 478 2636 193 
Q 2250 -91 1575 -91 
Q 1294 -91 989 -36 
Q 684 19 347 128 
L 347 722 
Q 666 556 975 473 
Q 1284 391 1588 391 
Q 1994 391 2212 530 
Q 2431 669 2431 922 
Q 2431 1156 2273 1281 
Q 2116 1406 1581 1522 
L 1381 1569 
Q 847 1681 609 1914 
Q 372 2147 372 2553 
Q 372 3047 722 3315 
Q 1072 3584 1716 3584 
Q 2034 3584 2315 3537 
Q 2597 3491 2834 3397 
z
" transform="scale(0.015625)"/>
       <path id="DejaVuSans-c" d="M 513 4856 
L 1013 4856 
Q 1481 4119 1714 3412 
Q 1947 2706 1947 2009 
Q 1947 1309 1714 600 
Q 1481 -109 1013 -844 
L 513 -844 
Q 928 -128 1133 580 
Q 1338 1288 1338 2009 
Q 1338 2731 1133 3434 
Q 928 4138 513 4856 
z
" transform="scale(0.015625)"/>
      </defs>
      <use xlink:href="#DejaVuSans-29"/>
      <use xlink:href="#DejaVuSans-55" transform="translate(50.234375 0)"/>
      <use xlink:href="#DejaVuSans-48" transform="translate(89.140625 0)"/>
      <use xlink:href="#DejaVuSans-54" transform="translate(150.671875 0)"/>
      <use xlink:href="#DejaVuSans-58" transform="translate(214.15625 0)"/>
      <use xlink:href="#DejaVuSans-48" transform="translate(277.53125 0)"/>
      <use xlink:href="#DejaVuSans-51" transform="translate(339.0625 0)"/>
      <use xlink:href="#DejaVuSans-46" transform="translate(402.4375 0)"/>
      <use xlink:href="#DejaVuSans-5c" transform="translate(457.421875 0)"/>
      <use xlink:href="#DejaVuSans-3" transform="translate(516.609375 0)"/>
      <use xlink:href="#DejaVuSans-b" transform="translate(548.390625 0)"/>
      <use xlink:href="#DejaVuSans-45" transform="translate(587.40625 0)"/>
      <use xlink:href="#DejaVuSans-4c" transform="translate(650.890625 0)"/>
      <use xlink:href="#DejaVuSans-51" transform="translate(678.671875 0)"/>
      <use xlink:href="#DejaVuSans-56" transform="translate(742.046875 0)"/>
      <use xlink:href="#DejaVuSans-c" transform="translate(794.140625 0)"/>
     </g>
    </g>
   </g>
   <g id="matplotlib.axis_2">
    <g id="ytick_1">
     <g id="line2d_19">
      <path d="M 45.103984 378.687133 
L 990.141406 378.687133 
" clip-path="url(#p9992116c9c)" style="fill: none; stroke: #b0b0b0; stroke-opacity: 0.15; stroke-width: 0.8; stroke-linecap: square"/>
     </g>
     <g id="line2d_20">
      <defs>
       <path id="m80a0f552ac" d="M 0 0 
L -3.5 0 
" style="stroke: #000000; stroke-width: 0.8"/>
      </defs>
      <g>
       <use xlink:href="#m80a0f552ac" x="45.103984" y="378.687133" style="stroke: #000000; stroke-width: 0.8"/>
      </g>
     </g>
     <g id="text_11">
      <!-- 0.0 -->
      <g transform="translate(22.200859 382.485961) scale(0.1 -0.1)">
       <defs>
        <path id="DejaVuSans-11" d="M 684 794 
L 1344 794 
L 1344 0 
L 684 0 
L 684 794 
z
" transform="scale(0.015625)"/>
       </defs>
       <use xlink:href="#DejaVuSans-13"/>
       <use xlink:href="#DejaVuSans-11" transform="translate(63.625 0)"/>
       <use xlink:href="#DejaVuSans-13" transform="translate(95.40625 0)"/>
      </g>
     </g>
    </g>
    <g id="ytick_2">
     <g id="line2d_21">
      <path d="M 45.103984 310.807679 
L 990.141406 310.807679 
" clip-path="url(#p9992116c9c)" style="fill: none; stroke: #b0b0b0; stroke-opacity: 0.15; stroke-width: 0.8; stroke-linecap: square"/>
     </g>
     <g id="line2d_22">
      <g>
       <use xlink:href="#m80a0f552ac" x="45.103984" y="310.807679" style="stroke: #000000; stroke-width: 0.8"/>
      </g>
     </g>
     <g id="text_12">
      <!-- 0.2 -->
      <g transform="translate(22.200859 314.606507) scale(0.1 -0.1)">
       <use xlink:href="#DejaVuSans-13"/>
       <use xlink:href="#DejaVuSans-11" transform="translate(63.625 0)"/>
       <use xlink:href="#DejaVuSans-15" transform="translate(95.40625 0)"/>
      </g>
     </g>
    </g>
    <g id="ytick_3">
     <g id="line2d_23">
      <path d="M 45.103984 242.928225 
L 990.141406 242.928225 
" clip-path="url(#p9992116c9c)" style="fill: none; stroke: #b0b0b0; stroke-opacity: 0.15; stroke-width: 0.8; stroke-linecap: square"/>
     </g>
     <g id="line2d_24">
      <g>
       <use xlink:href="#m80a0f552ac" x="45.103984" y="242.928225" style="stroke: #000000; stroke-width: 0.8"/>
      </g>
     </g>
     <g id="text_13">
      <!-- 0.4 -->
      <g transform="translate(22.200859 246.727053) scale(0.1 -0.1)">
       <use xlink:href="#DejaVuSans-13"/>
       <use xlink:href="#DejaVuSans-11" transform="translate(63.625 0)"/>
       <use xlink:href="#DejaVuSans-17" transform="translate(95.40625 0)"/>
      </g>
     </g>
    </g>
    <g id="ytick_4">
     <g id="line2d_25">
      <path d="M 45.103984 175.048771 
L 990.141406 175.048771 
" clip-path="url(#p9992116c9c)" style="fill: none; stroke: #b0b0b0; stroke-opacity: 0.15; stroke-width: 0.8; stroke-linecap: square"/>
     </g>
     <g id="line2d_26">
      <g>
       <use xlink:href="#m80a0f552ac" x="45.103984" y="175.048771" style="stroke: #000000; stroke-width: 0.8"/>
      </g>
     </g>
     <g id="text_14">
      <!-- 0.6 -->
      <g transform="translate(22.200859 178.847599) scale(0.1 -0.1)">
       <use xlink:href="#DejaVuSans-13"/>
       <use xlink:href="#DejaVuSans-11" transform="translate(63.625 0)"/>
       <use xlink:href="#DejaVuSans-19" transform="translate(95.40625 0)"/>
      </g>
     </g>
    </g>
    <g id="ytick_5">
     <g id="line2d_27">
      <path d="M 45.103984 107.169317 
L 990.141406 107.169317 
" clip-path="url(#p9992116c9c)" style="fill: none; stroke: #b0b0b0; stroke-opacity: 0.15; stroke-width: 0.8; stroke-linecap: square"/>
     </g>
     <g id="line2d_28">
      <g>
       <use xlink:href="#m80a0f552ac" x="45.103984" y="107.169317" style="stroke: #000000; stroke-width: 0.8"/>
      </g>
     </g>
     <g id="text_15">
      <!-- 0.8 -->
      <g transform="translate(22.200859 110.968145) scale(0.1 -0.1)">
       <use xlink:href="#DejaVuSans-13"/>
       <use xlink:href="#DejaVuSans-11" transform="translate(63.625 0)"/>
       <use xlink:href="#DejaVuSans-1b" transform="translate(95.40625 0)"/>
      </g>
     </g>
    </g>
    <g id="ytick_6">
     <g id="line2d_29">
      <path d="M 45.103984 39.289863 
L 990.141406 39.289863 
" clip-path="url(#p9992116c9c)" style="fill: none; stroke: #b0b0b0; stroke-opacity: 0.15; stroke-width: 0.8; stroke-linecap: square"/>
     </g>
     <g id="line2d_30">
      <g>
       <use xlink:href="#m80a0f552ac" x="45.103984" y="39.289863" style="stroke: #000000; stroke-width: 0.8"/>
      </g>
     </g>
     <g id="text_16">
      <!-- 1.0 -->
      <g transform="translate(22.200859 43.088692) scale(0.1 -0.1)">
       <defs>
        <path id="DejaVuSans-14" d="M 794 531 
L 1825 531 
L 1825 4091 
L 703 3866 
L 703 4441 
L 1819 4666 
L 2450 4666 
L 2450 531 
L 3481 531 
L 3481 0 
L 794 0 
L 794 531 
z
" transform="scale(0.015625)"/>
       </defs>
       <use xlink:href="#DejaVuSans-14"/>
       <use xlink:href="#DejaVuSans-11" transform="translate(63.625 0)"/>
       <use xlink:href="#DejaVuSans-13" transform="translate(95.40625 0)"/>
      </g>
     </g>
    </g>
    <g id="text_17">
     <!-- Normalized magnitude -->
     <g transform="translate(15.558281 266.587227) rotate(-90) scale(0.11 -0.11)">
      <defs>
       <path id="DejaVuSans-31" d="M 628 4666 
L 1478 4666 
L 3547 763 
L 3547 4666 
L 4159 4666 
L 4159 0 
L 3309 0 
L 1241 3903 
L 1241 0 
L 628 0 
L 628 4666 
z
" transform="scale(0.015625)"/>
       <path id="DejaVuSans-52" d="M 1959 3097 
Q 1497 3097 1228 2736 
Q 959 2375 959 1747 
Q 959 1119 1226 758 
Q 1494 397 1959 397 
Q 2419 397 2687 759 
Q 2956 1122 2956 1747 
Q 2956 2369 2687 2733 
Q 2419 3097 1959 3097 
z
M 1959 3584 
Q 2709 3584 3137 3096 
Q 3566 2609 3566 1747 
Q 3566 888 3137 398 
Q 2709 -91 1959 -91 
Q 1206 -91 779 398 
Q 353 888 353 1747 
Q 353 2609 779 3096 
Q 1206 3584 1959 3584 
z
" transform="scale(0.015625)"/>
       <path id="DejaVuSans-50" d="M 3328 2828 
Q 3544 3216 3844 3400 
Q 4144 3584 4550 3584 
Q 5097 3584 5394 3201 
Q 5691 2819 5691 2113 
L 5691 0 
L 5113 0 
L 5113 2094 
Q 5113 2597 4934 2840 
Q 4756 3084 4391 3084 
Q 3944 3084 3684 2787 
Q 3425 2491 3425 1978 
L 3425 0 
L 2847 0 
L 2847 2094 
Q 2847 2600 2669 2842 
Q 2491 3084 2119 3084 
Q 1678 3084 1418 2786 
Q 1159 2488 1159 1978 
L 1159 0 
L 581 0 
L 581 3500 
L 1159 3500 
L 1159 2956 
Q 1356 3278 1631 3431 
Q 1906 3584 2284 3584 
Q 2666 3584 2933 3390 
Q 3200 3197 3328 2828 
z
" transform="scale(0.015625)"/>
       <path id="DejaVuSans-44" d="M 2194 1759 
Q 1497 1759 1228 1600 
Q 959 1441 959 1056 
Q 959 750 1161 570 
Q 1363 391 1709 391 
Q 2188 391 2477 730 
Q 2766 1069 2766 1631 
L 2766 1759 
L 2194 1759 
z
M 3341 1997 
L 3341 0 
L 2766 0 
L 2766 531 
Q 2569 213 2275 61 
Q 1981 -91 1556 -91 
Q 1019 -91 701 211 
Q 384 513 384 1019 
Q 384 1609 779 1909 
Q 1175 2209 1959 2209 
L 2766 2209 
L 2766 2266 
Q 2766 2663 2505 2880 
Q 2244 3097 1772 3097 
Q 1472 3097 1187 3025 
Q 903 2953 641 2809 
L 641 3341 
Q 956 3463 1253 3523 
Q 1550 3584 1831 3584 
Q 2591 3584 2966 3190 
Q 3341 2797 3341 1997 
z
" transform="scale(0.015625)"/>
       <path id="DejaVuSans-4f" d="M 603 4863 
L 1178 4863 
L 1178 0 
L 603 0 
L 603 4863 
z
" transform="scale(0.015625)"/>
       <path id="DejaVuSans-5d" d="M 353 3500 
L 3084 3500 
L 3084 2975 
L 922 459 
L 3084 459 
L 3084 0 
L 275 0 
L 275 525 
L 2438 3041 
L 353 3041 
L 353 3500 
z
" transform="scale(0.015625)"/>
       <path id="DejaVuSans-47" d="M 2906 2969 
L 2906 4863 
L 3481 4863 
L 3481 0 
L 2906 0 
L 2906 525 
Q 2725 213 2448 61 
Q 2172 -91 1784 -91 
Q 1150 -91 751 415 
Q 353 922 353 1747 
Q 353 2572 751 3078 
Q 1150 3584 1784 3584 
Q 2172 3584 2448 3432 
Q 2725 3281 2906 2969 
z
M 947 1747 
Q 947 1113 1208 752 
Q 1469 391 1925 391 
Q 2381 391 2643 752 
Q 2906 1113 2906 1747 
Q 2906 2381 2643 2742 
Q 2381 3103 1925 3103 
Q 1469 3103 1208 2742 
Q 947 2381 947 1747 
z
" transform="scale(0.015625)"/>
       <path id="DejaVuSans-4a" d="M 2906 1791 
Q 2906 2416 2648 2759 
Q 2391 3103 1925 3103 
Q 1463 3103 1205 2759 
Q 947 2416 947 1791 
Q 947 1169 1205 825 
Q 1463 481 1925 481 
Q 2391 481 2648 825 
Q 2906 1169 2906 1791 
z
M 3481 434 
Q 3481 -459 3084 -895 
Q 2688 -1331 1869 -1331 
Q 1566 -1331 1297 -1286 
Q 1028 -1241 775 -1147 
L 775 -588 
Q 1028 -725 1275 -790 
Q 1522 -856 1778 -856 
Q 2344 -856 2625 -561 
Q 2906 -266 2906 331 
L 2906 616 
Q 2728 306 2450 153 
Q 2172 0 1784 0 
Q 1141 0 747 490 
Q 353 981 353 1791 
Q 353 2603 747 3093 
Q 1141 3584 1784 3584 
Q 2172 3584 2450 3431 
Q 2728 3278 2906 2969 
L 2906 3500 
L 3481 3500 
L 3481 434 
z
" transform="scale(0.015625)"/>
       <path id="DejaVuSans-57" d="M 1172 4494 
L 1172 3500 
L 2356 3500 
L 2356 3053 
L 1172 3053 
L 1172 1153 
Q 1172 725 1289 603 
Q 1406 481 1766 481 
L 2356 481 
L 2356 0 
L 1766 0 
Q 1100 0 847 248 
Q 594 497 594 1153 
L 594 3053 
L 172 3053 
L 172 3500 
L 594 3500 
L 594 4494 
L 1172 4494 
z
" transform="scale(0.015625)"/>
      </defs>
      <use xlink:href="#DejaVuSans-31"/>
      <use xlink:href="#DejaVuSans-52" transform="translate(74.8125 0)"/>
      <use xlink:href="#DejaVuSans-55" transform="translate(136 0)"/>
      <use xlink:href="#DejaVuSans-50" transform="translate(175.359375 0)"/>
      <use xlink:href="#DejaVuSans-44" transform="translate(272.765625 0)"/>
      <use xlink:href="#DejaVuSans-4f" transform="translate(334.046875 0)"/>
      <use xlink:href="#DejaVuSans-4c" transform="translate(361.828125 0)"/>
      <use xlink:href="#DejaVuSans-5d" transform="translate(389.609375 0)"/>
      <use xlink:href="#DejaVuSans-48" transform="translate(442.09375 0)"/>
      <use xlink:href="#DejaVuSans-47" transform="translate(503.625 0)"/>
      <use xlink:href="#DejaVuSans-3" transform="translate(567.109375 0)"/>
      <use xlink:href="#DejaVuSans-50" transform="translate(598.890625 0)"/>
      <use xlink:href="#DejaVuSans-44" transform="translate(696.296875 0)"/>
      <use xlink:href="#DejaVuSans-4a" transform="translate(757.578125 0)"/>
      <use xlink:href="#DejaVuSans-51" transform="translate(821.0625 0)"/>
      <use xlink:href="#DejaVuSans-4c" transform="translate(884.4375 0)"/>
      <use xlink:href="#DejaVuSans-57" transform="translate(912.21875 0)"/>
      <use xlink:href="#DejaVuSans-58" transform="translate(951.421875 0)"/>
      <use xlink:href="#DejaVuSans-47" transform="translate(1014.796875 0)"/>
      <use xlink:href="#DejaVuSans-48" transform="translate(1078.28125 0)"/>
     </g>
    </g>
   </g>
   <g id="patch_3">
    <path d="M 45.103984 385.475078 
L 45.103984 22.32 
" style="fill: none; stroke: #000000; stroke-width: 0.8; stroke-linejoin: miter; stroke-linecap: square"/>
   </g>
   <g id="patch_4">
    <path d="M 45.103984 385.475078 
L 990.141406 385.475078 
" style="fill: none; stroke: #000000; stroke-width: 0.8; stroke-linejoin: miter; stroke-linecap: square"/>
   </g>
   <g id="line2d_31">
    <path d="M 45.103984 378.687133 
L 54.304025 372.203528 
L 58.168619 369.780961 
L 61.398728 368.010685 
L 64.311593 366.662761 
L 66.993737 365.661878 
L 69.531679 364.94861 
L 71.95426 364.494533 
L 74.319161 364.274654 
L 76.655222 364.279915 
L 78.991282 364.508551 
L 81.356183 364.966348 
L 83.749924 365.656751 
L 86.230186 366.603767 
L 88.854649 367.847352 
L 91.652153 369.422769 
L 94.73806 371.422319 
L 98.285412 373.996707 
L 102.813331 377.577656 
L 104.255344 378.616007 
L 113.455385 371.193248 
L 117.175778 368.509982 
L 120.290525 366.528989 
L 123.088029 365.007632 
L 125.654812 363.859704 
L 128.077393 363.016832 
L 130.384614 362.447164 
L 132.605313 362.124393 
L 134.797172 362.029765 
L 136.960191 362.158278 
L 139.12321 362.508037 
L 141.34391 363.095077 
L 143.62229 363.931676 
L 145.987191 365.041018 
L 148.467452 366.452545 
L 151.149596 368.240554 
L 154.091302 370.476337 
L 157.465611 373.331431 
L 161.705129 377.229825 
L 163.291343 378.631833 
L 172.837466 369.631464 
L 176.384818 366.637705 
L 179.384204 364.390371 
L 182.037507 362.67242 
L 184.488929 361.345363 
L 186.767309 360.359801 
L 188.930328 359.661742 
L 191.006826 359.221008 
L 193.025644 359.015935 
L 195.015621 359.034412 
L 197.005599 359.274445 
L 199.024417 359.744412 
L 201.072075 360.451503 
L 203.177413 361.4148 
L 205.398113 362.680759 
L 207.734173 364.27417 
L 210.243275 366.26129 
L 212.983099 368.721698 
L 216.097847 371.829015 
L 219.847079 375.899195 
L 222.298501 378.687133 
L 222.385022 378.587609 
L 232.42143 367.207533 
L 235.79574 363.784896 
L 238.650925 361.198116 
L 241.188867 359.193447 
L 243.496087 357.648443 
L 245.630266 356.479549 
L 247.649084 355.621729 
L 249.581381 355.039151 
L 251.455997 354.706049 
L 253.272933 354.607588 
L 255.061029 354.730254 
L 256.877965 355.079939 
L 258.694901 355.656375 
L 260.569517 356.486455 
L 262.501814 357.587266 
L 264.520632 358.994813 
L 266.683651 360.781354 
L 268.990871 362.983887 
L 271.499973 365.695509 
L 274.297478 369.057733 
L 277.527586 373.300234 
L 281.36334 378.687133 
L 281.478701 378.521265 
L 292.524518 362.823995 
L 295.668106 358.856475 
L 298.350249 355.820425 
L 300.71515 353.469184 
L 302.878169 351.625036 
L 304.868146 350.213866 
L 306.742763 349.154072 
L 308.502018 348.411198 
L 310.174753 347.940794 
L 311.789807 347.711949 
L 313.376021 347.707753 
L 314.962235 347.925595 
L 316.548449 348.367429 
L 318.163503 349.047874 
L 319.836238 349.996603 
L 321.566653 351.235877 
L 323.383589 352.813042 
L 325.315886 354.790187 
L 327.392384 357.243109 
L 329.613084 360.217955 
L 332.064505 363.885384 
L 334.804329 368.399139 
L 338.005597 374.121117 
L 340.428179 378.687133 
L 340.485859 378.576591 
L 353.954258 352.991095 
L 356.751762 348.409456 
L 359.174343 344.857087 
L 361.337362 342.071475 
L 363.2985 339.901433 
L 365.086595 338.245626 
L 366.73049 337.014546 
L 368.287863 336.119952 
L 369.758716 335.52843 
L 371.171889 335.2 
L 372.527381 335.111884 
L 373.854032 335.245303 
L 375.180684 335.599429 
L 376.536176 336.191714 
L 377.949348 337.05881 
L 379.420201 338.232324 
L 380.948735 339.743609 
L 382.563789 341.660161 
L 384.294204 344.071555 
L 386.13998 347.040503 
L 388.101118 350.625873 
L 390.235296 355.003824 
L 392.571357 360.32074 
L 395.16698 366.80136 
L 398.137526 374.839802 
L 399.493018 378.687133 
L 399.550698 378.521314 
L 403.761375 366.071872 
L 413.105617 338.242115 
L 416.191524 329.870693 
L 418.758307 323.527713 
L 420.979006 318.612401 
L 422.940144 314.789016 
L 424.699399 311.823469 
L 426.314453 309.524278 
L 427.785306 307.80935 
L 429.111958 306.591092 
L 430.352089 305.7479 
L 431.505699 305.230392 
L 432.572788 304.988488 
L 433.611037 304.977873 
L 434.649286 305.194528 
L 435.687536 305.643576 
L 436.754625 306.352187 
L 437.879395 307.37525 
L 439.061845 308.761463 
L 440.330816 310.608631 
L 441.657468 312.942757 
L 443.07064 315.886757 
L 444.599174 319.606161 
L 446.214228 324.141999 
L 447.944643 329.691371 
L 449.790419 336.390798 
L 451.751557 344.378002 
L 453.828055 353.787721 
L 456.077595 365.048722 
L 458.500176 378.356006 
L 458.557856 378.687133 
L 458.586697 378.521326 
L 461.21116 362.776235 
L 464.095185 344.081761 
L 467.354134 321.439548 
L 471.161047 293.36278 
L 476.265772 253.917606 
L 486.792464 172.207055 
L 490.599378 144.65685 
L 493.771806 123.272877 
L 496.54047 106.075359 
L 499.020732 92.016333 
L 501.270272 80.491587 
L 503.34677 70.976246 
L 505.250227 63.261435 
L 507.009482 57.030281 
L 508.624536 52.099133 
L 510.095389 48.284632 
L 511.450881 45.352724 
L 512.691012 43.168583 
L 513.844622 41.56945 
L 514.882871 40.48985 
L 515.8346 39.801283 
L 516.728647 39.417762 
L 517.565015 39.290396 
L 518.401382 39.386888 
L 519.23775 39.707123 
L 520.131797 40.296429 
L 521.083526 41.203313 
L 522.121775 42.519815 
L 523.246545 44.328539 
L 524.457835 46.716918 
L 525.784487 49.850014 
L 527.2265 53.85824 
L 528.783873 58.876353 
L 530.456608 65.040424 
L 532.273544 72.61121 
L 534.234681 81.758438 
L 536.36886 92.796098 
L 538.704921 106.075359 
L 541.300543 122.15537 
L 544.213409 141.647066 
L 547.587719 165.794465 
L 551.769555 197.417067 
L 559.469903 257.760308 
L 565.180273 301.595863 
L 569.102548 330.025295 
L 572.390336 352.287914 
L 575.303202 370.548762 
L 576.687534 378.687133 
L 576.716374 378.521488 
L 579.254317 364.595681 
L 581.619218 352.830732 
L 583.811077 343.02602 
L 585.858735 334.856996 
L 587.762191 328.142017 
L 589.550287 322.61616 
L 591.223022 318.137134 
L 592.809236 314.506325 
L 594.280089 311.673279 
L 595.664421 309.471854 
L 596.962232 307.812541 
L 598.173523 306.611839 
L 599.327133 305.775404 
L 600.423063 305.253099 
L 601.461312 304.998056 
L 602.499561 304.971166 
L 603.53781 305.166956 
L 604.604899 305.594037 
L 605.729669 306.284597 
L 606.94096 307.294613 
L 608.238771 308.670805 
L 609.651944 310.498543 
L 611.209317 312.887213 
L 612.910892 315.914051 
L 614.814349 319.770543 
L 616.948528 324.619345 
L 619.371109 330.697373 
L 622.226294 338.486308 
L 625.917847 349.249677 
L 635.752373 378.687133 
L 635.810054 378.521476 
L 639.270884 368.926684 
L 642.126069 361.641381 
L 644.664011 355.758129 
L 646.942391 351.019254 
L 649.04773 347.139721 
L 650.980027 344.028381 
L 652.796963 341.512478 
L 654.498538 339.52705 
L 656.084752 338.005172 
L 657.584445 336.861119 
L 659.026458 336.03212 
L 660.41079 335.485618 
L 661.766282 335.185353 
L 663.121773 335.114596 
L 664.477265 335.269445 
L 665.861598 335.655329 
L 667.30361 336.29527 
L 668.803303 337.209615 
L 670.389517 338.441144 
L 672.091092 340.048722 
L 673.936868 342.106001 
L 675.955686 344.698847 
L 678.205226 347.964733 
L 680.743168 352.058139 
L 683.713714 357.289689 
L 687.549468 364.52705 
L 694.817212 378.687133 
L 694.903733 378.521455 
L 698.999049 370.924472 
L 702.142636 365.548217 
L 704.85362 361.341415 
L 707.276201 357.982018 
L 709.496901 355.273806 
L 711.544559 353.116769 
L 713.476856 351.3973 
L 715.293792 350.071114 
L 717.024207 349.076469 
L 718.696942 348.367429 
L 720.311996 347.919639 
L 721.89821 347.705855 
L 723.484424 347.714062 
L 725.099478 347.946911 
L 726.743372 348.411198 
L 728.444947 349.125784 
L 730.233043 350.12284 
L 732.1365 351.446947 
L 734.155317 353.127599 
L 736.347177 355.246606 
L 738.769758 357.904855 
L 741.538422 361.286627 
L 744.826211 365.671708 
L 749.354131 372.116859 
L 753.882051 378.687133 
L 753.939731 378.604259 
L 758.554172 372.170382 
L 761.899641 367.877468 
L 764.754826 364.567388 
L 767.292769 361.956397 
L 769.628829 359.865023 
L 771.791848 358.218686 
L 773.839506 356.932763 
L 775.800643 355.959932 
L 777.67526 355.272868 
L 779.521036 354.831587 
L 781.337972 354.626044 
L 783.154908 354.646316 
L 784.971844 354.889139 
L 786.84646 355.367365 
L 788.778757 356.094061 
L 790.797575 357.095013 
L 792.931754 358.405323 
L 795.238974 360.089943 
L 797.748076 362.204304 
L 800.574421 364.886761 
L 803.89105 368.354884 
L 808.303609 373.317348 
L 812.94689 378.687133 
L 813.00457 378.620816 
L 818.051614 372.987173 
L 821.541285 369.414076 
L 824.511831 366.680464 
L 827.165135 364.53188 
L 829.616556 362.82648 
L 831.923776 361.489343 
L 834.115636 360.474736 
L 836.220974 359.744412 
L 838.268632 359.26938 
L 840.28745 359.030765 
L 842.277427 359.018684 
L 844.296245 359.230135 
L 846.343903 359.669469 
L 848.449242 360.348939 
L 850.669941 361.303444 
L 853.006002 362.553277 
L 855.515104 364.150944 
L 858.283768 366.183004 
L 861.456196 368.798201 
L 865.32079 372.287362 
L 872.15593 378.548964 
L 877.549057 373.535999 
L 881.182929 370.453172 
L 884.268836 368.117576 
L 887.037501 366.293505 
L 889.604283 364.863847 
L 892.026864 363.766482 
L 894.334085 362.962816 
L 896.554784 362.420445 
L 898.746643 362.11228 
L 900.909662 362.03096 
L 903.101522 362.172852 
L 905.322221 362.542298 
L 907.600601 363.14938 
L 909.965502 364.011535 
L 912.474604 365.166588 
L 915.185588 366.665968 
L 918.156134 368.568806 
L 921.588124 371.040432 
L 925.943002 374.467861 
L 931.191928 378.592345 
L 936.988819 373.974799 
L 940.766893 371.244683 
L 943.968161 369.197717 
L 946.852186 367.611555 
L 949.53433 366.386654 
L 952.072272 365.469903 
L 954.494853 364.827616 
L 956.859754 364.42783 
L 959.195814 364.257134 
L 961.531875 364.309552 
L 963.896776 364.586661 
L 966.319357 365.097237 
L 968.828459 365.856381 
L 971.481762 366.896513 
L 974.308107 368.24696 
L 977.451695 370.002841 
L 981.056726 372.279944 
L 985.728847 375.512124 
L 990.141406 378.687133 
L 990.141406 378.687133 
" clip-path="url(#p9992116c9c)" style="fill: none; stroke: #2563eb; stroke-width: 1.5; stroke-linecap: square"/>
   </g>
   <g id="line2d_32">
    <path d="M 45.103984 378.687133 
L 77.866512 378.424486 
L 94.997623 378.546162 
L 108.466021 378.611929 
L 133.037917 378.286576 
L 146.794718 378.343526 
L 161.301365 378.635223 
L 165.28132 378.630214 
L 190.25698 378.037094 
L 201.187436 378.031011 
L 211.512246 378.249622 
L 224.865284 378.561261 
L 247.793285 377.524322 
L 256.214639 377.409422 
L 263.741945 377.528021 
L 271.067369 377.866726 
L 278.825398 378.452787 
L 281.997825 378.625866 
L 294.889419 377.259169 
L 304.666265 376.325851 
L 311.068801 375.93623 
L 316.490768 375.824619 
L 321.451292 375.942201 
L 326.152253 376.274299 
L 330.766694 376.823667 
L 335.409975 377.602649 
L 340.226297 378.638977 
L 340.658901 378.631659 
L 346.023188 377.221737 
L 352.944849 375.153799 
L 364.019506 371.835709 
L 368.489745 370.751266 
L 372.152457 370.08701 
L 375.353726 369.728224 
L 378.266591 369.622984 
L 380.948735 369.744915 
L 383.486677 370.08041 
L 385.909258 370.623414 
L 388.245319 371.373412 
L 390.523699 372.337322 
L 392.773239 373.531185 
L 394.993938 374.961547 
L 397.214638 376.657077 
L 399.464177 378.659537 
L 399.550698 378.631793 
L 401.800238 376.316907 
L 404.078618 373.65225 
L 406.414678 370.572995 
L 408.808419 367.041048 
L 411.259841 363.017739 
L 413.768943 358.464338 
L 416.364566 353.282452 
L 419.046709 347.418645 
L 421.815374 340.820689 
L 424.699399 333.361447 
L 427.698785 324.977532 
L 430.842373 315.521828 
L 434.159002 304.831792 
L 437.706353 292.631884 
L 441.513267 278.727909 
L 445.723944 262.481724 
L 450.511426 243.08897 
L 456.423678 218.15805 
L 475.400564 137.394098 
L 479.813123 120.017233 
L 483.620037 105.90098 
L 487.023187 94.113159 
L 490.109094 84.202002 
L 492.964279 75.76256 
L 495.588742 68.676503 
L 498.040163 62.676927 
L 500.347384 57.605421 
L 502.510403 53.378852 
L 504.52922 49.910715 
L 506.432677 47.073769 
L 508.220773 44.799891 
L 509.893507 43.021594 
L 511.479721 41.650929 
L 512.979415 40.640447 
L 514.421427 39.932373 
L 515.805759 39.496944 
L 517.161251 39.303223 
L 518.487903 39.336829 
L 519.814555 39.591189 
L 521.170046 40.078667 
L 522.554379 40.81312 
L 523.996391 41.831073 
L 525.524925 43.189775 
L 527.139979 44.935024 
L 528.841554 47.113569 
L 530.62965 49.772568 
L 532.533106 53.011095 
L 534.551924 56.894333 
L 536.714943 61.551688 
L 539.022163 67.064913 
L 541.473585 73.511574 
L 544.126888 81.134791 
L 546.982073 90.036323 
L 550.06798 100.401583 
L 553.47113 112.632054 
L 557.278044 127.167336 
L 561.690602 144.925172 
L 567.227931 168.189249 
L 587.992913 256.386083 
L 592.607354 274.472026 
L 596.70267 289.646397 
L 600.451903 302.706322 
L 603.941574 314.077643 
L 607.229362 324.053987 
L 610.37295 332.895006 
L 613.372336 340.677351 
L 616.256362 347.550214 
L 619.025026 353.583015 
L 621.70717 358.901648 
L 624.302792 363.561908 
L 626.811895 367.619878 
L 629.263316 371.17029 
L 631.657057 374.253485 
L 634.021958 376.939905 
L 635.752373 378.687133 
L 635.781213 378.659537 
L 638.059593 376.633296 
L 640.337973 374.900949 
L 642.616353 373.447121 
L 644.894733 372.255664 
L 647.201954 371.299335 
L 649.566854 370.561724 
L 651.989436 370.040399 
L 654.498538 369.727763 
L 657.151841 369.622659 
L 659.978186 369.73477 
L 663.064093 370.082776 
L 666.524923 370.702643 
L 670.562559 371.659843 
L 675.782645 373.14158 
L 693.634762 378.397984 
L 695.019094 378.638977 
L 699.950777 377.580601 
L 704.622898 376.80309 
L 709.237339 376.260743 
L 713.90946 375.936837 
L 718.783462 375.824585 
L 724.032389 375.930393 
L 729.973481 376.279291 
L 737.443106 376.954287 
L 754.718418 378.607942 
L 763.110932 377.934232 
L 770.551717 377.559472 
L 777.905982 377.412887 
L 785.750531 377.482758 
L 795.065933 377.798321 
L 815.369471 378.574326 
L 827.193975 378.151923 
L 837.518786 378.00748 
L 848.420401 378.083359 
L 862.898208 378.427529 
L 874.001706 378.633706 
L 889.892686 378.326814 
L 903.476445 378.292425 
L 919.800028 378.489709 
L 934.595078 378.628833 
L 953.946888 378.431102 
L 971.568283 378.485035 
L 990.141406 378.687133 
L 990.141406 378.687133 
" clip-path="url(#p9992116c9c)" style="fill: none; stroke: #dc2626; stroke-width: 1.5; stroke-linecap: square"/>
   </g>
   <g id="line2d_33">
    <path d="M 45.103984 378.687133 
L 59.927875 377.361919 
L 67.3975 376.933326 
L 74.030758 376.774147 
L 80.433295 376.843212 
L 87.008872 377.138588 
L 94.334297 377.696863 
L 105.264753 378.569431 
L 118.444749 377.263939 
L 125.654812 376.7825 
L 131.999668 376.579107 
L 138.084961 376.605865 
L 144.256775 376.856949 
L 150.918874 377.354909 
L 159.051825 378.197974 
L 163.752787 378.625427 
L 177.048143 377.155489 
L 183.969804 376.625335 
L 190.055098 376.379246 
L 195.851989 376.366071 
L 201.67772 376.575877 
L 207.878374 377.026019 
L 215.059597 377.77952 
L 222.961827 378.601068 
L 235.305455 377.110695 
L 242.025234 376.532853 
L 247.908646 376.24737 
L 253.503655 376.197109 
L 259.127505 376.370367 
L 265.068597 376.780068 
L 271.874896 377.480694 
L 282.199707 378.577329 
L 292.611039 377.32506 
L 299.157776 376.764066 
L 304.983507 376.486674 
L 310.607357 376.442032 
L 316.404248 376.621859 
L 322.864464 377.051764 
L 332.151026 377.921094 
L 340.716581 378.664134 
L 347.205638 378.261626 
L 352.742967 378.139235 
L 358.078414 378.244706 
L 365.778761 378.440933 
L 369.643355 378.079815 
L 383.77508 376.634338 
L 387.495472 376.553497 
L 390.6679 376.702442 
L 393.494245 377.053863 
L 396.089868 377.596696 
L 398.541289 378.334954 
L 399.666059 378.618926 
L 401.973279 377.580133 
L 404.193979 376.337065 
L 406.385838 374.854501 
L 408.548857 373.122215 
L 410.711876 371.103157 
L 412.874895 368.778903 
L 415.066754 366.094498 
L 417.287454 363.019711 
L 419.565834 359.47703 
L 421.873054 355.47359 
L 424.237955 350.921728 
L 426.689376 345.711988 
L 429.227319 339.781623 
L 431.851782 333.068608 
L 434.562766 325.513439 
L 437.38911 316.970706 
L 440.359657 307.274435 
L 443.503244 296.241014 
L 446.848714 283.675026 
L 450.482586 269.142113 
L 454.520221 252.046378 
L 459.192342 231.252221 
L 465.277635 203.073914 
L 478.457631 141.7592 
L 482.927871 122.215691 
L 486.648263 106.9129 
L 489.936052 94.305729 
L 492.877758 83.877998 
L 495.588742 75.068178 
L 498.069004 67.742244 
L 500.376224 61.602157 
L 502.510403 56.53393 
L 504.50038 52.36085 
L 506.374997 48.934656 
L 508.105412 46.218846 
L 509.720466 44.079475 
L 511.248999 42.412215 
L 512.691012 41.162099 
L 514.046504 40.275431 
L 515.344315 39.690186 
L 516.584446 39.373027 
L 517.795737 39.292174 
L 519.007027 39.437697 
L 520.218318 39.809354 
L 521.458449 40.423483 
L 522.75626 41.318128 
L 524.111752 42.525809 
L 525.553765 44.11429 
L 527.082298 46.135822 
L 528.726193 48.691808 
L 530.456608 51.801475 
L 532.331225 55.643413 
L 534.321202 60.243645 
L 536.455381 65.751727 
L 538.762601 72.343705 
L 541.242863 80.125298 
L 543.925006 89.291709 
L 546.866712 100.16023 
L 550.125661 113.078157 
L 553.817213 128.648441 
L 558.200932 148.141582 
L 564.113184 175.528198 
L 577.29318 236.861005 
L 582.080662 257.886947 
L 586.175978 274.896934 
L 589.86753 289.300515 
L 593.27068 301.702728 
L 596.471948 312.542268 
L 599.500175 322.02157 
L 602.3842 330.329106 
L 605.152864 337.633922 
L 607.806168 344.017015 
L 610.37295 349.621729 
L 612.853212 354.513723 
L 615.275793 358.807048 
L 617.640694 362.550338 
L 619.947914 365.791959 
L 622.226294 368.612668 
L 624.475834 371.045218 
L 626.696533 373.122215 
L 628.917233 374.896946 
L 631.137933 376.390238 
L 633.387472 377.637991 
L 635.694693 378.664542 
L 635.896574 378.631287 
L 638.290315 377.83065 
L 640.799417 377.226506 
L 643.481561 376.811704 
L 646.394427 376.588908 
L 649.682215 376.566166 
L 653.57565 376.771104 
L 658.795735 377.286194 
L 670.274156 378.48286 
L 672.667897 378.462431 
L 682.588944 378.139349 
L 687.982072 378.2592 
L 693.980845 378.621448 
L 695.509378 378.630518 
L 705.199703 377.712404 
L 715.149591 376.842195 
L 721.523287 376.511544 
L 727.262497 376.435169 
L 732.886346 376.583351 
L 738.740918 376.962701 
L 745.374176 377.622628 
L 754.718418 378.577077 
L 766.687123 377.113439 
L 773.291541 376.538215 
L 779.146113 376.249616 
L 784.741122 376.196339 
L 790.364971 376.365895 
L 796.363744 376.773512 
L 803.285405 377.476218 
L 813.783257 378.578819 
L 824.627192 377.288711 
L 831.433492 376.706122 
L 837.461105 376.411242 
L 843.257996 376.350136 
L 849.112567 376.511982 
L 855.370902 376.910818 
L 862.725167 377.611972 
L 872.819256 378.591377 
L 883.836232 377.399505 
L 890.873254 376.863684 
L 897.160429 376.605865 
L 903.245723 376.579107 
L 909.475218 376.776821 
L 916.252677 377.219446 
L 924.674031 378.006069 
L 931.682213 378.622254 
L 943.247154 377.496512 
L 950.601419 377.007527 
L 957.176997 376.791842 
L 963.579533 376.804648 
L 970.212791 377.043001 
L 977.653577 377.539928 
L 987.920707 378.471597 
L 990.141406 378.687133 
L 990.141406 378.687133 
" clip-path="url(#p9992116c9c)" style="fill: none; stroke: #059669; stroke-width: 1.5; stroke-linecap: square"/>
   </g>
   <g id="line2d_34">
    <path d="M 45.103984 378.687133 
L 88.364364 378.605539 
L 118.387068 378.595407 
L 144.7759 378.553503 
L 175.923374 378.560984 
L 198.736014 378.459081 
L 217.078415 378.611346 
L 226.249616 378.625234 
L 251.917441 378.32785 
L 266.337568 378.403496 
L 286.929509 378.559483 
L 304.291341 378.277069 
L 316.058165 378.316118 
L 334.515927 378.66062 
L 342.677718 378.658948 
L 348.388089 378.441307 
L 353.08905 378.045369 
L 357.213206 377.479419 
L 360.962439 376.742691 
L 364.42327 375.837824 
L 367.682218 374.756821 
L 370.768125 373.501076 
L 373.738671 372.054435 
L 376.622697 370.40438 
L 379.449041 368.531897 
L 382.246546 366.409966 
L 385.01521 364.028373 
L 387.783875 361.349081 
L 390.552539 358.355369 
L 393.321203 355.031573 
L 396.118708 351.323234 
L 398.945053 347.20598 
L 401.829078 342.608376 
L 404.770784 337.495746 
L 407.799011 331.777773 
L 410.884918 325.470155 
L 414.086186 318.411555 
L 417.402815 310.547635 
L 420.834805 301.828572 
L 424.439837 292.050223 
L 428.21791 281.150368 
L 432.255545 268.810579 
L 436.639264 254.678699 
L 441.484426 238.289201 
L 447.165956 218.255127 
L 455.010505 189.69915 
L 467.296453 144.991276 
L 472.718421 126.151941 
L 477.18866 111.396275 
L 481.110935 99.19551 
L 484.629445 88.955428 
L 487.859554 80.220655 
L 490.85894 72.739096 
L 493.627605 66.414004 
L 496.223227 61.023072 
L 498.674649 56.435036 
L 500.981869 52.582232 
L 503.144888 49.393917 
L 505.192546 46.763772 
L 507.124843 44.635592 
L 508.970619 42.929124 
L 510.701035 41.622947 
L 512.373769 40.63327 
L 513.988823 39.934327 
L 515.546197 39.500419 
L 517.07473 39.30453 
L 518.574424 39.334104 
L 520.074117 39.583285 
L 521.60265 40.062799 
L 523.160024 40.78466 
L 524.775078 41.780568 
L 526.447813 43.075429 
L 528.207068 44.723448 
L 530.052845 46.763772 
L 531.985141 49.235618 
L 534.032799 52.22239 
L 536.195818 55.777804 
L 538.503039 60.009922 
L 540.95446 64.985557 
L 543.550083 70.767822 
L 546.318747 77.486767 
L 549.318134 85.365337 
L 552.548242 94.490717 
L 556.095593 105.19976 
L 560.017868 117.768759 
L 564.488107 132.863272 
L 569.881234 151.891923 
L 577.725783 180.478459 
L 589.579127 223.613713 
L 595.404859 243.931533 
L 600.336542 260.342652 
L 604.749101 274.271316 
L 608.815576 286.389946 
L 612.65133 297.134631 
L 616.285202 306.663624 
L 619.746032 315.129067 
L 623.091502 322.734903 
L 626.32161 329.53514 
L 629.465198 335.641389 
L 632.522265 341.100162 
L 635.521651 346.004546 
L 638.463357 350.390867 
L 641.347382 354.29621 
L 644.202567 357.79126 
L 647.028912 360.902451 
L 649.826417 363.656593 
L 652.623921 366.104254 
L 655.450266 368.284262 
L 658.305451 370.207176 
L 661.218317 371.900678 
L 664.188863 373.371237 
L 667.27477 374.649443 
L 670.476038 375.734106 
L 673.850348 376.642125 
L 677.455379 377.380945 
L 681.377654 377.95582 
L 685.761372 378.369268 
L 690.837257 378.617578 
L 696.807189 378.68222 
L 705.084342 378.585407 
L 726.45497 378.265526 
L 738.539036 378.363553 
L 758.784894 378.579092 
L 775.39688 378.341629 
L 789.932367 378.364955 
L 810.928072 378.655801 
L 816.551921 378.633779 
L 836.682418 378.458705 
L 855.774666 378.529517 
L 879.683236 378.618205 
L 903.274563 378.54094 
L 990.141406 378.687133 
L 990.141406 378.687133 
" clip-path="url(#p9992116c9c)" style="fill: none; stroke: #f59e0b; stroke-width: 1.5; stroke-linecap: square"/>
   </g>
   <g id="text_18">
    <!-- Figure B.14 — Window spectra comparison, full range ($M = 256$) -->
    <g transform="translate(45.103984 16.32) scale(0.12 -0.12)">
     <defs>
      <path id="DejaVuSans-Oblique-29" d="M 1081 4666 
L 3756 4666 
L 3653 4134 
L 1606 4134 
L 1338 2759 
L 3188 2759 
L 3084 2228 
L 1234 2228 
L 800 0 
L 172 0 
L 1081 4666 
z
" transform="scale(0.015625)"/>
      <path id="DejaVuSans-Oblique-4c" d="M 1172 4863 
L 1747 4863 
L 1606 4134 
L 1031 4134 
L 1172 4863 
z
M 909 3500 
L 1484 3500 
L 800 0 
L 225 0 
L 909 3500 
z
" transform="scale(0.015625)"/>
      <path id="DejaVuSans-Oblique-4a" d="M 3816 3500 
L 3219 434 
Q 3047 -456 2561 -893 
Q 2075 -1331 1253 -1331 
Q 950 -1331 690 -1286 
Q 431 -1241 206 -1147 
L 313 -588 
Q 525 -725 762 -790 
Q 1000 -856 1269 -856 
Q 1816 -856 2167 -557 
Q 2519 -259 2631 300 
L 2681 563 
Q 2441 288 2122 144 
Q 1803 0 1434 0 
Q 903 0 598 351 
Q 294 703 294 1319 
Q 294 1803 478 2267 
Q 663 2731 997 3091 
Q 1219 3328 1514 3456 
Q 1809 3584 2131 3584 
Q 2484 3584 2746 3420 
Q 3009 3256 3138 2956 
L 3238 3500 
L 3816 3500 
z
M 2950 2216 
Q 2950 2641 2750 2872 
Q 2550 3103 2181 3103 
Q 1953 3103 1747 3012 
Q 1541 2922 1394 2759 
Q 1156 2491 1023 2127 
Q 891 1763 891 1375 
Q 891 944 1092 712 
Q 1294 481 1672 481 
Q 2219 481 2584 976 
Q 2950 1472 2950 2216 
z
" transform="scale(0.015625)"/>
      <path id="DejaVuSans-Oblique-58" d="M 428 1388 
L 838 3500 
L 1416 3500 
L 1006 1409 
Q 975 1256 961 1147 
Q 947 1038 947 966 
Q 947 700 1109 554 
Q 1272 409 1569 409 
Q 2031 409 2368 721 
Q 2706 1034 2809 1563 
L 3194 3500 
L 3769 3500 
L 3091 0 
L 2516 0 
L 2631 550 
Q 2388 244 2052 76 
Q 1716 -91 1338 -91 
Q 878 -91 622 161 
Q 366 413 366 863 
Q 366 956 381 1097 
Q 397 1238 428 1388 
z
" transform="scale(0.015625)"/>
      <path id="DejaVuSans-Oblique-55" d="M 2853 2969 
Q 2766 3016 2653 3041 
Q 2541 3066 2413 3066 
Q 1953 3066 1609 2717 
Q 1266 2369 1153 1784 
L 800 0 
L 225 0 
L 909 3500 
L 1484 3500 
L 1375 2956 
Q 1603 3259 1920 3421 
Q 2238 3584 2597 3584 
Q 2691 3584 2781 3573 
Q 2872 3563 2963 3538 
L 2853 2969 
z
" transform="scale(0.015625)"/>
      <path id="DejaVuSans-Oblique-48" d="M 3078 2063 
Q 3088 2113 3092 2166 
Q 3097 2219 3097 2272 
Q 3097 2653 2873 2875 
Q 2650 3097 2266 3097 
Q 1838 3097 1509 2826 
Q 1181 2556 1013 2059 
L 3078 2063 
z
M 3578 1613 
L 903 1613 
Q 884 1494 878 1425 
Q 872 1356 872 1306 
Q 872 872 1139 634 
Q 1406 397 1894 397 
Q 2269 397 2603 481 
Q 2938 566 3225 728 
L 3116 159 
Q 2806 34 2476 -28 
Q 2147 -91 1806 -91 
Q 1078 -91 686 257 
Q 294 606 294 1247 
Q 294 1794 489 2264 
Q 684 2734 1063 3103 
Q 1306 3334 1642 3459 
Q 1978 3584 2356 3584 
Q 2950 3584 3301 3228 
Q 3653 2872 3653 2272 
Q 3653 2128 3634 1964 
Q 3616 1800 3578 1613 
z
" transform="scale(0.015625)"/>
      <path id="DejaVuSans-Oblique-3" transform="scale(0.015625)"/>
      <path id="DejaVuSans-Oblique-25" d="M 1081 4666 
L 2694 4666 
Q 3350 4666 3675 4422 
Q 4000 4178 4000 3688 
Q 4000 3238 3720 2911 
Q 3441 2584 2988 2516 
Q 3375 2428 3569 2181 
Q 3763 1934 3763 1522 
Q 3763 819 3242 409 
Q 2722 0 1819 0 
L 172 0 
L 1081 4666 
z
M 1234 2228 
L 903 519 
L 1919 519 
Q 2491 519 2800 781 
Q 3109 1044 3109 1522 
Q 3109 1891 2904 2059 
Q 2700 2228 2247 2228 
L 1234 2228 
z
M 1606 4147 
L 1331 2741 
L 2272 2741 
Q 2775 2741 3058 2959 
Q 3341 3178 3341 3566 
Q 3341 3869 3150 4008 
Q 2959 4147 2541 4147 
L 1606 4147 
z
" transform="scale(0.015625)"/>
      <path id="DejaVuSans-Oblique-11" d="M 525 794 
L 1184 794 
L 1031 0 
L 372 0 
L 525 794 
z
" transform="scale(0.015625)"/>
      <path id="DejaVuSans-Oblique-14" d="M 416 531 
L 1447 531 
L 2144 4122 
L 978 3897 
L 1088 4441 
L 2247 4666 
L 2881 4666 
L 2075 531 
L 3103 531 
L 3003 0 
L 313 0 
L 416 531 
z
" transform="scale(0.015625)"/>
      <path id="DejaVuSans-Oblique-17" d="M 2753 4666 
L 3547 4666 
L 2950 1625 
L 3616 1625 
L 3513 1100 
L 2847 1100 
L 2638 0 
L 2009 0 
L 2222 1100 
L 116 1100 
L 238 1709 
L 2753 4666 
z
M 2809 4116 
L 728 1625 
L 2322 1625 
L 2809 4116 
z
" transform="scale(0.015625)"/>
      <path id="DejaVuSansDisplay-4" d="M 313 1978 
L 6088 1978 
L 6088 1528 
L 313 1528 
L 313 1978 
z
" transform="scale(0.015625)"/>
      <path id="DejaVuSans-Oblique-3a" d="M 616 4666 
L 1228 4666 
L 1453 697 
L 3213 4666 
L 3916 4666 
L 4147 697 
L 5888 4666 
L 6528 4666 
L 4453 0 
L 3659 0 
L 3444 3891 
L 1697 0 
L 903 0 
L 616 4666 
z
" transform="scale(0.015625)"/>
      <path id="DejaVuSans-Oblique-51" d="M 3566 2113 
L 3156 0 
L 2578 0 
L 2988 2091 
Q 3016 2238 3031 2350 
Q 3047 2463 3047 2528 
Q 3047 2791 2881 2937 
Q 2716 3084 2419 3084 
Q 1956 3084 1622 2776 
Q 1288 2469 1184 1941 
L 800 0 
L 225 0 
L 903 3500 
L 1478 3500 
L 1363 2950 
Q 1603 3253 1940 3418 
Q 2278 3584 2650 3584 
Q 3113 3584 3367 3334 
Q 3622 3084 3622 2631 
Q 3622 2519 3608 2391 
Q 3594 2263 3566 2113 
z
" transform="scale(0.015625)"/>
      <path id="DejaVuSans-Oblique-47" d="M 2675 525 
Q 2444 222 2128 65 
Q 1813 -91 1428 -91 
Q 903 -91 598 267 
Q 294 625 294 1247 
Q 294 1766 478 2236 
Q 663 2706 1013 3078 
Q 1244 3325 1534 3454 
Q 1825 3584 2144 3584 
Q 2481 3584 2739 3421 
Q 2997 3259 3138 2956 
L 3513 4863 
L 4091 4863 
L 3144 0 
L 2566 0 
L 2675 525 
z
M 891 1350 
Q 891 897 1095 644 
Q 1300 391 1663 391 
Q 1931 391 2161 520 
Q 2391 650 2566 903 
Q 2750 1166 2856 1509 
Q 2963 1853 2963 2188 
Q 2963 2622 2758 2865 
Q 2553 3109 2194 3109 
Q 1922 3109 1687 2981 
Q 1453 2853 1288 2613 
Q 1106 2353 998 2009 
Q 891 1666 891 1350 
z
" transform="scale(0.015625)"/>
      <path id="DejaVuSans-Oblique-52" d="M 1625 -91 
Q 1009 -91 651 289 
Q 294 669 294 1325 
Q 294 1706 417 2101 
Q 541 2497 738 2766 
Q 1047 3184 1428 3384 
Q 1809 3584 2291 3584 
Q 2888 3584 3255 3212 
Q 3622 2841 3622 2241 
Q 3622 1825 3500 1412 
Q 3378 1000 3181 728 
Q 2875 309 2494 109 
Q 2113 -91 1625 -91 
z
M 891 1344 
Q 891 869 1089 633 
Q 1288 397 1691 397 
Q 2269 397 2648 901 
Q 3028 1406 3028 2181 
Q 3028 2634 2825 2865 
Q 2622 3097 2228 3097 
Q 1903 3097 1650 2945 
Q 1397 2794 1197 2484 
Q 1050 2253 970 1956 
Q 891 1659 891 1344 
z
" transform="scale(0.015625)"/>
      <path id="DejaVuSans-Oblique-5a" d="M 544 3500 
L 1113 3500 
L 1259 684 
L 2566 3500 
L 3231 3500 
L 3425 684 
L 4666 3500 
L 5241 3500 
L 3641 0 
L 2969 0 
L 2797 2900 
L 1459 0 
L 781 0 
L 544 3500 
z
" transform="scale(0.015625)"/>
      <path id="DejaVuSans-Oblique-56" d="M 3200 3397 
L 3091 2853 
Q 2863 2978 2609 3040 
Q 2356 3103 2088 3103 
Q 1634 3103 1373 2948 
Q 1113 2794 1113 2528 
Q 1113 2219 1719 2053 
Q 1766 2041 1788 2034 
L 1972 1978 
Q 2547 1819 2739 1644 
Q 2931 1469 2931 1166 
Q 2931 609 2489 259 
Q 2047 -91 1331 -91 
Q 1053 -91 747 -37 
Q 441 16 72 128 
L 184 722 
Q 500 559 806 475 
Q 1113 391 1394 391 
Q 1816 391 2080 572 
Q 2344 753 2344 1031 
Q 2344 1331 1650 1516 
L 1591 1531 
L 1394 1581 
Q 956 1697 753 1886 
Q 550 2075 550 2369 
Q 550 2928 970 3256 
Q 1391 3584 2113 3584 
Q 2397 3584 2667 3537 
Q 2938 3491 3200 3397 
z
" transform="scale(0.015625)"/>
      <path id="DejaVuSans-Oblique-53" d="M 3175 2156 
Q 3175 2616 2975 2859 
Q 2775 3103 2400 3103 
Q 2144 3103 1911 2972 
Q 1678 2841 1497 2591 
Q 1319 2344 1212 1994 
Q 1106 1644 1106 1300 
Q 1106 863 1306 627 
Q 1506 391 1875 391 
Q 2147 391 2380 519 
Q 2613 647 2778 891 
Q 2956 1147 3065 1494 
Q 3175 1841 3175 2156 
z
M 1394 2969 
Q 1625 3272 1939 3428 
Q 2253 3584 2638 3584 
Q 3175 3584 3472 3232 
Q 3769 2881 3769 2247 
Q 3769 1728 3584 1258 
Q 3400 788 3053 416 
Q 2822 169 2531 39 
Q 2241 -91 1919 -91 
Q 1547 -91 1294 64 
Q 1041 219 916 525 
L 556 -1331 
L -19 -1331 
L 922 3500 
L 1497 3500 
L 1394 2969 
z
" transform="scale(0.015625)"/>
      <path id="DejaVuSans-Oblique-46" d="M 3431 3366 
L 3316 2797 
Q 3109 2947 2876 3022 
Q 2644 3097 2394 3097 
Q 2119 3097 1870 3000 
Q 1622 2903 1453 2725 
Q 1184 2453 1037 2087 
Q 891 1722 891 1331 
Q 891 859 1127 628 
Q 1363 397 1844 397 
Q 2081 397 2348 469 
Q 2616 541 2906 684 
L 2797 116 
Q 2547 13 2283 -39 
Q 2019 -91 1741 -91 
Q 1044 -91 669 257 
Q 294 606 294 1253 
Q 294 1797 489 2255 
Q 684 2713 1069 3078 
Q 1331 3328 1684 3456 
Q 2038 3584 2456 3584 
Q 2700 3584 2940 3529 
Q 3181 3475 3431 3366 
z
" transform="scale(0.015625)"/>
      <path id="DejaVuSans-Oblique-57" d="M 2706 3500 
L 2619 3053 
L 1472 3053 
L 1100 1153 
Q 1081 1047 1072 975 
Q 1063 903 1063 863 
Q 1063 663 1183 572 
Q 1303 481 1569 481 
L 2150 481 
L 2053 0 
L 1503 0 
Q 991 0 739 200 
Q 488 400 488 806 
Q 488 878 497 964 
Q 506 1050 525 1153 
L 897 3053 
L 409 3053 
L 500 3500 
L 978 3500 
L 1172 4494 
L 1747 4494 
L 1556 3500 
L 2706 3500 
z
" transform="scale(0.015625)"/>
      <path id="DejaVuSans-Oblique-44" d="M 3438 1997 
L 3047 0 
L 2472 0 
L 2578 531 
Q 2325 219 2001 64 
Q 1678 -91 1281 -91 
Q 834 -91 548 182 
Q 263 456 263 884 
Q 263 1497 752 1853 
Q 1241 2209 2100 2209 
L 2900 2209 
L 2931 2363 
Q 2938 2388 2941 2417 
Q 2944 2447 2944 2509 
Q 2944 2788 2717 2942 
Q 2491 3097 2081 3097 
Q 1800 3097 1504 3025 
Q 1209 2953 897 2809 
L 997 3341 
Q 1322 3463 1633 3523 
Q 1944 3584 2234 3584 
Q 2853 3584 3176 3315 
Q 3500 3047 3500 2534 
Q 3500 2431 3484 2292 
Q 3469 2153 3438 1997 
z
M 2816 1759 
L 2241 1759 
Q 1534 1759 1195 1570 
Q 856 1381 856 984 
Q 856 709 1029 553 
Q 1203 397 1509 397 
Q 1978 397 2328 733 
Q 2678 1069 2791 1631 
L 2816 1759 
z
" transform="scale(0.015625)"/>
      <path id="DejaVuSans-Oblique-50" d="M 5747 2113 
L 5338 0 
L 4763 0 
L 5166 2094 
Q 5191 2228 5203 2325 
Q 5216 2422 5216 2491 
Q 5216 2772 5059 2928 
Q 4903 3084 4622 3084 
Q 4203 3084 3875 2770 
Q 3547 2456 3450 1953 
L 3066 0 
L 2491 0 
L 2900 2094 
Q 2925 2209 2937 2307 
Q 2950 2406 2950 2484 
Q 2950 2769 2794 2926 
Q 2638 3084 2363 3084 
Q 1938 3084 1609 2770 
Q 1281 2456 1184 1953 
L 800 0 
L 225 0 
L 909 3500 
L 1484 3500 
L 1375 2956 
Q 1609 3263 1923 3423 
Q 2238 3584 2597 3584 
Q 2978 3584 3223 3384 
Q 3469 3184 3519 2828 
Q 3781 3197 4126 3390 
Q 4472 3584 4856 3584 
Q 5306 3584 5551 3325 
Q 5797 3066 5797 2591 
Q 5797 2488 5784 2364 
Q 5772 2241 5747 2113 
z
" transform="scale(0.015625)"/>
      <path id="DejaVuSans-Oblique-f" d="M 575 794 
L 1234 794 
L 1131 256 
L 422 -744 
L 19 -744 
L 469 256 
L 575 794 
z
" transform="scale(0.015625)"/>
      <path id="DejaVuSans-Oblique-49" d="M 3059 4863 
L 2969 4384 
L 2419 4384 
Q 2106 4384 1964 4261 
Q 1822 4138 1753 3809 
L 1691 3500 
L 2638 3500 
L 2553 3053 
L 1606 3053 
L 1013 0 
L 434 0 
L 1031 3053 
L 481 3053 
L 563 3500 
L 1113 3500 
L 1159 3744 
Q 1278 4363 1576 4613 
Q 1875 4863 2516 4863 
L 3059 4863 
z
" transform="scale(0.015625)"/>
      <path id="DejaVuSans-Oblique-4f" d="M 1172 4863 
L 1747 4863 
L 800 0 
L 225 0 
L 1172 4863 
z
" transform="scale(0.015625)"/>
      <path id="DejaVuSans-Oblique-b" d="M 2731 4856 
Q 1903 3822 1495 2892 
Q 1088 1963 1088 1100 
Q 1088 606 1206 120 
Q 1325 -366 1563 -844 
L 1063 -844 
Q 775 -306 634 201 
Q 494 709 494 1197 
Q 494 2125 923 3036 
Q 1353 3947 2222 4856 
L 2731 4856 
z
" transform="scale(0.015625)"/>
      <path id="DejaVuSans-Oblique-30" d="M 1081 4666 
L 2028 4666 
L 2572 1522 
L 4378 4666 
L 5350 4666 
L 4441 0 
L 3828 0 
L 4622 4091 
L 2791 897 
L 2175 897 
L 1581 4103 
L 788 0 
L 172 0 
L 1081 4666 
z
" transform="scale(0.015625)"/>
      <path id="DejaVuSans-20" d="M 678 2906 
L 4684 2906 
L 4684 2381 
L 678 2381 
L 678 2906 
z
M 678 1631 
L 4684 1631 
L 4684 1100 
L 678 1100 
L 678 1631 
z
" transform="scale(0.015625)"/>
      <path id="DejaVuSans-18" d="M 691 4666 
L 3169 4666 
L 3169 4134 
L 1269 4134 
L 1269 2991 
Q 1406 3038 1543 3061 
Q 1681 3084 1819 3084 
Q 2600 3084 3056 2656 
Q 3513 2228 3513 1497 
Q 3513 744 3044 326 
Q 2575 -91 1722 -91 
Q 1428 -91 1123 -41 
Q 819 9 494 109 
L 494 744 
Q 775 591 1075 516 
Q 1375 441 1709 441 
Q 2250 441 2565 725 
Q 2881 1009 2881 1497 
Q 2881 1984 2565 2268 
Q 2250 2553 1709 2553 
Q 1456 2553 1204 2497 
Q 953 2441 691 2322 
L 691 4666 
z
" transform="scale(0.015625)"/>
      <path id="DejaVuSans-Oblique-c" d="M -397 -844 
Q 434 191 840 1120 
Q 1247 2050 1247 2913 
Q 1247 3406 1130 3892 
Q 1013 4378 775 4856 
L 1275 4856 
Q 1563 4316 1703 3812 
Q 1844 3309 1844 2822 
Q 1844 1891 1411 973 
Q 978 56 116 -844 
L -397 -844 
z
" transform="scale(0.015625)"/>
     </defs>
     <use xlink:href="#DejaVuSans-Oblique-29" transform="translate(0 0.015625)"/>
     <use xlink:href="#DejaVuSans-Oblique-4c" transform="translate(57.519531 0.015625)"/>
     <use xlink:href="#DejaVuSans-Oblique-4a" transform="translate(85.302734 0.015625)"/>
     <use xlink:href="#DejaVuSans-Oblique-58" transform="translate(148.779297 0.015625)"/>
     <use xlink:href="#DejaVuSans-Oblique-55" transform="translate(212.158203 0.015625)"/>
     <use xlink:href="#DejaVuSans-Oblique-48" transform="translate(253.271484 0.015625)"/>
     <use xlink:href="#DejaVuSans-Oblique-3" transform="translate(314.794922 0.015625)"/>
     <use xlink:href="#DejaVuSans-Oblique-25" transform="translate(346.582031 0.015625)"/>
     <use xlink:href="#DejaVuSans-Oblique-11" transform="translate(415.185547 0.015625)"/>
     <use xlink:href="#DejaVuSans-Oblique-14" transform="translate(446.972656 0.015625)"/>
     <use xlink:href="#DejaVuSans-Oblique-17" transform="translate(510.595703 0.015625)"/>
     <use xlink:href="#DejaVuSans-Oblique-3" transform="translate(574.21875 0.015625)"/>
     <use xlink:href="#DejaVuSansDisplay-4" transform="translate(606.005859 0.015625)"/>
     <use xlink:href="#DejaVuSans-Oblique-3" transform="translate(706.005859 0.015625)"/>
     <use xlink:href="#DejaVuSans-Oblique-3a" transform="translate(737.792969 0.015625)"/>
     <use xlink:href="#DejaVuSans-Oblique-4c" transform="translate(836.669922 0.015625)"/>
     <use xlink:href="#DejaVuSans-Oblique-51" transform="translate(864.453125 0.015625)"/>
     <use xlink:href="#DejaVuSans-Oblique-47" transform="translate(927.832031 0.015625)"/>
     <use xlink:href="#DejaVuSans-Oblique-52" transform="translate(991.308594 0.015625)"/>
     <use xlink:href="#DejaVuSans-Oblique-5a" transform="translate(1052.490234 0.015625)"/>
     <use xlink:href="#DejaVuSans-Oblique-3" transform="translate(1134.277344 0.015625)"/>
     <use xlink:href="#DejaVuSans-Oblique-56" transform="translate(1166.064453 0.015625)"/>
     <use xlink:href="#DejaVuSans-Oblique-53" transform="translate(1218.164062 0.015625)"/>
     <use xlink:href="#DejaVuSans-Oblique-48" transform="translate(1281.640625 0.015625)"/>
     <use xlink:href="#DejaVuSans-Oblique-46" transform="translate(1343.164062 0.015625)"/>
     <use xlink:href="#DejaVuSans-Oblique-57" transform="translate(1398.144531 0.015625)"/>
     <use xlink:href="#DejaVuSans-Oblique-55" transform="translate(1437.353516 0.015625)"/>
     <use xlink:href="#DejaVuSans-Oblique-44" transform="translate(1478.466797 0.015625)"/>
     <use xlink:href="#DejaVuSans-Oblique-3" transform="translate(1539.746094 0.015625)"/>
     <use xlink:href="#DejaVuSans-Oblique-46" transform="translate(1571.533203 0.015625)"/>
     <use xlink:href="#DejaVuSans-Oblique-52" transform="translate(1626.513672 0.015625)"/>
     <use xlink:href="#DejaVuSans-Oblique-50" transform="translate(1687.695312 0.015625)"/>
     <use xlink:href="#DejaVuSans-Oblique-53" transform="translate(1785.107422 0.015625)"/>
     <use xlink:href="#DejaVuSans-Oblique-44" transform="translate(1848.583984 0.015625)"/>
     <use xlink:href="#DejaVuSans-Oblique-55" transform="translate(1909.863281 0.015625)"/>
     <use xlink:href="#DejaVuSans-Oblique-4c" transform="translate(1950.976562 0.015625)"/>
     <use xlink:href="#DejaVuSans-Oblique-56" transform="translate(1978.759766 0.015625)"/>
     <use xlink:href="#DejaVuSans-Oblique-52" transform="translate(2030.859375 0.015625)"/>
     <use xlink:href="#DejaVuSans-Oblique-51" transform="translate(2092.041016 0.015625)"/>
     <use xlink:href="#DejaVuSans-Oblique-f" transform="translate(2155.419922 0.015625)"/>
     <use xlink:href="#DejaVuSans-Oblique-3" transform="translate(2187.207031 0.015625)"/>
     <use xlink:href="#DejaVuSans-Oblique-49" transform="translate(2218.994141 0.015625)"/>
     <use xlink:href="#DejaVuSans-Oblique-58" transform="translate(2254.199219 0.015625)"/>
     <use xlink:href="#DejaVuSans-Oblique-4f" transform="translate(2317.578125 0.015625)"/>
     <use xlink:href="#DejaVuSans-Oblique-4f" transform="translate(2345.361328 0.015625)"/>
     <use xlink:href="#DejaVuSans-Oblique-3" transform="translate(2373.144531 0.015625)"/>
     <use xlink:href="#DejaVuSans-Oblique-55" transform="translate(2404.931641 0.015625)"/>
     <use xlink:href="#DejaVuSans-Oblique-44" transform="translate(2446.044922 0.015625)"/>
     <use xlink:href="#DejaVuSans-Oblique-51" transform="translate(2507.324219 0.015625)"/>
     <use xlink:href="#DejaVuSans-Oblique-4a" transform="translate(2570.703125 0.015625)"/>
     <use xlink:href="#DejaVuSans-Oblique-48" transform="translate(2634.179688 0.015625)"/>
     <use xlink:href="#DejaVuSans-Oblique-3" transform="translate(2695.703125 0.015625)"/>
     <use xlink:href="#DejaVuSans-Oblique-b" transform="translate(2727.490234 0.015625)"/>
     <use xlink:href="#DejaVuSans-Oblique-30" transform="translate(2766.503906 0.015625)"/>
     <use xlink:href="#DejaVuSans-20" transform="translate(2872.265625 0.015625)"/>
     <use xlink:href="#DejaVuSans-15" transform="translate(2975.537109 0.015625)"/>
     <use xlink:href="#DejaVuSans-18" transform="translate(3039.160156 0.015625)"/>
     <use xlink:href="#DejaVuSans-19" transform="translate(3102.783203 0.015625)"/>
     <use xlink:href="#DejaVuSans-Oblique-c" transform="translate(3166.40625 0.015625)"/>
    </g>
   </g>
   <g id="legend_1">
    <g id="patch_5">
     <path d="M 858.796094 90.573125 
L 983.141406 90.573125 
Q 985.141406 90.573125 985.141406 88.573125 
L 985.141406 29.32 
Q 985.141406 27.32 983.141406 27.32 
L 858.796094 27.32 
Q 856.796094 27.32 856.796094 29.32 
L 856.796094 88.573125 
Q 856.796094 90.573125 858.796094 90.573125 
z
" style="fill: #ffffff; opacity: 0.8; stroke: #cccccc; stroke-linejoin: miter"/>
    </g>
    <g id="line2d_35">
     <path d="M 860.796094 35.480937 
L 870.796094 35.480937 
L 880.796094 35.480937 
" style="fill: none; stroke: #2563eb; stroke-width: 1.5; stroke-linecap: square"/>
    </g>
    <g id="text_19">
     <!-- Rectangular (β=1) -->
     <g transform="translate(888.796094 38.980937) scale(0.1 -0.1)">
      <defs>
       <path id="DejaVuSans-35" d="M 2841 2188 
Q 3044 2119 3236 1894 
Q 3428 1669 3622 1275 
L 4263 0 
L 3584 0 
L 2988 1197 
Q 2756 1666 2539 1819 
Q 2322 1972 1947 1972 
L 1259 1972 
L 1259 0 
L 628 0 
L 628 4666 
L 2053 4666 
Q 2853 4666 3247 4331 
Q 3641 3997 3641 3322 
Q 3641 2881 3436 2590 
Q 3231 2300 2841 2188 
z
M 1259 4147 
L 1259 2491 
L 2053 2491 
Q 2509 2491 2742 2702 
Q 2975 2913 2975 3322 
Q 2975 3731 2742 3939 
Q 2509 4147 2053 4147 
L 1259 4147 
z
" transform="scale(0.015625)"/>
       <path id="DejaVuSans-346" d="M 1178 216 
L 1178 -1331 
L 600 -1331 
L 600 3478 
Q 600 4903 1931 4903 
Q 3288 4903 3288 3700 
Q 3288 2844 2750 2531 
Q 3625 2250 3625 1416 
Q 3625 -66 2119 -66 
Q 1456 -66 1178 216 
z
M 1178 966 
Q 1525 425 2141 425 
Q 3041 425 3041 1406 
Q 3041 2288 1591 2219 
L 1591 2750 
Q 2725 2750 2725 3750 
Q 2725 4434 1994 4434 
Q 1178 4434 1178 3459 
L 1178 966 
z
" transform="scale(0.015625)"/>
      </defs>
      <use xlink:href="#DejaVuSans-35"/>
      <use xlink:href="#DejaVuSans-48" transform="translate(65 0)"/>
      <use xlink:href="#DejaVuSans-46" transform="translate(126.53125 0)"/>
      <use xlink:href="#DejaVuSans-57" transform="translate(181.515625 0)"/>
      <use xlink:href="#DejaVuSans-44" transform="translate(220.71875 0)"/>
      <use xlink:href="#DejaVuSans-51" transform="translate(282 0)"/>
      <use xlink:href="#DejaVuSans-4a" transform="translate(345.375 0)"/>
      <use xlink:href="#DejaVuSans-58" transform="translate(408.859375 0)"/>
      <use xlink:href="#DejaVuSans-4f" transform="translate(472.234375 0)"/>
      <use xlink:href="#DejaVuSans-44" transform="translate(500.015625 0)"/>
      <use xlink:href="#DejaVuSans-55" transform="translate(561.296875 0)"/>
      <use xlink:href="#DejaVuSans-3" transform="translate(602.40625 0)"/>
      <use xlink:href="#DejaVuSans-b" transform="translate(634.1875 0)"/>
      <use xlink:href="#DejaVuSans-346" transform="translate(673.203125 0)"/>
      <use xlink:href="#DejaVuSans-20" transform="translate(737.015625 0)"/>
      <use xlink:href="#DejaVuSans-14" transform="translate(820.8125 0)"/>
      <use xlink:href="#DejaVuSans-c" transform="translate(884.4375 0)"/>
     </g>
    </g>
    <g id="line2d_36">
     <path d="M 860.796094 50.544219 
L 870.796094 50.544219 
L 880.796094 50.544219 
" style="fill: none; stroke: #dc2626; stroke-width: 1.5; stroke-linecap: square"/>
    </g>
    <g id="text_20">
     <!-- Hann (β=2) -->
     <g transform="translate(888.796094 54.044219) scale(0.1 -0.1)">
      <defs>
       <path id="DejaVuSans-2b" d="M 628 4666 
L 1259 4666 
L 1259 2753 
L 3553 2753 
L 3553 4666 
L 4184 4666 
L 4184 0 
L 3553 0 
L 3553 2222 
L 1259 2222 
L 1259 0 
L 628 0 
L 628 4666 
z
" transform="scale(0.015625)"/>
      </defs>
      <use xlink:href="#DejaVuSans-2b"/>
      <use xlink:href="#DejaVuSans-44" transform="translate(75.203125 0)"/>
      <use xlink:href="#DejaVuSans-51" transform="translate(136.484375 0)"/>
      <use xlink:href="#DejaVuSans-51" transform="translate(199.859375 0)"/>
      <use xlink:href="#DejaVuSans-3" transform="translate(263.234375 0)"/>
      <use xlink:href="#DejaVuSans-b" transform="translate(295.015625 0)"/>
      <use xlink:href="#DejaVuSans-346" transform="translate(334.03125 0)"/>
      <use xlink:href="#DejaVuSans-20" transform="translate(397.84375 0)"/>
      <use xlink:href="#DejaVuSans-15" transform="translate(481.640625 0)"/>
      <use xlink:href="#DejaVuSans-c" transform="translate(545.265625 0)"/>
     </g>
    </g>
    <g id="line2d_37">
     <path d="M 860.796094 65.6075 
L 870.796094 65.6075 
L 880.796094 65.6075 
" style="fill: none; stroke: #059669; stroke-width: 1.5; stroke-linecap: square"/>
    </g>
    <g id="text_21">
     <!-- Hamming (β=2) -->
     <g transform="translate(888.796094 69.1075) scale(0.1 -0.1)">
      <use xlink:href="#DejaVuSans-2b"/>
      <use xlink:href="#DejaVuSans-44" transform="translate(75.203125 0)"/>
      <use xlink:href="#DejaVuSans-50" transform="translate(136.484375 0)"/>
      <use xlink:href="#DejaVuSans-50" transform="translate(233.890625 0)"/>
      <use xlink:href="#DejaVuSans-4c" transform="translate(331.296875 0)"/>
      <use xlink:href="#DejaVuSans-51" transform="translate(359.078125 0)"/>
      <use xlink:href="#DejaVuSans-4a" transform="translate(422.453125 0)"/>
      <use xlink:href="#DejaVuSans-3" transform="translate(485.9375 0)"/>
      <use xlink:href="#DejaVuSans-b" transform="translate(517.71875 0)"/>
      <use xlink:href="#DejaVuSans-346" transform="translate(556.734375 0)"/>
      <use xlink:href="#DejaVuSans-20" transform="translate(620.546875 0)"/>
      <use xlink:href="#DejaVuSans-15" transform="translate(704.34375 0)"/>
      <use xlink:href="#DejaVuSans-c" transform="translate(767.96875 0)"/>
     </g>
    </g>
    <g id="line2d_38">
     <path d="M 860.796094 80.670781 
L 870.796094 80.670781 
L 880.796094 80.670781 
" style="fill: none; stroke: #f59e0b; stroke-width: 1.5; stroke-linecap: square"/>
    </g>
    <g id="text_22">
     <!-- Blackman (β=3) -->
     <g transform="translate(888.796094 84.170781) scale(0.1 -0.1)">
      <defs>
       <path id="DejaVuSans-25" d="M 1259 2228 
L 1259 519 
L 2272 519 
Q 2781 519 3026 730 
Q 3272 941 3272 1375 
Q 3272 1813 3026 2020 
Q 2781 2228 2272 2228 
L 1259 2228 
z
M 1259 4147 
L 1259 2741 
L 2194 2741 
Q 2656 2741 2882 2914 
Q 3109 3088 3109 3444 
Q 3109 3797 2882 3972 
Q 2656 4147 2194 4147 
L 1259 4147 
z
M 628 4666 
L 2241 4666 
Q 2963 4666 3353 4366 
Q 3744 4066 3744 3513 
Q 3744 3084 3544 2831 
Q 3344 2578 2956 2516 
Q 3422 2416 3680 2098 
Q 3938 1781 3938 1306 
Q 3938 681 3513 340 
Q 3088 0 2303 0 
L 628 0 
L 628 4666 
z
" transform="scale(0.015625)"/>
       <path id="DejaVuSans-4e" d="M 581 4863 
L 1159 4863 
L 1159 1991 
L 2875 3500 
L 3609 3500 
L 1753 1863 
L 3688 0 
L 2938 0 
L 1159 1709 
L 1159 0 
L 581 0 
L 581 4863 
z
" transform="scale(0.015625)"/>
       <path id="DejaVuSans-16" d="M 2597 2516 
Q 3050 2419 3304 2112 
Q 3559 1806 3559 1356 
Q 3559 666 3084 287 
Q 2609 -91 1734 -91 
Q 1441 -91 1130 -33 
Q 819 25 488 141 
L 488 750 
Q 750 597 1062 519 
Q 1375 441 1716 441 
Q 2309 441 2620 675 
Q 2931 909 2931 1356 
Q 2931 1769 2642 2001 
Q 2353 2234 1838 2234 
L 1294 2234 
L 1294 2753 
L 1863 2753 
Q 2328 2753 2575 2939 
Q 2822 3125 2822 3475 
Q 2822 3834 2567 4026 
Q 2313 4219 1838 4219 
Q 1578 4219 1281 4162 
Q 984 4106 628 3988 
L 628 4550 
Q 988 4650 1302 4700 
Q 1616 4750 1894 4750 
Q 2613 4750 3031 4423 
Q 3450 4097 3450 3541 
Q 3450 3153 3228 2886 
Q 3006 2619 2597 2516 
z
" transform="scale(0.015625)"/>
      </defs>
      <use xlink:href="#DejaVuSans-25"/>
      <use xlink:href="#DejaVuSans-4f" transform="translate(68.609375 0)"/>
      <use xlink:href="#DejaVuSans-44" transform="translate(96.390625 0)"/>
      <use xlink:href="#DejaVuSans-46" transform="translate(157.671875 0)"/>
      <use xlink:href="#DejaVuSans-4e" transform="translate(212.65625 0)"/>
      <use xlink:href="#DejaVuSans-50" transform="translate(270.5625 0)"/>
      <use xlink:href="#DejaVuSans-44" transform="translate(367.96875 0)"/>
      <use xlink:href="#DejaVuSans-51" transform="translate(429.25 0)"/>
      <use xlink:href="#DejaVuSans-3" transform="translate(492.625 0)"/>
      <use xlink:href="#DejaVuSans-b" transform="translate(524.40625 0)"/>
      <use xlink:href="#DejaVuSans-346" transform="translate(563.421875 0)"/>
      <use xlink:href="#DejaVuSans-20" transform="translate(627.234375 0)"/>
      <use xlink:href="#DejaVuSans-16" transform="translate(711.03125 0)"/>
      <use xlink:href="#DejaVuSans-c" transform="translate(774.65625 0)"/>
     </g>
    </g>
   </g>
  </g>
 </g>
 <defs>
  <clipPath id="p9992116c9c">
   <rect x="45.103984" y="22.32" width="945.037422" height="363.155078"/>
  </clipPath>
 </defs>
</svg>
