<?xml version="1.0" encoding="utf-8" standalone="no"?>
<!DOCTYPE svg PUBLIC "-//W3C//DTD SVG 1.1//EN"
  "http://www.w3.org/Graphics/SVG/1.1/DTD/svg11.dtd">
<svg xmlns:xlink="http://www.w3.org/1999/xlink" width="1000.434219pt" height="352.675937pt" viewBox="0 0 1000.434219 352.675937" xmlns="http://www.w3.org/2000/svg" version="1.1">
 <metadata>
  <rdf:RDF xmlns:dc="http://purl.org/dc/elements/1.1/" xmlns:cc="http://creativecommons.org/ns#" xmlns:rdf="http://www.w3.org/1999/02/22-rdf-syntax-ns#">
   <cc:Work>
    <dc:type rdf:resource="http://purl.org/dc/dcmitype/StillImage"/>
    <dc:date>2026-06-20T19:08:26.174690</dc:date>
    <dc:format>image/svg+xml</dc:format>
    <dc:creator>
     <cc:Agent>
      <dc:title>Matplotlib v3.11.0, https://matplotlib.org/</dc:title>
     </cc:Agent>
    </dc:creator>
   </cc:Work>
  </rdf:RDF>
 </metadata>
 <defs>
  <style type="text/css">*{stroke-linejoin: round; stroke-linecap: butt}</style>
 </defs>
 <g id="figure_1">
  <g id="patch_1">
   <path d="M 0 352.675937 
L 1000.434219 352.675937 
L 1000.434219 0 
L 0 0 
z
" style="fill: #ffffff"/>
  </g>
  <g id="axes_1">
   <g id="patch_2">
    <path d="M 45.103984 313.475078 
L 982.101406 313.475078 
L 982.101406 22.32 
L 45.103984 22.32 
z
" style="fill: #ffffff"/>
   </g>
   <g id="matplotlib.axis_1">
    <g id="xtick_1">
     <g id="line2d_1">
      <path d="M 45.103984 313.475078 
L 45.103984 22.32 
" clip-path="url(#p6db6509d2b)" style="fill: none; stroke: #b0b0b0; stroke-opacity: 0.15; stroke-width: 0.8; stroke-linecap: square"/>
     </g>
     <g id="line2d_2">
      <defs>
       <path id="m9d7beb0079" d="M 0 0 
L 0 3.5 
" style="stroke: #000000; stroke-width: 0.8"/>
      </defs>
      <g>
       <use xlink:href="#m9d7beb0079" x="45.103984" y="313.475078" style="stroke: #000000; stroke-width: 0.8"/>
      </g>
     </g>
     <g id="text_1">
      <!-- −10.0 -->
      <g transform="translate(29.781328 328.072734) scale(0.1 -0.1)">
       <defs>
        <path id="DejaVuSans-c9c" d="M 678 2272 
L 4684 2272 
L 4684 1741 
L 678 1741 
L 678 2272 
z
" transform="scale(0.015625)"/>
        <path id="DejaVuSans-14" d="M 794 531 
L 1825 531 
L 1825 4091 
L 703 3866 
L 703 4441 
L 1819 4666 
L 2450 4666 
L 2450 531 
L 3481 531 
L 3481 0 
L 794 0 
L 794 531 
z
" transform="scale(0.015625)"/>
        <path id="DejaVuSans-13" d="M 2034 4250 
Q 1547 4250 1301 3770 
Q 1056 3291 1056 2328 
Q 1056 1369 1301 889 
Q 1547 409 2034 409 
Q 2525 409 2770 889 
Q 3016 1369 3016 2328 
Q 3016 3291 2770 3770 
Q 2525 4250 2034 4250 
z
M 2034 4750 
Q 2819 4750 3233 4129 
Q 3647 3509 3647 2328 
Q 3647 1150 3233 529 
Q 2819 -91 2034 -91 
Q 1250 -91 836 529 
Q 422 1150 422 2328 
Q 422 3509 836 4129 
Q 1250 4750 2034 4750 
z
" transform="scale(0.015625)"/>
        <path id="DejaVuSans-11" d="M 684 794 
L 1344 794 
L 1344 0 
L 684 0 
L 684 794 
z
" transform="scale(0.015625)"/>
       </defs>
       <use xlink:href="#DejaVuSans-c9c"/>
       <use xlink:href="#DejaVuSans-14" transform="translate(83.796875 0)"/>
       <use xlink:href="#DejaVuSans-13" transform="translate(147.421875 0)"/>
       <use xlink:href="#DejaVuSans-11" transform="translate(211.046875 0)"/>
       <use xlink:href="#DejaVuSans-13" transform="translate(242.828125 0)"/>
      </g>
     </g>
    </g>
    <g id="xtick_2">
     <g id="line2d_3">
      <path d="M 162.228662 313.475078 
L 162.228662 22.32 
" clip-path="url(#p6db6509d2b)" style="fill: none; stroke: #b0b0b0; stroke-opacity: 0.15; stroke-width: 0.8; stroke-linecap: square"/>
     </g>
     <g id="line2d_4">
      <g>
       <use xlink:href="#m9d7beb0079" x="162.228662" y="313.475078" style="stroke: #000000; stroke-width: 0.8"/>
      </g>
     </g>
     <g id="text_2">
      <!-- −7.5 -->
      <g transform="translate(150.087256 328.072734) scale(0.1 -0.1)">
       <defs>
        <path id="DejaVuSans-1a" d="M 525 4666 
L 3525 4666 
L 3525 4397 
L 1831 0 
L 1172 0 
L 2766 4134 
L 525 4134 
L 525 4666 
z
" transform="scale(0.015625)"/>
        <path id="DejaVuSans-18" d="M 691 4666 
L 3169 4666 
L 3169 4134 
L 1269 4134 
L 1269 2991 
Q 1406 3038 1543 3061 
Q 1681 3084 1819 3084 
Q 2600 3084 3056 2656 
Q 3513 2228 3513 1497 
Q 3513 744 3044 326 
Q 2575 -91 1722 -91 
Q 1428 -91 1123 -41 
Q 819 9 494 109 
L 494 744 
Q 775 591 1075 516 
Q 1375 441 1709 441 
Q 2250 441 2565 725 
Q 2881 1009 2881 1497 
Q 2881 1984 2565 2268 
Q 2250 2553 1709 2553 
Q 1456 2553 1204 2497 
Q 953 2441 691 2322 
L 691 4666 
z
" transform="scale(0.015625)"/>
       </defs>
       <use xlink:href="#DejaVuSans-c9c"/>
       <use xlink:href="#DejaVuSans-1a" transform="translate(83.796875 0)"/>
       <use xlink:href="#DejaVuSans-11" transform="translate(147.421875 0)"/>
       <use xlink:href="#DejaVuSans-18" transform="translate(179.203125 0)"/>
      </g>
     </g>
    </g>
    <g id="xtick_3">
     <g id="line2d_5">
      <path d="M 279.35334 313.475078 
L 279.35334 22.32 
" clip-path="url(#p6db6509d2b)" style="fill: none; stroke: #b0b0b0; stroke-opacity: 0.15; stroke-width: 0.8; stroke-linecap: square"/>
     </g>
     <g id="line2d_6">
      <g>
       <use xlink:href="#m9d7beb0079" x="279.35334" y="313.475078" style="stroke: #000000; stroke-width: 0.8"/>
      </g>
     </g>
     <g id="text_3">
      <!-- −5.0 -->
      <g transform="translate(267.211934 328.072734) scale(0.1 -0.1)">
       <use xlink:href="#DejaVuSans-c9c"/>
       <use xlink:href="#DejaVuSans-18" transform="translate(83.796875 0)"/>
       <use xlink:href="#DejaVuSans-11" transform="translate(147.421875 0)"/>
       <use xlink:href="#DejaVuSans-13" transform="translate(179.203125 0)"/>
      </g>
     </g>
    </g>
    <g id="xtick_4">
     <g id="line2d_7">
      <path d="M 396.478018 313.475078 
L 396.478018 22.32 
" clip-path="url(#p6db6509d2b)" style="fill: none; stroke: #b0b0b0; stroke-opacity: 0.15; stroke-width: 0.8; stroke-linecap: square"/>
     </g>
     <g id="line2d_8">
      <g>
       <use xlink:href="#m9d7beb0079" x="396.478018" y="313.475078" style="stroke: #000000; stroke-width: 0.8"/>
      </g>
     </g>
     <g id="text_4">
      <!-- −2.5 -->
      <g transform="translate(384.336611 328.072734) scale(0.1 -0.1)">
       <defs>
        <path id="DejaVuSans-15" d="M 1228 531 
L 3431 531 
L 3431 0 
L 469 0 
L 469 531 
Q 828 903 1448 1529 
Q 2069 2156 2228 2338 
Q 2531 2678 2651 2914 
Q 2772 3150 2772 3378 
Q 2772 3750 2511 3984 
Q 2250 4219 1831 4219 
Q 1534 4219 1204 4116 
Q 875 4013 500 3803 
L 500 4441 
Q 881 4594 1212 4672 
Q 1544 4750 1819 4750 
Q 2544 4750 2975 4387 
Q 3406 4025 3406 3419 
Q 3406 3131 3298 2873 
Q 3191 2616 2906 2266 
Q 2828 2175 2409 1742 
Q 1991 1309 1228 531 
z
" transform="scale(0.015625)"/>
       </defs>
       <use xlink:href="#DejaVuSans-c9c"/>
       <use xlink:href="#DejaVuSans-15" transform="translate(83.796875 0)"/>
       <use xlink:href="#DejaVuSans-11" transform="translate(147.421875 0)"/>
       <use xlink:href="#DejaVuSans-18" transform="translate(179.203125 0)"/>
      </g>
     </g>
    </g>
    <g id="xtick_5">
     <g id="line2d_9">
      <path d="M 513.602695 313.475078 
L 513.602695 22.32 
" clip-path="url(#p6db6509d2b)" style="fill: none; stroke: #b0b0b0; stroke-opacity: 0.15; stroke-width: 0.8; stroke-linecap: square"/>
     </g>
     <g id="line2d_10">
      <g>
       <use xlink:href="#m9d7beb0079" x="513.602695" y="313.475078" style="stroke: #000000; stroke-width: 0.8"/>
      </g>
     </g>
     <g id="text_5">
      <!-- 0.0 -->
      <g transform="translate(505.651133 328.072734) scale(0.1 -0.1)">
       <use xlink:href="#DejaVuSans-13"/>
       <use xlink:href="#DejaVuSans-11" transform="translate(63.625 0)"/>
       <use xlink:href="#DejaVuSans-13" transform="translate(95.40625 0)"/>
      </g>
     </g>
    </g>
    <g id="xtick_6">
     <g id="line2d_11">
      <path d="M 630.727373 313.475078 
L 630.727373 22.32 
" clip-path="url(#p6db6509d2b)" style="fill: none; stroke: #b0b0b0; stroke-opacity: 0.15; stroke-width: 0.8; stroke-linecap: square"/>
     </g>
     <g id="line2d_12">
      <g>
       <use xlink:href="#m9d7beb0079" x="630.727373" y="313.475078" style="stroke: #000000; stroke-width: 0.8"/>
      </g>
     </g>
     <g id="text_6">
      <!-- 2.5 -->
      <g transform="translate(622.775811 328.072734) scale(0.1 -0.1)">
       <use xlink:href="#DejaVuSans-15"/>
       <use xlink:href="#DejaVuSans-11" transform="translate(63.625 0)"/>
       <use xlink:href="#DejaVuSans-18" transform="translate(95.40625 0)"/>
      </g>
     </g>
    </g>
    <g id="xtick_7">
     <g id="line2d_13">
      <path d="M 747.852051 313.475078 
L 747.852051 22.32 
" clip-path="url(#p6db6509d2b)" style="fill: none; stroke: #b0b0b0; stroke-opacity: 0.15; stroke-width: 0.8; stroke-linecap: square"/>
     </g>
     <g id="line2d_14">
      <g>
       <use xlink:href="#m9d7beb0079" x="747.852051" y="313.475078" style="stroke: #000000; stroke-width: 0.8"/>
      </g>
     </g>
     <g id="text_7">
      <!-- 5.0 -->
      <g transform="translate(739.900488 328.072734) scale(0.1 -0.1)">
       <use xlink:href="#DejaVuSans-18"/>
       <use xlink:href="#DejaVuSans-11" transform="translate(63.625 0)"/>
       <use xlink:href="#DejaVuSans-13" transform="translate(95.40625 0)"/>
      </g>
     </g>
    </g>
    <g id="xtick_8">
     <g id="line2d_15">
      <path d="M 864.976729 313.475078 
L 864.976729 22.32 
" clip-path="url(#p6db6509d2b)" style="fill: none; stroke: #b0b0b0; stroke-opacity: 0.15; stroke-width: 0.8; stroke-linecap: square"/>
     </g>
     <g id="line2d_16">
      <g>
       <use xlink:href="#m9d7beb0079" x="864.976729" y="313.475078" style="stroke: #000000; stroke-width: 0.8"/>
      </g>
     </g>
     <g id="text_8">
      <!-- 7.5 -->
      <g transform="translate(857.025166 328.072734) scale(0.1 -0.1)">
       <use xlink:href="#DejaVuSans-1a"/>
       <use xlink:href="#DejaVuSans-11" transform="translate(63.625 0)"/>
       <use xlink:href="#DejaVuSans-18" transform="translate(95.40625 0)"/>
      </g>
     </g>
    </g>
    <g id="xtick_9">
     <g id="line2d_17">
      <path d="M 982.101406 313.475078 
L 982.101406 22.32 
" clip-path="url(#p6db6509d2b)" style="fill: none; stroke: #b0b0b0; stroke-opacity: 0.15; stroke-width: 0.8; stroke-linecap: square"/>
     </g>
     <g id="line2d_18">
      <g>
       <use xlink:href="#m9d7beb0079" x="982.101406" y="313.475078" style="stroke: #000000; stroke-width: 0.8"/>
      </g>
     </g>
     <g id="text_9">
      <!-- 10.0 -->
      <g transform="translate(970.968594 328.072734) scale(0.1 -0.1)">
       <use xlink:href="#DejaVuSans-14"/>
       <use xlink:href="#DejaVuSans-13" transform="translate(63.625 0)"/>
       <use xlink:href="#DejaVuSans-11" transform="translate(127.25 0)"/>
       <use xlink:href="#DejaVuSans-13" transform="translate(159.03125 0)"/>
      </g>
     </g>
    </g>
    <g id="text_10">
     <!-- Frequency (bins) -->
     <g transform="translate(467.779102 342.833359) scale(0.11 -0.11)">
      <defs>
       <path id="DejaVuSans-29" d="M 628 4666 
L 3309 4666 
L 3309 4134 
L 1259 4134 
L 1259 2759 
L 3109 2759 
L 3109 2228 
L 1259 2228 
L 1259 0 
L 628 0 
L 628 4666 
z
" transform="scale(0.015625)"/>
       <path id="DejaVuSans-55" d="M 2631 2963 
Q 2534 3019 2420 3045 
Q 2306 3072 2169 3072 
Q 1681 3072 1420 2755 
Q 1159 2438 1159 1844 
L 1159 0 
L 581 0 
L 581 3500 
L 1159 3500 
L 1159 2956 
Q 1341 3275 1631 3429 
Q 1922 3584 2338 3584 
Q 2397 3584 2469 3576 
Q 2541 3569 2628 3553 
L 2631 2963 
z
" transform="scale(0.015625)"/>
       <path id="DejaVuSans-48" d="M 3597 1894 
L 3597 1613 
L 953 1613 
Q 991 1019 1311 708 
Q 1631 397 2203 397 
Q 2534 397 2845 478 
Q 3156 559 3463 722 
L 3463 178 
Q 3153 47 2828 -22 
Q 2503 -91 2169 -91 
Q 1331 -91 842 396 
Q 353 884 353 1716 
Q 353 2575 817 3079 
Q 1281 3584 2069 3584 
Q 2775 3584 3186 3129 
Q 3597 2675 3597 1894 
z
M 3022 2063 
Q 3016 2534 2758 2815 
Q 2500 3097 2075 3097 
Q 1594 3097 1305 2825 
Q 1016 2553 972 2059 
L 3022 2063 
z
" transform="scale(0.015625)"/>
       <path id="DejaVuSans-54" d="M 947 1747 
Q 947 1113 1208 752 
Q 1469 391 1925 391 
Q 2381 391 2643 752 
Q 2906 1113 2906 1747 
Q 2906 2381 2643 2742 
Q 2381 3103 1925 3103 
Q 1469 3103 1208 2742 
Q 947 2381 947 1747 
z
M 2906 525 
Q 2725 213 2448 61 
Q 2172 -91 1784 -91 
Q 1150 -91 751 415 
Q 353 922 353 1747 
Q 353 2572 751 3078 
Q 1150 3584 1784 3584 
Q 2172 3584 2448 3432 
Q 2725 3281 2906 2969 
L 2906 3500 
L 3481 3500 
L 3481 -1331 
L 2906 -1331 
L 2906 525 
z
" transform="scale(0.015625)"/>
       <path id="DejaVuSans-58" d="M 544 1381 
L 544 3500 
L 1119 3500 
L 1119 1403 
Q 1119 906 1312 657 
Q 1506 409 1894 409 
Q 2359 409 2629 706 
Q 2900 1003 2900 1516 
L 2900 3500 
L 3475 3500 
L 3475 0 
L 2900 0 
L 2900 538 
Q 2691 219 2414 64 
Q 2138 -91 1772 -91 
Q 1169 -91 856 284 
Q 544 659 544 1381 
z
M 1991 3584 
L 1991 3584 
z
" transform="scale(0.015625)"/>
       <path id="DejaVuSans-51" d="M 3513 2113 
L 3513 0 
L 2938 0 
L 2938 2094 
Q 2938 2591 2744 2837 
Q 2550 3084 2163 3084 
Q 1697 3084 1428 2787 
Q 1159 2491 1159 1978 
L 1159 0 
L 581 0 
L 581 3500 
L 1159 3500 
L 1159 2956 
Q 1366 3272 1645 3428 
Q 1925 3584 2291 3584 
Q 2894 3584 3203 3211 
Q 3513 2838 3513 2113 
z
" transform="scale(0.015625)"/>
       <path id="DejaVuSans-46" d="M 3122 3366 
L 3122 2828 
Q 2878 2963 2633 3030 
Q 2388 3097 2138 3097 
Q 1578 3097 1268 2742 
Q 959 2388 959 1747 
Q 959 1106 1268 751 
Q 1578 397 2138 397 
Q 2388 397 2633 464 
Q 2878 531 3122 666 
L 3122 134 
Q 2881 22 2623 -34 
Q 2366 -91 2075 -91 
Q 1284 -91 818 406 
Q 353 903 353 1747 
Q 353 2603 823 3093 
Q 1294 3584 2113 3584 
Q 2378 3584 2631 3529 
Q 2884 3475 3122 3366 
z
" transform="scale(0.015625)"/>
       <path id="DejaVuSans-5c" d="M 2059 -325 
Q 1816 -950 1584 -1140 
Q 1353 -1331 966 -1331 
L 506 -1331 
L 506 -850 
L 844 -850 
Q 1081 -850 1212 -737 
Q 1344 -625 1503 -206 
L 1606 56 
L 191 3500 
L 800 3500 
L 1894 763 
L 2988 3500 
L 3597 3500 
L 2059 -325 
z
" transform="scale(0.015625)"/>
       <path id="DejaVuSans-3" transform="scale(0.015625)"/>
       <path id="DejaVuSans-b" d="M 1984 4856 
Q 1566 4138 1362 3434 
Q 1159 2731 1159 2009 
Q 1159 1288 1364 580 
Q 1569 -128 1984 -844 
L 1484 -844 
Q 1016 -109 783 600 
Q 550 1309 550 2009 
Q 550 2706 781 3412 
Q 1013 4119 1484 4856 
L 1984 4856 
z
" transform="scale(0.015625)"/>
       <path id="DejaVuSans-45" d="M 3116 1747 
Q 3116 2381 2855 2742 
Q 2594 3103 2138 3103 
Q 1681 3103 1420 2742 
Q 1159 2381 1159 1747 
Q 1159 1113 1420 752 
Q 1681 391 2138 391 
Q 2594 391 2855 752 
Q 3116 1113 3116 1747 
z
M 1159 2969 
Q 1341 3281 1617 3432 
Q 1894 3584 2278 3584 
Q 2916 3584 3314 3078 
Q 3713 2572 3713 1747 
Q 3713 922 3314 415 
Q 2916 -91 2278 -91 
Q 1894 -91 1617 61 
Q 1341 213 1159 525 
L 1159 0 
L 581 0 
L 581 4863 
L 1159 4863 
L 1159 2969 
z
" transform="scale(0.015625)"/>
       <path id="DejaVuSans-4c" d="M 603 3500 
L 1178 3500 
L 1178 0 
L 603 0 
L 603 3500 
z
M 603 4863 
L 1178 4863 
L 1178 4134 
L 603 4134 
L 603 4863 
z
" transform="scale(0.015625)"/>
       <path id="DejaVuSans-56" d="M 2834 3397 
L 2834 2853 
Q 2591 2978 2328 3040 
Q 2066 3103 1784 3103 
Q 1356 3103 1142 2972 
Q 928 2841 928 2578 
Q 928 2378 1081 2264 
Q 1234 2150 1697 2047 
L 1894 2003 
Q 2506 1872 2764 1633 
Q 3022 1394 3022 966 
Q 3022 478 2636 193 
Q 2250 -91 1575 -91 
Q 1294 -91 989 -36 
Q 684 19 347 128 
L 347 722 
Q 666 556 975 473 
Q 1284 391 1588 391 
Q 1994 391 2212 530 
Q 2431 669 2431 922 
Q 2431 1156 2273 1281 
Q 2116 1406 1581 1522 
L 1381 1569 
Q 847 1681 609 1914 
Q 372 2147 372 2553 
Q 372 3047 722 3315 
Q 1072 3584 1716 3584 
Q 2034 3584 2315 3537 
Q 2597 3491 2834 3397 
z
" transform="scale(0.015625)"/>
       <path id="DejaVuSans-c" d="M 513 4856 
L 1013 4856 
Q 1481 4119 1714 3412 
Q 1947 2706 1947 2009 
Q 1947 1309 1714 600 
Q 1481 -109 1013 -844 
L 513 -844 
Q 928 -128 1133 580 
Q 1338 1288 1338 2009 
Q 1338 2731 1133 3434 
Q 928 4138 513 4856 
z
" transform="scale(0.015625)"/>
      </defs>
      <use xlink:href="#DejaVuSans-29"/>
      <use xlink:href="#DejaVuSans-55" transform="translate(50.234375 0)"/>
      <use xlink:href="#DejaVuSans-48" transform="translate(89.140625 0)"/>
      <use xlink:href="#DejaVuSans-54" transform="translate(150.671875 0)"/>
      <use xlink:href="#DejaVuSans-58" transform="translate(214.15625 0)"/>
      <use xlink:href="#DejaVuSans-48" transform="translate(277.53125 0)"/>
      <use xlink:href="#DejaVuSans-51" transform="translate(339.0625 0)"/>
      <use xlink:href="#DejaVuSans-46" transform="translate(402.4375 0)"/>
      <use xlink:href="#DejaVuSans-5c" transform="translate(457.421875 0)"/>
      <use xlink:href="#DejaVuSans-3" transform="translate(516.609375 0)"/>
      <use xlink:href="#DejaVuSans-b" transform="translate(548.390625 0)"/>
      <use xlink:href="#DejaVuSans-45" transform="translate(587.40625 0)"/>
      <use xlink:href="#DejaVuSans-4c" transform="translate(650.890625 0)"/>
      <use xlink:href="#DejaVuSans-51" transform="translate(678.671875 0)"/>
      <use xlink:href="#DejaVuSans-56" transform="translate(742.046875 0)"/>
      <use xlink:href="#DejaVuSans-c" transform="translate(794.140625 0)"/>
     </g>
    </g>
   </g>
   <g id="matplotlib.axis_2">
    <g id="ytick_1">
     <g id="line2d_19">
      <path d="M 45.103984 308.032927 
L 982.101406 308.032927 
" clip-path="url(#p6db6509d2b)" style="fill: none; stroke: #b0b0b0; stroke-opacity: 0.15; stroke-width: 0.8; stroke-linecap: square"/>
     </g>
     <g id="line2d_20">
      <defs>
       <path id="m3dc48c17e7" d="M 0 0 
L -3.5 0 
" style="stroke: #000000; stroke-width: 0.8"/>
      </defs>
      <g>
       <use xlink:href="#m3dc48c17e7" x="45.103984" y="308.032927" style="stroke: #000000; stroke-width: 0.8"/>
      </g>
     </g>
     <g id="text_11">
      <!-- 0.0 -->
      <g transform="translate(22.200859 311.831755) scale(0.1 -0.1)">
       <use xlink:href="#DejaVuSans-13"/>
       <use xlink:href="#DejaVuSans-11" transform="translate(63.625 0)"/>
       <use xlink:href="#DejaVuSans-13" transform="translate(95.40625 0)"/>
      </g>
     </g>
    </g>
    <g id="ytick_2">
     <g id="line2d_21">
      <path d="M 45.103984 253.611417 
L 982.101406 253.611417 
" clip-path="url(#p6db6509d2b)" style="fill: none; stroke: #b0b0b0; stroke-opacity: 0.15; stroke-width: 0.8; stroke-linecap: square"/>
     </g>
     <g id="line2d_22">
      <g>
       <use xlink:href="#m3dc48c17e7" x="45.103984" y="253.611417" style="stroke: #000000; stroke-width: 0.8"/>
      </g>
     </g>
     <g id="text_12">
      <!-- 0.2 -->
      <g transform="translate(22.200859 257.410245) scale(0.1 -0.1)">
       <use xlink:href="#DejaVuSans-13"/>
       <use xlink:href="#DejaVuSans-11" transform="translate(63.625 0)"/>
       <use xlink:href="#DejaVuSans-15" transform="translate(95.40625 0)"/>
      </g>
     </g>
    </g>
    <g id="ytick_3">
     <g id="line2d_23">
      <path d="M 45.103984 199.189907 
L 982.101406 199.189907 
" clip-path="url(#p6db6509d2b)" style="fill: none; stroke: #b0b0b0; stroke-opacity: 0.15; stroke-width: 0.8; stroke-linecap: square"/>
     </g>
     <g id="line2d_24">
      <g>
       <use xlink:href="#m3dc48c17e7" x="45.103984" y="199.189907" style="stroke: #000000; stroke-width: 0.8"/>
      </g>
     </g>
     <g id="text_13">
      <!-- 0.4 -->
      <g transform="translate(22.200859 202.988735) scale(0.1 -0.1)">
       <defs>
        <path id="DejaVuSans-17" d="M 2419 4116 
L 825 1625 
L 2419 1625 
L 2419 4116 
z
M 2253 4666 
L 3047 4666 
L 3047 1625 
L 3713 1625 
L 3713 1100 
L 3047 1100 
L 3047 0 
L 2419 0 
L 2419 1100 
L 313 1100 
L 313 1709 
L 2253 4666 
z
" transform="scale(0.015625)"/>
       </defs>
       <use xlink:href="#DejaVuSans-13"/>
       <use xlink:href="#DejaVuSans-11" transform="translate(63.625 0)"/>
       <use xlink:href="#DejaVuSans-17" transform="translate(95.40625 0)"/>
      </g>
     </g>
    </g>
    <g id="ytick_4">
     <g id="line2d_25">
      <path d="M 45.103984 144.768397 
L 982.101406 144.768397 
" clip-path="url(#p6db6509d2b)" style="fill: none; stroke: #b0b0b0; stroke-opacity: 0.15; stroke-width: 0.8; stroke-linecap: square"/>
     </g>
     <g id="line2d_26">
      <g>
       <use xlink:href="#m3dc48c17e7" x="45.103984" y="144.768397" style="stroke: #000000; stroke-width: 0.8"/>
      </g>
     </g>
     <g id="text_14">
      <!-- 0.6 -->
      <g transform="translate(22.200859 148.567225) scale(0.1 -0.1)">
       <defs>
        <path id="DejaVuSans-19" d="M 2113 2584 
Q 1688 2584 1439 2293 
Q 1191 2003 1191 1497 
Q 1191 994 1439 701 
Q 1688 409 2113 409 
Q 2538 409 2786 701 
Q 3034 994 3034 1497 
Q 3034 2003 2786 2293 
Q 2538 2584 2113 2584 
z
M 3366 4563 
L 3366 3988 
Q 3128 4100 2886 4159 
Q 2644 4219 2406 4219 
Q 1781 4219 1451 3797 
Q 1122 3375 1075 2522 
Q 1259 2794 1537 2939 
Q 1816 3084 2150 3084 
Q 2853 3084 3261 2657 
Q 3669 2231 3669 1497 
Q 3669 778 3244 343 
Q 2819 -91 2113 -91 
Q 1303 -91 875 529 
Q 447 1150 447 2328 
Q 447 3434 972 4092 
Q 1497 4750 2381 4750 
Q 2619 4750 2861 4703 
Q 3103 4656 3366 4563 
z
" transform="scale(0.015625)"/>
       </defs>
       <use xlink:href="#DejaVuSans-13"/>
       <use xlink:href="#DejaVuSans-11" transform="translate(63.625 0)"/>
       <use xlink:href="#DejaVuSans-19" transform="translate(95.40625 0)"/>
      </g>
     </g>
    </g>
    <g id="ytick_5">
     <g id="line2d_27">
      <path d="M 45.103984 90.346887 
L 982.101406 90.346887 
" clip-path="url(#p6db6509d2b)" style="fill: none; stroke: #b0b0b0; stroke-opacity: 0.15; stroke-width: 0.8; stroke-linecap: square"/>
     </g>
     <g id="line2d_28">
      <g>
       <use xlink:href="#m3dc48c17e7" x="45.103984" y="90.346887" style="stroke: #000000; stroke-width: 0.8"/>
      </g>
     </g>
     <g id="text_15">
      <!-- 0.8 -->
      <g transform="translate(22.200859 94.145716) scale(0.1 -0.1)">
       <defs>
        <path id="DejaVuSans-1b" d="M 2034 2216 
Q 1584 2216 1326 1975 
Q 1069 1734 1069 1313 
Q 1069 891 1326 650 
Q 1584 409 2034 409 
Q 2484 409 2743 651 
Q 3003 894 3003 1313 
Q 3003 1734 2745 1975 
Q 2488 2216 2034 2216 
z
M 1403 2484 
Q 997 2584 770 2862 
Q 544 3141 544 3541 
Q 544 4100 942 4425 
Q 1341 4750 2034 4750 
Q 2731 4750 3128 4425 
Q 3525 4100 3525 3541 
Q 3525 3141 3298 2862 
Q 3072 2584 2669 2484 
Q 3125 2378 3379 2068 
Q 3634 1759 3634 1313 
Q 3634 634 3220 271 
Q 2806 -91 2034 -91 
Q 1263 -91 848 271 
Q 434 634 434 1313 
Q 434 1759 690 2068 
Q 947 2378 1403 2484 
z
M 1172 3481 
Q 1172 3119 1398 2916 
Q 1625 2713 2034 2713 
Q 2441 2713 2670 2916 
Q 2900 3119 2900 3481 
Q 2900 3844 2670 4047 
Q 2441 4250 2034 4250 
Q 1625 4250 1398 4047 
Q 1172 3844 1172 3481 
z
" transform="scale(0.015625)"/>
       </defs>
       <use xlink:href="#DejaVuSans-13"/>
       <use xlink:href="#DejaVuSans-11" transform="translate(63.625 0)"/>
       <use xlink:href="#DejaVuSans-1b" transform="translate(95.40625 0)"/>
      </g>
     </g>
    </g>
    <g id="ytick_6">
     <g id="line2d_29">
      <path d="M 45.103984 35.925377 
L 982.101406 35.925377 
" clip-path="url(#p6db6509d2b)" style="fill: none; stroke: #b0b0b0; stroke-opacity: 0.15; stroke-width: 0.8; stroke-linecap: square"/>
     </g>
     <g id="line2d_30">
      <g>
       <use xlink:href="#m3dc48c17e7" x="45.103984" y="35.925377" style="stroke: #000000; stroke-width: 0.8"/>
      </g>
     </g>
     <g id="text_16">
      <!-- 1.0 -->
      <g transform="translate(22.200859 39.724206) scale(0.1 -0.1)">
       <use xlink:href="#DejaVuSans-14"/>
       <use xlink:href="#DejaVuSans-11" transform="translate(63.625 0)"/>
       <use xlink:href="#DejaVuSans-13" transform="translate(95.40625 0)"/>
      </g>
     </g>
    </g>
    <g id="text_17">
     <!-- Normalized magnitude -->
     <g transform="translate(15.558281 230.587227) rotate(-90) scale(0.11 -0.11)">
      <defs>
       <path id="DejaVuSans-31" d="M 628 4666 
L 1478 4666 
L 3547 763 
L 3547 4666 
L 4159 4666 
L 4159 0 
L 3309 0 
L 1241 3903 
L 1241 0 
L 628 0 
L 628 4666 
z
" transform="scale(0.015625)"/>
       <path id="DejaVuSans-52" d="M 1959 3097 
Q 1497 3097 1228 2736 
Q 959 2375 959 1747 
Q 959 1119 1226 758 
Q 1494 397 1959 397 
Q 2419 397 2687 759 
Q 2956 1122 2956 1747 
Q 2956 2369 2687 2733 
Q 2419 3097 1959 3097 
z
M 1959 3584 
Q 2709 3584 3137 3096 
Q 3566 2609 3566 1747 
Q 3566 888 3137 398 
Q 2709 -91 1959 -91 
Q 1206 -91 779 398 
Q 353 888 353 1747 
Q 353 2609 779 3096 
Q 1206 3584 1959 3584 
z
" transform="scale(0.015625)"/>
       <path id="DejaVuSans-50" d="M 3328 2828 
Q 3544 3216 3844 3400 
Q 4144 3584 4550 3584 
Q 5097 3584 5394 3201 
Q 5691 2819 5691 2113 
L 5691 0 
L 5113 0 
L 5113 2094 
Q 5113 2597 4934 2840 
Q 4756 3084 4391 3084 
Q 3944 3084 3684 2787 
Q 3425 2491 3425 1978 
L 3425 0 
L 2847 0 
L 2847 2094 
Q 2847 2600 2669 2842 
Q 2491 3084 2119 3084 
Q 1678 3084 1418 2786 
Q 1159 2488 1159 1978 
L 1159 0 
L 581 0 
L 581 3500 
L 1159 3500 
L 1159 2956 
Q 1356 3278 1631 3431 
Q 1906 3584 2284 3584 
Q 2666 3584 2933 3390 
Q 3200 3197 3328 2828 
z
" transform="scale(0.015625)"/>
       <path id="DejaVuSans-44" d="M 2194 1759 
Q 1497 1759 1228 1600 
Q 959 1441 959 1056 
Q 959 750 1161 570 
Q 1363 391 1709 391 
Q 2188 391 2477 730 
Q 2766 1069 2766 1631 
L 2766 1759 
L 2194 1759 
z
M 3341 1997 
L 3341 0 
L 2766 0 
L 2766 531 
Q 2569 213 2275 61 
Q 1981 -91 1556 -91 
Q 1019 -91 701 211 
Q 384 513 384 1019 
Q 384 1609 779 1909 
Q 1175 2209 1959 2209 
L 2766 2209 
L 2766 2266 
Q 2766 2663 2505 2880 
Q 2244 3097 1772 3097 
Q 1472 3097 1187 3025 
Q 903 2953 641 2809 
L 641 3341 
Q 956 3463 1253 3523 
Q 1550 3584 1831 3584 
Q 2591 3584 2966 3190 
Q 3341 2797 3341 1997 
z
" transform="scale(0.015625)"/>
       <path id="DejaVuSans-4f" d="M 603 4863 
L 1178 4863 
L 1178 0 
L 603 0 
L 603 4863 
z
" transform="scale(0.015625)"/>
       <path id="DejaVuSans-5d" d="M 353 3500 
L 3084 3500 
L 3084 2975 
L 922 459 
L 3084 459 
L 3084 0 
L 275 0 
L 275 525 
L 2438 3041 
L 353 3041 
L 353 3500 
z
" transform="scale(0.015625)"/>
       <path id="DejaVuSans-47" d="M 2906 2969 
L 2906 4863 
L 3481 4863 
L 3481 0 
L 2906 0 
L 2906 525 
Q 2725 213 2448 61 
Q 2172 -91 1784 -91 
Q 1150 -91 751 415 
Q 353 922 353 1747 
Q 353 2572 751 3078 
Q 1150 3584 1784 3584 
Q 2172 3584 2448 3432 
Q 2725 3281 2906 2969 
z
M 947 1747 
Q 947 1113 1208 752 
Q 1469 391 1925 391 
Q 2381 391 2643 752 
Q 2906 1113 2906 1747 
Q 2906 2381 2643 2742 
Q 2381 3103 1925 3103 
Q 1469 3103 1208 2742 
Q 947 2381 947 1747 
z
" transform="scale(0.015625)"/>
       <path id="DejaVuSans-4a" d="M 2906 1791 
Q 2906 2416 2648 2759 
Q 2391 3103 1925 3103 
Q 1463 3103 1205 2759 
Q 947 2416 947 1791 
Q 947 1169 1205 825 
Q 1463 481 1925 481 
Q 2391 481 2648 825 
Q 2906 1169 2906 1791 
z
M 3481 434 
Q 3481 -459 3084 -895 
Q 2688 -1331 1869 -1331 
Q 1566 -1331 1297 -1286 
Q 1028 -1241 775 -1147 
L 775 -588 
Q 1028 -725 1275 -790 
Q 1522 -856 1778 -856 
Q 2344 -856 2625 -561 
Q 2906 -266 2906 331 
L 2906 616 
Q 2728 306 2450 153 
Q 2172 0 1784 0 
Q 1141 0 747 490 
Q 353 981 353 1791 
Q 353 2603 747 3093 
Q 1141 3584 1784 3584 
Q 2172 3584 2450 3431 
Q 2728 3278 2906 2969 
L 2906 3500 
L 3481 3500 
L 3481 434 
z
" transform="scale(0.015625)"/>
       <path id="DejaVuSans-57" d="M 1172 4494 
L 1172 3500 
L 2356 3500 
L 2356 3053 
L 1172 3053 
L 1172 1153 
Q 1172 725 1289 603 
Q 1406 481 1766 481 
L 2356 481 
L 2356 0 
L 1766 0 
Q 1100 0 847 248 
Q 594 497 594 1153 
L 594 3053 
L 172 3053 
L 172 3500 
L 594 3500 
L 594 4494 
L 1172 4494 
z
" transform="scale(0.015625)"/>
      </defs>
      <use xlink:href="#DejaVuSans-31"/>
      <use xlink:href="#DejaVuSans-52" transform="translate(74.8125 0)"/>
      <use xlink:href="#DejaVuSans-55" transform="translate(136 0)"/>
      <use xlink:href="#DejaVuSans-50" transform="translate(175.359375 0)"/>
      <use xlink:href="#DejaVuSans-44" transform="translate(272.765625 0)"/>
      <use xlink:href="#DejaVuSans-4f" transform="translate(334.046875 0)"/>
      <use xlink:href="#DejaVuSans-4c" transform="translate(361.828125 0)"/>
      <use xlink:href="#DejaVuSans-5d" transform="translate(389.609375 0)"/>
      <use xlink:href="#DejaVuSans-48" transform="translate(442.09375 0)"/>
      <use xlink:href="#DejaVuSans-47" transform="translate(503.625 0)"/>
      <use xlink:href="#DejaVuSans-3" transform="translate(567.109375 0)"/>
      <use xlink:href="#DejaVuSans-50" transform="translate(598.890625 0)"/>
      <use xlink:href="#DejaVuSans-44" transform="translate(696.296875 0)"/>
      <use xlink:href="#DejaVuSans-4a" transform="translate(757.578125 0)"/>
      <use xlink:href="#DejaVuSans-51" transform="translate(821.0625 0)"/>
      <use xlink:href="#DejaVuSans-4c" transform="translate(884.4375 0)"/>
      <use xlink:href="#DejaVuSans-57" transform="translate(912.21875 0)"/>
      <use xlink:href="#DejaVuSans-58" transform="translate(951.421875 0)"/>
      <use xlink:href="#DejaVuSans-47" transform="translate(1014.796875 0)"/>
      <use xlink:href="#DejaVuSans-48" transform="translate(1078.28125 0)"/>
     </g>
    </g>
   </g>
   <g id="line2d_31">
    <path d="M 537.027631 134.802794 
L 538.811494 147.061005 
L 540.595357 157.698989 
L 542.379219 167.018061 
L 544.163082 175.249183 
L 545.946945 182.572364 
L 547.730808 189.129976 
L 549.514671 195.036105 
L 551.298533 200.38324 
L 553.082396 205.247154 
L 555.758191 211.771178 
L 558.433985 217.516403 
L 561.109779 222.614424 
L 563.785573 227.16877 
L 566.461368 231.262007 
L 569.137162 234.960786 
L 571.812956 238.319505 
L 574.48875 241.382998 
L 578.056476 245.071965 
L 581.624202 248.373943 
L 585.191927 251.346789 
L 588.759653 254.037376 
L 592.327379 256.484078 
L 596.787036 259.247298 
L 601.246693 261.729292 
L 605.70635 263.970909 
L 611.057938 266.390016 
L 616.409527 268.557246 
L 622.653047 270.816806 
L 628.896566 272.83161 
L 636.032018 274.882577 
L 643.167469 276.707605 
L 651.194852 278.534459 
L 660.114166 280.329461 
L 669.925411 282.067325 
L 680.628588 283.730264 
L 692.223697 285.306819 
L 705.602668 286.889224 
L 719.873571 288.350777 
L 735.928336 289.770644 
L 753.766964 291.125512 
L 774.281387 292.454231 
L 797.471604 293.724841 
L 823.337615 294.917407 
L 853.663283 296.08432 
L 888.448608 297.190054 
L 928.585521 298.235217 
L 974.965955 299.216071 
L 982.101406 299.349697 
L 982.101406 299.349697 
" clip-path="url(#p6db6509d2b)" style="fill: none; stroke-dasharray: 3.7,1.6; stroke-dashoffset: 0; stroke: #dc2626; stroke-opacity: 0.7"/>
   </g>
   <g id="line2d_32">
    <path d="M 490.17776 134.802794 
L 488.393897 147.061005 
L 486.610034 157.698989 
L 484.826171 167.018061 
L 483.042308 175.249183 
L 481.258446 182.572364 
L 479.474583 189.129976 
L 477.69072 195.036105 
L 475.906857 200.38324 
L 474.122994 205.247154 
L 471.4472 211.771178 
L 468.771406 217.516403 
L 466.095612 222.614424 
L 463.419817 227.16877 
L 460.744023 231.262007 
L 458.068229 234.960786 
L 455.392435 238.319505 
L 452.71664 241.382998 
L 449.148915 245.071965 
L 445.581189 248.373943 
L 442.013463 251.346789 
L 438.445738 254.037376 
L 434.878012 256.484078 
L 430.418355 259.247298 
L 425.958698 261.729292 
L 421.499041 263.970909 
L 416.147452 266.390016 
L 410.795864 268.557246 
L 404.552344 270.816806 
L 398.308824 272.83161 
L 391.173373 274.882577 
L 384.037922 276.707605 
L 376.010539 278.534459 
L 367.091225 280.329461 
L 357.279979 282.067325 
L 346.576802 283.730264 
L 334.981694 285.306819 
L 321.602723 286.889224 
L 307.33182 288.350777 
L 291.277055 289.770644 
L 273.438426 291.125512 
L 252.924004 292.454231 
L 229.733787 293.724841 
L 203.867776 294.917407 
L 173.542108 296.08432 
L 138.756783 297.190054 
L 98.619869 298.235217 
L 52.239436 299.216071 
L 45.103984 299.349697 
L 45.103984 299.349697 
" clip-path="url(#p6db6509d2b)" style="fill: none; stroke-dasharray: 3.7,1.6; stroke-dashoffset: 0; stroke: #dc2626; stroke-opacity: 0.7"/>
   </g>
   <g id="patch_3">
    <path d="M 45.103984 313.475078 
L 45.103984 22.32 
" style="fill: none; stroke: #000000; stroke-width: 0.8; stroke-linejoin: miter; stroke-linecap: square"/>
   </g>
   <g id="patch_4">
    <path d="M 45.103984 313.475078 
L 982.101406 313.475078 
" style="fill: none; stroke: #000000; stroke-width: 0.8; stroke-linejoin: miter; stroke-linecap: square"/>
   </g>
   <g id="line2d_33">
    <path d="M 45.103984 308.032927 
L 52.836043 303.65797 
L 56.358934 301.938488 
L 59.332803 300.728236 
L 62.009285 299.873348 
L 64.525635 299.300394 
L 66.927606 298.979977 
L 69.260949 298.890962 
L 71.594292 299.025536 
L 73.927636 299.382758 
L 76.329606 299.976265 
L 78.845957 300.829663 
L 81.545315 301.984194 
L 84.542059 303.514049 
L 88.110702 305.597257 
L 92.113987 307.92934 
L 99.617287 303.205178 
L 103.048674 301.326404 
L 105.931039 299.995497 
L 108.516017 299.040891 
L 110.917988 298.385463 
L 113.205579 297.987307 
L 115.424543 297.82336 
L 117.620631 297.882679 
L 119.816718 298.163596 
L 122.058558 298.675145 
L 124.391901 299.439085 
L 126.8625 300.487763 
L 129.538982 301.872684 
L 132.558602 303.695235 
L 136.2645 306.207695 
L 138.918106 307.949728 
L 146.490034 302.576272 
L 149.807041 300.518132 
L 152.597902 299.042692 
L 155.091377 297.971225 
L 157.401844 297.216671 
L 159.597932 296.731854 
L 161.702516 296.492432 
L 163.784224 296.47986 
L 165.843056 296.689663 
L 167.924765 297.125086 
L 170.0751 297.80444 
L 172.31694 298.749028 
L 174.718911 300.008236 
L 177.349641 301.646747 
L 180.346386 303.785031 
L 184.143787 306.786523 
L 185.745101 307.95689 
L 193.431408 301.710937 
L 196.61116 299.440842 
L 199.287642 297.795088 
L 201.666737 296.585393 
L 203.862825 295.711628 
L 205.944533 295.119573 
L 207.934738 294.782355 
L 209.87919 294.677656 
L 211.800767 294.797036 
L 213.722344 295.1388 
L 215.689672 295.716122 
L 217.725629 296.548393 
L 219.875964 297.673277 
L 222.163556 299.125371 
L 224.679906 300.991344 
L 227.585147 303.433865 
L 231.245294 306.820758 
L 232.572096 307.966419 
L 240.487163 300.446781 
L 243.529659 297.900117 
L 246.091761 296.036092 
L 248.379353 294.641106 
L 250.461061 293.625442 
L 252.42839 292.910038 
L 254.281339 292.468233 
L 256.088536 292.263993 
L 257.849981 292.286271 
L 259.611426 292.529808 
L 261.395748 293.00176 
L 263.225821 293.717592 
L 265.124522 294.700509 
L 267.137602 295.996351 
L 269.310814 297.666355 
L 271.689909 299.781861 
L 274.412143 302.51041 
L 277.774902 306.213904 
L 279.35334 308.032927 
L 279.421968 307.953135 
L 287.7488 298.438415 
L 290.654041 295.516015 
L 293.078888 293.380511 
L 295.229224 291.772238 
L 297.196552 290.570561 
L 299.026626 289.707418 
L 300.765195 289.130962 
L 302.412261 288.8146 
L 304.036451 288.728878 
L 305.637765 288.868734 
L 307.239079 289.233221 
L 308.863268 289.831662 
L 310.556086 290.696867 
L 312.317531 291.851326 
L 314.193356 293.35292 
L 316.206437 295.25598 
L 318.4254 297.669894 
L 320.918875 300.722492 
L 323.892744 304.730827 
L 326.203211 308.032927 
L 326.271839 307.933202 
L 335.399328 294.859327 
L 338.098686 291.478476 
L 340.386277 288.956244 
L 342.399358 287.054344 
L 344.229431 285.620258 
L 345.922248 284.568706 
L 347.500687 283.843431 
L 349.010497 283.392296 
L 350.451679 283.19136 
L 351.869986 283.218444 
L 353.265417 283.466367 
L 354.683723 283.945002 
L 356.147782 284.678513 
L 357.657592 285.687088 
L 359.258906 287.030681 
L 360.951724 288.74723 
L 362.781797 290.928062 
L 364.772001 293.655164 
L 366.990965 297.086423 
L 369.530191 301.439445 
L 372.664191 307.282017 
L 373.053082 308.032927 
L 373.098834 307.944302 
L 384.010645 287.036174 
L 386.435491 283.084593 
L 388.5172 280.100678 
L 390.370149 277.822543 
L 392.04009 276.113803 
L 393.549901 274.876146 
L 394.945331 274.009617 
L 396.249258 273.453276 
L 397.484558 273.160993 
L 398.674105 273.101974 
L 399.863653 273.26618 
L 401.0532 273.657285 
L 402.265624 274.291869 
L 403.523799 275.203436 
L 404.850602 276.443442 
L 406.268909 278.082467 
L 407.778719 280.176714 
L 409.402909 282.820035 
L 411.164354 286.123706 
L 413.085931 290.212633 
L 415.236267 295.331898 
L 417.68399 301.76059 
L 419.902953 308.032927 
L 419.971581 307.833464 
L 423.814734 296.312453 
L 430.72326 275.541456 
L 433.445494 268.120734 
L 435.664458 262.689107 
L 437.563158 258.602092 
L 439.2331 255.509958 
L 440.720035 253.201871 
L 442.069713 251.504007 
L 443.282137 250.324489 
L 444.380181 249.554802 
L 445.386721 249.110031 
L 446.324633 248.928538 
L 447.23967 248.974887 
L 448.154706 249.247918 
L 449.092619 249.768724 
L 450.076283 250.582699 
L 451.105699 251.733803 
L 452.203743 253.304767 
L 453.393291 255.412099 
L 454.674342 258.158397 
L 456.046897 261.653565 
L 457.510955 266.013234 
L 459.089393 271.44056 
L 460.782211 278.089202 
L 462.589408 286.111767 
L 464.556737 295.892662 
L 466.684196 307.634906 
L 466.752824 308.032927 
L 466.798576 307.766931 
L 469.131919 293.537076 
L 471.739773 276.218077 
L 474.736518 254.769051 
L 478.465292 226.370819 
L 492.076461 121.049233 
L 494.890198 101.915428 
L 497.315045 86.887138 
L 499.488257 74.769135 
L 501.432709 65.138192 
L 503.194155 57.486002 
L 504.795469 51.46954 
L 506.259527 46.788789 
L 507.609206 43.191741 
L 508.821629 40.562867 
L 509.919673 38.683095 
L 510.926213 37.383838 
L 511.818374 36.574163 
L 512.641907 36.113582 
L 513.396812 35.934021 
L 514.128841 35.981826 
L 514.883746 36.25991 
L 515.661528 36.78894 
L 516.507936 37.643309 
L 517.422973 38.891782 
L 518.429513 40.651581 
L 519.550433 43.082107 
L 520.762856 46.260226 
L 522.089659 50.377609 
L 523.553718 55.673578 
L 525.155032 62.335208 
L 526.916477 70.658616 
L 528.838054 80.849541 
L 530.965514 93.3668 
L 533.367485 108.876377 
L 536.13547 128.266199 
L 539.521105 153.651596 
L 544.622434 193.816847 
L 551.210697 245.362461 
L 554.687836 270.796105 
L 557.570201 290.304919 
L 560.109428 306.025375 
L 560.452566 308.032927 
L 560.498318 307.76745 
L 562.763034 295.295002 
L 564.844742 285.044471 
L 566.766319 276.673028 
L 568.527764 269.952398 
L 570.17483 264.510939 
L 571.707516 260.18674 
L 573.125823 256.821557 
L 574.452626 254.224672 
L 575.687925 252.281121 
L 576.831721 250.883563 
L 577.884013 249.933357 
L 578.867677 249.330214 
L 579.805589 249.006143 
L 580.720626 248.920541 
L 581.635662 249.056731 
L 582.596451 249.431445 
L 583.602991 250.070042 
L 584.701035 251.04246 
L 585.890582 252.405301 
L 587.194509 254.247624 
L 588.658568 256.719665 
L 590.282758 259.916874 
L 592.112831 264.026633 
L 594.240291 269.376291 
L 596.802393 276.457575 
L 600.256656 286.720193 
L 607.302437 308.032927 
L 607.325313 307.966504 
L 610.36781 299.472629 
L 612.861285 293.142685 
L 615.057372 288.156213 
L 617.024701 284.224234 
L 618.809022 281.135057 
L 620.456088 278.710138 
L 621.988774 276.83558 
L 623.429957 275.41667 
L 624.779636 274.393566 
L 626.060687 273.696845 
L 627.295986 273.277008 
L 628.485534 273.104135 
L 629.675081 273.154651 
L 630.887504 273.430972 
L 632.14568 273.95086 
L 633.472483 274.746984 
L 634.890789 275.866403 
L 636.423476 277.369554 
L 638.093417 279.328155 
L 639.946366 281.854518 
L 642.05095 285.115128 
L 644.498673 289.33372 
L 647.609797 295.167499 
L 654.152309 308.032927 
L 654.266688 307.811618 
L 657.835331 301.153366 
L 660.534688 296.567926 
L 662.845156 293.062248 
L 664.926864 290.295908 
L 666.825565 288.134097 
L 668.564134 286.479551 
L 670.2112 285.212667 
L 671.766762 284.292945 
L 673.253696 283.669399 
L 674.694879 283.304848 
L 676.113186 283.175705 
L 677.531492 283.271522 
L 678.972675 283.594448 
L 680.459609 284.158661 
L 682.015171 284.989654 
L 683.685113 286.140672 
L 685.49231 287.666397 
L 687.459639 289.626296 
L 689.678602 292.161639 
L 692.263581 295.467813 
L 695.557712 300.067567 
L 701.00218 308.032927 
L 701.093683 307.900074 
L 705.096968 302.284787 
L 707.979333 298.614011 
L 710.427056 295.847983 
L 712.600268 293.718422 
L 714.590472 292.071058 
L 716.443421 290.818606 
L 718.204867 289.892703 
L 719.874808 289.260831 
L 721.498998 288.879744 
L 723.100312 288.730281 
L 724.701626 288.803744 
L 726.325816 289.101665 
L 727.995758 289.635325 
L 729.757203 290.43687 
L 731.610152 291.528266 
L 733.623233 292.978379 
L 735.842196 294.859514 
L 738.358547 297.293864 
L 741.423919 300.586365 
L 746.06773 305.948015 
L 747.852051 308.032927 
L 747.920679 307.953182 
L 752.312854 303.020249 
L 755.332475 299.955758 
L 757.871701 297.685331 
L 760.159292 295.932033 
L 762.263876 294.595417 
L 764.231205 293.605478 
L 766.10703 292.907468 
L 767.914227 292.469045 
L 769.698548 292.26462 
L 771.459994 292.285223 
L 773.244315 292.528007 
L 775.074388 293.002237 
L 776.995965 293.734489 
L 779.031921 294.75517 
L 781.228009 296.112889 
L 783.652856 297.882227 
L 786.443717 300.204793 
L 789.966608 303.444492 
L 794.816301 307.922152 
L 799.52874 303.514947 
L 802.66274 300.883044 
L 805.316346 298.938126 
L 807.695441 297.464732 
L 809.891529 296.361319 
L 811.973237 295.561629 
L 813.963441 295.032602 
L 815.907894 294.744245 
L 817.829471 294.683117 
L 819.773923 294.845923 
L 821.741252 295.234929 
L 823.777208 295.864863 
L 825.927544 296.765211 
L 828.238011 297.977082 
L 830.800114 299.578417 
L 833.773982 301.710937 
L 837.59426 304.744083 
L 841.643297 307.956932 
L 846.653122 303.940682 
L 849.901501 301.616176 
L 852.646611 299.916865 
L 855.11721 298.642064 
L 857.427677 297.696944 
L 859.600889 297.043665 
L 861.705473 296.639355 
L 863.787181 296.465726 
L 865.846013 296.516057 
L 867.950597 296.79206 
L 870.100933 297.30011 
L 872.365649 298.067715 
L 874.76762 299.119901 
L 877.421226 300.531291 
L 880.463722 302.410681 
L 884.352627 305.092944 
L 888.516044 307.949779 
L 893.80038 304.246657 
L 897.163139 302.158893 
L 899.999752 300.651584 
L 902.561855 299.534972 
L 904.963826 298.726692 
L 907.251417 298.188454 
L 909.470381 297.891851 
L 911.666468 297.820978 
L 913.885432 297.973431 
L 916.150147 298.355204 
L 918.48349 298.975627 
L 920.976965 299.873441 
L 923.676323 301.087107 
L 926.741695 302.716956 
L 930.539097 305.002331 
L 935.388791 307.9442 
L 940.901886 304.51287 
L 944.379025 302.609177 
L 947.330018 301.242396 
L 949.983624 300.252657 
L 952.477098 299.55565 
L 954.879069 299.113831 
L 957.212412 298.909048 
L 959.545755 298.928146 
L 961.901975 299.171761 
L 964.326821 299.648985 
L 966.866048 300.378754 
L 969.588281 301.395898 
L 972.630778 302.776004 
L 976.268048 304.680776 
L 981.987027 307.966312 
L 982.101406 308.032927 
L 982.101406 308.032927 
" clip-path="url(#p6db6509d2b)" style="fill: none; stroke: #2563eb; stroke-width: 1.5; stroke-linecap: square"/>
   </g>
   <g id="text_18">
    <!-- Figure B.10 — Dirichlet kernel with envelope ($M = 256$) -->
    <g transform="translate(45.103984 16.32) scale(0.12 -0.12)">
     <defs>
      <path id="DejaVuSans-Oblique-29" d="M 1081 4666 
L 3756 4666 
L 3653 4134 
L 1606 4134 
L 1338 2759 
L 3188 2759 
L 3084 2228 
L 1234 2228 
L 800 0 
L 172 0 
L 1081 4666 
z
" transform="scale(0.015625)"/>
      <path id="DejaVuSans-Oblique-4c" d="M 1172 4863 
L 1747 4863 
L 1606 4134 
L 1031 4134 
L 1172 4863 
z
M 909 3500 
L 1484 3500 
L 800 0 
L 225 0 
L 909 3500 
z
" transform="scale(0.015625)"/>
      <path id="DejaVuSans-Oblique-4a" d="M 3816 3500 
L 3219 434 
Q 3047 -456 2561 -893 
Q 2075 -1331 1253 -1331 
Q 950 -1331 690 -1286 
Q 431 -1241 206 -1147 
L 313 -588 
Q 525 -725 762 -790 
Q 1000 -856 1269 -856 
Q 1816 -856 2167 -557 
Q 2519 -259 2631 300 
L 2681 563 
Q 2441 288 2122 144 
Q 1803 0 1434 0 
Q 903 0 598 351 
Q 294 703 294 1319 
Q 294 1803 478 2267 
Q 663 2731 997 3091 
Q 1219 3328 1514 3456 
Q 1809 3584 2131 3584 
Q 2484 3584 2746 3420 
Q 3009 3256 3138 2956 
L 3238 3500 
L 3816 3500 
z
M 2950 2216 
Q 2950 2641 2750 2872 
Q 2550 3103 2181 3103 
Q 1953 3103 1747 3012 
Q 1541 2922 1394 2759 
Q 1156 2491 1023 2127 
Q 891 1763 891 1375 
Q 891 944 1092 712 
Q 1294 481 1672 481 
Q 2219 481 2584 976 
Q 2950 1472 2950 2216 
z
" transform="scale(0.015625)"/>
      <path id="DejaVuSans-Oblique-58" d="M 428 1388 
L 838 3500 
L 1416 3500 
L 1006 1409 
Q 975 1256 961 1147 
Q 947 1038 947 966 
Q 947 700 1109 554 
Q 1272 409 1569 409 
Q 2031 409 2368 721 
Q 2706 1034 2809 1563 
L 3194 3500 
L 3769 3500 
L 3091 0 
L 2516 0 
L 2631 550 
Q 2388 244 2052 76 
Q 1716 -91 1338 -91 
Q 878 -91 622 161 
Q 366 413 366 863 
Q 366 956 381 1097 
Q 397 1238 428 1388 
z
" transform="scale(0.015625)"/>
      <path id="DejaVuSans-Oblique-55" d="M 2853 2969 
Q 2766 3016 2653 3041 
Q 2541 3066 2413 3066 
Q 1953 3066 1609 2717 
Q 1266 2369 1153 1784 
L 800 0 
L 225 0 
L 909 3500 
L 1484 3500 
L 1375 2956 
Q 1603 3259 1920 3421 
Q 2238 3584 2597 3584 
Q 2691 3584 2781 3573 
Q 2872 3563 2963 3538 
L 2853 2969 
z
" transform="scale(0.015625)"/>
      <path id="DejaVuSans-Oblique-48" d="M 3078 2063 
Q 3088 2113 3092 2166 
Q 3097 2219 3097 2272 
Q 3097 2653 2873 2875 
Q 2650 3097 2266 3097 
Q 1838 3097 1509 2826 
Q 1181 2556 1013 2059 
L 3078 2063 
z
M 3578 1613 
L 903 1613 
Q 884 1494 878 1425 
Q 872 1356 872 1306 
Q 872 872 1139 634 
Q 1406 397 1894 397 
Q 2269 397 2603 481 
Q 2938 566 3225 728 
L 3116 159 
Q 2806 34 2476 -28 
Q 2147 -91 1806 -91 
Q 1078 -91 686 257 
Q 294 606 294 1247 
Q 294 1794 489 2264 
Q 684 2734 1063 3103 
Q 1306 3334 1642 3459 
Q 1978 3584 2356 3584 
Q 2950 3584 3301 3228 
Q 3653 2872 3653 2272 
Q 3653 2128 3634 1964 
Q 3616 1800 3578 1613 
z
" transform="scale(0.015625)"/>
      <path id="DejaVuSans-Oblique-3" transform="scale(0.015625)"/>
      <path id="DejaVuSans-Oblique-25" d="M 1081 4666 
L 2694 4666 
Q 3350 4666 3675 4422 
Q 4000 4178 4000 3688 
Q 4000 3238 3720 2911 
Q 3441 2584 2988 2516 
Q 3375 2428 3569 2181 
Q 3763 1934 3763 1522 
Q 3763 819 3242 409 
Q 2722 0 1819 0 
L 172 0 
L 1081 4666 
z
M 1234 2228 
L 903 519 
L 1919 519 
Q 2491 519 2800 781 
Q 3109 1044 3109 1522 
Q 3109 1891 2904 2059 
Q 2700 2228 2247 2228 
L 1234 2228 
z
M 1606 4147 
L 1331 2741 
L 2272 2741 
Q 2775 2741 3058 2959 
Q 3341 3178 3341 3566 
Q 3341 3869 3150 4008 
Q 2959 4147 2541 4147 
L 1606 4147 
z
" transform="scale(0.015625)"/>
      <path id="DejaVuSans-Oblique-11" d="M 525 794 
L 1184 794 
L 1031 0 
L 372 0 
L 525 794 
z
" transform="scale(0.015625)"/>
      <path id="DejaVuSans-Oblique-14" d="M 416 531 
L 1447 531 
L 2144 4122 
L 978 3897 
L 1088 4441 
L 2247 4666 
L 2881 4666 
L 2075 531 
L 3103 531 
L 3003 0 
L 313 0 
L 416 531 
z
" transform="scale(0.015625)"/>
      <path id="DejaVuSans-Oblique-13" d="M 2444 4750 
Q 3078 4750 3414 4328 
Q 3750 3906 3750 3116 
Q 3750 2516 3592 1923 
Q 3434 1331 3150 863 
Q 2859 394 2467 151 
Q 2075 -91 1600 -91 
Q 988 -91 653 334 
Q 319 759 319 1544 
Q 319 2138 480 2733 
Q 641 3328 928 3794 
Q 1216 4263 1602 4506 
Q 1988 4750 2444 4750 
z
M 2406 4250 
Q 2169 4250 1955 4123 
Q 1741 3997 1569 3750 
Q 1281 3338 1111 2720 
Q 941 2103 941 1453 
Q 941 938 1123 673 
Q 1306 409 1663 409 
Q 1913 409 2125 536 
Q 2338 663 2509 909 
Q 2794 1319 2961 1936 
Q 3128 2553 3128 3206 
Q 3128 3722 2945 3986 
Q 2763 4250 2406 4250 
z
" transform="scale(0.015625)"/>
      <path id="DejaVuSansDisplay-4" d="M 313 1978 
L 6088 1978 
L 6088 1528 
L 313 1528 
L 313 1978 
z
" transform="scale(0.015625)"/>
      <path id="DejaVuSans-Oblique-27" d="M 1081 4666 
L 2438 4666 
Q 3519 4666 4070 4208 
Q 4622 3750 4622 2847 
Q 4622 2250 4412 1698 
Q 4203 1147 3834 769 
Q 3463 381 2891 190 
Q 2319 0 1538 0 
L 172 0 
L 1081 4666 
z
M 1613 4147 
L 909 519 
L 1734 519 
Q 2794 519 3375 1128 
Q 3956 1738 3956 2847 
Q 3956 3519 3581 3833 
Q 3206 4147 2406 4147 
L 1613 4147 
z
" transform="scale(0.015625)"/>
      <path id="DejaVuSans-Oblique-46" d="M 3431 3366 
L 3316 2797 
Q 3109 2947 2876 3022 
Q 2644 3097 2394 3097 
Q 2119 3097 1870 3000 
Q 1622 2903 1453 2725 
Q 1184 2453 1037 2087 
Q 891 1722 891 1331 
Q 891 859 1127 628 
Q 1363 397 1844 397 
Q 2081 397 2348 469 
Q 2616 541 2906 684 
L 2797 116 
Q 2547 13 2283 -39 
Q 2019 -91 1741 -91 
Q 1044 -91 669 257 
Q 294 606 294 1253 
Q 294 1797 489 2255 
Q 684 2713 1069 3078 
Q 1331 3328 1684 3456 
Q 2038 3584 2456 3584 
Q 2700 3584 2940 3529 
Q 3181 3475 3431 3366 
z
" transform="scale(0.015625)"/>
      <path id="DejaVuSans-Oblique-4b" d="M 3566 2113 
L 3156 0 
L 2578 0 
L 2988 2091 
Q 3016 2238 3031 2350 
Q 3047 2463 3047 2528 
Q 3047 2791 2881 2937 
Q 2716 3084 2419 3084 
Q 1956 3084 1617 2771 
Q 1278 2459 1178 1941 
L 800 0 
L 225 0 
L 1172 4863 
L 1747 4863 
L 1375 2950 
Q 1594 3244 1934 3414 
Q 2275 3584 2650 3584 
Q 3113 3584 3367 3334 
Q 3622 3084 3622 2631 
Q 3622 2519 3608 2391 
Q 3594 2263 3566 2113 
z
" transform="scale(0.015625)"/>
      <path id="DejaVuSans-Oblique-4f" d="M 1172 4863 
L 1747 4863 
L 800 0 
L 225 0 
L 1172 4863 
z
" transform="scale(0.015625)"/>
      <path id="DejaVuSans-Oblique-57" d="M 2706 3500 
L 2619 3053 
L 1472 3053 
L 1100 1153 
Q 1081 1047 1072 975 
Q 1063 903 1063 863 
Q 1063 663 1183 572 
Q 1303 481 1569 481 
L 2150 481 
L 2053 0 
L 1503 0 
Q 991 0 739 200 
Q 488 400 488 806 
Q 488 878 497 964 
Q 506 1050 525 1153 
L 897 3053 
L 409 3053 
L 500 3500 
L 978 3500 
L 1172 4494 
L 1747 4494 
L 1556 3500 
L 2706 3500 
z
" transform="scale(0.015625)"/>
      <path id="DejaVuSans-Oblique-4e" d="M 1172 4863 
L 1747 4863 
L 1197 2028 
L 3169 3500 
L 3916 3500 
L 1716 1825 
L 3322 0 
L 2625 0 
L 1131 1709 
L 800 0 
L 225 0 
L 1172 4863 
z
" transform="scale(0.015625)"/>
      <path id="DejaVuSans-Oblique-51" d="M 3566 2113 
L 3156 0 
L 2578 0 
L 2988 2091 
Q 3016 2238 3031 2350 
Q 3047 2463 3047 2528 
Q 3047 2791 2881 2937 
Q 2716 3084 2419 3084 
Q 1956 3084 1622 2776 
Q 1288 2469 1184 1941 
L 800 0 
L 225 0 
L 903 3500 
L 1478 3500 
L 1363 2950 
Q 1603 3253 1940 3418 
Q 2278 3584 2650 3584 
Q 3113 3584 3367 3334 
Q 3622 3084 3622 2631 
Q 3622 2519 3608 2391 
Q 3594 2263 3566 2113 
z
" transform="scale(0.015625)"/>
      <path id="DejaVuSans-Oblique-5a" d="M 544 3500 
L 1113 3500 
L 1259 684 
L 2566 3500 
L 3231 3500 
L 3425 684 
L 4666 3500 
L 5241 3500 
L 3641 0 
L 2969 0 
L 2797 2900 
L 1459 0 
L 781 0 
L 544 3500 
z
" transform="scale(0.015625)"/>
      <path id="DejaVuSans-Oblique-59" d="M 459 3500 
L 1069 3500 
L 1581 525 
L 3256 3500 
L 3866 3500 
L 1875 0 
L 1100 0 
L 459 3500 
z
" transform="scale(0.015625)"/>
      <path id="DejaVuSans-Oblique-52" d="M 1625 -91 
Q 1009 -91 651 289 
Q 294 669 294 1325 
Q 294 1706 417 2101 
Q 541 2497 738 2766 
Q 1047 3184 1428 3384 
Q 1809 3584 2291 3584 
Q 2888 3584 3255 3212 
Q 3622 2841 3622 2241 
Q 3622 1825 3500 1412 
Q 3378 1000 3181 728 
Q 2875 309 2494 109 
Q 2113 -91 1625 -91 
z
M 891 1344 
Q 891 869 1089 633 
Q 1288 397 1691 397 
Q 2269 397 2648 901 
Q 3028 1406 3028 2181 
Q 3028 2634 2825 2865 
Q 2622 3097 2228 3097 
Q 1903 3097 1650 2945 
Q 1397 2794 1197 2484 
Q 1050 2253 970 1956 
Q 891 1659 891 1344 
z
" transform="scale(0.015625)"/>
      <path id="DejaVuSans-Oblique-53" d="M 3175 2156 
Q 3175 2616 2975 2859 
Q 2775 3103 2400 3103 
Q 2144 3103 1911 2972 
Q 1678 2841 1497 2591 
Q 1319 2344 1212 1994 
Q 1106 1644 1106 1300 
Q 1106 863 1306 627 
Q 1506 391 1875 391 
Q 2147 391 2380 519 
Q 2613 647 2778 891 
Q 2956 1147 3065 1494 
Q 3175 1841 3175 2156 
z
M 1394 2969 
Q 1625 3272 1939 3428 
Q 2253 3584 2638 3584 
Q 3175 3584 3472 3232 
Q 3769 2881 3769 2247 
Q 3769 1728 3584 1258 
Q 3400 788 3053 416 
Q 2822 169 2531 39 
Q 2241 -91 1919 -91 
Q 1547 -91 1294 64 
Q 1041 219 916 525 
L 556 -1331 
L -19 -1331 
L 922 3500 
L 1497 3500 
L 1394 2969 
z
" transform="scale(0.015625)"/>
      <path id="DejaVuSans-Oblique-b" d="M 2731 4856 
Q 1903 3822 1495 2892 
Q 1088 1963 1088 1100 
Q 1088 606 1206 120 
Q 1325 -366 1563 -844 
L 1063 -844 
Q 775 -306 634 201 
Q 494 709 494 1197 
Q 494 2125 923 3036 
Q 1353 3947 2222 4856 
L 2731 4856 
z
" transform="scale(0.015625)"/>
      <path id="DejaVuSans-Oblique-30" d="M 1081 4666 
L 2028 4666 
L 2572 1522 
L 4378 4666 
L 5350 4666 
L 4441 0 
L 3828 0 
L 4622 4091 
L 2791 897 
L 2175 897 
L 1581 4103 
L 788 0 
L 172 0 
L 1081 4666 
z
" transform="scale(0.015625)"/>
      <path id="DejaVuSans-20" d="M 678 2906 
L 4684 2906 
L 4684 2381 
L 678 2381 
L 678 2906 
z
M 678 1631 
L 4684 1631 
L 4684 1100 
L 678 1100 
L 678 1631 
z
" transform="scale(0.015625)"/>
      <path id="DejaVuSans-Oblique-c" d="M -397 -844 
Q 434 191 840 1120 
Q 1247 2050 1247 2913 
Q 1247 3406 1130 3892 
Q 1013 4378 775 4856 
L 1275 4856 
Q 1563 4316 1703 3812 
Q 1844 3309 1844 2822 
Q 1844 1891 1411 973 
Q 978 56 116 -844 
L -397 -844 
z
" transform="scale(0.015625)"/>
     </defs>
     <use xlink:href="#DejaVuSans-Oblique-29" transform="translate(0 0.015625)"/>
     <use xlink:href="#DejaVuSans-Oblique-4c" transform="translate(57.519531 0.015625)"/>
     <use xlink:href="#DejaVuSans-Oblique-4a" transform="translate(85.302734 0.015625)"/>
     <use xlink:href="#DejaVuSans-Oblique-58" transform="translate(148.779297 0.015625)"/>
     <use xlink:href="#DejaVuSans-Oblique-55" transform="translate(212.158203 0.015625)"/>
     <use xlink:href="#DejaVuSans-Oblique-48" transform="translate(253.271484 0.015625)"/>
     <use xlink:href="#DejaVuSans-Oblique-3" transform="translate(314.794922 0.015625)"/>
     <use xlink:href="#DejaVuSans-Oblique-25" transform="translate(346.582031 0.015625)"/>
     <use xlink:href="#DejaVuSans-Oblique-11" transform="translate(415.185547 0.015625)"/>
     <use xlink:href="#DejaVuSans-Oblique-14" transform="translate(446.972656 0.015625)"/>
     <use xlink:href="#DejaVuSans-Oblique-13" transform="translate(510.595703 0.015625)"/>
     <use xlink:href="#DejaVuSans-Oblique-3" transform="translate(574.21875 0.015625)"/>
     <use xlink:href="#DejaVuSansDisplay-4" transform="translate(606.005859 0.015625)"/>
     <use xlink:href="#DejaVuSans-Oblique-3" transform="translate(706.005859 0.015625)"/>
     <use xlink:href="#DejaVuSans-Oblique-27" transform="translate(737.792969 0.015625)"/>
     <use xlink:href="#DejaVuSans-Oblique-4c" transform="translate(814.794922 0.015625)"/>
     <use xlink:href="#DejaVuSans-Oblique-55" transform="translate(842.578125 0.015625)"/>
     <use xlink:href="#DejaVuSans-Oblique-4c" transform="translate(883.691406 0.015625)"/>
     <use xlink:href="#DejaVuSans-Oblique-46" transform="translate(911.474609 0.015625)"/>
     <use xlink:href="#DejaVuSans-Oblique-4b" transform="translate(966.455078 0.015625)"/>
     <use xlink:href="#DejaVuSans-Oblique-4f" transform="translate(1029.833984 0.015625)"/>
     <use xlink:href="#DejaVuSans-Oblique-48" transform="translate(1057.617188 0.015625)"/>
     <use xlink:href="#DejaVuSans-Oblique-57" transform="translate(1119.140625 0.015625)"/>
     <use xlink:href="#DejaVuSans-Oblique-3" transform="translate(1158.349609 0.015625)"/>
     <use xlink:href="#DejaVuSans-Oblique-4e" transform="translate(1190.136719 0.015625)"/>
     <use xlink:href="#DejaVuSans-Oblique-48" transform="translate(1248.046875 0.015625)"/>
     <use xlink:href="#DejaVuSans-Oblique-55" transform="translate(1309.570312 0.015625)"/>
     <use xlink:href="#DejaVuSans-Oblique-51" transform="translate(1350.683594 0.015625)"/>
     <use xlink:href="#DejaVuSans-Oblique-48" transform="translate(1414.0625 0.015625)"/>
     <use xlink:href="#DejaVuSans-Oblique-4f" transform="translate(1475.585938 0.015625)"/>
     <use xlink:href="#DejaVuSans-Oblique-3" transform="translate(1503.369141 0.015625)"/>
     <use xlink:href="#DejaVuSans-Oblique-5a" transform="translate(1535.15625 0.015625)"/>
     <use xlink:href="#DejaVuSans-Oblique-4c" transform="translate(1616.943359 0.015625)"/>
     <use xlink:href="#DejaVuSans-Oblique-57" transform="translate(1644.726562 0.015625)"/>
     <use xlink:href="#DejaVuSans-Oblique-4b" transform="translate(1683.935547 0.015625)"/>
     <use xlink:href="#DejaVuSans-Oblique-3" transform="translate(1747.314453 0.015625)"/>
     <use xlink:href="#DejaVuSans-Oblique-48" transform="translate(1779.101562 0.015625)"/>
     <use xlink:href="#DejaVuSans-Oblique-51" transform="translate(1840.625 0.015625)"/>
     <use xlink:href="#DejaVuSans-Oblique-59" transform="translate(1904.003906 0.015625)"/>
     <use xlink:href="#DejaVuSans-Oblique-48" transform="translate(1963.183594 0.015625)"/>
     <use xlink:href="#DejaVuSans-Oblique-4f" transform="translate(2024.707031 0.015625)"/>
     <use xlink:href="#DejaVuSans-Oblique-52" transform="translate(2052.490234 0.015625)"/>
     <use xlink:href="#DejaVuSans-Oblique-53" transform="translate(2113.671875 0.015625)"/>
     <use xlink:href="#DejaVuSans-Oblique-48" transform="translate(2177.148438 0.015625)"/>
     <use xlink:href="#DejaVuSans-Oblique-3" transform="translate(2238.671875 0.015625)"/>
     <use xlink:href="#DejaVuSans-Oblique-b" transform="translate(2270.458984 0.015625)"/>
     <use xlink:href="#DejaVuSans-Oblique-30" transform="translate(2309.472656 0.015625)"/>
     <use xlink:href="#DejaVuSans-20" transform="translate(2415.234375 0.015625)"/>
     <use xlink:href="#DejaVuSans-15" transform="translate(2518.505859 0.015625)"/>
     <use xlink:href="#DejaVuSans-18" transform="translate(2582.128906 0.015625)"/>
     <use xlink:href="#DejaVuSans-19" transform="translate(2645.751953 0.015625)"/>
     <use xlink:href="#DejaVuSans-Oblique-c" transform="translate(2709.375 0.015625)"/>
    </g>
   </g>
   <g id="legend_1">
    <g id="patch_5">
     <path d="M 832.251406 43.112109 
L 975.801406 43.112109 
Q 977.601406 43.112109 977.601406 41.312109 
L 977.601406 28.62 
Q 977.601406 26.82 975.801406 26.82 
L 832.251406 26.82 
Q 830.451406 26.82 830.451406 28.62 
L 830.451406 41.312109 
Q 830.451406 43.112109 832.251406 43.112109 
z
" style="fill: #ffffff; opacity: 0.8; stroke: #cccccc; stroke-linejoin: miter"/>
    </g>
    <g id="line2d_34">
     <path d="M 834.051406 34.2 
L 843.051406 34.2 
L 852.051406 34.2 
" style="fill: none; stroke-dasharray: 3.7,1.6; stroke-dashoffset: 0; stroke: #dc2626; stroke-opacity: 0.7"/>
    </g>
    <g id="text_19">
     <!-- Envelope: $1/(M\,|\sin(\omega/2)|)$ -->
     <g transform="translate(859.251406 37.35) scale(0.09 -0.09)">
      <defs>
       <path id="DejaVuSans-28" d="M 628 4666 
L 3578 4666 
L 3578 4134 
L 1259 4134 
L 1259 2753 
L 3481 2753 
L 3481 2222 
L 1259 2222 
L 1259 531 
L 3634 531 
L 3634 0 
L 628 0 
L 628 4666 
z
" transform="scale(0.015625)"/>
       <path id="DejaVuSans-59" d="M 191 3500 
L 800 3500 
L 1894 563 
L 2988 3500 
L 3597 3500 
L 2284 0 
L 1503 0 
L 191 3500 
z
" transform="scale(0.015625)"/>
       <path id="DejaVuSans-53" d="M 1159 525 
L 1159 -1331 
L 581 -1331 
L 581 3500 
L 1159 3500 
L 1159 2969 
Q 1341 3281 1617 3432 
Q 1894 3584 2278 3584 
Q 2916 3584 3314 3078 
Q 3713 2572 3713 1747 
Q 3713 922 3314 415 
Q 2916 -91 2278 -91 
Q 1894 -91 1617 61 
Q 1341 213 1159 525 
z
M 3116 1747 
Q 3116 2381 2855 2742 
Q 2594 3103 2138 3103 
Q 1681 3103 1420 2742 
Q 1159 2381 1159 1747 
Q 1159 1113 1420 752 
Q 1681 391 2138 391 
Q 2594 391 2855 752 
Q 3116 1113 3116 1747 
z
" transform="scale(0.015625)"/>
       <path id="DejaVuSans-1d" d="M 750 794 
L 1409 794 
L 1409 0 
L 750 0 
L 750 794 
z
M 750 3309 
L 1409 3309 
L 1409 2516 
L 750 2516 
L 750 3309 
z
" transform="scale(0.015625)"/>
       <path id="DejaVuSans-12" d="M 1625 4666 
L 2156 4666 
L 531 -594 
L 0 -594 
L 1625 4666 
z
" transform="scale(0.015625)"/>
       <path id="DejaVuSans-5f" d="M 1344 4891 
L 1344 -1509 
L 813 -1509 
L 813 4891 
L 1344 4891 
z
" transform="scale(0.015625)"/>
       <path id="DejaVuSans-Oblique-35d" d="M 1369 -91 
Q 72 -91 434 1766 
Q 575 2500 1256 3500 
L 1875 3500 
Q 1231 2500 1088 1750 
Q 819 397 1519 397 
Q 2166 397 2478 2078 
L 3009 2078 
Q 2669 388 3316 397 
Q 4013 403 4275 1750 
Q 4419 2500 4169 3500 
L 4788 3500 
Q 5075 2500 4934 1766 
Q 4578 -94 3278 -91 
Q 2428 -88 2503 844 
Q 2194 -91 1369 -91 
z
" transform="scale(0.015625)"/>
      </defs>
      <use xlink:href="#DejaVuSans-28" transform="translate(0 0.578125)"/>
      <use xlink:href="#DejaVuSans-51" transform="translate(63.183594 0.578125)"/>
      <use xlink:href="#DejaVuSans-59" transform="translate(126.5625 0.578125)"/>
      <use xlink:href="#DejaVuSans-48" transform="translate(185.742188 0.578125)"/>
      <use xlink:href="#DejaVuSans-4f" transform="translate(247.265625 0.578125)"/>
      <use xlink:href="#DejaVuSans-52" transform="translate(275.048828 0.578125)"/>
      <use xlink:href="#DejaVuSans-53" transform="translate(336.230469 0.578125)"/>
      <use xlink:href="#DejaVuSans-48" transform="translate(399.707031 0.578125)"/>
      <use xlink:href="#DejaVuSans-1d" transform="translate(461.230469 0.578125)"/>
      <use xlink:href="#DejaVuSans-3" transform="translate(494.921875 0.578125)"/>
      <use xlink:href="#DejaVuSans-14" transform="translate(526.708984 0.578125)"/>
      <use xlink:href="#DejaVuSans-12" transform="translate(590.332031 0.578125)"/>
      <use xlink:href="#DejaVuSans-b" transform="translate(624.023438 0.578125)"/>
      <use xlink:href="#DejaVuSans-Oblique-30" transform="translate(663.037109 0.578125)"/>
      <use xlink:href="#DejaVuSans-5f" transform="translate(765.552083 0.578125)"/>
      <use xlink:href="#DejaVuSans-56" transform="translate(799.243489 0.578125)"/>
      <use xlink:href="#DejaVuSans-4c" transform="translate(851.343098 0.578125)"/>
      <use xlink:href="#DejaVuSans-51" transform="translate(879.126301 0.578125)"/>
      <use xlink:href="#DejaVuSans-b" transform="translate(942.505208 0.578125)"/>
      <use xlink:href="#DejaVuSans-Oblique-35d" transform="translate(981.518879 0.578125)"/>
      <use xlink:href="#DejaVuSans-12" transform="translate(1065.259114 0.578125)"/>
      <use xlink:href="#DejaVuSans-15" transform="translate(1098.95052 0.578125)"/>
      <use xlink:href="#DejaVuSans-c" transform="translate(1162.573567 0.578125)"/>
      <use xlink:href="#DejaVuSans-5f" transform="translate(1201.587239 0.578125)"/>
      <use xlink:href="#DejaVuSans-c" transform="translate(1235.278645 0.578125)"/>
     </g>
    </g>
   </g>
  </g>
 </g>
 <defs>
  <clipPath id="p6db6509d2b">
   <rect x="45.103984" y="22.32" width="936.997422" height="291.155078"/>
  </clipPath>
 </defs>
</svg>
