<?xml version="1.0" encoding="utf-8" standalone="no"?>
<!DOCTYPE svg PUBLIC "-//W3C//DTD SVG 1.1//EN"
  "http://www.w3.org/Graphics/SVG/1.1/DTD/svg11.dtd">
<svg xmlns:xlink="http://www.w3.org/1999/xlink" width="856.52125pt" height="208.634219pt" viewBox="0 0 856.52125 208.634219" xmlns="http://www.w3.org/2000/svg" version="1.1">
 <metadata>
  <rdf:RDF xmlns:dc="http://purl.org/dc/elements/1.1/" xmlns:cc="http://creativecommons.org/ns#" xmlns:rdf="http://www.w3.org/1999/02/22-rdf-syntax-ns#">
   <cc:Work>
    <dc:type rdf:resource="http://purl.org/dc/dcmitype/StillImage"/>
    <dc:date>2026-06-20T20:05:37.040221</dc:date>
    <dc:format>image/svg+xml</dc:format>
    <dc:creator>
     <cc:Agent>
      <dc:title>Matplotlib v3.11.0, https://matplotlib.org/</dc:title>
     </cc:Agent>
    </dc:creator>
   </cc:Work>
  </rdf:RDF>
 </metadata>
 <defs>
  <style type="text/css">*{stroke-linejoin: round; stroke-linecap: butt}</style>
 </defs>
 <g id="figure_1">
  <g id="patch_1">
   <path d="M 0 208.634219 
L 856.52125 208.634219 
L 856.52125 0 
L 0 0 
z
" style="fill: #ffffff"/>
  </g>
  <g id="axes_1">
   <g id="patch_2">
    <path d="M 52.483594 170.433438 
L 849.32125 170.433438 
L 849.32125 22.318125 
L 52.483594 22.318125 
z
" style="fill: #ffffff"/>
   </g>
   <g id="matplotlib.axis_1">
    <g id="xtick_1">
     <g id="line2d_1">
      <path d="M 88.703487 170.433438 
L 88.703487 22.318125 
" clip-path="url(#p276c84f085)" style="fill: none; stroke: #b0b0b0; stroke-opacity: 0.3; stroke-width: 0.8; stroke-linecap: square"/>
     </g>
     <g id="line2d_2">
      <defs>
       <path id="mfb4d2b770c" d="M 0 0 
L 0 3.5 
" style="stroke: #000000; stroke-width: 0.8"/>
      </defs>
      <g>
       <use xlink:href="#mfb4d2b770c" x="88.703487" y="170.433438" style="stroke: #000000; stroke-width: 0.8"/>
      </g>
     </g>
     <g id="text_1">
      <!-- 0 -->
      <g transform="translate(85.522237 185.031094) scale(0.1 -0.1)">
       <defs>
        <path id="DejaVuSans-13" d="M 2034 4250 
Q 1547 4250 1301 3770 
Q 1056 3291 1056 2328 
Q 1056 1369 1301 889 
Q 1547 409 2034 409 
Q 2525 409 2770 889 
Q 3016 1369 3016 2328 
Q 3016 3291 2770 3770 
Q 2525 4250 2034 4250 
z
M 2034 4750 
Q 2819 4750 3233 4129 
Q 3647 3509 3647 2328 
Q 3647 1150 3233 529 
Q 2819 -91 2034 -91 
Q 1250 -91 836 529 
Q 422 1150 422 2328 
Q 422 3509 836 4129 
Q 1250 4750 2034 4750 
z
" transform="scale(0.015625)"/>
       </defs>
       <use xlink:href="#DejaVuSans-13"/>
      </g>
     </g>
    </g>
    <g id="xtick_2">
     <g id="line2d_3">
      <path d="M 233.583061 170.433438 
L 233.583061 22.318125 
" clip-path="url(#p276c84f085)" style="fill: none; stroke: #b0b0b0; stroke-opacity: 0.3; stroke-width: 0.8; stroke-linecap: square"/>
     </g>
     <g id="line2d_4">
      <g>
       <use xlink:href="#mfb4d2b770c" x="233.583061" y="170.433438" style="stroke: #000000; stroke-width: 0.8"/>
      </g>
     </g>
     <g id="text_2">
      <!-- 1 -->
      <g transform="translate(230.401811 185.031094) scale(0.1 -0.1)">
       <defs>
        <path id="DejaVuSans-14" d="M 794 531 
L 1825 531 
L 1825 4091 
L 703 3866 
L 703 4441 
L 1819 4666 
L 2450 4666 
L 2450 531 
L 3481 531 
L 3481 0 
L 794 0 
L 794 531 
z
" transform="scale(0.015625)"/>
       </defs>
       <use xlink:href="#DejaVuSans-14"/>
      </g>
     </g>
    </g>
    <g id="xtick_3">
     <g id="line2d_5">
      <path d="M 378.462635 170.433438 
L 378.462635 22.318125 
" clip-path="url(#p276c84f085)" style="fill: none; stroke: #b0b0b0; stroke-opacity: 0.3; stroke-width: 0.8; stroke-linecap: square"/>
     </g>
     <g id="line2d_6">
      <g>
       <use xlink:href="#mfb4d2b770c" x="378.462635" y="170.433438" style="stroke: #000000; stroke-width: 0.8"/>
      </g>
     </g>
     <g id="text_3">
      <!-- 2 -->
      <g transform="translate(375.281385 185.031094) scale(0.1 -0.1)">
       <defs>
        <path id="DejaVuSans-15" d="M 1228 531 
L 3431 531 
L 3431 0 
L 469 0 
L 469 531 
Q 828 903 1448 1529 
Q 2069 2156 2228 2338 
Q 2531 2678 2651 2914 
Q 2772 3150 2772 3378 
Q 2772 3750 2511 3984 
Q 2250 4219 1831 4219 
Q 1534 4219 1204 4116 
Q 875 4013 500 3803 
L 500 4441 
Q 881 4594 1212 4672 
Q 1544 4750 1819 4750 
Q 2544 4750 2975 4387 
Q 3406 4025 3406 3419 
Q 3406 3131 3298 2873 
Q 3191 2616 2906 2266 
Q 2828 2175 2409 1742 
Q 1991 1309 1228 531 
z
" transform="scale(0.015625)"/>
       </defs>
       <use xlink:href="#DejaVuSans-15"/>
      </g>
     </g>
    </g>
    <g id="xtick_4">
     <g id="line2d_7">
      <path d="M 523.342209 170.433438 
L 523.342209 22.318125 
" clip-path="url(#p276c84f085)" style="fill: none; stroke: #b0b0b0; stroke-opacity: 0.3; stroke-width: 0.8; stroke-linecap: square"/>
     </g>
     <g id="line2d_8">
      <g>
       <use xlink:href="#mfb4d2b770c" x="523.342209" y="170.433438" style="stroke: #000000; stroke-width: 0.8"/>
      </g>
     </g>
     <g id="text_4">
      <!-- 3 -->
      <g transform="translate(520.160959 185.031094) scale(0.1 -0.1)">
       <defs>
        <path id="DejaVuSans-16" d="M 2597 2516 
Q 3050 2419 3304 2112 
Q 3559 1806 3559 1356 
Q 3559 666 3084 287 
Q 2609 -91 1734 -91 
Q 1441 -91 1130 -33 
Q 819 25 488 141 
L 488 750 
Q 750 597 1062 519 
Q 1375 441 1716 441 
Q 2309 441 2620 675 
Q 2931 909 2931 1356 
Q 2931 1769 2642 2001 
Q 2353 2234 1838 2234 
L 1294 2234 
L 1294 2753 
L 1863 2753 
Q 2328 2753 2575 2939 
Q 2822 3125 2822 3475 
Q 2822 3834 2567 4026 
Q 2313 4219 1838 4219 
Q 1578 4219 1281 4162 
Q 984 4106 628 3988 
L 628 4550 
Q 988 4650 1302 4700 
Q 1616 4750 1894 4750 
Q 2613 4750 3031 4423 
Q 3450 4097 3450 3541 
Q 3450 3153 3228 2886 
Q 3006 2619 2597 2516 
z
" transform="scale(0.015625)"/>
       </defs>
       <use xlink:href="#DejaVuSans-16"/>
      </g>
     </g>
    </g>
    <g id="xtick_5">
     <g id="line2d_9">
      <path d="M 668.221783 170.433438 
L 668.221783 22.318125 
" clip-path="url(#p276c84f085)" style="fill: none; stroke: #b0b0b0; stroke-opacity: 0.3; stroke-width: 0.8; stroke-linecap: square"/>
     </g>
     <g id="line2d_10">
      <g>
       <use xlink:href="#mfb4d2b770c" x="668.221783" y="170.433438" style="stroke: #000000; stroke-width: 0.8"/>
      </g>
     </g>
     <g id="text_5">
      <!-- 4 -->
      <g transform="translate(665.040533 185.031094) scale(0.1 -0.1)">
       <defs>
        <path id="DejaVuSans-17" d="M 2419 4116 
L 825 1625 
L 2419 1625 
L 2419 4116 
z
M 2253 4666 
L 3047 4666 
L 3047 1625 
L 3713 1625 
L 3713 1100 
L 3047 1100 
L 3047 0 
L 2419 0 
L 2419 1100 
L 313 1100 
L 313 1709 
L 2253 4666 
z
" transform="scale(0.015625)"/>
       </defs>
       <use xlink:href="#DejaVuSans-17"/>
      </g>
     </g>
    </g>
    <g id="xtick_6">
     <g id="line2d_11">
      <path d="M 813.101357 170.433438 
L 813.101357 22.318125 
" clip-path="url(#p276c84f085)" style="fill: none; stroke: #b0b0b0; stroke-opacity: 0.3; stroke-width: 0.8; stroke-linecap: square"/>
     </g>
     <g id="line2d_12">
      <g>
       <use xlink:href="#mfb4d2b770c" x="813.101357" y="170.433438" style="stroke: #000000; stroke-width: 0.8"/>
      </g>
     </g>
     <g id="text_6">
      <!-- 5 -->
      <g transform="translate(809.920107 185.031094) scale(0.1 -0.1)">
       <defs>
        <path id="DejaVuSans-18" d="M 691 4666 
L 3169 4666 
L 3169 4134 
L 1269 4134 
L 1269 2991 
Q 1406 3038 1543 3061 
Q 1681 3084 1819 3084 
Q 2600 3084 3056 2656 
Q 3513 2228 3513 1497 
Q 3513 744 3044 326 
Q 2575 -91 1722 -91 
Q 1428 -91 1123 -41 
Q 819 9 494 109 
L 494 744 
Q 775 591 1075 516 
Q 1375 441 1709 441 
Q 2250 441 2565 725 
Q 2881 1009 2881 1497 
Q 2881 1984 2565 2268 
Q 2250 2553 1709 2553 
Q 1456 2553 1204 2497 
Q 953 2441 691 2322 
L 691 4666 
z
" transform="scale(0.015625)"/>
       </defs>
       <use xlink:href="#DejaVuSans-18"/>
      </g>
     </g>
    </g>
    <g id="text_7">
     <!-- Time (s) -->
     <g transform="translate(430.571172 199.031875) scale(0.1 -0.1)">
      <defs>
       <path id="DejaVuSans-37" d="M -19 4666 
L 3928 4666 
L 3928 4134 
L 2272 4134 
L 2272 0 
L 1638 0 
L 1638 4134 
L -19 4134 
L -19 4666 
z
" transform="scale(0.015625)"/>
       <path id="DejaVuSans-4c" d="M 603 3500 
L 1178 3500 
L 1178 0 
L 603 0 
L 603 3500 
z
M 603 4863 
L 1178 4863 
L 1178 4134 
L 603 4134 
L 603 4863 
z
" transform="scale(0.015625)"/>
       <path id="DejaVuSans-50" d="M 3328 2828 
Q 3544 3216 3844 3400 
Q 4144 3584 4550 3584 
Q 5097 3584 5394 3201 
Q 5691 2819 5691 2113 
L 5691 0 
L 5113 0 
L 5113 2094 
Q 5113 2597 4934 2840 
Q 4756 3084 4391 3084 
Q 3944 3084 3684 2787 
Q 3425 2491 3425 1978 
L 3425 0 
L 2847 0 
L 2847 2094 
Q 2847 2600 2669 2842 
Q 2491 3084 2119 3084 
Q 1678 3084 1418 2786 
Q 1159 2488 1159 1978 
L 1159 0 
L 581 0 
L 581 3500 
L 1159 3500 
L 1159 2956 
Q 1356 3278 1631 3431 
Q 1906 3584 2284 3584 
Q 2666 3584 2933 3390 
Q 3200 3197 3328 2828 
z
" transform="scale(0.015625)"/>
       <path id="DejaVuSans-48" d="M 3597 1894 
L 3597 1613 
L 953 1613 
Q 991 1019 1311 708 
Q 1631 397 2203 397 
Q 2534 397 2845 478 
Q 3156 559 3463 722 
L 3463 178 
Q 3153 47 2828 -22 
Q 2503 -91 2169 -91 
Q 1331 -91 842 396 
Q 353 884 353 1716 
Q 353 2575 817 3079 
Q 1281 3584 2069 3584 
Q 2775 3584 3186 3129 
Q 3597 2675 3597 1894 
z
M 3022 2063 
Q 3016 2534 2758 2815 
Q 2500 3097 2075 3097 
Q 1594 3097 1305 2825 
Q 1016 2553 972 2059 
L 3022 2063 
z
" transform="scale(0.015625)"/>
       <path id="DejaVuSans-3" transform="scale(0.015625)"/>
       <path id="DejaVuSans-b" d="M 1984 4856 
Q 1566 4138 1362 3434 
Q 1159 2731 1159 2009 
Q 1159 1288 1364 580 
Q 1569 -128 1984 -844 
L 1484 -844 
Q 1016 -109 783 600 
Q 550 1309 550 2009 
Q 550 2706 781 3412 
Q 1013 4119 1484 4856 
L 1984 4856 
z
" transform="scale(0.015625)"/>
       <path id="DejaVuSans-56" d="M 2834 3397 
L 2834 2853 
Q 2591 2978 2328 3040 
Q 2066 3103 1784 3103 
Q 1356 3103 1142 2972 
Q 928 2841 928 2578 
Q 928 2378 1081 2264 
Q 1234 2150 1697 2047 
L 1894 2003 
Q 2506 1872 2764 1633 
Q 3022 1394 3022 966 
Q 3022 478 2636 193 
Q 2250 -91 1575 -91 
Q 1294 -91 989 -36 
Q 684 19 347 128 
L 347 722 
Q 666 556 975 473 
Q 1284 391 1588 391 
Q 1994 391 2212 530 
Q 2431 669 2431 922 
Q 2431 1156 2273 1281 
Q 2116 1406 1581 1522 
L 1381 1569 
Q 847 1681 609 1914 
Q 372 2147 372 2553 
Q 372 3047 722 3315 
Q 1072 3584 1716 3584 
Q 2034 3584 2315 3537 
Q 2597 3491 2834 3397 
z
" transform="scale(0.015625)"/>
       <path id="DejaVuSans-c" d="M 513 4856 
L 1013 4856 
Q 1481 4119 1714 3412 
Q 1947 2706 1947 2009 
Q 1947 1309 1714 600 
Q 1481 -109 1013 -844 
L 513 -844 
Q 928 -128 1133 580 
Q 1338 1288 1338 2009 
Q 1338 2731 1133 3434 
Q 928 4138 513 4856 
z
" transform="scale(0.015625)"/>
      </defs>
      <use xlink:href="#DejaVuSans-37"/>
      <use xlink:href="#DejaVuSans-4c" transform="translate(58 0)"/>
      <use xlink:href="#DejaVuSans-50" transform="translate(85.78125 0)"/>
      <use xlink:href="#DejaVuSans-48" transform="translate(183.1875 0)"/>
      <use xlink:href="#DejaVuSans-3" transform="translate(244.71875 0)"/>
      <use xlink:href="#DejaVuSans-b" transform="translate(276.5 0)"/>
      <use xlink:href="#DejaVuSans-56" transform="translate(315.515625 0)"/>
      <use xlink:href="#DejaVuSans-c" transform="translate(367.609375 0)"/>
     </g>
    </g>
   </g>
   <g id="matplotlib.axis_2">
    <g id="ytick_1">
     <g id="line2d_13">
      <path d="M 52.483594 163.700923 
L 849.32125 163.700923 
" clip-path="url(#p276c84f085)" style="fill: none; stroke: #b0b0b0; stroke-opacity: 0.3; stroke-width: 0.8; stroke-linecap: square"/>
     </g>
     <g id="line2d_14">
      <defs>
       <path id="mb0ac2ef3e9" d="M 0 0 
L -3.5 0 
" style="stroke: #000000; stroke-width: 0.8"/>
      </defs>
      <g>
       <use xlink:href="#mb0ac2ef3e9" x="52.483594" y="163.700923" style="stroke: #000000; stroke-width: 0.8"/>
      </g>
     </g>
     <g id="text_8">
      <!-- −1.0 -->
      <g transform="translate(21.200781 167.499751) scale(0.1 -0.1)">
       <defs>
        <path id="DejaVuSans-c9c" d="M 678 2272 
L 4684 2272 
L 4684 1741 
L 678 1741 
L 678 2272 
z
" transform="scale(0.015625)"/>
        <path id="DejaVuSans-11" d="M 684 794 
L 1344 794 
L 1344 0 
L 684 0 
L 684 794 
z
" transform="scale(0.015625)"/>
       </defs>
       <use xlink:href="#DejaVuSans-c9c"/>
       <use xlink:href="#DejaVuSans-14" transform="translate(83.796875 0)"/>
       <use xlink:href="#DejaVuSans-11" transform="translate(147.421875 0)"/>
       <use xlink:href="#DejaVuSans-13" transform="translate(179.203125 0)"/>
      </g>
     </g>
    </g>
    <g id="ytick_2">
     <g id="line2d_15">
      <path d="M 52.483594 130.038352 
L 849.32125 130.038352 
" clip-path="url(#p276c84f085)" style="fill: none; stroke: #b0b0b0; stroke-opacity: 0.3; stroke-width: 0.8; stroke-linecap: square"/>
     </g>
     <g id="line2d_16">
      <g>
       <use xlink:href="#mb0ac2ef3e9" x="52.483594" y="130.038352" style="stroke: #000000; stroke-width: 0.8"/>
      </g>
     </g>
     <g id="text_9">
      <!-- −0.5 -->
      <g transform="translate(21.200781 133.83718) scale(0.1 -0.1)">
       <use xlink:href="#DejaVuSans-c9c"/>
       <use xlink:href="#DejaVuSans-13" transform="translate(83.796875 0)"/>
       <use xlink:href="#DejaVuSans-11" transform="translate(147.421875 0)"/>
       <use xlink:href="#DejaVuSans-18" transform="translate(179.203125 0)"/>
      </g>
     </g>
    </g>
    <g id="ytick_3">
     <g id="line2d_17">
      <path d="M 52.483594 96.375781 
L 849.32125 96.375781 
" clip-path="url(#p276c84f085)" style="fill: none; stroke: #b0b0b0; stroke-opacity: 0.3; stroke-width: 0.8; stroke-linecap: square"/>
     </g>
     <g id="line2d_18">
      <g>
       <use xlink:href="#mb0ac2ef3e9" x="52.483594" y="96.375781" style="stroke: #000000; stroke-width: 0.8"/>
      </g>
     </g>
     <g id="text_10">
      <!-- 0.0 -->
      <g transform="translate(29.580469 100.174609) scale(0.1 -0.1)">
       <use xlink:href="#DejaVuSans-13"/>
       <use xlink:href="#DejaVuSans-11" transform="translate(63.625 0)"/>
       <use xlink:href="#DejaVuSans-13" transform="translate(95.40625 0)"/>
      </g>
     </g>
    </g>
    <g id="ytick_4">
     <g id="line2d_19">
      <path d="M 52.483594 62.71321 
L 849.32125 62.71321 
" clip-path="url(#p276c84f085)" style="fill: none; stroke: #b0b0b0; stroke-opacity: 0.3; stroke-width: 0.8; stroke-linecap: square"/>
     </g>
     <g id="line2d_20">
      <g>
       <use xlink:href="#mb0ac2ef3e9" x="52.483594" y="62.71321" style="stroke: #000000; stroke-width: 0.8"/>
      </g>
     </g>
     <g id="text_11">
      <!-- 0.5 -->
      <g transform="translate(29.580469 66.512038) scale(0.1 -0.1)">
       <use xlink:href="#DejaVuSans-13"/>
       <use xlink:href="#DejaVuSans-11" transform="translate(63.625 0)"/>
       <use xlink:href="#DejaVuSans-18" transform="translate(95.40625 0)"/>
      </g>
     </g>
    </g>
    <g id="ytick_5">
     <g id="line2d_21">
      <path d="M 52.483594 29.050639 
L 849.32125 29.050639 
" clip-path="url(#p276c84f085)" style="fill: none; stroke: #b0b0b0; stroke-opacity: 0.3; stroke-width: 0.8; stroke-linecap: square"/>
     </g>
     <g id="line2d_22">
      <g>
       <use xlink:href="#mb0ac2ef3e9" x="52.483594" y="29.050639" style="stroke: #000000; stroke-width: 0.8"/>
      </g>
     </g>
     <g id="text_12">
      <!-- 1.0 -->
      <g transform="translate(29.580469 32.849467) scale(0.1 -0.1)">
       <use xlink:href="#DejaVuSans-14"/>
       <use xlink:href="#DejaVuSans-11" transform="translate(63.625 0)"/>
       <use xlink:href="#DejaVuSans-13" transform="translate(95.40625 0)"/>
      </g>
     </g>
    </g>
    <g id="text_13">
     <!-- Amplitude -->
     <g transform="translate(14.798438 121.998438) rotate(-90) scale(0.1 -0.1)">
      <defs>
       <path id="DejaVuSans-24" d="M 2188 4044 
L 1331 1722 
L 3047 1722 
L 2188 4044 
z
M 1831 4666 
L 2547 4666 
L 4325 0 
L 3669 0 
L 3244 1197 
L 1141 1197 
L 716 0 
L 50 0 
L 1831 4666 
z
" transform="scale(0.015625)"/>
       <path id="DejaVuSans-53" d="M 1159 525 
L 1159 -1331 
L 581 -1331 
L 581 3500 
L 1159 3500 
L 1159 2969 
Q 1341 3281 1617 3432 
Q 1894 3584 2278 3584 
Q 2916 3584 3314 3078 
Q 3713 2572 3713 1747 
Q 3713 922 3314 415 
Q 2916 -91 2278 -91 
Q 1894 -91 1617 61 
Q 1341 213 1159 525 
z
M 3116 1747 
Q 3116 2381 2855 2742 
Q 2594 3103 2138 3103 
Q 1681 3103 1420 2742 
Q 1159 2381 1159 1747 
Q 1159 1113 1420 752 
Q 1681 391 2138 391 
Q 2594 391 2855 752 
Q 3116 1113 3116 1747 
z
" transform="scale(0.015625)"/>
       <path id="DejaVuSans-4f" d="M 603 4863 
L 1178 4863 
L 1178 0 
L 603 0 
L 603 4863 
z
" transform="scale(0.015625)"/>
       <path id="DejaVuSans-57" d="M 1172 4494 
L 1172 3500 
L 2356 3500 
L 2356 3053 
L 1172 3053 
L 1172 1153 
Q 1172 725 1289 603 
Q 1406 481 1766 481 
L 2356 481 
L 2356 0 
L 1766 0 
Q 1100 0 847 248 
Q 594 497 594 1153 
L 594 3053 
L 172 3053 
L 172 3500 
L 594 3500 
L 594 4494 
L 1172 4494 
z
" transform="scale(0.015625)"/>
       <path id="DejaVuSans-58" d="M 544 1381 
L 544 3500 
L 1119 3500 
L 1119 1403 
Q 1119 906 1312 657 
Q 1506 409 1894 409 
Q 2359 409 2629 706 
Q 2900 1003 2900 1516 
L 2900 3500 
L 3475 3500 
L 3475 0 
L 2900 0 
L 2900 538 
Q 2691 219 2414 64 
Q 2138 -91 1772 -91 
Q 1169 -91 856 284 
Q 544 659 544 1381 
z
M 1991 3584 
L 1991 3584 
z
" transform="scale(0.015625)"/>
       <path id="DejaVuSans-47" d="M 2906 2969 
L 2906 4863 
L 3481 4863 
L 3481 0 
L 2906 0 
L 2906 525 
Q 2725 213 2448 61 
Q 2172 -91 1784 -91 
Q 1150 -91 751 415 
Q 353 922 353 1747 
Q 353 2572 751 3078 
Q 1150 3584 1784 3584 
Q 2172 3584 2448 3432 
Q 2725 3281 2906 2969 
z
M 947 1747 
Q 947 1113 1208 752 
Q 1469 391 1925 391 
Q 2381 391 2643 752 
Q 2906 1113 2906 1747 
Q 2906 2381 2643 2742 
Q 2381 3103 1925 3103 
Q 1469 3103 1208 2742 
Q 947 2381 947 1747 
z
" transform="scale(0.015625)"/>
      </defs>
      <use xlink:href="#DejaVuSans-24"/>
      <use xlink:href="#DejaVuSans-50" transform="translate(68.40625 0)"/>
      <use xlink:href="#DejaVuSans-53" transform="translate(165.8125 0)"/>
      <use xlink:href="#DejaVuSans-4f" transform="translate(229.296875 0)"/>
      <use xlink:href="#DejaVuSans-4c" transform="translate(257.078125 0)"/>
      <use xlink:href="#DejaVuSans-57" transform="translate(284.859375 0)"/>
      <use xlink:href="#DejaVuSans-58" transform="translate(324.0625 0)"/>
      <use xlink:href="#DejaVuSans-47" transform="translate(387.4375 0)"/>
      <use xlink:href="#DejaVuSans-48" transform="translate(450.921875 0)"/>
     </g>
    </g>
   </g>
   <g id="line2d_23">
    <path d="M 88.703487 29.050639 
L 89.283006 29.581659 
L 89.862524 31.166905 
L 90.442042 33.782185 
L 91.02156 37.387007 
L 92.180597 47.325673 
L 93.339634 60.362143 
L 95.078188 83.894409 
L 97.97578 125.302463 
L 99.134817 139.57142 
L 100.293853 151.106959 
L 100.873371 155.611297 
L 101.45289 159.172041 
L 102.032408 161.731619 
L 102.611926 163.248368 
L 103.191445 163.697232 
L 103.770963 163.070188 
L 104.350481 161.376412 
L 104.929999 158.64216 
L 105.509518 154.910379 
L 106.668554 144.705285 
L 107.827591 131.407243 
L 109.566146 107.552344 
L 112.463737 66.005956 
L 113.622774 51.87487 
L 114.781811 40.597532 
L 115.361329 36.265709 
L 115.940847 32.904217 
L 116.520365 30.568179 
L 117.099884 29.296195 
L 117.679402 29.109695 
L 118.25892 30.012553 
L 118.838439 31.990999 
L 119.417957 35.013802 
L 119.997475 39.03275 
L 121.156512 49.7861 
L 122.315548 63.560762 
L 124.054103 87.905249 
L 126.951695 129.407272 
L 128.110731 143.176743 
L 129.269768 153.904785 
L 129.849286 157.899156 
L 130.428804 160.887137 
L 131.008323 162.818988 
L 131.587841 163.662213 
L 132.167359 163.402132 
L 132.746878 162.042148 
L 133.326396 159.60373 
L 133.905914 156.126087 
L 134.485433 151.665562 
L 135.644469 140.10125 
L 136.803506 125.663558 
L 138.542061 100.72024 
L 140.860134 67.099178 
L 142.01917 52.628873 
L 143.178207 41.036486 
L 143.757725 36.568913 
L 144.337244 33.09183 
L 144.916762 30.663691 
L 145.49628 29.325614 
L 146.075798 29.100668 
L 146.655317 29.993458 
L 147.234835 31.99001 
L 147.814353 35.057973 
L 148.393872 39.147126 
L 149.552908 50.103859 
L 150.711945 64.138541 
L 152.4505 88.889803 
L 155.348091 130.744114 
L 156.507128 144.429586 
L 157.666164 154.911493 
L 158.245683 158.7208 
L 158.825201 161.48389 
L 159.404719 163.153518 
L 159.984238 163.700766 
L 160.563756 163.11556 
L 161.143274 161.406875 
L 161.722792 158.602618 
L 162.302311 154.749191 
L 163.461347 144.168129 
L 164.620384 130.368981 
L 166.358939 105.70169 
L 169.25653 63.378699 
L 170.415567 49.36685 
L 171.574603 38.527517 
L 172.154122 34.5382 
L 172.73364 31.59944 
L 173.313158 29.762046 
L 173.892677 29.058141 
L 174.472195 29.500587 
L 175.051713 31.082722 
L 175.631232 33.778447 
L 176.21075 37.542634 
L 176.790268 42.31186 
L 177.949305 54.526868 
L 179.108341 69.597373 
L 181.426414 104.085926 
L 183.164969 129.124786 
L 184.324006 143.258578 
L 185.483043 154.189392 
L 186.062561 158.208009 
L 186.642079 161.163179 
L 187.221597 163.003189 
L 187.801116 163.695479 
L 188.380634 163.227236 
L 188.960152 161.605652 
L 189.539671 158.857834 
L 190.119189 155.030375 
L 191.278226 144.415363 
L 192.437262 130.485756 
L 194.175817 105.513969 
L 197.073408 62.743499 
L 198.232445 48.693204 
L 199.391482 37.940646 
L 199.971 34.046102 
L 200.550518 31.236773 
L 201.130037 29.562464 
L 201.709555 29.053244 
L 202.289073 29.718885 
L 202.868591 31.548654 
L 203.44811 34.511466 
L 204.027628 38.556391 
L 205.186665 49.595097 
L 206.345701 63.901125 
L 208.084256 89.266592 
L 210.402329 124.119592 
L 211.561366 139.241749 
L 212.720402 151.365891 
L 213.299921 156.026492 
L 213.879439 159.636604 
L 214.458957 162.131753 
L 215.038476 163.467065 
L 215.617994 163.618085 
L 216.197512 162.581253 
L 216.777031 160.374001 
L 217.356549 157.034477 
L 217.936067 152.620915 
L 219.095104 140.898697 
L 220.25414 126.02868 
L 221.992695 100.152743 
L 224.310768 65.428491 
L 225.469805 50.746088 
L 226.628842 39.294376 
L 227.20836 35.046334 
L 227.787878 31.891597 
L 228.367396 29.887306 
L 228.946915 29.070126 
L 229.526433 29.455549 
L 230.105951 31.037587 
L 230.68547 33.788834 
L 231.264988 37.660926 
L 231.844506 42.585364 
L 233.003543 55.224126 
L 234.162579 70.808143 
L 238.798726 138.925204 
L 239.957762 151.251762 
L 240.537281 155.984072 
L 241.116799 159.641621 
L 241.696317 162.157555 
L 242.275836 163.485566 
L 242.855354 163.600761 
L 243.434872 162.500152 
L 244.01439 160.202751 
L 244.593909 156.749257 
L 245.173427 152.201365 
L 246.332464 140.167261 
L 247.4915 124.963837 
L 249.809573 89.580756 
L 251.548128 63.733274 
L 252.707165 49.19917 
L 253.866201 38.084604 
L 254.44572 34.075139 
L 255.025238 31.202689 
L 255.604756 29.520594 
L 256.184275 29.06049 
L 256.763793 29.831702 
L 257.343311 31.821024 
L 257.922829 34.992932 
L 258.502348 39.29019 
L 259.661384 50.929707 
L 260.820421 65.895265 
L 262.558976 92.148401 
L 264.877049 127.483249 
L 266.036086 142.369185 
L 267.195122 153.88368 
L 267.774641 158.09905 
L 268.354159 161.17513 
L 268.933677 163.054222 
L 269.513195 163.700693 
L 270.092714 163.101675 
L 270.672232 161.267338 
L 271.25175 158.230747 
L 271.831269 154.047281 
L 272.990305 142.56652 
L 274.149342 127.667176 
L 275.887897 101.358302 
L 278.20597 65.756544 
L 279.365006 50.708776 
L 280.524043 39.046349 
L 281.103561 34.768862 
L 281.68308 31.641421 
L 282.262598 29.723331 
L 282.842116 29.051354 
L 283.421634 29.638975 
L 284.001153 31.476116 
L 284.580671 34.529282 
L 285.160189 38.742147 
L 286.319226 50.314048 
L 287.478263 65.333359 
L 289.216817 91.828717 
L 291.534891 127.567253 
L 292.693927 142.589494 
L 293.852964 154.14715 
L 294.432482 158.341553 
L 295.012 161.366116 
L 295.591519 163.16281 
L 296.171037 163.696757 
L 296.750555 162.956934 
L 297.330074 160.95642 
L 297.909592 157.73219 
L 298.48911 153.344454 
L 299.648147 141.428447 
L 300.807183 126.102587 
L 302.545738 99.29537 
L 304.863811 63.567657 
L 306.022848 48.769717 
L 307.181885 37.581064 
L 307.761403 33.620284 
L 308.340921 30.85763 
L 308.920439 29.346782 
L 309.499958 29.117545 
L 310.079476 30.175231 
L 310.658994 32.500526 
L 311.238513 36.049807 
L 311.818031 40.755948 
L 312.977068 53.260664 
L 314.136104 69.065365 
L 316.454177 105.595547 
L 318.192732 131.796573 
L 319.351769 146.146109 
L 320.510805 156.679703 
L 321.090324 160.247471 
L 321.669842 162.582073 
L 322.24936 163.637491 
L 322.828879 163.392394 
L 323.408397 161.850586 
L 323.987915 159.040982 
L 324.567433 155.01708 
L 325.146952 149.855976 
L 326.305988 136.539342 
L 327.465025 120.113895 
L 331.521653 57.434464 
L 332.68069 43.795481 
L 333.260208 38.449759 
L 333.839726 34.233246 
L 334.419244 31.229081 
L 334.998763 29.496819 
L 335.578281 29.071226 
L 336.157799 29.961562 
L 336.737318 32.15135 
L 337.316836 35.598662 
L 337.896354 40.236894 
L 339.055391 52.704375 
L 340.214427 68.586754 
L 342.532501 105.478204 
L 344.271056 131.954723 
L 345.430092 146.407357 
L 346.589129 156.940689 
L 347.168647 160.463414 
L 347.748165 162.721833 
L 348.327684 163.670443 
L 348.907202 163.289564 
L 349.48672 161.58578 
L 350.066238 158.591847 
L 350.645757 154.366089 
L 351.225275 148.991289 
L 352.384312 135.23792 
L 353.543348 118.41128 
L 357.599976 55.4056 
L 358.759013 42.137589 
L 359.338531 37.061102 
L 359.918049 33.166066 
L 360.497568 30.531016 
L 361.077086 29.209436 
L 361.656604 29.228644 
L 362.236123 30.589208 
L 362.815641 33.264885 
L 363.395159 37.203105 
L 363.974678 42.325981 
L 365.133714 55.697122 
L 366.292751 72.318129 
L 370.349379 135.89921 
L 371.508415 149.586213 
L 372.087934 154.889189 
L 372.667452 159.014553 
L 373.24697 161.878324 
L 373.826489 163.42186 
L 374.406007 163.613089 
L 374.985525 162.447198 
L 375.565043 159.946775 
L 376.144562 156.161397 
L 376.72408 151.166675 
L 377.883117 137.97238 
L 379.042153 121.420761 
L 383.6783 50.017076 
L 384.837336 38.143393 
L 385.416854 33.927393 
L 385.996373 30.982206 
L 386.575891 29.368734 
L 387.155409 29.120801 
L 387.734928 30.244421 
L 388.314446 32.71763 
L 388.893964 36.490886 
L 389.473483 41.48804 
L 390.632519 54.725984 
L 391.791556 71.360123 
L 396.427702 143.04439 
L 397.586739 154.871326 
L 398.166257 159.037682 
L 398.745775 161.915674 
L 399.325294 163.445157 
L 399.904812 163.59369 
L 400.48433 162.357249 
L 401.063848 159.760356 
L 401.643367 155.855622 
L 402.222885 150.722703 
L 403.381922 137.216049 
L 404.540958 120.34491 
L 408.597586 55.937522 
L 409.756623 42.298418 
L 410.336141 37.09529 
L 410.915659 33.122682 
L 411.495178 30.46403 
L 412.074696 29.175538 
L 412.654214 29.284968 
L 413.233733 30.791012 
L 413.813251 33.663274 
L 414.392769 37.842856 
L 414.972288 43.243539 
L 416.131324 57.237792 
L 417.290361 74.489571 
L 421.346989 138.833347 
L 422.506025 151.99625 
L 423.085544 156.893316 
L 423.665062 160.52122 
L 424.24458 162.802901 
L 424.824099 163.689489 
L 425.403617 163.161385 
L 425.983135 161.228719 
L 426.562653 157.931181 
L 427.142172 153.337239 
L 428.301208 140.66893 
L 429.460245 124.279836 
L 431.778318 86.023226 
L 433.516873 58.860631 
L 434.67591 44.386724 
L 435.255428 38.727575 
L 435.834946 34.288942 
L 436.414464 31.165782 
L 436.993983 29.425254 
L 437.573501 29.105247 
L 438.153019 30.213533 
L 438.732538 32.727551 
L 439.312056 36.594835 
L 439.891574 41.734086 
L 441.050611 55.369804 
L 442.209647 72.485731 
L 446.266276 137.696857 
L 447.425312 151.27789 
L 448.00483 156.37572 
L 448.584349 160.190179 
L 449.163867 162.638687 
L 449.743385 163.667844 
L 450.322904 163.254614 
L 450.902422 161.406875 
L 451.48194 158.163294 
L 452.061458 153.59255 
L 453.220495 140.885156 
L 454.379532 124.365016 
L 456.697605 85.732408 
L 458.43616 58.375916 
L 459.595196 43.894963 
L 460.174715 38.279735 
L 460.754233 33.918966 
L 461.333751 30.907811 
L 461.913269 29.312334 
L 462.492788 29.168031 
L 463.072306 30.479014 
L 463.651824 33.217872 
L 464.231343 37.326216 
L 464.810861 42.715891 
L 465.969898 56.849613 
L 467.128934 74.404248 
L 471.185562 139.809768 
L 472.344599 152.912395 
L 472.924117 157.681007 
L 473.503635 161.112311 
L 474.083154 163.130456 
L 474.662672 163.690385 
L 475.24219 162.778871 
L 475.821709 160.414853 
L 476.401227 156.649076 
L 476.980745 151.563025 
L 478.139782 137.898721 
L 479.298818 120.60718 
L 483.355446 54.547195 
L 484.514483 40.938372 
L 485.094001 35.894375 
L 485.67352 32.182218 
L 486.253038 29.884649 
L 486.832556 29.053304 
L 487.412074 29.707519 
L 487.991593 31.833849 
L 488.571111 35.386319 
L 489.150629 40.287383 
L 490.309666 53.677917 
L 491.468703 70.83319 
L 495.525331 137.353124 
L 496.684367 151.248494 
L 497.263886 156.439551 
L 497.843404 160.295455 
L 498.422922 162.729486 
L 499.00244 163.686487 
L 499.581959 163.144147 
L 500.161477 161.11355 
L 500.740995 157.638975 
L 501.320514 152.796967 
L 502.47955 139.467502 
L 503.638587 122.30301 
L 507.695215 55.465599 
L 508.854251 41.497187 
L 509.43377 36.286044 
L 510.013288 32.423242 
L 510.592806 29.99647 
L 511.172325 29.061237 
L 511.751843 29.63957 
L 512.331361 31.719468 
L 512.910879 35.255118 
L 513.490398 40.167874 
L 514.649434 53.656989 
L 515.808471 70.983558 
L 519.865099 138.005191 
L 521.024136 151.830467 
L 521.603654 156.932805 
L 522.183172 160.663513 
L 522.762691 162.93707 
L 523.342209 163.700923 
L 523.921727 162.936731 
L 524.501245 160.660832 
L 525.080764 156.923929 
L 525.660282 151.80999 
L 526.819319 137.941329 
L 527.978355 120.303794 
L 532.034983 53.265862 
L 533.19402 39.811622 
L 533.773538 34.952223 
L 534.353056 31.497165 
L 534.932575 29.526466 
L 535.512093 29.08624 
L 536.091611 30.187584 
L 536.67113 32.806274 
L 537.250648 36.883262 
L 537.830166 42.325981 
L 538.989203 56.783893 
L 540.148239 74.865454 
L 543.625349 133.609453 
L 544.784386 148.692984 
L 545.363904 154.507708 
L 545.943422 158.981832 
L 546.522941 162.011148 
L 547.102459 163.524717 
L 547.681977 163.486557 
L 548.261496 161.896528 
L 548.841014 158.790393 
L 549.420532 154.239044 
L 550.00005 148.346916 
L 551.159087 133.110826 
L 552.897642 104.420894 
L 555.215715 64.660693 
L 556.374752 48.274596 
L 556.95427 41.668262 
L 557.533788 36.33445 
L 558.113307 32.398256 
L 558.692825 29.952338 
L 559.272343 29.054706 
L 559.851861 29.727314 
L 560.43138 31.955493 
L 561.010898 35.68824 
L 561.590416 40.839347 
L 562.749453 54.888369 
L 563.908489 72.802422 
L 567.965118 140.52007 
L 569.124154 153.811411 
L 569.703672 158.505723 
L 570.283191 161.740276 
L 570.862709 163.438035 
L 571.442227 163.558045 
L 572.021746 162.096451 
L 572.601264 159.086647 
L 573.180782 154.598543 
L 573.760301 148.736975 
L 574.919337 133.472126 
L 576.078374 114.718665 
L 579.555483 55.752873 
L 580.71452 41.382417 
L 581.294038 36.07186 
L 581.873557 32.190384 
L 582.453075 29.831016 
L 583.032593 29.050751 
L 583.612112 29.869144 
L 584.19163 32.26779 
L 584.771148 36.190701 
L 585.350666 41.545584 
L 586.509703 56.014223 
L 587.66874 74.310439 
L 591.145849 134.044406 
L 592.304886 149.250672 
L 592.884404 155.044214 
L 593.463923 159.43546 
L 594.043441 162.318405 
L 594.622959 163.623043 
L 595.202477 163.317103 
L 595.781996 161.406875 
L 596.361514 157.937119 
L 596.941032 152.990053 
L 598.100069 139.167769 
L 599.259106 121.253137 
L 603.315734 52.560316 
L 604.47477 39.023295 
L 605.054288 34.254099 
L 605.633807 30.983548 
L 606.213325 29.291596 
L 606.792843 29.220141 
L 607.372362 30.771952 
L 607.95188 33.910546 
L 608.531398 38.561015 
L 609.110917 44.611773 
L 610.269953 60.301166 
L 612.008508 89.797392 
L 614.326581 130.183807 
L 615.485618 146.431504 
L 616.065136 152.824032 
L 616.644654 157.844059 
L 617.224173 161.368471 
L 617.803691 163.310459 
L 618.383209 163.621681 
L 618.962728 162.293505 
L 619.542246 159.357275 
L 620.121764 154.883609 
L 620.701282 148.980731 
L 621.860319 133.491893 
L 623.019356 114.389563 
L 625.916947 63.370833 
L 627.075984 46.882127 
L 627.655502 40.361744 
L 628.23502 35.214975 
L 628.814539 31.569092 
L 629.394057 29.514625 
L 629.973575 29.103088 
L 630.553093 30.345649 
L 631.132612 33.212795 
L 631.71213 37.635001 
L 632.291648 43.504382 
L 633.450685 58.977799 
L 634.609722 78.123001 
L 637.507313 129.361063 
L 638.66635 145.915293 
L 639.245868 152.452322 
L 639.825386 157.602435 
L 640.404904 161.237192 
L 640.984423 163.265569 
L 641.563941 163.636261 
L 642.143459 162.339024 
L 642.722978 159.404982 
L 643.302496 154.90592 
L 643.882014 148.952559 
L 645.041051 133.303457 
L 646.200087 113.997949 
L 649.097679 62.626302 
L 650.256716 46.184499 
L 650.836234 39.743813 
L 651.415752 34.715752 
L 651.99527 31.226804 
L 652.574789 29.36513 
L 653.154307 29.1783 
L 653.733825 30.672047 
L 654.313344 33.810058 
L 654.892862 38.514825 
L 655.47238 44.669522 
L 656.631417 60.682949 
L 658.369972 90.785999 
L 660.688045 131.655449 
L 661.847081 147.795545 
L 662.4266 154.021656 
L 663.006118 158.79758 
L 663.585636 162.002095 
L 664.165155 163.553455 
L 664.744673 163.411505 
L 665.324191 161.578761 
L 665.903709 158.100401 
L 666.483228 153.063195 
L 667.062746 146.59337 
L 668.221783 130.038352 
L 669.960338 99.466662 
L 671.698892 68.184589 
L 672.857929 50.441723 
L 674.016966 37.324048 
L 674.596484 32.937389 
L 675.176002 30.161313 
L 675.755521 29.06738 
L 676.335039 29.684459 
L 676.914557 31.997927 
L 677.494075 35.949981 
L 678.073594 41.441047 
L 679.23263 56.448895 
L 680.391667 75.507881 
L 683.868777 136.836585 
L 685.027813 151.718289 
L 685.607332 157.12424 
L 686.18685 160.975833 
L 686.766368 163.173432 
L 687.345886 163.659687 
L 687.925405 162.421062 
L 688.504923 159.488249 
L 689.084441 154.935441 
L 689.66396 148.878496 
L 690.822996 132.905448 
L 691.982033 113.194242 
L 694.879624 61.147048 
L 696.038661 44.823006 
L 696.618179 38.555235 
L 697.197697 33.778447 
L 697.777216 30.616905 
L 698.356734 29.153277 
L 698.936252 29.426443 
L 699.515771 31.430421 
L 700.095289 35.114459 
L 700.674807 40.384284 
L 701.833844 55.101923 
L 702.99288 74.075063 
L 706.46999 136.045181 
L 707.629027 151.253722 
L 708.208545 156.810035 
L 708.788063 160.794758 
L 709.367582 163.103176 
L 709.9471 163.674125 
L 710.526618 162.491653 
L 711.106137 159.585497 
L 711.685655 155.030375 
L 712.265173 148.944103 
L 713.42421 132.845731 
L 714.583246 112.95492 
L 717.480838 60.563469 
L 718.639874 44.272235 
L 719.219393 38.073882 
L 719.798911 33.403461 
L 720.378429 30.384465 
L 720.957948 29.097167 
L 721.537466 29.57644 
L 722.116984 31.810785 
L 722.696502 35.742558 
L 723.276021 41.269423 
L 724.435057 56.492504 
L 725.594094 75.894354 
L 729.071204 137.995438 
L 730.23024 152.731021 
L 730.809759 157.955373 
L 731.389277 161.552267 
L 731.968795 163.425541 
L 732.548313 163.524554 
L 733.127832 161.845593 
L 733.70735 158.43204 
L 734.286868 153.37329 
L 734.866387 146.802446 
L 736.025423 129.853547 
L 737.763978 98.462328 
L 739.502533 66.562975 
L 740.66157 48.769717 
L 741.241088 41.660374 
L 741.820606 36.007298 
L 742.400124 31.962053 
L 742.979643 29.633482 
L 743.559161 29.084752 
L 744.138679 30.331595 
L 744.718198 33.341824 
L 745.297716 38.036123 
L 745.877234 44.2901 
L 747.036271 60.774816 
L 748.774826 91.946899 
L 750.513381 124.185356 
L 751.672417 142.451499 
L 752.251936 149.848437 
L 752.831454 155.811171 
L 753.410972 160.178665 
L 753.99049 162.832585 
L 754.570009 163.700541 
L 755.149527 162.758105 
L 755.729045 160.029525 
L 756.308564 155.587155 
L 756.888082 149.549564 
L 758.047118 133.374169 
L 759.206155 113.229192 
L 762.103747 60.069073 
L 763.262783 43.686459 
L 763.842301 37.528381 
L 764.42182 32.961979 
L 765.001338 30.111877 
L 765.580856 29.05633 
L 766.160375 29.825034 
L 766.739893 32.398256 
L 767.319411 36.707297 
L 767.898929 42.636285 
L 769.057966 58.674439 
L 770.217003 78.788455 
L 773.114594 132.222475 
L 774.273631 148.778077 
L 774.853149 155.01985 
L 775.432667 159.663196 
L 776.012186 162.580434 
L 776.591704 163.690878 
L 777.171222 162.963109 
L 777.750741 160.415898 
L 778.330259 156.117767 
L 778.909777 150.185188 
L 780.068814 134.102353 
L 781.22785 113.909746 
L 784.125442 60.301166 
L 785.284478 43.751126 
L 785.863997 37.537151 
L 786.443515 32.939278 
L 787.023033 30.084918 
L 787.602552 29.053645 
L 788.18207 29.874942 
L 788.761588 32.527311 
L 789.341106 36.938802 
L 789.920625 42.988917 
L 791.079661 59.30109 
L 792.238698 79.682964 
L 795.136289 133.360974 
L 796.295326 149.72207 
L 796.874844 155.794207 
L 797.454363 160.221746 
L 798.033881 162.881015 
L 798.613399 163.697232 
L 799.192917 162.646656 
L 799.772436 159.757313 
L 800.351954 155.108291 
L 800.931472 148.827616 
L 802.090509 132.105908 
L 803.829064 100.314915 
L 805.567619 67.537749 
L 806.726655 49.173424 
L 807.306174 41.842369 
L 807.885692 36.031288 
L 808.46521 31.903281 
L 809.044728 29.574613 
L 809.624247 29.111408 
L 810.203765 30.527724 
L 810.783283 33.785094 
L 811.362802 38.793521 
L 811.94232 45.41393 
L 813.101357 62.71321 
L 813.101357 62.71321 
" clip-path="url(#p276c84f085)" style="fill: none; stroke: #1f77b4; stroke-width: 0.5; stroke-linecap: square"/>
   </g>
   <g id="patch_3">
    <path d="M 52.483594 170.433438 
L 52.483594 22.318125 
" style="fill: none; stroke: #000000; stroke-width: 0.8; stroke-linejoin: miter; stroke-linecap: square"/>
   </g>
   <g id="patch_4">
    <path d="M 849.32125 170.433438 
L 849.32125 22.318125 
" style="fill: none; stroke: #000000; stroke-width: 0.8; stroke-linejoin: miter; stroke-linecap: square"/>
   </g>
   <g id="patch_5">
    <path d="M 52.483594 170.433438 
L 849.32125 170.433438 
" style="fill: none; stroke: #000000; stroke-width: 0.8; stroke-linejoin: miter; stroke-linecap: square"/>
   </g>
   <g id="patch_6">
    <path d="M 52.483594 22.318125 
L 849.32125 22.318125 
" style="fill: none; stroke: #000000; stroke-width: 0.8; stroke-linejoin: miter; stroke-linecap: square"/>
   </g>
   <g id="text_14">
    <!-- Linear chirp 5.0→45.0 Hz over 120 s (time domain) -->
    <g transform="translate(297.698047 16.318125) scale(0.12 -0.12)">
     <defs>
      <path id="DejaVuSans-2f" d="M 628 4666 
L 1259 4666 
L 1259 531 
L 3531 531 
L 3531 0 
L 628 0 
L 628 4666 
z
" transform="scale(0.015625)"/>
      <path id="DejaVuSans-51" d="M 3513 2113 
L 3513 0 
L 2938 0 
L 2938 2094 
Q 2938 2591 2744 2837 
Q 2550 3084 2163 3084 
Q 1697 3084 1428 2787 
Q 1159 2491 1159 1978 
L 1159 0 
L 581 0 
L 581 3500 
L 1159 3500 
L 1159 2956 
Q 1366 3272 1645 3428 
Q 1925 3584 2291 3584 
Q 2894 3584 3203 3211 
Q 3513 2838 3513 2113 
z
" transform="scale(0.015625)"/>
      <path id="DejaVuSans-44" d="M 2194 1759 
Q 1497 1759 1228 1600 
Q 959 1441 959 1056 
Q 959 750 1161 570 
Q 1363 391 1709 391 
Q 2188 391 2477 730 
Q 2766 1069 2766 1631 
L 2766 1759 
L 2194 1759 
z
M 3341 1997 
L 3341 0 
L 2766 0 
L 2766 531 
Q 2569 213 2275 61 
Q 1981 -91 1556 -91 
Q 1019 -91 701 211 
Q 384 513 384 1019 
Q 384 1609 779 1909 
Q 1175 2209 1959 2209 
L 2766 2209 
L 2766 2266 
Q 2766 2663 2505 2880 
Q 2244 3097 1772 3097 
Q 1472 3097 1187 3025 
Q 903 2953 641 2809 
L 641 3341 
Q 956 3463 1253 3523 
Q 1550 3584 1831 3584 
Q 2591 3584 2966 3190 
Q 3341 2797 3341 1997 
z
" transform="scale(0.015625)"/>
      <path id="DejaVuSans-55" d="M 2631 2963 
Q 2534 3019 2420 3045 
Q 2306 3072 2169 3072 
Q 1681 3072 1420 2755 
Q 1159 2438 1159 1844 
L 1159 0 
L 581 0 
L 581 3500 
L 1159 3500 
L 1159 2956 
Q 1341 3275 1631 3429 
Q 1922 3584 2338 3584 
Q 2397 3584 2469 3576 
Q 2541 3569 2628 3553 
L 2631 2963 
z
" transform="scale(0.015625)"/>
      <path id="DejaVuSans-46" d="M 3122 3366 
L 3122 2828 
Q 2878 2963 2633 3030 
Q 2388 3097 2138 3097 
Q 1578 3097 1268 2742 
Q 959 2388 959 1747 
Q 959 1106 1268 751 
Q 1578 397 2138 397 
Q 2388 397 2633 464 
Q 2878 531 3122 666 
L 3122 134 
Q 2881 22 2623 -34 
Q 2366 -91 2075 -91 
Q 1284 -91 818 406 
Q 353 903 353 1747 
Q 353 2603 823 3093 
Q 1294 3584 2113 3584 
Q 2378 3584 2631 3529 
Q 2884 3475 3122 3366 
z
" transform="scale(0.015625)"/>
      <path id="DejaVuSans-4b" d="M 3513 2113 
L 3513 0 
L 2938 0 
L 2938 2094 
Q 2938 2591 2744 2837 
Q 2550 3084 2163 3084 
Q 1697 3084 1428 2787 
Q 1159 2491 1159 1978 
L 1159 0 
L 581 0 
L 581 4863 
L 1159 4863 
L 1159 2956 
Q 1366 3272 1645 3428 
Q 1925 3584 2291 3584 
Q 2894 3584 3203 3211 
Q 3513 2838 3513 2113 
z
" transform="scale(0.015625)"/>
      <path id="DejaVuSans-c1c" d="M 5050 2147 
L 5050 1866 
L 3822 638 
L 3447 1013 
L 4175 1741 
L 366 1741 
L 366 2272 
L 4175 2272 
L 3447 3000 
L 3822 3375 
L 5050 2147 
z
" transform="scale(0.015625)"/>
      <path id="DejaVuSans-2b" d="M 628 4666 
L 1259 4666 
L 1259 2753 
L 3553 2753 
L 3553 4666 
L 4184 4666 
L 4184 0 
L 3553 0 
L 3553 2222 
L 1259 2222 
L 1259 0 
L 628 0 
L 628 4666 
z
" transform="scale(0.015625)"/>
      <path id="DejaVuSans-5d" d="M 353 3500 
L 3084 3500 
L 3084 2975 
L 922 459 
L 3084 459 
L 3084 0 
L 275 0 
L 275 525 
L 2438 3041 
L 353 3041 
L 353 3500 
z
" transform="scale(0.015625)"/>
      <path id="DejaVuSans-52" d="M 1959 3097 
Q 1497 3097 1228 2736 
Q 959 2375 959 1747 
Q 959 1119 1226 758 
Q 1494 397 1959 397 
Q 2419 397 2687 759 
Q 2956 1122 2956 1747 
Q 2956 2369 2687 2733 
Q 2419 3097 1959 3097 
z
M 1959 3584 
Q 2709 3584 3137 3096 
Q 3566 2609 3566 1747 
Q 3566 888 3137 398 
Q 2709 -91 1959 -91 
Q 1206 -91 779 398 
Q 353 888 353 1747 
Q 353 2609 779 3096 
Q 1206 3584 1959 3584 
z
" transform="scale(0.015625)"/>
      <path id="DejaVuSans-59" d="M 191 3500 
L 800 3500 
L 1894 563 
L 2988 3500 
L 3597 3500 
L 2284 0 
L 1503 0 
L 191 3500 
z
" transform="scale(0.015625)"/>
     </defs>
     <use xlink:href="#DejaVuSans-2f"/>
     <use xlink:href="#DejaVuSans-4c" transform="translate(55.71875 0)"/>
     <use xlink:href="#DejaVuSans-51" transform="translate(83.5 0)"/>
     <use xlink:href="#DejaVuSans-48" transform="translate(146.875 0)"/>
     <use xlink:href="#DejaVuSans-44" transform="translate(208.40625 0)"/>
     <use xlink:href="#DejaVuSans-55" transform="translate(269.6875 0)"/>
     <use xlink:href="#DejaVuSans-3" transform="translate(310.796875 0)"/>
     <use xlink:href="#DejaVuSans-46" transform="translate(342.578125 0)"/>
     <use xlink:href="#DejaVuSans-4b" transform="translate(397.5625 0)"/>
     <use xlink:href="#DejaVuSans-4c" transform="translate(460.9375 0)"/>
     <use xlink:href="#DejaVuSans-55" transform="translate(488.71875 0)"/>
     <use xlink:href="#DejaVuSans-53" transform="translate(529.828125 0)"/>
     <use xlink:href="#DejaVuSans-3" transform="translate(593.3125 0)"/>
     <use xlink:href="#DejaVuSans-18" transform="translate(625.09375 0)"/>
     <use xlink:href="#DejaVuSans-11" transform="translate(688.71875 0)"/>
     <use xlink:href="#DejaVuSans-13" transform="translate(720.5 0)"/>
     <use xlink:href="#DejaVuSans-c1c" transform="translate(784.125 0)"/>
     <use xlink:href="#DejaVuSans-17" transform="translate(867.921875 0)"/>
     <use xlink:href="#DejaVuSans-18" transform="translate(931.546875 0)"/>
     <use xlink:href="#DejaVuSans-11" transform="translate(995.171875 0)"/>
     <use xlink:href="#DejaVuSans-13" transform="translate(1026.953125 0)"/>
     <use xlink:href="#DejaVuSans-3" transform="translate(1090.578125 0)"/>
     <use xlink:href="#DejaVuSans-2b" transform="translate(1122.359375 0)"/>
     <use xlink:href="#DejaVuSans-5d" transform="translate(1197.5625 0)"/>
     <use xlink:href="#DejaVuSans-3" transform="translate(1250.046875 0)"/>
     <use xlink:href="#DejaVuSans-52" transform="translate(1281.828125 0)"/>
     <use xlink:href="#DejaVuSans-59" transform="translate(1343.015625 0)"/>
     <use xlink:href="#DejaVuSans-48" transform="translate(1402.203125 0)"/>
     <use xlink:href="#DejaVuSans-55" transform="translate(1463.734375 0)"/>
     <use xlink:href="#DejaVuSans-3" transform="translate(1504.84375 0)"/>
     <use xlink:href="#DejaVuSans-14" transform="translate(1536.625 0)"/>
     <use xlink:href="#DejaVuSans-15" transform="translate(1600.25 0)"/>
     <use xlink:href="#DejaVuSans-13" transform="translate(1663.875 0)"/>
     <use xlink:href="#DejaVuSans-3" transform="translate(1727.5 0)"/>
     <use xlink:href="#DejaVuSans-56" transform="translate(1759.28125 0)"/>
     <use xlink:href="#DejaVuSans-3" transform="translate(1811.375 0)"/>
     <use xlink:href="#DejaVuSans-b" transform="translate(1843.15625 0)"/>
     <use xlink:href="#DejaVuSans-57" transform="translate(1882.171875 0)"/>
     <use xlink:href="#DejaVuSans-4c" transform="translate(1921.375 0)"/>
     <use xlink:href="#DejaVuSans-50" transform="translate(1949.15625 0)"/>
     <use xlink:href="#DejaVuSans-48" transform="translate(2046.5625 0)"/>
     <use xlink:href="#DejaVuSans-3" transform="translate(2108.09375 0)"/>
     <use xlink:href="#DejaVuSans-47" transform="translate(2139.875 0)"/>
     <use xlink:href="#DejaVuSans-52" transform="translate(2203.359375 0)"/>
     <use xlink:href="#DejaVuSans-50" transform="translate(2264.546875 0)"/>
     <use xlink:href="#DejaVuSans-44" transform="translate(2361.953125 0)"/>
     <use xlink:href="#DejaVuSans-4c" transform="translate(2423.234375 0)"/>
     <use xlink:href="#DejaVuSans-51" transform="translate(2451.015625 0)"/>
     <use xlink:href="#DejaVuSans-c" transform="translate(2514.390625 0)"/>
    </g>
   </g>
   <g id="text_15">
    <!-- Figure B.15 -->
    <g transform="translate(52.483594 16.318125) scale(0.09 -0.09)">
     <defs>
      <path id="DejaVuSans-Oblique-29" d="M 1081 4666 
L 3756 4666 
L 3653 4134 
L 1606 4134 
L 1338 2759 
L 3188 2759 
L 3084 2228 
L 1234 2228 
L 800 0 
L 172 0 
L 1081 4666 
z
" transform="scale(0.015625)"/>
      <path id="DejaVuSans-Oblique-4c" d="M 1172 4863 
L 1747 4863 
L 1606 4134 
L 1031 4134 
L 1172 4863 
z
M 909 3500 
L 1484 3500 
L 800 0 
L 225 0 
L 909 3500 
z
" transform="scale(0.015625)"/>
      <path id="DejaVuSans-Oblique-4a" d="M 3816 3500 
L 3219 434 
Q 3047 -456 2561 -893 
Q 2075 -1331 1253 -1331 
Q 950 -1331 690 -1286 
Q 431 -1241 206 -1147 
L 313 -588 
Q 525 -725 762 -790 
Q 1000 -856 1269 -856 
Q 1816 -856 2167 -557 
Q 2519 -259 2631 300 
L 2681 563 
Q 2441 288 2122 144 
Q 1803 0 1434 0 
Q 903 0 598 351 
Q 294 703 294 1319 
Q 294 1803 478 2267 
Q 663 2731 997 3091 
Q 1219 3328 1514 3456 
Q 1809 3584 2131 3584 
Q 2484 3584 2746 3420 
Q 3009 3256 3138 2956 
L 3238 3500 
L 3816 3500 
z
M 2950 2216 
Q 2950 2641 2750 2872 
Q 2550 3103 2181 3103 
Q 1953 3103 1747 3012 
Q 1541 2922 1394 2759 
Q 1156 2491 1023 2127 
Q 891 1763 891 1375 
Q 891 944 1092 712 
Q 1294 481 1672 481 
Q 2219 481 2584 976 
Q 2950 1472 2950 2216 
z
" transform="scale(0.015625)"/>
      <path id="DejaVuSans-Oblique-58" d="M 428 1388 
L 838 3500 
L 1416 3500 
L 1006 1409 
Q 975 1256 961 1147 
Q 947 1038 947 966 
Q 947 700 1109 554 
Q 1272 409 1569 409 
Q 2031 409 2368 721 
Q 2706 1034 2809 1563 
L 3194 3500 
L 3769 3500 
L 3091 0 
L 2516 0 
L 2631 550 
Q 2388 244 2052 76 
Q 1716 -91 1338 -91 
Q 878 -91 622 161 
Q 366 413 366 863 
Q 366 956 381 1097 
Q 397 1238 428 1388 
z
" transform="scale(0.015625)"/>
      <path id="DejaVuSans-Oblique-55" d="M 2853 2969 
Q 2766 3016 2653 3041 
Q 2541 3066 2413 3066 
Q 1953 3066 1609 2717 
Q 1266 2369 1153 1784 
L 800 0 
L 225 0 
L 909 3500 
L 1484 3500 
L 1375 2956 
Q 1603 3259 1920 3421 
Q 2238 3584 2597 3584 
Q 2691 3584 2781 3573 
Q 2872 3563 2963 3538 
L 2853 2969 
z
" transform="scale(0.015625)"/>
      <path id="DejaVuSans-Oblique-48" d="M 3078 2063 
Q 3088 2113 3092 2166 
Q 3097 2219 3097 2272 
Q 3097 2653 2873 2875 
Q 2650 3097 2266 3097 
Q 1838 3097 1509 2826 
Q 1181 2556 1013 2059 
L 3078 2063 
z
M 3578 1613 
L 903 1613 
Q 884 1494 878 1425 
Q 872 1356 872 1306 
Q 872 872 1139 634 
Q 1406 397 1894 397 
Q 2269 397 2603 481 
Q 2938 566 3225 728 
L 3116 159 
Q 2806 34 2476 -28 
Q 2147 -91 1806 -91 
Q 1078 -91 686 257 
Q 294 606 294 1247 
Q 294 1794 489 2264 
Q 684 2734 1063 3103 
Q 1306 3334 1642 3459 
Q 1978 3584 2356 3584 
Q 2950 3584 3301 3228 
Q 3653 2872 3653 2272 
Q 3653 2128 3634 1964 
Q 3616 1800 3578 1613 
z
" transform="scale(0.015625)"/>
      <path id="DejaVuSans-Oblique-3" transform="scale(0.015625)"/>
      <path id="DejaVuSans-Oblique-25" d="M 1081 4666 
L 2694 4666 
Q 3350 4666 3675 4422 
Q 4000 4178 4000 3688 
Q 4000 3238 3720 2911 
Q 3441 2584 2988 2516 
Q 3375 2428 3569 2181 
Q 3763 1934 3763 1522 
Q 3763 819 3242 409 
Q 2722 0 1819 0 
L 172 0 
L 1081 4666 
z
M 1234 2228 
L 903 519 
L 1919 519 
Q 2491 519 2800 781 
Q 3109 1044 3109 1522 
Q 3109 1891 2904 2059 
Q 2700 2228 2247 2228 
L 1234 2228 
z
M 1606 4147 
L 1331 2741 
L 2272 2741 
Q 2775 2741 3058 2959 
Q 3341 3178 3341 3566 
Q 3341 3869 3150 4008 
Q 2959 4147 2541 4147 
L 1606 4147 
z
" transform="scale(0.015625)"/>
      <path id="DejaVuSans-Oblique-11" d="M 525 794 
L 1184 794 
L 1031 0 
L 372 0 
L 525 794 
z
" transform="scale(0.015625)"/>
      <path id="DejaVuSans-Oblique-14" d="M 416 531 
L 1447 531 
L 2144 4122 
L 978 3897 
L 1088 4441 
L 2247 4666 
L 2881 4666 
L 2075 531 
L 3103 531 
L 3003 0 
L 313 0 
L 416 531 
z
" transform="scale(0.015625)"/>
      <path id="DejaVuSans-Oblique-18" d="M 3719 4666 
L 3622 4141 
L 1691 4141 
L 1466 2988 
Q 1609 3034 1757 3056 
Q 1906 3078 2059 3078 
Q 2706 3078 3081 2731 
Q 3456 2384 3456 1791 
Q 3456 1375 3264 994 
Q 3072 613 2719 325 
Q 2469 125 2108 17 
Q 1747 -91 1319 -91 
Q 1038 -91 744 -41 
Q 450 9 128 109 
L 244 697 
Q 531 556 820 486 
Q 1109 416 1403 416 
Q 2013 416 2411 781 
Q 2809 1147 2809 1697 
Q 2809 2103 2548 2328 
Q 2288 2553 1819 2553 
Q 1572 2553 1305 2495 
Q 1038 2438 756 2322 
L 1209 4666 
L 3719 4666 
z
" transform="scale(0.015625)"/>
     </defs>
     <use xlink:href="#DejaVuSans-Oblique-29"/>
     <use xlink:href="#DejaVuSans-Oblique-4c" transform="translate(57.515625 0)"/>
     <use xlink:href="#DejaVuSans-Oblique-4a" transform="translate(85.296875 0)"/>
     <use xlink:href="#DejaVuSans-Oblique-58" transform="translate(148.78125 0)"/>
     <use xlink:href="#DejaVuSans-Oblique-55" transform="translate(212.15625 0)"/>
     <use xlink:href="#DejaVuSans-Oblique-48" transform="translate(253.265625 0)"/>
     <use xlink:href="#DejaVuSans-Oblique-3" transform="translate(314.796875 0)"/>
     <use xlink:href="#DejaVuSans-Oblique-25" transform="translate(346.578125 0)"/>
     <use xlink:href="#DejaVuSans-Oblique-11" transform="translate(415.1875 0)"/>
     <use xlink:href="#DejaVuSans-Oblique-14" transform="translate(446.96875 0)"/>
     <use xlink:href="#DejaVuSans-Oblique-18" transform="translate(510.59375 0)"/>
    </g>
   </g>
  </g>
 </g>
 <defs>
  <clipPath id="p276c84f085">
   <rect x="52.483594" y="22.318125" width="796.837656" height="148.115313"/>
  </clipPath>
 </defs>
</svg>
