<?xml version="1.0" encoding="utf-8" standalone="no"?>
<!DOCTYPE svg PUBLIC "-//W3C//DTD SVG 1.1//EN"
  "http://www.w3.org/Graphics/SVG/1.1/DTD/svg11.dtd">
<svg xmlns:xlink="http://www.w3.org/1999/xlink" width="856.580625pt" height="208.634219pt" viewBox="0 0 856.580625 208.634219" xmlns="http://www.w3.org/2000/svg" version="1.1">
 <metadata>
  <rdf:RDF xmlns:dc="http://purl.org/dc/elements/1.1/" xmlns:cc="http://creativecommons.org/ns#" xmlns:rdf="http://www.w3.org/1999/02/22-rdf-syntax-ns#">
   <cc:Work>
    <dc:type rdf:resource="http://purl.org/dc/dcmitype/StillImage"/>
    <dc:date>2026-06-20T20:05:42.509455</dc:date>
    <dc:format>image/svg+xml</dc:format>
    <dc:creator>
     <cc:Agent>
      <dc:title>Matplotlib v3.11.0, https://matplotlib.org/</dc:title>
     </cc:Agent>
    </dc:creator>
   </cc:Work>
  </rdf:RDF>
 </metadata>
 <defs>
  <style type="text/css">*{stroke-linejoin: round; stroke-linecap: butt}</style>
 </defs>
 <g id="figure_1">
  <g id="patch_1">
   <path d="M 0 208.634219 
L 856.580625 208.634219 
L 856.580625 0 
L 0 0 
z
" style="fill: #ffffff"/>
  </g>
  <g id="axes_1">
   <g id="patch_2">
    <path d="M 42.942969 170.433438 
L 849.380625 170.433438 
L 849.380625 22.318125 
L 42.942969 22.318125 
z
" style="fill: #ffffff"/>
   </g>
   <g id="matplotlib.axis_1">
    <g id="xtick_1">
     <g id="line2d_1">
      <path d="M 79.599226 170.433438 
L 79.599226 22.318125 
" clip-path="url(#paf305035be)" style="fill: none; stroke: #b0b0b0; stroke-opacity: 0.3; stroke-width: 0.8; stroke-linecap: square"/>
     </g>
     <g id="line2d_2">
      <defs>
       <path id="mc260c86e62" d="M 0 0 
L 0 3.5 
" style="stroke: #000000; stroke-width: 0.8"/>
      </defs>
      <g>
       <use xlink:href="#mc260c86e62" x="79.599226" y="170.433438" style="stroke: #000000; stroke-width: 0.8"/>
      </g>
     </g>
     <g id="text_1">
      <!-- 58.0 -->
      <g transform="translate(68.466413 185.031094) scale(0.1 -0.1)">
       <defs>
        <path id="DejaVuSans-18" d="M 691 4666 
L 3169 4666 
L 3169 4134 
L 1269 4134 
L 1269 2991 
Q 1406 3038 1543 3061 
Q 1681 3084 1819 3084 
Q 2600 3084 3056 2656 
Q 3513 2228 3513 1497 
Q 3513 744 3044 326 
Q 2575 -91 1722 -91 
Q 1428 -91 1123 -41 
Q 819 9 494 109 
L 494 744 
Q 775 591 1075 516 
Q 1375 441 1709 441 
Q 2250 441 2565 725 
Q 2881 1009 2881 1497 
Q 2881 1984 2565 2268 
Q 2250 2553 1709 2553 
Q 1456 2553 1204 2497 
Q 953 2441 691 2322 
L 691 4666 
z
" transform="scale(0.015625)"/>
        <path id="DejaVuSans-1b" d="M 2034 2216 
Q 1584 2216 1326 1975 
Q 1069 1734 1069 1313 
Q 1069 891 1326 650 
Q 1584 409 2034 409 
Q 2484 409 2743 651 
Q 3003 894 3003 1313 
Q 3003 1734 2745 1975 
Q 2488 2216 2034 2216 
z
M 1403 2484 
Q 997 2584 770 2862 
Q 544 3141 544 3541 
Q 544 4100 942 4425 
Q 1341 4750 2034 4750 
Q 2731 4750 3128 4425 
Q 3525 4100 3525 3541 
Q 3525 3141 3298 2862 
Q 3072 2584 2669 2484 
Q 3125 2378 3379 2068 
Q 3634 1759 3634 1313 
Q 3634 634 3220 271 
Q 2806 -91 2034 -91 
Q 1263 -91 848 271 
Q 434 634 434 1313 
Q 434 1759 690 2068 
Q 947 2378 1403 2484 
z
M 1172 3481 
Q 1172 3119 1398 2916 
Q 1625 2713 2034 2713 
Q 2441 2713 2670 2916 
Q 2900 3119 2900 3481 
Q 2900 3844 2670 4047 
Q 2441 4250 2034 4250 
Q 1625 4250 1398 4047 
Q 1172 3844 1172 3481 
z
" transform="scale(0.015625)"/>
        <path id="DejaVuSans-11" d="M 684 794 
L 1344 794 
L 1344 0 
L 684 0 
L 684 794 
z
" transform="scale(0.015625)"/>
        <path id="DejaVuSans-13" d="M 2034 4250 
Q 1547 4250 1301 3770 
Q 1056 3291 1056 2328 
Q 1056 1369 1301 889 
Q 1547 409 2034 409 
Q 2525 409 2770 889 
Q 3016 1369 3016 2328 
Q 3016 3291 2770 3770 
Q 2525 4250 2034 4250 
z
M 2034 4750 
Q 2819 4750 3233 4129 
Q 3647 3509 3647 2328 
Q 3647 1150 3233 529 
Q 2819 -91 2034 -91 
Q 1250 -91 836 529 
Q 422 1150 422 2328 
Q 422 3509 836 4129 
Q 1250 4750 2034 4750 
z
" transform="scale(0.015625)"/>
       </defs>
       <use xlink:href="#DejaVuSans-18"/>
       <use xlink:href="#DejaVuSans-1b" transform="translate(63.625 0)"/>
       <use xlink:href="#DejaVuSans-11" transform="translate(127.25 0)"/>
       <use xlink:href="#DejaVuSans-13" transform="translate(159.03125 0)"/>
      </g>
     </g>
    </g>
    <g id="xtick_2">
     <g id="line2d_3">
      <path d="M 171.239869 170.433438 
L 171.239869 22.318125 
" clip-path="url(#paf305035be)" style="fill: none; stroke: #b0b0b0; stroke-opacity: 0.3; stroke-width: 0.8; stroke-linecap: square"/>
     </g>
     <g id="line2d_4">
      <g>
       <use xlink:href="#mc260c86e62" x="171.239869" y="170.433438" style="stroke: #000000; stroke-width: 0.8"/>
      </g>
     </g>
     <g id="text_2">
      <!-- 58.5 -->
      <g transform="translate(160.107056 185.031094) scale(0.1 -0.1)">
       <use xlink:href="#DejaVuSans-18"/>
       <use xlink:href="#DejaVuSans-1b" transform="translate(63.625 0)"/>
       <use xlink:href="#DejaVuSans-11" transform="translate(127.25 0)"/>
       <use xlink:href="#DejaVuSans-18" transform="translate(159.03125 0)"/>
      </g>
     </g>
    </g>
    <g id="xtick_3">
     <g id="line2d_5">
      <path d="M 262.880511 170.433438 
L 262.880511 22.318125 
" clip-path="url(#paf305035be)" style="fill: none; stroke: #b0b0b0; stroke-opacity: 0.3; stroke-width: 0.8; stroke-linecap: square"/>
     </g>
     <g id="line2d_6">
      <g>
       <use xlink:href="#mc260c86e62" x="262.880511" y="170.433438" style="stroke: #000000; stroke-width: 0.8"/>
      </g>
     </g>
     <g id="text_3">
      <!-- 59.0 -->
      <g transform="translate(251.747699 185.031094) scale(0.1 -0.1)">
       <defs>
        <path id="DejaVuSans-1c" d="M 703 97 
L 703 672 
Q 941 559 1184 500 
Q 1428 441 1663 441 
Q 2288 441 2617 861 
Q 2947 1281 2994 2138 
Q 2813 1869 2534 1725 
Q 2256 1581 1919 1581 
Q 1219 1581 811 2004 
Q 403 2428 403 3163 
Q 403 3881 828 4315 
Q 1253 4750 1959 4750 
Q 2769 4750 3195 4129 
Q 3622 3509 3622 2328 
Q 3622 1225 3098 567 
Q 2575 -91 1691 -91 
Q 1453 -91 1209 -44 
Q 966 3 703 97 
z
M 1959 2075 
Q 2384 2075 2632 2365 
Q 2881 2656 2881 3163 
Q 2881 3666 2632 3958 
Q 2384 4250 1959 4250 
Q 1534 4250 1286 3958 
Q 1038 3666 1038 3163 
Q 1038 2656 1286 2365 
Q 1534 2075 1959 2075 
z
" transform="scale(0.015625)"/>
       </defs>
       <use xlink:href="#DejaVuSans-18"/>
       <use xlink:href="#DejaVuSans-1c" transform="translate(63.625 0)"/>
       <use xlink:href="#DejaVuSans-11" transform="translate(127.25 0)"/>
       <use xlink:href="#DejaVuSans-13" transform="translate(159.03125 0)"/>
      </g>
     </g>
    </g>
    <g id="xtick_4">
     <g id="line2d_7">
      <path d="M 354.521154 170.433438 
L 354.521154 22.318125 
" clip-path="url(#paf305035be)" style="fill: none; stroke: #b0b0b0; stroke-opacity: 0.3; stroke-width: 0.8; stroke-linecap: square"/>
     </g>
     <g id="line2d_8">
      <g>
       <use xlink:href="#mc260c86e62" x="354.521154" y="170.433438" style="stroke: #000000; stroke-width: 0.8"/>
      </g>
     </g>
     <g id="text_4">
      <!-- 59.5 -->
      <g transform="translate(343.388342 185.031094) scale(0.1 -0.1)">
       <use xlink:href="#DejaVuSans-18"/>
       <use xlink:href="#DejaVuSans-1c" transform="translate(63.625 0)"/>
       <use xlink:href="#DejaVuSans-11" transform="translate(127.25 0)"/>
       <use xlink:href="#DejaVuSans-18" transform="translate(159.03125 0)"/>
      </g>
     </g>
    </g>
    <g id="xtick_5">
     <g id="line2d_9">
      <path d="M 446.161797 170.433438 
L 446.161797 22.318125 
" clip-path="url(#paf305035be)" style="fill: none; stroke: #b0b0b0; stroke-opacity: 0.3; stroke-width: 0.8; stroke-linecap: square"/>
     </g>
     <g id="line2d_10">
      <g>
       <use xlink:href="#mc260c86e62" x="446.161797" y="170.433438" style="stroke: #000000; stroke-width: 0.8"/>
      </g>
     </g>
     <g id="text_5">
      <!-- 60.0 -->
      <g transform="translate(435.028984 185.031094) scale(0.1 -0.1)">
       <defs>
        <path id="DejaVuSans-19" d="M 2113 2584 
Q 1688 2584 1439 2293 
Q 1191 2003 1191 1497 
Q 1191 994 1439 701 
Q 1688 409 2113 409 
Q 2538 409 2786 701 
Q 3034 994 3034 1497 
Q 3034 2003 2786 2293 
Q 2538 2584 2113 2584 
z
M 3366 4563 
L 3366 3988 
Q 3128 4100 2886 4159 
Q 2644 4219 2406 4219 
Q 1781 4219 1451 3797 
Q 1122 3375 1075 2522 
Q 1259 2794 1537 2939 
Q 1816 3084 2150 3084 
Q 2853 3084 3261 2657 
Q 3669 2231 3669 1497 
Q 3669 778 3244 343 
Q 2819 -91 2113 -91 
Q 1303 -91 875 529 
Q 447 1150 447 2328 
Q 447 3434 972 4092 
Q 1497 4750 2381 4750 
Q 2619 4750 2861 4703 
Q 3103 4656 3366 4563 
z
" transform="scale(0.015625)"/>
       </defs>
       <use xlink:href="#DejaVuSans-19"/>
       <use xlink:href="#DejaVuSans-13" transform="translate(63.625 0)"/>
       <use xlink:href="#DejaVuSans-11" transform="translate(127.25 0)"/>
       <use xlink:href="#DejaVuSans-13" transform="translate(159.03125 0)"/>
      </g>
     </g>
    </g>
    <g id="xtick_6">
     <g id="line2d_11">
      <path d="M 537.80244 170.433438 
L 537.80244 22.318125 
" clip-path="url(#paf305035be)" style="fill: none; stroke: #b0b0b0; stroke-opacity: 0.3; stroke-width: 0.8; stroke-linecap: square"/>
     </g>
     <g id="line2d_12">
      <g>
       <use xlink:href="#mc260c86e62" x="537.80244" y="170.433438" style="stroke: #000000; stroke-width: 0.8"/>
      </g>
     </g>
     <g id="text_6">
      <!-- 60.5 -->
      <g transform="translate(526.669627 185.031094) scale(0.1 -0.1)">
       <use xlink:href="#DejaVuSans-19"/>
       <use xlink:href="#DejaVuSans-13" transform="translate(63.625 0)"/>
       <use xlink:href="#DejaVuSans-11" transform="translate(127.25 0)"/>
       <use xlink:href="#DejaVuSans-18" transform="translate(159.03125 0)"/>
      </g>
     </g>
    </g>
    <g id="xtick_7">
     <g id="line2d_13">
      <path d="M 629.443082 170.433438 
L 629.443082 22.318125 
" clip-path="url(#paf305035be)" style="fill: none; stroke: #b0b0b0; stroke-opacity: 0.3; stroke-width: 0.8; stroke-linecap: square"/>
     </g>
     <g id="line2d_14">
      <g>
       <use xlink:href="#mc260c86e62" x="629.443082" y="170.433438" style="stroke: #000000; stroke-width: 0.8"/>
      </g>
     </g>
     <g id="text_7">
      <!-- 61.0 -->
      <g transform="translate(618.31027 185.031094) scale(0.1 -0.1)">
       <defs>
        <path id="DejaVuSans-14" d="M 794 531 
L 1825 531 
L 1825 4091 
L 703 3866 
L 703 4441 
L 1819 4666 
L 2450 4666 
L 2450 531 
L 3481 531 
L 3481 0 
L 794 0 
L 794 531 
z
" transform="scale(0.015625)"/>
       </defs>
       <use xlink:href="#DejaVuSans-19"/>
       <use xlink:href="#DejaVuSans-14" transform="translate(63.625 0)"/>
       <use xlink:href="#DejaVuSans-11" transform="translate(127.25 0)"/>
       <use xlink:href="#DejaVuSans-13" transform="translate(159.03125 0)"/>
      </g>
     </g>
    </g>
    <g id="xtick_8">
     <g id="line2d_15">
      <path d="M 721.083725 170.433438 
L 721.083725 22.318125 
" clip-path="url(#paf305035be)" style="fill: none; stroke: #b0b0b0; stroke-opacity: 0.3; stroke-width: 0.8; stroke-linecap: square"/>
     </g>
     <g id="line2d_16">
      <g>
       <use xlink:href="#mc260c86e62" x="721.083725" y="170.433438" style="stroke: #000000; stroke-width: 0.8"/>
      </g>
     </g>
     <g id="text_8">
      <!-- 61.5 -->
      <g transform="translate(709.950913 185.031094) scale(0.1 -0.1)">
       <use xlink:href="#DejaVuSans-19"/>
       <use xlink:href="#DejaVuSans-14" transform="translate(63.625 0)"/>
       <use xlink:href="#DejaVuSans-11" transform="translate(127.25 0)"/>
       <use xlink:href="#DejaVuSans-18" transform="translate(159.03125 0)"/>
      </g>
     </g>
    </g>
    <g id="xtick_9">
     <g id="line2d_17">
      <path d="M 812.724368 170.433438 
L 812.724368 22.318125 
" clip-path="url(#paf305035be)" style="fill: none; stroke: #b0b0b0; stroke-opacity: 0.3; stroke-width: 0.8; stroke-linecap: square"/>
     </g>
     <g id="line2d_18">
      <g>
       <use xlink:href="#mc260c86e62" x="812.724368" y="170.433438" style="stroke: #000000; stroke-width: 0.8"/>
      </g>
     </g>
     <g id="text_9">
      <!-- 62.0 -->
      <g transform="translate(801.591555 185.031094) scale(0.1 -0.1)">
       <defs>
        <path id="DejaVuSans-15" d="M 1228 531 
L 3431 531 
L 3431 0 
L 469 0 
L 469 531 
Q 828 903 1448 1529 
Q 2069 2156 2228 2338 
Q 2531 2678 2651 2914 
Q 2772 3150 2772 3378 
Q 2772 3750 2511 3984 
Q 2250 4219 1831 4219 
Q 1534 4219 1204 4116 
Q 875 4013 500 3803 
L 500 4441 
Q 881 4594 1212 4672 
Q 1544 4750 1819 4750 
Q 2544 4750 2975 4387 
Q 3406 4025 3406 3419 
Q 3406 3131 3298 2873 
Q 3191 2616 2906 2266 
Q 2828 2175 2409 1742 
Q 1991 1309 1228 531 
z
" transform="scale(0.015625)"/>
       </defs>
       <use xlink:href="#DejaVuSans-19"/>
       <use xlink:href="#DejaVuSans-15" transform="translate(63.625 0)"/>
       <use xlink:href="#DejaVuSans-11" transform="translate(127.25 0)"/>
       <use xlink:href="#DejaVuSans-13" transform="translate(159.03125 0)"/>
      </g>
     </g>
    </g>
    <g id="text_10">
     <!-- Time (s) -->
     <g transform="translate(425.830547 199.031875) scale(0.1 -0.1)">
      <defs>
       <path id="DejaVuSans-37" d="M -19 4666 
L 3928 4666 
L 3928 4134 
L 2272 4134 
L 2272 0 
L 1638 0 
L 1638 4134 
L -19 4134 
L -19 4666 
z
" transform="scale(0.015625)"/>
       <path id="DejaVuSans-4c" d="M 603 3500 
L 1178 3500 
L 1178 0 
L 603 0 
L 603 3500 
z
M 603 4863 
L 1178 4863 
L 1178 4134 
L 603 4134 
L 603 4863 
z
" transform="scale(0.015625)"/>
       <path id="DejaVuSans-50" d="M 3328 2828 
Q 3544 3216 3844 3400 
Q 4144 3584 4550 3584 
Q 5097 3584 5394 3201 
Q 5691 2819 5691 2113 
L 5691 0 
L 5113 0 
L 5113 2094 
Q 5113 2597 4934 2840 
Q 4756 3084 4391 3084 
Q 3944 3084 3684 2787 
Q 3425 2491 3425 1978 
L 3425 0 
L 2847 0 
L 2847 2094 
Q 2847 2600 2669 2842 
Q 2491 3084 2119 3084 
Q 1678 3084 1418 2786 
Q 1159 2488 1159 1978 
L 1159 0 
L 581 0 
L 581 3500 
L 1159 3500 
L 1159 2956 
Q 1356 3278 1631 3431 
Q 1906 3584 2284 3584 
Q 2666 3584 2933 3390 
Q 3200 3197 3328 2828 
z
" transform="scale(0.015625)"/>
       <path id="DejaVuSans-48" d="M 3597 1894 
L 3597 1613 
L 953 1613 
Q 991 1019 1311 708 
Q 1631 397 2203 397 
Q 2534 397 2845 478 
Q 3156 559 3463 722 
L 3463 178 
Q 3153 47 2828 -22 
Q 2503 -91 2169 -91 
Q 1331 -91 842 396 
Q 353 884 353 1716 
Q 353 2575 817 3079 
Q 1281 3584 2069 3584 
Q 2775 3584 3186 3129 
Q 3597 2675 3597 1894 
z
M 3022 2063 
Q 3016 2534 2758 2815 
Q 2500 3097 2075 3097 
Q 1594 3097 1305 2825 
Q 1016 2553 972 2059 
L 3022 2063 
z
" transform="scale(0.015625)"/>
       <path id="DejaVuSans-3" transform="scale(0.015625)"/>
       <path id="DejaVuSans-b" d="M 1984 4856 
Q 1566 4138 1362 3434 
Q 1159 2731 1159 2009 
Q 1159 1288 1364 580 
Q 1569 -128 1984 -844 
L 1484 -844 
Q 1016 -109 783 600 
Q 550 1309 550 2009 
Q 550 2706 781 3412 
Q 1013 4119 1484 4856 
L 1984 4856 
z
" transform="scale(0.015625)"/>
       <path id="DejaVuSans-56" d="M 2834 3397 
L 2834 2853 
Q 2591 2978 2328 3040 
Q 2066 3103 1784 3103 
Q 1356 3103 1142 2972 
Q 928 2841 928 2578 
Q 928 2378 1081 2264 
Q 1234 2150 1697 2047 
L 1894 2003 
Q 2506 1872 2764 1633 
Q 3022 1394 3022 966 
Q 3022 478 2636 193 
Q 2250 -91 1575 -91 
Q 1294 -91 989 -36 
Q 684 19 347 128 
L 347 722 
Q 666 556 975 473 
Q 1284 391 1588 391 
Q 1994 391 2212 530 
Q 2431 669 2431 922 
Q 2431 1156 2273 1281 
Q 2116 1406 1581 1522 
L 1381 1569 
Q 847 1681 609 1914 
Q 372 2147 372 2553 
Q 372 3047 722 3315 
Q 1072 3584 1716 3584 
Q 2034 3584 2315 3537 
Q 2597 3491 2834 3397 
z
" transform="scale(0.015625)"/>
       <path id="DejaVuSans-c" d="M 513 4856 
L 1013 4856 
Q 1481 4119 1714 3412 
Q 1947 2706 1947 2009 
Q 1947 1309 1714 600 
Q 1481 -109 1013 -844 
L 513 -844 
Q 928 -128 1133 580 
Q 1338 1288 1338 2009 
Q 1338 2731 1133 3434 
Q 928 4138 513 4856 
z
" transform="scale(0.015625)"/>
      </defs>
      <use xlink:href="#DejaVuSans-37"/>
      <use xlink:href="#DejaVuSans-4c" transform="translate(58 0)"/>
      <use xlink:href="#DejaVuSans-50" transform="translate(85.78125 0)"/>
      <use xlink:href="#DejaVuSans-48" transform="translate(183.1875 0)"/>
      <use xlink:href="#DejaVuSans-3" transform="translate(244.71875 0)"/>
      <use xlink:href="#DejaVuSans-b" transform="translate(276.5 0)"/>
      <use xlink:href="#DejaVuSans-56" transform="translate(315.515625 0)"/>
      <use xlink:href="#DejaVuSans-c" transform="translate(367.609375 0)"/>
     </g>
    </g>
   </g>
   <g id="matplotlib.axis_2">
    <g id="ytick_1">
     <g id="line2d_19">
      <path d="M 42.942969 135.594165 
L 849.380625 135.594165 
" clip-path="url(#paf305035be)" style="fill: none; stroke: #b0b0b0; stroke-opacity: 0.3; stroke-width: 0.8; stroke-linecap: square"/>
     </g>
     <g id="line2d_20">
      <defs>
       <path id="mef33d0148e" d="M 0 0 
L -3.5 0 
" style="stroke: #000000; stroke-width: 0.8"/>
      </defs>
      <g>
       <use xlink:href="#mef33d0148e" x="42.942969" y="135.594165" style="stroke: #000000; stroke-width: 0.8"/>
      </g>
     </g>
     <g id="text_11">
      <!-- −2 -->
      <g transform="translate(21.200781 139.392993) scale(0.1 -0.1)">
       <defs>
        <path id="DejaVuSans-c9c" d="M 678 2272 
L 4684 2272 
L 4684 1741 
L 678 1741 
L 678 2272 
z
" transform="scale(0.015625)"/>
       </defs>
       <use xlink:href="#DejaVuSans-c9c"/>
       <use xlink:href="#DejaVuSans-15" transform="translate(83.796875 0)"/>
      </g>
     </g>
    </g>
    <g id="ytick_2">
     <g id="line2d_21">
      <path d="M 42.942969 100.079656 
L 849.380625 100.079656 
" clip-path="url(#paf305035be)" style="fill: none; stroke: #b0b0b0; stroke-opacity: 0.3; stroke-width: 0.8; stroke-linecap: square"/>
     </g>
     <g id="line2d_22">
      <g>
       <use xlink:href="#mef33d0148e" x="42.942969" y="100.079656" style="stroke: #000000; stroke-width: 0.8"/>
      </g>
     </g>
     <g id="text_12">
      <!-- 0 -->
      <g transform="translate(29.580469 103.878484) scale(0.1 -0.1)">
       <use xlink:href="#DejaVuSans-13"/>
      </g>
     </g>
    </g>
    <g id="ytick_3">
     <g id="line2d_23">
      <path d="M 42.942969 64.565148 
L 849.380625 64.565148 
" clip-path="url(#paf305035be)" style="fill: none; stroke: #b0b0b0; stroke-opacity: 0.3; stroke-width: 0.8; stroke-linecap: square"/>
     </g>
     <g id="line2d_24">
      <g>
       <use xlink:href="#mef33d0148e" x="42.942969" y="64.565148" style="stroke: #000000; stroke-width: 0.8"/>
      </g>
     </g>
     <g id="text_13">
      <!-- 2 -->
      <g transform="translate(29.580469 68.363976) scale(0.1 -0.1)">
       <use xlink:href="#DejaVuSans-15"/>
      </g>
     </g>
    </g>
    <g id="ytick_4">
     <g id="line2d_25">
      <path d="M 42.942969 29.050639 
L 849.380625 29.050639 
" clip-path="url(#paf305035be)" style="fill: none; stroke: #b0b0b0; stroke-opacity: 0.3; stroke-width: 0.8; stroke-linecap: square"/>
     </g>
     <g id="line2d_26">
      <g>
       <use xlink:href="#mef33d0148e" x="42.942969" y="29.050639" style="stroke: #000000; stroke-width: 0.8"/>
      </g>
     </g>
     <g id="text_14">
      <!-- 4 -->
      <g transform="translate(29.580469 32.849467) scale(0.1 -0.1)">
       <defs>
        <path id="DejaVuSans-17" d="M 2419 4116 
L 825 1625 
L 2419 1625 
L 2419 4116 
z
M 2253 4666 
L 3047 4666 
L 3047 1625 
L 3713 1625 
L 3713 1100 
L 3047 1100 
L 3047 0 
L 2419 0 
L 2419 1100 
L 313 1100 
L 313 1709 
L 2253 4666 
z
" transform="scale(0.015625)"/>
       </defs>
       <use xlink:href="#DejaVuSans-17"/>
      </g>
     </g>
    </g>
    <g id="text_15">
     <!-- Amplitude -->
     <g transform="translate(14.798438 121.998438) rotate(-90) scale(0.1 -0.1)">
      <defs>
       <path id="DejaVuSans-24" d="M 2188 4044 
L 1331 1722 
L 3047 1722 
L 2188 4044 
z
M 1831 4666 
L 2547 4666 
L 4325 0 
L 3669 0 
L 3244 1197 
L 1141 1197 
L 716 0 
L 50 0 
L 1831 4666 
z
" transform="scale(0.015625)"/>
       <path id="DejaVuSans-53" d="M 1159 525 
L 1159 -1331 
L 581 -1331 
L 581 3500 
L 1159 3500 
L 1159 2969 
Q 1341 3281 1617 3432 
Q 1894 3584 2278 3584 
Q 2916 3584 3314 3078 
Q 3713 2572 3713 1747 
Q 3713 922 3314 415 
Q 2916 -91 2278 -91 
Q 1894 -91 1617 61 
Q 1341 213 1159 525 
z
M 3116 1747 
Q 3116 2381 2855 2742 
Q 2594 3103 2138 3103 
Q 1681 3103 1420 2742 
Q 1159 2381 1159 1747 
Q 1159 1113 1420 752 
Q 1681 391 2138 391 
Q 2594 391 2855 752 
Q 3116 1113 3116 1747 
z
" transform="scale(0.015625)"/>
       <path id="DejaVuSans-4f" d="M 603 4863 
L 1178 4863 
L 1178 0 
L 603 0 
L 603 4863 
z
" transform="scale(0.015625)"/>
       <path id="DejaVuSans-57" d="M 1172 4494 
L 1172 3500 
L 2356 3500 
L 2356 3053 
L 1172 3053 
L 1172 1153 
Q 1172 725 1289 603 
Q 1406 481 1766 481 
L 2356 481 
L 2356 0 
L 1766 0 
Q 1100 0 847 248 
Q 594 497 594 1153 
L 594 3053 
L 172 3053 
L 172 3500 
L 594 3500 
L 594 4494 
L 1172 4494 
z
" transform="scale(0.015625)"/>
       <path id="DejaVuSans-58" d="M 544 1381 
L 544 3500 
L 1119 3500 
L 1119 1403 
Q 1119 906 1312 657 
Q 1506 409 1894 409 
Q 2359 409 2629 706 
Q 2900 1003 2900 1516 
L 2900 3500 
L 3475 3500 
L 3475 0 
L 2900 0 
L 2900 538 
Q 2691 219 2414 64 
Q 2138 -91 1772 -91 
Q 1169 -91 856 284 
Q 544 659 544 1381 
z
M 1991 3584 
L 1991 3584 
z
" transform="scale(0.015625)"/>
       <path id="DejaVuSans-47" d="M 2906 2969 
L 2906 4863 
L 3481 4863 
L 3481 0 
L 2906 0 
L 2906 525 
Q 2725 213 2448 61 
Q 2172 -91 1784 -91 
Q 1150 -91 751 415 
Q 353 922 353 1747 
Q 353 2572 751 3078 
Q 1150 3584 1784 3584 
Q 2172 3584 2448 3432 
Q 2725 3281 2906 2969 
z
M 947 1747 
Q 947 1113 1208 752 
Q 1469 391 1925 391 
Q 2381 391 2643 752 
Q 2906 1113 2906 1747 
Q 2906 2381 2643 2742 
Q 2381 3103 1925 3103 
Q 1469 3103 1208 2742 
Q 947 2381 947 1747 
z
" transform="scale(0.015625)"/>
      </defs>
      <use xlink:href="#DejaVuSans-24"/>
      <use xlink:href="#DejaVuSans-50" transform="translate(68.40625 0)"/>
      <use xlink:href="#DejaVuSans-53" transform="translate(165.8125 0)"/>
      <use xlink:href="#DejaVuSans-4f" transform="translate(229.296875 0)"/>
      <use xlink:href="#DejaVuSans-4c" transform="translate(257.078125 0)"/>
      <use xlink:href="#DejaVuSans-57" transform="translate(284.859375 0)"/>
      <use xlink:href="#DejaVuSans-58" transform="translate(324.0625 0)"/>
      <use xlink:href="#DejaVuSans-47" transform="translate(387.4375 0)"/>
      <use xlink:href="#DejaVuSans-48" transform="translate(450.921875 0)"/>
     </g>
    </g>
   </g>
   <g id="line2d_27">
    <path d="M 79.599226 108.940413 
L 81.065476 88.628928 
L 81.798601 82.902855 
L 82.531726 83.401084 
L 83.264852 89.944984 
L 84.731102 110.351842 
L 85.464227 116.815888 
L 86.197352 117.211386 
L 86.930477 111.395462 
L 88.396728 91.061523 
L 89.129853 83.924634 
L 89.862978 82.659772 
L 90.596103 87.726671 
L 92.795478 115.621058 
L 93.528604 117.734115 
L 94.261729 113.433405 
L 94.994854 104.277795 
L 95.727979 93.59049 
L 96.461104 85.252346 
L 97.194229 82.291965 
L 97.927354 85.784838 
L 98.66048 94.46184 
L 99.393605 105.169787 
L 100.12673 114.017105 
L 100.859855 117.788465 
L 101.59298 115.114128 
L 102.326105 106.96863 
L 103.792356 87.036971 
L 104.525481 82.508128 
L 105.258606 84.382277 
L 105.991731 91.981382 
L 107.457981 112.22592 
L 108.191106 117.505299 
L 108.924232 116.458184 
L 109.657357 109.462867 
L 111.123607 89.039204 
L 111.856732 83.03894 
L 112.589857 83.242334 
L 113.322982 89.570978 
L 114.789233 109.97565 
L 115.522358 116.60984 
L 116.255483 117.197325 
L 116.988608 111.521906 
L 118.454858 91.185369 
L 119.187984 83.942343 
L 119.921109 82.568664 
L 120.654234 87.57232 
L 122.853609 115.632799 
L 123.586734 117.832128 
L 124.31986 113.582638 
L 125.052985 104.438317 
L 125.78611 93.737823 
L 126.519235 85.386463 
L 127.25236 82.43091 
L 127.985485 85.946803 
L 128.71861 94.645493 
L 129.451736 105.343938 
L 130.184861 114.126638 
L 130.917986 117.775719 
L 131.651111 114.946996 
L 132.384236 106.6623 
L 133.850486 86.683456 
L 134.583612 82.275542 
L 135.316737 84.323098 
L 136.049862 92.079665 
L 137.516112 112.350334 
L 138.249237 117.472482 
L 138.982362 116.220961 
L 139.715488 109.066544 
L 141.181738 88.767415 
L 141.914863 83.074978 
L 142.647988 83.656841 
L 143.381113 90.310034 
L 144.847363 110.780715 
L 145.580489 117.105793 
L 146.313614 117.25849 
L 147.046739 111.169787 
L 148.512989 90.588954 
L 149.246114 83.591878 
L 149.979239 82.60208 
L 150.712365 87.962775 
L 152.178615 108.216425 
L 152.91174 115.666685 
L 153.644865 117.309976 
L 154.37799 112.544949 
L 156.577366 84.623283 
L 157.310491 82.367412 
L 158.043616 86.602207 
L 158.776741 95.804843 
L 159.509866 106.630303 
L 160.242991 115.135492 
L 160.976117 118.223315 
L 161.709242 114.777296 
L 162.442367 106.070456 
L 163.175492 95.298157 
L 163.908617 86.40587 
L 164.641742 82.641688 
L 165.374867 85.364633 
L 166.107993 93.546287 
L 167.574243 113.242421 
L 168.307368 117.448289 
L 169.040493 115.183779 
L 169.773618 107.245831 
L 171.239869 86.931586 
L 171.972994 81.990156 
L 172.706119 83.516723 
L 173.439244 90.966297 
L 174.905494 111.622292 
L 175.638619 117.318813 
L 176.371745 116.67405 
L 177.10487 109.977151 
L 178.57112 89.779311 
L 179.304245 83.794346 
L 180.03737 84.019347 
L 180.770495 90.390465 
L 182.236746 110.797326 
L 182.969871 117.286059 
L 183.702996 117.604273 
L 184.436121 111.579292 
L 185.902371 90.646464 
L 186.635497 83.302035 
L 187.368622 81.966412 
L 188.101747 87.071883 
L 190.301122 114.844557 
L 191.034247 116.684165 
L 191.767373 112.116716 
L 193.966748 84.687553 
L 194.699873 82.61976 
L 195.432998 87.071101 
L 196.166123 96.494631 
L 196.899249 107.502724 
L 197.632374 116.109508 
L 198.365499 119.19505 
L 199.098624 115.651875 
L 199.831749 106.791101 
L 200.564874 95.858236 
L 201.297999 86.836893 
L 202.031125 82.981415 
L 202.76425 85.619603 
L 203.497375 93.667311 
L 204.2305 104.034199 
L 204.963625 112.771007 
L 205.69675 116.534868 
L 206.429875 113.831428 
L 207.163001 105.574548 
L 208.629251 85.346413 
L 209.362376 80.831838 
L 210.095501 82.927119 
L 210.828626 90.940128 
L 212.294877 112.216839 
L 213.028002 117.907836 
L 213.761127 117.152209 
L 214.494252 110.385904 
L 215.960502 90.623187 
L 216.693627 85.145126 
L 217.426753 85.89781 
L 218.159878 92.612315 
L 219.626128 112.528823 
L 220.359253 118.157007 
L 221.092378 117.410449 
L 221.825503 110.377385 
L 223.291754 88.48276 
L 224.024879 81.32156 
L 224.758004 80.451395 
L 225.491129 86.057829 
L 226.957379 106.491014 
L 227.690505 113.732893 
L 228.42363 115.095299 
L 229.156755 110.20655 
L 230.623005 91.266129 
L 231.35613 84.70352 
L 232.089255 84.065947 
L 232.822381 89.847764 
L 235.021756 119.422023 
L 235.754881 121.48914 
L 236.488006 116.781732 
L 237.221131 106.982459 
L 237.954257 95.58942 
L 238.687382 86.625476 
L 239.420507 83.156902 
L 240.153632 86.170235 
L 240.886757 94.223387 
L 241.619882 103.999869 
L 242.353007 111.559796 
L 243.086133 113.822474 
L 243.819258 109.729142 
L 244.552383 100.652788 
L 245.285508 89.901355 
L 246.018633 81.497307 
L 246.751758 78.685666 
L 247.484883 82.724074 
L 248.218009 92.404466 
L 249.684259 114.872512 
L 250.417384 120.119714 
L 251.150509 118.679417 
L 251.883634 111.454315 
L 253.349885 92.578495 
L 254.08301 88.299036 
L 254.816135 90.208465 
L 255.54926 97.500292 
L 257.01551 115.527258 
L 257.748635 118.843484 
L 258.481761 115.502709 
L 259.214886 106.244988 
L 260.681136 82.860135 
L 261.414261 76.53277 
L 262.147386 77.046808 
L 262.880511 83.99148 
L 264.346762 105.217335 
L 265.079887 111.838865 
L 265.813012 112.416521 
L 266.546137 107.176692 
L 268.012387 90.488869 
L 268.745512 86.473211 
L 269.478638 88.661344 
L 270.211763 96.792604 
L 271.678013 119.238588 
L 272.411138 125.719347 
L 273.144263 125.351847 
L 273.877388 118.123832 
L 275.343639 94.111899 
L 276.076764 85.211674 
L 276.809889 82.339301 
L 277.543014 85.823664 
L 279.009264 102.106449 
L 279.74239 107.506436 
L 280.475515 107.314599 
L 281.20864 101.280327 
L 282.67489 81.763844 
L 283.408015 75.92336 
L 284.14114 76.661251 
L 284.874266 84.350082 
L 287.073641 120.956791 
L 287.806766 125.258413 
L 288.539891 122.590459 
L 289.273016 114.614194 
L 290.006142 104.794836 
L 290.739267 97.071384 
L 291.472392 94.361621 
L 292.205517 97.462761 
L 293.671767 112.850831 
L 294.404892 117.855676 
L 295.138018 116.915936 
L 295.871143 109.323897 
L 298.070518 72.508458 
L 298.803643 68.180084 
L 299.536768 71.351875 
L 300.269894 80.659594 
L 301.736144 103.454434 
L 302.469269 109.48575 
L 303.202394 109.477589 
L 303.935519 104.525344 
L 304.668644 97.694242 
L 305.40177 92.797928 
L 306.134895 92.891549 
L 306.86802 99.048436 
L 309.067395 131.251726 
L 309.80052 134.187089 
L 310.533646 129.411427 
L 311.266771 118.079699 
L 312.733021 89.975407 
L 313.466146 81.205892 
L 314.199271 79.038167 
L 314.932396 82.834306 
L 316.398647 96.161448 
L 317.131772 98.58187 
L 317.864897 95.556538 
L 318.598022 87.983109 
L 319.331147 78.858015 
L 320.064272 72.151906 
L 320.797398 71.293983 
L 321.530523 77.834882 
L 322.263648 90.792711 
L 323.729898 121.877908 
L 324.463023 131.650451 
L 325.196148 134.055469 
L 325.929274 129.410844 
L 327.395524 110.746297 
L 328.128649 104.26483 
L 328.861774 102.927834 
L 329.594899 106.394677 
L 330.328024 112.128575 
L 331.06115 116.41969 
L 331.794275 115.871458 
L 332.5274 108.786317 
L 333.260525 95.923238 
L 334.726775 66.335077 
L 335.4599 57.98347 
L 336.193026 57.639228 
L 336.926151 65.132886 
L 339.125526 102.757462 
L 339.858651 108.346295 
L 340.591776 108.310664 
L 342.058027 101.202263 
L 342.791152 101.063981 
L 343.524277 106.289238 
L 344.257402 116.471039 
L 345.723652 139.509679 
L 346.456778 144.349245 
L 347.189903 141.068696 
L 347.923028 129.822695 
L 350.122403 81.412053 
L 350.855528 73.444093 
L 351.588654 72.381936 
L 352.321779 76.387401 
L 353.054904 82.015048 
L 353.788029 85.638609 
L 354.521154 84.920889 
L 355.254279 79.765924 
L 355.987404 72.389038 
L 356.72053 66.475149 
L 357.453655 65.742093 
L 358.18678 72.452948 
L 358.919905 86.443413 
L 360.386155 123.89945 
L 361.11928 138.491388 
L 361.852406 145.629521 
L 362.585531 144.530197 
L 363.318656 136.980082 
L 364.784906 117.271566 
L 365.518031 111.94754 
L 366.251156 111.27873 
L 367.717407 115.606205 
L 368.450532 113.81038 
L 369.183657 105.966746 
L 369.916782 92.135856 
L 371.383032 58.283495 
L 372.116158 46.920061 
L 372.849283 43.887835 
L 373.582408 49.906032 
L 374.315533 63.03845 
L 375.781783 94.625847 
L 376.514908 105.301662 
L 377.248034 110.227694 
L 377.981159 110.639393 
L 378.714284 109.560772 
L 379.447409 110.460238 
L 380.180534 115.74288 
L 380.913659 125.662194 
L 382.37991 149.141821 
L 383.113035 154.717742 
L 383.84616 151.90851 
L 384.579285 140.207717 
L 386.045535 100.778176 
L 386.77866 81.943863 
L 387.511786 69.01109 
L 388.244911 63.504712 
L 388.978036 64.375945 
L 390.444286 72.496258 
L 391.177411 73.261787 
L 391.910536 70.124478 
L 392.643662 64.67567 
L 393.376787 60.250603 
L 394.109912 60.592347 
L 394.843037 68.309364 
L 395.576162 83.718875 
L 397.775537 144.706928 
L 398.508663 155.440105 
L 399.241788 157.142206 
L 399.974913 150.980464 
L 401.441163 129.062029 
L 402.174288 120.762899 
L 402.907413 116.723836 
L 403.640539 115.919632 
L 404.373664 115.474155 
L 405.106789 111.948344 
L 405.839914 102.871041 
L 406.573039 87.91729 
L 408.039289 51.02023 
L 408.772415 37.795269 
L 409.50554 33.161943 
L 410.238665 38.362922 
L 410.97179 51.883819 
L 412.43804 88.130898 
L 413.171165 102.397713 
L 413.904291 110.955486 
L 414.637416 114.449844 
L 415.370541 115.53281 
L 416.103666 117.603857 
L 416.836791 123.275476 
L 417.569916 133.162162 
L 419.036167 156.539204 
L 419.769292 162.18752 
L 420.502417 159.274184 
L 421.235542 146.964255 
L 421.968667 127.16311 
L 423.434917 82.303882 
L 424.168043 66.329881 
L 424.901168 58.075738 
L 425.634293 56.943364 
L 426.367418 60.166817 
L 427.100543 64.068925 
L 427.833668 65.619026 
L 428.566793 63.688391 
L 429.299919 59.518235 
L 430.033044 56.218965 
L 430.766169 57.492558 
L 431.499294 66.07029 
L 432.232419 82.470587 
L 434.431795 148.169877 
L 435.16492 160.625356 
L 435.898045 163.63237 
L 436.63117 158.085755 
L 438.830545 125.282496 
L 439.563671 119.596712 
L 440.296796 117.246084 
L 441.029921 115.547306 
L 441.763046 111.110759 
L 442.496171 101.388193 
L 443.229296 85.912951 
L 444.695547 47.914804 
L 445.428672 34.11708 
L 446.161797 29.050639 
L 446.894922 34.117429 
L 447.628047 47.917068 
L 449.094297 85.918547 
L 449.827423 101.388193 
L 450.560548 111.098168 
L 451.293673 115.519576 
L 452.026798 117.209865 
L 452.759923 119.568382 
L 453.493048 125.282496 
L 454.226173 135.074346 
L 455.692424 158.181397 
L 456.425549 163.700923 
L 457.158674 160.625356 
L 457.891799 148.080338 
L 458.624924 127.958326 
L 460.091175 82.344324 
L 460.8243 66.07029 
L 461.557425 57.646802 
L 462.29055 56.492871 
L 463.023675 59.817607 
L 463.7568 63.889851 
L 464.489925 65.619026 
L 465.223051 63.832491 
L 465.956176 59.754266 
L 466.689301 56.499689 
L 467.422426 57.781597 
L 468.155551 66.329881 
L 468.888676 82.639989 
L 471.088052 147.368555 
L 471.821177 159.274184 
L 472.554302 161.734264 
L 473.287427 155.764517 
L 475.486803 123.275476 
L 476.219928 118.19173 
L 476.953053 116.53096 
L 477.686178 115.496076 
L 478.419303 111.632507 
L 479.152428 102.397713 
L 479.885553 87.390956 
L 481.351804 50.580246 
L 482.084929 37.523369 
L 482.818054 33.161943 
L 483.551179 38.704713 
L 484.284304 52.549975 
L 485.750555 88.936792 
L 486.48368 102.871041 
L 487.216805 110.851994 
L 487.94993 113.636365 
L 488.683055 114.01686 
L 489.41618 115.507003 
L 490.149305 120.762899 
L 490.882431 130.362652 
L 492.348681 153.224975 
L 493.081806 158.573708 
L 493.814931 155.440105 
L 494.548056 143.184715 
L 496.014307 101.910885 
L 496.747432 82.055422 
L 497.480557 68.309364 
L 498.213682 62.353403 
L 498.946807 63.180683 
L 500.413057 72.037091 
L 501.146183 73.261787 
L 501.879308 70.479182 
L 502.612433 65.250022 
L 503.345558 60.938803 
L 504.078683 61.325821 
L 504.811808 69.01109 
L 505.544933 84.234035 
L 507.744309 142.669895 
L 508.477434 151.90851 
L 509.210559 152.137515 
L 509.943684 144.86979 
L 511.409935 122.899852 
L 512.14306 115.74288 
L 512.876185 113.347336 
L 513.60931 114.334742 
L 514.342435 115.516985 
L 515.07556 113.306917 
L 515.808685 105.301662 
L 516.541811 91.415231 
L 518.008061 57.626709 
L 518.741186 46.493398 
L 519.474311 43.887835 
L 520.207436 50.47064 
L 520.940561 64.141629 
L 522.406812 95.898212 
L 523.139937 105.966746 
L 523.873062 109.903623 
L 524.606187 109.166568 
L 525.339312 107.033742 
L 526.072437 107.150595 
L 526.805562 111.94754 
L 527.538688 121.550444 
L 529.004938 144.151407 
L 529.738063 149.039873 
L 530.471188 145.629521 
L 531.204313 133.824756 
L 533.403689 81.53677 
L 534.136814 72.452948 
L 534.869939 70.811757 
L 535.603064 74.811373 
L 536.336189 80.859555 
L 537.069314 85.084577 
L 537.80244 84.920889 
L 538.535565 80.151036 
L 539.26869 72.997903 
L 540.001815 67.231265 
L 540.73494 66.636663 
L 541.468065 73.444093 
L 542.20119 87.331959 
L 543.667441 123.138136 
L 544.400566 136.008713 
L 545.133691 141.068696 
L 545.866816 137.983094 
L 546.599941 129.062001 
L 547.333066 118.305586 
L 548.066192 109.830698 
L 548.799317 106.289238 
L 549.532442 107.88972 
L 550.265567 112.39777 
L 550.998692 116.110197 
L 551.731817 115.418302 
L 552.464942 108.346295 
L 553.198068 95.459421 
L 554.664318 65.737658 
L 555.397443 57.545652 
L 556.130568 57.639228 
L 556.863693 65.765822 
L 559.063069 104.001624 
L 559.796194 108.786317 
L 560.529319 107.593555 
L 561.995569 98.409129 
L 562.728694 97.814397 
L 563.46182 102.927834 
L 564.194945 113.048677 
L 564.92807 125.124475 
L 565.661195 134.889254 
L 566.39432 138.502863 
L 567.127445 134.055469 
L 567.86057 122.351194 
L 569.326821 91.548166 
L 570.059946 81.180081 
L 570.793071 77.834882 
L 571.526196 81.117105 
L 572.992446 95.094652 
L 573.725572 98.124157 
L 574.458697 95.556538 
L 575.191822 88.227523 
L 575.924947 79.234592 
L 576.658072 72.708399 
L 577.391197 72.158181 
L 578.124322 79.038167 
L 578.857448 92.097637 
L 580.323698 121.479539 
L 581.056823 129.296318 
L 581.789948 129.411427 
L 582.523073 122.753052 
L 583.989324 103.155726 
L 584.722449 98.122604 
L 585.455574 99.048436 
L 586.188699 104.871395 
L 586.921824 112.358831 
L 587.654949 117.432361 
L 588.388074 116.833756 
L 589.1212 109.477589 
L 591.320575 72.107325 
L 592.0537 67.802851 
L 592.786825 71.351875 
L 593.51995 81.256107 
L 594.986201 104.678659 
L 595.719326 110.258259 
L 596.452451 109.323897 
L 597.185576 103.292797 
L 597.918701 95.636407 
L 598.651826 90.455214 
L 599.384952 90.809672 
L 600.118077 97.462761 
L 601.584327 120.169743 
L 602.317452 128.068093 
L 603.050577 129.105725 
L 603.783702 122.590459 
L 605.983078 86.352636 
L 606.716203 81.8736 
L 607.449328 84.350082 
L 608.182453 91.900172 
L 608.915578 100.751112 
L 609.648704 106.76165 
L 610.381829 107.078932 
L 611.114954 101.280327 
L 612.581204 81.835049 
L 613.314329 76.268469 
L 614.047454 77.545928 
L 614.78058 85.823664 
L 616.24683 111.707936 
L 616.979955 120.770558 
L 617.71308 122.987732 
L 618.446205 118.123832 
L 619.912456 98.420712 
L 620.645581 91.782519 
L 621.378706 91.235723 
L 622.111831 96.792604 
L 623.578081 114.547825 
L 624.311206 118.715158 
L 625.044332 116.142524 
L 625.777457 107.176692 
L 627.243707 83.018709 
L 627.976832 76.252089 
L 628.709957 76.702331 
L 629.443082 83.99148 
L 630.909333 106.063852 
L 631.642458 112.52887 
L 632.375583 112.426819 
L 633.108708 106.244988 
L 634.574958 88.6404 
L 635.308084 85.194831 
L 636.041209 88.428103 
L 636.774334 97.500292 
L 638.240584 119.130777 
L 638.973709 123.53037 
L 639.706834 120.639758 
L 640.43996 111.454315 
L 641.90621 88.707182 
L 642.639335 83.34997 
L 643.37246 84.936229 
L 644.105585 92.404466 
L 644.83871 102.402033 
L 645.571836 110.626516 
L 646.304961 113.537113 
L 647.038086 109.762767 
L 647.771211 100.652788 
L 648.504336 89.752685 
L 649.237461 81.410451 
L 649.970586 79.060809 
L 650.703712 83.862197 
L 651.436837 94.223387 
L 652.169962 106.407543 
L 652.903087 115.978241 
L 653.636212 119.520839 
L 654.369337 115.963952 
L 655.102462 106.982459 
L 655.835587 96.324144 
L 656.568713 88.325078 
L 657.301838 86.197824 
L 658.034963 90.765974 
L 660.234338 117.501409 
L 660.967463 118.184289 
L 661.700589 111.984481 
L 663.166839 89.441799 
L 663.899964 81.464454 
L 664.633089 80.072503 
L 665.366214 85.671506 
L 666.832465 106.903684 
L 667.56559 114.196972 
L 668.298715 115.080005 
L 669.03184 109.35245 
L 670.49809 89.502519 
L 671.231215 83.635325 
L 671.964341 84.386585 
L 672.697466 91.662698 
L 674.163716 113.461361 
L 674.896841 119.612893 
L 675.629966 118.837074 
L 676.363091 111.429318 
L 677.829342 89.62015 
L 678.562467 83.590989 
L 679.295592 84.389005 
L 680.028717 91.529699 
L 681.494967 111.562604 
L 682.228093 116.23663 
L 682.961218 114.078929 
L 683.694343 105.853136 
L 685.160593 85.157703 
L 685.893718 80.875246 
L 686.626843 83.661858 
L 687.359969 92.508388 
L 688.826219 113.813985 
L 689.559344 118.117356 
L 690.292469 115.374588 
L 691.025594 106.789649 
L 691.758719 95.858236 
L 692.491845 86.981125 
L 693.22497 83.720791 
L 693.958095 87.390538 
L 694.69122 96.534221 
L 695.424345 107.502724 
L 696.15747 115.899632 
L 696.890595 118.324523 
L 697.623721 113.724117 
L 699.823096 83.940615 
L 700.556221 81.654271 
L 701.289346 86.393684 
L 703.488722 115.07562 
L 704.221847 116.6282 
L 704.954972 111.32756 
L 706.421222 90.646464 
L 707.154347 83.596453 
L 707.887473 83.04556 
L 708.620598 89.289107 
L 710.086848 110.797326 
L 710.819973 117.645509 
L 711.553098 117.784431 
L 712.286223 111.171278 
L 713.752474 89.779311 
L 714.485599 83.427116 
L 715.218724 83.840226 
L 715.951849 90.802568 
L 717.418099 111.622292 
L 718.151225 117.108674 
L 718.88435 115.72949 
L 719.617475 107.991268 
L 721.083725 86.931586 
L 721.81685 81.947866 
L 722.549975 83.971753 
L 723.283101 92.221201 
L 724.749351 113.242421 
L 725.482476 117.746439 
L 726.215601 115.217945 
L 726.948726 106.702451 
L 727.681851 95.620145 
L 728.414977 86.40587 
L 729.148102 82.74585 
L 729.881227 86.111629 
L 730.614352 95.173971 
L 731.347477 106.330124 
L 732.080602 115.135492 
L 732.813727 118.07107 
L 733.546853 113.944167 
L 734.279978 104.36522 
L 735.013103 93.110486 
L 735.746228 84.623283 
L 736.479353 82.249196 
L 737.212478 86.906874 
L 739.411854 115.666685 
L 740.144979 117.246371 
L 740.878104 111.893325 
L 742.344354 90.863284 
L 743.077479 83.591878 
L 743.810605 82.851086 
L 744.54373 88.959993 
L 746.00998 110.32114 
L 746.743105 117.105793 
L 747.47623 117.174507 
L 748.209355 110.507649 
L 749.675606 89.221315 
L 750.408731 83.074978 
L 751.141856 83.764618 
L 751.874981 91.003229 
L 753.341231 112.072943 
L 754.074357 117.472482 
L 754.807482 115.920902 
L 755.540607 108.022042 
L 757.006857 87.017127 
L 757.739982 82.275542 
L 758.473107 84.580063 
L 759.206233 93.015033 
L 760.672483 113.737845 
L 761.405608 117.775719 
L 762.138733 114.734789 
L 762.871858 105.839673 
L 763.604983 94.651719 
L 764.338109 85.647416 
L 765.071234 82.43091 
L 765.804359 86.29416 
L 766.537484 95.69992 
L 767.270609 106.894535 
L 768.003734 115.406419 
L 768.736859 117.832128 
L 769.469985 113.196671 
L 771.66936 84.216633 
L 772.402485 82.568664 
L 773.13561 87.910927 
L 774.601861 109.06322 
L 775.334986 116.408149 
L 776.068111 117.197325 
L 776.801236 111.11383 
L 778.267486 89.839734 
L 779.000611 83.164869 
L 779.733737 83.242334 
L 780.466862 90.047829 
L 781.933112 111.37194 
L 782.666237 117.368388 
L 783.399362 116.458184 
L 784.132487 109.008001 
L 785.598738 87.84583 
L 786.331863 82.607047 
L 787.064988 84.382277 
L 787.798113 92.459088 
L 789.264363 113.339301 
L 789.997488 117.770724 
L 790.730614 115.114128 
L 791.463739 106.429152 
L 792.196864 95.191925 
L 792.929989 85.902951 
L 793.663114 82.28374 
L 794.396239 85.784838 
L 795.129364 95.003547 
L 795.86249 106.245282 
L 796.595615 115.004113 
L 797.32874 117.769286 
L 798.061865 113.433405 
L 800.26124 84.420117 
L 800.994366 82.554372 
L 801.727491 87.726671 
L 803.193741 108.899592 
L 803.926866 116.404613 
L 804.659991 117.36574 
L 805.393116 111.395462 
L 806.859367 90.061949 
L 807.592492 83.2613 
L 808.325617 83.216635 
L 809.058742 89.944984 
L 810.524992 111.271278 
L 811.258118 117.299019 
L 811.991243 116.402459 
L 812.724368 108.940413 
L 812.724368 108.940413 
" clip-path="url(#paf305035be)" style="fill: none; stroke: #1f77b4; stroke-width: 0.5; stroke-linecap: square"/>
   </g>
   <g id="patch_3">
    <path d="M 42.942969 170.433438 
L 42.942969 22.318125 
" style="fill: none; stroke: #000000; stroke-width: 0.8; stroke-linejoin: miter; stroke-linecap: square"/>
   </g>
   <g id="patch_4">
    <path d="M 849.380625 170.433438 
L 849.380625 22.318125 
" style="fill: none; stroke: #000000; stroke-width: 0.8; stroke-linejoin: miter; stroke-linecap: square"/>
   </g>
   <g id="patch_5">
    <path d="M 42.942969 170.433438 
L 849.380625 170.433438 
" style="fill: none; stroke: #000000; stroke-width: 0.8; stroke-linejoin: miter; stroke-linecap: square"/>
   </g>
   <g id="patch_6">
    <path d="M 42.942969 22.318125 
L 849.380625 22.318125 
" style="fill: none; stroke: #000000; stroke-width: 0.8; stroke-linejoin: miter; stroke-linecap: square"/>
   </g>
   <g id="text_16">
    <!-- Chirp + alpha burst (time domain, zoomed) -->
    <g transform="translate(315.118047 16.318125) scale(0.12 -0.12)">
     <defs>
      <path id="DejaVuSans-26" d="M 4122 4306 
L 4122 3641 
Q 3803 3938 3442 4084 
Q 3081 4231 2675 4231 
Q 1875 4231 1450 3742 
Q 1025 3253 1025 2328 
Q 1025 1406 1450 917 
Q 1875 428 2675 428 
Q 3081 428 3442 575 
Q 3803 722 4122 1019 
L 4122 359 
Q 3791 134 3420 21 
Q 3050 -91 2638 -91 
Q 1578 -91 968 557 
Q 359 1206 359 2328 
Q 359 3453 968 4101 
Q 1578 4750 2638 4750 
Q 3056 4750 3426 4639 
Q 3797 4528 4122 4306 
z
" transform="scale(0.015625)"/>
      <path id="DejaVuSans-4b" d="M 3513 2113 
L 3513 0 
L 2938 0 
L 2938 2094 
Q 2938 2591 2744 2837 
Q 2550 3084 2163 3084 
Q 1697 3084 1428 2787 
Q 1159 2491 1159 1978 
L 1159 0 
L 581 0 
L 581 4863 
L 1159 4863 
L 1159 2956 
Q 1366 3272 1645 3428 
Q 1925 3584 2291 3584 
Q 2894 3584 3203 3211 
Q 3513 2838 3513 2113 
z
" transform="scale(0.015625)"/>
      <path id="DejaVuSans-55" d="M 2631 2963 
Q 2534 3019 2420 3045 
Q 2306 3072 2169 3072 
Q 1681 3072 1420 2755 
Q 1159 2438 1159 1844 
L 1159 0 
L 581 0 
L 581 3500 
L 1159 3500 
L 1159 2956 
Q 1341 3275 1631 3429 
Q 1922 3584 2338 3584 
Q 2397 3584 2469 3576 
Q 2541 3569 2628 3553 
L 2631 2963 
z
" transform="scale(0.015625)"/>
      <path id="DejaVuSans-e" d="M 2944 4013 
L 2944 2272 
L 4684 2272 
L 4684 1741 
L 2944 1741 
L 2944 0 
L 2419 0 
L 2419 1741 
L 678 1741 
L 678 2272 
L 2419 2272 
L 2419 4013 
L 2944 4013 
z
" transform="scale(0.015625)"/>
      <path id="DejaVuSans-44" d="M 2194 1759 
Q 1497 1759 1228 1600 
Q 959 1441 959 1056 
Q 959 750 1161 570 
Q 1363 391 1709 391 
Q 2188 391 2477 730 
Q 2766 1069 2766 1631 
L 2766 1759 
L 2194 1759 
z
M 3341 1997 
L 3341 0 
L 2766 0 
L 2766 531 
Q 2569 213 2275 61 
Q 1981 -91 1556 -91 
Q 1019 -91 701 211 
Q 384 513 384 1019 
Q 384 1609 779 1909 
Q 1175 2209 1959 2209 
L 2766 2209 
L 2766 2266 
Q 2766 2663 2505 2880 
Q 2244 3097 1772 3097 
Q 1472 3097 1187 3025 
Q 903 2953 641 2809 
L 641 3341 
Q 956 3463 1253 3523 
Q 1550 3584 1831 3584 
Q 2591 3584 2966 3190 
Q 3341 2797 3341 1997 
z
" transform="scale(0.015625)"/>
      <path id="DejaVuSans-45" d="M 3116 1747 
Q 3116 2381 2855 2742 
Q 2594 3103 2138 3103 
Q 1681 3103 1420 2742 
Q 1159 2381 1159 1747 
Q 1159 1113 1420 752 
Q 1681 391 2138 391 
Q 2594 391 2855 752 
Q 3116 1113 3116 1747 
z
M 1159 2969 
Q 1341 3281 1617 3432 
Q 1894 3584 2278 3584 
Q 2916 3584 3314 3078 
Q 3713 2572 3713 1747 
Q 3713 922 3314 415 
Q 2916 -91 2278 -91 
Q 1894 -91 1617 61 
Q 1341 213 1159 525 
L 1159 0 
L 581 0 
L 581 4863 
L 1159 4863 
L 1159 2969 
z
" transform="scale(0.015625)"/>
      <path id="DejaVuSans-52" d="M 1959 3097 
Q 1497 3097 1228 2736 
Q 959 2375 959 1747 
Q 959 1119 1226 758 
Q 1494 397 1959 397 
Q 2419 397 2687 759 
Q 2956 1122 2956 1747 
Q 2956 2369 2687 2733 
Q 2419 3097 1959 3097 
z
M 1959 3584 
Q 2709 3584 3137 3096 
Q 3566 2609 3566 1747 
Q 3566 888 3137 398 
Q 2709 -91 1959 -91 
Q 1206 -91 779 398 
Q 353 888 353 1747 
Q 353 2609 779 3096 
Q 1206 3584 1959 3584 
z
" transform="scale(0.015625)"/>
      <path id="DejaVuSans-51" d="M 3513 2113 
L 3513 0 
L 2938 0 
L 2938 2094 
Q 2938 2591 2744 2837 
Q 2550 3084 2163 3084 
Q 1697 3084 1428 2787 
Q 1159 2491 1159 1978 
L 1159 0 
L 581 0 
L 581 3500 
L 1159 3500 
L 1159 2956 
Q 1366 3272 1645 3428 
Q 1925 3584 2291 3584 
Q 2894 3584 3203 3211 
Q 3513 2838 3513 2113 
z
" transform="scale(0.015625)"/>
      <path id="DejaVuSans-f" d="M 750 794 
L 1409 794 
L 1409 256 
L 897 -744 
L 494 -744 
L 750 256 
L 750 794 
z
" transform="scale(0.015625)"/>
      <path id="DejaVuSans-5d" d="M 353 3500 
L 3084 3500 
L 3084 2975 
L 922 459 
L 3084 459 
L 3084 0 
L 275 0 
L 275 525 
L 2438 3041 
L 353 3041 
L 353 3500 
z
" transform="scale(0.015625)"/>
     </defs>
     <use xlink:href="#DejaVuSans-26"/>
     <use xlink:href="#DejaVuSans-4b" transform="translate(69.828125 0)"/>
     <use xlink:href="#DejaVuSans-4c" transform="translate(133.203125 0)"/>
     <use xlink:href="#DejaVuSans-55" transform="translate(160.984375 0)"/>
     <use xlink:href="#DejaVuSans-53" transform="translate(202.09375 0)"/>
     <use xlink:href="#DejaVuSans-3" transform="translate(265.578125 0)"/>
     <use xlink:href="#DejaVuSans-e" transform="translate(297.359375 0)"/>
     <use xlink:href="#DejaVuSans-3" transform="translate(381.15625 0)"/>
     <use xlink:href="#DejaVuSans-44" transform="translate(412.9375 0)"/>
     <use xlink:href="#DejaVuSans-4f" transform="translate(474.21875 0)"/>
     <use xlink:href="#DejaVuSans-53" transform="translate(502 0)"/>
     <use xlink:href="#DejaVuSans-4b" transform="translate(565.484375 0)"/>
     <use xlink:href="#DejaVuSans-44" transform="translate(628.859375 0)"/>
     <use xlink:href="#DejaVuSans-3" transform="translate(690.140625 0)"/>
     <use xlink:href="#DejaVuSans-45" transform="translate(721.921875 0)"/>
     <use xlink:href="#DejaVuSans-58" transform="translate(785.40625 0)"/>
     <use xlink:href="#DejaVuSans-55" transform="translate(848.78125 0)"/>
     <use xlink:href="#DejaVuSans-56" transform="translate(889.890625 0)"/>
     <use xlink:href="#DejaVuSans-57" transform="translate(941.984375 0)"/>
     <use xlink:href="#DejaVuSans-3" transform="translate(981.1875 0)"/>
     <use xlink:href="#DejaVuSans-b" transform="translate(1012.96875 0)"/>
     <use xlink:href="#DejaVuSans-57" transform="translate(1051.984375 0)"/>
     <use xlink:href="#DejaVuSans-4c" transform="translate(1091.1875 0)"/>
     <use xlink:href="#DejaVuSans-50" transform="translate(1118.96875 0)"/>
     <use xlink:href="#DejaVuSans-48" transform="translate(1216.375 0)"/>
     <use xlink:href="#DejaVuSans-3" transform="translate(1277.90625 0)"/>
     <use xlink:href="#DejaVuSans-47" transform="translate(1309.6875 0)"/>
     <use xlink:href="#DejaVuSans-52" transform="translate(1373.171875 0)"/>
     <use xlink:href="#DejaVuSans-50" transform="translate(1434.359375 0)"/>
     <use xlink:href="#DejaVuSans-44" transform="translate(1531.765625 0)"/>
     <use xlink:href="#DejaVuSans-4c" transform="translate(1593.046875 0)"/>
     <use xlink:href="#DejaVuSans-51" transform="translate(1620.828125 0)"/>
     <use xlink:href="#DejaVuSans-f" transform="translate(1684.203125 0)"/>
     <use xlink:href="#DejaVuSans-3" transform="translate(1715.984375 0)"/>
     <use xlink:href="#DejaVuSans-5d" transform="translate(1747.765625 0)"/>
     <use xlink:href="#DejaVuSans-52" transform="translate(1800.25 0)"/>
     <use xlink:href="#DejaVuSans-52" transform="translate(1861.4375 0)"/>
     <use xlink:href="#DejaVuSans-50" transform="translate(1922.625 0)"/>
     <use xlink:href="#DejaVuSans-48" transform="translate(2020.03125 0)"/>
     <use xlink:href="#DejaVuSans-47" transform="translate(2081.5625 0)"/>
     <use xlink:href="#DejaVuSans-c" transform="translate(2145.046875 0)"/>
    </g>
   </g>
   <g id="text_17">
    <!-- Figure B.23 -->
    <g transform="translate(42.942969 16.318125) scale(0.09 -0.09)">
     <defs>
      <path id="DejaVuSans-Oblique-29" d="M 1081 4666 
L 3756 4666 
L 3653 4134 
L 1606 4134 
L 1338 2759 
L 3188 2759 
L 3084 2228 
L 1234 2228 
L 800 0 
L 172 0 
L 1081 4666 
z
" transform="scale(0.015625)"/>
      <path id="DejaVuSans-Oblique-4c" d="M 1172 4863 
L 1747 4863 
L 1606 4134 
L 1031 4134 
L 1172 4863 
z
M 909 3500 
L 1484 3500 
L 800 0 
L 225 0 
L 909 3500 
z
" transform="scale(0.015625)"/>
      <path id="DejaVuSans-Oblique-4a" d="M 3816 3500 
L 3219 434 
Q 3047 -456 2561 -893 
Q 2075 -1331 1253 -1331 
Q 950 -1331 690 -1286 
Q 431 -1241 206 -1147 
L 313 -588 
Q 525 -725 762 -790 
Q 1000 -856 1269 -856 
Q 1816 -856 2167 -557 
Q 2519 -259 2631 300 
L 2681 563 
Q 2441 288 2122 144 
Q 1803 0 1434 0 
Q 903 0 598 351 
Q 294 703 294 1319 
Q 294 1803 478 2267 
Q 663 2731 997 3091 
Q 1219 3328 1514 3456 
Q 1809 3584 2131 3584 
Q 2484 3584 2746 3420 
Q 3009 3256 3138 2956 
L 3238 3500 
L 3816 3500 
z
M 2950 2216 
Q 2950 2641 2750 2872 
Q 2550 3103 2181 3103 
Q 1953 3103 1747 3012 
Q 1541 2922 1394 2759 
Q 1156 2491 1023 2127 
Q 891 1763 891 1375 
Q 891 944 1092 712 
Q 1294 481 1672 481 
Q 2219 481 2584 976 
Q 2950 1472 2950 2216 
z
" transform="scale(0.015625)"/>
      <path id="DejaVuSans-Oblique-58" d="M 428 1388 
L 838 3500 
L 1416 3500 
L 1006 1409 
Q 975 1256 961 1147 
Q 947 1038 947 966 
Q 947 700 1109 554 
Q 1272 409 1569 409 
Q 2031 409 2368 721 
Q 2706 1034 2809 1563 
L 3194 3500 
L 3769 3500 
L 3091 0 
L 2516 0 
L 2631 550 
Q 2388 244 2052 76 
Q 1716 -91 1338 -91 
Q 878 -91 622 161 
Q 366 413 366 863 
Q 366 956 381 1097 
Q 397 1238 428 1388 
z
" transform="scale(0.015625)"/>
      <path id="DejaVuSans-Oblique-55" d="M 2853 2969 
Q 2766 3016 2653 3041 
Q 2541 3066 2413 3066 
Q 1953 3066 1609 2717 
Q 1266 2369 1153 1784 
L 800 0 
L 225 0 
L 909 3500 
L 1484 3500 
L 1375 2956 
Q 1603 3259 1920 3421 
Q 2238 3584 2597 3584 
Q 2691 3584 2781 3573 
Q 2872 3563 2963 3538 
L 2853 2969 
z
" transform="scale(0.015625)"/>
      <path id="DejaVuSans-Oblique-48" d="M 3078 2063 
Q 3088 2113 3092 2166 
Q 3097 2219 3097 2272 
Q 3097 2653 2873 2875 
Q 2650 3097 2266 3097 
Q 1838 3097 1509 2826 
Q 1181 2556 1013 2059 
L 3078 2063 
z
M 3578 1613 
L 903 1613 
Q 884 1494 878 1425 
Q 872 1356 872 1306 
Q 872 872 1139 634 
Q 1406 397 1894 397 
Q 2269 397 2603 481 
Q 2938 566 3225 728 
L 3116 159 
Q 2806 34 2476 -28 
Q 2147 -91 1806 -91 
Q 1078 -91 686 257 
Q 294 606 294 1247 
Q 294 1794 489 2264 
Q 684 2734 1063 3103 
Q 1306 3334 1642 3459 
Q 1978 3584 2356 3584 
Q 2950 3584 3301 3228 
Q 3653 2872 3653 2272 
Q 3653 2128 3634 1964 
Q 3616 1800 3578 1613 
z
" transform="scale(0.015625)"/>
      <path id="DejaVuSans-Oblique-3" transform="scale(0.015625)"/>
      <path id="DejaVuSans-Oblique-25" d="M 1081 4666 
L 2694 4666 
Q 3350 4666 3675 4422 
Q 4000 4178 4000 3688 
Q 4000 3238 3720 2911 
Q 3441 2584 2988 2516 
Q 3375 2428 3569 2181 
Q 3763 1934 3763 1522 
Q 3763 819 3242 409 
Q 2722 0 1819 0 
L 172 0 
L 1081 4666 
z
M 1234 2228 
L 903 519 
L 1919 519 
Q 2491 519 2800 781 
Q 3109 1044 3109 1522 
Q 3109 1891 2904 2059 
Q 2700 2228 2247 2228 
L 1234 2228 
z
M 1606 4147 
L 1331 2741 
L 2272 2741 
Q 2775 2741 3058 2959 
Q 3341 3178 3341 3566 
Q 3341 3869 3150 4008 
Q 2959 4147 2541 4147 
L 1606 4147 
z
" transform="scale(0.015625)"/>
      <path id="DejaVuSans-Oblique-11" d="M 525 794 
L 1184 794 
L 1031 0 
L 372 0 
L 525 794 
z
" transform="scale(0.015625)"/>
      <path id="DejaVuSans-Oblique-15" d="M 2950 2253 
L 934 525 
L 3163 525 
L 3053 0 
L 25 0 
L 128 531 
L 2234 2338 
Q 2656 2703 2832 2979 
Q 3009 3256 3009 3547 
Q 3009 3850 2796 4040 
Q 2584 4231 2241 4231 
Q 1944 4231 1581 4125 
Q 1219 4019 806 3816 
L 922 4441 
Q 1309 4594 1662 4672 
Q 2016 4750 2316 4750 
Q 2928 4750 3301 4425 
Q 3675 4100 3675 3572 
Q 3675 3216 3497 2892 
Q 3319 2569 2950 2253 
z
" transform="scale(0.015625)"/>
      <path id="DejaVuSans-Oblique-16" d="M 1013 4550 
Q 1356 4650 1679 4700 
Q 2003 4750 2316 4750 
Q 2934 4750 3296 4475 
Q 3659 4200 3659 3738 
Q 3659 3284 3373 2959 
Q 3088 2634 2584 2516 
Q 2978 2403 3162 2165 
Q 3347 1928 3347 1538 
Q 3347 1163 3167 834 
Q 2988 506 2650 269 
Q 2394 88 2037 -1 
Q 1681 -91 1216 -91 
Q 922 -91 622 -33 
Q 322 25 13 141 
L 128 738 
Q 422 575 720 495 
Q 1019 416 1331 416 
Q 1947 416 2330 733 
Q 2713 1050 2713 1556 
Q 2713 1881 2469 2057 
Q 2225 2234 1772 2234 
L 1228 2234 
L 1325 2747 
L 1900 2747 
Q 2419 2747 2717 2984 
Q 3016 3222 3016 3628 
Q 3016 3922 2797 4083 
Q 2578 4244 2181 4244 
Q 1881 4244 1567 4180 
Q 1253 4116 916 3988 
L 1013 4550 
z
" transform="scale(0.015625)"/>
     </defs>
     <use xlink:href="#DejaVuSans-Oblique-29"/>
     <use xlink:href="#DejaVuSans-Oblique-4c" transform="translate(57.515625 0)"/>
     <use xlink:href="#DejaVuSans-Oblique-4a" transform="translate(85.296875 0)"/>
     <use xlink:href="#DejaVuSans-Oblique-58" transform="translate(148.78125 0)"/>
     <use xlink:href="#DejaVuSans-Oblique-55" transform="translate(212.15625 0)"/>
     <use xlink:href="#DejaVuSans-Oblique-48" transform="translate(253.265625 0)"/>
     <use xlink:href="#DejaVuSans-Oblique-3" transform="translate(314.796875 0)"/>
     <use xlink:href="#DejaVuSans-Oblique-25" transform="translate(346.578125 0)"/>
     <use xlink:href="#DejaVuSans-Oblique-11" transform="translate(415.1875 0)"/>
     <use xlink:href="#DejaVuSans-Oblique-15" transform="translate(446.96875 0)"/>
     <use xlink:href="#DejaVuSans-Oblique-16" transform="translate(510.59375 0)"/>
    </g>
   </g>
  </g>
 </g>
 <defs>
  <clipPath id="paf305035be">
   <rect x="42.942969" y="22.318125" width="806.437656" height="148.115313"/>
  </clipPath>
 </defs>
</svg>
