<?xml version="1.0" encoding="utf-8" standalone="no"?>
<!DOCTYPE svg PUBLIC "-//W3C//DTD SVG 1.1//EN"
  "http://www.w3.org/Graphics/SVG/1.1/DTD/svg11.dtd">
<svg xmlns:xlink="http://www.w3.org/1999/xlink" width="856.580625pt" height="208.634219pt" viewBox="0 0 856.580625 208.634219" xmlns="http://www.w3.org/2000/svg" version="1.1">
 <metadata>
  <rdf:RDF xmlns:dc="http://purl.org/dc/elements/1.1/" xmlns:cc="http://creativecommons.org/ns#" xmlns:rdf="http://www.w3.org/1999/02/22-rdf-syntax-ns#">
   <cc:Work>
    <dc:type rdf:resource="http://purl.org/dc/dcmitype/StillImage"/>
    <dc:date>2026-06-20T19:11:05.417463</dc:date>
    <dc:format>image/svg+xml</dc:format>
    <dc:creator>
     <cc:Agent>
      <dc:title>Matplotlib v3.11.0, https://matplotlib.org/</dc:title>
     </cc:Agent>
    </dc:creator>
   </cc:Work>
  </rdf:RDF>
 </metadata>
 <defs>
  <style type="text/css">*{stroke-linejoin: round; stroke-linecap: butt}</style>
 </defs>
 <g id="figure_1">
  <g id="patch_1">
   <path d="M 0 208.634219 
L 856.580625 208.634219 
L 856.580625 0 
L 0 0 
z
" style="fill: #ffffff"/>
  </g>
  <g id="axes_1">
   <g id="patch_2">
    <path d="M 42.942969 170.433438 
L 849.380625 170.433438 
L 849.380625 22.318125 
L 42.942969 22.318125 
z
" style="fill: #ffffff"/>
   </g>
   <g id="matplotlib.axis_1">
    <g id="xtick_1">
     <g id="line2d_1">
      <path d="M 79.599226 170.433438 
L 79.599226 22.318125 
" clip-path="url(#pa0d4503f8c)" style="fill: none; stroke: #b0b0b0; stroke-opacity: 0.3; stroke-width: 0.8; stroke-linecap: square"/>
     </g>
     <g id="line2d_2">
      <defs>
       <path id="m4f03854797" d="M 0 0 
L 0 3.5 
" style="stroke: #000000; stroke-width: 0.8"/>
      </defs>
      <g>
       <use xlink:href="#m4f03854797" x="79.599226" y="170.433438" style="stroke: #000000; stroke-width: 0.8"/>
      </g>
     </g>
     <g id="text_1">
      <!-- 0.00 -->
      <g transform="translate(68.466413 185.031094) scale(0.1 -0.1)">
       <defs>
        <path id="DejaVuSans-13" d="M 2034 4250 
Q 1547 4250 1301 3770 
Q 1056 3291 1056 2328 
Q 1056 1369 1301 889 
Q 1547 409 2034 409 
Q 2525 409 2770 889 
Q 3016 1369 3016 2328 
Q 3016 3291 2770 3770 
Q 2525 4250 2034 4250 
z
M 2034 4750 
Q 2819 4750 3233 4129 
Q 3647 3509 3647 2328 
Q 3647 1150 3233 529 
Q 2819 -91 2034 -91 
Q 1250 -91 836 529 
Q 422 1150 422 2328 
Q 422 3509 836 4129 
Q 1250 4750 2034 4750 
z
" transform="scale(0.015625)"/>
        <path id="DejaVuSans-11" d="M 684 794 
L 1344 794 
L 1344 0 
L 684 0 
L 684 794 
z
" transform="scale(0.015625)"/>
       </defs>
       <use xlink:href="#DejaVuSans-13"/>
       <use xlink:href="#DejaVuSans-11" transform="translate(63.625 0)"/>
       <use xlink:href="#DejaVuSans-13" transform="translate(95.40625 0)"/>
       <use xlink:href="#DejaVuSans-13" transform="translate(159.03125 0)"/>
      </g>
     </g>
    </g>
    <g id="xtick_2">
     <g id="line2d_3">
      <path d="M 171.239869 170.433438 
L 171.239869 22.318125 
" clip-path="url(#pa0d4503f8c)" style="fill: none; stroke: #b0b0b0; stroke-opacity: 0.3; stroke-width: 0.8; stroke-linecap: square"/>
     </g>
     <g id="line2d_4">
      <g>
       <use xlink:href="#m4f03854797" x="171.239869" y="170.433438" style="stroke: #000000; stroke-width: 0.8"/>
      </g>
     </g>
     <g id="text_2">
      <!-- 0.25 -->
      <g transform="translate(160.107056 185.031094) scale(0.1 -0.1)">
       <defs>
        <path id="DejaVuSans-15" d="M 1228 531 
L 3431 531 
L 3431 0 
L 469 0 
L 469 531 
Q 828 903 1448 1529 
Q 2069 2156 2228 2338 
Q 2531 2678 2651 2914 
Q 2772 3150 2772 3378 
Q 2772 3750 2511 3984 
Q 2250 4219 1831 4219 
Q 1534 4219 1204 4116 
Q 875 4013 500 3803 
L 500 4441 
Q 881 4594 1212 4672 
Q 1544 4750 1819 4750 
Q 2544 4750 2975 4387 
Q 3406 4025 3406 3419 
Q 3406 3131 3298 2873 
Q 3191 2616 2906 2266 
Q 2828 2175 2409 1742 
Q 1991 1309 1228 531 
z
" transform="scale(0.015625)"/>
        <path id="DejaVuSans-18" d="M 691 4666 
L 3169 4666 
L 3169 4134 
L 1269 4134 
L 1269 2991 
Q 1406 3038 1543 3061 
Q 1681 3084 1819 3084 
Q 2600 3084 3056 2656 
Q 3513 2228 3513 1497 
Q 3513 744 3044 326 
Q 2575 -91 1722 -91 
Q 1428 -91 1123 -41 
Q 819 9 494 109 
L 494 744 
Q 775 591 1075 516 
Q 1375 441 1709 441 
Q 2250 441 2565 725 
Q 2881 1009 2881 1497 
Q 2881 1984 2565 2268 
Q 2250 2553 1709 2553 
Q 1456 2553 1204 2497 
Q 953 2441 691 2322 
L 691 4666 
z
" transform="scale(0.015625)"/>
       </defs>
       <use xlink:href="#DejaVuSans-13"/>
       <use xlink:href="#DejaVuSans-11" transform="translate(63.625 0)"/>
       <use xlink:href="#DejaVuSans-15" transform="translate(95.40625 0)"/>
       <use xlink:href="#DejaVuSans-18" transform="translate(159.03125 0)"/>
      </g>
     </g>
    </g>
    <g id="xtick_3">
     <g id="line2d_5">
      <path d="M 262.880511 170.433438 
L 262.880511 22.318125 
" clip-path="url(#pa0d4503f8c)" style="fill: none; stroke: #b0b0b0; stroke-opacity: 0.3; stroke-width: 0.8; stroke-linecap: square"/>
     </g>
     <g id="line2d_6">
      <g>
       <use xlink:href="#m4f03854797" x="262.880511" y="170.433438" style="stroke: #000000; stroke-width: 0.8"/>
      </g>
     </g>
     <g id="text_3">
      <!-- 0.50 -->
      <g transform="translate(251.747699 185.031094) scale(0.1 -0.1)">
       <use xlink:href="#DejaVuSans-13"/>
       <use xlink:href="#DejaVuSans-11" transform="translate(63.625 0)"/>
       <use xlink:href="#DejaVuSans-18" transform="translate(95.40625 0)"/>
       <use xlink:href="#DejaVuSans-13" transform="translate(159.03125 0)"/>
      </g>
     </g>
    </g>
    <g id="xtick_4">
     <g id="line2d_7">
      <path d="M 354.521154 170.433438 
L 354.521154 22.318125 
" clip-path="url(#pa0d4503f8c)" style="fill: none; stroke: #b0b0b0; stroke-opacity: 0.3; stroke-width: 0.8; stroke-linecap: square"/>
     </g>
     <g id="line2d_8">
      <g>
       <use xlink:href="#m4f03854797" x="354.521154" y="170.433438" style="stroke: #000000; stroke-width: 0.8"/>
      </g>
     </g>
     <g id="text_4">
      <!-- 0.75 -->
      <g transform="translate(343.388342 185.031094) scale(0.1 -0.1)">
       <defs>
        <path id="DejaVuSans-1a" d="M 525 4666 
L 3525 4666 
L 3525 4397 
L 1831 0 
L 1172 0 
L 2766 4134 
L 525 4134 
L 525 4666 
z
" transform="scale(0.015625)"/>
       </defs>
       <use xlink:href="#DejaVuSans-13"/>
       <use xlink:href="#DejaVuSans-11" transform="translate(63.625 0)"/>
       <use xlink:href="#DejaVuSans-1a" transform="translate(95.40625 0)"/>
       <use xlink:href="#DejaVuSans-18" transform="translate(159.03125 0)"/>
      </g>
     </g>
    </g>
    <g id="xtick_5">
     <g id="line2d_9">
      <path d="M 446.161797 170.433438 
L 446.161797 22.318125 
" clip-path="url(#pa0d4503f8c)" style="fill: none; stroke: #b0b0b0; stroke-opacity: 0.3; stroke-width: 0.8; stroke-linecap: square"/>
     </g>
     <g id="line2d_10">
      <g>
       <use xlink:href="#m4f03854797" x="446.161797" y="170.433438" style="stroke: #000000; stroke-width: 0.8"/>
      </g>
     </g>
     <g id="text_5">
      <!-- 1.00 -->
      <g transform="translate(435.028984 185.031094) scale(0.1 -0.1)">
       <defs>
        <path id="DejaVuSans-14" d="M 794 531 
L 1825 531 
L 1825 4091 
L 703 3866 
L 703 4441 
L 1819 4666 
L 2450 4666 
L 2450 531 
L 3481 531 
L 3481 0 
L 794 0 
L 794 531 
z
" transform="scale(0.015625)"/>
       </defs>
       <use xlink:href="#DejaVuSans-14"/>
       <use xlink:href="#DejaVuSans-11" transform="translate(63.625 0)"/>
       <use xlink:href="#DejaVuSans-13" transform="translate(95.40625 0)"/>
       <use xlink:href="#DejaVuSans-13" transform="translate(159.03125 0)"/>
      </g>
     </g>
    </g>
    <g id="xtick_6">
     <g id="line2d_11">
      <path d="M 537.80244 170.433438 
L 537.80244 22.318125 
" clip-path="url(#pa0d4503f8c)" style="fill: none; stroke: #b0b0b0; stroke-opacity: 0.3; stroke-width: 0.8; stroke-linecap: square"/>
     </g>
     <g id="line2d_12">
      <g>
       <use xlink:href="#m4f03854797" x="537.80244" y="170.433438" style="stroke: #000000; stroke-width: 0.8"/>
      </g>
     </g>
     <g id="text_6">
      <!-- 1.25 -->
      <g transform="translate(526.669627 185.031094) scale(0.1 -0.1)">
       <use xlink:href="#DejaVuSans-14"/>
       <use xlink:href="#DejaVuSans-11" transform="translate(63.625 0)"/>
       <use xlink:href="#DejaVuSans-15" transform="translate(95.40625 0)"/>
       <use xlink:href="#DejaVuSans-18" transform="translate(159.03125 0)"/>
      </g>
     </g>
    </g>
    <g id="xtick_7">
     <g id="line2d_13">
      <path d="M 629.443082 170.433438 
L 629.443082 22.318125 
" clip-path="url(#pa0d4503f8c)" style="fill: none; stroke: #b0b0b0; stroke-opacity: 0.3; stroke-width: 0.8; stroke-linecap: square"/>
     </g>
     <g id="line2d_14">
      <g>
       <use xlink:href="#m4f03854797" x="629.443082" y="170.433438" style="stroke: #000000; stroke-width: 0.8"/>
      </g>
     </g>
     <g id="text_7">
      <!-- 1.50 -->
      <g transform="translate(618.31027 185.031094) scale(0.1 -0.1)">
       <use xlink:href="#DejaVuSans-14"/>
       <use xlink:href="#DejaVuSans-11" transform="translate(63.625 0)"/>
       <use xlink:href="#DejaVuSans-18" transform="translate(95.40625 0)"/>
       <use xlink:href="#DejaVuSans-13" transform="translate(159.03125 0)"/>
      </g>
     </g>
    </g>
    <g id="xtick_8">
     <g id="line2d_15">
      <path d="M 721.083725 170.433438 
L 721.083725 22.318125 
" clip-path="url(#pa0d4503f8c)" style="fill: none; stroke: #b0b0b0; stroke-opacity: 0.3; stroke-width: 0.8; stroke-linecap: square"/>
     </g>
     <g id="line2d_16">
      <g>
       <use xlink:href="#m4f03854797" x="721.083725" y="170.433438" style="stroke: #000000; stroke-width: 0.8"/>
      </g>
     </g>
     <g id="text_8">
      <!-- 1.75 -->
      <g transform="translate(709.950913 185.031094) scale(0.1 -0.1)">
       <use xlink:href="#DejaVuSans-14"/>
       <use xlink:href="#DejaVuSans-11" transform="translate(63.625 0)"/>
       <use xlink:href="#DejaVuSans-1a" transform="translate(95.40625 0)"/>
       <use xlink:href="#DejaVuSans-18" transform="translate(159.03125 0)"/>
      </g>
     </g>
    </g>
    <g id="xtick_9">
     <g id="line2d_17">
      <path d="M 812.724368 170.433438 
L 812.724368 22.318125 
" clip-path="url(#pa0d4503f8c)" style="fill: none; stroke: #b0b0b0; stroke-opacity: 0.3; stroke-width: 0.8; stroke-linecap: square"/>
     </g>
     <g id="line2d_18">
      <g>
       <use xlink:href="#m4f03854797" x="812.724368" y="170.433438" style="stroke: #000000; stroke-width: 0.8"/>
      </g>
     </g>
     <g id="text_9">
      <!-- 2.00 -->
      <g transform="translate(801.591555 185.031094) scale(0.1 -0.1)">
       <use xlink:href="#DejaVuSans-15"/>
       <use xlink:href="#DejaVuSans-11" transform="translate(63.625 0)"/>
       <use xlink:href="#DejaVuSans-13" transform="translate(95.40625 0)"/>
       <use xlink:href="#DejaVuSans-13" transform="translate(159.03125 0)"/>
      </g>
     </g>
    </g>
    <g id="text_10">
     <!-- Time (s) -->
     <g transform="translate(425.830547 199.031875) scale(0.1 -0.1)">
      <defs>
       <path id="DejaVuSans-37" d="M -19 4666 
L 3928 4666 
L 3928 4134 
L 2272 4134 
L 2272 0 
L 1638 0 
L 1638 4134 
L -19 4134 
L -19 4666 
z
" transform="scale(0.015625)"/>
       <path id="DejaVuSans-4c" d="M 603 3500 
L 1178 3500 
L 1178 0 
L 603 0 
L 603 3500 
z
M 603 4863 
L 1178 4863 
L 1178 4134 
L 603 4134 
L 603 4863 
z
" transform="scale(0.015625)"/>
       <path id="DejaVuSans-50" d="M 3328 2828 
Q 3544 3216 3844 3400 
Q 4144 3584 4550 3584 
Q 5097 3584 5394 3201 
Q 5691 2819 5691 2113 
L 5691 0 
L 5113 0 
L 5113 2094 
Q 5113 2597 4934 2840 
Q 4756 3084 4391 3084 
Q 3944 3084 3684 2787 
Q 3425 2491 3425 1978 
L 3425 0 
L 2847 0 
L 2847 2094 
Q 2847 2600 2669 2842 
Q 2491 3084 2119 3084 
Q 1678 3084 1418 2786 
Q 1159 2488 1159 1978 
L 1159 0 
L 581 0 
L 581 3500 
L 1159 3500 
L 1159 2956 
Q 1356 3278 1631 3431 
Q 1906 3584 2284 3584 
Q 2666 3584 2933 3390 
Q 3200 3197 3328 2828 
z
" transform="scale(0.015625)"/>
       <path id="DejaVuSans-48" d="M 3597 1894 
L 3597 1613 
L 953 1613 
Q 991 1019 1311 708 
Q 1631 397 2203 397 
Q 2534 397 2845 478 
Q 3156 559 3463 722 
L 3463 178 
Q 3153 47 2828 -22 
Q 2503 -91 2169 -91 
Q 1331 -91 842 396 
Q 353 884 353 1716 
Q 353 2575 817 3079 
Q 1281 3584 2069 3584 
Q 2775 3584 3186 3129 
Q 3597 2675 3597 1894 
z
M 3022 2063 
Q 3016 2534 2758 2815 
Q 2500 3097 2075 3097 
Q 1594 3097 1305 2825 
Q 1016 2553 972 2059 
L 3022 2063 
z
" transform="scale(0.015625)"/>
       <path id="DejaVuSans-3" transform="scale(0.015625)"/>
       <path id="DejaVuSans-b" d="M 1984 4856 
Q 1566 4138 1362 3434 
Q 1159 2731 1159 2009 
Q 1159 1288 1364 580 
Q 1569 -128 1984 -844 
L 1484 -844 
Q 1016 -109 783 600 
Q 550 1309 550 2009 
Q 550 2706 781 3412 
Q 1013 4119 1484 4856 
L 1984 4856 
z
" transform="scale(0.015625)"/>
       <path id="DejaVuSans-56" d="M 2834 3397 
L 2834 2853 
Q 2591 2978 2328 3040 
Q 2066 3103 1784 3103 
Q 1356 3103 1142 2972 
Q 928 2841 928 2578 
Q 928 2378 1081 2264 
Q 1234 2150 1697 2047 
L 1894 2003 
Q 2506 1872 2764 1633 
Q 3022 1394 3022 966 
Q 3022 478 2636 193 
Q 2250 -91 1575 -91 
Q 1294 -91 989 -36 
Q 684 19 347 128 
L 347 722 
Q 666 556 975 473 
Q 1284 391 1588 391 
Q 1994 391 2212 530 
Q 2431 669 2431 922 
Q 2431 1156 2273 1281 
Q 2116 1406 1581 1522 
L 1381 1569 
Q 847 1681 609 1914 
Q 372 2147 372 2553 
Q 372 3047 722 3315 
Q 1072 3584 1716 3584 
Q 2034 3584 2315 3537 
Q 2597 3491 2834 3397 
z
" transform="scale(0.015625)"/>
       <path id="DejaVuSans-c" d="M 513 4856 
L 1013 4856 
Q 1481 4119 1714 3412 
Q 1947 2706 1947 2009 
Q 1947 1309 1714 600 
Q 1481 -109 1013 -844 
L 513 -844 
Q 928 -128 1133 580 
Q 1338 1288 1338 2009 
Q 1338 2731 1133 3434 
Q 928 4138 513 4856 
z
" transform="scale(0.015625)"/>
      </defs>
      <use xlink:href="#DejaVuSans-37"/>
      <use xlink:href="#DejaVuSans-4c" transform="translate(58 0)"/>
      <use xlink:href="#DejaVuSans-50" transform="translate(85.78125 0)"/>
      <use xlink:href="#DejaVuSans-48" transform="translate(183.1875 0)"/>
      <use xlink:href="#DejaVuSans-3" transform="translate(244.71875 0)"/>
      <use xlink:href="#DejaVuSans-b" transform="translate(276.5 0)"/>
      <use xlink:href="#DejaVuSans-56" transform="translate(315.515625 0)"/>
      <use xlink:href="#DejaVuSans-c" transform="translate(367.609375 0)"/>
     </g>
    </g>
   </g>
   <g id="matplotlib.axis_2">
    <g id="ytick_1">
     <g id="line2d_19">
      <path d="M 42.942969 168.118484 
L 849.380625 168.118484 
" clip-path="url(#pa0d4503f8c)" style="fill: none; stroke: #b0b0b0; stroke-opacity: 0.3; stroke-width: 0.8; stroke-linecap: square"/>
     </g>
     <g id="line2d_20">
      <defs>
       <path id="m3a320b7b04" d="M 0 0 
L -3.5 0 
" style="stroke: #000000; stroke-width: 0.8"/>
      </defs>
      <g>
       <use xlink:href="#m3a320b7b04" x="42.942969" y="168.118484" style="stroke: #000000; stroke-width: 0.8"/>
      </g>
     </g>
     <g id="text_11">
      <!-- −3 -->
      <g transform="translate(21.200781 171.917313) scale(0.1 -0.1)">
       <defs>
        <path id="DejaVuSans-c9c" d="M 678 2272 
L 4684 2272 
L 4684 1741 
L 678 1741 
L 678 2272 
z
" transform="scale(0.015625)"/>
        <path id="DejaVuSans-16" d="M 2597 2516 
Q 3050 2419 3304 2112 
Q 3559 1806 3559 1356 
Q 3559 666 3084 287 
Q 2609 -91 1734 -91 
Q 1441 -91 1130 -33 
Q 819 25 488 141 
L 488 750 
Q 750 597 1062 519 
Q 1375 441 1716 441 
Q 2309 441 2620 675 
Q 2931 909 2931 1356 
Q 2931 1769 2642 2001 
Q 2353 2234 1838 2234 
L 1294 2234 
L 1294 2753 
L 1863 2753 
Q 2328 2753 2575 2939 
Q 2822 3125 2822 3475 
Q 2822 3834 2567 4026 
Q 2313 4219 1838 4219 
Q 1578 4219 1281 4162 
Q 984 4106 628 3988 
L 628 4550 
Q 988 4650 1302 4700 
Q 1616 4750 1894 4750 
Q 2613 4750 3031 4423 
Q 3450 4097 3450 3541 
Q 3450 3153 3228 2886 
Q 3006 2619 2597 2516 
z
" transform="scale(0.015625)"/>
       </defs>
       <use xlink:href="#DejaVuSans-c9c"/>
       <use xlink:href="#DejaVuSans-16" transform="translate(83.796875 0)"/>
      </g>
     </g>
    </g>
    <g id="ytick_2">
     <g id="line2d_21">
      <path d="M 42.942969 146.19463 
L 849.380625 146.19463 
" clip-path="url(#pa0d4503f8c)" style="fill: none; stroke: #b0b0b0; stroke-opacity: 0.3; stroke-width: 0.8; stroke-linecap: square"/>
     </g>
     <g id="line2d_22">
      <g>
       <use xlink:href="#m3a320b7b04" x="42.942969" y="146.19463" style="stroke: #000000; stroke-width: 0.8"/>
      </g>
     </g>
     <g id="text_12">
      <!-- −2 -->
      <g transform="translate(21.200781 149.993458) scale(0.1 -0.1)">
       <use xlink:href="#DejaVuSans-c9c"/>
       <use xlink:href="#DejaVuSans-15" transform="translate(83.796875 0)"/>
      </g>
     </g>
    </g>
    <g id="ytick_3">
     <g id="line2d_23">
      <path d="M 42.942969 124.270775 
L 849.380625 124.270775 
" clip-path="url(#pa0d4503f8c)" style="fill: none; stroke: #b0b0b0; stroke-opacity: 0.3; stroke-width: 0.8; stroke-linecap: square"/>
     </g>
     <g id="line2d_24">
      <g>
       <use xlink:href="#m3a320b7b04" x="42.942969" y="124.270775" style="stroke: #000000; stroke-width: 0.8"/>
      </g>
     </g>
     <g id="text_13">
      <!-- −1 -->
      <g transform="translate(21.200781 128.069603) scale(0.1 -0.1)">
       <use xlink:href="#DejaVuSans-c9c"/>
       <use xlink:href="#DejaVuSans-14" transform="translate(83.796875 0)"/>
      </g>
     </g>
    </g>
    <g id="ytick_4">
     <g id="line2d_25">
      <path d="M 42.942969 102.34692 
L 849.380625 102.34692 
" clip-path="url(#pa0d4503f8c)" style="fill: none; stroke: #b0b0b0; stroke-opacity: 0.3; stroke-width: 0.8; stroke-linecap: square"/>
     </g>
     <g id="line2d_26">
      <g>
       <use xlink:href="#m3a320b7b04" x="42.942969" y="102.34692" style="stroke: #000000; stroke-width: 0.8"/>
      </g>
     </g>
     <g id="text_14">
      <!-- 0 -->
      <g transform="translate(29.580469 106.145748) scale(0.1 -0.1)">
       <use xlink:href="#DejaVuSans-13"/>
      </g>
     </g>
    </g>
    <g id="ytick_5">
     <g id="line2d_27">
      <path d="M 42.942969 80.423065 
L 849.380625 80.423065 
" clip-path="url(#pa0d4503f8c)" style="fill: none; stroke: #b0b0b0; stroke-opacity: 0.3; stroke-width: 0.8; stroke-linecap: square"/>
     </g>
     <g id="line2d_28">
      <g>
       <use xlink:href="#m3a320b7b04" x="42.942969" y="80.423065" style="stroke: #000000; stroke-width: 0.8"/>
      </g>
     </g>
     <g id="text_15">
      <!-- 1 -->
      <g transform="translate(29.580469 84.221893) scale(0.1 -0.1)">
       <use xlink:href="#DejaVuSans-14"/>
      </g>
     </g>
    </g>
    <g id="ytick_6">
     <g id="line2d_29">
      <path d="M 42.942969 58.499211 
L 849.380625 58.499211 
" clip-path="url(#pa0d4503f8c)" style="fill: none; stroke: #b0b0b0; stroke-opacity: 0.3; stroke-width: 0.8; stroke-linecap: square"/>
     </g>
     <g id="line2d_30">
      <g>
       <use xlink:href="#m3a320b7b04" x="42.942969" y="58.499211" style="stroke: #000000; stroke-width: 0.8"/>
      </g>
     </g>
     <g id="text_16">
      <!-- 2 -->
      <g transform="translate(29.580469 62.298039) scale(0.1 -0.1)">
       <use xlink:href="#DejaVuSans-15"/>
      </g>
     </g>
    </g>
    <g id="ytick_7">
     <g id="line2d_31">
      <path d="M 42.942969 36.575356 
L 849.380625 36.575356 
" clip-path="url(#pa0d4503f8c)" style="fill: none; stroke: #b0b0b0; stroke-opacity: 0.3; stroke-width: 0.8; stroke-linecap: square"/>
     </g>
     <g id="line2d_32">
      <g>
       <use xlink:href="#m3a320b7b04" x="42.942969" y="36.575356" style="stroke: #000000; stroke-width: 0.8"/>
      </g>
     </g>
     <g id="text_17">
      <!-- 3 -->
      <g transform="translate(29.580469 40.374184) scale(0.1 -0.1)">
       <use xlink:href="#DejaVuSans-16"/>
      </g>
     </g>
    </g>
    <g id="text_18">
     <!-- Amplitude -->
     <g transform="translate(14.798438 121.998438) rotate(-90) scale(0.1 -0.1)">
      <defs>
       <path id="DejaVuSans-24" d="M 2188 4044 
L 1331 1722 
L 3047 1722 
L 2188 4044 
z
M 1831 4666 
L 2547 4666 
L 4325 0 
L 3669 0 
L 3244 1197 
L 1141 1197 
L 716 0 
L 50 0 
L 1831 4666 
z
" transform="scale(0.015625)"/>
       <path id="DejaVuSans-53" d="M 1159 525 
L 1159 -1331 
L 581 -1331 
L 581 3500 
L 1159 3500 
L 1159 2969 
Q 1341 3281 1617 3432 
Q 1894 3584 2278 3584 
Q 2916 3584 3314 3078 
Q 3713 2572 3713 1747 
Q 3713 922 3314 415 
Q 2916 -91 2278 -91 
Q 1894 -91 1617 61 
Q 1341 213 1159 525 
z
M 3116 1747 
Q 3116 2381 2855 2742 
Q 2594 3103 2138 3103 
Q 1681 3103 1420 2742 
Q 1159 2381 1159 1747 
Q 1159 1113 1420 752 
Q 1681 391 2138 391 
Q 2594 391 2855 752 
Q 3116 1113 3116 1747 
z
" transform="scale(0.015625)"/>
       <path id="DejaVuSans-4f" d="M 603 4863 
L 1178 4863 
L 1178 0 
L 603 0 
L 603 4863 
z
" transform="scale(0.015625)"/>
       <path id="DejaVuSans-57" d="M 1172 4494 
L 1172 3500 
L 2356 3500 
L 2356 3053 
L 1172 3053 
L 1172 1153 
Q 1172 725 1289 603 
Q 1406 481 1766 481 
L 2356 481 
L 2356 0 
L 1766 0 
Q 1100 0 847 248 
Q 594 497 594 1153 
L 594 3053 
L 172 3053 
L 172 3500 
L 594 3500 
L 594 4494 
L 1172 4494 
z
" transform="scale(0.015625)"/>
       <path id="DejaVuSans-58" d="M 544 1381 
L 544 3500 
L 1119 3500 
L 1119 1403 
Q 1119 906 1312 657 
Q 1506 409 1894 409 
Q 2359 409 2629 706 
Q 2900 1003 2900 1516 
L 2900 3500 
L 3475 3500 
L 3475 0 
L 2900 0 
L 2900 538 
Q 2691 219 2414 64 
Q 2138 -91 1772 -91 
Q 1169 -91 856 284 
Q 544 659 544 1381 
z
M 1991 3584 
L 1991 3584 
z
" transform="scale(0.015625)"/>
       <path id="DejaVuSans-47" d="M 2906 2969 
L 2906 4863 
L 3481 4863 
L 3481 0 
L 2906 0 
L 2906 525 
Q 2725 213 2448 61 
Q 2172 -91 1784 -91 
Q 1150 -91 751 415 
Q 353 922 353 1747 
Q 353 2572 751 3078 
Q 1150 3584 1784 3584 
Q 2172 3584 2448 3432 
Q 2725 3281 2906 2969 
z
M 947 1747 
Q 947 1113 1208 752 
Q 1469 391 1925 391 
Q 2381 391 2643 752 
Q 2906 1113 2906 1747 
Q 2906 2381 2643 2742 
Q 2381 3103 1925 3103 
Q 1469 3103 1208 2742 
Q 947 2381 947 1747 
z
" transform="scale(0.015625)"/>
      </defs>
      <use xlink:href="#DejaVuSans-24"/>
      <use xlink:href="#DejaVuSans-50" transform="translate(68.40625 0)"/>
      <use xlink:href="#DejaVuSans-53" transform="translate(165.8125 0)"/>
      <use xlink:href="#DejaVuSans-4f" transform="translate(229.296875 0)"/>
      <use xlink:href="#DejaVuSans-4c" transform="translate(257.078125 0)"/>
      <use xlink:href="#DejaVuSans-57" transform="translate(284.859375 0)"/>
      <use xlink:href="#DejaVuSans-58" transform="translate(324.0625 0)"/>
      <use xlink:href="#DejaVuSans-47" transform="translate(387.4375 0)"/>
      <use xlink:href="#DejaVuSans-48" transform="translate(450.921875 0)"/>
     </g>
    </g>
   </g>
   <g id="line2d_33">
    <path d="M 79.599226 84.70442 
L 81.065476 114.529842 
L 82.531726 76.288127 
L 83.997977 73.735215 
L 85.464227 139.247438 
L 86.930477 127.508293 
L 88.396728 98.855861 
L 89.862978 111.334237 
L 91.329228 107.382628 
L 92.795478 128.036327 
L 94.261729 91.935512 
L 95.727979 95.486865 
L 97.194229 111.774762 
L 98.66048 88.508937 
L 100.12673 102.289455 
L 101.59298 130.054309 
L 103.05923 101.249877 
L 104.525481 128.036685 
L 105.991731 85.141964 
L 107.457981 102.753183 
L 108.924232 103.012394 
L 110.390482 111.401826 
L 111.856732 67.5532 
L 113.322982 96.128792 
L 114.789233 101.119979 
L 116.255483 99.105118 
L 117.721733 80.059113 
L 119.187984 84.728967 
L 120.654234 85.307329 
L 122.120484 87.027969 
L 123.586734 52.006327 
L 125.052985 110.568799 
L 126.519235 115.631316 
L 127.985485 124.855317 
L 129.451736 95.829672 
L 130.917986 86.463881 
L 132.384236 115.03723 
L 133.850486 131.641878 
L 135.316737 131.298216 
L 136.782987 98.275561 
L 138.249237 94.920309 
L 139.715487 97.42628 
L 141.181738 121.60482 
L 142.647988 99.311109 
L 144.114238 99.100412 
L 145.580489 94.165001 
L 147.046739 77.368148 
L 148.512989 89.453943 
L 149.979239 77.856508 
L 151.44549 90.247788 
L 152.91174 85.046381 
L 154.37799 77.88911 
L 155.844241 124.687382 
L 157.310491 101.364444 
L 158.776741 106.785607 
L 160.242991 112.966163 
L 161.709242 107.690794 
L 163.175492 71.626104 
L 164.641742 125.996637 
L 166.107993 88.105922 
L 167.574243 148.110298 
L 169.040493 119.881033 
L 170.506743 109.654235 
L 171.972994 100.370156 
L 173.439244 96.946234 
L 174.905494 93.822076 
L 176.371745 116.979713 
L 177.837995 117.150815 
L 179.304245 85.590842 
L 182.236746 126.92746 
L 183.702996 121.31925 
L 185.169246 114.513957 
L 186.635497 81.84123 
L 188.101747 88.606861 
L 189.567997 76.246892 
L 191.034247 101.096407 
L 192.500498 89.265109 
L 193.966748 80.640666 
L 195.432998 103.255294 
L 196.899249 88.945224 
L 198.365499 116.170583 
L 199.831749 112.36052 
L 201.297999 115.383448 
L 202.76425 135.55173 
L 204.2305 100.538992 
L 205.69675 122.830171 
L 208.629251 102.682589 
L 210.095501 102.749378 
L 211.561751 96.627499 
L 213.028002 111.493497 
L 214.494252 116.294612 
L 215.960502 106.148711 
L 217.426753 138.65149 
L 218.893003 130.685782 
L 220.359253 125.4719 
L 221.825503 116.219514 
L 223.291754 83.976318 
L 224.758004 111.580973 
L 226.224254 99.675774 
L 227.690505 63.245289 
L 229.156755 100.551589 
L 230.623005 78.186835 
L 232.089255 116.941724 
L 233.555506 103.463481 
L 235.021756 122.486761 
L 236.488006 111.833892 
L 237.954257 88.591488 
L 239.420507 147.203838 
L 240.886757 101.691065 
L 242.353007 107.326982 
L 245.285508 144.925572 
L 246.751758 110.957706 
L 248.218009 122.823827 
L 249.684259 104.233156 
L 251.150509 106.535199 
L 252.616759 69.283813 
L 254.08301 106.906213 
L 255.54926 121.398509 
L 257.01551 92.542813 
L 258.481761 89.532844 
L 259.948011 62.942279 
L 262.880511 83.561003 
L 264.346762 59.648142 
L 265.813012 118.803178 
L 267.279262 108.381839 
L 268.745513 116.787342 
L 270.211763 107.505632 
L 271.678013 131.840882 
L 273.144263 90.476023 
L 274.610514 111.88626 
L 276.076764 141.580059 
L 277.543014 133.480714 
L 279.009264 105.66563 
L 280.475515 94.847444 
L 281.941765 69.446371 
L 283.408015 48.655965 
L 284.874266 102.129853 
L 286.340516 131.028806 
L 287.806766 153.756955 
L 289.273016 98.531713 
L 290.739267 119.481417 
L 292.205517 108.06573 
L 293.671767 109.892747 
L 295.138018 97.442698 
L 296.604268 69.370514 
L 298.070518 88.286272 
L 299.536768 94.86288 
L 301.003019 114.434904 
L 302.469269 129.456416 
L 303.935519 105.017763 
L 305.40177 97.652347 
L 306.86802 60.19966 
L 308.33427 98.802495 
L 309.80052 82.855542 
L 311.266771 117.960766 
L 312.733021 135.312851 
L 314.199271 132.374385 
L 315.665522 128.438813 
L 317.131772 66.558148 
L 318.598022 131.230372 
L 320.064272 94.156147 
L 321.530523 131.01095 
L 322.996773 88.910644 
L 325.929274 107.835087 
L 327.395524 102.552287 
L 328.861774 113.314969 
L 330.328024 86.693604 
L 331.794275 104.331011 
L 333.260525 119.610913 
L 334.726775 119.7467 
L 337.659276 57.109614 
L 339.125526 89.233277 
L 340.591776 96.957028 
L 342.058027 90.206815 
L 343.524277 70.326906 
L 344.990527 96.848905 
L 346.456778 113.410089 
L 347.923028 82.760169 
L 349.389278 99.934322 
L 350.855528 77.545614 
L 353.788029 140.067491 
L 355.254279 143.217733 
L 356.72053 76.344358 
L 358.18678 73.425909 
L 359.65303 113.270069 
L 361.11928 115.415225 
L 362.585531 72.360488 
L 364.051781 125.929324 
L 365.518031 118.575363 
L 366.984282 82.369022 
L 368.450532 103.007284 
L 369.916782 92.853201 
L 371.383032 95.31268 
L 372.849283 83.984057 
L 374.315533 60.871954 
L 375.781783 90.75494 
L 377.248034 80.238398 
L 378.714284 141.420901 
L 380.180534 100.027593 
L 381.646784 120.145473 
L 383.113035 131.122061 
L 384.579285 126.266767 
L 386.045535 116.659589 
L 387.511786 91.135191 
L 388.978036 141.618704 
L 390.444286 112.550849 
L 391.910536 123.83727 
L 393.376787 119.72292 
L 394.843037 89.230989 
L 396.309287 97.536751 
L 397.775537 77.69336 
L 399.241788 107.788341 
L 400.708038 116.91636 
L 403.640539 91.156761 
L 405.106789 90.48485 
L 406.573039 116.514877 
L 408.039289 89.745497 
L 409.50554 86.381348 
L 410.97179 36.536647 
L 412.43804 51.593241 
L 413.904291 113.062402 
L 415.370541 102.773777 
L 416.836791 131.043788 
L 421.235542 80.577322 
L 422.701792 125.318644 
L 424.168043 125.556717 
L 425.634293 159.615915 
L 427.100543 116.788673 
L 428.566793 136.514629 
L 430.033044 124.146416 
L 431.499294 130.439474 
L 432.965544 111.400914 
L 434.431795 145.550464 
L 435.898045 136.564267 
L 437.364295 54.977311 
L 438.830545 127.184764 
L 440.296796 120.518993 
L 441.763046 54.083794 
L 443.229296 29.050639 
L 444.695547 117.414638 
L 446.161797 99.458429 
L 447.628047 84.241168 
L 449.094297 54.841194 
L 450.560548 115.99173 
L 452.026798 101.850662 
L 453.493048 81.917262 
L 454.959299 92.126867 
L 456.425549 112.647772 
L 457.891799 109.948197 
L 459.358049 139.477332 
L 460.8243 116.436992 
L 462.29055 118.379303 
L 463.7568 108.13235 
L 465.223051 125.397323 
L 466.689301 102.20112 
L 468.155551 89.012671 
L 469.621801 105.926706 
L 471.088052 99.302425 
L 472.554302 103.23561 
L 474.020552 101.656765 
L 475.486803 114.778832 
L 476.953053 89.534451 
L 478.419303 96.488916 
L 479.885553 46.850592 
L 481.351804 57.235377 
L 484.284304 108.458537 
L 485.750555 117.129257 
L 487.216805 68.241574 
L 488.683055 90.71275 
L 490.149305 88.432904 
L 491.615556 139.906665 
L 493.081806 84.067954 
L 494.548056 97.051636 
L 496.014307 133.679237 
L 497.480557 121.552947 
L 498.946807 106.757365 
L 500.413057 112.072135 
L 501.879308 119.627928 
L 503.345558 114.807924 
L 504.811808 116.739621 
L 506.278059 105.989557 
L 507.744309 74.753505 
L 509.210559 160.672027 
L 510.676809 106.851286 
L 512.14306 95.089666 
L 513.60931 89.983896 
L 515.07556 102.50982 
L 516.541811 131.255023 
L 518.008061 84.538456 
L 519.474311 53.514817 
L 520.940561 125.357536 
L 522.406812 73.80247 
L 523.873062 101.558558 
L 525.339312 97.817692 
L 526.805562 122.043092 
L 528.271813 108.991184 
L 529.738063 75.898992 
L 531.204313 94.240233 
L 532.670564 71.355368 
L 534.136814 85.401898 
L 535.603064 102.91259 
L 537.069314 74.988642 
L 538.535565 103.597987 
L 540.001815 94.38637 
L 541.468065 117.717284 
L 542.934316 107.875375 
L 544.400566 122.3045 
L 545.866816 82.705486 
L 547.333066 127.491572 
L 548.799317 81.807363 
L 550.265567 100.653032 
L 551.731817 68.677768 
L 553.198068 76.278967 
L 554.664318 51.8138 
L 556.130568 75.363595 
L 557.596818 126.194564 
L 559.063069 94.208782 
L 560.529319 120.050934 
L 561.995569 107.835918 
L 563.46182 65.827546 
L 564.92807 87.681416 
L 566.39432 119.72423 
L 567.86057 129.238874 
L 569.326821 108.615606 
L 570.793071 137.886994 
L 572.259321 127.253044 
L 573.725572 106.381959 
L 575.191822 87.893516 
L 576.658072 99.192664 
L 578.124322 161.449204 
L 579.590573 102.661424 
L 581.056823 105.435028 
L 582.523073 95.32691 
L 583.989324 66.225069 
L 585.455574 144.193635 
L 586.921824 109.432491 
L 588.388074 81.401075 
L 589.854325 127.415556 
L 591.320575 59.370889 
L 592.786825 83.309196 
L 594.253076 73.168997 
L 595.719326 105.258196 
L 597.185576 76.515182 
L 598.651826 73.04821 
L 600.118077 93.853914 
L 601.584327 96.519644 
L 603.050577 98.474015 
L 604.516828 125.942138 
L 605.983078 112.568713 
L 607.449328 114.559187 
L 608.915578 104.133591 
L 610.381829 91.302408 
L 611.848079 136.429601 
L 613.314329 115.279742 
L 614.78058 78.736089 
L 616.24683 125.636636 
L 617.71308 125.041172 
L 619.17933 99.965649 
L 620.645581 83.146437 
L 622.111831 98.708995 
L 623.578081 67.337287 
L 625.044332 75.571792 
L 626.510582 74.284969 
L 627.976832 79.581012 
L 629.443082 40.353864 
L 630.909333 96.227317 
L 632.375583 136.665842 
L 633.841833 59.184579 
L 635.308084 106.507762 
L 636.774334 96.594343 
L 638.240584 72.948216 
L 639.706834 139.528686 
L 641.173085 134.455214 
L 642.639335 144.440501 
L 644.105585 128.625834 
L 645.571836 102.900533 
L 647.038086 101.730191 
L 648.504336 107.165414 
L 649.970586 143.512336 
L 651.436837 161.861678 
L 652.903087 108.142675 
L 654.369337 117.357431 
L 655.835587 94.329474 
L 657.301838 86.269086 
L 658.768088 95.928713 
L 660.234338 79.808178 
L 661.700589 89.330822 
L 663.166839 81.119848 
L 664.633089 107.178536 
L 666.099339 95.322767 
L 667.56559 87.415291 
L 669.03184 74.751763 
L 670.49809 102.988343 
L 671.964341 85.04723 
L 673.430591 104.787709 
L 674.896841 104.235592 
L 676.363091 86.214725 
L 677.829342 150.709848 
L 679.295592 137.757987 
L 680.761842 143.710523 
L 682.228093 163.700923 
L 683.694343 128.09258 
L 685.160593 96.791929 
L 686.626843 118.784819 
L 688.093094 106.878985 
L 689.559344 85.454469 
L 691.025594 77.906284 
L 692.491845 105.91675 
L 693.958095 71.982795 
L 695.424345 96.939727 
L 696.890595 114.832223 
L 698.356846 107.387566 
L 699.823096 125.199977 
L 701.289346 111.200699 
L 702.755597 99.234099 
L 704.221847 74.111701 
L 705.688097 55.015002 
L 707.154347 124.658766 
L 708.620598 87.860933 
L 710.086848 121.772232 
L 711.553098 91.251425 
L 713.019349 107.274905 
L 714.485599 147.154795 
L 715.951849 88.982467 
L 717.418099 124.479253 
L 718.88435 124.244214 
L 720.3506 136.675506 
L 721.81685 127.566821 
L 723.283101 103.158055 
L 724.749351 115.364271 
L 726.215601 102.128778 
L 727.681851 99.07956 
L 729.148102 75.446986 
L 730.614352 109.173809 
L 732.080602 131.337915 
L 733.546853 73.075596 
L 735.013103 101.623517 
L 736.479353 68.304747 
L 737.945603 83.324278 
L 739.411854 94.260033 
L 740.878104 84.08287 
L 742.344354 49.967194 
L 743.810605 48.820599 
L 745.276855 94.952124 
L 746.743105 95.447503 
L 748.209355 78.063282 
L 749.675606 122.94113 
L 751.141856 99.712095 
L 752.608106 109.901329 
L 754.074357 104.333228 
L 755.540607 130.809719 
L 757.006857 148.071856 
L 758.473107 158.670197 
L 759.939358 137.036429 
L 761.405608 121.271236 
L 762.871858 115.762205 
L 764.338109 64.542707 
L 765.804359 80.153342 
L 767.270609 122.751361 
L 768.736859 91.336389 
L 770.20311 105.39795 
L 771.66936 100.59037 
L 773.13561 88.677857 
L 774.601861 78.154764 
L 776.068111 98.822846 
L 777.534361 68.405655 
L 779.000611 117.776598 
L 780.466862 94.217042 
L 781.933112 39.522204 
L 783.399362 94.06873 
L 784.865612 70.237028 
L 786.331863 102.394505 
L 787.798113 94.281409 
L 789.264363 110.579222 
L 790.730614 114.951297 
L 792.196864 129.628321 
L 793.663114 103.788545 
L 795.129364 131.891387 
L 796.595615 97.946868 
L 798.061865 87.421631 
L 799.528115 101.298534 
L 800.994366 113.289957 
L 802.460616 94.448305 
L 803.926866 108.425918 
L 805.393116 78.448699 
L 806.859367 136.624707 
L 808.325617 101.713826 
L 809.791867 136.387183 
L 811.258118 124.506878 
L 812.724368 61.483875 
L 812.724368 61.483875 
" clip-path="url(#pa0d4503f8c)" style="fill: none; stroke: #1f77b4; stroke-width: 0.5; stroke-linecap: square"/>
   </g>
   <g id="patch_3">
    <path d="M 42.942969 170.433438 
L 42.942969 22.318125 
" style="fill: none; stroke: #000000; stroke-width: 0.8; stroke-linejoin: miter; stroke-linecap: square"/>
   </g>
   <g id="patch_4">
    <path d="M 849.380625 170.433438 
L 849.380625 22.318125 
" style="fill: none; stroke: #000000; stroke-width: 0.8; stroke-linejoin: miter; stroke-linecap: square"/>
   </g>
   <g id="patch_5">
    <path d="M 42.942969 170.433438 
L 849.380625 170.433438 
" style="fill: none; stroke: #000000; stroke-width: 0.8; stroke-linejoin: miter; stroke-linecap: square"/>
   </g>
   <g id="patch_6">
    <path d="M 42.942969 22.318125 
L 849.380625 22.318125 
" style="fill: none; stroke: #000000; stroke-width: 0.8; stroke-linejoin: miter; stroke-linecap: square"/>
   </g>
   <g id="text_19">
    <!-- Tone buried in noise (time domain) -->
    <g transform="translate(341.434609 16.318125) scale(0.12 -0.12)">
     <defs>
      <path id="DejaVuSans-52" d="M 1959 3097 
Q 1497 3097 1228 2736 
Q 959 2375 959 1747 
Q 959 1119 1226 758 
Q 1494 397 1959 397 
Q 2419 397 2687 759 
Q 2956 1122 2956 1747 
Q 2956 2369 2687 2733 
Q 2419 3097 1959 3097 
z
M 1959 3584 
Q 2709 3584 3137 3096 
Q 3566 2609 3566 1747 
Q 3566 888 3137 398 
Q 2709 -91 1959 -91 
Q 1206 -91 779 398 
Q 353 888 353 1747 
Q 353 2609 779 3096 
Q 1206 3584 1959 3584 
z
" transform="scale(0.015625)"/>
      <path id="DejaVuSans-51" d="M 3513 2113 
L 3513 0 
L 2938 0 
L 2938 2094 
Q 2938 2591 2744 2837 
Q 2550 3084 2163 3084 
Q 1697 3084 1428 2787 
Q 1159 2491 1159 1978 
L 1159 0 
L 581 0 
L 581 3500 
L 1159 3500 
L 1159 2956 
Q 1366 3272 1645 3428 
Q 1925 3584 2291 3584 
Q 2894 3584 3203 3211 
Q 3513 2838 3513 2113 
z
" transform="scale(0.015625)"/>
      <path id="DejaVuSans-45" d="M 3116 1747 
Q 3116 2381 2855 2742 
Q 2594 3103 2138 3103 
Q 1681 3103 1420 2742 
Q 1159 2381 1159 1747 
Q 1159 1113 1420 752 
Q 1681 391 2138 391 
Q 2594 391 2855 752 
Q 3116 1113 3116 1747 
z
M 1159 2969 
Q 1341 3281 1617 3432 
Q 1894 3584 2278 3584 
Q 2916 3584 3314 3078 
Q 3713 2572 3713 1747 
Q 3713 922 3314 415 
Q 2916 -91 2278 -91 
Q 1894 -91 1617 61 
Q 1341 213 1159 525 
L 1159 0 
L 581 0 
L 581 4863 
L 1159 4863 
L 1159 2969 
z
" transform="scale(0.015625)"/>
      <path id="DejaVuSans-55" d="M 2631 2963 
Q 2534 3019 2420 3045 
Q 2306 3072 2169 3072 
Q 1681 3072 1420 2755 
Q 1159 2438 1159 1844 
L 1159 0 
L 581 0 
L 581 3500 
L 1159 3500 
L 1159 2956 
Q 1341 3275 1631 3429 
Q 1922 3584 2338 3584 
Q 2397 3584 2469 3576 
Q 2541 3569 2628 3553 
L 2631 2963 
z
" transform="scale(0.015625)"/>
      <path id="DejaVuSans-44" d="M 2194 1759 
Q 1497 1759 1228 1600 
Q 959 1441 959 1056 
Q 959 750 1161 570 
Q 1363 391 1709 391 
Q 2188 391 2477 730 
Q 2766 1069 2766 1631 
L 2766 1759 
L 2194 1759 
z
M 3341 1997 
L 3341 0 
L 2766 0 
L 2766 531 
Q 2569 213 2275 61 
Q 1981 -91 1556 -91 
Q 1019 -91 701 211 
Q 384 513 384 1019 
Q 384 1609 779 1909 
Q 1175 2209 1959 2209 
L 2766 2209 
L 2766 2266 
Q 2766 2663 2505 2880 
Q 2244 3097 1772 3097 
Q 1472 3097 1187 3025 
Q 903 2953 641 2809 
L 641 3341 
Q 956 3463 1253 3523 
Q 1550 3584 1831 3584 
Q 2591 3584 2966 3190 
Q 3341 2797 3341 1997 
z
" transform="scale(0.015625)"/>
     </defs>
     <use xlink:href="#DejaVuSans-37"/>
     <use xlink:href="#DejaVuSans-52" transform="translate(44.09375 0)"/>
     <use xlink:href="#DejaVuSans-51" transform="translate(105.28125 0)"/>
     <use xlink:href="#DejaVuSans-48" transform="translate(168.65625 0)"/>
     <use xlink:href="#DejaVuSans-3" transform="translate(230.1875 0)"/>
     <use xlink:href="#DejaVuSans-45" transform="translate(261.96875 0)"/>
     <use xlink:href="#DejaVuSans-58" transform="translate(325.453125 0)"/>
     <use xlink:href="#DejaVuSans-55" transform="translate(388.828125 0)"/>
     <use xlink:href="#DejaVuSans-4c" transform="translate(429.9375 0)"/>
     <use xlink:href="#DejaVuSans-48" transform="translate(457.71875 0)"/>
     <use xlink:href="#DejaVuSans-47" transform="translate(519.25 0)"/>
     <use xlink:href="#DejaVuSans-3" transform="translate(582.734375 0)"/>
     <use xlink:href="#DejaVuSans-4c" transform="translate(614.515625 0)"/>
     <use xlink:href="#DejaVuSans-51" transform="translate(642.296875 0)"/>
     <use xlink:href="#DejaVuSans-3" transform="translate(705.671875 0)"/>
     <use xlink:href="#DejaVuSans-51" transform="translate(737.453125 0)"/>
     <use xlink:href="#DejaVuSans-52" transform="translate(800.828125 0)"/>
     <use xlink:href="#DejaVuSans-4c" transform="translate(862.015625 0)"/>
     <use xlink:href="#DejaVuSans-56" transform="translate(889.796875 0)"/>
     <use xlink:href="#DejaVuSans-48" transform="translate(941.890625 0)"/>
     <use xlink:href="#DejaVuSans-3" transform="translate(1003.421875 0)"/>
     <use xlink:href="#DejaVuSans-b" transform="translate(1035.203125 0)"/>
     <use xlink:href="#DejaVuSans-57" transform="translate(1074.21875 0)"/>
     <use xlink:href="#DejaVuSans-4c" transform="translate(1113.421875 0)"/>
     <use xlink:href="#DejaVuSans-50" transform="translate(1141.203125 0)"/>
     <use xlink:href="#DejaVuSans-48" transform="translate(1238.609375 0)"/>
     <use xlink:href="#DejaVuSans-3" transform="translate(1300.140625 0)"/>
     <use xlink:href="#DejaVuSans-47" transform="translate(1331.921875 0)"/>
     <use xlink:href="#DejaVuSans-52" transform="translate(1395.40625 0)"/>
     <use xlink:href="#DejaVuSans-50" transform="translate(1456.59375 0)"/>
     <use xlink:href="#DejaVuSans-44" transform="translate(1554 0)"/>
     <use xlink:href="#DejaVuSans-4c" transform="translate(1615.28125 0)"/>
     <use xlink:href="#DejaVuSans-51" transform="translate(1643.0625 0)"/>
     <use xlink:href="#DejaVuSans-c" transform="translate(1706.4375 0)"/>
    </g>
   </g>
   <g id="text_20">
    <!-- Figure B.6 -->
    <g transform="translate(42.942969 16.318125) scale(0.09 -0.09)">
     <defs>
      <path id="DejaVuSans-Oblique-29" d="M 1081 4666 
L 3756 4666 
L 3653 4134 
L 1606 4134 
L 1338 2759 
L 3188 2759 
L 3084 2228 
L 1234 2228 
L 800 0 
L 172 0 
L 1081 4666 
z
" transform="scale(0.015625)"/>
      <path id="DejaVuSans-Oblique-4c" d="M 1172 4863 
L 1747 4863 
L 1606 4134 
L 1031 4134 
L 1172 4863 
z
M 909 3500 
L 1484 3500 
L 800 0 
L 225 0 
L 909 3500 
z
" transform="scale(0.015625)"/>
      <path id="DejaVuSans-Oblique-4a" d="M 3816 3500 
L 3219 434 
Q 3047 -456 2561 -893 
Q 2075 -1331 1253 -1331 
Q 950 -1331 690 -1286 
Q 431 -1241 206 -1147 
L 313 -588 
Q 525 -725 762 -790 
Q 1000 -856 1269 -856 
Q 1816 -856 2167 -557 
Q 2519 -259 2631 300 
L 2681 563 
Q 2441 288 2122 144 
Q 1803 0 1434 0 
Q 903 0 598 351 
Q 294 703 294 1319 
Q 294 1803 478 2267 
Q 663 2731 997 3091 
Q 1219 3328 1514 3456 
Q 1809 3584 2131 3584 
Q 2484 3584 2746 3420 
Q 3009 3256 3138 2956 
L 3238 3500 
L 3816 3500 
z
M 2950 2216 
Q 2950 2641 2750 2872 
Q 2550 3103 2181 3103 
Q 1953 3103 1747 3012 
Q 1541 2922 1394 2759 
Q 1156 2491 1023 2127 
Q 891 1763 891 1375 
Q 891 944 1092 712 
Q 1294 481 1672 481 
Q 2219 481 2584 976 
Q 2950 1472 2950 2216 
z
" transform="scale(0.015625)"/>
      <path id="DejaVuSans-Oblique-58" d="M 428 1388 
L 838 3500 
L 1416 3500 
L 1006 1409 
Q 975 1256 961 1147 
Q 947 1038 947 966 
Q 947 700 1109 554 
Q 1272 409 1569 409 
Q 2031 409 2368 721 
Q 2706 1034 2809 1563 
L 3194 3500 
L 3769 3500 
L 3091 0 
L 2516 0 
L 2631 550 
Q 2388 244 2052 76 
Q 1716 -91 1338 -91 
Q 878 -91 622 161 
Q 366 413 366 863 
Q 366 956 381 1097 
Q 397 1238 428 1388 
z
" transform="scale(0.015625)"/>
      <path id="DejaVuSans-Oblique-55" d="M 2853 2969 
Q 2766 3016 2653 3041 
Q 2541 3066 2413 3066 
Q 1953 3066 1609 2717 
Q 1266 2369 1153 1784 
L 800 0 
L 225 0 
L 909 3500 
L 1484 3500 
L 1375 2956 
Q 1603 3259 1920 3421 
Q 2238 3584 2597 3584 
Q 2691 3584 2781 3573 
Q 2872 3563 2963 3538 
L 2853 2969 
z
" transform="scale(0.015625)"/>
      <path id="DejaVuSans-Oblique-48" d="M 3078 2063 
Q 3088 2113 3092 2166 
Q 3097 2219 3097 2272 
Q 3097 2653 2873 2875 
Q 2650 3097 2266 3097 
Q 1838 3097 1509 2826 
Q 1181 2556 1013 2059 
L 3078 2063 
z
M 3578 1613 
L 903 1613 
Q 884 1494 878 1425 
Q 872 1356 872 1306 
Q 872 872 1139 634 
Q 1406 397 1894 397 
Q 2269 397 2603 481 
Q 2938 566 3225 728 
L 3116 159 
Q 2806 34 2476 -28 
Q 2147 -91 1806 -91 
Q 1078 -91 686 257 
Q 294 606 294 1247 
Q 294 1794 489 2264 
Q 684 2734 1063 3103 
Q 1306 3334 1642 3459 
Q 1978 3584 2356 3584 
Q 2950 3584 3301 3228 
Q 3653 2872 3653 2272 
Q 3653 2128 3634 1964 
Q 3616 1800 3578 1613 
z
" transform="scale(0.015625)"/>
      <path id="DejaVuSans-Oblique-3" transform="scale(0.015625)"/>
      <path id="DejaVuSans-Oblique-25" d="M 1081 4666 
L 2694 4666 
Q 3350 4666 3675 4422 
Q 4000 4178 4000 3688 
Q 4000 3238 3720 2911 
Q 3441 2584 2988 2516 
Q 3375 2428 3569 2181 
Q 3763 1934 3763 1522 
Q 3763 819 3242 409 
Q 2722 0 1819 0 
L 172 0 
L 1081 4666 
z
M 1234 2228 
L 903 519 
L 1919 519 
Q 2491 519 2800 781 
Q 3109 1044 3109 1522 
Q 3109 1891 2904 2059 
Q 2700 2228 2247 2228 
L 1234 2228 
z
M 1606 4147 
L 1331 2741 
L 2272 2741 
Q 2775 2741 3058 2959 
Q 3341 3178 3341 3566 
Q 3341 3869 3150 4008 
Q 2959 4147 2541 4147 
L 1606 4147 
z
" transform="scale(0.015625)"/>
      <path id="DejaVuSans-Oblique-11" d="M 525 794 
L 1184 794 
L 1031 0 
L 372 0 
L 525 794 
z
" transform="scale(0.015625)"/>
      <path id="DejaVuSans-Oblique-19" d="M 2938 1728 
Q 2938 2125 2734 2354 
Q 2531 2584 2181 2584 
Q 1697 2584 1367 2211 
Q 1038 1838 1038 1288 
Q 1038 875 1239 642 
Q 1441 409 1797 409 
Q 2284 409 2611 792 
Q 2938 1175 2938 1728 
z
M 3788 4556 
L 3681 3981 
Q 3500 4100 3265 4162 
Q 3031 4225 2766 4225 
Q 2119 4225 1726 3819 
Q 1334 3413 1141 2547 
Q 1369 2813 1670 2948 
Q 1972 3084 2322 3084 
Q 2894 3084 3233 2754 
Q 3572 2425 3572 1869 
Q 3572 1413 3405 1020 
Q 3238 628 2919 331 
Q 2700 128 2409 18 
Q 2119 -91 1791 -91 
Q 1147 -91 775 318 
Q 403 728 403 1441 
Q 403 2103 573 2717 
Q 744 3331 1050 3781 
Q 1372 4256 1830 4503 
Q 2288 4750 2841 4750 
Q 3084 4750 3321 4701 
Q 3559 4653 3788 4556 
z
" transform="scale(0.015625)"/>
     </defs>
     <use xlink:href="#DejaVuSans-Oblique-29"/>
     <use xlink:href="#DejaVuSans-Oblique-4c" transform="translate(57.515625 0)"/>
     <use xlink:href="#DejaVuSans-Oblique-4a" transform="translate(85.296875 0)"/>
     <use xlink:href="#DejaVuSans-Oblique-58" transform="translate(148.78125 0)"/>
     <use xlink:href="#DejaVuSans-Oblique-55" transform="translate(212.15625 0)"/>
     <use xlink:href="#DejaVuSans-Oblique-48" transform="translate(253.265625 0)"/>
     <use xlink:href="#DejaVuSans-Oblique-3" transform="translate(314.796875 0)"/>
     <use xlink:href="#DejaVuSans-Oblique-25" transform="translate(346.578125 0)"/>
     <use xlink:href="#DejaVuSans-Oblique-11" transform="translate(415.1875 0)"/>
     <use xlink:href="#DejaVuSans-Oblique-19" transform="translate(446.96875 0)"/>
    </g>
   </g>
  </g>
 </g>
 <defs>
  <clipPath id="pa0d4503f8c">
   <rect x="42.942969" y="22.318125" width="806.437656" height="148.115313"/>
  </clipPath>
 </defs>
</svg>
