<?xml version="1.0" encoding="utf-8" standalone="no"?>
<!DOCTYPE svg PUBLIC "-//W3C//DTD SVG 1.1//EN"
  "http://www.w3.org/Graphics/SVG/1.1/DTD/svg11.dtd">
<svg xmlns:xlink="http://www.w3.org/1999/xlink" width="856.345625pt" height="208.634219pt" viewBox="0 0 856.345625 208.634219" xmlns="http://www.w3.org/2000/svg" version="1.1">
 <metadata>
  <rdf:RDF xmlns:dc="http://purl.org/dc/elements/1.1/" xmlns:cc="http://creativecommons.org/ns#" xmlns:rdf="http://www.w3.org/1999/02/22-rdf-syntax-ns#">
   <cc:Work>
    <dc:type rdf:resource="http://purl.org/dc/dcmitype/StillImage"/>
    <dc:date>2026-06-21T15:26:34.429954</dc:date>
    <dc:format>image/svg+xml</dc:format>
    <dc:creator>
     <cc:Agent>
      <dc:title>Matplotlib v3.11.0, https://matplotlib.org/</dc:title>
     </cc:Agent>
    </dc:creator>
   </cc:Work>
  </rdf:RDF>
 </metadata>
 <defs>
  <style type="text/css">*{stroke-linejoin: round; stroke-linecap: butt}</style>
 </defs>
 <g id="figure_1">
  <g id="patch_1">
   <path d="M 0 208.634219 
L 856.345625 208.634219 
L 856.345625 0 
L 0 0 
z
" style="fill: #ffffff"/>
  </g>
  <g id="axes_1">
   <g id="patch_2">
    <path d="M 55.667969 170.433438 
L 849.145625 170.433438 
L 849.145625 22.318125 
L 55.667969 22.318125 
z
" style="fill: #ffffff"/>
   </g>
   <g id="matplotlib.axis_1">
    <g id="xtick_1">
     <g id="line2d_1">
      <path d="M 91.735135 170.433438 
L 91.735135 22.318125 
" clip-path="url(#pb687d7645f)" style="fill: none; stroke: #b0b0b0; stroke-opacity: 0.3; stroke-width: 0.8; stroke-linecap: square"/>
     </g>
     <g id="line2d_2">
      <defs>
       <path id="m231b919b95" d="M 0 0 
L 0 3.5 
" style="stroke: #000000; stroke-width: 0.8"/>
      </defs>
      <g>
       <use xlink:href="#m231b919b95" x="91.735135" y="170.433438" style="stroke: #000000; stroke-width: 0.8"/>
      </g>
     </g>
     <g id="text_1">
      <!-- 0 -->
      <g transform="translate(88.553885 185.031094) scale(0.1 -0.1)">
       <defs>
        <path id="DejaVuSans-13" d="M 2034 4250 
Q 1547 4250 1301 3770 
Q 1056 3291 1056 2328 
Q 1056 1369 1301 889 
Q 1547 409 2034 409 
Q 2525 409 2770 889 
Q 3016 1369 3016 2328 
Q 3016 3291 2770 3770 
Q 2525 4250 2034 4250 
z
M 2034 4750 
Q 2819 4750 3233 4129 
Q 3647 3509 3647 2328 
Q 3647 1150 3233 529 
Q 2819 -91 2034 -91 
Q 1250 -91 836 529 
Q 422 1150 422 2328 
Q 422 3509 836 4129 
Q 1250 4750 2034 4750 
z
" transform="scale(0.015625)"/>
       </defs>
       <use xlink:href="#DejaVuSans-13"/>
      </g>
     </g>
    </g>
    <g id="xtick_2">
     <g id="line2d_3">
      <path d="M 211.959022 170.433438 
L 211.959022 22.318125 
" clip-path="url(#pb687d7645f)" style="fill: none; stroke: #b0b0b0; stroke-opacity: 0.3; stroke-width: 0.8; stroke-linecap: square"/>
     </g>
     <g id="line2d_4">
      <g>
       <use xlink:href="#m231b919b95" x="211.959022" y="170.433438" style="stroke: #000000; stroke-width: 0.8"/>
      </g>
     </g>
     <g id="text_2">
      <!-- 5 -->
      <g transform="translate(208.777772 185.031094) scale(0.1 -0.1)">
       <defs>
        <path id="DejaVuSans-18" d="M 691 4666 
L 3169 4666 
L 3169 4134 
L 1269 4134 
L 1269 2991 
Q 1406 3038 1543 3061 
Q 1681 3084 1819 3084 
Q 2600 3084 3056 2656 
Q 3513 2228 3513 1497 
Q 3513 744 3044 326 
Q 2575 -91 1722 -91 
Q 1428 -91 1123 -41 
Q 819 9 494 109 
L 494 744 
Q 775 591 1075 516 
Q 1375 441 1709 441 
Q 2250 441 2565 725 
Q 2881 1009 2881 1497 
Q 2881 1984 2565 2268 
Q 2250 2553 1709 2553 
Q 1456 2553 1204 2497 
Q 953 2441 691 2322 
L 691 4666 
z
" transform="scale(0.015625)"/>
       </defs>
       <use xlink:href="#DejaVuSans-18"/>
      </g>
     </g>
    </g>
    <g id="xtick_3">
     <g id="line2d_5">
      <path d="M 332.18291 170.433438 
L 332.18291 22.318125 
" clip-path="url(#pb687d7645f)" style="fill: none; stroke: #b0b0b0; stroke-opacity: 0.3; stroke-width: 0.8; stroke-linecap: square"/>
     </g>
     <g id="line2d_6">
      <g>
       <use xlink:href="#m231b919b95" x="332.18291" y="170.433438" style="stroke: #000000; stroke-width: 0.8"/>
      </g>
     </g>
     <g id="text_3">
      <!-- 10 -->
      <g transform="translate(325.82041 185.031094) scale(0.1 -0.1)">
       <defs>
        <path id="DejaVuSans-14" d="M 794 531 
L 1825 531 
L 1825 4091 
L 703 3866 
L 703 4441 
L 1819 4666 
L 2450 4666 
L 2450 531 
L 3481 531 
L 3481 0 
L 794 0 
L 794 531 
z
" transform="scale(0.015625)"/>
       </defs>
       <use xlink:href="#DejaVuSans-14"/>
       <use xlink:href="#DejaVuSans-13" transform="translate(63.625 0)"/>
      </g>
     </g>
    </g>
    <g id="xtick_4">
     <g id="line2d_7">
      <path d="M 452.406797 170.433438 
L 452.406797 22.318125 
" clip-path="url(#pb687d7645f)" style="fill: none; stroke: #b0b0b0; stroke-opacity: 0.3; stroke-width: 0.8; stroke-linecap: square"/>
     </g>
     <g id="line2d_8">
      <g>
       <use xlink:href="#m231b919b95" x="452.406797" y="170.433438" style="stroke: #000000; stroke-width: 0.8"/>
      </g>
     </g>
     <g id="text_4">
      <!-- 15 -->
      <g transform="translate(446.044297 185.031094) scale(0.1 -0.1)">
       <use xlink:href="#DejaVuSans-14"/>
       <use xlink:href="#DejaVuSans-18" transform="translate(63.625 0)"/>
      </g>
     </g>
    </g>
    <g id="xtick_5">
     <g id="line2d_9">
      <path d="M 572.630684 170.433438 
L 572.630684 22.318125 
" clip-path="url(#pb687d7645f)" style="fill: none; stroke: #b0b0b0; stroke-opacity: 0.3; stroke-width: 0.8; stroke-linecap: square"/>
     </g>
     <g id="line2d_10">
      <g>
       <use xlink:href="#m231b919b95" x="572.630684" y="170.433438" style="stroke: #000000; stroke-width: 0.8"/>
      </g>
     </g>
     <g id="text_5">
      <!-- 20 -->
      <g transform="translate(566.268184 185.031094) scale(0.1 -0.1)">
       <defs>
        <path id="DejaVuSans-15" d="M 1228 531 
L 3431 531 
L 3431 0 
L 469 0 
L 469 531 
Q 828 903 1448 1529 
Q 2069 2156 2228 2338 
Q 2531 2678 2651 2914 
Q 2772 3150 2772 3378 
Q 2772 3750 2511 3984 
Q 2250 4219 1831 4219 
Q 1534 4219 1204 4116 
Q 875 4013 500 3803 
L 500 4441 
Q 881 4594 1212 4672 
Q 1544 4750 1819 4750 
Q 2544 4750 2975 4387 
Q 3406 4025 3406 3419 
Q 3406 3131 3298 2873 
Q 3191 2616 2906 2266 
Q 2828 2175 2409 1742 
Q 1991 1309 1228 531 
z
" transform="scale(0.015625)"/>
       </defs>
       <use xlink:href="#DejaVuSans-15"/>
       <use xlink:href="#DejaVuSans-13" transform="translate(63.625 0)"/>
      </g>
     </g>
    </g>
    <g id="xtick_6">
     <g id="line2d_11">
      <path d="M 692.854571 170.433438 
L 692.854571 22.318125 
" clip-path="url(#pb687d7645f)" style="fill: none; stroke: #b0b0b0; stroke-opacity: 0.3; stroke-width: 0.8; stroke-linecap: square"/>
     </g>
     <g id="line2d_12">
      <g>
       <use xlink:href="#m231b919b95" x="692.854571" y="170.433438" style="stroke: #000000; stroke-width: 0.8"/>
      </g>
     </g>
     <g id="text_6">
      <!-- 25 -->
      <g transform="translate(686.492071 185.031094) scale(0.1 -0.1)">
       <use xlink:href="#DejaVuSans-15"/>
       <use xlink:href="#DejaVuSans-18" transform="translate(63.625 0)"/>
      </g>
     </g>
    </g>
    <g id="xtick_7">
     <g id="line2d_13">
      <path d="M 813.078459 170.433438 
L 813.078459 22.318125 
" clip-path="url(#pb687d7645f)" style="fill: none; stroke: #b0b0b0; stroke-opacity: 0.3; stroke-width: 0.8; stroke-linecap: square"/>
     </g>
     <g id="line2d_14">
      <g>
       <use xlink:href="#m231b919b95" x="813.078459" y="170.433438" style="stroke: #000000; stroke-width: 0.8"/>
      </g>
     </g>
     <g id="text_7">
      <!-- 30 -->
      <g transform="translate(806.715959 185.031094) scale(0.1 -0.1)">
       <defs>
        <path id="DejaVuSans-16" d="M 2597 2516 
Q 3050 2419 3304 2112 
Q 3559 1806 3559 1356 
Q 3559 666 3084 287 
Q 2609 -91 1734 -91 
Q 1441 -91 1130 -33 
Q 819 25 488 141 
L 488 750 
Q 750 597 1062 519 
Q 1375 441 1716 441 
Q 2309 441 2620 675 
Q 2931 909 2931 1356 
Q 2931 1769 2642 2001 
Q 2353 2234 1838 2234 
L 1294 2234 
L 1294 2753 
L 1863 2753 
Q 2328 2753 2575 2939 
Q 2822 3125 2822 3475 
Q 2822 3834 2567 4026 
Q 2313 4219 1838 4219 
Q 1578 4219 1281 4162 
Q 984 4106 628 3988 
L 628 4550 
Q 988 4650 1302 4700 
Q 1616 4750 1894 4750 
Q 2613 4750 3031 4423 
Q 3450 4097 3450 3541 
Q 3450 3153 3228 2886 
Q 3006 2619 2597 2516 
z
" transform="scale(0.015625)"/>
       </defs>
       <use xlink:href="#DejaVuSans-16"/>
       <use xlink:href="#DejaVuSans-13" transform="translate(63.625 0)"/>
      </g>
     </g>
    </g>
    <g id="text_8">
     <!-- Time (s) -->
     <g transform="translate(432.075547 199.031875) scale(0.1 -0.1)">
      <defs>
       <path id="DejaVuSans-37" d="M -19 4666 
L 3928 4666 
L 3928 4134 
L 2272 4134 
L 2272 0 
L 1638 0 
L 1638 4134 
L -19 4134 
L -19 4666 
z
" transform="scale(0.015625)"/>
       <path id="DejaVuSans-4c" d="M 603 3500 
L 1178 3500 
L 1178 0 
L 603 0 
L 603 3500 
z
M 603 4863 
L 1178 4863 
L 1178 4134 
L 603 4134 
L 603 4863 
z
" transform="scale(0.015625)"/>
       <path id="DejaVuSans-50" d="M 3328 2828 
Q 3544 3216 3844 3400 
Q 4144 3584 4550 3584 
Q 5097 3584 5394 3201 
Q 5691 2819 5691 2113 
L 5691 0 
L 5113 0 
L 5113 2094 
Q 5113 2597 4934 2840 
Q 4756 3084 4391 3084 
Q 3944 3084 3684 2787 
Q 3425 2491 3425 1978 
L 3425 0 
L 2847 0 
L 2847 2094 
Q 2847 2600 2669 2842 
Q 2491 3084 2119 3084 
Q 1678 3084 1418 2786 
Q 1159 2488 1159 1978 
L 1159 0 
L 581 0 
L 581 3500 
L 1159 3500 
L 1159 2956 
Q 1356 3278 1631 3431 
Q 1906 3584 2284 3584 
Q 2666 3584 2933 3390 
Q 3200 3197 3328 2828 
z
" transform="scale(0.015625)"/>
       <path id="DejaVuSans-48" d="M 3597 1894 
L 3597 1613 
L 953 1613 
Q 991 1019 1311 708 
Q 1631 397 2203 397 
Q 2534 397 2845 478 
Q 3156 559 3463 722 
L 3463 178 
Q 3153 47 2828 -22 
Q 2503 -91 2169 -91 
Q 1331 -91 842 396 
Q 353 884 353 1716 
Q 353 2575 817 3079 
Q 1281 3584 2069 3584 
Q 2775 3584 3186 3129 
Q 3597 2675 3597 1894 
z
M 3022 2063 
Q 3016 2534 2758 2815 
Q 2500 3097 2075 3097 
Q 1594 3097 1305 2825 
Q 1016 2553 972 2059 
L 3022 2063 
z
" transform="scale(0.015625)"/>
       <path id="DejaVuSans-3" transform="scale(0.015625)"/>
       <path id="DejaVuSans-b" d="M 1984 4856 
Q 1566 4138 1362 3434 
Q 1159 2731 1159 2009 
Q 1159 1288 1364 580 
Q 1569 -128 1984 -844 
L 1484 -844 
Q 1016 -109 783 600 
Q 550 1309 550 2009 
Q 550 2706 781 3412 
Q 1013 4119 1484 4856 
L 1984 4856 
z
" transform="scale(0.015625)"/>
       <path id="DejaVuSans-56" d="M 2834 3397 
L 2834 2853 
Q 2591 2978 2328 3040 
Q 2066 3103 1784 3103 
Q 1356 3103 1142 2972 
Q 928 2841 928 2578 
Q 928 2378 1081 2264 
Q 1234 2150 1697 2047 
L 1894 2003 
Q 2506 1872 2764 1633 
Q 3022 1394 3022 966 
Q 3022 478 2636 193 
Q 2250 -91 1575 -91 
Q 1294 -91 989 -36 
Q 684 19 347 128 
L 347 722 
Q 666 556 975 473 
Q 1284 391 1588 391 
Q 1994 391 2212 530 
Q 2431 669 2431 922 
Q 2431 1156 2273 1281 
Q 2116 1406 1581 1522 
L 1381 1569 
Q 847 1681 609 1914 
Q 372 2147 372 2553 
Q 372 3047 722 3315 
Q 1072 3584 1716 3584 
Q 2034 3584 2315 3537 
Q 2597 3491 2834 3397 
z
" transform="scale(0.015625)"/>
       <path id="DejaVuSans-c" d="M 513 4856 
L 1013 4856 
Q 1481 4119 1714 3412 
Q 1947 2706 1947 2009 
Q 1947 1309 1714 600 
Q 1481 -109 1013 -844 
L 513 -844 
Q 928 -128 1133 580 
Q 1338 1288 1338 2009 
Q 1338 2731 1133 3434 
Q 928 4138 513 4856 
z
" transform="scale(0.015625)"/>
      </defs>
      <use xlink:href="#DejaVuSans-37"/>
      <use xlink:href="#DejaVuSans-4c" transform="translate(58 0)"/>
      <use xlink:href="#DejaVuSans-50" transform="translate(85.78125 0)"/>
      <use xlink:href="#DejaVuSans-48" transform="translate(183.1875 0)"/>
      <use xlink:href="#DejaVuSans-3" transform="translate(244.71875 0)"/>
      <use xlink:href="#DejaVuSans-b" transform="translate(276.5 0)"/>
      <use xlink:href="#DejaVuSans-56" transform="translate(315.515625 0)"/>
      <use xlink:href="#DejaVuSans-c" transform="translate(367.609375 0)"/>
     </g>
    </g>
   </g>
   <g id="matplotlib.axis_2">
    <g id="ytick_1">
     <g id="line2d_15">
      <path d="M 55.667969 135.906086 
L 849.145625 135.906086 
" clip-path="url(#pb687d7645f)" style="fill: none; stroke: #b0b0b0; stroke-opacity: 0.3; stroke-width: 0.8; stroke-linecap: square"/>
     </g>
     <g id="line2d_16">
      <defs>
       <path id="me3bcad8815" d="M 0 0 
L -3.5 0 
" style="stroke: #000000; stroke-width: 0.8"/>
      </defs>
      <g>
       <use xlink:href="#me3bcad8815" x="55.667969" y="135.906086" style="stroke: #000000; stroke-width: 0.8"/>
      </g>
     </g>
     <g id="text_9">
      <!-- −100 -->
      <g transform="translate(21.200781 139.704914) scale(0.1 -0.1)">
       <defs>
        <path id="DejaVuSans-c9c" d="M 678 2272 
L 4684 2272 
L 4684 1741 
L 678 1741 
L 678 2272 
z
" transform="scale(0.015625)"/>
       </defs>
       <use xlink:href="#DejaVuSans-c9c"/>
       <use xlink:href="#DejaVuSans-14" transform="translate(83.796875 0)"/>
       <use xlink:href="#DejaVuSans-13" transform="translate(147.421875 0)"/>
       <use xlink:href="#DejaVuSans-13" transform="translate(211.046875 0)"/>
      </g>
     </g>
    </g>
    <g id="ytick_2">
     <g id="line2d_17">
      <path d="M 55.667969 98.033048 
L 849.145625 98.033048 
" clip-path="url(#pb687d7645f)" style="fill: none; stroke: #b0b0b0; stroke-opacity: 0.3; stroke-width: 0.8; stroke-linecap: square"/>
     </g>
     <g id="line2d_18">
      <g>
       <use xlink:href="#me3bcad8815" x="55.667969" y="98.033048" style="stroke: #000000; stroke-width: 0.8"/>
      </g>
     </g>
     <g id="text_10">
      <!-- 0 -->
      <g transform="translate(42.305469 101.831876) scale(0.1 -0.1)">
       <use xlink:href="#DejaVuSans-13"/>
      </g>
     </g>
    </g>
    <g id="ytick_3">
     <g id="line2d_19">
      <path d="M 55.667969 60.16001 
L 849.145625 60.16001 
" clip-path="url(#pb687d7645f)" style="fill: none; stroke: #b0b0b0; stroke-opacity: 0.3; stroke-width: 0.8; stroke-linecap: square"/>
     </g>
     <g id="line2d_20">
      <g>
       <use xlink:href="#me3bcad8815" x="55.667969" y="60.16001" style="stroke: #000000; stroke-width: 0.8"/>
      </g>
     </g>
     <g id="text_11">
      <!-- 100 -->
      <g transform="translate(29.580469 63.958838) scale(0.1 -0.1)">
       <use xlink:href="#DejaVuSans-14"/>
       <use xlink:href="#DejaVuSans-13" transform="translate(63.625 0)"/>
       <use xlink:href="#DejaVuSans-13" transform="translate(127.25 0)"/>
      </g>
     </g>
    </g>
    <g id="text_12">
     <!-- Amplitude (µV) -->
     <g transform="translate(14.798438 134.090625) rotate(-90) scale(0.1 -0.1)">
      <defs>
       <path id="DejaVuSans-24" d="M 2188 4044 
L 1331 1722 
L 3047 1722 
L 2188 4044 
z
M 1831 4666 
L 2547 4666 
L 4325 0 
L 3669 0 
L 3244 1197 
L 1141 1197 
L 716 0 
L 50 0 
L 1831 4666 
z
" transform="scale(0.015625)"/>
       <path id="DejaVuSans-53" d="M 1159 525 
L 1159 -1331 
L 581 -1331 
L 581 3500 
L 1159 3500 
L 1159 2969 
Q 1341 3281 1617 3432 
Q 1894 3584 2278 3584 
Q 2916 3584 3314 3078 
Q 3713 2572 3713 1747 
Q 3713 922 3314 415 
Q 2916 -91 2278 -91 
Q 1894 -91 1617 61 
Q 1341 213 1159 525 
z
M 3116 1747 
Q 3116 2381 2855 2742 
Q 2594 3103 2138 3103 
Q 1681 3103 1420 2742 
Q 1159 2381 1159 1747 
Q 1159 1113 1420 752 
Q 1681 391 2138 391 
Q 2594 391 2855 752 
Q 3116 1113 3116 1747 
z
" transform="scale(0.015625)"/>
       <path id="DejaVuSans-4f" d="M 603 4863 
L 1178 4863 
L 1178 0 
L 603 0 
L 603 4863 
z
" transform="scale(0.015625)"/>
       <path id="DejaVuSans-57" d="M 1172 4494 
L 1172 3500 
L 2356 3500 
L 2356 3053 
L 1172 3053 
L 1172 1153 
Q 1172 725 1289 603 
Q 1406 481 1766 481 
L 2356 481 
L 2356 0 
L 1766 0 
Q 1100 0 847 248 
Q 594 497 594 1153 
L 594 3053 
L 172 3053 
L 172 3500 
L 594 3500 
L 594 4494 
L 1172 4494 
z
" transform="scale(0.015625)"/>
       <path id="DejaVuSans-58" d="M 544 1381 
L 544 3500 
L 1119 3500 
L 1119 1403 
Q 1119 906 1312 657 
Q 1506 409 1894 409 
Q 2359 409 2629 706 
Q 2900 1003 2900 1516 
L 2900 3500 
L 3475 3500 
L 3475 0 
L 2900 0 
L 2900 538 
Q 2691 219 2414 64 
Q 2138 -91 1772 -91 
Q 1169 -91 856 284 
Q 544 659 544 1381 
z
M 1991 3584 
L 1991 3584 
z
" transform="scale(0.015625)"/>
       <path id="DejaVuSans-47" d="M 2906 2969 
L 2906 4863 
L 3481 4863 
L 3481 0 
L 2906 0 
L 2906 525 
Q 2725 213 2448 61 
Q 2172 -91 1784 -91 
Q 1150 -91 751 415 
Q 353 922 353 1747 
Q 353 2572 751 3078 
Q 1150 3584 1784 3584 
Q 2172 3584 2448 3432 
Q 2725 3281 2906 2969 
z
M 947 1747 
Q 947 1113 1208 752 
Q 1469 391 1925 391 
Q 2381 391 2643 752 
Q 2906 1113 2906 1747 
Q 2906 2381 2643 2742 
Q 2381 3103 1925 3103 
Q 1469 3103 1208 2742 
Q 947 2381 947 1747 
z
" transform="scale(0.015625)"/>
       <path id="DejaVuSans-77" d="M 544 -1331 
L 544 3500 
L 1119 3500 
L 1119 1325 
Q 1119 872 1334 640 
Q 1550 409 1972 409 
Q 2434 409 2667 671 
Q 2900 934 2900 1459 
L 2900 3500 
L 3475 3500 
L 3475 806 
Q 3475 619 3529 530 
Q 3584 441 3700 441 
Q 3728 441 3778 458 
Q 3828 475 3916 513 
L 3916 50 
Q 3788 -22 3673 -56 
Q 3559 -91 3450 -91 
Q 3234 -91 3106 31 
Q 2978 153 2931 403 
Q 2775 156 2548 32 
Q 2322 -91 2016 -91 
Q 1697 -91 1473 31 
Q 1250 153 1119 397 
L 1119 -1331 
L 544 -1331 
z
" transform="scale(0.015625)"/>
       <path id="DejaVuSans-39" d="M 1831 0 
L 50 4666 
L 709 4666 
L 2188 738 
L 3669 4666 
L 4325 4666 
L 2547 0 
L 1831 0 
z
" transform="scale(0.015625)"/>
      </defs>
      <use xlink:href="#DejaVuSans-24"/>
      <use xlink:href="#DejaVuSans-50" transform="translate(68.40625 0)"/>
      <use xlink:href="#DejaVuSans-53" transform="translate(165.8125 0)"/>
      <use xlink:href="#DejaVuSans-4f" transform="translate(229.296875 0)"/>
      <use xlink:href="#DejaVuSans-4c" transform="translate(257.078125 0)"/>
      <use xlink:href="#DejaVuSans-57" transform="translate(284.859375 0)"/>
      <use xlink:href="#DejaVuSans-58" transform="translate(324.0625 0)"/>
      <use xlink:href="#DejaVuSans-47" transform="translate(387.4375 0)"/>
      <use xlink:href="#DejaVuSans-48" transform="translate(450.921875 0)"/>
      <use xlink:href="#DejaVuSans-3" transform="translate(512.453125 0)"/>
      <use xlink:href="#DejaVuSans-b" transform="translate(544.234375 0)"/>
      <use xlink:href="#DejaVuSans-77" transform="translate(583.25 0)"/>
      <use xlink:href="#DejaVuSans-39" transform="translate(646.875 0)"/>
      <use xlink:href="#DejaVuSans-c" transform="translate(715.28125 0)"/>
     </g>
    </g>
   </g>
   <g id="line2d_21">
    <path d="M 91.735135 125.304212 
L 91.975583 126.307763 
L 92.095807 126.482293 
L 92.21603 126.438661 
L 92.456478 127.485844 
L 92.576702 127.616742 
L 92.81715 126.700456 
L 93.057598 127.224048 
L 93.177822 126.525926 
L 93.778941 118.27936 
L 94.139613 114.788749 
L 94.38006 110.425487 
L 94.740732 103.051573 
L 95.341852 98.208352 
L 95.462075 98.51378 
L 95.702523 100.128187 
L 95.942971 102.178921 
L 96.303643 105.102306 
L 96.423867 105.276837 
L 96.784538 106.411285 
L 96.904762 106.411285 
L 97.024986 106.280387 
L 97.14521 106.367653 
L 97.385658 105.364102 
L 98.227225 95.503129 
L 98.70812 87.911052 
L 99.429464 73.075959 
L 99.669912 72.552367 
L 99.790135 72.334204 
L 100.030583 73.948611 
L 100.511479 78.180976 
L 100.751926 80.23171 
L 101.112598 88.172848 
L 101.593494 99.081004 
L 101.713718 99.779126 
L 101.833941 99.51733 
L 101.954165 99.735493 
L 102.314837 96.986638 
L 102.915956 89.743622 
L 103.03618 89.787255 
L 103.156404 89.612724 
L 103.276628 89.743622 
L 103.396852 89.481826 
L 103.517076 89.525459 
L 103.757524 89.961785 
L 103.877748 89.787255 
L 104.358643 85.336727 
L 104.478867 84.245911 
L 104.599091 84.856768 
L 104.959763 91.53256 
L 105.440658 94.674109 
L 105.681106 96.113985 
L 105.80133 96.244883 
L 105.921554 96.201251 
L 106.041778 96.02672 
L 106.162001 96.768475 
L 106.282225 96.68121 
L 106.642897 96.157618 
L 106.763121 96.506679 
L 107.003569 95.546761 
L 107.123793 95.677659 
L 107.484464 97.117536 
L 107.604688 96.943005 
L 107.845136 97.161169 
L 108.446255 87.954684 
L 110.249614 63.651312 
L 110.369837 64.393066 
L 110.730509 72.770531 
L 111.812524 98.950106 
L 112.173196 104.796878 
L 112.533867 108.331121 
L 112.654091 108.112958 
L 112.894539 107.196673 
L 113.615882 110.381854 
L 113.85633 108.418386 
L 114.577674 99.299167 
L 114.938345 92.928804 
L 115.058569 92.012519 
L 115.178793 92.056151 
L 115.419241 94.325048 
L 115.779912 99.168269 
L 116.02036 100.040922 
L 116.501256 92.972436 
L 116.861927 84.115013 
L 116.982151 84.158646 
L 117.342823 89.787255 
L 117.943942 102.571614 
L 118.424838 111.603568 
L 118.545062 111.429037 
L 118.665286 111.036344 
L 118.905733 109.770997 
L 119.146181 109.552834 
L 119.386629 110.774548 
L 119.747301 112.694383 
L 119.987748 114.003362 
L 120.107972 114.788749 
L 120.228196 114.439688 
L 120.468644 112.127159 
L 120.588868 111.996261 
L 120.829316 113.392505 
L 120.94954 113.30524 
L 121.550659 106.629448 
L 121.670883 106.673081 
L 121.911331 105.276837 
L 122.151778 103.226104 
L 122.272002 102.964308 
L 122.632674 104.273287 
L 122.873122 105.058674 
L 123.474241 109.421936 
L 123.714689 110.469119 
L 123.834913 110.338222 
L 123.955137 109.901895 
L 124.075361 109.901895 
L 124.195585 110.250956 
L 124.67648 113.261608 
L 124.796704 113.087077 
L 125.638271 105.364102 
L 125.758495 105.32047 
L 126.239391 107.414836 
L 126.359614 107.371203 
L 126.479838 107.109407 
L 126.84051 108.81108 
L 126.960734 108.636549 
L 127.080958 108.025692 
L 127.321406 106.411285 
L 127.441629 107.283938 
L 127.802301 112.781649 
L 128.042749 106.542183 
L 128.283197 101.786227 
L 128.523644 99.081004 
L 129.124764 86.907501 
L 129.846107 77.788283 
L 130.928122 50.648789 
L 131.288794 46.023731 
L 131.409018 46.329159 
L 132.010137 50.474259 
L 132.370809 56.888255 
L 132.851704 65.440249 
L 133.813496 80.973464 
L 134.174167 85.55489 
L 134.534839 89.263663 
L 134.775287 89.132765 
L 134.89551 89.176398 
L 135.616854 95.1977 
L 135.737078 95.110435 
L 135.857302 95.1977 
L 136.097749 97.68476 
L 137.179764 112.432588 
L 137.540436 116.010463 
L 137.780884 117.363074 
L 137.901108 117.62487 
L 138.021332 117.319442 
L 138.382003 115.443239 
L 138.502227 115.879565 
L 138.983123 119.370175 
L 139.103347 119.45744 
L 139.22357 120.28646 
L 139.704466 128.140333 
L 139.82469 128.402129 
L 139.944914 128.969353 
L 140.425809 133.89984 
L 140.666257 131.369147 
L 141.147153 122.380826 
L 141.748272 105.844061 
L 141.98872 104.055123 
L 142.469615 107.589366 
L 142.830287 104.840511 
L 143.070735 98.339249 
L 143.311183 91.968886 
L 143.55163 90.136316 
L 143.671854 90.267214 
L 144.513421 93.975987 
L 144.633645 93.932354 
L 144.753869 94.063252 
L 144.874093 94.36868 
L 145.475213 101.698962 
L 145.71566 103.00794 
L 145.835884 103.00794 
L 145.956108 103.138838 
L 146.196556 104.884143 
L 146.917899 115.486871 
L 147.038123 116.272259 
L 147.158347 116.272259 
L 147.398795 116.883116 
L 147.519019 116.62132 
L 147.999914 112.47622 
L 148.48081 106.585816 
L 148.721258 106.454918 
L 148.961705 103.182471 
L 149.683049 87.649256 
L 149.923496 85.947584 
L 150.404392 87.300195 
L 150.64484 86.38391 
L 150.885288 80.842566 
L 151.125735 74.559468 
L 151.245959 74.035877 
L 151.606631 74.952162 
L 151.847079 78.355507 
L 152.087526 83.024198 
L 152.20775 83.591422 
L 152.327974 82.806035 
L 152.688646 78.57367 
L 152.80887 78.006446 
L 153.169541 75.344855 
L 153.650437 78.442772 
L 153.890885 77.482854 
L 154.131332 80.537138 
L 154.9729 102.135288 
L 155.093124 102.615247 
L 155.333571 99.866391 
L 155.574019 98.208352 
L 155.814467 103.269736 
L 156.175139 112.345322 
L 156.415586 115.181443 
L 156.53581 115.399606 
L 156.896482 108.505651 
L 157.377377 98.077454 
L 157.617825 95.939455 
L 157.738049 96.070353 
L 157.858273 95.939455 
L 158.098721 93.146967 
L 158.339169 88.478276 
L 158.69984 75.824814 
L 159.060512 65.003923 
L 159.180736 63.913107 
L 159.30096 63.913107 
L 159.421183 64.480332 
L 159.781855 68.27637 
L 160.022303 68.712696 
L 160.623422 66.400167 
L 160.743646 66.312902 
L 160.86387 66.531065 
L 160.984094 67.796411 
L 161.344766 74.123142 
L 161.705437 75.999345 
L 161.825661 76.042977 
L 162.066109 75.25759 
L 162.426781 72.901428 
L 162.667228 75.039427 
L 162.787452 76.828365 
L 162.907676 76.392039 
L 163.268348 71.243389 
L 163.62902 72.072409 
L 163.749243 71.723348 
L 163.869467 71.810613 
L 164.350363 68.494533 
L 164.470587 69.149023 
L 165.19193 82.936932 
L 165.432378 86.55844 
L 165.552602 86.689338 
L 165.672826 86.471175 
L 166.153721 81.23526 
L 166.394169 84.071381 
L 166.754841 87.867419 
L 166.875065 88.21648 
L 166.995288 88.04195 
L 167.235736 86.820236 
L 167.476184 83.285993 
L 167.716632 79.228159 
L 167.836856 79.489955 
L 168.077303 84.115013 
L 168.437975 92.274314 
L 168.678423 94.586844 
L 168.798647 94.892272 
L 169.039094 92.317947 
L 169.640214 81.497056 
L 169.760438 81.497056 
L 170.121109 86.602073 
L 170.361557 88.303745 
L 170.481781 87.998317 
L 170.962677 80.013546 
L 171.323348 73.643183 
L 171.443572 73.206857 
L 171.563796 73.206857 
L 172.044692 77.831915 
L 172.164916 78.093711 
L 172.285139 78.050078 
L 172.525587 76.348406 
L 172.645811 75.388488 
L 173.126707 67.054657 
L 173.607602 55.31748 
L 173.727826 56.059235 
L 174.088498 60.989721 
L 174.328946 58.153601 
L 174.449169 59.46258 
L 174.809841 66.4438 
L 174.930065 66.094739 
L 175.050289 66.094739 
L 175.290737 69.454451 
L 175.531184 72.116041 
L 175.771632 73.119592 
L 176.01208 75.955712 
L 176.733423 91.488927 
L 177.214319 95.590394 
L 177.454767 97.292066 
L 177.57499 97.117536 
L 177.815438 96.332149 
L 177.935662 96.288516 
L 178.055886 95.983088 
L 178.897453 105.974959 
L 179.258125 112.083527 
L 179.498573 112.956179 
L 179.618797 112.694383 
L 180.099692 113.95973 
L 180.219916 113.785199 
L 180.460364 115.13781 
L 180.580588 115.094178 
L 180.700812 114.439688 
L 181.061483 111.254507 
L 181.542379 105.756796 
L 181.662603 105.887694 
L 181.90305 108.243856 
L 182.143498 112.912547 
L 182.624394 125.173314 
L 182.744618 125.696906 
L 182.864842 125.609641 
L 182.985065 124.518825 
L 183.465961 116.79585 
L 183.706409 120.068297 
L 184.6682 140.313836 
L 184.788424 141.05559 
L 184.908648 140.575631 
L 185.389543 136.212369 
L 185.509767 136.343267 
L 185.629991 137.215919 
L 185.870439 139.266653 
L 185.990663 139.353918 
L 186.110886 139.790244 
L 186.351334 142.408202 
L 186.471558 141.797345 
L 186.83223 135.470614 
L 187.192901 133.550779 
L 187.313125 134.118003 
L 187.553573 136.866858 
L 187.673797 136.954124 
L 187.794021 136.430532 
L 188.034469 134.641594 
L 188.274916 133.201718 
L 188.515364 127.878537 
L 188.876036 118.802951 
L 189.356931 112.345322 
L 189.477155 112.214425 
L 189.717603 112.694383 
L 189.958051 113.217975 
L 190.078275 113.174342 
L 190.318723 112.30169 
L 190.799618 107.807529 
L 190.919842 108.025692 
L 191.761409 115.355974 
L 192.001857 116.272259 
L 192.122081 115.312341 
L 192.362529 110.163691 
L 192.7232 102.877043 
L 192.843424 102.397084 
L 193.32432 107.283938 
L 193.444544 106.978509 
L 193.805215 103.487899 
L 194.165887 98.033821 
L 194.526559 91.663458 
L 194.646782 91.619825 
L 195.127678 95.284966 
L 195.368126 93.277865 
L 195.969245 85.336727 
L 196.089469 85.205829 
L 196.209693 85.467625 
L 196.450141 87.867419 
L 196.690589 92.885171 
L 197.05126 102.83341 
L 197.171484 103.531532 
L 197.291708 103.095206 
L 197.532156 104.011491 
L 197.65238 103.66243 
L 198.013051 101.088105 
L 198.133275 101.742594 
L 198.253499 103.051573 
L 198.734395 112.214425 
L 200.297305 128.445761 
L 200.417529 128.402129 
L 200.657977 127.965803 
L 200.898425 127.180415 
L 201.259096 124.344295 
L 201.37932 124.60609 
L 201.619768 126.220497 
L 201.860216 123.951601 
L 202.220887 118.061196 
L 202.581559 116.708585 
L 202.942231 119.064747 
L 203.062455 118.235727 
L 203.302902 115.879565 
L 203.423126 115.530504 
L 203.54335 115.705035 
L 203.663574 115.530504 
L 203.904022 112.258057 
L 204.14447 109.465569 
L 204.384917 108.767447 
L 204.745589 106.629448 
L 205.587156 98.906474 
L 206.789395 71.897878 
L 206.909619 71.461552 
L 207.029843 71.941511 
L 207.150067 71.941511 
L 207.270291 72.42147 
L 207.390515 72.246939 
L 207.510738 71.76698 
L 207.751186 70.152573 
L 207.87141 70.327103 
L 208.111858 69.585349 
L 208.352306 67.796411 
L 208.47253 67.883676 
L 208.592753 67.752779 
L 208.953425 69.454451 
L 209.073649 68.756329 
L 209.434321 64.000373 
L 209.554545 64.218536 
L 209.794992 65.091188 
L 210.275888 58.240866 
L 210.516336 60.597028 
L 210.756783 66.574698 
L 211.478127 84.856768 
L 211.598351 85.336727 
L 211.838798 84.682237 
L 211.959022 84.856768 
L 212.439918 91.663458 
L 213.041037 100.913574 
L 213.281485 97.68476 
L 213.642157 92.143417 
L 213.762381 91.488927 
L 213.882604 91.794356 
L 214.123052 96.113985 
L 214.483724 108.636549 
L 214.964619 123.122581 
L 215.205067 126.438661 
L 215.325291 125.827804 
L 215.685963 117.930299 
L 216.046634 109.945528 
L 216.52753 102.746145 
L 216.888202 94.019619 
L 217.489321 74.515836 
L 218.090441 64.829393 
L 218.210664 64.873025 
L 218.571336 69.672614 
L 218.932008 70.327103 
L 219.052232 70.239838 
L 219.292679 69.410818 
L 219.412903 69.498084 
L 219.533127 70.327103 
L 220.615142 87.431093 
L 220.735366 87.780154 
L 220.85559 87.518358 
L 221.096038 85.991216 
L 221.216262 86.907501 
L 221.817381 98.339249 
L 222.057829 100.520881 
L 222.178053 100.259085 
L 222.4185 97.859291 
L 222.779172 91.750723 
L 223.139844 86.427543 
L 223.500515 83.024198 
L 223.620739 83.198728 
L 224.101635 84.944033 
L 224.221859 83.285993 
L 224.462307 74.166775 
L 225.303874 37.559001 
L 225.424098 38.344389 
L 225.664545 42.096794 
L 226.145441 53.397645 
L 226.626337 59.811641 
L 227.828575 84.202279 
L 228.069023 88.172848 
L 228.429695 93.932354 
L 228.549919 94.237783 
L 229.271262 98.251984 
L 229.51171 96.68121 
L 229.752158 95.284966 
L 230.112829 97.335699 
L 230.834173 91.052601 
L 231.435292 76.348406 
L 231.67574 75.213958 
L 231.795964 75.126692 
L 231.916188 75.824814 
L 232.637531 87.954684 
L 232.757755 87.736521 
L 232.877979 86.820236 
L 232.998203 87.038399 
L 233.118426 87.823787 
L 233.23865 87.605623 
L 233.358874 85.947584 
L 233.599322 80.275342 
L 233.719546 79.708118 
L 234.200441 81.627954 
L 234.320665 81.278893 
L 234.801561 78.137344 
L 235.162233 75.737549 
L 235.40268 74.646733 
L 235.763352 75.213958 
L 235.883576 74.821264 
L 236.244247 72.770531 
L 236.364471 73.032326 
L 236.484695 72.814163 
L 236.604919 72.290572 
L 236.965591 69.628981 
L 237.085815 69.978042 
L 237.206039 71.461552 
L 238.16783 94.063252 
L 238.648725 96.943005 
L 238.889173 101.873492 
L 239.73074 126.002334 
L 239.971188 127.878537 
L 240.091412 127.834905 
L 240.452084 125.653273 
L 240.692531 126.045967 
L 240.932979 126.569558 
L 241.293651 130.496495 
L 241.413875 130.321964 
L 241.534099 129.405679 
L 242.255442 116.926748 
L 242.49589 115.312341 
L 242.616114 115.399606 
L 242.856561 114.614219 
L 243.457681 108.112958 
L 243.577905 108.680182 
L 244.0588 114.526954 
L 244.539696 125.653273 
L 245.020591 121.551806 
L 245.261039 121.420909 
L 246.22283 114.308791 
L 246.343054 114.046995 
L 246.583502 110.469119 
L 246.944173 105.538633 
L 247.184621 104.142389 
L 247.304845 103.967858 
L 247.665517 105.407735 
L 247.785741 105.538633 
L 247.905965 105.015041 
L 248.026188 103.749695 
L 248.627308 92.012519 
L 248.747532 92.056151 
L 248.98798 91.488927 
L 249.108203 91.096233 
L 249.348651 91.401662 
L 249.468875 91.227131 
L 250.069995 85.511257 
L 250.430666 83.285993 
L 250.671114 82.675137 
L 250.911562 87.780154 
L 251.272233 96.070353 
L 251.753129 100.128187 
L 251.873353 99.866391 
L 251.993577 99.997289 
L 252.234025 101.786227 
L 252.594696 104.840511 
L 252.835144 106.149489 
L 252.955368 105.713163 
L 253.195816 103.00794 
L 253.436263 100.040922 
L 253.676711 99.910024 
L 253.796935 100.520881 
L 253.917159 100.34635 
L 254.638502 107.022142 
L 254.758726 106.716714 
L 254.999174 103.531532 
L 255.359846 96.332149 
L 255.720517 93.452395 
L 255.840741 93.146967 
L 255.960965 93.408763 
L 256.081189 94.412313 
L 256.201413 93.975987 
L 256.682308 89.830887 
L 257.163204 84.72587 
L 257.283428 84.071381 
L 257.403652 84.420442 
L 257.523876 85.118564 
L 258.004771 91.925253 
L 258.245219 92.623375 
L 258.605891 90.965336 
L 258.726114 90.790805 
L 259.086786 87.998317 
L 259.20701 87.998317 
L 259.447458 89.350928 
L 259.687906 89.569092 
L 259.808129 89.656357 
L 260.168801 93.975987 
L 260.649697 102.00439 
L 260.769921 101.82986 
L 261.010368 100.084554 
L 261.250816 98.251984 
L 261.37104 98.339249 
L 261.491264 98.208352 
L 261.851935 96.113985 
L 262.092383 96.593944 
L 262.332831 95.372231 
L 263.054174 86.340277 
L 263.655294 70.152573 
L 264.977757 30.708679 
L 265.218204 29.050639 
L 265.578876 31.406801 
L 265.819324 33.239371 
L 266.179995 36.948145 
L 266.660891 38.69345 
L 267.021563 40.569652 
L 267.382234 42.838549 
L 267.622682 42.314958 
L 267.742906 42.794916 
L 268.344025 54.052134 
L 268.464249 54.183032 
L 268.704697 55.710174 
L 269.185593 64.131271 
L 270.387831 82.806035 
L 270.628279 80.580771 
L 270.748503 80.537138 
L 271.109175 83.198728 
L 271.830518 93.975987 
L 272.19119 95.415863 
L 272.551861 92.885171 
L 272.912533 92.187049 
L 273.152981 93.845089 
L 273.513653 96.637577 
L 274.114772 104.578715 
L 274.234996 104.796878 
L 274.35522 104.578715 
L 274.715891 106.542183 
L 275.196787 114.701484 
L 276.038354 128.882088 
L 276.278802 130.976454 
L 277.481041 146.509669 
L 278.322608 155.977948 
L 278.442832 155.890683 
L 278.68328 155.279826 
L 278.803504 155.367092 
L 278.923727 156.152479 
L 279.524847 162.47921 
L 279.645071 162.566475 
L 279.765295 162.042884 
L 280.005742 158.421376 
L 280.606862 147.338689 
L 281.448429 139.441183 
L 281.809101 134.07437 
L 282.770892 117.101279 
L 283.372011 108.636549 
L 283.492235 108.15659 
L 283.612459 108.374753 
L 283.973131 111.254507 
L 284.093355 110.730915 
L 284.694474 100.564513 
L 284.814698 100.34635 
L 285.055146 100.826309 
L 285.17537 102.135288 
L 285.536041 112.30169 
L 286.618056 142.408202 
L 287.219176 147.86228 
L 287.459623 145.244322 
L 288.541638 126.962252 
L 288.661862 125.827804 
L 288.782086 125.958702 
L 289.022534 126.874987 
L 289.262982 124.60609 
L 289.50343 122.468092 
L 289.623653 121.813602 
L 289.864101 119.370175 
L 290.224773 118.715686 
L 290.585445 114.396056 
L 290.705668 114.919647 
L 290.946116 117.144911 
L 291.06634 116.534055 
L 291.907907 107.109407 
L 292.268579 105.015041 
L 292.629251 100.913574 
L 292.989922 98.382882 
L 293.711266 89.132765 
L 293.951713 86.165747 
L 294.432609 82.587871 
L 294.673057 81.322525 
L 294.913504 79.009996 
L 295.274176 69.978042 
L 295.634848 60.335232 
L 295.995519 57.542744 
L 296.115743 56.670092 
L 296.235967 57.106418 
L 296.596639 59.63711 
L 296.716863 59.549845 
L 296.957311 58.109968 
L 297.197758 57.630009 
L 297.55843 59.898906 
L 297.678654 59.855273 
L 297.798878 59.026253 
L 297.919102 59.157151 
L 298.039326 60.247967 
L 298.640445 69.454451 
L 298.760669 70.327103 
L 298.880893 69.759879 
L 299.001117 69.890777 
L 299.121341 69.410818 
L 299.361788 65.920208 
L 299.842684 58.502662 
L 300.203356 54.052134 
L 300.323579 53.964869 
L 300.804475 57.935438 
L 301.044923 59.113519 
L 301.405594 56.408296 
L 301.525818 56.800989 
L 301.766266 58.677192 
L 301.88649 60.684293 
L 302.247162 76.348406 
L 302.968505 101.655329 
L 303.329177 105.058674 
L 303.4494 105.713163 
L 303.689848 104.927776 
L 303.810072 105.189572 
L 304.651639 115.050545 
L 305.012311 111.690833 
L 305.132535 111.47267 
L 305.252759 110.512752 
L 305.733654 100.869942 
L 305.974102 97.946556 
L 306.334774 91.488927 
L 306.935893 73.337755 
L 307.296565 68.843594 
L 307.416789 68.320003 
L 307.657237 71.76698 
L 309.220147 104.578715 
L 309.580819 111.821731 
L 309.821267 114.439688 
L 309.94149 114.265158 
L 310.181938 111.516303 
L 310.783058 101.437166 
L 311.384177 87.431093 
L 311.624625 84.333176 
L 311.865073 85.511257 
L 311.985296 85.074931 
L 312.586416 80.318975 
L 312.947088 74.515836 
L 313.187535 67.970942 
L 313.307759 66.661963 
L 313.548207 67.44735 
L 313.668431 67.098289 
L 313.788655 66.225637 
L 313.908879 66.312902 
L 314.149326 69.323553 
L 314.509998 75.781182 
L 314.630222 76.610202 
L 314.750446 76.435671 
L 315.111118 78.617302 
L 315.231341 78.268241 
L 315.351565 78.399139 
L 315.712237 82.631504 
L 316.072909 80.624403 
L 316.313356 81.846117 
L 316.674028 80.275342 
L 316.794252 80.537138 
L 317.0347 80.188077 
L 317.154924 80.362607 
L 317.395371 80.23171 
L 317.515595 80.057179 
L 317.876267 78.922731 
L 318.116715 79.57722 
L 318.236939 79.40269 
L 318.477386 80.013546 
L 318.838058 84.158646 
L 318.958282 84.507707 
L 319.19873 81.497056 
L 319.559401 75.91208 
L 319.799849 74.166775 
L 319.920073 74.864897 
L 320.400969 84.72587 
L 320.881864 95.895822 
L 321.122312 96.724842 
L 321.603207 92.53611 
L 321.843655 91.70709 
L 321.963879 91.750723 
L 322.444775 93.932354 
L 323.045894 101.437166 
L 323.52679 104.011491 
L 323.647014 103.182471 
L 324.488581 93.321497 
L 325.209924 84.158646 
L 325.570596 77.046528 
L 325.811044 75.824814 
L 325.931267 76.130243 
L 326.051491 75.650284 
L 326.291939 76.435671 
L 326.652611 77.482854 
L 326.772835 77.657385 
L 327.133506 76.653834 
L 327.373954 77.395589 
L 327.85485 75.737549 
L 328.095297 75.650284 
L 328.455969 77.308324 
L 328.576193 76.871997 
L 328.696417 76.871997 
L 329.057088 78.399139 
L 329.177312 78.530037 
L 329.41776 80.318975 
L 329.658208 79.315424 
L 329.778432 78.180976 
L 329.898656 78.224609 
L 330.01888 77.74465 
L 330.619999 80.537138 
L 331.100895 84.813135 
L 331.221118 84.987666 
L 331.461566 86.732971 
L 332.18291 97.292066 
L 332.423357 97.68476 
L 332.784029 97.335699 
L 332.904253 96.637577 
L 333.144701 96.68121 
L 333.385148 98.295617 
L 333.625596 98.950106 
L 333.74582 98.993739 
L 334.587387 104.622348 
L 335.068283 111.865364 
L 335.188507 112.083527 
L 335.428955 111.821731 
L 335.669402 112.345322 
L 336.030074 113.043444 
L 336.751417 120.417358 
L 336.991865 124.126131 
L 337.112089 124.257029 
L 337.472761 121.595439 
L 337.592984 121.900868 
L 337.713208 121.595439 
L 338.07388 122.075398 
L 338.314328 122.817153 
L 339.035671 129.667475 
L 339.155895 129.711108 
L 339.276119 129.58021 
L 339.396343 129.885638 
L 339.636791 131.020086 
L 339.757014 130.889188 
L 340.117686 129.231149 
L 340.478358 127.311313 
L 340.598582 127.09315 
L 340.839029 127.834905 
L 341.440149 130.627393 
L 341.560373 131.107352 
L 341.800821 133.943472 
L 342.161492 138.001307 
L 342.522164 138.961224 
L 342.762612 138.873959 
L 342.882836 138.699429 
L 343.363731 140.924692 
L 343.483955 140.968325 
L 343.604179 141.273753 
L 343.844627 140.401101 
L 344.205298 132.983555 
L 344.56597 122.59899 
L 344.926642 111.254507 
L 345.647985 98.208352 
L 345.768209 98.033821 
L 345.888433 98.077454 
L 346.12888 99.299167 
L 346.249104 99.735493 
L 346.489552 98.819208 
L 346.850224 99.953657 
L 347.331119 97.553862 
L 347.451343 97.946556 
L 347.571567 97.859291 
L 347.932239 98.557413 
L 348.29291 102.135288 
L 348.653582 108.462019 
L 348.773806 108.505651 
L 348.89403 108.81108 
L 349.254702 111.167241 
L 349.374925 110.949078 
L 349.615373 110.338222 
L 349.735597 110.992711 
L 349.855821 110.076426 
L 350.216493 105.582265 
L 350.336717 105.931326 
L 350.697388 103.83696 
L 350.817612 103.967858 
L 350.937836 104.229654 
L 351.05806 103.967858 
L 351.298508 102.658879 
L 351.418732 102.877043 
L 351.538955 102.789777 
L 352.019851 104.055123 
L 352.140075 104.098756 
L 352.260299 103.357001 
L 352.62097 99.779126 
L 352.861418 98.033821 
L 353.342314 93.670558 
L 353.462538 93.146967 
L 353.582762 93.36513 
L 353.823209 96.768475 
L 354.424329 108.243856 
L 354.664776 110.469119 
L 354.905224 110.992711 
L 355.145672 111.254507 
L 355.265896 111.210874 
L 355.506344 111.734466 
L 355.626568 111.6472 
L 355.867015 110.425487 
L 355.987239 110.120058 
L 356.227687 110.64365 
L 356.347911 111.079976 
L 356.708583 110.730915 
L 356.828806 110.992711 
L 357.069254 110.730915 
L 357.189478 110.64365 
L 357.670374 113.436138 
L 358.271493 112.432588 
L 358.511941 110.774548 
L 358.872613 106.280387 
L 359.233284 98.731943 
L 359.593956 101.00084 
L 359.834404 98.51378 
L 359.954628 98.731943 
L 360.916419 103.706062 
L 361.036643 102.964308 
L 361.637762 96.02672 
L 362.118658 94.674109 
L 362.238881 94.805007 
L 362.359105 94.674109 
L 362.599553 95.721292 
L 362.840001 95.546761 
L 363.200672 93.1906 
L 363.44112 91.837988 
L 363.922016 94.19415 
L 364.04224 93.36513 
L 364.402911 88.827337 
L 364.523135 88.783704 
L 364.643359 88.434643 
L 365.004031 86.253012 
L 365.124255 85.903951 
L 365.244479 86.034849 
L 365.364702 85.860318 
L 365.484926 84.682237 
L 366.086046 75.039427 
L 366.687165 71.374287 
L 366.807389 71.505184 
L 366.927613 71.461552 
L 367.047837 71.636082 
L 367.168061 72.116041 
L 367.408509 75.606651 
L 367.889404 89.569092 
L 368.129852 90.398111 
L 368.250076 91.096233 
L 368.490524 93.1906 
L 368.610747 92.754273 
L 368.971419 86.034849 
L 370.053434 62.647761 
L 370.293882 61.382415 
L 370.774777 54.793889 
L 370.895001 53.877603 
L 371.135449 47.070914 
L 371.496121 35.988227 
L 371.616345 34.112024 
L 371.736568 34.024759 
L 371.977016 38.911613 
L 372.457912 51.128748 
L 372.578136 51.346911 
L 372.818583 49.950667 
L 373.299479 46.547322 
L 373.780375 49.557973 
L 374.020822 54.183032 
L 374.26127 57.630009 
L 374.501718 58.109968 
L 374.621942 58.284499 
L 374.982613 55.622908 
L 375.102837 57.237316 
L 375.343285 66.007473 
L 376.064628 95.677659 
L 376.4253 100.826309 
L 376.906196 107.022142 
L 377.02642 106.803979 
L 377.747763 101.306268 
L 377.867987 101.306268 
L 377.988211 101.088105 
L 378.108435 101.655329 
L 378.228658 101.480799 
L 378.469106 102.048023 
L 378.58933 102.571614 
L 378.709554 102.571614 
L 378.950002 101.960757 
L 379.19045 99.51733 
L 380.032017 81.758852 
L 380.392688 73.643183 
L 380.633136 72.203306 
L 380.75336 72.028776 
L 380.993808 72.683265 
L 381.234256 74.777631 
L 381.354479 74.515836 
L 381.474703 73.468653 
L 381.835375 68.10184 
L 381.955599 67.883676 
L 382.075823 69.192655 
L 383.157838 97.859291 
L 383.278062 99.430065 
L 383.398286 98.862841 
L 383.879181 92.754273 
L 384.119629 92.667008 
L 384.360077 93.583293 
L 384.600524 96.85574 
L 385.321868 110.861813 
L 385.442092 110.381854 
L 385.802763 107.109407 
L 386.043211 106.062224 
L 386.283659 104.447817 
L 386.403883 104.229654 
L 386.644331 105.015041 
L 386.764554 104.66598 
L 386.884778 103.706062 
L 387.606122 91.358029 
L 387.726346 91.139866 
L 387.846569 90.398111 
L 388.087017 91.314397 
L 388.327465 93.321497 
L 388.80836 91.53256 
L 388.928584 91.445295 
L 389.048808 91.008968 
L 389.169032 91.227131 
L 389.289256 92.056151 
L 389.770152 99.299167 
L 389.890375 98.339249 
L 390.251047 91.314397 
L 390.371271 91.314397 
L 390.611719 92.53611 
L 390.731943 93.1906 
L 391.092614 98.731943 
L 391.212838 98.775576 
L 391.333062 97.772025 
L 392.174629 85.205829 
L 392.294853 84.420442 
L 392.535301 84.638605 
L 393.016197 79.097261 
L 393.13642 79.228159 
L 393.376868 84.769503 
L 394.458883 114.483321 
L 394.819555 117.755768 
L 395.060003 116.970381 
L 395.661122 114.570586 
L 395.781346 114.876015 
L 395.90157 115.617769 
L 396.021794 115.443239 
L 396.382465 117.057646 
L 396.502689 116.446789 
L 396.743137 110.381854 
L 397.584704 83.678687 
L 397.825152 80.362607 
L 398.0656 76.697467 
L 398.185824 76.261141 
L 398.306048 76.566569 
L 398.546495 78.224609 
L 398.907167 87.38746 
L 399.62851 104.273287 
L 400.470078 114.396056 
L 400.710525 118.061196 
L 400.950973 117.363074 
L 401.071197 117.144911 
L 401.431869 118.802951 
L 402.153212 114.96328 
L 402.39366 110.81818 
L 402.634108 105.669531 
L 402.874555 104.796878 
L 402.994779 105.102306 
L 403.115003 104.535082 
L 403.355451 105.015041 
L 403.475675 104.622348 
L 403.716123 100.34635 
L 404.076794 91.139866 
L 404.55769 73.59955 
L 404.677914 74.297672 
L 405.038585 78.791833 
L 405.279033 79.271792 
L 405.639705 82.675137 
L 405.759929 82.544239 
L 406.000376 82.544239 
L 406.240824 84.72587 
L 406.841944 98.51378 
L 406.962167 99.473698 
L 407.082391 99.473698 
L 407.322839 96.244883 
L 407.683511 90.354479 
L 407.803735 91.052601 
L 408.88575 108.112958 
L 409.005974 108.15659 
L 409.486869 102.702512 
L 409.607093 103.618797 
L 410.568884 118.322992 
L 410.809332 116.272259 
L 411.290227 112.214425 
L 411.530675 110.774548 
L 412.131795 104.316919 
L 412.492466 98.164719 
L 412.973362 88.21648 
L 413.21381 84.115013 
L 413.334033 84.944033 
L 413.935153 96.637577 
L 414.295825 102.091655 
L 414.656496 106.367653 
L 414.896944 106.498551 
L 415.017168 106.673081 
L 415.498063 110.730915 
L 415.618287 110.600017 
L 415.738511 110.949078 
L 415.858735 111.778098 
L 416.219407 119.588338 
L 416.339631 119.370175 
L 416.700302 114.439688 
L 416.820526 113.30524 
L 417.060974 109.945528 
L 417.181198 109.727365 
L 417.782317 115.355974 
L 418.022765 114.701484 
L 418.263213 113.523403 
L 418.383437 112.607118 
L 418.864332 104.622348 
L 418.984556 104.273287 
L 419.225004 105.800428 
L 419.585676 111.821731 
L 419.7059 112.432588 
L 420.186795 103.880593 
L 420.427243 98.819208 
L 420.547467 98.295617 
L 420.787915 101.480799 
L 421.749706 114.439688 
L 421.990153 114.788749 
L 422.230601 113.392505 
L 422.591273 110.64365 
L 422.711497 110.774548 
L 423.192392 115.486871 
L 423.553064 120.591889 
L 423.793512 121.246378 
L 423.913736 120.417358 
L 424.154183 114.701484 
L 424.875527 92.53611 
L 424.995751 91.837988 
L 425.115974 92.274314 
L 425.236198 92.099784 
L 425.837318 85.162196 
L 426.077766 79.533588 
L 426.919333 56.97552 
L 427.159781 58.459029 
L 427.280004 57.848172 
L 428.482243 42.445855 
L 428.602467 42.533121 
L 429.203587 48.598056 
L 429.564258 53.179481 
L 429.804706 54.619358 
L 429.92493 54.706623 
L 430.405825 50.561524 
L 430.646273 53.179481 
L 431.006945 59.593477 
L 431.247393 62.647761 
L 431.608064 67.27282 
L 431.728288 66.967391 
L 431.848512 67.011024 
L 432.209184 65.003923 
L 432.329408 65.920208 
L 432.930527 74.515836 
L 433.050751 74.995794 
L 433.411423 74.035877 
L 433.531647 74.297672 
L 433.892318 71.548817 
L 434.012542 71.59245 
L 434.25299 76.261141 
L 434.974333 93.321497 
L 435.214781 96.070353 
L 435.335005 95.634027 
L 435.575453 93.801456 
L 435.8159 94.848639 
L 436.056348 96.68121 
L 436.176572 97.990188 
L 436.537244 105.058674 
L 436.657468 105.276837 
L 436.897915 100.389983 
L 437.258587 90.223581 
L 437.378811 89.263663 
L 437.619259 89.612724 
L 437.97993 88.172848 
L 438.100154 88.565541 
L 438.220378 90.04905 
L 438.340602 90.136316 
L 438.58105 86.078481 
L 439.182169 73.643183 
L 439.422617 72.683265 
L 439.663065 73.730448 
L 440.14396 79.751751 
L 440.624856 82.631504 
L 440.865304 83.373259 
L 441.105751 83.853218 
L 441.706871 92.797906 
L 442.187766 104.796878 
L 442.788886 112.083527 
L 443.269781 120.28646 
L 443.630453 123.646173 
L 443.750677 123.515275 
L 444.592244 116.359524 
L 445.07314 114.876015 
L 445.433811 112.519853 
L 445.674259 109.203773 
L 446.034931 100.17182 
L 446.395603 92.754273 
L 446.63605 91.70709 
L 446.756274 92.187049 
L 447.116946 96.593944 
L 447.597841 102.702512 
L 448.198961 107.545734 
L 448.559632 105.625898 
L 448.80008 106.367653 
L 448.920304 106.193122 
L 449.4012 101.219003 
L 449.761871 103.400634 
L 449.882095 102.397084 
L 450.122543 99.037371 
L 450.242767 99.560963 
L 450.843886 111.429037 
L 450.96411 110.905446 
L 451.084334 109.989161 
L 451.324782 103.138838 
L 451.805677 87.692889 
L 451.925901 88.085582 
L 452.647245 99.51733 
L 452.767469 99.386432 
L 452.887692 98.295617 
L 453.368588 89.569092 
L 453.488812 90.834438 
L 453.849484 102.615247 
L 454.089931 107.720264 
L 454.210155 108.723814 
L 454.330379 107.763897 
L 455.171946 92.187049 
L 455.412394 95.066802 
L 456.253961 108.069325 
L 456.374185 108.025692 
L 456.494409 108.15659 
L 456.614633 107.502101 
L 456.734857 107.676631 
L 456.975305 112.388955 
L 457.335976 119.981032 
L 457.4562 120.417358 
L 457.696648 118.802951 
L 458.05732 116.403157 
L 458.538215 111.865364 
L 458.898887 111.298139 
L 459.139335 111.734466 
L 459.259558 111.385405 
L 459.500006 109.247406 
L 459.740454 106.149489 
L 460.101126 98.339249 
L 460.702245 82.980565 
L 460.822469 83.329626 
L 461.062917 85.598523 
L 461.183141 85.423992 
L 461.423588 87.692889 
L 462.144932 95.895822 
L 462.986499 99.648228 
L 463.106723 99.473698 
L 463.467395 97.68476 
L 463.828066 99.168269 
L 463.94829 99.604596 
L 464.068514 100.826309 
L 464.308962 107.15304 
L 464.669633 116.62132 
L 465.030305 121.159113 
L 465.150529 121.595439 
L 465.390977 119.893767 
L 465.631424 115.443239 
L 466.11232 104.535082 
L 466.232544 103.575165 
L 466.352768 103.575165 
L 466.833663 106.367653 
L 467.194335 110.425487 
L 467.434783 111.079976 
L 467.675231 110.250956 
L 467.795454 110.207324 
L 467.915678 110.556385 
L 468.156126 109.291039 
L 469.719037 90.267214 
L 469.959484 89.656357 
L 470.320156 88.87097 
L 470.44038 89.481826 
L 470.560604 89.394561 
L 470.680828 88.740072 
L 471.522395 75.213958 
L 471.762843 74.952162 
L 471.883067 74.210407 
L 472.003291 74.384938 
L 473.085305 85.642155 
L 473.445977 87.605623 
L 473.566201 87.649256 
L 473.686425 87.823787 
L 474.76844 99.299167 
L 475.008888 100.695411 
L 475.129112 100.782676 
L 475.369559 102.00439 
L 475.850455 105.713163 
L 475.970679 105.451367 
L 476.211127 104.622348 
L 476.451574 103.924226 
L 477.052694 97.379332 
L 478.014485 106.454918 
L 478.375157 111.865364 
L 478.615604 114.788749 
L 478.976276 116.446789 
L 479.0965 116.010463 
L 479.336948 111.908996 
L 479.697619 105.145939 
L 479.817843 105.058674 
L 480.058291 105.931326 
L 480.418963 104.927776 
L 480.65941 100.084554 
L 481.621201 62.604129 
L 481.861649 60.553395 
L 482.102097 59.593477 
L 482.222321 59.768008 
L 482.582993 61.46968 
L 482.703216 61.251517 
L 482.82344 60.597028 
L 482.943664 60.771558 
L 483.063888 61.775109 
L 483.42456 69.236288 
L 484.266127 95.241333 
L 484.506575 97.248434 
L 484.747023 98.819208 
L 485.348142 106.803979 
L 485.58859 108.723814 
L 485.708814 108.287488 
L 485.949261 103.706062 
L 486.430157 87.21293 
L 486.670605 85.423992 
L 486.790829 84.900401 
L 487.031276 81.802484 
L 488.353739 47.419975 
L 488.473963 47.812668 
L 488.714411 49.645239 
L 489.075083 54.270297 
L 489.195306 53.790338 
L 489.555978 49.863402 
L 489.91665 44.671119 
L 490.036874 44.932915 
L 490.277321 48.423525 
L 490.517769 56.190133 
L 491.359336 87.649256 
L 492.08068 112.083527 
L 492.321127 115.094178 
L 492.441351 115.181443 
L 492.802023 112.388955 
L 492.922247 112.214425 
L 493.042471 111.690833 
L 493.884038 99.386432 
L 494.845829 74.341305 
L 494.966053 73.075959 
L 495.086277 73.512285 
L 495.206501 73.119592 
L 495.326725 72.028776 
L 496.048068 59.113519 
L 496.528964 53.790338 
L 496.649187 53.48491 
L 496.889635 55.928337 
L 497.731202 69.192655 
L 498.452546 80.929832 
L 498.933441 93.277865 
L 499.173889 95.154068 
L 499.895232 91.968886 
L 500.015456 92.143417 
L 500.376128 93.234232 
L 500.496352 93.626926 
L 500.857023 95.85219 
L 501.097471 97.204801 
L 501.698591 102.266186 
L 502.29971 110.730915 
L 502.540158 112.432588 
L 502.660382 112.47622 
L 502.780606 112.039894 
L 503.141277 108.549284 
L 503.261501 108.854712 
L 503.742397 111.603568 
L 504.343516 115.835932 
L 504.583964 115.443239 
L 504.704188 115.574137 
L 504.944636 114.876015 
L 505.545755 109.160141 
L 505.786203 106.716714 
L 505.906427 107.502101 
L 506.62777 122.686255 
L 506.747994 124.213397 
L 506.988442 129.536577 
L 507.108666 130.103801 
L 507.228889 129.187516 
L 507.469337 126.744089 
L 507.709785 124.824253 
L 508.190681 122.293561 
L 508.431128 121.76997 
L 508.671576 123.078948 
L 508.7918 123.297112 
L 508.912024 122.380826 
L 509.633367 109.770997 
L 509.753591 109.378304 
L 510.114263 106.062224 
L 510.234487 105.844061 
L 510.354711 105.887694 
L 510.595158 106.542183 
L 510.95583 108.636549 
L 511.076054 108.418386 
L 511.196278 107.807529 
L 511.436726 103.880593 
L 512.759188 76.392039 
L 512.879412 76.348406 
L 513.240084 73.555918 
L 513.360308 73.643183 
L 513.480532 74.472203 
L 513.600756 74.472203 
L 513.720979 74.690366 
L 513.961427 73.294122 
L 514.081651 73.42502 
L 514.322099 76.173875 
L 514.562547 78.399139 
L 514.802994 79.882649 
L 515.644562 91.096233 
L 515.764785 91.925253 
L 516.726577 103.66243 
L 517.087248 107.632999 
L 517.327696 109.901895 
L 517.568144 111.254507 
L 517.688368 111.6472 
L 518.169263 109.247406 
L 518.409711 110.032793 
L 518.770383 107.414836 
L 518.890607 108.462019 
L 519.131054 111.778098 
L 519.251278 111.385405 
L 519.491726 108.941978 
L 519.61195 108.592917 
L 519.732174 109.029243 
L 520.092845 106.716714 
L 520.333293 104.404184 
L 520.693965 100.040922 
L 521.295084 96.593944 
L 521.415308 96.550312 
L 521.535532 96.244883 
L 521.77598 96.899373 
L 522.377099 95.372231 
L 522.617547 93.801456 
L 522.737771 93.626926 
L 522.978219 95.546761 
L 523.218667 100.433615 
L 523.699562 111.996261 
L 524.541129 125.522375 
L 524.661353 126.0896 
L 524.901801 126.045967 
L 525.022025 126.176865 
L 525.142249 125.784171 
L 525.382696 123.951601 
L 525.50292 124.213397 
L 526.224264 132.285433 
L 526.344488 132.765391 
L 526.584935 135.077921 
L 526.705159 135.819675 
L 526.825383 135.557879 
L 527.186055 133.419881 
L 527.787174 131.41278 
L 528.869189 118.628421 
L 529.350085 116.708585 
L 530.191652 105.451367 
L 530.311876 105.582265 
L 530.672548 110.905446 
L 530.792771 110.81818 
L 530.912995 111.210874 
L 531.153443 113.392505 
L 531.393891 116.970381 
L 531.514115 117.188544 
L 531.754563 114.745117 
L 531.99501 116.664952 
L 532.716354 124.780621 
L 532.956801 123.035316 
L 533.317473 117.319442 
L 533.678145 110.905446 
L 534.038816 106.105857 
L 535.481503 83.460524 
L 535.721951 81.540688 
L 535.842175 81.715219 
L 536.202846 79.620853 
L 536.32307 79.795383 
L 536.683742 79.708118 
L 536.803966 79.359057 
L 536.92419 79.620853 
L 537.044414 79.315424 
L 537.525309 81.758852 
L 537.645533 81.933382 
L 537.885981 81.671586 
L 538.246652 80.929832 
L 538.607324 82.282443 
L 538.727548 83.024198 
L 538.967996 87.561991 
L 539.569115 101.088105 
L 539.809563 103.182471 
L 539.929787 103.051573 
L 540.290458 99.953657 
L 540.771354 93.452395 
L 541.132026 92.012519 
L 541.25225 92.623375 
L 541.372473 92.36158 
L 541.492697 91.401662 
L 541.853369 85.293094 
L 542.093817 84.594972 
L 542.334265 79.969914 
L 542.574712 75.519386 
L 543.055608 74.42857 
L 543.175832 74.341305 
L 543.296056 74.646733 
L 544.137623 82.762402 
L 544.738742 92.099784 
L 545.460086 112.738016 
L 545.820757 117.755768 
L 546.061205 119.981032 
L 546.181429 119.675604 
L 546.301653 119.850134 
L 546.782548 117.62487 
L 546.902772 116.883116 
L 547.624116 106.716714 
L 548.585907 87.256562 
L 548.706131 86.078481 
L 548.826354 86.427543 
L 548.946578 85.903951 
L 549.187026 87.038399 
L 549.667922 90.441744 
L 549.908369 92.841539 
L 550.028593 92.797906 
L 550.148817 92.53611 
L 550.509489 94.979537 
L 550.749937 94.019619 
L 550.870161 94.237783 
L 551.110608 92.667008 
L 551.591504 87.256562 
L 551.952176 81.540688 
L 552.553295 71.723348 
L 552.673519 71.548817 
L 552.793743 72.203306 
L 552.913967 71.941511 
L 553.274638 69.803512 
L 553.394862 69.10539 
L 553.755534 64.393066 
L 554.116206 66.138371 
L 554.236429 65.78931 
L 554.476877 63.564046 
L 555.077997 62.385966 
L 555.198221 62.865924 
L 555.558892 66.661963 
L 556.039788 74.210407 
L 557.121803 90.790805 
L 557.36225 92.667008 
L 557.722922 90.790805 
L 558.083594 91.663458 
L 558.203818 91.663458 
L 558.444265 90.354479 
L 558.564489 90.179948 
L 559.165609 87.082032 
L 559.406057 86.296645 
L 559.886952 84.55134 
L 560.1274 84.638605 
L 560.488072 84.202279 
L 560.608295 84.071381 
L 560.848743 85.249462 
L 561.329639 89.787255 
L 561.449863 89.918153 
L 561.570087 89.830887 
L 561.810534 88.129215 
L 562.050982 87.605623 
L 562.171206 87.343828 
L 562.29143 86.122114 
L 562.531878 86.427543 
L 562.652102 86.340277 
L 562.892549 85.293094 
L 563.012773 85.467625 
L 563.253221 88.172848 
L 564.094788 98.077454 
L 564.215012 97.466597 
L 564.695908 91.576192 
L 565.056579 89.743622 
L 565.176803 89.307296 
L 565.537475 85.642155 
L 565.898146 87.649256 
L 566.258818 85.685788 
L 566.499266 86.122114 
L 566.739714 87.605623 
L 566.859938 87.169297 
L 567.100385 85.249462 
L 567.220609 85.249462 
L 567.581281 83.984115 
L 567.701505 84.55134 
L 567.941953 86.034849 
L 568.062176 85.991216 
L 568.1824 86.253012 
L 568.422848 88.478276 
L 568.543072 88.434643 
L 568.903744 84.289544 
L 569.144191 84.202279 
L 569.384639 86.471175 
L 569.625087 86.645706 
L 569.745311 86.253012 
L 569.865535 86.55844 
L 569.985759 86.55844 
L 570.226206 84.071381 
L 570.707102 76.479304 
L 570.94755 75.213958 
L 571.067774 75.213958 
L 571.187998 76.042977 
L 571.428445 80.842566 
L 571.909341 94.281415 
L 572.270013 99.866391 
L 572.390236 100.739044 
L 572.630684 100.215452 
L 572.991356 96.899373 
L 573.231804 99.211902 
L 573.832923 106.585816 
L 574.434042 109.683732 
L 574.794714 107.632999 
L 575.155386 105.669531 
L 575.516057 105.713163 
L 575.876729 103.967858 
L 576.117177 104.535082 
L 576.237401 103.531532 
L 576.718296 95.284966 
L 576.958744 96.419414 
L 577.199192 91.881621 
L 577.43964 87.169297 
L 577.680087 84.376809 
L 578.160983 78.879098 
L 578.401431 79.969914 
L 578.641879 80.013546 
L 578.882326 79.664485 
L 579.122774 77.657385 
L 579.363222 77.526487 
L 579.60367 76.653834 
L 579.723894 76.7411 
L 580.325013 82.23881 
L 581.647476 99.081004 
L 581.7677 99.081004 
L 581.887924 98.470147 
L 582.008147 98.470147 
L 582.128371 99.124637 
L 582.368819 103.269736 
L 582.729491 109.989161 
L 583.210386 113.436138 
L 583.33061 113.785199 
L 583.811506 119.588338 
L 583.93173 119.45744 
L 584.292401 121.11548 
L 584.653073 124.518825 
L 584.773297 124.518825 
L 585.254192 126.744089 
L 585.374416 126.351395 
L 585.735088 124.038866 
L 586.456431 130.278332 
L 586.937327 135.165186 
L 587.057551 135.296084 
L 587.177775 134.816125 
L 587.418222 131.58731 
L 588.25979 110.687283 
L 588.380013 109.552834 
L 588.500237 109.509202 
L 588.620461 109.072875 
L 588.860909 106.760346 
L 589.101357 102.571614 
L 589.702476 84.813135 
L 590.183372 65.527515 
L 590.42382 62.080537 
L 590.664267 64.131271 
L 591.024939 76.261141 
L 591.98673 109.6401 
L 592.227178 113.13071 
L 592.587849 115.661402 
L 592.708073 115.7923 
L 592.828297 116.446789 
L 593.429417 127.136783 
L 593.790088 133.332616 
L 594.030536 135.470614 
L 594.15076 134.947023 
L 594.751879 126.002334 
L 596.555238 70.10894 
L 596.675462 69.498084 
L 597.036133 70.894328 
L 597.276581 71.723348 
L 597.396805 71.548817 
L 597.517029 71.679715 
L 597.637253 72.988694 
L 598.599044 91.445295 
L 598.959716 95.328598 
L 599.200163 96.724842 
L 599.320387 97.292066 
L 599.440611 97.073903 
L 599.560835 97.204801 
L 599.921507 96.244883 
L 600.282178 97.117536 
L 600.763074 94.150517 
L 601.003522 94.499578 
L 601.123745 94.063252 
L 601.243969 94.106885 
L 601.724865 91.794356 
L 601.845089 91.837988 
L 601.965313 91.53256 
L 602.20576 89.612724 
L 602.927104 80.842566 
L 603.287775 78.486405 
L 603.407999 78.791833 
L 603.768671 81.060729 
L 603.888895 80.973464 
L 604.129343 79.533588 
L 604.850686 73.861346 
L 605.211358 70.76343 
L 605.451805 69.10539 
L 605.572029 69.454451 
L 605.932701 71.59245 
L 606.052925 71.374287 
L 606.173149 72.203306 
L 606.413597 76.7411 
L 607.014716 87.998317 
L 607.495612 93.059702 
L 607.856283 93.539661 
L 608.096731 94.892272 
L 608.337179 96.986638 
L 608.818074 102.571614 
L 608.938298 102.746145 
L 609.058522 102.397084 
L 609.178746 101.655329 
L 609.539418 95.85219 
L 610.260761 80.668036 
L 610.501209 76.91563 
L 611.222552 61.033354 
L 611.463 56.800989 
L 611.703448 56.495561 
L 611.943895 53.004951 
L 612.184343 50.692422 
L 612.304567 51.216013 
L 612.424791 51.128748 
L 612.665239 53.092216 
L 613.02591 60.858824 
L 613.506806 74.384938 
L 613.867478 83.285993 
L 614.709045 105.669531 
L 615.069716 109.509202 
L 615.310164 110.949078 
L 615.430388 110.992711 
L 616.151731 102.135288 
L 616.392179 99.124637 
L 616.873075 92.056151 
L 616.993299 92.317947 
L 617.113522 93.146967 
L 617.233746 93.016069 
L 617.714642 88.085582 
L 617.95509 84.682237 
L 618.195537 81.584321 
L 618.435985 80.40624 
L 618.556209 80.449873 
L 619.277552 84.682237 
L 619.998896 93.103334 
L 620.239344 95.808557 
L 620.600015 98.295617 
L 620.840463 99.081004 
L 620.960687 98.775576 
L 621.080911 99.211902 
L 621.201135 99.168269 
L 621.321359 99.822759 
L 621.441582 99.648228 
L 621.802254 97.641127 
L 621.922478 97.553862 
L 622.28315 95.284966 
L 622.643821 91.968886 
L 622.884269 91.096233 
L 623.004493 91.008968 
L 623.124717 90.529009 
L 623.365165 86.55844 
L 623.605612 82.762402 
L 623.84606 83.06783 
L 623.966284 82.326076 
L 624.206732 79.271792 
L 624.44718 78.442772 
L 624.928075 73.817714 
L 625.048299 73.948611 
L 625.288747 73.163224 
L 625.408971 73.337755 
L 625.769642 76.871997 
L 625.889866 77.002895 
L 626.130314 76.566569 
L 626.370762 76.130243 
L 626.490986 75.868447 
L 626.61121 75.91208 
L 626.851657 77.002895 
L 627.212329 81.933382 
L 627.933672 94.19415 
L 628.053896 95.110435 
L 628.17412 95.154068 
L 628.414568 94.805007 
L 628.534792 95.110435 
L 629.015687 97.68476 
L 629.256135 99.430065 
L 629.857255 105.233204 
L 629.977478 105.844061 
L 630.33815 108.374753 
L 630.458374 108.680182 
L 630.578598 108.505651 
L 630.698822 108.723814 
L 630.93927 109.421936 
L 631.059493 109.552834 
L 631.179717 108.854712 
L 631.299941 108.898345 
L 631.540389 107.938427 
L 631.780837 104.927776 
L 632.021285 104.229654 
L 632.141508 104.273287 
L 632.261732 103.793328 
L 632.381956 104.66598 
L 632.983076 112.083527 
L 633.1033 112.432588 
L 633.223523 112.127159 
L 633.704419 107.022142 
L 634.305538 104.840511 
L 635.026882 96.85574 
L 635.147106 97.553862 
L 635.387553 100.913574 
L 635.507777 100.869942 
L 635.748225 99.866391 
L 636.108897 101.917125 
L 636.229121 102.178921 
L 636.349344 102.789777 
L 636.469568 102.702512 
L 636.589792 102.440716 
L 636.710016 102.527982 
L 636.83024 102.83341 
L 637.431359 110.076426 
L 637.792031 117.537605 
L 638.032479 119.719236 
L 638.633598 129.623842 
L 638.99427 135.034288 
L 639.114494 134.859757 
L 639.234718 134.467064 
L 639.475166 135.514247 
L 639.715613 133.114452 
L 639.835837 132.067269 
L 640.076285 134.554329 
L 641.038076 153.229093 
L 641.278524 159.99215 
L 641.518972 162.391945 
L 641.639196 162.610108 
L 641.759419 163.700923 
L 641.999867 162.65374 
L 642.240315 160.472109 
L 642.360539 160.559374 
L 642.600987 159.032232 
L 643.32233 143.237222 
L 644.284121 111.559935 
L 645.005464 95.721292 
L 645.366136 86.645706 
L 645.48636 85.642155 
L 645.606584 85.72942 
L 645.726808 86.340277 
L 645.967255 88.04195 
L 646.087479 87.21293 
L 646.327927 82.8933 
L 646.688599 73.42502 
L 646.808823 73.59955 
L 647.169494 79.271792 
L 647.409942 80.144444 
L 648.131285 91.968886 
L 648.972853 114.177893 
L 649.093077 115.181443 
L 649.2133 115.006913 
L 649.694196 110.076426 
L 649.934644 108.15659 
L 650.535763 97.292066 
L 652.218898 56.059235 
L 652.339121 54.662991 
L 652.459345 54.575725 
L 652.699793 56.626459 
L 653.060465 59.46258 
L 653.421136 61.382415 
L 653.54136 61.644211 
L 654.262704 70.588899 
L 655.70539 96.332149 
L 655.945838 97.597495 
L 656.066062 97.990188 
L 656.30651 97.335699 
L 656.787405 90.354479 
L 657.148077 85.816686 
L 657.268301 85.423992 
L 657.388525 85.511257 
L 657.628973 84.769503 
L 657.749196 85.074931 
L 657.989644 88.696439 
L 658.831211 113.523403 
L 659.191883 126.656824 
L 659.672779 130.976454 
L 659.913226 131.674576 
L 660.153674 130.932821 
L 660.273898 130.365597 
L 660.754794 124.824253 
L 661.596361 110.730915 
L 661.957032 102.877043 
L 662.317704 97.204801 
L 663.279495 80.40624 
L 663.760391 70.414369 
L 664.241286 66.836493 
L 664.36151 66.749228 
L 664.842406 65.178454 
L 664.96263 65.047556 
L 665.082854 64.523964 
L 666.044645 53.004951 
L 666.285092 54.532093 
L 666.52554 53.790338 
L 666.645764 53.921236 
L 666.886212 57.80454 
L 667.607555 80.318975 
L 668.569346 108.331121 
L 669.170466 120.504623 
L 669.410913 121.900868 
L 669.531137 121.290011 
L 670.012033 116.664952 
L 670.252481 115.006913 
L 670.492928 112.432588 
L 670.733376 113.30524 
L 670.8536 113.174342 
L 670.973824 111.996261 
L 671.334496 102.877043 
L 672.416511 69.978042 
L 672.656958 67.098289 
L 672.777182 66.749228 
L 672.897406 67.534615 
L 673.137854 71.505184 
L 673.498526 77.91918 
L 673.738973 80.580771 
L 673.979421 82.587871 
L 674.099645 82.06428 
L 674.580541 78.093711 
L 674.820988 78.050078 
L 675.061436 79.271792 
L 675.422108 86.078481 
L 676.143451 107.240305 
L 676.263675 108.418386 
L 676.504123 105.364102 
L 676.864794 101.219003 
L 677.105242 99.211902 
L 677.465914 101.088105 
L 677.586138 100.826309 
L 677.826586 102.746145 
L 678.187257 107.15304 
L 678.668153 108.418386 
L 678.788377 108.374753 
L 679.149048 105.625898 
L 679.50972 107.807529 
L 679.629944 107.807529 
L 680.231063 106.542183 
L 680.351287 106.673081 
L 680.471511 107.240305 
L 680.832183 111.079976 
L 680.952407 111.429037 
L 681.67375 119.370175 
L 681.793974 119.893767 
L 681.914198 119.893767 
L 682.034422 119.501073 
L 682.635541 113.567036 
L 683.116437 117.144911 
L 683.356884 116.272259 
L 683.597332 115.268708 
L 683.717556 115.486871 
L 683.83778 115.399606 
L 683.958004 115.748667 
L 684.318675 118.061196 
L 684.679347 116.359524 
L 685.040019 117.406707 
L 685.160243 117.45034 
L 685.40069 118.584788 
L 685.520914 118.148462 
L 685.761362 112.345322 
L 686.00181 106.803979 
L 686.362482 104.011491 
L 686.602929 100.477248 
L 686.723153 100.084554 
L 687.204049 104.055123 
L 687.324273 104.404184 
L 687.444497 105.189572 
L 687.925392 111.734466 
L 688.045616 111.341772 
L 688.766959 104.404184 
L 689.007407 101.131737 
L 689.127631 101.00084 
L 689.608527 102.702512 
L 689.72875 102.702512 
L 689.969198 100.826309 
L 690.32987 96.288516 
L 690.810765 87.431093 
L 691.051213 85.860318 
L 691.171437 86.253012 
L 691.411885 87.736521 
L 691.532109 88.172848 
L 691.652333 87.998317 
L 691.89278 86.034849 
L 692.133228 84.55134 
L 692.373676 85.293094 
L 692.4939 85.249462 
L 692.614124 85.336727 
L 692.854571 86.340277 
L 693.095019 90.092683 
L 693.696139 100.17182 
L 693.936586 100.869942 
L 694.177034 101.17537 
L 694.537706 96.943005 
L 694.65793 97.204801 
L 694.898378 100.302718 
L 695.259049 104.66598 
L 695.619721 106.978509 
L 696.22084 102.222553 
L 696.581512 100.651779 
L 696.701736 101.393533 
L 697.062408 105.102306 
L 697.182631 105.495 
L 697.423079 105.189572 
L 697.663527 103.444267 
L 697.903975 99.386432 
L 698.144423 95.503129 
L 698.745542 88.609174 
L 699.466885 72.857796 
L 699.947781 70.414369 
L 700.068005 70.894328 
L 700.308453 73.992244 
L 700.669124 78.311874 
L 700.789348 78.355507 
L 701.270244 75.170325 
L 701.630915 71.941511 
L 701.751139 70.807062 
L 701.871363 70.894328 
L 702.352259 75.693916 
L 702.71293 78.442772 
L 702.953378 79.140894 
L 703.073602 79.271792 
L 703.193826 79.140894 
L 703.434274 77.308324 
L 703.554497 77.264691 
L 703.674721 77.395589 
L 703.794945 78.050078 
L 703.915169 77.788283 
L 704.035393 77.875548 
L 704.275841 77.351956 
L 704.396065 78.137344 
L 704.87696 85.249462 
L 705.237632 82.23881 
L 705.598304 76.784732 
L 706.079199 65.702045 
L 706.199423 66.138371 
L 706.319647 67.098289 
L 706.439871 66.923759 
L 706.920766 58.459029 
L 707.161214 56.757357 
L 707.401662 52.045033 
L 707.64211 47.638138 
L 707.762334 47.638138 
L 708.483677 54.48846 
L 708.603901 54.401195 
L 708.844349 50.343361 
L 709.20502 42.707651 
L 709.325244 41.442305 
L 709.445468 41.52957 
L 709.565692 42.620386 
L 710.407259 56.321031 
L 710.647707 58.63356 
L 710.888155 60.422497 
L 711.849946 83.329626 
L 712.330841 89.0455 
L 712.691513 90.485377 
L 713.172408 97.248434 
L 713.893752 106.673081 
L 714.013976 106.847612 
L 714.254423 108.200223 
L 714.374647 108.462019 
L 714.494871 108.243856 
L 714.855543 107.065775 
L 715.095991 104.840511 
L 715.216215 104.753245 
L 716.057782 115.96683 
L 716.29823 115.050545 
L 716.899349 108.98561 
L 717.019573 108.898345 
L 717.260021 111.298139 
L 717.740916 117.406707 
L 717.86114 116.79585 
L 718.221812 111.603568 
L 718.462259 112.781649 
L 718.582483 112.519853 
L 718.943155 109.247406 
L 719.063379 109.683732 
L 719.303827 112.563486 
L 719.424051 112.912547 
L 719.784722 110.64365 
L 719.904946 110.338222 
L 720.265618 112.170792 
L 721.107185 117.406707 
L 721.347633 117.493972 
L 721.708304 119.064747 
L 721.828528 118.802951 
L 722.068976 119.064747 
L 722.670096 123.689805 
L 722.790319 123.646173 
L 723.271215 119.021114 
L 723.391439 118.45389 
L 723.872334 112.47622 
L 724.233006 110.992711 
L 724.473454 108.462019 
L 725.435245 91.139866 
L 725.675693 92.754273 
L 725.916141 97.946556 
L 726.276812 105.756796 
L 726.51726 106.760346 
L 726.757708 105.32047 
L 726.998155 103.575165 
L 727.118379 103.269736 
L 727.358827 105.451367 
L 727.719499 110.120058 
L 727.959947 110.774548 
L 728.801514 104.535082 
L 728.921738 104.66598 
L 729.402633 106.629448 
L 729.522857 106.542183 
L 729.883529 105.364102 
L 730.123977 103.269736 
L 730.84532 91.052601 
L 730.965544 91.488927 
L 731.326215 95.895822 
L 731.686887 93.146967 
L 731.927335 94.717741 
L 732.047559 94.717741 
L 732.288007 92.36158 
L 732.528454 90.04905 
L 732.648678 89.787255 
L 732.768902 90.04905 
L 733.00935 88.129215 
L 733.249798 86.296645 
L 733.370022 85.685788 
L 733.490245 84.464074 
L 734.211589 69.498084 
L 734.331813 70.283471 
L 734.57226 74.690366 
L 735.17338 84.682237 
L 735.413828 84.464074 
L 735.654275 86.38391 
L 736.375619 98.557413 
L 736.495843 99.3428 
L 736.73629 97.990188 
L 737.096962 95.241333 
L 737.217186 95.808557 
L 738.178977 107.938427 
L 738.299201 108.069325 
L 739.020544 104.840511 
L 739.260992 103.400634 
L 739.381216 103.444267 
L 739.741888 105.713163 
L 739.862111 104.753245 
L 740.102559 99.473698 
L 740.463231 90.921703 
L 740.823903 85.423992 
L 741.304798 76.653834 
L 741.545246 74.952162 
L 742.026141 69.367186 
L 742.386813 63.825842 
L 742.627261 66.574698 
L 742.747485 66.356535 
L 742.987933 61.906007 
L 743.108156 61.993272 
L 744.069947 74.297672 
L 744.430619 79.184527 
L 744.791291 85.947584 
L 745.753082 97.117536 
L 745.873306 97.248434 
L 745.99353 95.983088 
L 746.474425 87.780154 
L 746.594649 87.038399 
L 746.714873 87.082032 
L 746.955321 87.605623 
L 747.075545 87.21293 
L 747.315992 82.675137 
L 747.676664 76.217508 
L 747.796888 75.91208 
L 747.917112 76.392039 
L 748.15756 80.275342 
L 748.878903 97.728393 
L 749.119351 100.651779 
L 749.359799 100.040922 
L 749.600246 97.422964 
L 749.72047 97.379332 
L 749.840694 97.553862 
L 750.201366 99.299167 
L 750.562037 104.098756 
L 750.922709 106.018592 
L 751.283381 108.767447 
L 751.644052 111.6472 
L 751.764276 111.996261 
L 751.8845 111.952629 
L 752.004724 111.47267 
L 752.245172 109.072875 
L 752.365396 108.462019 
L 752.605843 109.072875 
L 752.726067 108.898345 
L 752.846291 109.072875 
L 752.966515 109.81463 
L 753.447411 115.050545 
L 753.687858 117.62487 
L 754.04853 114.177893 
L 754.409202 119.064747 
L 755.130545 110.949078 
L 755.250769 110.120058 
L 755.731665 111.47267 
L 755.972112 112.388955 
L 756.21256 109.203773 
L 756.453008 106.062224 
L 756.693456 103.400634 
L 757.174351 97.553862 
L 757.414799 95.066802 
L 757.535023 94.892272 
L 758.015918 99.735493 
L 758.256366 99.51733 
L 758.37659 100.215452 
L 758.857486 104.840511 
L 759.097933 107.632999 
L 759.819277 119.893767 
L 760.179948 122.249929 
L 760.300172 122.817153 
L 760.660844 125.609641 
L 760.901292 126.045967 
L 761.141739 127.180415 
L 761.622635 131.936372 
L 761.742859 131.761841 
L 761.863083 132.110902 
L 762.103531 130.801923 
L 762.464202 126.133232 
L 762.584426 126.438661 
L 762.824874 128.445761 
L 762.945098 128.576659 
L 763.185546 127.878537 
L 763.666441 122.380826 
L 763.906889 118.148462 
L 764.147337 114.483321 
L 764.508008 112.47622 
L 764.748456 111.690833 
L 764.86868 111.559935 
L 764.988904 112.258057 
L 765.349576 115.443239 
L 765.590023 113.654301 
L 765.830471 108.81108 
L 766.191143 97.859291 
L 766.311367 96.768475 
L 766.912486 99.604596 
L 767.152934 106.149489 
L 767.513606 116.62132 
L 767.874277 119.501073 
L 767.994501 119.806501 
L 768.114725 119.806501 
L 768.234949 119.326543 
L 768.355173 119.370175 
L 768.475397 119.064747 
L 768.595621 119.326543 
L 768.715844 119.28291 
L 769.557412 108.680182 
L 770.158531 96.157618 
L 770.639427 89.569092 
L 770.75965 89.263663 
L 771.000098 90.310846 
L 771.240546 91.576192 
L 771.36077 91.314397 
L 771.480994 91.53256 
L 771.601218 92.056151 
L 772.082113 95.546761 
L 772.322561 96.419414 
L 772.442785 96.288516 
L 772.563009 96.463047 
L 772.683233 96.113985 
L 772.803457 96.201251 
L 772.92368 96.637577 
L 773.284352 99.691861 
L 773.645024 102.397084 
L 773.765248 102.266186 
L 774.246143 98.426515 
L 774.727039 89.0455 
L 774.967487 85.773053 
L 775.08771 85.423992 
L 775.207934 85.55489 
L 775.328158 85.074931 
L 775.568606 85.249462 
L 775.809054 85.947584 
L 775.929278 85.249462 
L 776.770845 75.039427 
L 777.371964 81.758852 
L 777.492188 82.762402 
L 777.612412 82.718769 
L 777.85286 81.017097 
L 777.973084 81.758852 
L 778.213531 84.420442 
L 778.333755 83.940483 
L 778.574203 80.973464 
L 778.694427 81.104362 
L 778.934875 81.715219 
L 779.776442 70.894328 
L 780.01689 67.970942 
L 780.377561 65.78931 
L 780.738233 60.378865 
L 781.219129 58.502662 
L 781.339353 58.63356 
L 781.459576 59.549845 
L 781.700024 64.567597 
L 781.940472 70.021675 
L 782.301144 72.508735 
L 782.902263 80.188077 
L 783.262935 84.071381 
L 783.503383 89.350928 
L 783.984278 102.178921 
L 784.224726 104.098756 
L 784.585398 101.17537 
L 784.705621 101.306268 
L 784.946069 103.66243 
L 785.547189 111.559935 
L 785.667413 111.036344 
L 786.50898 96.68121 
L 786.629204 97.422964 
L 787.350547 108.81108 
L 787.470771 108.767447 
L 787.711219 106.978509 
L 788.312338 97.117536 
L 788.432562 96.724842 
L 788.67301 97.815658 
L 788.913457 97.292066 
L 789.033681 97.859291 
L 789.394353 101.17537 
L 789.634801 99.037371 
L 789.755025 99.168269 
L 789.995472 101.524431 
L 790.115696 101.480799 
L 790.23592 101.262635 
L 790.356144 100.651779 
L 790.476368 101.00084 
L 790.716816 102.527982 
L 790.83704 101.917125 
L 791.919055 91.052601 
L 792.039279 90.70354 
L 792.159502 90.921703 
L 792.39995 89.001867 
L 792.640398 86.732971 
L 793.00107 87.561991 
L 793.361741 85.72942 
L 793.962861 80.711668 
L 794.203308 82.675137 
L 794.924652 87.561991 
L 795.044876 87.867419 
L 795.285323 91.794356 
L 796.006667 102.571614 
L 796.126891 103.182471 
L 796.247115 102.353451 
L 796.607786 96.244883 
L 797.088682 82.413341 
L 797.208906 82.282443 
L 797.32913 82.849667 
L 797.810025 88.129215 
L 798.290921 86.340277 
L 798.531368 82.06428 
L 798.89204 73.774081 
L 799.012264 73.512285 
L 799.132488 73.555918 
L 799.372936 75.126692 
L 799.49316 75.170325 
L 799.613383 74.603101 
L 799.974055 71.810613 
L 800.094279 71.505184 
L 800.695398 65.963841 
L 800.935846 71.679715 
L 801.176294 77.439222 
L 801.296518 77.395589 
L 801.416742 76.653834 
L 801.536966 76.653834 
L 801.777413 75.432121 
L 802.138085 72.028776 
L 802.258309 72.901428 
L 803.460548 98.601045 
L 803.580772 99.168269 
L 803.700996 98.906474 
L 804.181891 95.415863 
L 804.662787 97.772025 
L 804.783011 97.728393 
L 805.38413 92.056151 
L 805.865026 86.645706 
L 806.225697 82.587871 
L 806.345921 82.675137 
L 806.466145 83.504157 
L 806.706593 86.732971 
L 806.826817 86.820236 
L 807.427936 82.936932 
L 807.54816 82.980565 
L 807.668384 83.678687 
L 808.029056 87.518358 
L 808.269503 88.434643 
L 808.389727 88.565541 
L 808.630175 86.689338 
L 809.351518 71.505184 
L 809.471742 72.028776 
L 809.71219 73.468653 
L 809.832414 73.643183 
L 809.952638 74.384938 
L 810.313309 79.097261 
L 810.433533 79.533588 
L 810.553757 80.798934 
L 810.794205 80.668036 
L 811.2751 76.435671 
L 811.395324 76.697467 
L 811.635772 78.57367 
L 811.996444 82.326076 
L 812.236892 81.846117 
L 812.477339 83.591422 
L 812.597563 83.329626 
L 812.958235 78.486405 
L 813.078459 78.704568 
L 813.078459 78.704568 
" clip-path="url(#pb687d7645f)" style="fill: none; stroke: #1f77b4; stroke-width: 0.5; stroke-linecap: square"/>
   </g>
   <g id="patch_3">
    <path d="M 55.667969 170.433438 
L 55.667969 22.318125 
" style="fill: none; stroke: #000000; stroke-width: 0.8; stroke-linejoin: miter; stroke-linecap: square"/>
   </g>
   <g id="patch_4">
    <path d="M 849.145625 170.433438 
L 849.145625 22.318125 
" style="fill: none; stroke: #000000; stroke-width: 0.8; stroke-linejoin: miter; stroke-linecap: square"/>
   </g>
   <g id="patch_5">
    <path d="M 55.667969 170.433438 
L 849.145625 170.433438 
" style="fill: none; stroke: #000000; stroke-width: 0.8; stroke-linejoin: miter; stroke-linecap: square"/>
   </g>
   <g id="patch_6">
    <path d="M 55.667969 22.318125 
L 849.145625 22.318125 
" style="fill: none; stroke: #000000; stroke-width: 0.8; stroke-linejoin: miter; stroke-linecap: square"/>
   </g>
   <g id="text_13">
    <!-- Channel CZ - first 30 s (zoomed) -->
    <g transform="translate(354.865547 16.318125) scale(0.12 -0.12)">
     <defs>
      <path id="DejaVuSans-26" d="M 4122 4306 
L 4122 3641 
Q 3803 3938 3442 4084 
Q 3081 4231 2675 4231 
Q 1875 4231 1450 3742 
Q 1025 3253 1025 2328 
Q 1025 1406 1450 917 
Q 1875 428 2675 428 
Q 3081 428 3442 575 
Q 3803 722 4122 1019 
L 4122 359 
Q 3791 134 3420 21 
Q 3050 -91 2638 -91 
Q 1578 -91 968 557 
Q 359 1206 359 2328 
Q 359 3453 968 4101 
Q 1578 4750 2638 4750 
Q 3056 4750 3426 4639 
Q 3797 4528 4122 4306 
z
" transform="scale(0.015625)"/>
      <path id="DejaVuSans-4b" d="M 3513 2113 
L 3513 0 
L 2938 0 
L 2938 2094 
Q 2938 2591 2744 2837 
Q 2550 3084 2163 3084 
Q 1697 3084 1428 2787 
Q 1159 2491 1159 1978 
L 1159 0 
L 581 0 
L 581 4863 
L 1159 4863 
L 1159 2956 
Q 1366 3272 1645 3428 
Q 1925 3584 2291 3584 
Q 2894 3584 3203 3211 
Q 3513 2838 3513 2113 
z
" transform="scale(0.015625)"/>
      <path id="DejaVuSans-44" d="M 2194 1759 
Q 1497 1759 1228 1600 
Q 959 1441 959 1056 
Q 959 750 1161 570 
Q 1363 391 1709 391 
Q 2188 391 2477 730 
Q 2766 1069 2766 1631 
L 2766 1759 
L 2194 1759 
z
M 3341 1997 
L 3341 0 
L 2766 0 
L 2766 531 
Q 2569 213 2275 61 
Q 1981 -91 1556 -91 
Q 1019 -91 701 211 
Q 384 513 384 1019 
Q 384 1609 779 1909 
Q 1175 2209 1959 2209 
L 2766 2209 
L 2766 2266 
Q 2766 2663 2505 2880 
Q 2244 3097 1772 3097 
Q 1472 3097 1187 3025 
Q 903 2953 641 2809 
L 641 3341 
Q 956 3463 1253 3523 
Q 1550 3584 1831 3584 
Q 2591 3584 2966 3190 
Q 3341 2797 3341 1997 
z
" transform="scale(0.015625)"/>
      <path id="DejaVuSans-51" d="M 3513 2113 
L 3513 0 
L 2938 0 
L 2938 2094 
Q 2938 2591 2744 2837 
Q 2550 3084 2163 3084 
Q 1697 3084 1428 2787 
Q 1159 2491 1159 1978 
L 1159 0 
L 581 0 
L 581 3500 
L 1159 3500 
L 1159 2956 
Q 1366 3272 1645 3428 
Q 1925 3584 2291 3584 
Q 2894 3584 3203 3211 
Q 3513 2838 3513 2113 
z
" transform="scale(0.015625)"/>
      <path id="DejaVuSans-3d" d="M 359 4666 
L 4025 4666 
L 4025 4184 
L 1075 531 
L 4097 531 
L 4097 0 
L 288 0 
L 288 481 
L 3238 4134 
L 359 4134 
L 359 4666 
z
" transform="scale(0.015625)"/>
      <path id="DejaVuSans-10" d="M 313 2009 
L 1997 2009 
L 1997 1497 
L 313 1497 
L 313 2009 
z
" transform="scale(0.015625)"/>
      <path id="DejaVuSans-13af" d="M 3431 3500 
L 3431 0 
L 2853 0 
L 2853 3053 
L 1275 3053 
L 1275 0 
L 697 0 
L 697 3053 
L 147 3053 
L 147 3500 
L 697 3500 
L 697 3744 
Q 697 4316 967 4589 
Q 1238 4863 1797 4863 
L 2375 4863 
L 2375 4384 
L 1825 4384 
Q 1516 4384 1395 4259 
Q 1275 4134 1275 3809 
L 1275 3500 
L 3431 3500 
z
M 2853 4856 
L 3431 4856 
L 3431 4128 
L 2853 4128 
L 2853 4856 
z
" transform="scale(0.015625)"/>
      <path id="DejaVuSans-55" d="M 2631 2963 
Q 2534 3019 2420 3045 
Q 2306 3072 2169 3072 
Q 1681 3072 1420 2755 
Q 1159 2438 1159 1844 
L 1159 0 
L 581 0 
L 581 3500 
L 1159 3500 
L 1159 2956 
Q 1341 3275 1631 3429 
Q 1922 3584 2338 3584 
Q 2397 3584 2469 3576 
Q 2541 3569 2628 3553 
L 2631 2963 
z
" transform="scale(0.015625)"/>
      <path id="DejaVuSans-5d" d="M 353 3500 
L 3084 3500 
L 3084 2975 
L 922 459 
L 3084 459 
L 3084 0 
L 275 0 
L 275 525 
L 2438 3041 
L 353 3041 
L 353 3500 
z
" transform="scale(0.015625)"/>
      <path id="DejaVuSans-52" d="M 1959 3097 
Q 1497 3097 1228 2736 
Q 959 2375 959 1747 
Q 959 1119 1226 758 
Q 1494 397 1959 397 
Q 2419 397 2687 759 
Q 2956 1122 2956 1747 
Q 2956 2369 2687 2733 
Q 2419 3097 1959 3097 
z
M 1959 3584 
Q 2709 3584 3137 3096 
Q 3566 2609 3566 1747 
Q 3566 888 3137 398 
Q 2709 -91 1959 -91 
Q 1206 -91 779 398 
Q 353 888 353 1747 
Q 353 2609 779 3096 
Q 1206 3584 1959 3584 
z
" transform="scale(0.015625)"/>
     </defs>
     <use xlink:href="#DejaVuSans-26"/>
     <use xlink:href="#DejaVuSans-4b" transform="translate(69.828125 0)"/>
     <use xlink:href="#DejaVuSans-44" transform="translate(133.203125 0)"/>
     <use xlink:href="#DejaVuSans-51" transform="translate(194.484375 0)"/>
     <use xlink:href="#DejaVuSans-51" transform="translate(257.859375 0)"/>
     <use xlink:href="#DejaVuSans-48" transform="translate(321.234375 0)"/>
     <use xlink:href="#DejaVuSans-4f" transform="translate(382.765625 0)"/>
     <use xlink:href="#DejaVuSans-3" transform="translate(410.546875 0)"/>
     <use xlink:href="#DejaVuSans-26" transform="translate(442.328125 0)"/>
     <use xlink:href="#DejaVuSans-3d" transform="translate(512.15625 0)"/>
     <use xlink:href="#DejaVuSans-3" transform="translate(580.65625 0)"/>
     <use xlink:href="#DejaVuSans-10" transform="translate(612.4375 0)"/>
     <use xlink:href="#DejaVuSans-3" transform="translate(648.515625 0)"/>
     <use xlink:href="#DejaVuSans-13af" transform="translate(680.296875 0)"/>
     <use xlink:href="#DejaVuSans-55" transform="translate(743.28125 0)"/>
     <use xlink:href="#DejaVuSans-56" transform="translate(784.390625 0)"/>
     <use xlink:href="#DejaVuSans-57" transform="translate(836.484375 0)"/>
     <use xlink:href="#DejaVuSans-3" transform="translate(875.6875 0)"/>
     <use xlink:href="#DejaVuSans-16" transform="translate(907.46875 0)"/>
     <use xlink:href="#DejaVuSans-13" transform="translate(971.09375 0)"/>
     <use xlink:href="#DejaVuSans-3" transform="translate(1034.71875 0)"/>
     <use xlink:href="#DejaVuSans-56" transform="translate(1066.5 0)"/>
     <use xlink:href="#DejaVuSans-3" transform="translate(1118.59375 0)"/>
     <use xlink:href="#DejaVuSans-b" transform="translate(1150.375 0)"/>
     <use xlink:href="#DejaVuSans-5d" transform="translate(1189.390625 0)"/>
     <use xlink:href="#DejaVuSans-52" transform="translate(1241.875 0)"/>
     <use xlink:href="#DejaVuSans-52" transform="translate(1303.0625 0)"/>
     <use xlink:href="#DejaVuSans-50" transform="translate(1364.25 0)"/>
     <use xlink:href="#DejaVuSans-48" transform="translate(1461.65625 0)"/>
     <use xlink:href="#DejaVuSans-47" transform="translate(1523.1875 0)"/>
     <use xlink:href="#DejaVuSans-c" transform="translate(1586.671875 0)"/>
    </g>
   </g>
   <g id="text_14">
    <!-- Figure C.2 -->
    <g transform="translate(55.667969 16.318125) scale(0.09 -0.09)">
     <defs>
      <path id="DejaVuSans-Oblique-29" d="M 1081 4666 
L 3756 4666 
L 3653 4134 
L 1606 4134 
L 1338 2759 
L 3188 2759 
L 3084 2228 
L 1234 2228 
L 800 0 
L 172 0 
L 1081 4666 
z
" transform="scale(0.015625)"/>
      <path id="DejaVuSans-Oblique-4c" d="M 1172 4863 
L 1747 4863 
L 1606 4134 
L 1031 4134 
L 1172 4863 
z
M 909 3500 
L 1484 3500 
L 800 0 
L 225 0 
L 909 3500 
z
" transform="scale(0.015625)"/>
      <path id="DejaVuSans-Oblique-4a" d="M 3816 3500 
L 3219 434 
Q 3047 -456 2561 -893 
Q 2075 -1331 1253 -1331 
Q 950 -1331 690 -1286 
Q 431 -1241 206 -1147 
L 313 -588 
Q 525 -725 762 -790 
Q 1000 -856 1269 -856 
Q 1816 -856 2167 -557 
Q 2519 -259 2631 300 
L 2681 563 
Q 2441 288 2122 144 
Q 1803 0 1434 0 
Q 903 0 598 351 
Q 294 703 294 1319 
Q 294 1803 478 2267 
Q 663 2731 997 3091 
Q 1219 3328 1514 3456 
Q 1809 3584 2131 3584 
Q 2484 3584 2746 3420 
Q 3009 3256 3138 2956 
L 3238 3500 
L 3816 3500 
z
M 2950 2216 
Q 2950 2641 2750 2872 
Q 2550 3103 2181 3103 
Q 1953 3103 1747 3012 
Q 1541 2922 1394 2759 
Q 1156 2491 1023 2127 
Q 891 1763 891 1375 
Q 891 944 1092 712 
Q 1294 481 1672 481 
Q 2219 481 2584 976 
Q 2950 1472 2950 2216 
z
" transform="scale(0.015625)"/>
      <path id="DejaVuSans-Oblique-58" d="M 428 1388 
L 838 3500 
L 1416 3500 
L 1006 1409 
Q 975 1256 961 1147 
Q 947 1038 947 966 
Q 947 700 1109 554 
Q 1272 409 1569 409 
Q 2031 409 2368 721 
Q 2706 1034 2809 1563 
L 3194 3500 
L 3769 3500 
L 3091 0 
L 2516 0 
L 2631 550 
Q 2388 244 2052 76 
Q 1716 -91 1338 -91 
Q 878 -91 622 161 
Q 366 413 366 863 
Q 366 956 381 1097 
Q 397 1238 428 1388 
z
" transform="scale(0.015625)"/>
      <path id="DejaVuSans-Oblique-55" d="M 2853 2969 
Q 2766 3016 2653 3041 
Q 2541 3066 2413 3066 
Q 1953 3066 1609 2717 
Q 1266 2369 1153 1784 
L 800 0 
L 225 0 
L 909 3500 
L 1484 3500 
L 1375 2956 
Q 1603 3259 1920 3421 
Q 2238 3584 2597 3584 
Q 2691 3584 2781 3573 
Q 2872 3563 2963 3538 
L 2853 2969 
z
" transform="scale(0.015625)"/>
      <path id="DejaVuSans-Oblique-48" d="M 3078 2063 
Q 3088 2113 3092 2166 
Q 3097 2219 3097 2272 
Q 3097 2653 2873 2875 
Q 2650 3097 2266 3097 
Q 1838 3097 1509 2826 
Q 1181 2556 1013 2059 
L 3078 2063 
z
M 3578 1613 
L 903 1613 
Q 884 1494 878 1425 
Q 872 1356 872 1306 
Q 872 872 1139 634 
Q 1406 397 1894 397 
Q 2269 397 2603 481 
Q 2938 566 3225 728 
L 3116 159 
Q 2806 34 2476 -28 
Q 2147 -91 1806 -91 
Q 1078 -91 686 257 
Q 294 606 294 1247 
Q 294 1794 489 2264 
Q 684 2734 1063 3103 
Q 1306 3334 1642 3459 
Q 1978 3584 2356 3584 
Q 2950 3584 3301 3228 
Q 3653 2872 3653 2272 
Q 3653 2128 3634 1964 
Q 3616 1800 3578 1613 
z
" transform="scale(0.015625)"/>
      <path id="DejaVuSans-Oblique-3" transform="scale(0.015625)"/>
      <path id="DejaVuSans-Oblique-26" d="M 4447 4306 
L 4319 3641 
Q 4019 3944 3683 4091 
Q 3347 4238 2956 4238 
Q 2422 4238 2017 3981 
Q 1613 3725 1319 3200 
Q 1131 2863 1032 2486 
Q 934 2109 934 1728 
Q 934 1091 1264 756 
Q 1594 422 2222 422 
Q 2656 422 3056 561 
Q 3456 700 3834 978 
L 3688 231 
Q 3316 72 2936 -9 
Q 2556 -91 2175 -91 
Q 1278 -91 773 396 
Q 269 884 269 1753 
Q 269 2309 461 2846 
Q 653 3384 1013 3828 
Q 1394 4300 1883 4525 
Q 2372 4750 3022 4750 
Q 3422 4750 3780 4639 
Q 4138 4528 4447 4306 
z
" transform="scale(0.015625)"/>
      <path id="DejaVuSans-Oblique-11" d="M 525 794 
L 1184 794 
L 1031 0 
L 372 0 
L 525 794 
z
" transform="scale(0.015625)"/>
      <path id="DejaVuSans-Oblique-15" d="M 2950 2253 
L 934 525 
L 3163 525 
L 3053 0 
L 25 0 
L 128 531 
L 2234 2338 
Q 2656 2703 2832 2979 
Q 3009 3256 3009 3547 
Q 3009 3850 2796 4040 
Q 2584 4231 2241 4231 
Q 1944 4231 1581 4125 
Q 1219 4019 806 3816 
L 922 4441 
Q 1309 4594 1662 4672 
Q 2016 4750 2316 4750 
Q 2928 4750 3301 4425 
Q 3675 4100 3675 3572 
Q 3675 3216 3497 2892 
Q 3319 2569 2950 2253 
z
" transform="scale(0.015625)"/>
     </defs>
     <use xlink:href="#DejaVuSans-Oblique-29"/>
     <use xlink:href="#DejaVuSans-Oblique-4c" transform="translate(57.515625 0)"/>
     <use xlink:href="#DejaVuSans-Oblique-4a" transform="translate(85.296875 0)"/>
     <use xlink:href="#DejaVuSans-Oblique-58" transform="translate(148.78125 0)"/>
     <use xlink:href="#DejaVuSans-Oblique-55" transform="translate(212.15625 0)"/>
     <use xlink:href="#DejaVuSans-Oblique-48" transform="translate(253.265625 0)"/>
     <use xlink:href="#DejaVuSans-Oblique-3" transform="translate(314.796875 0)"/>
     <use xlink:href="#DejaVuSans-Oblique-26" transform="translate(346.578125 0)"/>
     <use xlink:href="#DejaVuSans-Oblique-11" transform="translate(416.40625 0)"/>
     <use xlink:href="#DejaVuSans-Oblique-15" transform="translate(448.1875 0)"/>
    </g>
   </g>
  </g>
 </g>
 <defs>
  <clipPath id="pb687d7645f">
   <rect x="55.667969" y="22.318125" width="793.477656" height="148.115313"/>
  </clipPath>
 </defs>
</svg>
