<?xml version="1.0" encoding="utf-8" standalone="no"?>
<!DOCTYPE svg PUBLIC "-//W3C//DTD SVG 1.1//EN"
  "http://www.w3.org/Graphics/SVG/1.1/DTD/svg11.dtd">
<svg xmlns:xlink="http://www.w3.org/1999/xlink" width="856.130156pt" height="424.633437pt" viewBox="0 0 856.130156 424.633437" xmlns="http://www.w3.org/2000/svg" version="1.1">
 <metadata>
  <rdf:RDF xmlns:dc="http://purl.org/dc/elements/1.1/" xmlns:cc="http://creativecommons.org/ns#" xmlns:rdf="http://www.w3.org/1999/02/22-rdf-syntax-ns#">
   <cc:Work>
    <dc:type rdf:resource="http://purl.org/dc/dcmitype/StillImage"/>
    <dc:date>2026-06-21T15:32:56.609874</dc:date>
    <dc:format>image/svg+xml</dc:format>
    <dc:creator>
     <cc:Agent>
      <dc:title>Matplotlib v3.11.0, https://matplotlib.org/</dc:title>
     </cc:Agent>
    </dc:creator>
   </cc:Work>
  </rdf:RDF>
 </metadata>
 <defs>
  <style type="text/css">*{stroke-linejoin: round; stroke-linecap: butt}</style>
 </defs>
 <g id="figure_1">
  <g id="patch_1">
   <path d="M 0 424.633437 
L 856.130156 424.633437 
L 856.130156 0 
L 0 0 
z
" style="fill: #ffffff"/>
  </g>
  <g id="axes_1">
   <g id="patch_2">
    <path d="M 53.65 197.225781 
L 842.567656 197.225781 
L 842.567656 22.318125 
L 53.65 22.318125 
z
" style="fill: #ffffff"/>
   </g>
   <g id="matplotlib.axis_1">
    <g id="xtick_1">
     <g id="line2d_1">
      <path d="M 53.65 197.225781 
L 53.65 22.318125 
" clip-path="url(#p9d14b349cc)" style="fill: none; stroke: #b0b0b0; stroke-opacity: 0.3; stroke-width: 0.8; stroke-linecap: square"/>
     </g>
     <g id="line2d_2">
      <defs>
       <path id="mf4f513536d" d="M 0 0 
L 0 3.5 
" style="stroke: #000000; stroke-width: 0.8"/>
      </defs>
      <g>
       <use xlink:href="#mf4f513536d" x="53.65" y="197.225781" style="stroke: #000000; stroke-width: 0.8"/>
      </g>
     </g>
    </g>
    <g id="xtick_2">
     <g id="line2d_3">
      <path d="M 211.433531 197.225781 
L 211.433531 22.318125 
" clip-path="url(#p9d14b349cc)" style="fill: none; stroke: #b0b0b0; stroke-opacity: 0.3; stroke-width: 0.8; stroke-linecap: square"/>
     </g>
     <g id="line2d_4">
      <g>
       <use xlink:href="#mf4f513536d" x="211.433531" y="197.225781" style="stroke: #000000; stroke-width: 0.8"/>
      </g>
     </g>
    </g>
    <g id="xtick_3">
     <g id="line2d_5">
      <path d="M 369.217062 197.225781 
L 369.217062 22.318125 
" clip-path="url(#p9d14b349cc)" style="fill: none; stroke: #b0b0b0; stroke-opacity: 0.3; stroke-width: 0.8; stroke-linecap: square"/>
     </g>
     <g id="line2d_6">
      <g>
       <use xlink:href="#mf4f513536d" x="369.217062" y="197.225781" style="stroke: #000000; stroke-width: 0.8"/>
      </g>
     </g>
    </g>
    <g id="xtick_4">
     <g id="line2d_7">
      <path d="M 527.000594 197.225781 
L 527.000594 22.318125 
" clip-path="url(#p9d14b349cc)" style="fill: none; stroke: #b0b0b0; stroke-opacity: 0.3; stroke-width: 0.8; stroke-linecap: square"/>
     </g>
     <g id="line2d_8">
      <g>
       <use xlink:href="#mf4f513536d" x="527.000594" y="197.225781" style="stroke: #000000; stroke-width: 0.8"/>
      </g>
     </g>
    </g>
    <g id="xtick_5">
     <g id="line2d_9">
      <path d="M 684.784125 197.225781 
L 684.784125 22.318125 
" clip-path="url(#p9d14b349cc)" style="fill: none; stroke: #b0b0b0; stroke-opacity: 0.3; stroke-width: 0.8; stroke-linecap: square"/>
     </g>
     <g id="line2d_10">
      <g>
       <use xlink:href="#mf4f513536d" x="684.784125" y="197.225781" style="stroke: #000000; stroke-width: 0.8"/>
      </g>
     </g>
    </g>
    <g id="xtick_6">
     <g id="line2d_11">
      <path d="M 842.567656 197.225781 
L 842.567656 22.318125 
" clip-path="url(#p9d14b349cc)" style="fill: none; stroke: #b0b0b0; stroke-opacity: 0.3; stroke-width: 0.8; stroke-linecap: square"/>
     </g>
     <g id="line2d_12">
      <g>
       <use xlink:href="#mf4f513536d" x="842.567656" y="197.225781" style="stroke: #000000; stroke-width: 0.8"/>
      </g>
     </g>
    </g>
   </g>
   <g id="matplotlib.axis_2">
    <g id="ytick_1">
     <g id="line2d_13">
      <path d="M 53.65 189.275656 
L 842.567656 189.275656 
" clip-path="url(#p9d14b349cc)" style="fill: none; stroke: #b0b0b0; stroke-opacity: 0.3; stroke-width: 0.8; stroke-linecap: square"/>
     </g>
     <g id="line2d_14">
      <defs>
       <path id="md7271b41ab" d="M 0 0 
L -3.5 0 
" style="stroke: #000000; stroke-width: 0.8"/>
      </defs>
      <g>
       <use xlink:href="#md7271b41ab" x="53.65" y="189.275656" style="stroke: #000000; stroke-width: 0.8"/>
      </g>
     </g>
     <g id="text_1">
      <!-- 0 -->
      <g transform="translate(40.2875 193.074484) scale(0.1 -0.1)">
       <defs>
        <path id="DejaVuSans-13" d="M 2034 4250 
Q 1547 4250 1301 3770 
Q 1056 3291 1056 2328 
Q 1056 1369 1301 889 
Q 1547 409 2034 409 
Q 2525 409 2770 889 
Q 3016 1369 3016 2328 
Q 3016 3291 2770 3770 
Q 2525 4250 2034 4250 
z
M 2034 4750 
Q 2819 4750 3233 4129 
Q 3647 3509 3647 2328 
Q 3647 1150 3233 529 
Q 2819 -91 2034 -91 
Q 1250 -91 836 529 
Q 422 1150 422 2328 
Q 422 3509 836 4129 
Q 1250 4750 2034 4750 
z
" transform="scale(0.015625)"/>
       </defs>
       <use xlink:href="#DejaVuSans-13"/>
      </g>
     </g>
    </g>
    <g id="ytick_2">
     <g id="line2d_15">
      <path d="M 53.65 164.694037 
L 842.567656 164.694037 
" clip-path="url(#p9d14b349cc)" style="fill: none; stroke: #b0b0b0; stroke-opacity: 0.3; stroke-width: 0.8; stroke-linecap: square"/>
     </g>
     <g id="line2d_16">
      <g>
       <use xlink:href="#md7271b41ab" x="53.65" y="164.694037" style="stroke: #000000; stroke-width: 0.8"/>
      </g>
     </g>
     <g id="text_2">
      <!-- 250 -->
      <g transform="translate(27.5625 168.492865) scale(0.1 -0.1)">
       <defs>
        <path id="DejaVuSans-15" d="M 1228 531 
L 3431 531 
L 3431 0 
L 469 0 
L 469 531 
Q 828 903 1448 1529 
Q 2069 2156 2228 2338 
Q 2531 2678 2651 2914 
Q 2772 3150 2772 3378 
Q 2772 3750 2511 3984 
Q 2250 4219 1831 4219 
Q 1534 4219 1204 4116 
Q 875 4013 500 3803 
L 500 4441 
Q 881 4594 1212 4672 
Q 1544 4750 1819 4750 
Q 2544 4750 2975 4387 
Q 3406 4025 3406 3419 
Q 3406 3131 3298 2873 
Q 3191 2616 2906 2266 
Q 2828 2175 2409 1742 
Q 1991 1309 1228 531 
z
" transform="scale(0.015625)"/>
        <path id="DejaVuSans-18" d="M 691 4666 
L 3169 4666 
L 3169 4134 
L 1269 4134 
L 1269 2991 
Q 1406 3038 1543 3061 
Q 1681 3084 1819 3084 
Q 2600 3084 3056 2656 
Q 3513 2228 3513 1497 
Q 3513 744 3044 326 
Q 2575 -91 1722 -91 
Q 1428 -91 1123 -41 
Q 819 9 494 109 
L 494 744 
Q 775 591 1075 516 
Q 1375 441 1709 441 
Q 2250 441 2565 725 
Q 2881 1009 2881 1497 
Q 2881 1984 2565 2268 
Q 2250 2553 1709 2553 
Q 1456 2553 1204 2497 
Q 953 2441 691 2322 
L 691 4666 
z
" transform="scale(0.015625)"/>
       </defs>
       <use xlink:href="#DejaVuSans-15"/>
       <use xlink:href="#DejaVuSans-18" transform="translate(63.625 0)"/>
       <use xlink:href="#DejaVuSans-13" transform="translate(127.25 0)"/>
      </g>
     </g>
    </g>
    <g id="ytick_3">
     <g id="line2d_17">
      <path d="M 53.65 140.112419 
L 842.567656 140.112419 
" clip-path="url(#p9d14b349cc)" style="fill: none; stroke: #b0b0b0; stroke-opacity: 0.3; stroke-width: 0.8; stroke-linecap: square"/>
     </g>
     <g id="line2d_18">
      <g>
       <use xlink:href="#md7271b41ab" x="53.65" y="140.112419" style="stroke: #000000; stroke-width: 0.8"/>
      </g>
     </g>
     <g id="text_3">
      <!-- 500 -->
      <g transform="translate(27.5625 143.911247) scale(0.1 -0.1)">
       <use xlink:href="#DejaVuSans-18"/>
       <use xlink:href="#DejaVuSans-13" transform="translate(63.625 0)"/>
       <use xlink:href="#DejaVuSans-13" transform="translate(127.25 0)"/>
      </g>
     </g>
    </g>
    <g id="ytick_4">
     <g id="line2d_19">
      <path d="M 53.65 115.5308 
L 842.567656 115.5308 
" clip-path="url(#p9d14b349cc)" style="fill: none; stroke: #b0b0b0; stroke-opacity: 0.3; stroke-width: 0.8; stroke-linecap: square"/>
     </g>
     <g id="line2d_20">
      <g>
       <use xlink:href="#md7271b41ab" x="53.65" y="115.5308" style="stroke: #000000; stroke-width: 0.8"/>
      </g>
     </g>
     <g id="text_4">
      <!-- 750 -->
      <g transform="translate(27.5625 119.329628) scale(0.1 -0.1)">
       <defs>
        <path id="DejaVuSans-1a" d="M 525 4666 
L 3525 4666 
L 3525 4397 
L 1831 0 
L 1172 0 
L 2766 4134 
L 525 4134 
L 525 4666 
z
" transform="scale(0.015625)"/>
       </defs>
       <use xlink:href="#DejaVuSans-1a"/>
       <use xlink:href="#DejaVuSans-18" transform="translate(63.625 0)"/>
       <use xlink:href="#DejaVuSans-13" transform="translate(127.25 0)"/>
      </g>
     </g>
    </g>
    <g id="ytick_5">
     <g id="line2d_21">
      <path d="M 53.65 90.949182 
L 842.567656 90.949182 
" clip-path="url(#p9d14b349cc)" style="fill: none; stroke: #b0b0b0; stroke-opacity: 0.3; stroke-width: 0.8; stroke-linecap: square"/>
     </g>
     <g id="line2d_22">
      <g>
       <use xlink:href="#md7271b41ab" x="53.65" y="90.949182" style="stroke: #000000; stroke-width: 0.8"/>
      </g>
     </g>
     <g id="text_5">
      <!-- 1000 -->
      <g transform="translate(21.2 94.74801) scale(0.1 -0.1)">
       <defs>
        <path id="DejaVuSans-14" d="M 794 531 
L 1825 531 
L 1825 4091 
L 703 3866 
L 703 4441 
L 1819 4666 
L 2450 4666 
L 2450 531 
L 3481 531 
L 3481 0 
L 794 0 
L 794 531 
z
" transform="scale(0.015625)"/>
       </defs>
       <use xlink:href="#DejaVuSans-14"/>
       <use xlink:href="#DejaVuSans-13" transform="translate(63.625 0)"/>
       <use xlink:href="#DejaVuSans-13" transform="translate(127.25 0)"/>
       <use xlink:href="#DejaVuSans-13" transform="translate(190.875 0)"/>
      </g>
     </g>
    </g>
    <g id="ytick_6">
     <g id="line2d_23">
      <path d="M 53.65 66.367563 
L 842.567656 66.367563 
" clip-path="url(#p9d14b349cc)" style="fill: none; stroke: #b0b0b0; stroke-opacity: 0.3; stroke-width: 0.8; stroke-linecap: square"/>
     </g>
     <g id="line2d_24">
      <g>
       <use xlink:href="#md7271b41ab" x="53.65" y="66.367563" style="stroke: #000000; stroke-width: 0.8"/>
      </g>
     </g>
     <g id="text_6">
      <!-- 1250 -->
      <g transform="translate(21.2 70.166391) scale(0.1 -0.1)">
       <use xlink:href="#DejaVuSans-14"/>
       <use xlink:href="#DejaVuSans-15" transform="translate(63.625 0)"/>
       <use xlink:href="#DejaVuSans-18" transform="translate(127.25 0)"/>
       <use xlink:href="#DejaVuSans-13" transform="translate(190.875 0)"/>
      </g>
     </g>
    </g>
    <g id="ytick_7">
     <g id="line2d_25">
      <path d="M 53.65 41.785945 
L 842.567656 41.785945 
" clip-path="url(#p9d14b349cc)" style="fill: none; stroke: #b0b0b0; stroke-opacity: 0.3; stroke-width: 0.8; stroke-linecap: square"/>
     </g>
     <g id="line2d_26">
      <g>
       <use xlink:href="#md7271b41ab" x="53.65" y="41.785945" style="stroke: #000000; stroke-width: 0.8"/>
      </g>
     </g>
     <g id="text_7">
      <!-- 1500 -->
      <g transform="translate(21.2 45.584773) scale(0.1 -0.1)">
       <use xlink:href="#DejaVuSans-14"/>
       <use xlink:href="#DejaVuSans-18" transform="translate(63.625 0)"/>
       <use xlink:href="#DejaVuSans-13" transform="translate(127.25 0)"/>
       <use xlink:href="#DejaVuSans-13" transform="translate(190.875 0)"/>
      </g>
     </g>
    </g>
    <g id="text_8">
     <!-- PSD (µV²/Hz) -->
     <g transform="translate(14.797656 141.976641) rotate(-90) scale(0.1 -0.1)">
      <defs>
       <path id="DejaVuSans-33" d="M 1259 4147 
L 1259 2394 
L 2053 2394 
Q 2494 2394 2734 2622 
Q 2975 2850 2975 3272 
Q 2975 3691 2734 3919 
Q 2494 4147 2053 4147 
L 1259 4147 
z
M 628 4666 
L 2053 4666 
Q 2838 4666 3239 4311 
Q 3641 3956 3641 3272 
Q 3641 2581 3239 2228 
Q 2838 1875 2053 1875 
L 1259 1875 
L 1259 0 
L 628 0 
L 628 4666 
z
" transform="scale(0.015625)"/>
       <path id="DejaVuSans-36" d="M 3425 4513 
L 3425 3897 
Q 3066 4069 2747 4153 
Q 2428 4238 2131 4238 
Q 1616 4238 1336 4038 
Q 1056 3838 1056 3469 
Q 1056 3159 1242 3001 
Q 1428 2844 1947 2747 
L 2328 2669 
Q 3034 2534 3370 2195 
Q 3706 1856 3706 1288 
Q 3706 609 3251 259 
Q 2797 -91 1919 -91 
Q 1588 -91 1214 -16 
Q 841 59 441 206 
L 441 856 
Q 825 641 1194 531 
Q 1563 422 1919 422 
Q 2459 422 2753 634 
Q 3047 847 3047 1241 
Q 3047 1584 2836 1778 
Q 2625 1972 2144 2069 
L 1759 2144 
Q 1053 2284 737 2584 
Q 422 2884 422 3419 
Q 422 4038 858 4394 
Q 1294 4750 2059 4750 
Q 2388 4750 2728 4690 
Q 3069 4631 3425 4513 
z
" transform="scale(0.015625)"/>
       <path id="DejaVuSans-27" d="M 1259 4147 
L 1259 519 
L 2022 519 
Q 2988 519 3436 956 
Q 3884 1394 3884 2338 
Q 3884 3275 3436 3711 
Q 2988 4147 2022 4147 
L 1259 4147 
z
M 628 4666 
L 1925 4666 
Q 3281 4666 3915 4102 
Q 4550 3538 4550 2338 
Q 4550 1131 3912 565 
Q 3275 0 1925 0 
L 628 0 
L 628 4666 
z
" transform="scale(0.015625)"/>
       <path id="DejaVuSans-3" transform="scale(0.015625)"/>
       <path id="DejaVuSans-b" d="M 1984 4856 
Q 1566 4138 1362 3434 
Q 1159 2731 1159 2009 
Q 1159 1288 1364 580 
Q 1569 -128 1984 -844 
L 1484 -844 
Q 1016 -109 783 600 
Q 550 1309 550 2009 
Q 550 2706 781 3412 
Q 1013 4119 1484 4856 
L 1984 4856 
z
" transform="scale(0.015625)"/>
       <path id="DejaVuSans-77" d="M 544 -1331 
L 544 3500 
L 1119 3500 
L 1119 1325 
Q 1119 872 1334 640 
Q 1550 409 1972 409 
Q 2434 409 2667 671 
Q 2900 934 2900 1459 
L 2900 3500 
L 3475 3500 
L 3475 806 
Q 3475 619 3529 530 
Q 3584 441 3700 441 
Q 3728 441 3778 458 
Q 3828 475 3916 513 
L 3916 50 
Q 3788 -22 3673 -56 
Q 3559 -91 3450 -91 
Q 3234 -91 3106 31 
Q 2978 153 2931 403 
Q 2775 156 2548 32 
Q 2322 -91 2016 -91 
Q 1697 -91 1473 31 
Q 1250 153 1119 397 
L 1119 -1331 
L 544 -1331 
z
" transform="scale(0.015625)"/>
       <path id="DejaVuSans-39" d="M 1831 0 
L 50 4666 
L 709 4666 
L 2188 738 
L 3669 4666 
L 4325 4666 
L 2547 0 
L 1831 0 
z
" transform="scale(0.015625)"/>
       <path id="DejaVuSans-74" d="M 838 2444 
L 2163 2444 
L 2163 2088 
L 294 2088 
L 294 2431 
Q 400 2528 597 2703 
Q 1672 3656 1672 3950 
Q 1672 4156 1509 4282 
Q 1347 4409 1081 4409 
Q 919 4409 728 4354 
Q 538 4300 313 4191 
L 313 4575 
Q 553 4663 761 4706 
Q 969 4750 1147 4750 
Q 1600 4750 1872 4544 
Q 2144 4338 2144 4000 
Q 2144 3566 1109 2678 
Q 934 2528 838 2444 
z
" transform="scale(0.015625)"/>
       <path id="DejaVuSans-12" d="M 1625 4666 
L 2156 4666 
L 531 -594 
L 0 -594 
L 1625 4666 
z
" transform="scale(0.015625)"/>
       <path id="DejaVuSans-2b" d="M 628 4666 
L 1259 4666 
L 1259 2753 
L 3553 2753 
L 3553 4666 
L 4184 4666 
L 4184 0 
L 3553 0 
L 3553 2222 
L 1259 2222 
L 1259 0 
L 628 0 
L 628 4666 
z
" transform="scale(0.015625)"/>
       <path id="DejaVuSans-5d" d="M 353 3500 
L 3084 3500 
L 3084 2975 
L 922 459 
L 3084 459 
L 3084 0 
L 275 0 
L 275 525 
L 2438 3041 
L 353 3041 
L 353 3500 
z
" transform="scale(0.015625)"/>
       <path id="DejaVuSans-c" d="M 513 4856 
L 1013 4856 
Q 1481 4119 1714 3412 
Q 1947 2706 1947 2009 
Q 1947 1309 1714 600 
Q 1481 -109 1013 -844 
L 513 -844 
Q 928 -128 1133 580 
Q 1338 1288 1338 2009 
Q 1338 2731 1133 3434 
Q 928 4138 513 4856 
z
" transform="scale(0.015625)"/>
      </defs>
      <use xlink:href="#DejaVuSans-33"/>
      <use xlink:href="#DejaVuSans-36" transform="translate(60.296875 0)"/>
      <use xlink:href="#DejaVuSans-27" transform="translate(123.78125 0)"/>
      <use xlink:href="#DejaVuSans-3" transform="translate(200.78125 0)"/>
      <use xlink:href="#DejaVuSans-b" transform="translate(232.5625 0)"/>
      <use xlink:href="#DejaVuSans-77" transform="translate(271.578125 0)"/>
      <use xlink:href="#DejaVuSans-39" transform="translate(335.203125 0)"/>
      <use xlink:href="#DejaVuSans-74" transform="translate(403.609375 0)"/>
      <use xlink:href="#DejaVuSans-12" transform="translate(443.703125 0)"/>
      <use xlink:href="#DejaVuSans-2b" transform="translate(477.390625 0)"/>
      <use xlink:href="#DejaVuSans-5d" transform="translate(552.59375 0)"/>
      <use xlink:href="#DejaVuSans-c" transform="translate(605.078125 0)"/>
     </g>
    </g>
   </g>
   <g id="line2d_27">
    <path d="M 53.65 174.56193 
L 56.805671 109.541619 
L 59.961341 49.52907 
L 63.117012 30.268473 
L 72.584024 103.918173 
L 75.739694 119.611072 
L 78.895365 127.955569 
L 82.051036 132.123328 
L 85.206706 129.351537 
L 88.362377 141.287266 
L 91.518048 155.986706 
L 94.673718 160.359539 
L 97.829389 162.76542 
L 100.985059 159.823403 
L 104.14073 162.988109 
L 107.296401 167.055258 
L 110.452071 171.611572 
L 113.607742 175.795544 
L 116.763413 178.639068 
L 119.919083 178.969427 
L 123.074754 180.69116 
L 126.230424 182.967424 
L 129.386095 183.975877 
L 132.541766 184.675118 
L 135.697436 185.241729 
L 138.853107 185.939615 
L 142.008778 186.497381 
L 151.475789 187.296595 
L 157.787131 187.685246 
L 164.098472 188.267519 
L 170.409813 188.430957 
L 201.966519 188.850327 
L 230.367555 188.983662 
L 242.990238 188.990429 
L 261.924261 188.978278 
L 315.570662 189.203213 
L 457.57584 189.255098 
L 857.130156 189.27433 
L 857.130156 189.27433 
" clip-path="url(#p9d14b349cc)" style="fill: none; stroke: #2563eb; stroke-width: 0.8; stroke-linecap: square"/>
   </g>
   <g id="line2d_28">
    <path d="M 53.65 170.701913 
L 56.805671 109.370334 
L 59.961341 50.4858 
L 63.117012 31.59063 
L 66.272683 54.401045 
L 69.428353 81.173248 
L 72.584024 104.355047 
L 75.739694 119.998834 
L 78.895365 128.643789 
L 82.051036 132.672758 
L 85.206706 131.100736 
L 88.362377 141.481047 
L 91.518048 155.260194 
L 94.673718 160.616621 
L 97.829389 162.409943 
L 100.985059 160.220706 
L 104.14073 163.03543 
L 110.452071 171.807045 
L 113.607742 175.804659 
L 116.763413 178.449892 
L 119.919083 179.066401 
L 123.074754 180.788842 
L 126.230424 182.923984 
L 129.386095 183.968668 
L 135.697436 185.301506 
L 138.853107 185.99771 
L 142.008778 186.52335 
L 167.254143 188.418048 
L 211.433531 188.940025 
L 261.924261 188.983304 
L 315.570662 189.204581 
L 435.486146 189.253897 
L 751.053208 189.27377 
L 857.130156 189.274457 
L 857.130156 189.274457 
" clip-path="url(#p9d14b349cc)" style="fill: none; stroke: #dc2626; stroke-width: 0.8; stroke-linecap: square"/>
   </g>
   <g id="patch_3">
    <path d="M 53.65 197.225781 
L 53.65 22.318125 
" style="fill: none; stroke: #000000; stroke-width: 0.8; stroke-linejoin: miter; stroke-linecap: square"/>
   </g>
   <g id="patch_4">
    <path d="M 842.567656 197.225781 
L 842.567656 22.318125 
" style="fill: none; stroke: #000000; stroke-width: 0.8; stroke-linejoin: miter; stroke-linecap: square"/>
   </g>
   <g id="patch_5">
    <path d="M 53.65 197.225781 
L 842.567656 197.225781 
" style="fill: none; stroke: #000000; stroke-width: 0.8; stroke-linejoin: miter; stroke-linecap: square"/>
   </g>
   <g id="patch_6">
    <path d="M 53.65 22.318125 
L 842.567656 22.318125 
" style="fill: none; stroke: #000000; stroke-width: 0.8; stroke-linejoin: miter; stroke-linecap: square"/>
   </g>
   <g id="text_9">
    <!-- Figure C.11 - Hann vs Blackman on CZ -->
    <g transform="translate(53.65 16.318125) scale(0.12 -0.12)">
     <defs>
      <path id="DejaVuSans-Oblique-29" d="M 1081 4666 
L 3756 4666 
L 3653 4134 
L 1606 4134 
L 1338 2759 
L 3188 2759 
L 3084 2228 
L 1234 2228 
L 800 0 
L 172 0 
L 1081 4666 
z
" transform="scale(0.015625)"/>
      <path id="DejaVuSans-Oblique-4c" d="M 1172 4863 
L 1747 4863 
L 1606 4134 
L 1031 4134 
L 1172 4863 
z
M 909 3500 
L 1484 3500 
L 800 0 
L 225 0 
L 909 3500 
z
" transform="scale(0.015625)"/>
      <path id="DejaVuSans-Oblique-4a" d="M 3816 3500 
L 3219 434 
Q 3047 -456 2561 -893 
Q 2075 -1331 1253 -1331 
Q 950 -1331 690 -1286 
Q 431 -1241 206 -1147 
L 313 -588 
Q 525 -725 762 -790 
Q 1000 -856 1269 -856 
Q 1816 -856 2167 -557 
Q 2519 -259 2631 300 
L 2681 563 
Q 2441 288 2122 144 
Q 1803 0 1434 0 
Q 903 0 598 351 
Q 294 703 294 1319 
Q 294 1803 478 2267 
Q 663 2731 997 3091 
Q 1219 3328 1514 3456 
Q 1809 3584 2131 3584 
Q 2484 3584 2746 3420 
Q 3009 3256 3138 2956 
L 3238 3500 
L 3816 3500 
z
M 2950 2216 
Q 2950 2641 2750 2872 
Q 2550 3103 2181 3103 
Q 1953 3103 1747 3012 
Q 1541 2922 1394 2759 
Q 1156 2491 1023 2127 
Q 891 1763 891 1375 
Q 891 944 1092 712 
Q 1294 481 1672 481 
Q 2219 481 2584 976 
Q 2950 1472 2950 2216 
z
" transform="scale(0.015625)"/>
      <path id="DejaVuSans-Oblique-58" d="M 428 1388 
L 838 3500 
L 1416 3500 
L 1006 1409 
Q 975 1256 961 1147 
Q 947 1038 947 966 
Q 947 700 1109 554 
Q 1272 409 1569 409 
Q 2031 409 2368 721 
Q 2706 1034 2809 1563 
L 3194 3500 
L 3769 3500 
L 3091 0 
L 2516 0 
L 2631 550 
Q 2388 244 2052 76 
Q 1716 -91 1338 -91 
Q 878 -91 622 161 
Q 366 413 366 863 
Q 366 956 381 1097 
Q 397 1238 428 1388 
z
" transform="scale(0.015625)"/>
      <path id="DejaVuSans-Oblique-55" d="M 2853 2969 
Q 2766 3016 2653 3041 
Q 2541 3066 2413 3066 
Q 1953 3066 1609 2717 
Q 1266 2369 1153 1784 
L 800 0 
L 225 0 
L 909 3500 
L 1484 3500 
L 1375 2956 
Q 1603 3259 1920 3421 
Q 2238 3584 2597 3584 
Q 2691 3584 2781 3573 
Q 2872 3563 2963 3538 
L 2853 2969 
z
" transform="scale(0.015625)"/>
      <path id="DejaVuSans-Oblique-48" d="M 3078 2063 
Q 3088 2113 3092 2166 
Q 3097 2219 3097 2272 
Q 3097 2653 2873 2875 
Q 2650 3097 2266 3097 
Q 1838 3097 1509 2826 
Q 1181 2556 1013 2059 
L 3078 2063 
z
M 3578 1613 
L 903 1613 
Q 884 1494 878 1425 
Q 872 1356 872 1306 
Q 872 872 1139 634 
Q 1406 397 1894 397 
Q 2269 397 2603 481 
Q 2938 566 3225 728 
L 3116 159 
Q 2806 34 2476 -28 
Q 2147 -91 1806 -91 
Q 1078 -91 686 257 
Q 294 606 294 1247 
Q 294 1794 489 2264 
Q 684 2734 1063 3103 
Q 1306 3334 1642 3459 
Q 1978 3584 2356 3584 
Q 2950 3584 3301 3228 
Q 3653 2872 3653 2272 
Q 3653 2128 3634 1964 
Q 3616 1800 3578 1613 
z
" transform="scale(0.015625)"/>
      <path id="DejaVuSans-Oblique-3" transform="scale(0.015625)"/>
      <path id="DejaVuSans-Oblique-26" d="M 4447 4306 
L 4319 3641 
Q 4019 3944 3683 4091 
Q 3347 4238 2956 4238 
Q 2422 4238 2017 3981 
Q 1613 3725 1319 3200 
Q 1131 2863 1032 2486 
Q 934 2109 934 1728 
Q 934 1091 1264 756 
Q 1594 422 2222 422 
Q 2656 422 3056 561 
Q 3456 700 3834 978 
L 3688 231 
Q 3316 72 2936 -9 
Q 2556 -91 2175 -91 
Q 1278 -91 773 396 
Q 269 884 269 1753 
Q 269 2309 461 2846 
Q 653 3384 1013 3828 
Q 1394 4300 1883 4525 
Q 2372 4750 3022 4750 
Q 3422 4750 3780 4639 
Q 4138 4528 4447 4306 
z
" transform="scale(0.015625)"/>
      <path id="DejaVuSans-Oblique-11" d="M 525 794 
L 1184 794 
L 1031 0 
L 372 0 
L 525 794 
z
" transform="scale(0.015625)"/>
      <path id="DejaVuSans-Oblique-14" d="M 416 531 
L 1447 531 
L 2144 4122 
L 978 3897 
L 1088 4441 
L 2247 4666 
L 2881 4666 
L 2075 531 
L 3103 531 
L 3003 0 
L 313 0 
L 416 531 
z
" transform="scale(0.015625)"/>
      <path id="DejaVuSans-Oblique-10" d="M 391 2009 
L 2075 2009 
L 1978 1497 
L 288 1497 
L 391 2009 
z
" transform="scale(0.015625)"/>
      <path id="DejaVuSans-Oblique-2b" d="M 1081 4666 
L 1716 4666 
L 1344 2753 
L 3634 2753 
L 4006 4666 
L 4641 4666 
L 3731 0 
L 3097 0 
L 3531 2222 
L 1241 2222 
L 806 0 
L 172 0 
L 1081 4666 
z
" transform="scale(0.015625)"/>
      <path id="DejaVuSans-Oblique-44" d="M 3438 1997 
L 3047 0 
L 2472 0 
L 2578 531 
Q 2325 219 2001 64 
Q 1678 -91 1281 -91 
Q 834 -91 548 182 
Q 263 456 263 884 
Q 263 1497 752 1853 
Q 1241 2209 2100 2209 
L 2900 2209 
L 2931 2363 
Q 2938 2388 2941 2417 
Q 2944 2447 2944 2509 
Q 2944 2788 2717 2942 
Q 2491 3097 2081 3097 
Q 1800 3097 1504 3025 
Q 1209 2953 897 2809 
L 997 3341 
Q 1322 3463 1633 3523 
Q 1944 3584 2234 3584 
Q 2853 3584 3176 3315 
Q 3500 3047 3500 2534 
Q 3500 2431 3484 2292 
Q 3469 2153 3438 1997 
z
M 2816 1759 
L 2241 1759 
Q 1534 1759 1195 1570 
Q 856 1381 856 984 
Q 856 709 1029 553 
Q 1203 397 1509 397 
Q 1978 397 2328 733 
Q 2678 1069 2791 1631 
L 2816 1759 
z
" transform="scale(0.015625)"/>
      <path id="DejaVuSans-Oblique-51" d="M 3566 2113 
L 3156 0 
L 2578 0 
L 2988 2091 
Q 3016 2238 3031 2350 
Q 3047 2463 3047 2528 
Q 3047 2791 2881 2937 
Q 2716 3084 2419 3084 
Q 1956 3084 1622 2776 
Q 1288 2469 1184 1941 
L 800 0 
L 225 0 
L 903 3500 
L 1478 3500 
L 1363 2950 
Q 1603 3253 1940 3418 
Q 2278 3584 2650 3584 
Q 3113 3584 3367 3334 
Q 3622 3084 3622 2631 
Q 3622 2519 3608 2391 
Q 3594 2263 3566 2113 
z
" transform="scale(0.015625)"/>
      <path id="DejaVuSans-Oblique-59" d="M 459 3500 
L 1069 3500 
L 1581 525 
L 3256 3500 
L 3866 3500 
L 1875 0 
L 1100 0 
L 459 3500 
z
" transform="scale(0.015625)"/>
      <path id="DejaVuSans-Oblique-56" d="M 3200 3397 
L 3091 2853 
Q 2863 2978 2609 3040 
Q 2356 3103 2088 3103 
Q 1634 3103 1373 2948 
Q 1113 2794 1113 2528 
Q 1113 2219 1719 2053 
Q 1766 2041 1788 2034 
L 1972 1978 
Q 2547 1819 2739 1644 
Q 2931 1469 2931 1166 
Q 2931 609 2489 259 
Q 2047 -91 1331 -91 
Q 1053 -91 747 -37 
Q 441 16 72 128 
L 184 722 
Q 500 559 806 475 
Q 1113 391 1394 391 
Q 1816 391 2080 572 
Q 2344 753 2344 1031 
Q 2344 1331 1650 1516 
L 1591 1531 
L 1394 1581 
Q 956 1697 753 1886 
Q 550 2075 550 2369 
Q 550 2928 970 3256 
Q 1391 3584 2113 3584 
Q 2397 3584 2667 3537 
Q 2938 3491 3200 3397 
z
" transform="scale(0.015625)"/>
      <path id="DejaVuSans-Oblique-25" d="M 1081 4666 
L 2694 4666 
Q 3350 4666 3675 4422 
Q 4000 4178 4000 3688 
Q 4000 3238 3720 2911 
Q 3441 2584 2988 2516 
Q 3375 2428 3569 2181 
Q 3763 1934 3763 1522 
Q 3763 819 3242 409 
Q 2722 0 1819 0 
L 172 0 
L 1081 4666 
z
M 1234 2228 
L 903 519 
L 1919 519 
Q 2491 519 2800 781 
Q 3109 1044 3109 1522 
Q 3109 1891 2904 2059 
Q 2700 2228 2247 2228 
L 1234 2228 
z
M 1606 4147 
L 1331 2741 
L 2272 2741 
Q 2775 2741 3058 2959 
Q 3341 3178 3341 3566 
Q 3341 3869 3150 4008 
Q 2959 4147 2541 4147 
L 1606 4147 
z
" transform="scale(0.015625)"/>
      <path id="DejaVuSans-Oblique-4f" d="M 1172 4863 
L 1747 4863 
L 800 0 
L 225 0 
L 1172 4863 
z
" transform="scale(0.015625)"/>
      <path id="DejaVuSans-Oblique-46" d="M 3431 3366 
L 3316 2797 
Q 3109 2947 2876 3022 
Q 2644 3097 2394 3097 
Q 2119 3097 1870 3000 
Q 1622 2903 1453 2725 
Q 1184 2453 1037 2087 
Q 891 1722 891 1331 
Q 891 859 1127 628 
Q 1363 397 1844 397 
Q 2081 397 2348 469 
Q 2616 541 2906 684 
L 2797 116 
Q 2547 13 2283 -39 
Q 2019 -91 1741 -91 
Q 1044 -91 669 257 
Q 294 606 294 1253 
Q 294 1797 489 2255 
Q 684 2713 1069 3078 
Q 1331 3328 1684 3456 
Q 2038 3584 2456 3584 
Q 2700 3584 2940 3529 
Q 3181 3475 3431 3366 
z
" transform="scale(0.015625)"/>
      <path id="DejaVuSans-Oblique-4e" d="M 1172 4863 
L 1747 4863 
L 1197 2028 
L 3169 3500 
L 3916 3500 
L 1716 1825 
L 3322 0 
L 2625 0 
L 1131 1709 
L 800 0 
L 225 0 
L 1172 4863 
z
" transform="scale(0.015625)"/>
      <path id="DejaVuSans-Oblique-50" d="M 5747 2113 
L 5338 0 
L 4763 0 
L 5166 2094 
Q 5191 2228 5203 2325 
Q 5216 2422 5216 2491 
Q 5216 2772 5059 2928 
Q 4903 3084 4622 3084 
Q 4203 3084 3875 2770 
Q 3547 2456 3450 1953 
L 3066 0 
L 2491 0 
L 2900 2094 
Q 2925 2209 2937 2307 
Q 2950 2406 2950 2484 
Q 2950 2769 2794 2926 
Q 2638 3084 2363 3084 
Q 1938 3084 1609 2770 
Q 1281 2456 1184 1953 
L 800 0 
L 225 0 
L 909 3500 
L 1484 3500 
L 1375 2956 
Q 1609 3263 1923 3423 
Q 2238 3584 2597 3584 
Q 2978 3584 3223 3384 
Q 3469 3184 3519 2828 
Q 3781 3197 4126 3390 
Q 4472 3584 4856 3584 
Q 5306 3584 5551 3325 
Q 5797 3066 5797 2591 
Q 5797 2488 5784 2364 
Q 5772 2241 5747 2113 
z
" transform="scale(0.015625)"/>
      <path id="DejaVuSans-Oblique-52" d="M 1625 -91 
Q 1009 -91 651 289 
Q 294 669 294 1325 
Q 294 1706 417 2101 
Q 541 2497 738 2766 
Q 1047 3184 1428 3384 
Q 1809 3584 2291 3584 
Q 2888 3584 3255 3212 
Q 3622 2841 3622 2241 
Q 3622 1825 3500 1412 
Q 3378 1000 3181 728 
Q 2875 309 2494 109 
Q 2113 -91 1625 -91 
z
M 891 1344 
Q 891 869 1089 633 
Q 1288 397 1691 397 
Q 2269 397 2648 901 
Q 3028 1406 3028 2181 
Q 3028 2634 2825 2865 
Q 2622 3097 2228 3097 
Q 1903 3097 1650 2945 
Q 1397 2794 1197 2484 
Q 1050 2253 970 1956 
Q 891 1659 891 1344 
z
" transform="scale(0.015625)"/>
      <path id="DejaVuSans-Oblique-3d" d="M 838 4666 
L 4500 4666 
L 4409 4184 
L 794 531 
L 3769 531 
L 3669 0 
L -141 0 
L -50 481 
L 3566 4134 
L 738 4134 
L 838 4666 
z
" transform="scale(0.015625)"/>
     </defs>
     <use xlink:href="#DejaVuSans-Oblique-29"/>
     <use xlink:href="#DejaVuSans-Oblique-4c" transform="translate(57.515625 0)"/>
     <use xlink:href="#DejaVuSans-Oblique-4a" transform="translate(85.296875 0)"/>
     <use xlink:href="#DejaVuSans-Oblique-58" transform="translate(148.78125 0)"/>
     <use xlink:href="#DejaVuSans-Oblique-55" transform="translate(212.15625 0)"/>
     <use xlink:href="#DejaVuSans-Oblique-48" transform="translate(253.265625 0)"/>
     <use xlink:href="#DejaVuSans-Oblique-3" transform="translate(314.796875 0)"/>
     <use xlink:href="#DejaVuSans-Oblique-26" transform="translate(346.578125 0)"/>
     <use xlink:href="#DejaVuSans-Oblique-11" transform="translate(416.40625 0)"/>
     <use xlink:href="#DejaVuSans-Oblique-14" transform="translate(448.1875 0)"/>
     <use xlink:href="#DejaVuSans-Oblique-14" transform="translate(511.8125 0)"/>
     <use xlink:href="#DejaVuSans-Oblique-3" transform="translate(575.4375 0)"/>
     <use xlink:href="#DejaVuSans-Oblique-10" transform="translate(607.21875 0)"/>
     <use xlink:href="#DejaVuSans-Oblique-3" transform="translate(643.296875 0)"/>
     <use xlink:href="#DejaVuSans-Oblique-2b" transform="translate(675.078125 0)"/>
     <use xlink:href="#DejaVuSans-Oblique-44" transform="translate(750.28125 0)"/>
     <use xlink:href="#DejaVuSans-Oblique-51" transform="translate(811.5625 0)"/>
     <use xlink:href="#DejaVuSans-Oblique-51" transform="translate(874.9375 0)"/>
     <use xlink:href="#DejaVuSans-Oblique-3" transform="translate(938.3125 0)"/>
     <use xlink:href="#DejaVuSans-Oblique-59" transform="translate(970.09375 0)"/>
     <use xlink:href="#DejaVuSans-Oblique-56" transform="translate(1029.28125 0)"/>
     <use xlink:href="#DejaVuSans-Oblique-3" transform="translate(1081.375 0)"/>
     <use xlink:href="#DejaVuSans-Oblique-25" transform="translate(1113.15625 0)"/>
     <use xlink:href="#DejaVuSans-Oblique-4f" transform="translate(1181.765625 0)"/>
     <use xlink:href="#DejaVuSans-Oblique-44" transform="translate(1209.546875 0)"/>
     <use xlink:href="#DejaVuSans-Oblique-46" transform="translate(1270.828125 0)"/>
     <use xlink:href="#DejaVuSans-Oblique-4e" transform="translate(1325.8125 0)"/>
     <use xlink:href="#DejaVuSans-Oblique-50" transform="translate(1383.71875 0)"/>
     <use xlink:href="#DejaVuSans-Oblique-44" transform="translate(1481.125 0)"/>
     <use xlink:href="#DejaVuSans-Oblique-51" transform="translate(1542.40625 0)"/>
     <use xlink:href="#DejaVuSans-Oblique-3" transform="translate(1605.78125 0)"/>
     <use xlink:href="#DejaVuSans-Oblique-52" transform="translate(1637.5625 0)"/>
     <use xlink:href="#DejaVuSans-Oblique-51" transform="translate(1698.75 0)"/>
     <use xlink:href="#DejaVuSans-Oblique-3" transform="translate(1762.125 0)"/>
     <use xlink:href="#DejaVuSans-Oblique-26" transform="translate(1793.90625 0)"/>
     <use xlink:href="#DejaVuSans-Oblique-3d" transform="translate(1863.734375 0)"/>
    </g>
   </g>
   <g id="legend_1">
    <g id="patch_7">
     <path d="M 763.131406 56.519531 
L 836.267656 56.519531 
Q 838.067656 56.519531 838.067656 54.719531 
L 838.067656 28.618125 
Q 838.067656 26.818125 836.267656 26.818125 
L 763.131406 26.818125 
Q 761.331406 26.818125 761.331406 28.618125 
L 761.331406 54.719531 
Q 761.331406 56.519531 763.131406 56.519531 
z
" style="fill: #ffffff; opacity: 0.8; stroke: #cccccc; stroke-linejoin: miter"/>
    </g>
    <g id="line2d_29">
     <path d="M 764.931406 34.106719 
L 773.931406 34.106719 
L 782.931406 34.106719 
" style="fill: none; stroke: #2563eb; stroke-width: 0.8; stroke-linecap: square"/>
    </g>
    <g id="text_10">
     <!-- Hann -->
     <g transform="translate(790.131406 37.256719) scale(0.09 -0.09)">
      <defs>
       <path id="DejaVuSans-44" d="M 2194 1759 
Q 1497 1759 1228 1600 
Q 959 1441 959 1056 
Q 959 750 1161 570 
Q 1363 391 1709 391 
Q 2188 391 2477 730 
Q 2766 1069 2766 1631 
L 2766 1759 
L 2194 1759 
z
M 3341 1997 
L 3341 0 
L 2766 0 
L 2766 531 
Q 2569 213 2275 61 
Q 1981 -91 1556 -91 
Q 1019 -91 701 211 
Q 384 513 384 1019 
Q 384 1609 779 1909 
Q 1175 2209 1959 2209 
L 2766 2209 
L 2766 2266 
Q 2766 2663 2505 2880 
Q 2244 3097 1772 3097 
Q 1472 3097 1187 3025 
Q 903 2953 641 2809 
L 641 3341 
Q 956 3463 1253 3523 
Q 1550 3584 1831 3584 
Q 2591 3584 2966 3190 
Q 3341 2797 3341 1997 
z
" transform="scale(0.015625)"/>
       <path id="DejaVuSans-51" d="M 3513 2113 
L 3513 0 
L 2938 0 
L 2938 2094 
Q 2938 2591 2744 2837 
Q 2550 3084 2163 3084 
Q 1697 3084 1428 2787 
Q 1159 2491 1159 1978 
L 1159 0 
L 581 0 
L 581 3500 
L 1159 3500 
L 1159 2956 
Q 1366 3272 1645 3428 
Q 1925 3584 2291 3584 
Q 2894 3584 3203 3211 
Q 3513 2838 3513 2113 
z
" transform="scale(0.015625)"/>
      </defs>
      <use xlink:href="#DejaVuSans-2b"/>
      <use xlink:href="#DejaVuSans-44" transform="translate(75.203125 0)"/>
      <use xlink:href="#DejaVuSans-51" transform="translate(136.484375 0)"/>
      <use xlink:href="#DejaVuSans-51" transform="translate(199.859375 0)"/>
     </g>
    </g>
    <g id="line2d_30">
     <path d="M 764.931406 47.607422 
L 773.931406 47.607422 
L 782.931406 47.607422 
" style="fill: none; stroke: #dc2626; stroke-width: 0.8; stroke-linecap: square"/>
    </g>
    <g id="text_11">
     <!-- Blackman -->
     <g transform="translate(790.131406 50.757422) scale(0.09 -0.09)">
      <defs>
       <path id="DejaVuSans-25" d="M 1259 2228 
L 1259 519 
L 2272 519 
Q 2781 519 3026 730 
Q 3272 941 3272 1375 
Q 3272 1813 3026 2020 
Q 2781 2228 2272 2228 
L 1259 2228 
z
M 1259 4147 
L 1259 2741 
L 2194 2741 
Q 2656 2741 2882 2914 
Q 3109 3088 3109 3444 
Q 3109 3797 2882 3972 
Q 2656 4147 2194 4147 
L 1259 4147 
z
M 628 4666 
L 2241 4666 
Q 2963 4666 3353 4366 
Q 3744 4066 3744 3513 
Q 3744 3084 3544 2831 
Q 3344 2578 2956 2516 
Q 3422 2416 3680 2098 
Q 3938 1781 3938 1306 
Q 3938 681 3513 340 
Q 3088 0 2303 0 
L 628 0 
L 628 4666 
z
" transform="scale(0.015625)"/>
       <path id="DejaVuSans-4f" d="M 603 4863 
L 1178 4863 
L 1178 0 
L 603 0 
L 603 4863 
z
" transform="scale(0.015625)"/>
       <path id="DejaVuSans-46" d="M 3122 3366 
L 3122 2828 
Q 2878 2963 2633 3030 
Q 2388 3097 2138 3097 
Q 1578 3097 1268 2742 
Q 959 2388 959 1747 
Q 959 1106 1268 751 
Q 1578 397 2138 397 
Q 2388 397 2633 464 
Q 2878 531 3122 666 
L 3122 134 
Q 2881 22 2623 -34 
Q 2366 -91 2075 -91 
Q 1284 -91 818 406 
Q 353 903 353 1747 
Q 353 2603 823 3093 
Q 1294 3584 2113 3584 
Q 2378 3584 2631 3529 
Q 2884 3475 3122 3366 
z
" transform="scale(0.015625)"/>
       <path id="DejaVuSans-4e" d="M 581 4863 
L 1159 4863 
L 1159 1991 
L 2875 3500 
L 3609 3500 
L 1753 1863 
L 3688 0 
L 2938 0 
L 1159 1709 
L 1159 0 
L 581 0 
L 581 4863 
z
" transform="scale(0.015625)"/>
       <path id="DejaVuSans-50" d="M 3328 2828 
Q 3544 3216 3844 3400 
Q 4144 3584 4550 3584 
Q 5097 3584 5394 3201 
Q 5691 2819 5691 2113 
L 5691 0 
L 5113 0 
L 5113 2094 
Q 5113 2597 4934 2840 
Q 4756 3084 4391 3084 
Q 3944 3084 3684 2787 
Q 3425 2491 3425 1978 
L 3425 0 
L 2847 0 
L 2847 2094 
Q 2847 2600 2669 2842 
Q 2491 3084 2119 3084 
Q 1678 3084 1418 2786 
Q 1159 2488 1159 1978 
L 1159 0 
L 581 0 
L 581 3500 
L 1159 3500 
L 1159 2956 
Q 1356 3278 1631 3431 
Q 1906 3584 2284 3584 
Q 2666 3584 2933 3390 
Q 3200 3197 3328 2828 
z
" transform="scale(0.015625)"/>
      </defs>
      <use xlink:href="#DejaVuSans-25"/>
      <use xlink:href="#DejaVuSans-4f" transform="translate(68.609375 0)"/>
      <use xlink:href="#DejaVuSans-44" transform="translate(96.390625 0)"/>
      <use xlink:href="#DejaVuSans-46" transform="translate(157.671875 0)"/>
      <use xlink:href="#DejaVuSans-4e" transform="translate(212.65625 0)"/>
      <use xlink:href="#DejaVuSans-50" transform="translate(270.5625 0)"/>
      <use xlink:href="#DejaVuSans-44" transform="translate(367.96875 0)"/>
      <use xlink:href="#DejaVuSans-51" transform="translate(429.25 0)"/>
     </g>
    </g>
   </g>
  </g>
  <g id="axes_2">
   <g id="patch_8">
    <path d="M 53.65 386.433437 
L 842.567656 386.433437 
L 842.567656 211.525781 
L 53.65 211.525781 
z
" style="fill: #ffffff"/>
   </g>
   <g id="matplotlib.axis_3">
    <g id="xtick_7">
     <g id="line2d_31">
      <path d="M 53.65 386.433437 
L 53.65 211.525781 
" clip-path="url(#p5efa303aa8)" style="fill: none; stroke: #b0b0b0; stroke-opacity: 0.3; stroke-width: 0.8; stroke-linecap: square"/>
     </g>
     <g id="line2d_32">
      <g>
       <use xlink:href="#mf4f513536d" x="53.65" y="386.433437" style="stroke: #000000; stroke-width: 0.8"/>
      </g>
     </g>
     <g id="text_12">
      <!-- 0 -->
      <g transform="translate(50.46875 401.031094) scale(0.1 -0.1)">
       <use xlink:href="#DejaVuSans-13"/>
      </g>
     </g>
    </g>
    <g id="xtick_8">
     <g id="line2d_33">
      <path d="M 211.433531 386.433437 
L 211.433531 211.525781 
" clip-path="url(#p5efa303aa8)" style="fill: none; stroke: #b0b0b0; stroke-opacity: 0.3; stroke-width: 0.8; stroke-linecap: square"/>
     </g>
     <g id="line2d_34">
      <g>
       <use xlink:href="#mf4f513536d" x="211.433531" y="386.433437" style="stroke: #000000; stroke-width: 0.8"/>
      </g>
     </g>
     <g id="text_13">
      <!-- 10 -->
      <g transform="translate(205.071031 401.031094) scale(0.1 -0.1)">
       <use xlink:href="#DejaVuSans-14"/>
       <use xlink:href="#DejaVuSans-13" transform="translate(63.625 0)"/>
      </g>
     </g>
    </g>
    <g id="xtick_9">
     <g id="line2d_35">
      <path d="M 369.217062 386.433437 
L 369.217062 211.525781 
" clip-path="url(#p5efa303aa8)" style="fill: none; stroke: #b0b0b0; stroke-opacity: 0.3; stroke-width: 0.8; stroke-linecap: square"/>
     </g>
     <g id="line2d_36">
      <g>
       <use xlink:href="#mf4f513536d" x="369.217062" y="386.433437" style="stroke: #000000; stroke-width: 0.8"/>
      </g>
     </g>
     <g id="text_14">
      <!-- 20 -->
      <g transform="translate(362.854562 401.031094) scale(0.1 -0.1)">
       <use xlink:href="#DejaVuSans-15"/>
       <use xlink:href="#DejaVuSans-13" transform="translate(63.625 0)"/>
      </g>
     </g>
    </g>
    <g id="xtick_10">
     <g id="line2d_37">
      <path d="M 527.000594 386.433437 
L 527.000594 211.525781 
" clip-path="url(#p5efa303aa8)" style="fill: none; stroke: #b0b0b0; stroke-opacity: 0.3; stroke-width: 0.8; stroke-linecap: square"/>
     </g>
     <g id="line2d_38">
      <g>
       <use xlink:href="#mf4f513536d" x="527.000594" y="386.433437" style="stroke: #000000; stroke-width: 0.8"/>
      </g>
     </g>
     <g id="text_15">
      <!-- 30 -->
      <g transform="translate(520.638094 401.031094) scale(0.1 -0.1)">
       <defs>
        <path id="DejaVuSans-16" d="M 2597 2516 
Q 3050 2419 3304 2112 
Q 3559 1806 3559 1356 
Q 3559 666 3084 287 
Q 2609 -91 1734 -91 
Q 1441 -91 1130 -33 
Q 819 25 488 141 
L 488 750 
Q 750 597 1062 519 
Q 1375 441 1716 441 
Q 2309 441 2620 675 
Q 2931 909 2931 1356 
Q 2931 1769 2642 2001 
Q 2353 2234 1838 2234 
L 1294 2234 
L 1294 2753 
L 1863 2753 
Q 2328 2753 2575 2939 
Q 2822 3125 2822 3475 
Q 2822 3834 2567 4026 
Q 2313 4219 1838 4219 
Q 1578 4219 1281 4162 
Q 984 4106 628 3988 
L 628 4550 
Q 988 4650 1302 4700 
Q 1616 4750 1894 4750 
Q 2613 4750 3031 4423 
Q 3450 4097 3450 3541 
Q 3450 3153 3228 2886 
Q 3006 2619 2597 2516 
z
" transform="scale(0.015625)"/>
       </defs>
       <use xlink:href="#DejaVuSans-16"/>
       <use xlink:href="#DejaVuSans-13" transform="translate(63.625 0)"/>
      </g>
     </g>
    </g>
    <g id="xtick_11">
     <g id="line2d_39">
      <path d="M 684.784125 386.433437 
L 684.784125 211.525781 
" clip-path="url(#p5efa303aa8)" style="fill: none; stroke: #b0b0b0; stroke-opacity: 0.3; stroke-width: 0.8; stroke-linecap: square"/>
     </g>
     <g id="line2d_40">
      <g>
       <use xlink:href="#mf4f513536d" x="684.784125" y="386.433437" style="stroke: #000000; stroke-width: 0.8"/>
      </g>
     </g>
     <g id="text_16">
      <!-- 40 -->
      <g transform="translate(678.421625 401.031094) scale(0.1 -0.1)">
       <defs>
        <path id="DejaVuSans-17" d="M 2419 4116 
L 825 1625 
L 2419 1625 
L 2419 4116 
z
M 2253 4666 
L 3047 4666 
L 3047 1625 
L 3713 1625 
L 3713 1100 
L 3047 1100 
L 3047 0 
L 2419 0 
L 2419 1100 
L 313 1100 
L 313 1709 
L 2253 4666 
z
" transform="scale(0.015625)"/>
       </defs>
       <use xlink:href="#DejaVuSans-17"/>
       <use xlink:href="#DejaVuSans-13" transform="translate(63.625 0)"/>
      </g>
     </g>
    </g>
    <g id="xtick_12">
     <g id="line2d_41">
      <path d="M 842.567656 386.433437 
L 842.567656 211.525781 
" clip-path="url(#p5efa303aa8)" style="fill: none; stroke: #b0b0b0; stroke-opacity: 0.3; stroke-width: 0.8; stroke-linecap: square"/>
     </g>
     <g id="line2d_42">
      <g>
       <use xlink:href="#mf4f513536d" x="842.567656" y="386.433437" style="stroke: #000000; stroke-width: 0.8"/>
      </g>
     </g>
     <g id="text_17">
      <!-- 50 -->
      <g transform="translate(836.205156 401.031094) scale(0.1 -0.1)">
       <use xlink:href="#DejaVuSans-18"/>
       <use xlink:href="#DejaVuSans-13" transform="translate(63.625 0)"/>
      </g>
     </g>
    </g>
    <g id="text_18">
     <!-- Frequency (Hz) -->
     <g transform="translate(410.403359 415.031094) scale(0.1 -0.1)">
      <defs>
       <path id="DejaVuSans-29" d="M 628 4666 
L 3309 4666 
L 3309 4134 
L 1259 4134 
L 1259 2759 
L 3109 2759 
L 3109 2228 
L 1259 2228 
L 1259 0 
L 628 0 
L 628 4666 
z
" transform="scale(0.015625)"/>
       <path id="DejaVuSans-55" d="M 2631 2963 
Q 2534 3019 2420 3045 
Q 2306 3072 2169 3072 
Q 1681 3072 1420 2755 
Q 1159 2438 1159 1844 
L 1159 0 
L 581 0 
L 581 3500 
L 1159 3500 
L 1159 2956 
Q 1341 3275 1631 3429 
Q 1922 3584 2338 3584 
Q 2397 3584 2469 3576 
Q 2541 3569 2628 3553 
L 2631 2963 
z
" transform="scale(0.015625)"/>
       <path id="DejaVuSans-48" d="M 3597 1894 
L 3597 1613 
L 953 1613 
Q 991 1019 1311 708 
Q 1631 397 2203 397 
Q 2534 397 2845 478 
Q 3156 559 3463 722 
L 3463 178 
Q 3153 47 2828 -22 
Q 2503 -91 2169 -91 
Q 1331 -91 842 396 
Q 353 884 353 1716 
Q 353 2575 817 3079 
Q 1281 3584 2069 3584 
Q 2775 3584 3186 3129 
Q 3597 2675 3597 1894 
z
M 3022 2063 
Q 3016 2534 2758 2815 
Q 2500 3097 2075 3097 
Q 1594 3097 1305 2825 
Q 1016 2553 972 2059 
L 3022 2063 
z
" transform="scale(0.015625)"/>
       <path id="DejaVuSans-54" d="M 947 1747 
Q 947 1113 1208 752 
Q 1469 391 1925 391 
Q 2381 391 2643 752 
Q 2906 1113 2906 1747 
Q 2906 2381 2643 2742 
Q 2381 3103 1925 3103 
Q 1469 3103 1208 2742 
Q 947 2381 947 1747 
z
M 2906 525 
Q 2725 213 2448 61 
Q 2172 -91 1784 -91 
Q 1150 -91 751 415 
Q 353 922 353 1747 
Q 353 2572 751 3078 
Q 1150 3584 1784 3584 
Q 2172 3584 2448 3432 
Q 2725 3281 2906 2969 
L 2906 3500 
L 3481 3500 
L 3481 -1331 
L 2906 -1331 
L 2906 525 
z
" transform="scale(0.015625)"/>
       <path id="DejaVuSans-58" d="M 544 1381 
L 544 3500 
L 1119 3500 
L 1119 1403 
Q 1119 906 1312 657 
Q 1506 409 1894 409 
Q 2359 409 2629 706 
Q 2900 1003 2900 1516 
L 2900 3500 
L 3475 3500 
L 3475 0 
L 2900 0 
L 2900 538 
Q 2691 219 2414 64 
Q 2138 -91 1772 -91 
Q 1169 -91 856 284 
Q 544 659 544 1381 
z
M 1991 3584 
L 1991 3584 
z
" transform="scale(0.015625)"/>
       <path id="DejaVuSans-5c" d="M 2059 -325 
Q 1816 -950 1584 -1140 
Q 1353 -1331 966 -1331 
L 506 -1331 
L 506 -850 
L 844 -850 
Q 1081 -850 1212 -737 
Q 1344 -625 1503 -206 
L 1606 56 
L 191 3500 
L 800 3500 
L 1894 763 
L 2988 3500 
L 3597 3500 
L 2059 -325 
z
" transform="scale(0.015625)"/>
      </defs>
      <use xlink:href="#DejaVuSans-29"/>
      <use xlink:href="#DejaVuSans-55" transform="translate(50.234375 0)"/>
      <use xlink:href="#DejaVuSans-48" transform="translate(89.140625 0)"/>
      <use xlink:href="#DejaVuSans-54" transform="translate(150.671875 0)"/>
      <use xlink:href="#DejaVuSans-58" transform="translate(214.15625 0)"/>
      <use xlink:href="#DejaVuSans-48" transform="translate(277.53125 0)"/>
      <use xlink:href="#DejaVuSans-51" transform="translate(339.0625 0)"/>
      <use xlink:href="#DejaVuSans-46" transform="translate(402.4375 0)"/>
      <use xlink:href="#DejaVuSans-5c" transform="translate(457.421875 0)"/>
      <use xlink:href="#DejaVuSans-3" transform="translate(516.609375 0)"/>
      <use xlink:href="#DejaVuSans-b" transform="translate(548.390625 0)"/>
      <use xlink:href="#DejaVuSans-2b" transform="translate(587.40625 0)"/>
      <use xlink:href="#DejaVuSans-5d" transform="translate(662.609375 0)"/>
      <use xlink:href="#DejaVuSans-c" transform="translate(715.09375 0)"/>
     </g>
    </g>
   </g>
   <g id="matplotlib.axis_4">
    <g id="ytick_8">
     <g id="line2d_43">
      <path d="M 53.65 360.955258 
L 842.567656 360.955258 
" clip-path="url(#p5efa303aa8)" style="fill: none; stroke: #b0b0b0; stroke-opacity: 0.3; stroke-width: 0.8; stroke-linecap: square"/>
     </g>
     <g id="line2d_44">
      <g>
       <use xlink:href="#md7271b41ab" x="53.65" y="360.955258" style="stroke: #000000; stroke-width: 0.8"/>
      </g>
     </g>
     <g id="text_19">
      <!-- −20 -->
      <g transform="translate(25.545313 364.754087) scale(0.1 -0.1)">
       <defs>
        <path id="DejaVuSans-c9c" d="M 678 2272 
L 4684 2272 
L 4684 1741 
L 678 1741 
L 678 2272 
z
" transform="scale(0.015625)"/>
       </defs>
       <use xlink:href="#DejaVuSans-c9c"/>
       <use xlink:href="#DejaVuSans-15" transform="translate(83.796875 0)"/>
       <use xlink:href="#DejaVuSans-13" transform="translate(147.421875 0)"/>
      </g>
     </g>
    </g>
    <g id="ytick_9">
     <g id="line2d_45">
      <path d="M 53.65 333.793419 
L 842.567656 333.793419 
" clip-path="url(#p5efa303aa8)" style="fill: none; stroke: #b0b0b0; stroke-opacity: 0.3; stroke-width: 0.8; stroke-linecap: square"/>
     </g>
     <g id="line2d_46">
      <g>
       <use xlink:href="#md7271b41ab" x="53.65" y="333.793419" style="stroke: #000000; stroke-width: 0.8"/>
      </g>
     </g>
     <g id="text_20">
      <!-- −10 -->
      <g transform="translate(25.545313 337.592247) scale(0.1 -0.1)">
       <use xlink:href="#DejaVuSans-c9c"/>
       <use xlink:href="#DejaVuSans-14" transform="translate(83.796875 0)"/>
       <use xlink:href="#DejaVuSans-13" transform="translate(147.421875 0)"/>
      </g>
     </g>
    </g>
    <g id="ytick_10">
     <g id="line2d_47">
      <path d="M 53.65 306.63158 
L 842.567656 306.63158 
" clip-path="url(#p5efa303aa8)" style="fill: none; stroke: #b0b0b0; stroke-opacity: 0.3; stroke-width: 0.8; stroke-linecap: square"/>
     </g>
     <g id="line2d_48">
      <g>
       <use xlink:href="#md7271b41ab" x="53.65" y="306.63158" style="stroke: #000000; stroke-width: 0.8"/>
      </g>
     </g>
     <g id="text_21">
      <!-- 0 -->
      <g transform="translate(40.2875 310.430408) scale(0.1 -0.1)">
       <use xlink:href="#DejaVuSans-13"/>
      </g>
     </g>
    </g>
    <g id="ytick_11">
     <g id="line2d_49">
      <path d="M 53.65 279.469741 
L 842.567656 279.469741 
" clip-path="url(#p5efa303aa8)" style="fill: none; stroke: #b0b0b0; stroke-opacity: 0.3; stroke-width: 0.8; stroke-linecap: square"/>
     </g>
     <g id="line2d_50">
      <g>
       <use xlink:href="#md7271b41ab" x="53.65" y="279.469741" style="stroke: #000000; stroke-width: 0.8"/>
      </g>
     </g>
     <g id="text_22">
      <!-- 10 -->
      <g transform="translate(33.925 283.268569) scale(0.1 -0.1)">
       <use xlink:href="#DejaVuSans-14"/>
       <use xlink:href="#DejaVuSans-13" transform="translate(63.625 0)"/>
      </g>
     </g>
    </g>
    <g id="ytick_12">
     <g id="line2d_51">
      <path d="M 53.65 252.307901 
L 842.567656 252.307901 
" clip-path="url(#p5efa303aa8)" style="fill: none; stroke: #b0b0b0; stroke-opacity: 0.3; stroke-width: 0.8; stroke-linecap: square"/>
     </g>
     <g id="line2d_52">
      <g>
       <use xlink:href="#md7271b41ab" x="53.65" y="252.307901" style="stroke: #000000; stroke-width: 0.8"/>
      </g>
     </g>
     <g id="text_23">
      <!-- 20 -->
      <g transform="translate(33.925 256.106729) scale(0.1 -0.1)">
       <use xlink:href="#DejaVuSans-15"/>
       <use xlink:href="#DejaVuSans-13" transform="translate(63.625 0)"/>
      </g>
     </g>
    </g>
    <g id="ytick_13">
     <g id="line2d_53">
      <path d="M 53.65 225.146062 
L 842.567656 225.146062 
" clip-path="url(#p5efa303aa8)" style="fill: none; stroke: #b0b0b0; stroke-opacity: 0.3; stroke-width: 0.8; stroke-linecap: square"/>
     </g>
     <g id="line2d_54">
      <g>
       <use xlink:href="#md7271b41ab" x="53.65" y="225.146062" style="stroke: #000000; stroke-width: 0.8"/>
      </g>
     </g>
     <g id="text_24">
      <!-- 30 -->
      <g transform="translate(33.925 228.94489) scale(0.1 -0.1)">
       <use xlink:href="#DejaVuSans-16"/>
       <use xlink:href="#DejaVuSans-13" transform="translate(63.625 0)"/>
      </g>
     </g>
    </g>
    <g id="text_25">
     <!-- PSD (dB re 1 µV²/Hz) -->
     <g transform="translate(19.142969 350.759297) rotate(-90) scale(0.1 -0.1)">
      <defs>
       <path id="DejaVuSans-47" d="M 2906 2969 
L 2906 4863 
L 3481 4863 
L 3481 0 
L 2906 0 
L 2906 525 
Q 2725 213 2448 61 
Q 2172 -91 1784 -91 
Q 1150 -91 751 415 
Q 353 922 353 1747 
Q 353 2572 751 3078 
Q 1150 3584 1784 3584 
Q 2172 3584 2448 3432 
Q 2725 3281 2906 2969 
z
M 947 1747 
Q 947 1113 1208 752 
Q 1469 391 1925 391 
Q 2381 391 2643 752 
Q 2906 1113 2906 1747 
Q 2906 2381 2643 2742 
Q 2381 3103 1925 3103 
Q 1469 3103 1208 2742 
Q 947 2381 947 1747 
z
" transform="scale(0.015625)"/>
      </defs>
      <use xlink:href="#DejaVuSans-33"/>
      <use xlink:href="#DejaVuSans-36" transform="translate(60.296875 0)"/>
      <use xlink:href="#DejaVuSans-27" transform="translate(123.78125 0)"/>
      <use xlink:href="#DejaVuSans-3" transform="translate(200.78125 0)"/>
      <use xlink:href="#DejaVuSans-b" transform="translate(232.5625 0)"/>
      <use xlink:href="#DejaVuSans-47" transform="translate(271.578125 0)"/>
      <use xlink:href="#DejaVuSans-25" transform="translate(335.0625 0)"/>
      <use xlink:href="#DejaVuSans-3" transform="translate(403.671875 0)"/>
      <use xlink:href="#DejaVuSans-55" transform="translate(435.453125 0)"/>
      <use xlink:href="#DejaVuSans-48" transform="translate(474.359375 0)"/>
      <use xlink:href="#DejaVuSans-3" transform="translate(535.890625 0)"/>
      <use xlink:href="#DejaVuSans-14" transform="translate(567.671875 0)"/>
      <use xlink:href="#DejaVuSans-3" transform="translate(631.296875 0)"/>
      <use xlink:href="#DejaVuSans-77" transform="translate(663.078125 0)"/>
      <use xlink:href="#DejaVuSans-39" transform="translate(726.703125 0)"/>
      <use xlink:href="#DejaVuSans-74" transform="translate(795.109375 0)"/>
      <use xlink:href="#DejaVuSans-12" transform="translate(835.203125 0)"/>
      <use xlink:href="#DejaVuSans-2b" transform="translate(868.890625 0)"/>
      <use xlink:href="#DejaVuSans-5d" transform="translate(944.09375 0)"/>
      <use xlink:href="#DejaVuSans-c" transform="translate(996.578125 0)"/>
     </g>
    </g>
   </g>
   <g id="line2d_55">
    <path d="M 53.65 247.553162 
L 56.805671 227.618515 
L 59.961341 220.999244 
L 63.117012 219.476129 
L 66.272683 221.477843 
L 69.428353 223.976557 
L 72.584024 226.814583 
L 75.739694 229.21106 
L 78.895365 230.716078 
L 82.051036 231.546384 
L 85.206706 230.987727 
L 88.362377 233.607906 
L 91.518048 237.922187 
L 94.673718 239.583408 
L 97.829389 240.608126 
L 100.985059 239.366696 
L 104.14073 240.707634 
L 107.296401 242.6904 
L 110.452071 245.397369 
L 113.607742 248.586104 
L 116.763413 251.380817 
L 119.919083 251.753004 
L 123.074754 253.909245 
L 126.230424 257.543694 
L 129.386095 259.598485 
L 135.697436 262.817969 
L 142.008778 267.216908 
L 145.164448 268.421411 
L 151.475789 271.218281 
L 154.63146 272.182502 
L 157.787131 273.797303 
L 160.942801 276.402479 
L 164.098472 279.175059 
L 167.254143 280.712322 
L 170.409813 281.261565 
L 173.565484 281.985437 
L 176.721154 283.092842 
L 179.876825 282.95471 
L 183.032496 283.220469 
L 186.188166 283.776294 
L 189.343837 284.91954 
L 192.499508 286.815428 
L 195.655178 286.716083 
L 198.810849 287.381172 
L 201.966519 289.35518 
L 205.12219 289.487297 
L 208.277861 290.597443 
L 211.433531 291.996389 
L 214.589202 291.774017 
L 217.744873 291.16274 
L 220.900543 291.976164 
L 224.056214 291.099997 
L 227.211884 292.8039 
L 230.367555 293.792107 
L 233.523226 294.902932 
L 239.834567 294.759795 
L 246.145908 293.27802 
L 249.301579 292.49186 
L 255.61292 292.698807 
L 258.768591 293.29007 
L 261.924261 293.576582 
L 265.079932 294.350451 
L 271.391273 297.596825 
L 274.546944 298.460682 
L 277.702614 298.446125 
L 284.013956 301.014656 
L 287.169626 302.529991 
L 290.325297 303.813842 
L 293.480968 306.073868 
L 296.636638 306.307932 
L 299.792309 306.007554 
L 302.947979 307.768775 
L 306.10365 308.37813 
L 312.414991 308.839566 
L 315.570662 310.235317 
L 318.726333 310.838774 
L 321.882003 312.21788 
L 325.037674 313.4137 
L 331.349015 314.738013 
L 334.504686 315.208042 
L 337.660356 313.909786 
L 340.816027 314.035387 
L 343.971698 314.533556 
L 347.127368 315.228994 
L 350.283039 315.437233 
L 353.438709 317.594518 
L 356.59438 318.637747 
L 359.750051 318.846041 
L 362.905721 318.77346 
L 366.061392 318.549725 
L 372.372733 319.116073 
L 375.528404 321.257233 
L 378.684074 321.729642 
L 381.839745 321.762923 
L 384.995416 319.485713 
L 388.151086 319.703347 
L 391.306757 319.254602 
L 394.462427 320.032571 
L 397.618098 320.636689 
L 403.929439 320.224318 
L 407.08511 321.100544 
L 410.240781 321.512509 
L 413.396451 322.705958 
L 416.552122 323.169306 
L 419.707793 324.150951 
L 422.863463 324.248831 
L 426.019134 322.365621 
L 429.174804 321.815161 
L 432.330475 322.834169 
L 435.486146 323.705605 
L 438.641816 323.307709 
L 441.797487 326.119119 
L 444.953158 327.099891 
L 448.108828 326.40176 
L 451.264499 325.147747 
L 454.420169 325.873598 
L 457.57584 325.093359 
L 460.731511 325.547096 
L 463.887181 326.46176 
L 467.042852 327.115689 
L 473.354193 326.504455 
L 476.509864 326.583756 
L 479.665534 327.754905 
L 482.821205 328.533848 
L 485.976876 327.449775 
L 489.132546 324.976707 
L 492.288217 323.77803 
L 495.443888 325.560859 
L 498.599558 326.304377 
L 501.755229 328.787524 
L 504.910899 329.686715 
L 508.06657 329.752878 
L 511.222241 328.930027 
L 514.377911 328.378758 
L 517.533582 327.267542 
L 520.689253 328.490896 
L 523.844923 329.216794 
L 527.000594 329.293458 
L 530.156264 328.705793 
L 533.311935 328.988415 
L 536.467606 329.709237 
L 539.623276 332.452215 
L 542.778947 334.17855 
L 545.934618 332.517079 
L 549.090288 331.011278 
L 552.245959 330.093833 
L 555.401629 329.666127 
L 558.5573 330.017419 
L 561.712971 332.608705 
L 564.868641 332.734262 
L 568.024312 334.174856 
L 571.179983 333.390697 
L 574.335653 332.152285 
L 577.491324 331.270631 
L 580.646994 331.730249 
L 583.802665 334.67541 
L 586.958336 334.72542 
L 590.114006 335.683727 
L 593.269677 336.061928 
L 596.425347 336.856995 
L 599.581018 336.695688 
L 602.736689 336.883772 
L 605.892359 336.254299 
L 612.203701 333.568365 
L 615.359371 334.500476 
L 618.515042 333.312518 
L 621.670713 334.137012 
L 624.826383 335.367393 
L 627.982054 339.575945 
L 631.137724 340.005322 
L 634.293395 339.893804 
L 637.449066 339.257881 
L 640.604736 339.401243 
L 643.760407 340.223123 
L 646.916078 340.473453 
L 650.071748 340.931876 
L 653.227419 340.061201 
L 659.53876 341.801909 
L 662.694431 342.421207 
L 665.850101 341.735018 
L 669.005772 341.668314 
L 672.161443 342.617922 
L 675.317113 343.213725 
L 678.472784 343.410558 
L 681.628454 343.86122 
L 684.784125 343.640874 
L 687.939796 344.52943 
L 691.095466 344.624067 
L 694.251137 344.049432 
L 697.406808 343.242389 
L 700.562478 343.874656 
L 703.718149 342.890569 
L 706.873819 342.762788 
L 713.185161 345.52212 
L 716.340831 347.116133 
L 719.496502 346.798393 
L 722.652173 348.09071 
L 725.807843 347.209196 
L 728.963514 348.223071 
L 732.119184 347.733161 
L 735.274855 348.279254 
L 738.430526 349.963248 
L 744.741867 349.596378 
L 747.897537 351.902929 
L 751.053208 352.919748 
L 754.208879 353.122165 
L 757.364549 354.136917 
L 760.52022 351.32618 
L 763.675891 351.413196 
L 766.831561 350.161338 
L 769.987232 346.95278 
L 773.142902 347.126186 
L 776.298573 352.436603 
L 779.454244 350.98177 
L 782.609914 352.648774 
L 785.765585 354.956462 
L 792.076926 355.330669 
L 795.232597 357.261412 
L 798.388268 357.218908 
L 807.855279 355.903827 
L 811.01095 355.961583 
L 814.166621 356.447325 
L 817.322291 357.116726 
L 820.477962 358.295084 
L 823.633633 358.396591 
L 826.789303 356.103834 
L 829.944974 358.551061 
L 833.100644 355.847289 
L 836.256315 355.068182 
L 839.411986 356.67289 
L 842.567656 360.898872 
L 845.723327 362.428165 
L 848.878998 363.570975 
L 852.034668 359.277351 
L 855.190339 356.733202 
L 857.130156 357.447016 
L 857.130156 357.447016 
" clip-path="url(#p5efa303aa8)" style="fill: none; stroke: #2563eb; stroke-width: 0.8; stroke-linecap: square"/>
   </g>
   <g id="line2d_56">
    <path d="M 53.65 244.805015 
L 56.805671 227.593202 
L 59.961341 221.080281 
L 63.117012 219.574626 
L 66.272683 221.417835 
L 69.428353 224.027948 
L 72.584024 226.875113 
L 75.739694 229.276903 
L 78.895365 230.849221 
L 82.051036 231.660335 
L 85.206706 231.337187 
L 88.362377 233.655637 
L 91.518048 237.66751 
L 94.673718 239.688753 
L 97.829389 240.451001 
L 100.985059 239.526907 
L 104.14073 240.728888 
L 107.296401 242.916029 
L 110.452071 245.528635 
L 113.607742 248.594083 
L 116.763413 251.17286 
L 119.919083 251.864523 
L 123.074754 254.044244 
L 126.230424 257.462741 
L 129.386095 259.582451 
L 135.697436 262.994082 
L 138.853107 265.265966 
L 142.008778 267.327688 
L 145.164448 268.424664 
L 151.475789 271.053381 
L 154.63146 272.177947 
L 157.787131 273.820118 
L 160.942801 276.317131 
L 164.098472 279.309595 
L 167.254143 281.082658 
L 173.565484 282.405929 
L 176.721154 283.357367 
L 179.876825 283.287369 
L 183.032496 283.377865 
L 186.188166 283.899282 
L 189.343837 285.075553 
L 192.499508 286.849162 
L 195.655178 287.040315 
L 198.810849 287.722244 
L 201.966519 289.462205 
L 205.12219 289.785394 
L 208.277861 290.769375 
L 211.433531 292.149106 
L 214.589202 292.042276 
L 217.744873 291.806696 
L 220.900543 292.389823 
L 224.056214 291.792255 
L 227.211884 293.078763 
L 233.523226 294.777365 
L 239.834567 294.960418 
L 242.990238 294.352854 
L 246.145908 293.408555 
L 249.301579 292.60343 
L 255.61292 292.678428 
L 258.768591 293.337506 
L 261.924261 293.777658 
L 265.079932 294.581322 
L 271.391273 297.702815 
L 274.546944 298.673662 
L 277.702614 298.990428 
L 280.858285 300.190789 
L 287.169626 302.922292 
L 290.325297 304.17846 
L 293.480968 306.251441 
L 296.636638 306.69799 
L 299.792309 306.723309 
L 302.947979 308.444519 
L 306.10365 309.243305 
L 312.414991 309.291696 
L 315.570662 310.460098 
L 318.726333 311.169696 
L 321.882003 312.472632 
L 325.037674 313.646989 
L 334.504686 315.314388 
L 337.660356 314.583646 
L 340.816027 314.815151 
L 343.971698 315.401946 
L 347.127368 315.825219 
L 350.283039 315.980274 
L 353.438709 317.658417 
L 356.59438 318.735758 
L 359.750051 319.083777 
L 362.905721 319.093311 
L 366.061392 318.98326 
L 369.217062 319.141613 
L 372.372733 319.601596 
L 375.528404 321.419609 
L 378.684074 322.051255 
L 381.839745 321.828978 
L 384.995416 319.974019 
L 391.306757 319.920207 
L 394.462427 320.710928 
L 397.618098 321.375292 
L 400.773769 321.052507 
L 403.929439 320.973257 
L 407.08511 321.87437 
L 413.396451 323.14157 
L 416.552122 323.339958 
L 419.707793 324.271071 
L 422.863463 324.520743 
L 426.019134 323.179934 
L 429.174804 322.89355 
L 432.330475 324.010744 
L 435.486146 324.423646 
L 438.641816 323.940663 
L 441.797487 326.131084 
L 444.953158 327.332568 
L 448.108828 326.506088 
L 451.264499 325.483782 
L 454.420169 325.935157 
L 457.57584 325.394807 
L 460.731511 325.642481 
L 463.887181 326.689447 
L 467.042852 327.530882 
L 470.198523 327.273877 
L 473.354193 326.839484 
L 476.509864 326.844036 
L 479.665534 327.981867 
L 482.821205 328.851466 
L 485.976876 327.93259 
L 489.132546 325.789458 
L 492.288217 325.242786 
L 495.443888 326.873125 
L 498.599558 327.47399 
L 501.755229 329.192305 
L 504.910899 329.972374 
L 508.06657 329.934321 
L 514.377911 328.905177 
L 517.533582 328.071469 
L 523.844923 330.036505 
L 527.000594 329.956497 
L 530.156264 329.122112 
L 533.311935 329.073429 
L 536.467606 330.024048 
L 539.623276 332.729978 
L 542.778947 334.156349 
L 545.934618 332.550288 
L 549.090288 331.237065 
L 552.245959 330.722536 
L 555.401629 330.333734 
L 558.5573 330.929104 
L 561.712971 333.186575 
L 564.868641 333.298568 
L 568.024312 333.94723 
L 577.491324 332.406731 
L 580.646994 332.986837 
L 583.802665 335.425802 
L 586.958336 335.213099 
L 590.114006 335.475632 
L 593.269677 336.054974 
L 596.425347 336.911446 
L 599.581018 337.113895 
L 602.736689 337.130293 
L 605.892359 336.523392 
L 609.04803 335.369113 
L 612.203701 334.675827 
L 615.359371 335.556399 
L 618.515042 334.933583 
L 621.670713 335.56047 
L 624.826383 336.833823 
L 627.982054 340.150683 
L 631.137724 340.416419 
L 634.293395 339.970496 
L 637.449066 339.744188 
L 640.604736 340.267296 
L 643.760407 340.982041 
L 646.916078 341.183873 
L 650.071748 341.021158 
L 653.227419 340.124628 
L 656.383089 341.025832 
L 659.53876 342.309155 
L 662.694431 342.885525 
L 665.850101 342.085442 
L 669.005772 341.696174 
L 675.317113 343.549816 
L 678.472784 344.101029 
L 681.628454 344.368352 
L 684.784125 344.256899 
L 687.939796 344.688669 
L 691.095466 344.605314 
L 694.251137 344.236329 
L 697.406808 344.010105 
L 700.562478 344.988938 
L 703.718149 344.40645 
L 706.873819 344.404224 
L 713.185161 346.546592 
L 716.340831 347.651372 
L 719.496502 347.207828 
L 722.652173 347.838762 
L 725.807843 347.345184 
L 728.963514 347.878261 
L 732.119184 347.719836 
L 735.274855 348.543795 
L 738.430526 350.333746 
L 744.741867 350.310793 
L 747.897537 352.297178 
L 751.053208 353.272386 
L 754.208879 353.556603 
L 757.364549 354.081621 
L 760.52022 352.087791 
L 763.675891 352.44118 
L 766.831561 351.688015 
L 769.987232 348.538534 
L 773.142902 348.986487 
L 776.298573 354.026176 
L 779.454244 352.715148 
L 782.609914 353.112849 
L 785.765585 355.021819 
L 792.076926 355.735615 
L 795.232597 357.331208 
L 798.388268 357.436619 
L 801.543938 356.792547 
L 804.699609 356.564307 
L 807.855279 356.78342 
L 811.01095 357.225888 
L 814.166621 357.83694 
L 817.322291 358.186116 
L 820.477962 358.806699 
L 823.633633 358.638529 
L 826.789303 357.828569 
L 829.944974 360.598138 
L 833.100644 358.247986 
L 836.256315 356.628508 
L 839.411986 357.684467 
L 842.567656 360.787512 
L 845.723327 362.80642 
L 848.878998 364.070058 
L 852.034668 360.590091 
L 855.190339 358.054757 
L 857.130156 358.630211 
L 857.130156 358.630211 
" clip-path="url(#p5efa303aa8)" style="fill: none; stroke: #dc2626; stroke-width: 0.8; stroke-linecap: square"/>
   </g>
   <g id="patch_9">
    <path d="M 53.65 386.433437 
L 53.65 211.525781 
" style="fill: none; stroke: #000000; stroke-width: 0.8; stroke-linejoin: miter; stroke-linecap: square"/>
   </g>
   <g id="patch_10">
    <path d="M 842.567656 386.433437 
L 842.567656 211.525781 
" style="fill: none; stroke: #000000; stroke-width: 0.8; stroke-linejoin: miter; stroke-linecap: square"/>
   </g>
   <g id="patch_11">
    <path d="M 53.65 386.433437 
L 842.567656 386.433437 
" style="fill: none; stroke: #000000; stroke-width: 0.8; stroke-linejoin: miter; stroke-linecap: square"/>
   </g>
   <g id="patch_12">
    <path d="M 53.65 211.525781 
L 842.567656 211.525781 
" style="fill: none; stroke: #000000; stroke-width: 0.8; stroke-linejoin: miter; stroke-linecap: square"/>
   </g>
   <g id="legend_2">
    <g id="patch_13">
     <path d="M 763.131406 245.727187 
L 836.267656 245.727187 
Q 838.067656 245.727187 838.067656 243.927187 
L 838.067656 217.825781 
Q 838.067656 216.025781 836.267656 216.025781 
L 763.131406 216.025781 
Q 761.331406 216.025781 761.331406 217.825781 
L 761.331406 243.927187 
Q 761.331406 245.727187 763.131406 245.727187 
z
" style="fill: #ffffff; opacity: 0.8; stroke: #cccccc; stroke-linejoin: miter"/>
    </g>
    <g id="line2d_57">
     <path d="M 764.931406 223.314375 
L 773.931406 223.314375 
L 782.931406 223.314375 
" style="fill: none; stroke: #2563eb; stroke-width: 0.8; stroke-linecap: square"/>
    </g>
    <g id="text_26">
     <!-- Hann -->
     <g transform="translate(790.131406 226.464375) scale(0.09 -0.09)">
      <use xlink:href="#DejaVuSans-2b"/>
      <use xlink:href="#DejaVuSans-44" transform="translate(75.203125 0)"/>
      <use xlink:href="#DejaVuSans-51" transform="translate(136.484375 0)"/>
      <use xlink:href="#DejaVuSans-51" transform="translate(199.859375 0)"/>
     </g>
    </g>
    <g id="line2d_58">
     <path d="M 764.931406 236.815078 
L 773.931406 236.815078 
L 782.931406 236.815078 
" style="fill: none; stroke: #dc2626; stroke-width: 0.8; stroke-linecap: square"/>
    </g>
    <g id="text_27">
     <!-- Blackman -->
     <g transform="translate(790.131406 239.965078) scale(0.09 -0.09)">
      <use xlink:href="#DejaVuSans-25"/>
      <use xlink:href="#DejaVuSans-4f" transform="translate(68.609375 0)"/>
      <use xlink:href="#DejaVuSans-44" transform="translate(96.390625 0)"/>
      <use xlink:href="#DejaVuSans-46" transform="translate(157.671875 0)"/>
      <use xlink:href="#DejaVuSans-4e" transform="translate(212.65625 0)"/>
      <use xlink:href="#DejaVuSans-50" transform="translate(270.5625 0)"/>
      <use xlink:href="#DejaVuSans-44" transform="translate(367.96875 0)"/>
      <use xlink:href="#DejaVuSans-51" transform="translate(429.25 0)"/>
     </g>
    </g>
   </g>
  </g>
 </g>
 <defs>
  <clipPath id="p9d14b349cc">
   <rect x="53.65" y="22.318125" width="788.917656" height="174.907656"/>
  </clipPath>
  <clipPath id="p5efa303aa8">
   <rect x="53.65" y="211.525781" width="788.917656" height="174.907656"/>
  </clipPath>
 </defs>
</svg>
