<?xml version="1.0" encoding="utf-8" standalone="no"?>
<!DOCTYPE svg PUBLIC "-//W3C//DTD SVG 1.1//EN"
  "http://www.w3.org/Graphics/SVG/1.1/DTD/svg11.dtd">
<svg xmlns:xlink="http://www.w3.org/1999/xlink" width="856.188906pt" height="424.633437pt" viewBox="0 0 856.188906 424.633437" xmlns="http://www.w3.org/2000/svg" version="1.1">
 <metadata>
  <rdf:RDF xmlns:dc="http://purl.org/dc/elements/1.1/" xmlns:cc="http://creativecommons.org/ns#" xmlns:rdf="http://www.w3.org/1999/02/22-rdf-syntax-ns#">
   <cc:Work>
    <dc:type rdf:resource="http://purl.org/dc/dcmitype/StillImage"/>
    <dc:date>2026-06-21T15:32:56.287103</dc:date>
    <dc:format>image/svg+xml</dc:format>
    <dc:creator>
     <cc:Agent>
      <dc:title>Matplotlib v3.11.0, https://matplotlib.org/</dc:title>
     </cc:Agent>
    </dc:creator>
   </cc:Work>
  </rdf:RDF>
 </metadata>
 <defs>
  <style type="text/css">*{stroke-linejoin: round; stroke-linecap: butt}</style>
 </defs>
 <g id="figure_1">
  <g id="patch_1">
   <path d="M 0 424.633437 
L 856.188906 424.633437 
L 856.188906 0 
L 0 0 
z
" style="fill: #ffffff"/>
  </g>
  <g id="axes_1">
   <g id="patch_2">
    <path d="M 53.65 197.225781 
L 845.807656 197.225781 
L 845.807656 22.318125 
L 53.65 22.318125 
z
" style="fill: #ffffff"/>
   </g>
   <g id="matplotlib.axis_1">
    <g id="xtick_1">
     <g id="line2d_1">
      <path d="M 53.65 197.225781 
L 53.65 22.318125 
" clip-path="url(#p6790862ae8)" style="fill: none; stroke: #b0b0b0; stroke-opacity: 0.3; stroke-width: 0.8; stroke-linecap: square"/>
     </g>
     <g id="line2d_2">
      <defs>
       <path id="m6ca1e4a3be" d="M 0 0 
L 0 3.5 
" style="stroke: #000000; stroke-width: 0.8"/>
      </defs>
      <g>
       <use xlink:href="#m6ca1e4a3be" x="53.65" y="197.225781" style="stroke: #000000; stroke-width: 0.8"/>
      </g>
     </g>
    </g>
    <g id="xtick_2">
     <g id="line2d_3">
      <path d="M 152.669707 197.225781 
L 152.669707 22.318125 
" clip-path="url(#p6790862ae8)" style="fill: none; stroke: #b0b0b0; stroke-opacity: 0.3; stroke-width: 0.8; stroke-linecap: square"/>
     </g>
     <g id="line2d_4">
      <g>
       <use xlink:href="#m6ca1e4a3be" x="152.669707" y="197.225781" style="stroke: #000000; stroke-width: 0.8"/>
      </g>
     </g>
    </g>
    <g id="xtick_3">
     <g id="line2d_5">
      <path d="M 251.689414 197.225781 
L 251.689414 22.318125 
" clip-path="url(#p6790862ae8)" style="fill: none; stroke: #b0b0b0; stroke-opacity: 0.3; stroke-width: 0.8; stroke-linecap: square"/>
     </g>
     <g id="line2d_6">
      <g>
       <use xlink:href="#m6ca1e4a3be" x="251.689414" y="197.225781" style="stroke: #000000; stroke-width: 0.8"/>
      </g>
     </g>
    </g>
    <g id="xtick_4">
     <g id="line2d_7">
      <path d="M 350.709121 197.225781 
L 350.709121 22.318125 
" clip-path="url(#p6790862ae8)" style="fill: none; stroke: #b0b0b0; stroke-opacity: 0.3; stroke-width: 0.8; stroke-linecap: square"/>
     </g>
     <g id="line2d_8">
      <g>
       <use xlink:href="#m6ca1e4a3be" x="350.709121" y="197.225781" style="stroke: #000000; stroke-width: 0.8"/>
      </g>
     </g>
    </g>
    <g id="xtick_5">
     <g id="line2d_9">
      <path d="M 449.728828 197.225781 
L 449.728828 22.318125 
" clip-path="url(#p6790862ae8)" style="fill: none; stroke: #b0b0b0; stroke-opacity: 0.3; stroke-width: 0.8; stroke-linecap: square"/>
     </g>
     <g id="line2d_10">
      <g>
       <use xlink:href="#m6ca1e4a3be" x="449.728828" y="197.225781" style="stroke: #000000; stroke-width: 0.8"/>
      </g>
     </g>
    </g>
    <g id="xtick_6">
     <g id="line2d_11">
      <path d="M 548.748535 197.225781 
L 548.748535 22.318125 
" clip-path="url(#p6790862ae8)" style="fill: none; stroke: #b0b0b0; stroke-opacity: 0.3; stroke-width: 0.8; stroke-linecap: square"/>
     </g>
     <g id="line2d_12">
      <g>
       <use xlink:href="#m6ca1e4a3be" x="548.748535" y="197.225781" style="stroke: #000000; stroke-width: 0.8"/>
      </g>
     </g>
    </g>
    <g id="xtick_7">
     <g id="line2d_13">
      <path d="M 647.768242 197.225781 
L 647.768242 22.318125 
" clip-path="url(#p6790862ae8)" style="fill: none; stroke: #b0b0b0; stroke-opacity: 0.3; stroke-width: 0.8; stroke-linecap: square"/>
     </g>
     <g id="line2d_14">
      <g>
       <use xlink:href="#m6ca1e4a3be" x="647.768242" y="197.225781" style="stroke: #000000; stroke-width: 0.8"/>
      </g>
     </g>
    </g>
    <g id="xtick_8">
     <g id="line2d_15">
      <path d="M 746.787949 197.225781 
L 746.787949 22.318125 
" clip-path="url(#p6790862ae8)" style="fill: none; stroke: #b0b0b0; stroke-opacity: 0.3; stroke-width: 0.8; stroke-linecap: square"/>
     </g>
     <g id="line2d_16">
      <g>
       <use xlink:href="#m6ca1e4a3be" x="746.787949" y="197.225781" style="stroke: #000000; stroke-width: 0.8"/>
      </g>
     </g>
    </g>
    <g id="xtick_9">
     <g id="line2d_17">
      <path d="M 845.807656 197.225781 
L 845.807656 22.318125 
" clip-path="url(#p6790862ae8)" style="fill: none; stroke: #b0b0b0; stroke-opacity: 0.3; stroke-width: 0.8; stroke-linecap: square"/>
     </g>
     <g id="line2d_18">
      <g>
       <use xlink:href="#m6ca1e4a3be" x="845.807656" y="197.225781" style="stroke: #000000; stroke-width: 0.8"/>
      </g>
     </g>
    </g>
   </g>
   <g id="matplotlib.axis_2">
    <g id="ytick_1">
     <g id="line2d_19">
      <path d="M 53.65 189.275582 
L 845.807656 189.275582 
" clip-path="url(#p6790862ae8)" style="fill: none; stroke: #b0b0b0; stroke-opacity: 0.3; stroke-width: 0.8; stroke-linecap: square"/>
     </g>
     <g id="line2d_20">
      <defs>
       <path id="m596551dbd6" d="M 0 0 
L -3.5 0 
" style="stroke: #000000; stroke-width: 0.8"/>
      </defs>
      <g>
       <use xlink:href="#m596551dbd6" x="53.65" y="189.275582" style="stroke: #000000; stroke-width: 0.8"/>
      </g>
     </g>
     <g id="text_1">
      <!-- 0 -->
      <g transform="translate(40.2875 193.07441) scale(0.1 -0.1)">
       <defs>
        <path id="DejaVuSans-13" d="M 2034 4250 
Q 1547 4250 1301 3770 
Q 1056 3291 1056 2328 
Q 1056 1369 1301 889 
Q 1547 409 2034 409 
Q 2525 409 2770 889 
Q 3016 1369 3016 2328 
Q 3016 3291 2770 3770 
Q 2525 4250 2034 4250 
z
M 2034 4750 
Q 2819 4750 3233 4129 
Q 3647 3509 3647 2328 
Q 3647 1150 3233 529 
Q 2819 -91 2034 -91 
Q 1250 -91 836 529 
Q 422 1150 422 2328 
Q 422 3509 836 4129 
Q 1250 4750 2034 4750 
z
" transform="scale(0.015625)"/>
       </defs>
       <use xlink:href="#DejaVuSans-13"/>
      </g>
     </g>
    </g>
    <g id="ytick_2">
     <g id="line2d_21">
      <path d="M 53.65 145.962964 
L 845.807656 145.962964 
" clip-path="url(#p6790862ae8)" style="fill: none; stroke: #b0b0b0; stroke-opacity: 0.3; stroke-width: 0.8; stroke-linecap: square"/>
     </g>
     <g id="line2d_22">
      <g>
       <use xlink:href="#m596551dbd6" x="53.65" y="145.962964" style="stroke: #000000; stroke-width: 0.8"/>
      </g>
     </g>
     <g id="text_2">
      <!-- 500 -->
      <g transform="translate(27.5625 149.761792) scale(0.1 -0.1)">
       <defs>
        <path id="DejaVuSans-18" d="M 691 4666 
L 3169 4666 
L 3169 4134 
L 1269 4134 
L 1269 2991 
Q 1406 3038 1543 3061 
Q 1681 3084 1819 3084 
Q 2600 3084 3056 2656 
Q 3513 2228 3513 1497 
Q 3513 744 3044 326 
Q 2575 -91 1722 -91 
Q 1428 -91 1123 -41 
Q 819 9 494 109 
L 494 744 
Q 775 591 1075 516 
Q 1375 441 1709 441 
Q 2250 441 2565 725 
Q 2881 1009 2881 1497 
Q 2881 1984 2565 2268 
Q 2250 2553 1709 2553 
Q 1456 2553 1204 2497 
Q 953 2441 691 2322 
L 691 4666 
z
" transform="scale(0.015625)"/>
       </defs>
       <use xlink:href="#DejaVuSans-18"/>
       <use xlink:href="#DejaVuSans-13" transform="translate(63.625 0)"/>
       <use xlink:href="#DejaVuSans-13" transform="translate(127.25 0)"/>
      </g>
     </g>
    </g>
    <g id="ytick_3">
     <g id="line2d_23">
      <path d="M 53.65 102.650346 
L 845.807656 102.650346 
" clip-path="url(#p6790862ae8)" style="fill: none; stroke: #b0b0b0; stroke-opacity: 0.3; stroke-width: 0.8; stroke-linecap: square"/>
     </g>
     <g id="line2d_24">
      <g>
       <use xlink:href="#m596551dbd6" x="53.65" y="102.650346" style="stroke: #000000; stroke-width: 0.8"/>
      </g>
     </g>
     <g id="text_3">
      <!-- 1000 -->
      <g transform="translate(21.2 106.449174) scale(0.1 -0.1)">
       <defs>
        <path id="DejaVuSans-14" d="M 794 531 
L 1825 531 
L 1825 4091 
L 703 3866 
L 703 4441 
L 1819 4666 
L 2450 4666 
L 2450 531 
L 3481 531 
L 3481 0 
L 794 0 
L 794 531 
z
" transform="scale(0.015625)"/>
       </defs>
       <use xlink:href="#DejaVuSans-14"/>
       <use xlink:href="#DejaVuSans-13" transform="translate(63.625 0)"/>
       <use xlink:href="#DejaVuSans-13" transform="translate(127.25 0)"/>
       <use xlink:href="#DejaVuSans-13" transform="translate(190.875 0)"/>
      </g>
     </g>
    </g>
    <g id="ytick_4">
     <g id="line2d_25">
      <path d="M 53.65 59.337728 
L 845.807656 59.337728 
" clip-path="url(#p6790862ae8)" style="fill: none; stroke: #b0b0b0; stroke-opacity: 0.3; stroke-width: 0.8; stroke-linecap: square"/>
     </g>
     <g id="line2d_26">
      <g>
       <use xlink:href="#m596551dbd6" x="53.65" y="59.337728" style="stroke: #000000; stroke-width: 0.8"/>
      </g>
     </g>
     <g id="text_4">
      <!-- 1500 -->
      <g transform="translate(21.2 63.136556) scale(0.1 -0.1)">
       <use xlink:href="#DejaVuSans-14"/>
       <use xlink:href="#DejaVuSans-18" transform="translate(63.625 0)"/>
       <use xlink:href="#DejaVuSans-13" transform="translate(127.25 0)"/>
       <use xlink:href="#DejaVuSans-13" transform="translate(190.875 0)"/>
      </g>
     </g>
    </g>
    <g id="text_5">
     <!-- PSD (µV²/Hz) -->
     <g transform="translate(14.797656 141.976641) rotate(-90) scale(0.1 -0.1)">
      <defs>
       <path id="DejaVuSans-33" d="M 1259 4147 
L 1259 2394 
L 2053 2394 
Q 2494 2394 2734 2622 
Q 2975 2850 2975 3272 
Q 2975 3691 2734 3919 
Q 2494 4147 2053 4147 
L 1259 4147 
z
M 628 4666 
L 2053 4666 
Q 2838 4666 3239 4311 
Q 3641 3956 3641 3272 
Q 3641 2581 3239 2228 
Q 2838 1875 2053 1875 
L 1259 1875 
L 1259 0 
L 628 0 
L 628 4666 
z
" transform="scale(0.015625)"/>
       <path id="DejaVuSans-36" d="M 3425 4513 
L 3425 3897 
Q 3066 4069 2747 4153 
Q 2428 4238 2131 4238 
Q 1616 4238 1336 4038 
Q 1056 3838 1056 3469 
Q 1056 3159 1242 3001 
Q 1428 2844 1947 2747 
L 2328 2669 
Q 3034 2534 3370 2195 
Q 3706 1856 3706 1288 
Q 3706 609 3251 259 
Q 2797 -91 1919 -91 
Q 1588 -91 1214 -16 
Q 841 59 441 206 
L 441 856 
Q 825 641 1194 531 
Q 1563 422 1919 422 
Q 2459 422 2753 634 
Q 3047 847 3047 1241 
Q 3047 1584 2836 1778 
Q 2625 1972 2144 2069 
L 1759 2144 
Q 1053 2284 737 2584 
Q 422 2884 422 3419 
Q 422 4038 858 4394 
Q 1294 4750 2059 4750 
Q 2388 4750 2728 4690 
Q 3069 4631 3425 4513 
z
" transform="scale(0.015625)"/>
       <path id="DejaVuSans-27" d="M 1259 4147 
L 1259 519 
L 2022 519 
Q 2988 519 3436 956 
Q 3884 1394 3884 2338 
Q 3884 3275 3436 3711 
Q 2988 4147 2022 4147 
L 1259 4147 
z
M 628 4666 
L 1925 4666 
Q 3281 4666 3915 4102 
Q 4550 3538 4550 2338 
Q 4550 1131 3912 565 
Q 3275 0 1925 0 
L 628 0 
L 628 4666 
z
" transform="scale(0.015625)"/>
       <path id="DejaVuSans-3" transform="scale(0.015625)"/>
       <path id="DejaVuSans-b" d="M 1984 4856 
Q 1566 4138 1362 3434 
Q 1159 2731 1159 2009 
Q 1159 1288 1364 580 
Q 1569 -128 1984 -844 
L 1484 -844 
Q 1016 -109 783 600 
Q 550 1309 550 2009 
Q 550 2706 781 3412 
Q 1013 4119 1484 4856 
L 1984 4856 
z
" transform="scale(0.015625)"/>
       <path id="DejaVuSans-77" d="M 544 -1331 
L 544 3500 
L 1119 3500 
L 1119 1325 
Q 1119 872 1334 640 
Q 1550 409 1972 409 
Q 2434 409 2667 671 
Q 2900 934 2900 1459 
L 2900 3500 
L 3475 3500 
L 3475 806 
Q 3475 619 3529 530 
Q 3584 441 3700 441 
Q 3728 441 3778 458 
Q 3828 475 3916 513 
L 3916 50 
Q 3788 -22 3673 -56 
Q 3559 -91 3450 -91 
Q 3234 -91 3106 31 
Q 2978 153 2931 403 
Q 2775 156 2548 32 
Q 2322 -91 2016 -91 
Q 1697 -91 1473 31 
Q 1250 153 1119 397 
L 1119 -1331 
L 544 -1331 
z
" transform="scale(0.015625)"/>
       <path id="DejaVuSans-39" d="M 1831 0 
L 50 4666 
L 709 4666 
L 2188 738 
L 3669 4666 
L 4325 4666 
L 2547 0 
L 1831 0 
z
" transform="scale(0.015625)"/>
       <path id="DejaVuSans-74" d="M 838 2444 
L 2163 2444 
L 2163 2088 
L 294 2088 
L 294 2431 
Q 400 2528 597 2703 
Q 1672 3656 1672 3950 
Q 1672 4156 1509 4282 
Q 1347 4409 1081 4409 
Q 919 4409 728 4354 
Q 538 4300 313 4191 
L 313 4575 
Q 553 4663 761 4706 
Q 969 4750 1147 4750 
Q 1600 4750 1872 4544 
Q 2144 4338 2144 4000 
Q 2144 3566 1109 2678 
Q 934 2528 838 2444 
z
" transform="scale(0.015625)"/>
       <path id="DejaVuSans-12" d="M 1625 4666 
L 2156 4666 
L 531 -594 
L 0 -594 
L 1625 4666 
z
" transform="scale(0.015625)"/>
       <path id="DejaVuSans-2b" d="M 628 4666 
L 1259 4666 
L 1259 2753 
L 3553 2753 
L 3553 4666 
L 4184 4666 
L 4184 0 
L 3553 0 
L 3553 2222 
L 1259 2222 
L 1259 0 
L 628 0 
L 628 4666 
z
" transform="scale(0.015625)"/>
       <path id="DejaVuSans-5d" d="M 353 3500 
L 3084 3500 
L 3084 2975 
L 922 459 
L 3084 459 
L 3084 0 
L 275 0 
L 275 525 
L 2438 3041 
L 353 3041 
L 353 3500 
z
" transform="scale(0.015625)"/>
       <path id="DejaVuSans-c" d="M 513 4856 
L 1013 4856 
Q 1481 4119 1714 3412 
Q 1947 2706 1947 2009 
Q 1947 1309 1714 600 
Q 1481 -109 1013 -844 
L 513 -844 
Q 928 -128 1133 580 
Q 1338 1288 1338 2009 
Q 1338 2731 1133 3434 
Q 928 4138 513 4856 
z
" transform="scale(0.015625)"/>
      </defs>
      <use xlink:href="#DejaVuSans-33"/>
      <use xlink:href="#DejaVuSans-36" transform="translate(60.296875 0)"/>
      <use xlink:href="#DejaVuSans-27" transform="translate(123.78125 0)"/>
      <use xlink:href="#DejaVuSans-3" transform="translate(200.78125 0)"/>
      <use xlink:href="#DejaVuSans-b" transform="translate(232.5625 0)"/>
      <use xlink:href="#DejaVuSans-77" transform="translate(271.578125 0)"/>
      <use xlink:href="#DejaVuSans-39" transform="translate(335.203125 0)"/>
      <use xlink:href="#DejaVuSans-74" transform="translate(403.609375 0)"/>
      <use xlink:href="#DejaVuSans-12" transform="translate(443.703125 0)"/>
      <use xlink:href="#DejaVuSans-2b" transform="translate(477.390625 0)"/>
      <use xlink:href="#DejaVuSans-5d" transform="translate(552.59375 0)"/>
      <use xlink:href="#DejaVuSans-c" transform="translate(605.078125 0)"/>
     </g>
    </g>
   </g>
   <g id="line2d_27">
    <path d="M 53.65 186.361829 
L 58.600985 180.050953 
L 63.551971 171.1227 
L 68.502956 155.930335 
L 73.453941 125.145754 
L 78.404927 91.350117 
L 83.355912 86.631269 
L 88.306897 68.607127 
L 93.257883 49.962863 
L 98.208868 53.835373 
L 103.159854 63.326368 
L 108.110839 51.435772 
L 113.061824 30.268473 
L 118.01281 62.872552 
L 122.963795 47.245631 
L 127.91478 47.299049 
L 132.865766 73.747124 
L 137.816751 80.944202 
L 142.767736 86.758806 
L 147.718722 94.989935 
L 152.669707 94.435098 
L 157.620692 97.700587 
L 162.571678 89.811419 
L 167.522663 107.320479 
L 172.473648 127.619813 
L 177.424634 119.551778 
L 182.375619 124.339546 
L 187.326604 124.408652 
L 192.27759 120.955218 
L 197.228575 126.15641 
L 202.179561 138.024326 
L 207.130546 135.206058 
L 212.081531 133.57203 
L 217.032517 139.417664 
L 221.983502 138.870401 
L 226.934487 144.421595 
L 231.885473 137.908921 
L 236.836458 133.866956 
L 241.787443 132.817808 
L 246.738429 134.670904 
L 251.689414 133.554077 
L 256.640399 131.237815 
L 261.591385 132.04402 
L 266.54237 136.70085 
L 271.493355 143.888991 
L 276.444341 153.446325 
L 281.395326 161.160568 
L 286.346312 160.721748 
L 291.297297 160.62275 
L 296.248282 162.080599 
L 306.150253 161.393239 
L 311.101238 161.370439 
L 316.052224 164.719029 
L 321.003209 166.49955 
L 325.954194 165.859664 
L 330.90518 166.855393 
L 335.856165 168.361453 
L 340.80715 167.861974 
L 345.758136 161.858324 
L 350.709121 159.13678 
L 355.660106 163.166202 
L 360.611092 165.288563 
L 365.562077 165.714675 
L 370.513063 166.512391 
L 375.464048 167.849074 
L 380.415033 168.567043 
L 385.366019 165.306455 
L 390.317004 165.68371 
L 395.267989 172.081928 
L 400.218975 172.09988 
L 405.16996 172.234215 
L 410.120945 173.628103 
L 415.071931 173.74423 
L 420.022916 174.791677 
L 424.973901 177.171374 
L 429.924887 177.345271 
L 434.875872 179.398978 
L 439.826857 179.349157 
L 444.777843 178.303483 
L 449.728828 180.75907 
L 459.630799 181.42051 
L 464.581784 180.294625 
L 469.53277 180.471115 
L 474.483755 178.326863 
L 479.43474 179.830994 
L 484.385726 181.999885 
L 489.336711 181.59136 
L 494.287696 182.286389 
L 499.238682 183.238735 
L 504.189667 183.429489 
L 509.140652 184.316559 
L 519.042623 183.875931 
L 523.993608 184.505144 
L 528.944594 184.99858 
L 533.895579 184.861451 
L 538.846564 184.336001 
L 543.79755 184.806565 
L 553.699521 185.426934 
L 558.650506 186.008852 
L 563.601491 185.700848 
L 573.503462 185.692297 
L 578.454447 185.466048 
L 583.405433 185.937319 
L 588.356418 186.725232 
L 593.307403 186.438096 
L 603.209374 186.979251 
L 608.160359 186.738734 
L 613.111345 186.917884 
L 618.06233 186.86854 
L 623.013315 187.018206 
L 632.915286 187.108203 
L 637.866271 187.244916 
L 642.817257 187.0879 
L 647.768242 187.156815 
L 652.719228 187.524724 
L 657.670213 187.644508 
L 662.621198 187.558323 
L 667.572184 187.723471 
L 682.42514 187.533653 
L 687.376125 187.662102 
L 692.32711 187.675873 
L 697.278096 187.872077 
L 717.082037 188.006648 
L 722.033022 188.052297 
L 726.984008 188.292897 
L 731.934993 188.335601 
L 736.885979 188.262427 
L 741.836964 188.321797 
L 746.787949 188.253502 
L 761.640905 188.424726 
L 771.542876 188.479546 
L 781.444847 188.455383 
L 845.807656 188.595803 
L 850.758642 188.545644 
L 850.758642 188.545644 
" clip-path="url(#p6790862ae8)" style="fill: none; stroke: #1f77b4; stroke-width: 0.5; stroke-linecap: square"/>
   </g>
   <g id="patch_3">
    <path d="M 53.65 197.225781 
L 53.65 22.318125 
" style="fill: none; stroke: #000000; stroke-width: 0.8; stroke-linejoin: miter; stroke-linecap: square"/>
   </g>
   <g id="patch_4">
    <path d="M 845.807656 197.225781 
L 845.807656 22.318125 
" style="fill: none; stroke: #000000; stroke-width: 0.8; stroke-linejoin: miter; stroke-linecap: square"/>
   </g>
   <g id="patch_5">
    <path d="M 53.65 197.225781 
L 845.807656 197.225781 
" style="fill: none; stroke: #000000; stroke-width: 0.8; stroke-linejoin: miter; stroke-linecap: square"/>
   </g>
   <g id="patch_6">
    <path d="M 53.65 22.318125 
L 845.807656 22.318125 
" style="fill: none; stroke: #000000; stroke-width: 0.8; stroke-linejoin: miter; stroke-linecap: square"/>
   </g>
   <g id="text_6">
    <!-- Channel CZ - Delta/theta zoom (20 s segments, Δf = 0.050 Hz) -->
    <g transform="translate(260.540391 16.318125) scale(0.12 -0.12)">
     <defs>
      <path id="DejaVuSans-26" d="M 4122 4306 
L 4122 3641 
Q 3803 3938 3442 4084 
Q 3081 4231 2675 4231 
Q 1875 4231 1450 3742 
Q 1025 3253 1025 2328 
Q 1025 1406 1450 917 
Q 1875 428 2675 428 
Q 3081 428 3442 575 
Q 3803 722 4122 1019 
L 4122 359 
Q 3791 134 3420 21 
Q 3050 -91 2638 -91 
Q 1578 -91 968 557 
Q 359 1206 359 2328 
Q 359 3453 968 4101 
Q 1578 4750 2638 4750 
Q 3056 4750 3426 4639 
Q 3797 4528 4122 4306 
z
" transform="scale(0.015625)"/>
      <path id="DejaVuSans-4b" d="M 3513 2113 
L 3513 0 
L 2938 0 
L 2938 2094 
Q 2938 2591 2744 2837 
Q 2550 3084 2163 3084 
Q 1697 3084 1428 2787 
Q 1159 2491 1159 1978 
L 1159 0 
L 581 0 
L 581 4863 
L 1159 4863 
L 1159 2956 
Q 1366 3272 1645 3428 
Q 1925 3584 2291 3584 
Q 2894 3584 3203 3211 
Q 3513 2838 3513 2113 
z
" transform="scale(0.015625)"/>
      <path id="DejaVuSans-44" d="M 2194 1759 
Q 1497 1759 1228 1600 
Q 959 1441 959 1056 
Q 959 750 1161 570 
Q 1363 391 1709 391 
Q 2188 391 2477 730 
Q 2766 1069 2766 1631 
L 2766 1759 
L 2194 1759 
z
M 3341 1997 
L 3341 0 
L 2766 0 
L 2766 531 
Q 2569 213 2275 61 
Q 1981 -91 1556 -91 
Q 1019 -91 701 211 
Q 384 513 384 1019 
Q 384 1609 779 1909 
Q 1175 2209 1959 2209 
L 2766 2209 
L 2766 2266 
Q 2766 2663 2505 2880 
Q 2244 3097 1772 3097 
Q 1472 3097 1187 3025 
Q 903 2953 641 2809 
L 641 3341 
Q 956 3463 1253 3523 
Q 1550 3584 1831 3584 
Q 2591 3584 2966 3190 
Q 3341 2797 3341 1997 
z
" transform="scale(0.015625)"/>
      <path id="DejaVuSans-51" d="M 3513 2113 
L 3513 0 
L 2938 0 
L 2938 2094 
Q 2938 2591 2744 2837 
Q 2550 3084 2163 3084 
Q 1697 3084 1428 2787 
Q 1159 2491 1159 1978 
L 1159 0 
L 581 0 
L 581 3500 
L 1159 3500 
L 1159 2956 
Q 1366 3272 1645 3428 
Q 1925 3584 2291 3584 
Q 2894 3584 3203 3211 
Q 3513 2838 3513 2113 
z
" transform="scale(0.015625)"/>
      <path id="DejaVuSans-48" d="M 3597 1894 
L 3597 1613 
L 953 1613 
Q 991 1019 1311 708 
Q 1631 397 2203 397 
Q 2534 397 2845 478 
Q 3156 559 3463 722 
L 3463 178 
Q 3153 47 2828 -22 
Q 2503 -91 2169 -91 
Q 1331 -91 842 396 
Q 353 884 353 1716 
Q 353 2575 817 3079 
Q 1281 3584 2069 3584 
Q 2775 3584 3186 3129 
Q 3597 2675 3597 1894 
z
M 3022 2063 
Q 3016 2534 2758 2815 
Q 2500 3097 2075 3097 
Q 1594 3097 1305 2825 
Q 1016 2553 972 2059 
L 3022 2063 
z
" transform="scale(0.015625)"/>
      <path id="DejaVuSans-4f" d="M 603 4863 
L 1178 4863 
L 1178 0 
L 603 0 
L 603 4863 
z
" transform="scale(0.015625)"/>
      <path id="DejaVuSans-3d" d="M 359 4666 
L 4025 4666 
L 4025 4184 
L 1075 531 
L 4097 531 
L 4097 0 
L 288 0 
L 288 481 
L 3238 4134 
L 359 4134 
L 359 4666 
z
" transform="scale(0.015625)"/>
      <path id="DejaVuSans-10" d="M 313 2009 
L 1997 2009 
L 1997 1497 
L 313 1497 
L 313 2009 
z
" transform="scale(0.015625)"/>
      <path id="DejaVuSans-57" d="M 1172 4494 
L 1172 3500 
L 2356 3500 
L 2356 3053 
L 1172 3053 
L 1172 1153 
Q 1172 725 1289 603 
Q 1406 481 1766 481 
L 2356 481 
L 2356 0 
L 1766 0 
Q 1100 0 847 248 
Q 594 497 594 1153 
L 594 3053 
L 172 3053 
L 172 3500 
L 594 3500 
L 594 4494 
L 1172 4494 
z
" transform="scale(0.015625)"/>
      <path id="DejaVuSans-52" d="M 1959 3097 
Q 1497 3097 1228 2736 
Q 959 2375 959 1747 
Q 959 1119 1226 758 
Q 1494 397 1959 397 
Q 2419 397 2687 759 
Q 2956 1122 2956 1747 
Q 2956 2369 2687 2733 
Q 2419 3097 1959 3097 
z
M 1959 3584 
Q 2709 3584 3137 3096 
Q 3566 2609 3566 1747 
Q 3566 888 3137 398 
Q 2709 -91 1959 -91 
Q 1206 -91 779 398 
Q 353 888 353 1747 
Q 353 2609 779 3096 
Q 1206 3584 1959 3584 
z
" transform="scale(0.015625)"/>
      <path id="DejaVuSans-50" d="M 3328 2828 
Q 3544 3216 3844 3400 
Q 4144 3584 4550 3584 
Q 5097 3584 5394 3201 
Q 5691 2819 5691 2113 
L 5691 0 
L 5113 0 
L 5113 2094 
Q 5113 2597 4934 2840 
Q 4756 3084 4391 3084 
Q 3944 3084 3684 2787 
Q 3425 2491 3425 1978 
L 3425 0 
L 2847 0 
L 2847 2094 
Q 2847 2600 2669 2842 
Q 2491 3084 2119 3084 
Q 1678 3084 1418 2786 
Q 1159 2488 1159 1978 
L 1159 0 
L 581 0 
L 581 3500 
L 1159 3500 
L 1159 2956 
Q 1356 3278 1631 3431 
Q 1906 3584 2284 3584 
Q 2666 3584 2933 3390 
Q 3200 3197 3328 2828 
z
" transform="scale(0.015625)"/>
      <path id="DejaVuSans-15" d="M 1228 531 
L 3431 531 
L 3431 0 
L 469 0 
L 469 531 
Q 828 903 1448 1529 
Q 2069 2156 2228 2338 
Q 2531 2678 2651 2914 
Q 2772 3150 2772 3378 
Q 2772 3750 2511 3984 
Q 2250 4219 1831 4219 
Q 1534 4219 1204 4116 
Q 875 4013 500 3803 
L 500 4441 
Q 881 4594 1212 4672 
Q 1544 4750 1819 4750 
Q 2544 4750 2975 4387 
Q 3406 4025 3406 3419 
Q 3406 3131 3298 2873 
Q 3191 2616 2906 2266 
Q 2828 2175 2409 1742 
Q 1991 1309 1228 531 
z
" transform="scale(0.015625)"/>
      <path id="DejaVuSans-56" d="M 2834 3397 
L 2834 2853 
Q 2591 2978 2328 3040 
Q 2066 3103 1784 3103 
Q 1356 3103 1142 2972 
Q 928 2841 928 2578 
Q 928 2378 1081 2264 
Q 1234 2150 1697 2047 
L 1894 2003 
Q 2506 1872 2764 1633 
Q 3022 1394 3022 966 
Q 3022 478 2636 193 
Q 2250 -91 1575 -91 
Q 1294 -91 989 -36 
Q 684 19 347 128 
L 347 722 
Q 666 556 975 473 
Q 1284 391 1588 391 
Q 1994 391 2212 530 
Q 2431 669 2431 922 
Q 2431 1156 2273 1281 
Q 2116 1406 1581 1522 
L 1381 1569 
Q 847 1681 609 1914 
Q 372 2147 372 2553 
Q 372 3047 722 3315 
Q 1072 3584 1716 3584 
Q 2034 3584 2315 3537 
Q 2597 3491 2834 3397 
z
" transform="scale(0.015625)"/>
      <path id="DejaVuSans-4a" d="M 2906 1791 
Q 2906 2416 2648 2759 
Q 2391 3103 1925 3103 
Q 1463 3103 1205 2759 
Q 947 2416 947 1791 
Q 947 1169 1205 825 
Q 1463 481 1925 481 
Q 2391 481 2648 825 
Q 2906 1169 2906 1791 
z
M 3481 434 
Q 3481 -459 3084 -895 
Q 2688 -1331 1869 -1331 
Q 1566 -1331 1297 -1286 
Q 1028 -1241 775 -1147 
L 775 -588 
Q 1028 -725 1275 -790 
Q 1522 -856 1778 -856 
Q 2344 -856 2625 -561 
Q 2906 -266 2906 331 
L 2906 616 
Q 2728 306 2450 153 
Q 2172 0 1784 0 
Q 1141 0 747 490 
Q 353 981 353 1791 
Q 353 2603 747 3093 
Q 1141 3584 1784 3584 
Q 2172 3584 2450 3431 
Q 2728 3278 2906 2969 
L 2906 3500 
L 3481 3500 
L 3481 434 
z
" transform="scale(0.015625)"/>
      <path id="DejaVuSans-f" d="M 750 794 
L 1409 794 
L 1409 256 
L 897 -744 
L 494 -744 
L 750 256 
L 750 794 
z
" transform="scale(0.015625)"/>
      <path id="DejaVuSans-329" d="M 2188 4044 
L 906 525 
L 3472 525 
L 2188 4044 
z
M 50 0 
L 1831 4666 
L 2547 4666 
L 4325 0 
L 50 0 
z
" transform="scale(0.015625)"/>
      <path id="DejaVuSans-49" d="M 2375 4863 
L 2375 4384 
L 1825 4384 
Q 1516 4384 1395 4259 
Q 1275 4134 1275 3809 
L 1275 3500 
L 2222 3500 
L 2222 3053 
L 1275 3053 
L 1275 0 
L 697 0 
L 697 3053 
L 147 3053 
L 147 3500 
L 697 3500 
L 697 3744 
Q 697 4328 969 4595 
Q 1241 4863 1831 4863 
L 2375 4863 
z
" transform="scale(0.015625)"/>
      <path id="DejaVuSans-20" d="M 678 2906 
L 4684 2906 
L 4684 2381 
L 678 2381 
L 678 2906 
z
M 678 1631 
L 4684 1631 
L 4684 1100 
L 678 1100 
L 678 1631 
z
" transform="scale(0.015625)"/>
      <path id="DejaVuSans-11" d="M 684 794 
L 1344 794 
L 1344 0 
L 684 0 
L 684 794 
z
" transform="scale(0.015625)"/>
     </defs>
     <use xlink:href="#DejaVuSans-26"/>
     <use xlink:href="#DejaVuSans-4b" transform="translate(69.828125 0)"/>
     <use xlink:href="#DejaVuSans-44" transform="translate(133.203125 0)"/>
     <use xlink:href="#DejaVuSans-51" transform="translate(194.484375 0)"/>
     <use xlink:href="#DejaVuSans-51" transform="translate(257.859375 0)"/>
     <use xlink:href="#DejaVuSans-48" transform="translate(321.234375 0)"/>
     <use xlink:href="#DejaVuSans-4f" transform="translate(382.765625 0)"/>
     <use xlink:href="#DejaVuSans-3" transform="translate(410.546875 0)"/>
     <use xlink:href="#DejaVuSans-26" transform="translate(442.328125 0)"/>
     <use xlink:href="#DejaVuSans-3d" transform="translate(512.15625 0)"/>
     <use xlink:href="#DejaVuSans-3" transform="translate(580.65625 0)"/>
     <use xlink:href="#DejaVuSans-10" transform="translate(612.4375 0)"/>
     <use xlink:href="#DejaVuSans-3" transform="translate(648.515625 0)"/>
     <use xlink:href="#DejaVuSans-27" transform="translate(680.296875 0)"/>
     <use xlink:href="#DejaVuSans-48" transform="translate(757.296875 0)"/>
     <use xlink:href="#DejaVuSans-4f" transform="translate(818.828125 0)"/>
     <use xlink:href="#DejaVuSans-57" transform="translate(846.609375 0)"/>
     <use xlink:href="#DejaVuSans-44" transform="translate(885.8125 0)"/>
     <use xlink:href="#DejaVuSans-12" transform="translate(947.09375 0)"/>
     <use xlink:href="#DejaVuSans-57" transform="translate(980.78125 0)"/>
     <use xlink:href="#DejaVuSans-4b" transform="translate(1019.984375 0)"/>
     <use xlink:href="#DejaVuSans-48" transform="translate(1083.359375 0)"/>
     <use xlink:href="#DejaVuSans-57" transform="translate(1144.890625 0)"/>
     <use xlink:href="#DejaVuSans-44" transform="translate(1184.09375 0)"/>
     <use xlink:href="#DejaVuSans-3" transform="translate(1245.375 0)"/>
     <use xlink:href="#DejaVuSans-5d" transform="translate(1277.15625 0)"/>
     <use xlink:href="#DejaVuSans-52" transform="translate(1329.640625 0)"/>
     <use xlink:href="#DejaVuSans-52" transform="translate(1390.828125 0)"/>
     <use xlink:href="#DejaVuSans-50" transform="translate(1452.015625 0)"/>
     <use xlink:href="#DejaVuSans-3" transform="translate(1549.421875 0)"/>
     <use xlink:href="#DejaVuSans-b" transform="translate(1581.203125 0)"/>
     <use xlink:href="#DejaVuSans-15" transform="translate(1620.21875 0)"/>
     <use xlink:href="#DejaVuSans-13" transform="translate(1683.84375 0)"/>
     <use xlink:href="#DejaVuSans-3" transform="translate(1747.46875 0)"/>
     <use xlink:href="#DejaVuSans-56" transform="translate(1779.25 0)"/>
     <use xlink:href="#DejaVuSans-3" transform="translate(1831.34375 0)"/>
     <use xlink:href="#DejaVuSans-56" transform="translate(1863.125 0)"/>
     <use xlink:href="#DejaVuSans-48" transform="translate(1915.21875 0)"/>
     <use xlink:href="#DejaVuSans-4a" transform="translate(1976.75 0)"/>
     <use xlink:href="#DejaVuSans-50" transform="translate(2040.234375 0)"/>
     <use xlink:href="#DejaVuSans-48" transform="translate(2137.640625 0)"/>
     <use xlink:href="#DejaVuSans-51" transform="translate(2199.171875 0)"/>
     <use xlink:href="#DejaVuSans-57" transform="translate(2262.546875 0)"/>
     <use xlink:href="#DejaVuSans-56" transform="translate(2301.75 0)"/>
     <use xlink:href="#DejaVuSans-f" transform="translate(2353.84375 0)"/>
     <use xlink:href="#DejaVuSans-3" transform="translate(2385.625 0)"/>
     <use xlink:href="#DejaVuSans-329" transform="translate(2417.40625 0)"/>
     <use xlink:href="#DejaVuSans-49" transform="translate(2485.8125 0)"/>
     <use xlink:href="#DejaVuSans-3" transform="translate(2521.015625 0)"/>
     <use xlink:href="#DejaVuSans-20" transform="translate(2552.796875 0)"/>
     <use xlink:href="#DejaVuSans-3" transform="translate(2636.59375 0)"/>
     <use xlink:href="#DejaVuSans-13" transform="translate(2668.375 0)"/>
     <use xlink:href="#DejaVuSans-11" transform="translate(2732 0)"/>
     <use xlink:href="#DejaVuSans-13" transform="translate(2763.78125 0)"/>
     <use xlink:href="#DejaVuSans-18" transform="translate(2827.40625 0)"/>
     <use xlink:href="#DejaVuSans-13" transform="translate(2891.03125 0)"/>
     <use xlink:href="#DejaVuSans-3" transform="translate(2954.65625 0)"/>
     <use xlink:href="#DejaVuSans-2b" transform="translate(2986.4375 0)"/>
     <use xlink:href="#DejaVuSans-5d" transform="translate(3061.640625 0)"/>
     <use xlink:href="#DejaVuSans-c" transform="translate(3114.125 0)"/>
    </g>
   </g>
   <g id="text_7">
    <!-- Figure C.10 -->
    <g transform="translate(53.65 16.318125) scale(0.09 -0.09)">
     <defs>
      <path id="DejaVuSans-Oblique-29" d="M 1081 4666 
L 3756 4666 
L 3653 4134 
L 1606 4134 
L 1338 2759 
L 3188 2759 
L 3084 2228 
L 1234 2228 
L 800 0 
L 172 0 
L 1081 4666 
z
" transform="scale(0.015625)"/>
      <path id="DejaVuSans-Oblique-4c" d="M 1172 4863 
L 1747 4863 
L 1606 4134 
L 1031 4134 
L 1172 4863 
z
M 909 3500 
L 1484 3500 
L 800 0 
L 225 0 
L 909 3500 
z
" transform="scale(0.015625)"/>
      <path id="DejaVuSans-Oblique-4a" d="M 3816 3500 
L 3219 434 
Q 3047 -456 2561 -893 
Q 2075 -1331 1253 -1331 
Q 950 -1331 690 -1286 
Q 431 -1241 206 -1147 
L 313 -588 
Q 525 -725 762 -790 
Q 1000 -856 1269 -856 
Q 1816 -856 2167 -557 
Q 2519 -259 2631 300 
L 2681 563 
Q 2441 288 2122 144 
Q 1803 0 1434 0 
Q 903 0 598 351 
Q 294 703 294 1319 
Q 294 1803 478 2267 
Q 663 2731 997 3091 
Q 1219 3328 1514 3456 
Q 1809 3584 2131 3584 
Q 2484 3584 2746 3420 
Q 3009 3256 3138 2956 
L 3238 3500 
L 3816 3500 
z
M 2950 2216 
Q 2950 2641 2750 2872 
Q 2550 3103 2181 3103 
Q 1953 3103 1747 3012 
Q 1541 2922 1394 2759 
Q 1156 2491 1023 2127 
Q 891 1763 891 1375 
Q 891 944 1092 712 
Q 1294 481 1672 481 
Q 2219 481 2584 976 
Q 2950 1472 2950 2216 
z
" transform="scale(0.015625)"/>
      <path id="DejaVuSans-Oblique-58" d="M 428 1388 
L 838 3500 
L 1416 3500 
L 1006 1409 
Q 975 1256 961 1147 
Q 947 1038 947 966 
Q 947 700 1109 554 
Q 1272 409 1569 409 
Q 2031 409 2368 721 
Q 2706 1034 2809 1563 
L 3194 3500 
L 3769 3500 
L 3091 0 
L 2516 0 
L 2631 550 
Q 2388 244 2052 76 
Q 1716 -91 1338 -91 
Q 878 -91 622 161 
Q 366 413 366 863 
Q 366 956 381 1097 
Q 397 1238 428 1388 
z
" transform="scale(0.015625)"/>
      <path id="DejaVuSans-Oblique-55" d="M 2853 2969 
Q 2766 3016 2653 3041 
Q 2541 3066 2413 3066 
Q 1953 3066 1609 2717 
Q 1266 2369 1153 1784 
L 800 0 
L 225 0 
L 909 3500 
L 1484 3500 
L 1375 2956 
Q 1603 3259 1920 3421 
Q 2238 3584 2597 3584 
Q 2691 3584 2781 3573 
Q 2872 3563 2963 3538 
L 2853 2969 
z
" transform="scale(0.015625)"/>
      <path id="DejaVuSans-Oblique-48" d="M 3078 2063 
Q 3088 2113 3092 2166 
Q 3097 2219 3097 2272 
Q 3097 2653 2873 2875 
Q 2650 3097 2266 3097 
Q 1838 3097 1509 2826 
Q 1181 2556 1013 2059 
L 3078 2063 
z
M 3578 1613 
L 903 1613 
Q 884 1494 878 1425 
Q 872 1356 872 1306 
Q 872 872 1139 634 
Q 1406 397 1894 397 
Q 2269 397 2603 481 
Q 2938 566 3225 728 
L 3116 159 
Q 2806 34 2476 -28 
Q 2147 -91 1806 -91 
Q 1078 -91 686 257 
Q 294 606 294 1247 
Q 294 1794 489 2264 
Q 684 2734 1063 3103 
Q 1306 3334 1642 3459 
Q 1978 3584 2356 3584 
Q 2950 3584 3301 3228 
Q 3653 2872 3653 2272 
Q 3653 2128 3634 1964 
Q 3616 1800 3578 1613 
z
" transform="scale(0.015625)"/>
      <path id="DejaVuSans-Oblique-3" transform="scale(0.015625)"/>
      <path id="DejaVuSans-Oblique-26" d="M 4447 4306 
L 4319 3641 
Q 4019 3944 3683 4091 
Q 3347 4238 2956 4238 
Q 2422 4238 2017 3981 
Q 1613 3725 1319 3200 
Q 1131 2863 1032 2486 
Q 934 2109 934 1728 
Q 934 1091 1264 756 
Q 1594 422 2222 422 
Q 2656 422 3056 561 
Q 3456 700 3834 978 
L 3688 231 
Q 3316 72 2936 -9 
Q 2556 -91 2175 -91 
Q 1278 -91 773 396 
Q 269 884 269 1753 
Q 269 2309 461 2846 
Q 653 3384 1013 3828 
Q 1394 4300 1883 4525 
Q 2372 4750 3022 4750 
Q 3422 4750 3780 4639 
Q 4138 4528 4447 4306 
z
" transform="scale(0.015625)"/>
      <path id="DejaVuSans-Oblique-11" d="M 525 794 
L 1184 794 
L 1031 0 
L 372 0 
L 525 794 
z
" transform="scale(0.015625)"/>
      <path id="DejaVuSans-Oblique-14" d="M 416 531 
L 1447 531 
L 2144 4122 
L 978 3897 
L 1088 4441 
L 2247 4666 
L 2881 4666 
L 2075 531 
L 3103 531 
L 3003 0 
L 313 0 
L 416 531 
z
" transform="scale(0.015625)"/>
      <path id="DejaVuSans-Oblique-13" d="M 2444 4750 
Q 3078 4750 3414 4328 
Q 3750 3906 3750 3116 
Q 3750 2516 3592 1923 
Q 3434 1331 3150 863 
Q 2859 394 2467 151 
Q 2075 -91 1600 -91 
Q 988 -91 653 334 
Q 319 759 319 1544 
Q 319 2138 480 2733 
Q 641 3328 928 3794 
Q 1216 4263 1602 4506 
Q 1988 4750 2444 4750 
z
M 2406 4250 
Q 2169 4250 1955 4123 
Q 1741 3997 1569 3750 
Q 1281 3338 1111 2720 
Q 941 2103 941 1453 
Q 941 938 1123 673 
Q 1306 409 1663 409 
Q 1913 409 2125 536 
Q 2338 663 2509 909 
Q 2794 1319 2961 1936 
Q 3128 2553 3128 3206 
Q 3128 3722 2945 3986 
Q 2763 4250 2406 4250 
z
" transform="scale(0.015625)"/>
     </defs>
     <use xlink:href="#DejaVuSans-Oblique-29"/>
     <use xlink:href="#DejaVuSans-Oblique-4c" transform="translate(57.515625 0)"/>
     <use xlink:href="#DejaVuSans-Oblique-4a" transform="translate(85.296875 0)"/>
     <use xlink:href="#DejaVuSans-Oblique-58" transform="translate(148.78125 0)"/>
     <use xlink:href="#DejaVuSans-Oblique-55" transform="translate(212.15625 0)"/>
     <use xlink:href="#DejaVuSans-Oblique-48" transform="translate(253.265625 0)"/>
     <use xlink:href="#DejaVuSans-Oblique-3" transform="translate(314.796875 0)"/>
     <use xlink:href="#DejaVuSans-Oblique-26" transform="translate(346.578125 0)"/>
     <use xlink:href="#DejaVuSans-Oblique-11" transform="translate(416.40625 0)"/>
     <use xlink:href="#DejaVuSans-Oblique-14" transform="translate(448.1875 0)"/>
     <use xlink:href="#DejaVuSans-Oblique-13" transform="translate(511.8125 0)"/>
    </g>
   </g>
  </g>
  <g id="axes_2">
   <g id="patch_7">
    <path d="M 53.65 386.433437 
L 845.807656 386.433437 
L 845.807656 211.525781 
L 53.65 211.525781 
z
" style="fill: #ffffff"/>
   </g>
   <g id="matplotlib.axis_3">
    <g id="xtick_10">
     <g id="line2d_28">
      <path d="M 53.65 386.433437 
L 53.65 211.525781 
" clip-path="url(#pe6025ba641)" style="fill: none; stroke: #b0b0b0; stroke-opacity: 0.3; stroke-width: 0.8; stroke-linecap: square"/>
     </g>
     <g id="line2d_29">
      <g>
       <use xlink:href="#m6ca1e4a3be" x="53.65" y="386.433437" style="stroke: #000000; stroke-width: 0.8"/>
      </g>
     </g>
     <g id="text_8">
      <!-- 0 -->
      <g transform="translate(50.46875 401.031094) scale(0.1 -0.1)">
       <use xlink:href="#DejaVuSans-13"/>
      </g>
     </g>
    </g>
    <g id="xtick_11">
     <g id="line2d_30">
      <path d="M 152.669707 386.433437 
L 152.669707 211.525781 
" clip-path="url(#pe6025ba641)" style="fill: none; stroke: #b0b0b0; stroke-opacity: 0.3; stroke-width: 0.8; stroke-linecap: square"/>
     </g>
     <g id="line2d_31">
      <g>
       <use xlink:href="#m6ca1e4a3be" x="152.669707" y="386.433437" style="stroke: #000000; stroke-width: 0.8"/>
      </g>
     </g>
     <g id="text_9">
      <!-- 1 -->
      <g transform="translate(149.488457 401.031094) scale(0.1 -0.1)">
       <use xlink:href="#DejaVuSans-14"/>
      </g>
     </g>
    </g>
    <g id="xtick_12">
     <g id="line2d_32">
      <path d="M 251.689414 386.433437 
L 251.689414 211.525781 
" clip-path="url(#pe6025ba641)" style="fill: none; stroke: #b0b0b0; stroke-opacity: 0.3; stroke-width: 0.8; stroke-linecap: square"/>
     </g>
     <g id="line2d_33">
      <g>
       <use xlink:href="#m6ca1e4a3be" x="251.689414" y="386.433437" style="stroke: #000000; stroke-width: 0.8"/>
      </g>
     </g>
     <g id="text_10">
      <!-- 2 -->
      <g transform="translate(248.508164 401.031094) scale(0.1 -0.1)">
       <use xlink:href="#DejaVuSans-15"/>
      </g>
     </g>
    </g>
    <g id="xtick_13">
     <g id="line2d_34">
      <path d="M 350.709121 386.433437 
L 350.709121 211.525781 
" clip-path="url(#pe6025ba641)" style="fill: none; stroke: #b0b0b0; stroke-opacity: 0.3; stroke-width: 0.8; stroke-linecap: square"/>
     </g>
     <g id="line2d_35">
      <g>
       <use xlink:href="#m6ca1e4a3be" x="350.709121" y="386.433437" style="stroke: #000000; stroke-width: 0.8"/>
      </g>
     </g>
     <g id="text_11">
      <!-- 3 -->
      <g transform="translate(347.527871 401.031094) scale(0.1 -0.1)">
       <defs>
        <path id="DejaVuSans-16" d="M 2597 2516 
Q 3050 2419 3304 2112 
Q 3559 1806 3559 1356 
Q 3559 666 3084 287 
Q 2609 -91 1734 -91 
Q 1441 -91 1130 -33 
Q 819 25 488 141 
L 488 750 
Q 750 597 1062 519 
Q 1375 441 1716 441 
Q 2309 441 2620 675 
Q 2931 909 2931 1356 
Q 2931 1769 2642 2001 
Q 2353 2234 1838 2234 
L 1294 2234 
L 1294 2753 
L 1863 2753 
Q 2328 2753 2575 2939 
Q 2822 3125 2822 3475 
Q 2822 3834 2567 4026 
Q 2313 4219 1838 4219 
Q 1578 4219 1281 4162 
Q 984 4106 628 3988 
L 628 4550 
Q 988 4650 1302 4700 
Q 1616 4750 1894 4750 
Q 2613 4750 3031 4423 
Q 3450 4097 3450 3541 
Q 3450 3153 3228 2886 
Q 3006 2619 2597 2516 
z
" transform="scale(0.015625)"/>
       </defs>
       <use xlink:href="#DejaVuSans-16"/>
      </g>
     </g>
    </g>
    <g id="xtick_14">
     <g id="line2d_36">
      <path d="M 449.728828 386.433437 
L 449.728828 211.525781 
" clip-path="url(#pe6025ba641)" style="fill: none; stroke: #b0b0b0; stroke-opacity: 0.3; stroke-width: 0.8; stroke-linecap: square"/>
     </g>
     <g id="line2d_37">
      <g>
       <use xlink:href="#m6ca1e4a3be" x="449.728828" y="386.433437" style="stroke: #000000; stroke-width: 0.8"/>
      </g>
     </g>
     <g id="text_12">
      <!-- 4 -->
      <g transform="translate(446.547578 401.031094) scale(0.1 -0.1)">
       <defs>
        <path id="DejaVuSans-17" d="M 2419 4116 
L 825 1625 
L 2419 1625 
L 2419 4116 
z
M 2253 4666 
L 3047 4666 
L 3047 1625 
L 3713 1625 
L 3713 1100 
L 3047 1100 
L 3047 0 
L 2419 0 
L 2419 1100 
L 313 1100 
L 313 1709 
L 2253 4666 
z
" transform="scale(0.015625)"/>
       </defs>
       <use xlink:href="#DejaVuSans-17"/>
      </g>
     </g>
    </g>
    <g id="xtick_15">
     <g id="line2d_38">
      <path d="M 548.748535 386.433437 
L 548.748535 211.525781 
" clip-path="url(#pe6025ba641)" style="fill: none; stroke: #b0b0b0; stroke-opacity: 0.3; stroke-width: 0.8; stroke-linecap: square"/>
     </g>
     <g id="line2d_39">
      <g>
       <use xlink:href="#m6ca1e4a3be" x="548.748535" y="386.433437" style="stroke: #000000; stroke-width: 0.8"/>
      </g>
     </g>
     <g id="text_13">
      <!-- 5 -->
      <g transform="translate(545.567285 401.031094) scale(0.1 -0.1)">
       <use xlink:href="#DejaVuSans-18"/>
      </g>
     </g>
    </g>
    <g id="xtick_16">
     <g id="line2d_40">
      <path d="M 647.768242 386.433437 
L 647.768242 211.525781 
" clip-path="url(#pe6025ba641)" style="fill: none; stroke: #b0b0b0; stroke-opacity: 0.3; stroke-width: 0.8; stroke-linecap: square"/>
     </g>
     <g id="line2d_41">
      <g>
       <use xlink:href="#m6ca1e4a3be" x="647.768242" y="386.433437" style="stroke: #000000; stroke-width: 0.8"/>
      </g>
     </g>
     <g id="text_14">
      <!-- 6 -->
      <g transform="translate(644.586992 401.031094) scale(0.1 -0.1)">
       <defs>
        <path id="DejaVuSans-19" d="M 2113 2584 
Q 1688 2584 1439 2293 
Q 1191 2003 1191 1497 
Q 1191 994 1439 701 
Q 1688 409 2113 409 
Q 2538 409 2786 701 
Q 3034 994 3034 1497 
Q 3034 2003 2786 2293 
Q 2538 2584 2113 2584 
z
M 3366 4563 
L 3366 3988 
Q 3128 4100 2886 4159 
Q 2644 4219 2406 4219 
Q 1781 4219 1451 3797 
Q 1122 3375 1075 2522 
Q 1259 2794 1537 2939 
Q 1816 3084 2150 3084 
Q 2853 3084 3261 2657 
Q 3669 2231 3669 1497 
Q 3669 778 3244 343 
Q 2819 -91 2113 -91 
Q 1303 -91 875 529 
Q 447 1150 447 2328 
Q 447 3434 972 4092 
Q 1497 4750 2381 4750 
Q 2619 4750 2861 4703 
Q 3103 4656 3366 4563 
z
" transform="scale(0.015625)"/>
       </defs>
       <use xlink:href="#DejaVuSans-19"/>
      </g>
     </g>
    </g>
    <g id="xtick_17">
     <g id="line2d_42">
      <path d="M 746.787949 386.433437 
L 746.787949 211.525781 
" clip-path="url(#pe6025ba641)" style="fill: none; stroke: #b0b0b0; stroke-opacity: 0.3; stroke-width: 0.8; stroke-linecap: square"/>
     </g>
     <g id="line2d_43">
      <g>
       <use xlink:href="#m6ca1e4a3be" x="746.787949" y="386.433437" style="stroke: #000000; stroke-width: 0.8"/>
      </g>
     </g>
     <g id="text_15">
      <!-- 7 -->
      <g transform="translate(743.606699 401.031094) scale(0.1 -0.1)">
       <defs>
        <path id="DejaVuSans-1a" d="M 525 4666 
L 3525 4666 
L 3525 4397 
L 1831 0 
L 1172 0 
L 2766 4134 
L 525 4134 
L 525 4666 
z
" transform="scale(0.015625)"/>
       </defs>
       <use xlink:href="#DejaVuSans-1a"/>
      </g>
     </g>
    </g>
    <g id="xtick_18">
     <g id="line2d_44">
      <path d="M 845.807656 386.433437 
L 845.807656 211.525781 
" clip-path="url(#pe6025ba641)" style="fill: none; stroke: #b0b0b0; stroke-opacity: 0.3; stroke-width: 0.8; stroke-linecap: square"/>
     </g>
     <g id="line2d_45">
      <g>
       <use xlink:href="#m6ca1e4a3be" x="845.807656" y="386.433437" style="stroke: #000000; stroke-width: 0.8"/>
      </g>
     </g>
     <g id="text_16">
      <!-- 8 -->
      <g transform="translate(842.626406 401.031094) scale(0.1 -0.1)">
       <defs>
        <path id="DejaVuSans-1b" d="M 2034 2216 
Q 1584 2216 1326 1975 
Q 1069 1734 1069 1313 
Q 1069 891 1326 650 
Q 1584 409 2034 409 
Q 2484 409 2743 651 
Q 3003 894 3003 1313 
Q 3003 1734 2745 1975 
Q 2488 2216 2034 2216 
z
M 1403 2484 
Q 997 2584 770 2862 
Q 544 3141 544 3541 
Q 544 4100 942 4425 
Q 1341 4750 2034 4750 
Q 2731 4750 3128 4425 
Q 3525 4100 3525 3541 
Q 3525 3141 3298 2862 
Q 3072 2584 2669 2484 
Q 3125 2378 3379 2068 
Q 3634 1759 3634 1313 
Q 3634 634 3220 271 
Q 2806 -91 2034 -91 
Q 1263 -91 848 271 
Q 434 634 434 1313 
Q 434 1759 690 2068 
Q 947 2378 1403 2484 
z
M 1172 3481 
Q 1172 3119 1398 2916 
Q 1625 2713 2034 2713 
Q 2441 2713 2670 2916 
Q 2900 3119 2900 3481 
Q 2900 3844 2670 4047 
Q 2441 4250 2034 4250 
Q 1625 4250 1398 4047 
Q 1172 3844 1172 3481 
z
" transform="scale(0.015625)"/>
       </defs>
       <use xlink:href="#DejaVuSans-1b"/>
      </g>
     </g>
    </g>
    <g id="text_17">
     <!-- Frequency (Hz) -->
     <g transform="translate(412.023359 415.031094) scale(0.1 -0.1)">
      <defs>
       <path id="DejaVuSans-29" d="M 628 4666 
L 3309 4666 
L 3309 4134 
L 1259 4134 
L 1259 2759 
L 3109 2759 
L 3109 2228 
L 1259 2228 
L 1259 0 
L 628 0 
L 628 4666 
z
" transform="scale(0.015625)"/>
       <path id="DejaVuSans-55" d="M 2631 2963 
Q 2534 3019 2420 3045 
Q 2306 3072 2169 3072 
Q 1681 3072 1420 2755 
Q 1159 2438 1159 1844 
L 1159 0 
L 581 0 
L 581 3500 
L 1159 3500 
L 1159 2956 
Q 1341 3275 1631 3429 
Q 1922 3584 2338 3584 
Q 2397 3584 2469 3576 
Q 2541 3569 2628 3553 
L 2631 2963 
z
" transform="scale(0.015625)"/>
       <path id="DejaVuSans-54" d="M 947 1747 
Q 947 1113 1208 752 
Q 1469 391 1925 391 
Q 2381 391 2643 752 
Q 2906 1113 2906 1747 
Q 2906 2381 2643 2742 
Q 2381 3103 1925 3103 
Q 1469 3103 1208 2742 
Q 947 2381 947 1747 
z
M 2906 525 
Q 2725 213 2448 61 
Q 2172 -91 1784 -91 
Q 1150 -91 751 415 
Q 353 922 353 1747 
Q 353 2572 751 3078 
Q 1150 3584 1784 3584 
Q 2172 3584 2448 3432 
Q 2725 3281 2906 2969 
L 2906 3500 
L 3481 3500 
L 3481 -1331 
L 2906 -1331 
L 2906 525 
z
" transform="scale(0.015625)"/>
       <path id="DejaVuSans-58" d="M 544 1381 
L 544 3500 
L 1119 3500 
L 1119 1403 
Q 1119 906 1312 657 
Q 1506 409 1894 409 
Q 2359 409 2629 706 
Q 2900 1003 2900 1516 
L 2900 3500 
L 3475 3500 
L 3475 0 
L 2900 0 
L 2900 538 
Q 2691 219 2414 64 
Q 2138 -91 1772 -91 
Q 1169 -91 856 284 
Q 544 659 544 1381 
z
M 1991 3584 
L 1991 3584 
z
" transform="scale(0.015625)"/>
       <path id="DejaVuSans-46" d="M 3122 3366 
L 3122 2828 
Q 2878 2963 2633 3030 
Q 2388 3097 2138 3097 
Q 1578 3097 1268 2742 
Q 959 2388 959 1747 
Q 959 1106 1268 751 
Q 1578 397 2138 397 
Q 2388 397 2633 464 
Q 2878 531 3122 666 
L 3122 134 
Q 2881 22 2623 -34 
Q 2366 -91 2075 -91 
Q 1284 -91 818 406 
Q 353 903 353 1747 
Q 353 2603 823 3093 
Q 1294 3584 2113 3584 
Q 2378 3584 2631 3529 
Q 2884 3475 3122 3366 
z
" transform="scale(0.015625)"/>
       <path id="DejaVuSans-5c" d="M 2059 -325 
Q 1816 -950 1584 -1140 
Q 1353 -1331 966 -1331 
L 506 -1331 
L 506 -850 
L 844 -850 
Q 1081 -850 1212 -737 
Q 1344 -625 1503 -206 
L 1606 56 
L 191 3500 
L 800 3500 
L 1894 763 
L 2988 3500 
L 3597 3500 
L 2059 -325 
z
" transform="scale(0.015625)"/>
      </defs>
      <use xlink:href="#DejaVuSans-29"/>
      <use xlink:href="#DejaVuSans-55" transform="translate(50.234375 0)"/>
      <use xlink:href="#DejaVuSans-48" transform="translate(89.140625 0)"/>
      <use xlink:href="#DejaVuSans-54" transform="translate(150.671875 0)"/>
      <use xlink:href="#DejaVuSans-58" transform="translate(214.15625 0)"/>
      <use xlink:href="#DejaVuSans-48" transform="translate(277.53125 0)"/>
      <use xlink:href="#DejaVuSans-51" transform="translate(339.0625 0)"/>
      <use xlink:href="#DejaVuSans-46" transform="translate(402.4375 0)"/>
      <use xlink:href="#DejaVuSans-5c" transform="translate(457.421875 0)"/>
      <use xlink:href="#DejaVuSans-3" transform="translate(516.609375 0)"/>
      <use xlink:href="#DejaVuSans-b" transform="translate(548.390625 0)"/>
      <use xlink:href="#DejaVuSans-2b" transform="translate(587.40625 0)"/>
      <use xlink:href="#DejaVuSans-5d" transform="translate(662.609375 0)"/>
      <use xlink:href="#DejaVuSans-c" transform="translate(715.09375 0)"/>
     </g>
    </g>
   </g>
   <g id="matplotlib.axis_4">
    <g id="ytick_5">
     <g id="line2d_46">
      <path d="M 53.65 384.643693 
L 845.807656 384.643693 
" clip-path="url(#pe6025ba641)" style="fill: none; stroke: #b0b0b0; stroke-opacity: 0.3; stroke-width: 0.8; stroke-linecap: square"/>
     </g>
     <g id="line2d_47">
      <g>
       <use xlink:href="#m596551dbd6" x="53.65" y="384.643693" style="stroke: #000000; stroke-width: 0.8"/>
      </g>
     </g>
     <g id="text_18">
      <!-- −30 -->
      <g transform="translate(25.545313 388.442522) scale(0.1 -0.1)">
       <defs>
        <path id="DejaVuSans-c9c" d="M 678 2272 
L 4684 2272 
L 4684 1741 
L 678 1741 
L 678 2272 
z
" transform="scale(0.015625)"/>
       </defs>
       <use xlink:href="#DejaVuSans-c9c"/>
       <use xlink:href="#DejaVuSans-16" transform="translate(83.796875 0)"/>
       <use xlink:href="#DejaVuSans-13" transform="translate(147.421875 0)"/>
      </g>
     </g>
    </g>
    <g id="ytick_6">
     <g id="line2d_48">
      <path d="M 53.65 358.274988 
L 845.807656 358.274988 
" clip-path="url(#pe6025ba641)" style="fill: none; stroke: #b0b0b0; stroke-opacity: 0.3; stroke-width: 0.8; stroke-linecap: square"/>
     </g>
     <g id="line2d_49">
      <g>
       <use xlink:href="#m596551dbd6" x="53.65" y="358.274988" style="stroke: #000000; stroke-width: 0.8"/>
      </g>
     </g>
     <g id="text_19">
      <!-- −20 -->
      <g transform="translate(25.545313 362.073816) scale(0.1 -0.1)">
       <use xlink:href="#DejaVuSans-c9c"/>
       <use xlink:href="#DejaVuSans-15" transform="translate(83.796875 0)"/>
       <use xlink:href="#DejaVuSans-13" transform="translate(147.421875 0)"/>
      </g>
     </g>
    </g>
    <g id="ytick_7">
     <g id="line2d_50">
      <path d="M 53.65 331.906282 
L 845.807656 331.906282 
" clip-path="url(#pe6025ba641)" style="fill: none; stroke: #b0b0b0; stroke-opacity: 0.3; stroke-width: 0.8; stroke-linecap: square"/>
     </g>
     <g id="line2d_51">
      <g>
       <use xlink:href="#m596551dbd6" x="53.65" y="331.906282" style="stroke: #000000; stroke-width: 0.8"/>
      </g>
     </g>
     <g id="text_20">
      <!-- −10 -->
      <g transform="translate(25.545313 335.70511) scale(0.1 -0.1)">
       <use xlink:href="#DejaVuSans-c9c"/>
       <use xlink:href="#DejaVuSans-14" transform="translate(83.796875 0)"/>
       <use xlink:href="#DejaVuSans-13" transform="translate(147.421875 0)"/>
      </g>
     </g>
    </g>
    <g id="ytick_8">
     <g id="line2d_52">
      <path d="M 53.65 305.537576 
L 845.807656 305.537576 
" clip-path="url(#pe6025ba641)" style="fill: none; stroke: #b0b0b0; stroke-opacity: 0.3; stroke-width: 0.8; stroke-linecap: square"/>
     </g>
     <g id="line2d_53">
      <g>
       <use xlink:href="#m596551dbd6" x="53.65" y="305.537576" style="stroke: #000000; stroke-width: 0.8"/>
      </g>
     </g>
     <g id="text_21">
      <!-- 0 -->
      <g transform="translate(40.2875 309.336404) scale(0.1 -0.1)">
       <use xlink:href="#DejaVuSans-13"/>
      </g>
     </g>
    </g>
    <g id="ytick_9">
     <g id="line2d_54">
      <path d="M 53.65 279.16887 
L 845.807656 279.16887 
" clip-path="url(#pe6025ba641)" style="fill: none; stroke: #b0b0b0; stroke-opacity: 0.3; stroke-width: 0.8; stroke-linecap: square"/>
     </g>
     <g id="line2d_55">
      <g>
       <use xlink:href="#m596551dbd6" x="53.65" y="279.16887" style="stroke: #000000; stroke-width: 0.8"/>
      </g>
     </g>
     <g id="text_22">
      <!-- 10 -->
      <g transform="translate(33.925 282.967698) scale(0.1 -0.1)">
       <use xlink:href="#DejaVuSans-14"/>
       <use xlink:href="#DejaVuSans-13" transform="translate(63.625 0)"/>
      </g>
     </g>
    </g>
    <g id="ytick_10">
     <g id="line2d_56">
      <path d="M 53.65 252.800164 
L 845.807656 252.800164 
" clip-path="url(#pe6025ba641)" style="fill: none; stroke: #b0b0b0; stroke-opacity: 0.3; stroke-width: 0.8; stroke-linecap: square"/>
     </g>
     <g id="line2d_57">
      <g>
       <use xlink:href="#m596551dbd6" x="53.65" y="252.800164" style="stroke: #000000; stroke-width: 0.8"/>
      </g>
     </g>
     <g id="text_23">
      <!-- 20 -->
      <g transform="translate(33.925 256.598992) scale(0.1 -0.1)">
       <use xlink:href="#DejaVuSans-15"/>
       <use xlink:href="#DejaVuSans-13" transform="translate(63.625 0)"/>
      </g>
     </g>
    </g>
    <g id="ytick_11">
     <g id="line2d_58">
      <path d="M 53.65 226.431458 
L 845.807656 226.431458 
" clip-path="url(#pe6025ba641)" style="fill: none; stroke: #b0b0b0; stroke-opacity: 0.3; stroke-width: 0.8; stroke-linecap: square"/>
     </g>
     <g id="line2d_59">
      <g>
       <use xlink:href="#m596551dbd6" x="53.65" y="226.431458" style="stroke: #000000; stroke-width: 0.8"/>
      </g>
     </g>
     <g id="text_24">
      <!-- 30 -->
      <g transform="translate(33.925 230.230287) scale(0.1 -0.1)">
       <use xlink:href="#DejaVuSans-16"/>
       <use xlink:href="#DejaVuSans-13" transform="translate(63.625 0)"/>
      </g>
     </g>
    </g>
    <g id="text_25">
     <!-- PSD (dB re 1 µV²/Hz) -->
     <g transform="translate(19.142969 350.759297) rotate(-90) scale(0.1 -0.1)">
      <defs>
       <path id="DejaVuSans-47" d="M 2906 2969 
L 2906 4863 
L 3481 4863 
L 3481 0 
L 2906 0 
L 2906 525 
Q 2725 213 2448 61 
Q 2172 -91 1784 -91 
Q 1150 -91 751 415 
Q 353 922 353 1747 
Q 353 2572 751 3078 
Q 1150 3584 1784 3584 
Q 2172 3584 2448 3432 
Q 2725 3281 2906 2969 
z
M 947 1747 
Q 947 1113 1208 752 
Q 1469 391 1925 391 
Q 2381 391 2643 752 
Q 2906 1113 2906 1747 
Q 2906 2381 2643 2742 
Q 2381 3103 1925 3103 
Q 1469 3103 1208 2742 
Q 947 2381 947 1747 
z
" transform="scale(0.015625)"/>
       <path id="DejaVuSans-25" d="M 1259 2228 
L 1259 519 
L 2272 519 
Q 2781 519 3026 730 
Q 3272 941 3272 1375 
Q 3272 1813 3026 2020 
Q 2781 2228 2272 2228 
L 1259 2228 
z
M 1259 4147 
L 1259 2741 
L 2194 2741 
Q 2656 2741 2882 2914 
Q 3109 3088 3109 3444 
Q 3109 3797 2882 3972 
Q 2656 4147 2194 4147 
L 1259 4147 
z
M 628 4666 
L 2241 4666 
Q 2963 4666 3353 4366 
Q 3744 4066 3744 3513 
Q 3744 3084 3544 2831 
Q 3344 2578 2956 2516 
Q 3422 2416 3680 2098 
Q 3938 1781 3938 1306 
Q 3938 681 3513 340 
Q 3088 0 2303 0 
L 628 0 
L 628 4666 
z
" transform="scale(0.015625)"/>
      </defs>
      <use xlink:href="#DejaVuSans-33"/>
      <use xlink:href="#DejaVuSans-36" transform="translate(60.296875 0)"/>
      <use xlink:href="#DejaVuSans-27" transform="translate(123.78125 0)"/>
      <use xlink:href="#DejaVuSans-3" transform="translate(200.78125 0)"/>
      <use xlink:href="#DejaVuSans-b" transform="translate(232.5625 0)"/>
      <use xlink:href="#DejaVuSans-47" transform="translate(271.578125 0)"/>
      <use xlink:href="#DejaVuSans-25" transform="translate(335.0625 0)"/>
      <use xlink:href="#DejaVuSans-3" transform="translate(403.671875 0)"/>
      <use xlink:href="#DejaVuSans-55" transform="translate(435.453125 0)"/>
      <use xlink:href="#DejaVuSans-48" transform="translate(474.359375 0)"/>
      <use xlink:href="#DejaVuSans-3" transform="translate(535.890625 0)"/>
      <use xlink:href="#DejaVuSans-14" transform="translate(567.671875 0)"/>
      <use xlink:href="#DejaVuSans-3" transform="translate(631.296875 0)"/>
      <use xlink:href="#DejaVuSans-77" transform="translate(663.078125 0)"/>
      <use xlink:href="#DejaVuSans-39" transform="translate(726.703125 0)"/>
      <use xlink:href="#DejaVuSans-74" transform="translate(795.109375 0)"/>
      <use xlink:href="#DejaVuSans-12" transform="translate(835.203125 0)"/>
      <use xlink:href="#DejaVuSans-2b" transform="translate(868.890625 0)"/>
      <use xlink:href="#DejaVuSans-5d" transform="translate(944.09375 0)"/>
      <use xlink:href="#DejaVuSans-c" transform="translate(996.578125 0)"/>
     </g>
    </g>
   </g>
   <g id="line2d_60">
    <path d="M 53.65 265.27762 
L 58.600985 252.080182 
L 63.551971 244.327869 
L 68.502956 237.364201 
L 73.453941 229.874799 
L 78.404927 225.027293 
L 83.355912 224.488336 
L 88.306897 222.635701 
L 93.257883 220.990373 
L 98.208868 221.313209 
L 103.159854 222.145198 
L 108.110839 221.112093 
L 113.061824 219.476129 
L 118.01281 222.10401 
L 122.963795 220.769161 
L 127.91478 220.773469 
L 132.865766 223.134196 
L 142.767736 224.502574 
L 147.718722 225.46106 
L 152.669707 225.393868 
L 157.620692 225.795116 
L 162.571678 224.848751 
L 167.522663 227.066112 
L 172.473648 230.325344 
L 177.424634 228.917061 
L 182.375619 229.73173 
L 187.326604 229.743924 
L 192.27759 229.149921 
L 197.228575 230.056711 
L 202.179561 232.441939 
L 207.130546 231.828919 
L 212.081531 231.487962 
L 217.032517 232.757582 
L 221.983502 232.632567 
L 226.934487 233.968778 
L 231.885473 232.416182 
L 236.836458 231.548756 
L 241.787443 231.333946 
L 246.738429 231.716132 
L 251.689414 231.484272 
L 256.640399 231.017866 
L 261.591385 231.178058 
L 266.54237 232.14997 
L 271.493355 233.833599 
L 281.395326 239.318007 
L 286.346312 239.140647 
L 291.297297 239.101012 
L 296.248282 239.699022 
L 311.101238 239.403812 
L 316.052224 240.867719 
L 321.003209 241.729695 
L 325.954194 241.412397 
L 330.90518 241.910025 
L 335.856165 242.706347 
L 340.80715 242.436065 
L 345.758136 239.605802 
L 350.709121 238.521997 
L 355.660106 240.165543 
L 360.611092 241.136446 
L 365.562077 241.341707 
L 370.513063 241.736153 
L 375.464048 242.429169 
L 380.415033 242.819477 
L 385.366019 241.144991 
L 390.317004 241.326667 
L 395.267989 244.949574 
L 405.16996 245.051456 
L 410.120945 246.028682 
L 415.071931 246.113988 
L 420.022916 246.913582 
L 424.973901 248.969004 
L 429.924887 249.134721 
L 434.875872 251.298119 
L 439.826857 251.240498 
L 444.777843 250.093541 
L 449.728828 252.994837 
L 459.630799 253.920683 
L 464.581784 252.386752 
L 469.53277 252.614038 
L 474.483755 250.117969 
L 479.43474 251.810321 
L 484.385726 254.798117 
L 489.336711 254.172512 
L 494.287696 255.258187 
L 499.238682 256.935682 
L 504.189667 257.303378 
L 509.140652 259.187939 
L 514.091638 258.606781 
L 519.042623 258.2131 
L 523.993608 259.631932 
L 528.944594 260.882306 
L 533.895579 260.520903 
L 538.846564 259.232925 
L 543.79755 260.379387 
L 553.699521 262.090816 
L 558.650506 263.968137 
L 563.601491 262.936315 
L 573.503462 262.908955 
L 578.454447 262.207796 
L 583.405433 263.720075 
L 588.356418 266.803125 
L 593.307403 265.581359 
L 598.258389 266.508197 
L 603.209374 268.004625 
L 608.160359 266.863917 
L 613.111345 267.702605 
L 618.06233 267.465407 
L 623.013315 268.20056 
L 627.964301 268.247919 
L 632.915286 268.666468 
L 637.866271 269.412605 
L 642.817257 268.559693 
L 647.768242 268.926245 
L 652.719228 271.110426 
L 657.670213 271.921979 
L 662.621198 271.332323 
L 667.572184 272.490253 
L 682.42514 271.168976 
L 687.376125 272.046181 
L 692.32711 272.14434 
L 697.278096 273.6428 
L 707.180066 273.833907 
L 712.131052 274.038499 
L 717.082037 274.797087 
L 722.033022 275.216652 
L 726.984008 277.724662 
L 731.934993 278.233455 
L 736.885979 277.374974 
L 741.836964 278.0665 
L 746.787949 277.274534 
L 751.738935 278.361124 
L 756.68992 279.638776 
L 761.640905 279.374244 
L 766.591891 279.950231 
L 771.542876 280.136909 
L 776.493861 279.240726 
L 781.444847 279.794479 
L 791.346817 280.221428 
L 796.297803 281.408545 
L 801.248788 282.031685 
L 806.199773 281.17403 
L 811.150759 280.853785 
L 816.101744 281.343441 
L 821.052729 281.646662 
L 826.003715 283.284786 
L 830.9547 283.638311 
L 835.905686 282.652042 
L 845.807656 281.944895 
L 850.758642 281.129607 
L 850.758642 281.129607 
" clip-path="url(#pe6025ba641)" style="fill: none; stroke: #1f77b4; stroke-width: 0.5; stroke-linecap: square"/>
   </g>
   <g id="patch_8">
    <path d="M 53.65 386.433437 
L 53.65 211.525781 
" style="fill: none; stroke: #000000; stroke-width: 0.8; stroke-linejoin: miter; stroke-linecap: square"/>
   </g>
   <g id="patch_9">
    <path d="M 845.807656 386.433437 
L 845.807656 211.525781 
" style="fill: none; stroke: #000000; stroke-width: 0.8; stroke-linejoin: miter; stroke-linecap: square"/>
   </g>
   <g id="patch_10">
    <path d="M 53.65 386.433437 
L 845.807656 386.433437 
" style="fill: none; stroke: #000000; stroke-width: 0.8; stroke-linejoin: miter; stroke-linecap: square"/>
   </g>
   <g id="patch_11">
    <path d="M 53.65 211.525781 
L 845.807656 211.525781 
" style="fill: none; stroke: #000000; stroke-width: 0.8; stroke-linejoin: miter; stroke-linecap: square"/>
   </g>
  </g>
 </g>
 <defs>
  <clipPath id="p6790862ae8">
   <rect x="53.65" y="22.318125" width="792.157656" height="174.907656"/>
  </clipPath>
  <clipPath id="pe6025ba641">
   <rect x="53.65" y="211.525781" width="792.157656" height="174.907656"/>
  </clipPath>
 </defs>
</svg>
