<?xml version="1.0" encoding="utf-8" standalone="no"?>
<!DOCTYPE svg PUBLIC "-//W3C//DTD SVG 1.1//EN"
  "http://www.w3.org/Graphics/SVG/1.1/DTD/svg11.dtd">
<svg xmlns:xlink="http://www.w3.org/1999/xlink" width="856.307187pt" height="568.633437pt" viewBox="0 0 856.307187 568.633437" xmlns="http://www.w3.org/2000/svg" version="1.1">
 <metadata>
  <rdf:RDF xmlns:dc="http://purl.org/dc/elements/1.1/" xmlns:cc="http://creativecommons.org/ns#" xmlns:rdf="http://www.w3.org/1999/02/22-rdf-syntax-ns#">
   <cc:Work>
    <dc:type rdf:resource="http://purl.org/dc/dcmitype/StillImage"/>
    <dc:date>2026-06-21T18:44:40.045535</dc:date>
    <dc:format>image/svg+xml</dc:format>
    <dc:creator>
     <cc:Agent>
      <dc:title>Matplotlib v3.11.0, https://matplotlib.org/</dc:title>
     </cc:Agent>
    </dc:creator>
   </cc:Work>
  </rdf:RDF>
 </metadata>
 <defs>
  <style type="text/css">*{stroke-linejoin: round; stroke-linecap: butt}</style>
 </defs>
 <g id="figure_1">
  <g id="patch_1">
   <path d="M 0 568.633437 
L 856.307187 568.633437 
L 856.307187 0 
L 0 0 
z
" style="fill: #ffffff"/>
  </g>
  <g id="axes_1">
   <g id="patch_2">
    <path d="M 55.867188 153.633437 
L 849.107187 153.633437 
L 849.107187 22.318125 
L 55.867188 22.318125 
z
" style="fill: #ffffff"/>
   </g>
   <g id="matplotlib.axis_1">
    <g id="xtick_1">
     <g id="line2d_1">
      <path d="M 91.923551 153.633437 
L 91.923551 22.318125 
" clip-path="url(#pcc2d802c7f)" style="fill: none; stroke: #b0b0b0; stroke-opacity: 0.3; stroke-width: 0.8; stroke-linecap: square"/>
     </g>
     <g id="line2d_2">
      <defs>
       <path id="mdabdbeac49" d="M 0 0 
L 0 3.5 
" style="stroke: #000000; stroke-width: 0.8"/>
      </defs>
      <g>
       <use xlink:href="#mdabdbeac49" x="91.923551" y="153.633437" style="stroke: #000000; stroke-width: 0.8"/>
      </g>
     </g>
     <g id="text_1">
      <!-- 0.00 -->
      <g transform="translate(80.790739 168.231094) scale(0.1 -0.1)">
       <defs>
        <path id="DejaVuSans-13" d="M 2034 4250 
Q 1547 4250 1301 3770 
Q 1056 3291 1056 2328 
Q 1056 1369 1301 889 
Q 1547 409 2034 409 
Q 2525 409 2770 889 
Q 3016 1369 3016 2328 
Q 3016 3291 2770 3770 
Q 2525 4250 2034 4250 
z
M 2034 4750 
Q 2819 4750 3233 4129 
Q 3647 3509 3647 2328 
Q 3647 1150 3233 529 
Q 2819 -91 2034 -91 
Q 1250 -91 836 529 
Q 422 1150 422 2328 
Q 422 3509 836 4129 
Q 1250 4750 2034 4750 
z
" transform="scale(0.015625)"/>
        <path id="DejaVuSans-11" d="M 684 794 
L 1344 794 
L 1344 0 
L 684 0 
L 684 794 
z
" transform="scale(0.015625)"/>
       </defs>
       <use xlink:href="#DejaVuSans-13"/>
       <use xlink:href="#DejaVuSans-11" transform="translate(63.625 0)"/>
       <use xlink:href="#DejaVuSans-13" transform="translate(95.40625 0)"/>
       <use xlink:href="#DejaVuSans-13" transform="translate(159.03125 0)"/>
      </g>
     </g>
    </g>
    <g id="xtick_2">
     <g id="line2d_3">
      <path d="M 182.06446 153.633437 
L 182.06446 22.318125 
" clip-path="url(#pcc2d802c7f)" style="fill: none; stroke: #b0b0b0; stroke-opacity: 0.3; stroke-width: 0.8; stroke-linecap: square"/>
     </g>
     <g id="line2d_4">
      <g>
       <use xlink:href="#mdabdbeac49" x="182.06446" y="153.633437" style="stroke: #000000; stroke-width: 0.8"/>
      </g>
     </g>
     <g id="text_2">
      <!-- 0.25 -->
      <g transform="translate(170.931648 168.231094) scale(0.1 -0.1)">
       <defs>
        <path id="DejaVuSans-15" d="M 1228 531 
L 3431 531 
L 3431 0 
L 469 0 
L 469 531 
Q 828 903 1448 1529 
Q 2069 2156 2228 2338 
Q 2531 2678 2651 2914 
Q 2772 3150 2772 3378 
Q 2772 3750 2511 3984 
Q 2250 4219 1831 4219 
Q 1534 4219 1204 4116 
Q 875 4013 500 3803 
L 500 4441 
Q 881 4594 1212 4672 
Q 1544 4750 1819 4750 
Q 2544 4750 2975 4387 
Q 3406 4025 3406 3419 
Q 3406 3131 3298 2873 
Q 3191 2616 2906 2266 
Q 2828 2175 2409 1742 
Q 1991 1309 1228 531 
z
" transform="scale(0.015625)"/>
        <path id="DejaVuSans-18" d="M 691 4666 
L 3169 4666 
L 3169 4134 
L 1269 4134 
L 1269 2991 
Q 1406 3038 1543 3061 
Q 1681 3084 1819 3084 
Q 2600 3084 3056 2656 
Q 3513 2228 3513 1497 
Q 3513 744 3044 326 
Q 2575 -91 1722 -91 
Q 1428 -91 1123 -41 
Q 819 9 494 109 
L 494 744 
Q 775 591 1075 516 
Q 1375 441 1709 441 
Q 2250 441 2565 725 
Q 2881 1009 2881 1497 
Q 2881 1984 2565 2268 
Q 2250 2553 1709 2553 
Q 1456 2553 1204 2497 
Q 953 2441 691 2322 
L 691 4666 
z
" transform="scale(0.015625)"/>
       </defs>
       <use xlink:href="#DejaVuSans-13"/>
       <use xlink:href="#DejaVuSans-11" transform="translate(63.625 0)"/>
       <use xlink:href="#DejaVuSans-15" transform="translate(95.40625 0)"/>
       <use xlink:href="#DejaVuSans-18" transform="translate(159.03125 0)"/>
      </g>
     </g>
    </g>
    <g id="xtick_3">
     <g id="line2d_5">
      <path d="M 272.205369 153.633437 
L 272.205369 22.318125 
" clip-path="url(#pcc2d802c7f)" style="fill: none; stroke: #b0b0b0; stroke-opacity: 0.3; stroke-width: 0.8; stroke-linecap: square"/>
     </g>
     <g id="line2d_6">
      <g>
       <use xlink:href="#mdabdbeac49" x="272.205369" y="153.633437" style="stroke: #000000; stroke-width: 0.8"/>
      </g>
     </g>
     <g id="text_3">
      <!-- 0.50 -->
      <g transform="translate(261.072557 168.231094) scale(0.1 -0.1)">
       <use xlink:href="#DejaVuSans-13"/>
       <use xlink:href="#DejaVuSans-11" transform="translate(63.625 0)"/>
       <use xlink:href="#DejaVuSans-18" transform="translate(95.40625 0)"/>
       <use xlink:href="#DejaVuSans-13" transform="translate(159.03125 0)"/>
      </g>
     </g>
    </g>
    <g id="xtick_4">
     <g id="line2d_7">
      <path d="M 362.346278 153.633437 
L 362.346278 22.318125 
" clip-path="url(#pcc2d802c7f)" style="fill: none; stroke: #b0b0b0; stroke-opacity: 0.3; stroke-width: 0.8; stroke-linecap: square"/>
     </g>
     <g id="line2d_8">
      <g>
       <use xlink:href="#mdabdbeac49" x="362.346278" y="153.633437" style="stroke: #000000; stroke-width: 0.8"/>
      </g>
     </g>
     <g id="text_4">
      <!-- 0.75 -->
      <g transform="translate(351.213466 168.231094) scale(0.1 -0.1)">
       <defs>
        <path id="DejaVuSans-1a" d="M 525 4666 
L 3525 4666 
L 3525 4397 
L 1831 0 
L 1172 0 
L 2766 4134 
L 525 4134 
L 525 4666 
z
" transform="scale(0.015625)"/>
       </defs>
       <use xlink:href="#DejaVuSans-13"/>
       <use xlink:href="#DejaVuSans-11" transform="translate(63.625 0)"/>
       <use xlink:href="#DejaVuSans-1a" transform="translate(95.40625 0)"/>
       <use xlink:href="#DejaVuSans-18" transform="translate(159.03125 0)"/>
      </g>
     </g>
    </g>
    <g id="xtick_5">
     <g id="line2d_9">
      <path d="M 452.487187 153.633437 
L 452.487187 22.318125 
" clip-path="url(#pcc2d802c7f)" style="fill: none; stroke: #b0b0b0; stroke-opacity: 0.3; stroke-width: 0.8; stroke-linecap: square"/>
     </g>
     <g id="line2d_10">
      <g>
       <use xlink:href="#mdabdbeac49" x="452.487187" y="153.633437" style="stroke: #000000; stroke-width: 0.8"/>
      </g>
     </g>
     <g id="text_5">
      <!-- 1.00 -->
      <g transform="translate(441.354375 168.231094) scale(0.1 -0.1)">
       <defs>
        <path id="DejaVuSans-14" d="M 794 531 
L 1825 531 
L 1825 4091 
L 703 3866 
L 703 4441 
L 1819 4666 
L 2450 4666 
L 2450 531 
L 3481 531 
L 3481 0 
L 794 0 
L 794 531 
z
" transform="scale(0.015625)"/>
       </defs>
       <use xlink:href="#DejaVuSans-14"/>
       <use xlink:href="#DejaVuSans-11" transform="translate(63.625 0)"/>
       <use xlink:href="#DejaVuSans-13" transform="translate(95.40625 0)"/>
       <use xlink:href="#DejaVuSans-13" transform="translate(159.03125 0)"/>
      </g>
     </g>
    </g>
    <g id="xtick_6">
     <g id="line2d_11">
      <path d="M 542.628097 153.633437 
L 542.628097 22.318125 
" clip-path="url(#pcc2d802c7f)" style="fill: none; stroke: #b0b0b0; stroke-opacity: 0.3; stroke-width: 0.8; stroke-linecap: square"/>
     </g>
     <g id="line2d_12">
      <g>
       <use xlink:href="#mdabdbeac49" x="542.628097" y="153.633437" style="stroke: #000000; stroke-width: 0.8"/>
      </g>
     </g>
     <g id="text_6">
      <!-- 1.25 -->
      <g transform="translate(531.495284 168.231094) scale(0.1 -0.1)">
       <use xlink:href="#DejaVuSans-14"/>
       <use xlink:href="#DejaVuSans-11" transform="translate(63.625 0)"/>
       <use xlink:href="#DejaVuSans-15" transform="translate(95.40625 0)"/>
       <use xlink:href="#DejaVuSans-18" transform="translate(159.03125 0)"/>
      </g>
     </g>
    </g>
    <g id="xtick_7">
     <g id="line2d_13">
      <path d="M 632.769006 153.633437 
L 632.769006 22.318125 
" clip-path="url(#pcc2d802c7f)" style="fill: none; stroke: #b0b0b0; stroke-opacity: 0.3; stroke-width: 0.8; stroke-linecap: square"/>
     </g>
     <g id="line2d_14">
      <g>
       <use xlink:href="#mdabdbeac49" x="632.769006" y="153.633437" style="stroke: #000000; stroke-width: 0.8"/>
      </g>
     </g>
     <g id="text_7">
      <!-- 1.50 -->
      <g transform="translate(621.636193 168.231094) scale(0.1 -0.1)">
       <use xlink:href="#DejaVuSans-14"/>
       <use xlink:href="#DejaVuSans-11" transform="translate(63.625 0)"/>
       <use xlink:href="#DejaVuSans-18" transform="translate(95.40625 0)"/>
       <use xlink:href="#DejaVuSans-13" transform="translate(159.03125 0)"/>
      </g>
     </g>
    </g>
    <g id="xtick_8">
     <g id="line2d_15">
      <path d="M 722.909915 153.633437 
L 722.909915 22.318125 
" clip-path="url(#pcc2d802c7f)" style="fill: none; stroke: #b0b0b0; stroke-opacity: 0.3; stroke-width: 0.8; stroke-linecap: square"/>
     </g>
     <g id="line2d_16">
      <g>
       <use xlink:href="#mdabdbeac49" x="722.909915" y="153.633437" style="stroke: #000000; stroke-width: 0.8"/>
      </g>
     </g>
     <g id="text_8">
      <!-- 1.75 -->
      <g transform="translate(711.777102 168.231094) scale(0.1 -0.1)">
       <use xlink:href="#DejaVuSans-14"/>
       <use xlink:href="#DejaVuSans-11" transform="translate(63.625 0)"/>
       <use xlink:href="#DejaVuSans-1a" transform="translate(95.40625 0)"/>
       <use xlink:href="#DejaVuSans-18" transform="translate(159.03125 0)"/>
      </g>
     </g>
    </g>
    <g id="xtick_9">
     <g id="line2d_17">
      <path d="M 813.050824 153.633437 
L 813.050824 22.318125 
" clip-path="url(#pcc2d802c7f)" style="fill: none; stroke: #b0b0b0; stroke-opacity: 0.3; stroke-width: 0.8; stroke-linecap: square"/>
     </g>
     <g id="line2d_18">
      <g>
       <use xlink:href="#mdabdbeac49" x="813.050824" y="153.633437" style="stroke: #000000; stroke-width: 0.8"/>
      </g>
     </g>
     <g id="text_9">
      <!-- 2.00 -->
      <g transform="translate(801.918011 168.231094) scale(0.1 -0.1)">
       <use xlink:href="#DejaVuSans-15"/>
       <use xlink:href="#DejaVuSans-11" transform="translate(63.625 0)"/>
       <use xlink:href="#DejaVuSans-13" transform="translate(95.40625 0)"/>
       <use xlink:href="#DejaVuSans-13" transform="translate(159.03125 0)"/>
      </g>
     </g>
    </g>
   </g>
   <g id="matplotlib.axis_2">
    <g id="ytick_1">
     <g id="line2d_19">
      <path d="M 55.867188 132.14392 
L 849.107187 132.14392 
" clip-path="url(#pcc2d802c7f)" style="fill: none; stroke: #b0b0b0; stroke-opacity: 0.3; stroke-width: 0.8; stroke-linecap: square"/>
     </g>
     <g id="line2d_20">
      <defs>
       <path id="m07bc8c4d41" d="M 0 0 
L -3.5 0 
" style="stroke: #000000; stroke-width: 0.8"/>
      </defs>
      <g>
       <use xlink:href="#m07bc8c4d41" x="55.867188" y="132.14392" style="stroke: #000000; stroke-width: 0.8"/>
      </g>
     </g>
     <g id="text_10">
      <!-- −2 -->
      <g transform="translate(34.125 135.942748) scale(0.1 -0.1)">
       <defs>
        <path id="DejaVuSans-c9c" d="M 678 2272 
L 4684 2272 
L 4684 1741 
L 678 1741 
L 678 2272 
z
" transform="scale(0.015625)"/>
       </defs>
       <use xlink:href="#DejaVuSans-c9c"/>
       <use xlink:href="#DejaVuSans-15" transform="translate(83.796875 0)"/>
      </g>
     </g>
    </g>
    <g id="ytick_2">
     <g id="line2d_21">
      <path d="M 55.867188 93.269643 
L 849.107187 93.269643 
" clip-path="url(#pcc2d802c7f)" style="fill: none; stroke: #b0b0b0; stroke-opacity: 0.3; stroke-width: 0.8; stroke-linecap: square"/>
     </g>
     <g id="line2d_22">
      <g>
       <use xlink:href="#m07bc8c4d41" x="55.867188" y="93.269643" style="stroke: #000000; stroke-width: 0.8"/>
      </g>
     </g>
     <g id="text_11">
      <!-- 0 -->
      <g transform="translate(42.504688 97.068471) scale(0.1 -0.1)">
       <use xlink:href="#DejaVuSans-13"/>
      </g>
     </g>
    </g>
    <g id="ytick_3">
     <g id="line2d_23">
      <path d="M 55.867188 54.395366 
L 849.107187 54.395366 
" clip-path="url(#pcc2d802c7f)" style="fill: none; stroke: #b0b0b0; stroke-opacity: 0.3; stroke-width: 0.8; stroke-linecap: square"/>
     </g>
     <g id="line2d_24">
      <g>
       <use xlink:href="#m07bc8c4d41" x="55.867188" y="54.395366" style="stroke: #000000; stroke-width: 0.8"/>
      </g>
     </g>
     <g id="text_12">
      <!-- 2 -->
      <g transform="translate(42.504688 58.194194) scale(0.1 -0.1)">
       <use xlink:href="#DejaVuSans-15"/>
      </g>
     </g>
    </g>
    <g id="text_13">
     <!-- x₁ (10 Hz) -->
     <g transform="translate(27.722656 112.766406) rotate(-90) scale(0.1 -0.1)">
      <defs>
       <path id="DejaVuSans-5b" d="M 3513 3500 
L 2247 1797 
L 3578 0 
L 2900 0 
L 1881 1375 
L 863 0 
L 184 0 
L 1544 1831 
L 300 3500 
L 978 3500 
L 1906 2253 
L 2834 3500 
L 3513 3500 
z
" transform="scale(0.015625)"/>
       <path id="DejaVuSans-b5c" d="M 488 343 
L 1125 343 
L 1125 2253 
L 428 2125 
L 428 2487 
L 1147 2609 
L 1575 2609 
L 1575 343 
L 2216 343 
L 2216 0 
L 488 0 
L 488 343 
z
" transform="scale(0.015625)"/>
       <path id="DejaVuSans-3" transform="scale(0.015625)"/>
       <path id="DejaVuSans-b" d="M 1984 4856 
Q 1566 4138 1362 3434 
Q 1159 2731 1159 2009 
Q 1159 1288 1364 580 
Q 1569 -128 1984 -844 
L 1484 -844 
Q 1016 -109 783 600 
Q 550 1309 550 2009 
Q 550 2706 781 3412 
Q 1013 4119 1484 4856 
L 1984 4856 
z
" transform="scale(0.015625)"/>
       <path id="DejaVuSans-2b" d="M 628 4666 
L 1259 4666 
L 1259 2753 
L 3553 2753 
L 3553 4666 
L 4184 4666 
L 4184 0 
L 3553 0 
L 3553 2222 
L 1259 2222 
L 1259 0 
L 628 0 
L 628 4666 
z
" transform="scale(0.015625)"/>
       <path id="DejaVuSans-5d" d="M 353 3500 
L 3084 3500 
L 3084 2975 
L 922 459 
L 3084 459 
L 3084 0 
L 275 0 
L 275 525 
L 2438 3041 
L 353 3041 
L 353 3500 
z
" transform="scale(0.015625)"/>
       <path id="DejaVuSans-c" d="M 513 4856 
L 1013 4856 
Q 1481 4119 1714 3412 
Q 1947 2706 1947 2009 
Q 1947 1309 1714 600 
Q 1481 -109 1013 -844 
L 513 -844 
Q 928 -128 1133 580 
Q 1338 1288 1338 2009 
Q 1338 2731 1133 3434 
Q 928 4138 513 4856 
z
" transform="scale(0.015625)"/>
      </defs>
      <use xlink:href="#DejaVuSans-5b"/>
      <use xlink:href="#DejaVuSans-b5c" transform="translate(59.1875 0)"/>
      <use xlink:href="#DejaVuSans-3" transform="translate(99.28125 0)"/>
      <use xlink:href="#DejaVuSans-b" transform="translate(131.0625 0)"/>
      <use xlink:href="#DejaVuSans-14" transform="translate(170.078125 0)"/>
      <use xlink:href="#DejaVuSans-13" transform="translate(233.703125 0)"/>
      <use xlink:href="#DejaVuSans-3" transform="translate(297.328125 0)"/>
      <use xlink:href="#DejaVuSans-2b" transform="translate(329.109375 0)"/>
      <use xlink:href="#DejaVuSans-5d" transform="translate(404.3125 0)"/>
      <use xlink:href="#DejaVuSans-c" transform="translate(456.796875 0)"/>
     </g>
    </g>
   </g>
   <g id="line2d_25">
    <path d="M 91.923551 77.628246 
L 93.365806 104.070715 
L 94.80806 70.166572 
L 96.250315 67.903224 
L 97.692569 125.984714 
L 99.134824 115.577083 
L 100.577078 90.174557 
L 102.019333 101.237572 
L 103.461588 97.734175 
L 104.903842 116.045225 
L 106.346097 84.03915 
L 107.788351 87.18769 
L 109.230606 101.62813 
L 110.67286 81.001235 
L 112.115115 93.218696 
L 113.557369 117.834317 
L 114.999624 92.297032 
L 116.441878 116.045542 
L 117.884133 78.016161 
L 119.326387 93.629826 
L 120.768642 93.859635 
L 122.210897 101.297495 
L 123.653151 62.422405 
L 125.095406 87.756807 
L 126.53766 92.181868 
L 127.979915 90.395542 
L 129.422169 73.509833 
L 130.864424 77.650009 
L 132.306678 78.16277 
L 133.748933 79.688246 
L 135.191188 48.638939 
L 136.633442 100.558954 
L 138.075697 105.047254 
L 139.517951 113.225022 
L 140.960206 87.491615 
L 142.40246 79.18814 
L 143.844715 104.520553 
L 145.286969 119.241816 
L 146.729224 118.937134 
L 148.171478 89.660078 
L 149.613733 86.685396 
L 151.055988 88.907127 
L 152.498242 110.343213 
L 153.940497 90.578169 
L 155.382751 90.391371 
L 156.825006 86.015759 
L 158.26726 71.124091 
L 159.709515 81.839053 
L 161.151769 71.557059 
L 162.594024 82.542857 
L 164.036278 77.93142 
L 165.478533 71.585964 
L 166.920787 113.076135 
L 168.363042 92.398604 
L 169.805297 97.204871 
L 171.247551 102.684397 
L 172.689806 98.007387 
L 174.13206 66.03334 
L 175.574315 114.236888 
L 177.016569 80.643932 
L 178.458824 133.842303 
L 179.901078 108.814947 
L 181.343333 99.748124 
L 182.785587 91.517094 
L 184.227842 88.48153 
L 185.670097 85.71173 
L 187.112351 106.24271 
L 188.554606 106.394404 
L 189.99686 78.414125 
L 192.881369 115.062131 
L 194.323624 110.090034 
L 195.765878 104.056632 
L 197.208133 75.089813 
L 198.650387 81.088052 
L 200.092642 70.130014 
L 201.534897 92.160969 
L 202.977151 81.671638 
L 204.419406 74.025424 
L 205.86166 94.074985 
L 207.303915 81.388036 
L 208.746169 105.525355 
L 210.188424 102.147449 
L 211.630678 104.827501 
L 213.072933 122.708193 
L 214.515187 91.666779 
L 215.957442 111.429578 
L 218.841951 93.567239 
L 220.284206 93.626452 
L 221.72646 88.198948 
L 223.168715 101.378768 
L 224.610969 105.635316 
L 226.053224 96.640215 
L 227.495478 125.456362 
L 228.937733 118.394165 
L 230.379987 113.771669 
L 231.822242 105.568735 
L 233.264497 76.982729 
L 234.706751 101.456322 
L 236.149006 90.901472 
L 237.59126 58.60312 
L 239.033515 91.677948 
L 240.475769 71.849919 
L 241.918024 106.209029 
L 243.360278 94.259558 
L 244.802533 111.125119 
L 246.244787 101.680554 
L 247.687042 81.074423 
L 249.129297 133.038658 
L 250.571551 92.688178 
L 252.013806 97.68484 
L 254.898315 131.018805 
L 256.340569 100.903749 
L 257.782824 111.423954 
L 259.225078 94.941932 
L 260.667333 96.982865 
L 262.109587 63.956723 
L 263.551842 97.311797 
L 264.994097 110.160302 
L 266.436351 84.577568 
L 267.878606 81.909005 
L 269.32086 58.334479 
L 272.205369 76.614521 
L 273.647624 55.413979 
L 275.089878 107.859348 
L 276.532133 98.62005 
L 277.974387 106.072158 
L 279.416642 97.843227 
L 280.858897 119.418248 
L 282.301151 82.745204 
L 283.743406 101.726982 
L 285.18566 128.052758 
L 286.627915 120.872082 
L 288.070169 96.211928 
L 289.512424 86.620796 
L 290.954678 64.100843 
L 292.396933 45.668592 
L 293.839187 93.077197 
L 295.281442 118.698281 
L 296.723697 138.848487 
L 298.165951 89.887176 
L 299.608206 108.460657 
L 301.05046 98.339796 
L 302.492715 99.959583 
L 303.934969 88.921683 
L 305.377224 64.03359 
L 306.819478 80.803826 
L 308.261733 86.634481 
L 309.703987 103.986546 
L 311.146242 117.30424 
L 312.588497 95.637545 
L 314.030751 89.107552 
L 315.473006 55.902941 
L 316.91526 90.127245 
L 318.357515 75.989077 
L 319.799769 107.112486 
L 321.242024 122.496408 
L 322.684278 119.891239 
L 324.126533 116.402059 
L 325.568787 61.540217 
L 327.011042 118.876985 
L 328.453297 86.007909 
L 329.895551 118.682451 
L 331.337806 81.357378 
L 334.222315 98.135314 
L 335.664569 93.451716 
L 337.106824 102.993639 
L 338.549078 79.391806 
L 339.991333 95.028688 
L 341.433587 108.575465 
L 342.875842 108.69585 
L 345.760351 53.163385 
L 347.202606 81.643417 
L 348.64486 88.4911 
L 350.087115 82.506531 
L 351.529369 64.881503 
L 352.971624 88.395241 
L 354.413878 103.077971 
L 355.856133 75.904522 
L 357.298387 91.130694 
L 358.740642 71.281429 
L 361.625151 126.711752 
L 363.067406 129.504678 
L 364.50966 70.216425 
L 365.951915 67.629001 
L 367.394169 102.953832 
L 368.836424 104.855673 
L 370.278678 66.684426 
L 371.720933 114.177209 
L 373.163187 107.657373 
L 374.605442 75.557741 
L 376.047697 93.855105 
L 377.489951 84.85275 
L 378.932206 87.033263 
L 380.37446 76.98959 
L 381.816715 56.49898 
L 383.258969 82.992484 
L 384.701224 73.668783 
L 386.143478 127.911652 
L 387.585733 91.213386 
L 389.027987 109.049392 
L 390.470242 118.780959 
L 391.912497 114.476378 
L 393.354751 105.958896 
L 394.797006 83.329606 
L 396.23926 128.087019 
L 397.681515 102.31619 
L 399.123769 112.322447 
L 400.566024 108.674767 
L 402.008278 81.641388 
L 403.450533 89.005068 
L 404.892787 71.412416 
L 406.335042 98.093869 
L 407.777297 106.186542 
L 410.661806 83.348729 
L 412.10406 82.75303 
L 413.546315 105.830597 
L 414.988569 82.097538 
L 416.430824 79.114968 
L 417.873078 34.923909 
L 419.315333 48.272707 
L 420.757587 102.76972 
L 422.199842 93.648083 
L 423.642097 118.711565 
L 427.96886 73.969265 
L 429.411115 113.635796 
L 430.853369 113.846865 
L 432.295624 144.042894 
L 433.737878 106.073338 
L 435.180133 123.561874 
L 436.622387 112.596527 
L 438.064642 118.175795 
L 439.506897 101.296686 
L 440.949151 131.572819 
L 442.391406 123.605883 
L 443.83366 51.272938 
L 445.275915 115.290251 
L 446.718169 109.380546 
L 448.160424 50.480768 
L 449.602678 28.287003 
L 451.044933 106.628303 
L 452.487187 90.70878 
L 453.929442 77.217538 
L 455.371697 51.15226 
L 456.813951 105.366788 
L 458.256206 92.829672 
L 459.69846 75.157222 
L 461.140715 84.2088 
L 462.582969 102.402119 
L 464.025224 100.008744 
L 465.467478 126.188532 
L 466.909733 105.761547 
L 468.351987 107.483551 
L 469.794242 98.39886 
L 471.236497 113.70555 
L 472.678751 93.14038 
L 474.121006 81.447833 
L 475.56326 96.443391 
L 477.005515 90.57047 
L 478.447769 94.057533 
L 479.890024 92.657768 
L 481.332278 104.291463 
L 482.774533 81.91043 
L 484.216787 88.076084 
L 485.659042 44.067993 
L 487.101297 53.274883 
L 489.985806 98.688049 
L 491.42806 106.375292 
L 492.870315 63.0327 
L 494.312569 82.95508 
L 495.754824 80.933826 
L 497.197078 126.569168 
L 498.639333 77.063971 
L 500.081587 88.574977 
L 501.523842 121.048087 
L 502.966097 110.297223 
L 504.408351 97.179832 
L 505.850606 101.891774 
L 507.29286 108.59055 
L 508.735115 104.317256 
L 510.177369 106.02985 
L 511.619624 96.499113 
L 513.061878 68.806015 
L 514.504133 144.979217 
L 515.946387 97.2631 
L 517.388642 86.835543 
L 518.830897 82.308897 
L 520.273151 93.414066 
L 521.715406 118.89884 
L 523.15766 77.481107 
L 524.599915 49.976328 
L 526.042169 113.670277 
L 527.484424 67.962851 
L 528.926678 92.570701 
L 530.368933 89.254143 
L 531.811187 110.731774 
L 533.253442 99.16028 
L 534.695697 69.821574 
L 536.137951 86.082458 
L 537.580206 65.793311 
L 539.02246 78.246613 
L 540.464715 93.771151 
L 541.906969 69.014481 
L 543.349224 94.378807 
L 544.791478 86.212019 
L 546.233733 106.896621 
L 547.675988 98.171032 
L 549.118242 110.963532 
L 550.560497 75.856041 
L 552.002751 115.56226 
L 553.445006 75.059788 
L 554.88726 91.767884 
L 556.329515 63.419419 
L 557.771769 70.158451 
L 559.214024 48.468249 
L 560.656278 69.346905 
L 562.098533 114.412364 
L 563.540787 86.054574 
L 564.983042 108.965577 
L 566.425297 98.13605 
L 567.867551 60.892483 
L 569.309806 80.267576 
L 570.75206 108.675929 
L 572.194315 117.111373 
L 573.636569 98.827302 
L 575.078824 124.778579 
L 576.521078 115.350786 
L 577.963333 96.847007 
L 579.405587 80.455618 
L 580.847842 90.473159 
L 582.290097 145.668242 
L 583.732351 93.548474 
L 585.174606 96.007482 
L 586.61686 87.045878 
L 588.059115 61.244917 
L 589.501369 130.369888 
L 590.943624 99.551532 
L 592.385878 74.699583 
L 593.828133 115.494865 
L 595.270387 55.168174 
L 596.712642 76.391275 
L 598.154897 67.40123 
L 599.597151 95.850707 
L 601.039406 70.367873 
L 602.48166 67.294143 
L 603.923915 85.739957 
L 605.366169 88.103326 
L 606.808424 89.836022 
L 608.250678 114.18857 
L 609.692933 102.332027 
L 611.135187 104.096732 
L 612.577442 94.85366 
L 614.019697 83.477856 
L 615.461951 123.486491 
L 616.904206 104.735558 
L 618.34646 72.336874 
L 619.788715 113.917719 
L 621.230969 113.389796 
L 622.673224 91.158468 
L 624.115478 76.246977 
L 625.557733 90.04435 
L 626.999987 62.230982 
L 628.442242 69.531487 
L 629.884497 68.390622 
L 631.326751 73.085961 
L 632.769006 38.308158 
L 634.21126 87.844156 
L 635.653515 123.695936 
L 637.095769 55.002997 
L 638.538024 96.95854 
L 639.980278 88.169553 
L 641.422533 67.205491 
L 642.864787 126.234062 
L 644.307042 121.736049 
L 645.749297 130.588753 
L 647.191551 116.567868 
L 648.633806 93.760462 
L 650.07606 92.722867 
L 651.518315 97.541599 
L 652.960569 129.765866 
L 654.402824 146.033931 
L 655.845078 98.408014 
L 657.287333 106.577584 
L 658.729587 86.161576 
L 660.171842 79.015439 
L 661.614097 87.579422 
L 663.056351 73.287361 
L 664.498606 81.729898 
L 665.94086 74.450255 
L 667.383115 97.553232 
L 668.825369 87.042206 
L 670.267624 80.031636 
L 671.709878 68.80447 
L 673.152133 93.838312 
L 674.594388 77.932173 
L 676.036642 95.433585 
L 677.478897 94.944092 
L 678.921151 78.967245 
L 680.363406 136.146999 
L 681.80566 124.664204 
L 683.247915 129.941573 
L 684.690169 147.66456 
L 686.132424 116.095098 
L 687.574678 88.344728 
L 689.016933 107.843071 
L 690.459187 97.287657 
L 691.901442 78.293221 
L 693.343697 71.601189 
L 694.785951 96.434565 
L 696.228206 66.349572 
L 697.67046 88.475761 
L 699.112715 104.338798 
L 700.554969 97.738553 
L 701.997224 113.530589 
L 703.439478 101.119181 
L 704.881733 90.509894 
L 706.323987 68.237007 
L 707.766242 51.306354 
L 709.208497 113.050764 
L 710.650751 80.426731 
L 712.093006 110.491636 
L 713.53526 83.432656 
L 714.977515 97.63867 
L 716.419769 132.995178 
L 717.862024 81.421055 
L 719.304278 112.891613 
L 720.746533 112.683233 
L 722.188787 123.704504 
L 723.631042 115.628973 
L 725.073297 93.988774 
L 726.515551 104.810499 
L 727.957806 93.076243 
L 729.40006 90.372883 
L 730.842315 69.420838 
L 732.284569 99.322191 
L 733.726824 118.97233 
L 735.169078 67.318423 
L 736.611333 92.628292 
L 738.053587 63.088708 
L 739.495842 76.404646 
L 740.938097 86.100012 
L 742.380351 77.077195 
L 743.822606 46.831094 
L 745.26486 45.814553 
L 746.707115 86.713602 
L 748.149369 87.152793 
L 749.591624 71.74038 
L 751.033878 111.527952 
L 752.476133 90.933673 
L 753.918387 99.967192 
L 755.360642 95.030653 
L 756.802897 118.504045 
L 758.245151 133.808222 
L 759.687406 143.204444 
L 761.12966 124.02449 
L 762.571915 110.047466 
L 764.014169 105.163297 
L 765.456424 59.753378 
L 766.898678 73.593375 
L 768.340933 111.359707 
L 769.783187 83.507982 
L 771.225442 95.974609 
L 772.667697 91.71233 
L 774.109951 81.150995 
L 775.552206 71.821486 
L 776.99446 90.145288 
L 778.436715 63.178171 
L 779.878969 106.949207 
L 781.321224 86.061898 
L 782.763478 37.570829 
L 784.205733 85.930408 
L 785.647987 64.80182 
L 787.090242 93.311831 
L 788.532497 86.118964 
L 789.974751 100.568195 
L 791.417006 104.444366 
L 792.85926 117.456647 
L 794.301515 94.547751 
L 795.743769 119.463025 
L 797.186024 89.368668 
L 798.628278 80.037257 
L 800.070533 92.34017 
L 801.512787 102.971465 
L 802.955042 86.266929 
L 804.397297 98.65913 
L 805.839551 72.082081 
L 807.281806 123.659467 
L 808.72406 92.708358 
L 810.166315 123.448884 
L 811.608569 112.916105 
L 813.050824 57.041495 
L 813.050824 57.041495 
" clip-path="url(#pcc2d802c7f)" style="fill: none; stroke: #2563eb; stroke-width: 0.5; stroke-linecap: square"/>
   </g>
   <g id="patch_3">
    <path d="M 55.867188 153.633437 
L 55.867188 22.318125 
" style="fill: none; stroke: #000000; stroke-width: 0.8; stroke-linejoin: miter; stroke-linecap: square"/>
   </g>
   <g id="patch_4">
    <path d="M 849.107187 153.633437 
L 849.107187 22.318125 
" style="fill: none; stroke: #000000; stroke-width: 0.8; stroke-linejoin: miter; stroke-linecap: square"/>
   </g>
   <g id="patch_5">
    <path d="M 55.867188 153.633437 
L 849.107188 153.633437 
" style="fill: none; stroke: #000000; stroke-width: 0.8; stroke-linejoin: miter; stroke-linecap: square"/>
   </g>
   <g id="patch_6">
    <path d="M 55.867188 22.318125 
L 849.107188 22.318125 
" style="fill: none; stroke: #000000; stroke-width: 0.8; stroke-linejoin: miter; stroke-linecap: square"/>
   </g>
   <g id="text_14">
    <!-- No shared component: 10 Hz and 20 Hz (separate signals) -->
    <g transform="translate(276.8325 16.318125) scale(0.12 -0.12)">
     <defs>
      <path id="DejaVuSans-31" d="M 628 4666 
L 1478 4666 
L 3547 763 
L 3547 4666 
L 4159 4666 
L 4159 0 
L 3309 0 
L 1241 3903 
L 1241 0 
L 628 0 
L 628 4666 
z
" transform="scale(0.015625)"/>
      <path id="DejaVuSans-52" d="M 1959 3097 
Q 1497 3097 1228 2736 
Q 959 2375 959 1747 
Q 959 1119 1226 758 
Q 1494 397 1959 397 
Q 2419 397 2687 759 
Q 2956 1122 2956 1747 
Q 2956 2369 2687 2733 
Q 2419 3097 1959 3097 
z
M 1959 3584 
Q 2709 3584 3137 3096 
Q 3566 2609 3566 1747 
Q 3566 888 3137 398 
Q 2709 -91 1959 -91 
Q 1206 -91 779 398 
Q 353 888 353 1747 
Q 353 2609 779 3096 
Q 1206 3584 1959 3584 
z
" transform="scale(0.015625)"/>
      <path id="DejaVuSans-56" d="M 2834 3397 
L 2834 2853 
Q 2591 2978 2328 3040 
Q 2066 3103 1784 3103 
Q 1356 3103 1142 2972 
Q 928 2841 928 2578 
Q 928 2378 1081 2264 
Q 1234 2150 1697 2047 
L 1894 2003 
Q 2506 1872 2764 1633 
Q 3022 1394 3022 966 
Q 3022 478 2636 193 
Q 2250 -91 1575 -91 
Q 1294 -91 989 -36 
Q 684 19 347 128 
L 347 722 
Q 666 556 975 473 
Q 1284 391 1588 391 
Q 1994 391 2212 530 
Q 2431 669 2431 922 
Q 2431 1156 2273 1281 
Q 2116 1406 1581 1522 
L 1381 1569 
Q 847 1681 609 1914 
Q 372 2147 372 2553 
Q 372 3047 722 3315 
Q 1072 3584 1716 3584 
Q 2034 3584 2315 3537 
Q 2597 3491 2834 3397 
z
" transform="scale(0.015625)"/>
      <path id="DejaVuSans-4b" d="M 3513 2113 
L 3513 0 
L 2938 0 
L 2938 2094 
Q 2938 2591 2744 2837 
Q 2550 3084 2163 3084 
Q 1697 3084 1428 2787 
Q 1159 2491 1159 1978 
L 1159 0 
L 581 0 
L 581 4863 
L 1159 4863 
L 1159 2956 
Q 1366 3272 1645 3428 
Q 1925 3584 2291 3584 
Q 2894 3584 3203 3211 
Q 3513 2838 3513 2113 
z
" transform="scale(0.015625)"/>
      <path id="DejaVuSans-44" d="M 2194 1759 
Q 1497 1759 1228 1600 
Q 959 1441 959 1056 
Q 959 750 1161 570 
Q 1363 391 1709 391 
Q 2188 391 2477 730 
Q 2766 1069 2766 1631 
L 2766 1759 
L 2194 1759 
z
M 3341 1997 
L 3341 0 
L 2766 0 
L 2766 531 
Q 2569 213 2275 61 
Q 1981 -91 1556 -91 
Q 1019 -91 701 211 
Q 384 513 384 1019 
Q 384 1609 779 1909 
Q 1175 2209 1959 2209 
L 2766 2209 
L 2766 2266 
Q 2766 2663 2505 2880 
Q 2244 3097 1772 3097 
Q 1472 3097 1187 3025 
Q 903 2953 641 2809 
L 641 3341 
Q 956 3463 1253 3523 
Q 1550 3584 1831 3584 
Q 2591 3584 2966 3190 
Q 3341 2797 3341 1997 
z
" transform="scale(0.015625)"/>
      <path id="DejaVuSans-55" d="M 2631 2963 
Q 2534 3019 2420 3045 
Q 2306 3072 2169 3072 
Q 1681 3072 1420 2755 
Q 1159 2438 1159 1844 
L 1159 0 
L 581 0 
L 581 3500 
L 1159 3500 
L 1159 2956 
Q 1341 3275 1631 3429 
Q 1922 3584 2338 3584 
Q 2397 3584 2469 3576 
Q 2541 3569 2628 3553 
L 2631 2963 
z
" transform="scale(0.015625)"/>
      <path id="DejaVuSans-48" d="M 3597 1894 
L 3597 1613 
L 953 1613 
Q 991 1019 1311 708 
Q 1631 397 2203 397 
Q 2534 397 2845 478 
Q 3156 559 3463 722 
L 3463 178 
Q 3153 47 2828 -22 
Q 2503 -91 2169 -91 
Q 1331 -91 842 396 
Q 353 884 353 1716 
Q 353 2575 817 3079 
Q 1281 3584 2069 3584 
Q 2775 3584 3186 3129 
Q 3597 2675 3597 1894 
z
M 3022 2063 
Q 3016 2534 2758 2815 
Q 2500 3097 2075 3097 
Q 1594 3097 1305 2825 
Q 1016 2553 972 2059 
L 3022 2063 
z
" transform="scale(0.015625)"/>
      <path id="DejaVuSans-47" d="M 2906 2969 
L 2906 4863 
L 3481 4863 
L 3481 0 
L 2906 0 
L 2906 525 
Q 2725 213 2448 61 
Q 2172 -91 1784 -91 
Q 1150 -91 751 415 
Q 353 922 353 1747 
Q 353 2572 751 3078 
Q 1150 3584 1784 3584 
Q 2172 3584 2448 3432 
Q 2725 3281 2906 2969 
z
M 947 1747 
Q 947 1113 1208 752 
Q 1469 391 1925 391 
Q 2381 391 2643 752 
Q 2906 1113 2906 1747 
Q 2906 2381 2643 2742 
Q 2381 3103 1925 3103 
Q 1469 3103 1208 2742 
Q 947 2381 947 1747 
z
" transform="scale(0.015625)"/>
      <path id="DejaVuSans-46" d="M 3122 3366 
L 3122 2828 
Q 2878 2963 2633 3030 
Q 2388 3097 2138 3097 
Q 1578 3097 1268 2742 
Q 959 2388 959 1747 
Q 959 1106 1268 751 
Q 1578 397 2138 397 
Q 2388 397 2633 464 
Q 2878 531 3122 666 
L 3122 134 
Q 2881 22 2623 -34 
Q 2366 -91 2075 -91 
Q 1284 -91 818 406 
Q 353 903 353 1747 
Q 353 2603 823 3093 
Q 1294 3584 2113 3584 
Q 2378 3584 2631 3529 
Q 2884 3475 3122 3366 
z
" transform="scale(0.015625)"/>
      <path id="DejaVuSans-50" d="M 3328 2828 
Q 3544 3216 3844 3400 
Q 4144 3584 4550 3584 
Q 5097 3584 5394 3201 
Q 5691 2819 5691 2113 
L 5691 0 
L 5113 0 
L 5113 2094 
Q 5113 2597 4934 2840 
Q 4756 3084 4391 3084 
Q 3944 3084 3684 2787 
Q 3425 2491 3425 1978 
L 3425 0 
L 2847 0 
L 2847 2094 
Q 2847 2600 2669 2842 
Q 2491 3084 2119 3084 
Q 1678 3084 1418 2786 
Q 1159 2488 1159 1978 
L 1159 0 
L 581 0 
L 581 3500 
L 1159 3500 
L 1159 2956 
Q 1356 3278 1631 3431 
Q 1906 3584 2284 3584 
Q 2666 3584 2933 3390 
Q 3200 3197 3328 2828 
z
" transform="scale(0.015625)"/>
      <path id="DejaVuSans-53" d="M 1159 525 
L 1159 -1331 
L 581 -1331 
L 581 3500 
L 1159 3500 
L 1159 2969 
Q 1341 3281 1617 3432 
Q 1894 3584 2278 3584 
Q 2916 3584 3314 3078 
Q 3713 2572 3713 1747 
Q 3713 922 3314 415 
Q 2916 -91 2278 -91 
Q 1894 -91 1617 61 
Q 1341 213 1159 525 
z
M 3116 1747 
Q 3116 2381 2855 2742 
Q 2594 3103 2138 3103 
Q 1681 3103 1420 2742 
Q 1159 2381 1159 1747 
Q 1159 1113 1420 752 
Q 1681 391 2138 391 
Q 2594 391 2855 752 
Q 3116 1113 3116 1747 
z
" transform="scale(0.015625)"/>
      <path id="DejaVuSans-51" d="M 3513 2113 
L 3513 0 
L 2938 0 
L 2938 2094 
Q 2938 2591 2744 2837 
Q 2550 3084 2163 3084 
Q 1697 3084 1428 2787 
Q 1159 2491 1159 1978 
L 1159 0 
L 581 0 
L 581 3500 
L 1159 3500 
L 1159 2956 
Q 1366 3272 1645 3428 
Q 1925 3584 2291 3584 
Q 2894 3584 3203 3211 
Q 3513 2838 3513 2113 
z
" transform="scale(0.015625)"/>
      <path id="DejaVuSans-57" d="M 1172 4494 
L 1172 3500 
L 2356 3500 
L 2356 3053 
L 1172 3053 
L 1172 1153 
Q 1172 725 1289 603 
Q 1406 481 1766 481 
L 2356 481 
L 2356 0 
L 1766 0 
Q 1100 0 847 248 
Q 594 497 594 1153 
L 594 3053 
L 172 3053 
L 172 3500 
L 594 3500 
L 594 4494 
L 1172 4494 
z
" transform="scale(0.015625)"/>
      <path id="DejaVuSans-1d" d="M 750 794 
L 1409 794 
L 1409 0 
L 750 0 
L 750 794 
z
M 750 3309 
L 1409 3309 
L 1409 2516 
L 750 2516 
L 750 3309 
z
" transform="scale(0.015625)"/>
      <path id="DejaVuSans-4c" d="M 603 3500 
L 1178 3500 
L 1178 0 
L 603 0 
L 603 3500 
z
M 603 4863 
L 1178 4863 
L 1178 4134 
L 603 4134 
L 603 4863 
z
" transform="scale(0.015625)"/>
      <path id="DejaVuSans-4a" d="M 2906 1791 
Q 2906 2416 2648 2759 
Q 2391 3103 1925 3103 
Q 1463 3103 1205 2759 
Q 947 2416 947 1791 
Q 947 1169 1205 825 
Q 1463 481 1925 481 
Q 2391 481 2648 825 
Q 2906 1169 2906 1791 
z
M 3481 434 
Q 3481 -459 3084 -895 
Q 2688 -1331 1869 -1331 
Q 1566 -1331 1297 -1286 
Q 1028 -1241 775 -1147 
L 775 -588 
Q 1028 -725 1275 -790 
Q 1522 -856 1778 -856 
Q 2344 -856 2625 -561 
Q 2906 -266 2906 331 
L 2906 616 
Q 2728 306 2450 153 
Q 2172 0 1784 0 
Q 1141 0 747 490 
Q 353 981 353 1791 
Q 353 2603 747 3093 
Q 1141 3584 1784 3584 
Q 2172 3584 2450 3431 
Q 2728 3278 2906 2969 
L 2906 3500 
L 3481 3500 
L 3481 434 
z
" transform="scale(0.015625)"/>
      <path id="DejaVuSans-4f" d="M 603 4863 
L 1178 4863 
L 1178 0 
L 603 0 
L 603 4863 
z
" transform="scale(0.015625)"/>
     </defs>
     <use xlink:href="#DejaVuSans-31"/>
     <use xlink:href="#DejaVuSans-52" transform="translate(74.8125 0)"/>
     <use xlink:href="#DejaVuSans-3" transform="translate(136 0)"/>
     <use xlink:href="#DejaVuSans-56" transform="translate(167.78125 0)"/>
     <use xlink:href="#DejaVuSans-4b" transform="translate(219.875 0)"/>
     <use xlink:href="#DejaVuSans-44" transform="translate(283.25 0)"/>
     <use xlink:href="#DejaVuSans-55" transform="translate(344.53125 0)"/>
     <use xlink:href="#DejaVuSans-48" transform="translate(383.4375 0)"/>
     <use xlink:href="#DejaVuSans-47" transform="translate(444.96875 0)"/>
     <use xlink:href="#DejaVuSans-3" transform="translate(508.453125 0)"/>
     <use xlink:href="#DejaVuSans-46" transform="translate(540.234375 0)"/>
     <use xlink:href="#DejaVuSans-52" transform="translate(595.21875 0)"/>
     <use xlink:href="#DejaVuSans-50" transform="translate(656.40625 0)"/>
     <use xlink:href="#DejaVuSans-53" transform="translate(753.8125 0)"/>
     <use xlink:href="#DejaVuSans-52" transform="translate(817.296875 0)"/>
     <use xlink:href="#DejaVuSans-51" transform="translate(878.484375 0)"/>
     <use xlink:href="#DejaVuSans-48" transform="translate(941.859375 0)"/>
     <use xlink:href="#DejaVuSans-51" transform="translate(1003.390625 0)"/>
     <use xlink:href="#DejaVuSans-57" transform="translate(1066.765625 0)"/>
     <use xlink:href="#DejaVuSans-1d" transform="translate(1105.96875 0)"/>
     <use xlink:href="#DejaVuSans-3" transform="translate(1139.65625 0)"/>
     <use xlink:href="#DejaVuSans-14" transform="translate(1171.4375 0)"/>
     <use xlink:href="#DejaVuSans-13" transform="translate(1235.0625 0)"/>
     <use xlink:href="#DejaVuSans-3" transform="translate(1298.6875 0)"/>
     <use xlink:href="#DejaVuSans-2b" transform="translate(1330.46875 0)"/>
     <use xlink:href="#DejaVuSans-5d" transform="translate(1405.671875 0)"/>
     <use xlink:href="#DejaVuSans-3" transform="translate(1458.15625 0)"/>
     <use xlink:href="#DejaVuSans-44" transform="translate(1489.9375 0)"/>
     <use xlink:href="#DejaVuSans-51" transform="translate(1551.21875 0)"/>
     <use xlink:href="#DejaVuSans-47" transform="translate(1614.59375 0)"/>
     <use xlink:href="#DejaVuSans-3" transform="translate(1678.078125 0)"/>
     <use xlink:href="#DejaVuSans-15" transform="translate(1709.859375 0)"/>
     <use xlink:href="#DejaVuSans-13" transform="translate(1773.484375 0)"/>
     <use xlink:href="#DejaVuSans-3" transform="translate(1837.109375 0)"/>
     <use xlink:href="#DejaVuSans-2b" transform="translate(1868.890625 0)"/>
     <use xlink:href="#DejaVuSans-5d" transform="translate(1944.09375 0)"/>
     <use xlink:href="#DejaVuSans-3" transform="translate(1996.578125 0)"/>
     <use xlink:href="#DejaVuSans-b" transform="translate(2028.359375 0)"/>
     <use xlink:href="#DejaVuSans-56" transform="translate(2067.375 0)"/>
     <use xlink:href="#DejaVuSans-48" transform="translate(2119.46875 0)"/>
     <use xlink:href="#DejaVuSans-53" transform="translate(2181 0)"/>
     <use xlink:href="#DejaVuSans-44" transform="translate(2244.484375 0)"/>
     <use xlink:href="#DejaVuSans-55" transform="translate(2305.765625 0)"/>
     <use xlink:href="#DejaVuSans-44" transform="translate(2346.875 0)"/>
     <use xlink:href="#DejaVuSans-57" transform="translate(2408.15625 0)"/>
     <use xlink:href="#DejaVuSans-48" transform="translate(2447.359375 0)"/>
     <use xlink:href="#DejaVuSans-3" transform="translate(2508.890625 0)"/>
     <use xlink:href="#DejaVuSans-56" transform="translate(2540.671875 0)"/>
     <use xlink:href="#DejaVuSans-4c" transform="translate(2592.765625 0)"/>
     <use xlink:href="#DejaVuSans-4a" transform="translate(2620.546875 0)"/>
     <use xlink:href="#DejaVuSans-51" transform="translate(2684.03125 0)"/>
     <use xlink:href="#DejaVuSans-44" transform="translate(2747.40625 0)"/>
     <use xlink:href="#DejaVuSans-4f" transform="translate(2808.6875 0)"/>
     <use xlink:href="#DejaVuSans-56" transform="translate(2836.46875 0)"/>
     <use xlink:href="#DejaVuSans-c" transform="translate(2888.5625 0)"/>
    </g>
   </g>
   <g id="text_15">
    <!-- Figure B.37 -->
    <g transform="translate(55.867188 16.318125) scale(0.09 -0.09)">
     <defs>
      <path id="DejaVuSans-Oblique-29" d="M 1081 4666 
L 3756 4666 
L 3653 4134 
L 1606 4134 
L 1338 2759 
L 3188 2759 
L 3084 2228 
L 1234 2228 
L 800 0 
L 172 0 
L 1081 4666 
z
" transform="scale(0.015625)"/>
      <path id="DejaVuSans-Oblique-4c" d="M 1172 4863 
L 1747 4863 
L 1606 4134 
L 1031 4134 
L 1172 4863 
z
M 909 3500 
L 1484 3500 
L 800 0 
L 225 0 
L 909 3500 
z
" transform="scale(0.015625)"/>
      <path id="DejaVuSans-Oblique-4a" d="M 3816 3500 
L 3219 434 
Q 3047 -456 2561 -893 
Q 2075 -1331 1253 -1331 
Q 950 -1331 690 -1286 
Q 431 -1241 206 -1147 
L 313 -588 
Q 525 -725 762 -790 
Q 1000 -856 1269 -856 
Q 1816 -856 2167 -557 
Q 2519 -259 2631 300 
L 2681 563 
Q 2441 288 2122 144 
Q 1803 0 1434 0 
Q 903 0 598 351 
Q 294 703 294 1319 
Q 294 1803 478 2267 
Q 663 2731 997 3091 
Q 1219 3328 1514 3456 
Q 1809 3584 2131 3584 
Q 2484 3584 2746 3420 
Q 3009 3256 3138 2956 
L 3238 3500 
L 3816 3500 
z
M 2950 2216 
Q 2950 2641 2750 2872 
Q 2550 3103 2181 3103 
Q 1953 3103 1747 3012 
Q 1541 2922 1394 2759 
Q 1156 2491 1023 2127 
Q 891 1763 891 1375 
Q 891 944 1092 712 
Q 1294 481 1672 481 
Q 2219 481 2584 976 
Q 2950 1472 2950 2216 
z
" transform="scale(0.015625)"/>
      <path id="DejaVuSans-Oblique-58" d="M 428 1388 
L 838 3500 
L 1416 3500 
L 1006 1409 
Q 975 1256 961 1147 
Q 947 1038 947 966 
Q 947 700 1109 554 
Q 1272 409 1569 409 
Q 2031 409 2368 721 
Q 2706 1034 2809 1563 
L 3194 3500 
L 3769 3500 
L 3091 0 
L 2516 0 
L 2631 550 
Q 2388 244 2052 76 
Q 1716 -91 1338 -91 
Q 878 -91 622 161 
Q 366 413 366 863 
Q 366 956 381 1097 
Q 397 1238 428 1388 
z
" transform="scale(0.015625)"/>
      <path id="DejaVuSans-Oblique-55" d="M 2853 2969 
Q 2766 3016 2653 3041 
Q 2541 3066 2413 3066 
Q 1953 3066 1609 2717 
Q 1266 2369 1153 1784 
L 800 0 
L 225 0 
L 909 3500 
L 1484 3500 
L 1375 2956 
Q 1603 3259 1920 3421 
Q 2238 3584 2597 3584 
Q 2691 3584 2781 3573 
Q 2872 3563 2963 3538 
L 2853 2969 
z
" transform="scale(0.015625)"/>
      <path id="DejaVuSans-Oblique-48" d="M 3078 2063 
Q 3088 2113 3092 2166 
Q 3097 2219 3097 2272 
Q 3097 2653 2873 2875 
Q 2650 3097 2266 3097 
Q 1838 3097 1509 2826 
Q 1181 2556 1013 2059 
L 3078 2063 
z
M 3578 1613 
L 903 1613 
Q 884 1494 878 1425 
Q 872 1356 872 1306 
Q 872 872 1139 634 
Q 1406 397 1894 397 
Q 2269 397 2603 481 
Q 2938 566 3225 728 
L 3116 159 
Q 2806 34 2476 -28 
Q 2147 -91 1806 -91 
Q 1078 -91 686 257 
Q 294 606 294 1247 
Q 294 1794 489 2264 
Q 684 2734 1063 3103 
Q 1306 3334 1642 3459 
Q 1978 3584 2356 3584 
Q 2950 3584 3301 3228 
Q 3653 2872 3653 2272 
Q 3653 2128 3634 1964 
Q 3616 1800 3578 1613 
z
" transform="scale(0.015625)"/>
      <path id="DejaVuSans-Oblique-3" transform="scale(0.015625)"/>
      <path id="DejaVuSans-Oblique-25" d="M 1081 4666 
L 2694 4666 
Q 3350 4666 3675 4422 
Q 4000 4178 4000 3688 
Q 4000 3238 3720 2911 
Q 3441 2584 2988 2516 
Q 3375 2428 3569 2181 
Q 3763 1934 3763 1522 
Q 3763 819 3242 409 
Q 2722 0 1819 0 
L 172 0 
L 1081 4666 
z
M 1234 2228 
L 903 519 
L 1919 519 
Q 2491 519 2800 781 
Q 3109 1044 3109 1522 
Q 3109 1891 2904 2059 
Q 2700 2228 2247 2228 
L 1234 2228 
z
M 1606 4147 
L 1331 2741 
L 2272 2741 
Q 2775 2741 3058 2959 
Q 3341 3178 3341 3566 
Q 3341 3869 3150 4008 
Q 2959 4147 2541 4147 
L 1606 4147 
z
" transform="scale(0.015625)"/>
      <path id="DejaVuSans-Oblique-11" d="M 525 794 
L 1184 794 
L 1031 0 
L 372 0 
L 525 794 
z
" transform="scale(0.015625)"/>
      <path id="DejaVuSans-Oblique-16" d="M 1013 4550 
Q 1356 4650 1679 4700 
Q 2003 4750 2316 4750 
Q 2934 4750 3296 4475 
Q 3659 4200 3659 3738 
Q 3659 3284 3373 2959 
Q 3088 2634 2584 2516 
Q 2978 2403 3162 2165 
Q 3347 1928 3347 1538 
Q 3347 1163 3167 834 
Q 2988 506 2650 269 
Q 2394 88 2037 -1 
Q 1681 -91 1216 -91 
Q 922 -91 622 -33 
Q 322 25 13 141 
L 128 738 
Q 422 575 720 495 
Q 1019 416 1331 416 
Q 1947 416 2330 733 
Q 2713 1050 2713 1556 
Q 2713 1881 2469 2057 
Q 2225 2234 1772 2234 
L 1228 2234 
L 1325 2747 
L 1900 2747 
Q 2419 2747 2717 2984 
Q 3016 3222 3016 3628 
Q 3016 3922 2797 4083 
Q 2578 4244 2181 4244 
Q 1881 4244 1567 4180 
Q 1253 4116 916 3988 
L 1013 4550 
z
" transform="scale(0.015625)"/>
      <path id="DejaVuSans-Oblique-1a" d="M 819 4666 
L 4013 4666 
L 3956 4397 
L 1288 0 
L 594 0 
L 3116 4134 
L 716 4134 
L 819 4666 
z
" transform="scale(0.015625)"/>
     </defs>
     <use xlink:href="#DejaVuSans-Oblique-29"/>
     <use xlink:href="#DejaVuSans-Oblique-4c" transform="translate(57.515625 0)"/>
     <use xlink:href="#DejaVuSans-Oblique-4a" transform="translate(85.296875 0)"/>
     <use xlink:href="#DejaVuSans-Oblique-58" transform="translate(148.78125 0)"/>
     <use xlink:href="#DejaVuSans-Oblique-55" transform="translate(212.15625 0)"/>
     <use xlink:href="#DejaVuSans-Oblique-48" transform="translate(253.265625 0)"/>
     <use xlink:href="#DejaVuSans-Oblique-3" transform="translate(314.796875 0)"/>
     <use xlink:href="#DejaVuSans-Oblique-25" transform="translate(346.578125 0)"/>
     <use xlink:href="#DejaVuSans-Oblique-11" transform="translate(415.1875 0)"/>
     <use xlink:href="#DejaVuSans-Oblique-16" transform="translate(446.96875 0)"/>
     <use xlink:href="#DejaVuSans-Oblique-1a" transform="translate(510.59375 0)"/>
    </g>
   </g>
  </g>
  <g id="axes_2">
   <g id="patch_7">
    <path d="M 55.867188 342.033437 
L 849.107187 342.033437 
L 849.107187 210.718125 
L 55.867188 210.718125 
z
" style="fill: #ffffff"/>
   </g>
   <g id="matplotlib.axis_3">
    <g id="xtick_10">
     <g id="line2d_26">
      <path d="M 91.923551 342.033437 
L 91.923551 210.718125 
" clip-path="url(#p162a4d18a8)" style="fill: none; stroke: #b0b0b0; stroke-opacity: 0.3; stroke-width: 0.8; stroke-linecap: square"/>
     </g>
     <g id="line2d_27">
      <g>
       <use xlink:href="#mdabdbeac49" x="91.923551" y="342.033437" style="stroke: #000000; stroke-width: 0.8"/>
      </g>
     </g>
     <g id="text_16">
      <!-- 0.00 -->
      <g transform="translate(80.790739 356.631094) scale(0.1 -0.1)">
       <use xlink:href="#DejaVuSans-13"/>
       <use xlink:href="#DejaVuSans-11" transform="translate(63.625 0)"/>
       <use xlink:href="#DejaVuSans-13" transform="translate(95.40625 0)"/>
       <use xlink:href="#DejaVuSans-13" transform="translate(159.03125 0)"/>
      </g>
     </g>
    </g>
    <g id="xtick_11">
     <g id="line2d_28">
      <path d="M 182.06446 342.033437 
L 182.06446 210.718125 
" clip-path="url(#p162a4d18a8)" style="fill: none; stroke: #b0b0b0; stroke-opacity: 0.3; stroke-width: 0.8; stroke-linecap: square"/>
     </g>
     <g id="line2d_29">
      <g>
       <use xlink:href="#mdabdbeac49" x="182.06446" y="342.033437" style="stroke: #000000; stroke-width: 0.8"/>
      </g>
     </g>
     <g id="text_17">
      <!-- 0.25 -->
      <g transform="translate(170.931648 356.631094) scale(0.1 -0.1)">
       <use xlink:href="#DejaVuSans-13"/>
       <use xlink:href="#DejaVuSans-11" transform="translate(63.625 0)"/>
       <use xlink:href="#DejaVuSans-15" transform="translate(95.40625 0)"/>
       <use xlink:href="#DejaVuSans-18" transform="translate(159.03125 0)"/>
      </g>
     </g>
    </g>
    <g id="xtick_12">
     <g id="line2d_30">
      <path d="M 272.205369 342.033437 
L 272.205369 210.718125 
" clip-path="url(#p162a4d18a8)" style="fill: none; stroke: #b0b0b0; stroke-opacity: 0.3; stroke-width: 0.8; stroke-linecap: square"/>
     </g>
     <g id="line2d_31">
      <g>
       <use xlink:href="#mdabdbeac49" x="272.205369" y="342.033437" style="stroke: #000000; stroke-width: 0.8"/>
      </g>
     </g>
     <g id="text_18">
      <!-- 0.50 -->
      <g transform="translate(261.072557 356.631094) scale(0.1 -0.1)">
       <use xlink:href="#DejaVuSans-13"/>
       <use xlink:href="#DejaVuSans-11" transform="translate(63.625 0)"/>
       <use xlink:href="#DejaVuSans-18" transform="translate(95.40625 0)"/>
       <use xlink:href="#DejaVuSans-13" transform="translate(159.03125 0)"/>
      </g>
     </g>
    </g>
    <g id="xtick_13">
     <g id="line2d_32">
      <path d="M 362.346278 342.033437 
L 362.346278 210.718125 
" clip-path="url(#p162a4d18a8)" style="fill: none; stroke: #b0b0b0; stroke-opacity: 0.3; stroke-width: 0.8; stroke-linecap: square"/>
     </g>
     <g id="line2d_33">
      <g>
       <use xlink:href="#mdabdbeac49" x="362.346278" y="342.033437" style="stroke: #000000; stroke-width: 0.8"/>
      </g>
     </g>
     <g id="text_19">
      <!-- 0.75 -->
      <g transform="translate(351.213466 356.631094) scale(0.1 -0.1)">
       <use xlink:href="#DejaVuSans-13"/>
       <use xlink:href="#DejaVuSans-11" transform="translate(63.625 0)"/>
       <use xlink:href="#DejaVuSans-1a" transform="translate(95.40625 0)"/>
       <use xlink:href="#DejaVuSans-18" transform="translate(159.03125 0)"/>
      </g>
     </g>
    </g>
    <g id="xtick_14">
     <g id="line2d_34">
      <path d="M 452.487187 342.033437 
L 452.487187 210.718125 
" clip-path="url(#p162a4d18a8)" style="fill: none; stroke: #b0b0b0; stroke-opacity: 0.3; stroke-width: 0.8; stroke-linecap: square"/>
     </g>
     <g id="line2d_35">
      <g>
       <use xlink:href="#mdabdbeac49" x="452.487187" y="342.033437" style="stroke: #000000; stroke-width: 0.8"/>
      </g>
     </g>
     <g id="text_20">
      <!-- 1.00 -->
      <g transform="translate(441.354375 356.631094) scale(0.1 -0.1)">
       <use xlink:href="#DejaVuSans-14"/>
       <use xlink:href="#DejaVuSans-11" transform="translate(63.625 0)"/>
       <use xlink:href="#DejaVuSans-13" transform="translate(95.40625 0)"/>
       <use xlink:href="#DejaVuSans-13" transform="translate(159.03125 0)"/>
      </g>
     </g>
    </g>
    <g id="xtick_15">
     <g id="line2d_36">
      <path d="M 542.628097 342.033437 
L 542.628097 210.718125 
" clip-path="url(#p162a4d18a8)" style="fill: none; stroke: #b0b0b0; stroke-opacity: 0.3; stroke-width: 0.8; stroke-linecap: square"/>
     </g>
     <g id="line2d_37">
      <g>
       <use xlink:href="#mdabdbeac49" x="542.628097" y="342.033437" style="stroke: #000000; stroke-width: 0.8"/>
      </g>
     </g>
     <g id="text_21">
      <!-- 1.25 -->
      <g transform="translate(531.495284 356.631094) scale(0.1 -0.1)">
       <use xlink:href="#DejaVuSans-14"/>
       <use xlink:href="#DejaVuSans-11" transform="translate(63.625 0)"/>
       <use xlink:href="#DejaVuSans-15" transform="translate(95.40625 0)"/>
       <use xlink:href="#DejaVuSans-18" transform="translate(159.03125 0)"/>
      </g>
     </g>
    </g>
    <g id="xtick_16">
     <g id="line2d_38">
      <path d="M 632.769006 342.033437 
L 632.769006 210.718125 
" clip-path="url(#p162a4d18a8)" style="fill: none; stroke: #b0b0b0; stroke-opacity: 0.3; stroke-width: 0.8; stroke-linecap: square"/>
     </g>
     <g id="line2d_39">
      <g>
       <use xlink:href="#mdabdbeac49" x="632.769006" y="342.033437" style="stroke: #000000; stroke-width: 0.8"/>
      </g>
     </g>
     <g id="text_22">
      <!-- 1.50 -->
      <g transform="translate(621.636193 356.631094) scale(0.1 -0.1)">
       <use xlink:href="#DejaVuSans-14"/>
       <use xlink:href="#DejaVuSans-11" transform="translate(63.625 0)"/>
       <use xlink:href="#DejaVuSans-18" transform="translate(95.40625 0)"/>
       <use xlink:href="#DejaVuSans-13" transform="translate(159.03125 0)"/>
      </g>
     </g>
    </g>
    <g id="xtick_17">
     <g id="line2d_40">
      <path d="M 722.909915 342.033437 
L 722.909915 210.718125 
" clip-path="url(#p162a4d18a8)" style="fill: none; stroke: #b0b0b0; stroke-opacity: 0.3; stroke-width: 0.8; stroke-linecap: square"/>
     </g>
     <g id="line2d_41">
      <g>
       <use xlink:href="#mdabdbeac49" x="722.909915" y="342.033437" style="stroke: #000000; stroke-width: 0.8"/>
      </g>
     </g>
     <g id="text_23">
      <!-- 1.75 -->
      <g transform="translate(711.777102 356.631094) scale(0.1 -0.1)">
       <use xlink:href="#DejaVuSans-14"/>
       <use xlink:href="#DejaVuSans-11" transform="translate(63.625 0)"/>
       <use xlink:href="#DejaVuSans-1a" transform="translate(95.40625 0)"/>
       <use xlink:href="#DejaVuSans-18" transform="translate(159.03125 0)"/>
      </g>
     </g>
    </g>
    <g id="xtick_18">
     <g id="line2d_42">
      <path d="M 813.050824 342.033437 
L 813.050824 210.718125 
" clip-path="url(#p162a4d18a8)" style="fill: none; stroke: #b0b0b0; stroke-opacity: 0.3; stroke-width: 0.8; stroke-linecap: square"/>
     </g>
     <g id="line2d_43">
      <g>
       <use xlink:href="#mdabdbeac49" x="813.050824" y="342.033437" style="stroke: #000000; stroke-width: 0.8"/>
      </g>
     </g>
     <g id="text_24">
      <!-- 2.00 -->
      <g transform="translate(801.918011 356.631094) scale(0.1 -0.1)">
       <use xlink:href="#DejaVuSans-15"/>
       <use xlink:href="#DejaVuSans-11" transform="translate(63.625 0)"/>
       <use xlink:href="#DejaVuSans-13" transform="translate(95.40625 0)"/>
       <use xlink:href="#DejaVuSans-13" transform="translate(159.03125 0)"/>
      </g>
     </g>
    </g>
    <g id="text_25">
     <!-- Time (s) -->
     <g transform="translate(432.155937 370.631875) scale(0.1 -0.1)">
      <defs>
       <path id="DejaVuSans-37" d="M -19 4666 
L 3928 4666 
L 3928 4134 
L 2272 4134 
L 2272 0 
L 1638 0 
L 1638 4134 
L -19 4134 
L -19 4666 
z
" transform="scale(0.015625)"/>
      </defs>
      <use xlink:href="#DejaVuSans-37"/>
      <use xlink:href="#DejaVuSans-4c" transform="translate(58 0)"/>
      <use xlink:href="#DejaVuSans-50" transform="translate(85.78125 0)"/>
      <use xlink:href="#DejaVuSans-48" transform="translate(183.1875 0)"/>
      <use xlink:href="#DejaVuSans-3" transform="translate(244.71875 0)"/>
      <use xlink:href="#DejaVuSans-b" transform="translate(276.5 0)"/>
      <use xlink:href="#DejaVuSans-56" transform="translate(315.515625 0)"/>
      <use xlink:href="#DejaVuSans-c" transform="translate(367.609375 0)"/>
     </g>
    </g>
   </g>
   <g id="matplotlib.axis_4">
    <g id="ytick_4">
     <g id="line2d_44">
      <path d="M 55.867188 307.954175 
L 849.107187 307.954175 
" clip-path="url(#p162a4d18a8)" style="fill: none; stroke: #b0b0b0; stroke-opacity: 0.3; stroke-width: 0.8; stroke-linecap: square"/>
     </g>
     <g id="line2d_45">
      <g>
       <use xlink:href="#m07bc8c4d41" x="55.867188" y="307.954175" style="stroke: #000000; stroke-width: 0.8"/>
      </g>
     </g>
     <g id="text_26">
      <!-- −2 -->
      <g transform="translate(34.125 311.753003) scale(0.1 -0.1)">
       <use xlink:href="#DejaVuSans-c9c"/>
       <use xlink:href="#DejaVuSans-15" transform="translate(83.796875 0)"/>
      </g>
     </g>
    </g>
    <g id="ytick_5">
     <g id="line2d_46">
      <path d="M 55.867188 271.760524 
L 849.107187 271.760524 
" clip-path="url(#p162a4d18a8)" style="fill: none; stroke: #b0b0b0; stroke-opacity: 0.3; stroke-width: 0.8; stroke-linecap: square"/>
     </g>
     <g id="line2d_47">
      <g>
       <use xlink:href="#m07bc8c4d41" x="55.867188" y="271.760524" style="stroke: #000000; stroke-width: 0.8"/>
      </g>
     </g>
     <g id="text_27">
      <!-- 0 -->
      <g transform="translate(42.504688 275.559352) scale(0.1 -0.1)">
       <use xlink:href="#DejaVuSans-13"/>
      </g>
     </g>
    </g>
    <g id="ytick_6">
     <g id="line2d_48">
      <path d="M 55.867188 235.566872 
L 849.107187 235.566872 
" clip-path="url(#p162a4d18a8)" style="fill: none; stroke: #b0b0b0; stroke-opacity: 0.3; stroke-width: 0.8; stroke-linecap: square"/>
     </g>
     <g id="line2d_49">
      <g>
       <use xlink:href="#m07bc8c4d41" x="55.867188" y="235.566872" style="stroke: #000000; stroke-width: 0.8"/>
      </g>
     </g>
     <g id="text_28">
      <!-- 2 -->
      <g transform="translate(42.504688 239.3657) scale(0.1 -0.1)">
       <use xlink:href="#DejaVuSans-15"/>
      </g>
     </g>
    </g>
    <g id="text_29">
     <!-- x₂ (20 Hz) -->
     <g transform="translate(27.722656 301.166406) rotate(-90) scale(0.1 -0.1)">
      <defs>
       <path id="DejaVuSans-b5d" d="M 838 356 
L 2163 356 
L 2163 0 
L 294 0 
L 294 343 
Q 400 440 597 615 
Q 1672 1568 1672 1862 
Q 1672 2068 1509 2194 
Q 1347 2321 1081 2321 
Q 919 2321 728 2266 
Q 538 2212 313 2103 
L 313 2487 
Q 553 2575 761 2618 
Q 969 2662 1147 2662 
Q 1600 2662 1872 2456 
Q 2144 2250 2144 1912 
Q 2144 1478 1109 590 
Q 934 440 838 356 
z
" transform="scale(0.015625)"/>
      </defs>
      <use xlink:href="#DejaVuSans-5b"/>
      <use xlink:href="#DejaVuSans-b5d" transform="translate(59.1875 0)"/>
      <use xlink:href="#DejaVuSans-3" transform="translate(99.28125 0)"/>
      <use xlink:href="#DejaVuSans-b" transform="translate(131.0625 0)"/>
      <use xlink:href="#DejaVuSans-15" transform="translate(170.078125 0)"/>
      <use xlink:href="#DejaVuSans-13" transform="translate(233.703125 0)"/>
      <use xlink:href="#DejaVuSans-3" transform="translate(297.328125 0)"/>
      <use xlink:href="#DejaVuSans-2b" transform="translate(329.109375 0)"/>
      <use xlink:href="#DejaVuSans-5d" transform="translate(404.3125 0)"/>
      <use xlink:href="#DejaVuSans-c" transform="translate(456.796875 0)"/>
     </g>
    </g>
   </g>
   <g id="line2d_50">
    <path d="M 91.923551 261.219226 
L 93.365806 272.235838 
L 94.80806 265.997979 
L 96.250315 258.773769 
L 97.692569 307.405482 
L 99.134824 248.597978 
L 100.577078 289.023089 
L 102.019333 290.966836 
L 103.461588 296.474989 
L 104.903842 256.593549 
L 106.346097 256.749406 
L 107.788351 242.644079 
L 109.230606 246.834336 
L 110.67286 258.236828 
L 112.115115 259.219384 
L 113.557369 252.039468 
L 114.999624 289.338037 
L 116.441878 278.358773 
L 117.884133 273.262859 
L 119.326387 288.927106 
L 120.768642 266.021 
L 122.210897 281.98619 
L 123.653151 259.016878 
L 125.095406 264.367306 
L 126.53766 255.460459 
L 127.979915 290.176811 
L 129.422169 279.399994 
L 130.864424 242.579714 
L 132.306678 267.969572 
L 133.748933 277.084753 
L 135.191188 261.640919 
L 136.633442 267.148881 
L 138.075697 281.019707 
L 139.517951 289.165922 
L 140.960206 237.969331 
L 142.40246 256.464562 
L 143.844715 293.613722 
L 145.286969 247.804723 
L 148.171478 250.435186 
L 149.613733 276.273625 
L 151.055988 246.829602 
L 152.498242 291.064614 
L 153.940497 258.255814 
L 155.382751 275.442701 
L 156.825006 248.364397 
L 158.26726 282.645791 
L 159.709515 258.589306 
L 161.151769 251.623372 
L 162.594024 269.690379 
L 164.036278 262.508481 
L 165.478533 271.334334 
L 166.920787 258.257456 
L 168.363042 258.731894 
L 169.805297 280.891198 
L 171.247551 272.820507 
L 172.689806 291.267864 
L 174.13206 289.603761 
L 175.574315 312.320919 
L 177.016569 294.702465 
L 178.458824 281.160471 
L 179.901078 263.20675 
L 181.343333 235.483236 
L 182.785587 258.127585 
L 184.227842 263.511171 
L 185.670097 262.668505 
L 187.112351 298.818519 
L 188.554606 276.652674 
L 189.99686 295.883633 
L 191.439115 291.120109 
L 192.881369 242.230257 
L 194.323624 242.181567 
L 195.765878 253.509014 
L 197.208133 257.08543 
L 198.650387 254.717802 
L 200.092642 280.177699 
L 201.534897 286.551015 
L 202.977151 260.854773 
L 204.419406 279.285147 
L 205.86166 289.669312 
L 207.303915 280.534424 
L 208.746169 282.04912 
L 210.188424 276.749183 
L 211.630678 290.912606 
L 213.072933 273.142809 
L 214.515187 291.391943 
L 215.957442 242.962744 
L 217.399697 235.503619 
L 218.841951 282.982499 
L 220.284206 257.431608 
L 221.72646 272.963346 
L 223.168715 271.398139 
L 224.610969 276.390769 
L 226.053224 258.582416 
L 227.495478 270.725126 
L 228.937733 294.798251 
L 230.379987 274.16212 
L 231.822242 271.510196 
L 233.264497 281.357555 
L 234.706751 260.133467 
L 236.149006 263.124525 
L 237.59126 239.232794 
L 239.033515 270.312036 
L 240.475769 263.211797 
L 241.918024 316.292469 
L 243.360278 309.440272 
L 244.802533 274.815755 
L 246.244787 277.838147 
L 247.687042 261.081456 
L 249.129297 294.307961 
L 250.571551 274.118735 
L 252.013806 310.268637 
L 253.45606 278.136135 
L 254.898315 270.838401 
L 256.340569 266.918119 
L 257.782824 279.004201 
L 259.225078 256.189772 
L 260.667333 303.729074 
L 262.109587 303.393508 
L 263.551842 272.406587 
L 264.994097 285.94155 
L 266.436351 251.425815 
L 267.878606 258.721446 
L 269.32086 260.891965 
L 270.763115 294.850854 
L 272.205369 273.888888 
L 273.647624 258.981647 
L 275.089878 278.563695 
L 276.532133 266.086447 
L 277.974387 270.196924 
L 279.416642 294.12388 
L 280.858897 300.892347 
L 282.301151 262.664925 
L 283.743406 276.653639 
L 285.18566 272.461029 
L 286.627915 251.565444 
L 288.070169 233.798979 
L 289.512424 313.836726 
L 290.954678 236.67278 
L 292.396933 247.101104 
L 293.839187 274.316887 
L 295.281442 252.10811 
L 296.723697 279.039249 
L 298.165951 251.270782 
L 299.608206 260.119787 
L 301.05046 271.616582 
L 302.492715 286.878879 
L 303.934969 269.611171 
L 305.377224 282.75614 
L 306.819478 276.53514 
L 308.261733 259.458495 
L 309.703987 266.149535 
L 311.146242 278.987084 
L 312.588497 241.349164 
L 314.030751 285.625602 
L 315.473006 279.606438 
L 316.91526 280.783209 
L 318.357515 319.817154 
L 319.799769 230.18026 
L 321.242024 283.88047 
L 322.684278 255.602443 
L 324.126533 304.081133 
L 325.568787 266.032797 
L 327.011042 292.653992 
L 328.453297 274.351739 
L 329.895551 246.062858 
L 331.337806 259.319431 
L 332.78006 266.308915 
L 334.222315 271.111867 
L 335.664569 312.499773 
L 337.106824 299.702404 
L 338.549078 265.732235 
L 339.991333 246.589128 
L 341.433587 258.684873 
L 342.875842 253.532525 
L 344.318097 252.847166 
L 345.760351 251.190213 
L 347.202606 258.209331 
L 348.64486 291.195175 
L 350.087115 258.008471 
L 351.529369 295.400583 
L 352.971624 307.323434 
L 354.413878 277.842804 
L 355.856133 301.669261 
L 357.298387 293.030156 
L 358.740642 267.122745 
L 360.182897 280.047977 
L 361.625151 279.095815 
L 363.067406 254.745911 
L 364.50966 245.069966 
L 365.951915 255.734014 
L 367.394169 257.199517 
L 368.836424 304.368987 
L 370.278678 268.337051 
L 371.720933 280.973409 
L 373.163187 292.053447 
L 374.605442 281.073525 
L 376.047697 278.115519 
L 377.489951 285.895544 
L 378.932206 299.11697 
L 380.37446 256.008636 
L 381.816715 259.199919 
L 383.258969 242.849786 
L 384.701224 250.571142 
L 386.143478 272.266363 
L 387.585733 263.681284 
L 389.027987 252.890656 
L 390.470242 292.747017 
L 391.912497 282.277597 
L 393.354751 268.572951 
L 394.797006 293.544407 
L 396.23926 284.783258 
L 397.681515 251.029834 
L 399.123769 270.793907 
L 400.566024 256.96312 
L 402.008278 271.038492 
L 403.450533 251.122555 
L 404.892787 272.560418 
L 406.335042 277.763089 
L 407.777297 285.749725 
L 409.219551 297.618514 
L 410.661806 303.622808 
L 412.10406 222.921957 
L 413.546315 261.20898 
L 414.988569 245.19388 
L 416.430824 278.713139 
L 417.873078 255.323605 
L 419.315333 260.001895 
L 420.757587 286.830229 
L 422.199842 239.092775 
L 423.642097 252.073573 
L 425.084351 283.642691 
L 426.526606 259.950121 
L 427.96886 256.059979 
L 429.411115 262.759732 
L 430.853369 259.170606 
L 432.295624 262.524671 
L 433.737878 262.799135 
L 435.180133 288.953936 
L 436.622387 272.855817 
L 438.064642 260.53262 
L 439.506897 277.930811 
L 440.949151 257.517042 
L 442.391406 278.35087 
L 443.83366 295.847084 
L 445.275915 301.679189 
L 446.718169 292.352723 
L 448.160424 271.822171 
L 449.602678 270.772403 
L 451.044933 313.046233 
L 452.487187 252.893621 
L 453.929442 235.006244 
L 455.371697 279.469893 
L 456.813951 262.77595 
L 458.256206 289.580475 
L 459.69846 255.51618 
L 461.140715 295.173851 
L 462.582969 283.412123 
L 464.025224 251.479414 
L 465.467478 256.51263 
L 466.909733 274.671243 
L 468.351987 242.79136 
L 469.794242 251.40944 
L 471.236497 243.731168 
L 472.678751 237.359598 
L 474.121006 239.401328 
L 475.56326 289.527738 
L 477.005515 292.598318 
L 478.447769 270.593452 
L 479.890024 286.151413 
L 481.332278 336.06456 
L 482.774533 257.950211 
L 484.216787 294.081437 
L 485.659042 272.259687 
L 487.101297 276.194158 
L 488.543551 269.04007 
L 489.985806 252.522907 
L 491.42806 299.656584 
L 492.870315 276.88461 
L 494.312569 303.415956 
L 495.754824 285.139625 
L 497.197078 275.959159 
L 498.639333 262.624721 
L 500.081587 281.911769 
L 501.523842 228.547667 
L 502.966097 252.113069 
L 504.408351 242.796944 
L 505.850606 249.620637 
L 507.29286 267.661188 
L 508.735115 273.794425 
L 510.177369 285.500863 
L 511.619624 272.879401 
L 513.061878 332.603079 
L 514.504133 288.979988 
L 515.946387 281.317628 
L 517.388642 304.353078 
L 518.830897 295.027074 
L 520.273151 263.87775 
L 521.715406 255.94863 
L 523.15766 258.201935 
L 524.599915 303.870281 
L 526.042169 230.216655 
L 527.484424 271.13753 
L 528.926678 216.687003 
L 530.368933 276.409512 
L 531.811187 269.34025 
L 533.253442 288.860337 
L 534.695697 268.681726 
L 536.137951 246.44762 
L 537.580206 264.632079 
L 539.02246 250.636228 
L 540.464715 253.062472 
L 541.906969 293.013372 
L 543.349224 251.500457 
L 544.791478 277.590508 
L 546.233733 259.975358 
L 547.675988 291.281023 
L 549.118242 253.208605 
L 550.560497 290.120785 
L 552.002751 242.728228 
L 553.445006 285.426312 
L 554.88726 259.825494 
L 556.329515 294.858116 
L 557.771769 263.509 
L 559.214024 277.211027 
L 560.656278 251.941355 
L 562.098533 237.248996 
L 563.540787 246.490094 
L 564.983042 282.215398 
L 566.425297 297.079571 
L 567.867551 285.600513 
L 569.309806 299.840692 
L 570.75206 261.369955 
L 572.194315 271.284842 
L 573.636569 262.806678 
L 575.078824 295.159674 
L 576.521078 282.830693 
L 577.963333 280.515906 
L 579.405587 257.164181 
L 580.847842 258.707723 
L 582.290097 309.026151 
L 583.732351 250.555911 
L 585.174606 242.3482 
L 586.61686 312.879633 
L 588.059115 296.834383 
L 589.501369 265.487534 
L 590.943624 289.591191 
L 592.385878 277.917579 
L 593.828133 270.716301 
L 595.270387 296.887295 
L 596.712642 273.087933 
L 598.154897 286.308309 
L 599.597151 273.844368 
L 601.039406 271.18384 
L 602.48166 270.882829 
L 603.923915 277.692264 
L 605.366169 294.277017 
L 606.808424 276.53775 
L 608.250678 240.917786 
L 609.692933 289.257819 
L 611.135187 326.146672 
L 612.577442 285.074315 
L 614.019697 285.427446 
L 615.461951 295.392435 
L 616.904206 275.863943 
L 618.34646 284.969374 
L 619.788715 275.066697 
L 621.230969 269.007026 
L 622.673224 236.373309 
L 624.115478 269.275299 
L 625.557733 280.667109 
L 626.999987 312.322609 
L 628.442242 299.222193 
L 629.884497 289.056316 
L 631.326751 270.318153 
L 632.769006 299.142137 
L 634.21126 260.853084 
L 635.653515 242.784639 
L 637.095769 262.233099 
L 638.538024 251.565441 
L 639.980278 284.168538 
L 641.422533 271.583768 
L 642.864787 278.81036 
L 644.307042 265.271918 
L 645.749297 256.730578 
L 647.191551 290.801544 
L 648.633806 291.90704 
L 650.07606 282.339609 
L 651.518315 244.394832 
L 652.960569 255.824795 
L 654.402824 250.58123 
L 655.845078 289.548741 
L 657.287333 275.909794 
L 658.729587 271.1991 
L 660.171842 315.3353 
L 661.614097 286.53095 
L 663.056351 269.692437 
L 664.498606 266.918089 
L 665.94086 280.753127 
L 667.383115 267.510542 
L 668.825369 249.913166 
L 670.267624 254.288712 
L 671.709878 253.442991 
L 673.152133 263.747821 
L 674.594388 277.236603 
L 676.036642 269.527018 
L 677.478897 284.108549 
L 678.921151 312.098618 
L 680.363406 272.600953 
L 681.80566 299.115832 
L 683.247915 290.146886 
L 684.690169 274.360066 
L 686.132424 248.73096 
L 687.574678 266.156871 
L 689.016933 225.120118 
L 690.459187 254.908252 
L 691.901442 271.397161 
L 693.343697 313.391227 
L 694.785951 265.546074 
L 696.228206 270.774142 
L 697.67046 270.0728 
L 699.112715 272.715953 
L 700.554969 276.598655 
L 701.997224 257.941863 
L 703.439478 279.965229 
L 704.881733 284.089466 
L 706.323987 244.074286 
L 707.766242 277.386069 
L 709.208497 280.41933 
L 710.650751 268.718643 
L 712.093006 246.972311 
L 713.53526 246.184159 
L 714.977515 264.373046 
L 716.419769 310.279118 
L 717.862024 249.337201 
L 719.304278 238.00315 
L 720.746533 262.877001 
L 722.188787 249.293977 
L 723.631042 281.473475 
L 725.073297 277.339623 
L 726.515551 270.671077 
L 727.957806 273.822768 
L 729.40006 278.657749 
L 730.842315 273.205892 
L 732.284569 283.482369 
L 733.726824 253.967421 
L 735.169078 305.120935 
L 736.611333 246.646261 
L 738.053587 247.228157 
L 739.495842 263.445138 
L 740.938097 267.332702 
L 742.380351 250.995217 
L 743.822606 275.492247 
L 745.26486 259.852858 
L 746.707115 271.455138 
L 748.149369 294.403936 
L 749.591624 253.288524 
L 751.033878 265.145994 
L 752.476133 271.956721 
L 753.918387 240.889668 
L 755.360642 242.576516 
L 756.802897 268.256396 
L 758.245151 259.914852 
L 759.687406 258.834786 
L 761.12966 254.482644 
L 762.571915 252.522141 
L 764.014169 266.042652 
L 765.456424 274.322699 
L 766.898678 304.232821 
L 768.340933 285.859276 
L 769.783187 286.09101 
L 771.225442 278.117099 
L 772.667697 283.835617 
L 774.109951 273.606121 
L 775.552206 283.529998 
L 776.99446 261.997266 
L 778.436715 285.283081 
L 779.878969 237.454603 
L 781.321224 277.810393 
L 782.763478 249.809154 
L 784.205733 280.845747 
L 785.647987 278.715969 
L 787.090242 253.118419 
L 788.532497 280.407486 
L 789.974751 240.00865 
L 791.417006 281.889242 
L 792.85926 256.027384 
L 794.301515 251.193098 
L 795.743769 260.533226 
L 797.186024 274.988744 
L 798.628278 242.499835 
L 800.070533 279.722582 
L 801.512787 275.776959 
L 802.955042 305.70809 
L 804.397297 281.303053 
L 805.839551 309.36751 
L 807.281806 253.688489 
L 808.72406 260.434685 
L 810.166315 240.737015 
L 811.608569 264.571379 
L 813.050824 242.760169 
L 813.050824 242.760169 
" clip-path="url(#p162a4d18a8)" style="fill: none; stroke: #dc2626; stroke-width: 0.5; stroke-linecap: square"/>
   </g>
   <g id="patch_8">
    <path d="M 55.867188 342.033437 
L 55.867188 210.718125 
" style="fill: none; stroke: #000000; stroke-width: 0.8; stroke-linejoin: miter; stroke-linecap: square"/>
   </g>
   <g id="patch_9">
    <path d="M 849.107187 342.033437 
L 849.107187 210.718125 
" style="fill: none; stroke: #000000; stroke-width: 0.8; stroke-linejoin: miter; stroke-linecap: square"/>
   </g>
   <g id="patch_10">
    <path d="M 55.867188 342.033437 
L 849.107188 342.033437 
" style="fill: none; stroke: #000000; stroke-width: 0.8; stroke-linejoin: miter; stroke-linecap: square"/>
   </g>
   <g id="patch_11">
    <path d="M 55.867188 210.718125 
L 849.107188 210.718125 
" style="fill: none; stroke: #000000; stroke-width: 0.8; stroke-linejoin: miter; stroke-linecap: square"/>
   </g>
  </g>
  <g id="axes_3">
   <g id="patch_12">
    <path d="M 55.867188 530.433437 
L 849.107187 530.433437 
L 849.107187 399.118125 
L 55.867188 399.118125 
z
" style="fill: #ffffff"/>
   </g>
   <g id="matplotlib.axis_5">
    <g id="xtick_19">
     <g id="line2d_51">
      <path d="M 91.923551 530.433437 
L 91.923551 399.118125 
" clip-path="url(#p04957ff7b5)" style="fill: none; stroke: #b0b0b0; stroke-opacity: 0.3; stroke-width: 0.8; stroke-linecap: square"/>
     </g>
     <g id="line2d_52">
      <g>
       <use xlink:href="#mdabdbeac49" x="91.923551" y="530.433437" style="stroke: #000000; stroke-width: 0.8"/>
      </g>
     </g>
     <g id="text_30">
      <!-- 0.0 -->
      <g transform="translate(83.971989 545.031094) scale(0.1 -0.1)">
       <use xlink:href="#DejaVuSans-13"/>
       <use xlink:href="#DejaVuSans-11" transform="translate(63.625 0)"/>
       <use xlink:href="#DejaVuSans-13" transform="translate(95.40625 0)"/>
      </g>
     </g>
    </g>
    <g id="xtick_20">
     <g id="line2d_53">
      <path d="M 236.728224 530.433437 
L 236.728224 399.118125 
" clip-path="url(#p04957ff7b5)" style="fill: none; stroke: #b0b0b0; stroke-opacity: 0.3; stroke-width: 0.8; stroke-linecap: square"/>
     </g>
     <g id="line2d_54">
      <g>
       <use xlink:href="#mdabdbeac49" x="236.728224" y="530.433437" style="stroke: #000000; stroke-width: 0.8"/>
      </g>
     </g>
     <g id="text_31">
      <!-- 0.2 -->
      <g transform="translate(228.776662 545.031094) scale(0.1 -0.1)">
       <use xlink:href="#DejaVuSans-13"/>
       <use xlink:href="#DejaVuSans-11" transform="translate(63.625 0)"/>
       <use xlink:href="#DejaVuSans-15" transform="translate(95.40625 0)"/>
      </g>
     </g>
    </g>
    <g id="xtick_21">
     <g id="line2d_55">
      <path d="M 381.532898 530.433437 
L 381.532898 399.118125 
" clip-path="url(#p04957ff7b5)" style="fill: none; stroke: #b0b0b0; stroke-opacity: 0.3; stroke-width: 0.8; stroke-linecap: square"/>
     </g>
     <g id="line2d_56">
      <g>
       <use xlink:href="#mdabdbeac49" x="381.532898" y="530.433437" style="stroke: #000000; stroke-width: 0.8"/>
      </g>
     </g>
     <g id="text_32">
      <!-- 0.4 -->
      <g transform="translate(373.581335 545.031094) scale(0.1 -0.1)">
       <defs>
        <path id="DejaVuSans-17" d="M 2419 4116 
L 825 1625 
L 2419 1625 
L 2419 4116 
z
M 2253 4666 
L 3047 4666 
L 3047 1625 
L 3713 1625 
L 3713 1100 
L 3047 1100 
L 3047 0 
L 2419 0 
L 2419 1100 
L 313 1100 
L 313 1709 
L 2253 4666 
z
" transform="scale(0.015625)"/>
       </defs>
       <use xlink:href="#DejaVuSans-13"/>
       <use xlink:href="#DejaVuSans-11" transform="translate(63.625 0)"/>
       <use xlink:href="#DejaVuSans-17" transform="translate(95.40625 0)"/>
      </g>
     </g>
    </g>
    <g id="xtick_22">
     <g id="line2d_57">
      <path d="M 526.337571 530.433437 
L 526.337571 399.118125 
" clip-path="url(#p04957ff7b5)" style="fill: none; stroke: #b0b0b0; stroke-opacity: 0.3; stroke-width: 0.8; stroke-linecap: square"/>
     </g>
     <g id="line2d_58">
      <g>
       <use xlink:href="#mdabdbeac49" x="526.337571" y="530.433437" style="stroke: #000000; stroke-width: 0.8"/>
      </g>
     </g>
     <g id="text_33">
      <!-- 0.6 -->
      <g transform="translate(518.386008 545.031094) scale(0.1 -0.1)">
       <defs>
        <path id="DejaVuSans-19" d="M 2113 2584 
Q 1688 2584 1439 2293 
Q 1191 2003 1191 1497 
Q 1191 994 1439 701 
Q 1688 409 2113 409 
Q 2538 409 2786 701 
Q 3034 994 3034 1497 
Q 3034 2003 2786 2293 
Q 2538 2584 2113 2584 
z
M 3366 4563 
L 3366 3988 
Q 3128 4100 2886 4159 
Q 2644 4219 2406 4219 
Q 1781 4219 1451 3797 
Q 1122 3375 1075 2522 
Q 1259 2794 1537 2939 
Q 1816 3084 2150 3084 
Q 2853 3084 3261 2657 
Q 3669 2231 3669 1497 
Q 3669 778 3244 343 
Q 2819 -91 2113 -91 
Q 1303 -91 875 529 
Q 447 1150 447 2328 
Q 447 3434 972 4092 
Q 1497 4750 2381 4750 
Q 2619 4750 2861 4703 
Q 3103 4656 3366 4563 
z
" transform="scale(0.015625)"/>
       </defs>
       <use xlink:href="#DejaVuSans-13"/>
       <use xlink:href="#DejaVuSans-11" transform="translate(63.625 0)"/>
       <use xlink:href="#DejaVuSans-19" transform="translate(95.40625 0)"/>
      </g>
     </g>
    </g>
    <g id="xtick_23">
     <g id="line2d_59">
      <path d="M 671.142244 530.433437 
L 671.142244 399.118125 
" clip-path="url(#p04957ff7b5)" style="fill: none; stroke: #b0b0b0; stroke-opacity: 0.3; stroke-width: 0.8; stroke-linecap: square"/>
     </g>
     <g id="line2d_60">
      <g>
       <use xlink:href="#mdabdbeac49" x="671.142244" y="530.433437" style="stroke: #000000; stroke-width: 0.8"/>
      </g>
     </g>
     <g id="text_34">
      <!-- 0.8 -->
      <g transform="translate(663.190682 545.031094) scale(0.1 -0.1)">
       <defs>
        <path id="DejaVuSans-1b" d="M 2034 2216 
Q 1584 2216 1326 1975 
Q 1069 1734 1069 1313 
Q 1069 891 1326 650 
Q 1584 409 2034 409 
Q 2484 409 2743 651 
Q 3003 894 3003 1313 
Q 3003 1734 2745 1975 
Q 2488 2216 2034 2216 
z
M 1403 2484 
Q 997 2584 770 2862 
Q 544 3141 544 3541 
Q 544 4100 942 4425 
Q 1341 4750 2034 4750 
Q 2731 4750 3128 4425 
Q 3525 4100 3525 3541 
Q 3525 3141 3298 2862 
Q 3072 2584 2669 2484 
Q 3125 2378 3379 2068 
Q 3634 1759 3634 1313 
Q 3634 634 3220 271 
Q 2806 -91 2034 -91 
Q 1263 -91 848 271 
Q 434 634 434 1313 
Q 434 1759 690 2068 
Q 947 2378 1403 2484 
z
M 1172 3481 
Q 1172 3119 1398 2916 
Q 1625 2713 2034 2713 
Q 2441 2713 2670 2916 
Q 2900 3119 2900 3481 
Q 2900 3844 2670 4047 
Q 2441 4250 2034 4250 
Q 1625 4250 1398 4047 
Q 1172 3844 1172 3481 
z
" transform="scale(0.015625)"/>
       </defs>
       <use xlink:href="#DejaVuSans-13"/>
       <use xlink:href="#DejaVuSans-11" transform="translate(63.625 0)"/>
       <use xlink:href="#DejaVuSans-1b" transform="translate(95.40625 0)"/>
      </g>
     </g>
    </g>
    <g id="xtick_24">
     <g id="line2d_61">
      <path d="M 815.946917 530.433437 
L 815.946917 399.118125 
" clip-path="url(#p04957ff7b5)" style="fill: none; stroke: #b0b0b0; stroke-opacity: 0.3; stroke-width: 0.8; stroke-linecap: square"/>
     </g>
     <g id="line2d_62">
      <g>
       <use xlink:href="#mdabdbeac49" x="815.946917" y="530.433437" style="stroke: #000000; stroke-width: 0.8"/>
      </g>
     </g>
     <g id="text_35">
      <!-- 1.0 -->
      <g transform="translate(807.995355 545.031094) scale(0.1 -0.1)">
       <use xlink:href="#DejaVuSans-14"/>
       <use xlink:href="#DejaVuSans-11" transform="translate(63.625 0)"/>
       <use xlink:href="#DejaVuSans-13" transform="translate(95.40625 0)"/>
      </g>
     </g>
    </g>
    <g id="text_36">
     <!-- Lag (s) -->
     <g transform="translate(435.367656 559.031094) scale(0.1 -0.1)">
      <defs>
       <path id="DejaVuSans-2f" d="M 628 4666 
L 1259 4666 
L 1259 531 
L 3531 531 
L 3531 0 
L 628 0 
L 628 4666 
z
" transform="scale(0.015625)"/>
      </defs>
      <use xlink:href="#DejaVuSans-2f"/>
      <use xlink:href="#DejaVuSans-44" transform="translate(55.71875 0)"/>
      <use xlink:href="#DejaVuSans-4a" transform="translate(117 0)"/>
      <use xlink:href="#DejaVuSans-3" transform="translate(180.484375 0)"/>
      <use xlink:href="#DejaVuSans-b" transform="translate(212.265625 0)"/>
      <use xlink:href="#DejaVuSans-56" transform="translate(251.28125 0)"/>
      <use xlink:href="#DejaVuSans-c" transform="translate(303.375 0)"/>
     </g>
    </g>
   </g>
   <g id="matplotlib.axis_6">
    <g id="ytick_7">
     <g id="line2d_63">
      <path d="M 55.867188 530.134498 
L 849.107187 530.134498 
" clip-path="url(#p04957ff7b5)" style="fill: none; stroke: #b0b0b0; stroke-opacity: 0.3; stroke-width: 0.8; stroke-linecap: square"/>
     </g>
     <g id="line2d_64">
      <g>
       <use xlink:href="#m07bc8c4d41" x="55.867188" y="530.134498" style="stroke: #000000; stroke-width: 0.8"/>
      </g>
     </g>
     <g id="text_37">
      <!-- −400 -->
      <g transform="translate(21.4 533.933326) scale(0.1 -0.1)">
       <use xlink:href="#DejaVuSans-c9c"/>
       <use xlink:href="#DejaVuSans-17" transform="translate(83.796875 0)"/>
       <use xlink:href="#DejaVuSans-13" transform="translate(147.421875 0)"/>
       <use xlink:href="#DejaVuSans-13" transform="translate(211.046875 0)"/>
      </g>
     </g>
    </g>
    <g id="ytick_8">
     <g id="line2d_65">
      <path d="M 55.867188 498.149207 
L 849.107187 498.149207 
" clip-path="url(#p04957ff7b5)" style="fill: none; stroke: #b0b0b0; stroke-opacity: 0.3; stroke-width: 0.8; stroke-linecap: square"/>
     </g>
     <g id="line2d_66">
      <g>
       <use xlink:href="#m07bc8c4d41" x="55.867188" y="498.149207" style="stroke: #000000; stroke-width: 0.8"/>
      </g>
     </g>
     <g id="text_38">
      <!-- −200 -->
      <g transform="translate(21.4 501.948035) scale(0.1 -0.1)">
       <use xlink:href="#DejaVuSans-c9c"/>
       <use xlink:href="#DejaVuSans-15" transform="translate(83.796875 0)"/>
       <use xlink:href="#DejaVuSans-13" transform="translate(147.421875 0)"/>
       <use xlink:href="#DejaVuSans-13" transform="translate(211.046875 0)"/>
      </g>
     </g>
    </g>
    <g id="ytick_9">
     <g id="line2d_67">
      <path d="M 55.867188 466.163915 
L 849.107187 466.163915 
" clip-path="url(#p04957ff7b5)" style="fill: none; stroke: #b0b0b0; stroke-opacity: 0.3; stroke-width: 0.8; stroke-linecap: square"/>
     </g>
     <g id="line2d_68">
      <g>
       <use xlink:href="#m07bc8c4d41" x="55.867188" y="466.163915" style="stroke: #000000; stroke-width: 0.8"/>
      </g>
     </g>
     <g id="text_39">
      <!-- 0 -->
      <g transform="translate(42.504688 469.962743) scale(0.1 -0.1)">
       <use xlink:href="#DejaVuSans-13"/>
      </g>
     </g>
    </g>
    <g id="ytick_10">
     <g id="line2d_69">
      <path d="M 55.867188 434.178623 
L 849.107187 434.178623 
" clip-path="url(#p04957ff7b5)" style="fill: none; stroke: #b0b0b0; stroke-opacity: 0.3; stroke-width: 0.8; stroke-linecap: square"/>
     </g>
     <g id="line2d_70">
      <g>
       <use xlink:href="#m07bc8c4d41" x="55.867188" y="434.178623" style="stroke: #000000; stroke-width: 0.8"/>
      </g>
     </g>
     <g id="text_40">
      <!-- 200 -->
      <g transform="translate(29.779688 437.977451) scale(0.1 -0.1)">
       <use xlink:href="#DejaVuSans-15"/>
       <use xlink:href="#DejaVuSans-13" transform="translate(63.625 0)"/>
       <use xlink:href="#DejaVuSans-13" transform="translate(127.25 0)"/>
      </g>
     </g>
    </g>
    <g id="ytick_11">
     <g id="line2d_71">
      <path d="M 55.867188 402.193332 
L 849.107187 402.193332 
" clip-path="url(#p04957ff7b5)" style="fill: none; stroke: #b0b0b0; stroke-opacity: 0.3; stroke-width: 0.8; stroke-linecap: square"/>
     </g>
     <g id="line2d_72">
      <g>
       <use xlink:href="#m07bc8c4d41" x="55.867188" y="402.193332" style="stroke: #000000; stroke-width: 0.8"/>
      </g>
     </g>
     <g id="text_41">
      <!-- 400 -->
      <g transform="translate(29.779688 405.99216) scale(0.1 -0.1)">
       <use xlink:href="#DejaVuSans-17"/>
       <use xlink:href="#DejaVuSans-13" transform="translate(63.625 0)"/>
       <use xlink:href="#DejaVuSans-13" transform="translate(127.25 0)"/>
      </g>
     </g>
    </g>
    <g id="text_42">
     <!-- $r_{x_1 x_2}[l]$ -->
     <g transform="translate(14.8 479.725781) rotate(-90) scale(0.1 -0.1)">
      <defs>
       <path id="DejaVuSans-Oblique-5b" d="M 3841 3500 
L 2234 1784 
L 3219 0 
L 2559 0 
L 1819 1388 
L 531 0 
L -166 0 
L 1556 1844 
L 641 3500 
L 1300 3500 
L 1972 2234 
L 3144 3500 
L 3841 3500 
z
" transform="scale(0.015625)"/>
       <path id="DejaVuSans-3e" d="M 550 4863 
L 1875 4863 
L 1875 4416 
L 1125 4416 
L 1125 -397 
L 1875 -397 
L 1875 -844 
L 550 -844 
L 550 4863 
z
" transform="scale(0.015625)"/>
       <path id="DejaVuSans-Oblique-4f" d="M 1172 4863 
L 1747 4863 
L 800 0 
L 225 0 
L 1172 4863 
z
" transform="scale(0.015625)"/>
       <path id="DejaVuSans-40" d="M 1947 4863 
L 1947 -844 
L 622 -844 
L 622 -397 
L 1369 -397 
L 1369 4416 
L 622 4416 
L 622 4863 
L 1947 4863 
z
" transform="scale(0.015625)"/>
      </defs>
      <use xlink:href="#DejaVuSans-Oblique-55" transform="translate(0 0.015625)"/>
      <use xlink:href="#DejaVuSans-Oblique-5b" transform="translate(41.113281 -14.984326) scale(0.7)"/>
      <use xlink:href="#DejaVuSans-14" transform="translate(82.539062 -25.484292) scale(0.49)"/>
      <use xlink:href="#DejaVuSans-Oblique-5b" transform="translate(115.628418 -14.984326) scale(0.7)"/>
      <use xlink:href="#DejaVuSans-15" transform="translate(157.054199 -25.484292) scale(0.49)"/>
      <use xlink:href="#DejaVuSans-3e" transform="translate(192.87793 0.015625)"/>
      <use xlink:href="#DejaVuSans-Oblique-4f" transform="translate(231.891602 0.015625)"/>
      <use xlink:href="#DejaVuSans-40" transform="translate(259.674805 0.015625)"/>
     </g>
    </g>
   </g>
   <g id="line2d_73">
    <path d="M 91.923551 482.918579 
L 94.819645 479.56635 
L 97.715738 496.021243 
L 100.611832 447.867128 
L 103.507925 480.764422 
L 106.404018 458.511269 
L 109.300112 485.078362 
L 112.196205 474.210375 
L 115.092299 464.44601 
L 120.884486 432.107843 
L 123.780579 447.598316 
L 126.676673 472.965976 
L 129.572766 463.0543 
L 132.46886 434.095202 
L 135.364953 445.758735 
L 138.261047 461.35378 
L 141.15714 446.807589 
L 144.053234 417.089267 
L 146.949327 485.10505 
L 149.84542 451.179494 
L 152.741514 444.178111 
L 155.637607 478.300174 
L 158.533701 459.437919 
L 161.429794 458.758462 
L 164.325888 502.679417 
L 167.221981 482.012551 
L 173.014168 444.272035 
L 175.910262 469.090503 
L 178.806355 448.31729 
L 181.702449 469.283417 
L 184.598542 481.372837 
L 187.494635 478.506167 
L 190.390729 426.331656 
L 193.286822 474.973689 
L 196.182916 475.984952 
L 199.079009 464.004521 
L 201.975103 451.206781 
L 204.871196 431.991715 
L 207.76729 455.332232 
L 210.663383 451.855141 
L 213.559477 486.395611 
L 216.45557 483.520214 
L 219.351664 477.407557 
L 222.247757 466.435762 
L 225.143851 470.886251 
L 228.039944 448.052595 
L 230.936037 478.718394 
L 233.832131 462.395197 
L 236.728224 501.711275 
L 239.624318 484.88751 
L 242.520411 475.64227 
L 245.416505 496.226405 
L 248.312598 464.253014 
L 251.208692 466.619829 
L 254.104785 487.827445 
L 257.000879 499.084002 
L 259.896972 478.711591 
L 262.793066 463.945208 
L 265.689159 472.699635 
L 268.585252 457.447447 
L 271.481346 424.584105 
L 274.377439 454.319057 
L 277.273533 461.830425 
L 280.169626 452.142461 
L 283.06572 479.607903 
L 285.961813 438.572463 
L 291.754 474.673824 
L 294.650094 438.636432 
L 297.546187 493.460853 
L 300.442281 460.207291 
L 303.338374 476.632071 
L 306.234468 466.369738 
L 309.130561 465.884972 
L 312.026654 467.962137 
L 314.922748 407.76839 
L 317.818841 501.414057 
L 320.714935 456.275816 
L 323.611028 447.035916 
L 326.507122 467.266465 
L 329.403215 488.531681 
L 332.299309 472.646352 
L 335.195402 477.551031 
L 338.091496 475.562 
L 340.987589 487.761257 
L 346.779776 437.484752 
L 349.67587 435.896827 
L 352.571963 451.455462 
L 355.468056 470.504315 
L 358.36415 427.38767 
L 361.260243 462.067742 
L 364.156337 416.97641 
L 367.05243 436.932652 
L 369.948524 492.707778 
L 372.844617 483.047028 
L 375.740711 477.051275 
L 378.636804 469.700653 
L 381.532898 426.377918 
L 384.428991 486.432781 
L 387.325085 503.065423 
L 390.221178 499.046348 
L 393.117271 518.704857 
L 396.013365 487.551983 
L 398.909458 477.14599 
L 401.805552 439.537697 
L 404.701645 494.281028 
L 407.597739 450.45515 
L 410.493832 465.374306 
L 413.389926 486.089621 
L 416.286019 445.326885 
L 419.182113 449.5466 
L 422.078206 488.27417 
L 424.9743 477.187431 
L 427.870393 443.975447 
L 430.766487 454.6128 
L 433.66258 451.82853 
L 436.558673 436.453189 
L 439.454767 449.89572 
L 442.35086 480.826438 
L 445.246954 446.421235 
L 448.143047 449.198828 
L 451.039141 491.741277 
L 453.935234 453.293398 
L 456.831328 524.46456 
L 459.727421 427.513984 
L 462.623515 451.37623 
L 465.519608 511.016002 
L 468.415702 461.018075 
L 471.311795 498.435469 
L 474.207888 469.004946 
L 477.103982 452.262472 
L 480.000075 470.261257 
L 482.896169 491.20157 
L 485.792262 457.027044 
L 488.688356 427.268922 
L 491.584449 460.500975 
L 494.480543 501.613698 
L 497.376636 462.264626 
L 500.27273 486.781808 
L 503.168823 433.670131 
L 506.064917 463.824523 
L 508.96101 465.26397 
L 511.857104 462.862657 
L 514.753197 516.726383 
L 517.64929 470.396432 
L 520.545384 453.171185 
L 523.441477 468.66117 
L 526.337571 486.526247 
L 529.233664 481.642454 
L 532.129758 469.965306 
L 535.025851 460.107958 
L 537.921945 472.782366 
L 540.818038 482.164338 
L 543.714132 498.204301 
L 546.610225 498.740264 
L 549.506319 474.437303 
L 552.402412 487.656334 
L 555.298505 459.773967 
L 558.194599 467.213594 
L 561.090692 480.096454 
L 563.986786 459.828648 
L 566.882879 440.945475 
L 569.778973 457.625806 
L 572.675066 435.095252 
L 575.57116 405.087003 
L 578.467253 471.995174 
L 581.363347 480.408424 
L 584.25944 440.533159 
L 587.155534 462.207477 
L 590.051627 448.848296 
L 592.947721 501.039976 
L 595.843814 447.342256 
L 598.739907 489.715278 
L 601.636001 480.306666 
L 604.532094 457.553779 
L 607.428188 474.708603 
L 610.324281 519.564389 
L 613.220375 451.466449 
L 616.116468 467.533603 
L 619.012562 501.657617 
L 621.908655 483.69514 
L 624.804749 419.916482 
L 627.700842 484.682265 
L 630.596936 479.253282 
L 633.493029 480.063094 
L 636.389123 487.431199 
L 639.285216 467.835456 
L 642.181309 442.222723 
L 645.077403 458.404348 
L 647.973496 451.021559 
L 650.86959 489.394417 
L 653.765683 468.980988 
L 656.661777 443.970438 
L 659.55787 477.847355 
L 662.453964 437.982832 
L 665.350057 469.393373 
L 668.246151 445.097851 
L 671.142244 514.523158 
L 674.038338 479.292498 
L 676.934431 474.253985 
L 679.830524 475.48987 
L 682.726618 482.585037 
L 685.622711 469.922411 
L 688.518805 475.245992 
L 691.414898 438.805492 
L 694.310992 445.858569 
L 697.207085 474.033843 
L 700.103179 455.402803 
L 702.999272 462.055815 
L 705.895366 475.203664 
L 708.791459 446.921956 
L 711.687553 467.278551 
L 714.583646 447.607398 
L 717.47974 452.357864 
L 720.375833 460.416445 
L 723.271926 429.409045 
L 726.16802 478.383349 
L 729.064113 447.165071 
L 731.960207 484.921819 
L 734.8563 459.754915 
L 737.752394 458.87143 
L 740.648487 483.092709 
L 743.544581 469.292229 
L 746.440674 483.831319 
L 749.336768 455.170418 
L 752.232861 477.368122 
L 755.128955 482.081717 
L 758.025048 495.411031 
L 760.921141 476.51395 
L 763.817235 455.712467 
L 766.713328 449.075167 
L 769.609422 463.026298 
L 772.505515 456.256397 
L 775.401609 454.45028 
L 778.297702 520.484598 
L 781.193796 458.189488 
L 784.089889 452.572625 
L 786.985983 434.387967 
L 789.882076 458.430772 
L 792.77817 497.737928 
L 795.674263 456.429441 
L 798.570357 452.153784 
L 801.46645 475.353369 
L 804.362543 514.970157 
L 807.258637 475.687755 
L 810.15473 477.744074 
L 813.050824 452.342357 
L 813.050824 452.342357 
" clip-path="url(#p04957ff7b5)" style="fill: none; stroke: #dc2626; stroke-width: 0.8; stroke-linecap: square"/>
   </g>
   <g id="patch_13">
    <path d="M 55.867188 530.433437 
L 55.867188 399.118125 
" style="fill: none; stroke: #000000; stroke-width: 0.8; stroke-linejoin: miter; stroke-linecap: square"/>
   </g>
   <g id="patch_14">
    <path d="M 849.107187 530.433437 
L 849.107187 399.118125 
" style="fill: none; stroke: #000000; stroke-width: 0.8; stroke-linejoin: miter; stroke-linecap: square"/>
   </g>
   <g id="patch_15">
    <path d="M 55.867188 530.433437 
L 849.107187 530.433437 
" style="fill: none; stroke: #000000; stroke-width: 0.8; stroke-linejoin: miter; stroke-linecap: square"/>
   </g>
   <g id="patch_16">
    <path d="M 55.867188 399.118125 
L 849.107187 399.118125 
" style="fill: none; stroke: #000000; stroke-width: 0.8; stroke-linejoin: miter; stroke-linecap: square"/>
   </g>
   <g id="text_43">
    <!-- Cross-correlation (ρ = -0.0062) — no periodic structure -->
    <g transform="translate(286.874062 393.118125) scale(0.12 -0.12)">
     <defs>
      <path id="DejaVuSans-26" d="M 4122 4306 
L 4122 3641 
Q 3803 3938 3442 4084 
Q 3081 4231 2675 4231 
Q 1875 4231 1450 3742 
Q 1025 3253 1025 2328 
Q 1025 1406 1450 917 
Q 1875 428 2675 428 
Q 3081 428 3442 575 
Q 3803 722 4122 1019 
L 4122 359 
Q 3791 134 3420 21 
Q 3050 -91 2638 -91 
Q 1578 -91 968 557 
Q 359 1206 359 2328 
Q 359 3453 968 4101 
Q 1578 4750 2638 4750 
Q 3056 4750 3426 4639 
Q 3797 4528 4122 4306 
z
" transform="scale(0.015625)"/>
      <path id="DejaVuSans-10" d="M 313 2009 
L 1997 2009 
L 1997 1497 
L 313 1497 
L 313 2009 
z
" transform="scale(0.015625)"/>
      <path id="DejaVuSans-355" d="M 863 2875 
Q 1053 3194 1525 3475 
Q 1709 3584 2278 3584 
Q 2916 3584 3314 3078 
Q 3713 2572 3713 1747 
Q 3713 922 3314 415 
Q 2916 -91 2278 -91 
Q 1894 -91 1617 61 
Q 1341 213 1159 525 
L 1159 -1331 
L 581 -1331 
L 581 1716 
Q 581 2438 863 2875 
z
M 3116 1747 
Q 3116 2381 2855 2742 
Q 2594 3103 2138 3103 
Q 1681 3103 1420 2742 
Q 1159 2381 1159 1747 
Q 1159 1113 1420 752 
Q 1681 391 2138 391 
Q 2594 391 2855 752 
Q 3116 1113 3116 1747 
z
" transform="scale(0.015625)"/>
      <path id="DejaVuSans-20" d="M 678 2906 
L 4684 2906 
L 4684 2381 
L 678 2381 
L 678 2906 
z
M 678 1631 
L 4684 1631 
L 4684 1100 
L 678 1100 
L 678 1631 
z
" transform="scale(0.015625)"/>
      <path id="DejaVuSans-af6" d="M 313 1978 
L 6088 1978 
L 6088 1528 
L 313 1528 
L 313 1978 
z
" transform="scale(0.015625)"/>
      <path id="DejaVuSans-58" d="M 544 1381 
L 544 3500 
L 1119 3500 
L 1119 1403 
Q 1119 906 1312 657 
Q 1506 409 1894 409 
Q 2359 409 2629 706 
Q 2900 1003 2900 1516 
L 2900 3500 
L 3475 3500 
L 3475 0 
L 2900 0 
L 2900 538 
Q 2691 219 2414 64 
Q 2138 -91 1772 -91 
Q 1169 -91 856 284 
Q 544 659 544 1381 
z
M 1991 3584 
L 1991 3584 
z
" transform="scale(0.015625)"/>
     </defs>
     <use xlink:href="#DejaVuSans-26"/>
     <use xlink:href="#DejaVuSans-55" transform="translate(69.828125 0)"/>
     <use xlink:href="#DejaVuSans-52" transform="translate(108.734375 0)"/>
     <use xlink:href="#DejaVuSans-56" transform="translate(169.921875 0)"/>
     <use xlink:href="#DejaVuSans-56" transform="translate(222.015625 0)"/>
     <use xlink:href="#DejaVuSans-10" transform="translate(274.109375 0)"/>
     <use xlink:href="#DejaVuSans-46" transform="translate(310.1875 0)"/>
     <use xlink:href="#DejaVuSans-52" transform="translate(365.171875 0)"/>
     <use xlink:href="#DejaVuSans-55" transform="translate(426.359375 0)"/>
     <use xlink:href="#DejaVuSans-55" transform="translate(465.71875 0)"/>
     <use xlink:href="#DejaVuSans-48" transform="translate(504.625 0)"/>
     <use xlink:href="#DejaVuSans-4f" transform="translate(566.15625 0)"/>
     <use xlink:href="#DejaVuSans-44" transform="translate(593.9375 0)"/>
     <use xlink:href="#DejaVuSans-57" transform="translate(655.21875 0)"/>
     <use xlink:href="#DejaVuSans-4c" transform="translate(694.421875 0)"/>
     <use xlink:href="#DejaVuSans-52" transform="translate(722.203125 0)"/>
     <use xlink:href="#DejaVuSans-51" transform="translate(783.390625 0)"/>
     <use xlink:href="#DejaVuSans-3" transform="translate(846.765625 0)"/>
     <use xlink:href="#DejaVuSans-b" transform="translate(878.546875 0)"/>
     <use xlink:href="#DejaVuSans-355" transform="translate(917.5625 0)"/>
     <use xlink:href="#DejaVuSans-3" transform="translate(981.046875 0)"/>
     <use xlink:href="#DejaVuSans-20" transform="translate(1012.828125 0)"/>
     <use xlink:href="#DejaVuSans-3" transform="translate(1096.625 0)"/>
     <use xlink:href="#DejaVuSans-10" transform="translate(1128.40625 0)"/>
     <use xlink:href="#DejaVuSans-13" transform="translate(1164.484375 0)"/>
     <use xlink:href="#DejaVuSans-11" transform="translate(1228.109375 0)"/>
     <use xlink:href="#DejaVuSans-13" transform="translate(1259.890625 0)"/>
     <use xlink:href="#DejaVuSans-13" transform="translate(1323.515625 0)"/>
     <use xlink:href="#DejaVuSans-19" transform="translate(1387.140625 0)"/>
     <use xlink:href="#DejaVuSans-15" transform="translate(1450.765625 0)"/>
     <use xlink:href="#DejaVuSans-c" transform="translate(1514.390625 0)"/>
     <use xlink:href="#DejaVuSans-3" transform="translate(1553.40625 0)"/>
     <use xlink:href="#DejaVuSans-af6" transform="translate(1585.1875 0)"/>
     <use xlink:href="#DejaVuSans-3" transform="translate(1685.1875 0)"/>
     <use xlink:href="#DejaVuSans-51" transform="translate(1716.96875 0)"/>
     <use xlink:href="#DejaVuSans-52" transform="translate(1780.34375 0)"/>
     <use xlink:href="#DejaVuSans-3" transform="translate(1841.53125 0)"/>
     <use xlink:href="#DejaVuSans-53" transform="translate(1873.3125 0)"/>
     <use xlink:href="#DejaVuSans-48" transform="translate(1936.796875 0)"/>
     <use xlink:href="#DejaVuSans-55" transform="translate(1998.328125 0)"/>
     <use xlink:href="#DejaVuSans-4c" transform="translate(2039.4375 0)"/>
     <use xlink:href="#DejaVuSans-52" transform="translate(2067.21875 0)"/>
     <use xlink:href="#DejaVuSans-47" transform="translate(2128.40625 0)"/>
     <use xlink:href="#DejaVuSans-4c" transform="translate(2191.890625 0)"/>
     <use xlink:href="#DejaVuSans-46" transform="translate(2219.671875 0)"/>
     <use xlink:href="#DejaVuSans-3" transform="translate(2274.65625 0)"/>
     <use xlink:href="#DejaVuSans-56" transform="translate(2306.4375 0)"/>
     <use xlink:href="#DejaVuSans-57" transform="translate(2358.53125 0)"/>
     <use xlink:href="#DejaVuSans-55" transform="translate(2397.734375 0)"/>
     <use xlink:href="#DejaVuSans-58" transform="translate(2438.84375 0)"/>
     <use xlink:href="#DejaVuSans-46" transform="translate(2502.21875 0)"/>
     <use xlink:href="#DejaVuSans-57" transform="translate(2557.203125 0)"/>
     <use xlink:href="#DejaVuSans-58" transform="translate(2596.40625 0)"/>
     <use xlink:href="#DejaVuSans-55" transform="translate(2659.78125 0)"/>
     <use xlink:href="#DejaVuSans-48" transform="translate(2698.6875 0)"/>
    </g>
   </g>
  </g>
 </g>
 <defs>
  <clipPath id="pcc2d802c7f">
   <rect x="55.867188" y="22.318125" width="793.24" height="131.315313"/>
  </clipPath>
  <clipPath id="p162a4d18a8">
   <rect x="55.867188" y="210.718125" width="793.24" height="131.315312"/>
  </clipPath>
  <clipPath id="p04957ff7b5">
   <rect x="55.867188" y="399.118125" width="793.24" height="131.315313"/>
  </clipPath>
 </defs>
</svg>
