<?xml version="1.0" encoding="utf-8" standalone="no"?>
<!DOCTYPE svg PUBLIC "-//W3C//DTD SVG 1.1//EN"
  "http://www.w3.org/Graphics/SVG/1.1/DTD/svg11.dtd">
<svg xmlns:xlink="http://www.w3.org/1999/xlink" width="846.980625pt" height="280.634219pt" viewBox="0 0 846.980625 280.634219" xmlns="http://www.w3.org/2000/svg" version="1.1">
 <metadata>
  <rdf:RDF xmlns:dc="http://purl.org/dc/elements/1.1/" xmlns:cc="http://creativecommons.org/ns#" xmlns:rdf="http://www.w3.org/1999/02/22-rdf-syntax-ns#">
   <cc:Work>
    <dc:type rdf:resource="http://purl.org/dc/dcmitype/StillImage"/>
    <dc:date>2026-06-21T18:44:38.999320</dc:date>
    <dc:format>image/svg+xml</dc:format>
    <dc:creator>
     <cc:Agent>
      <dc:title>Matplotlib v3.11.0, https://matplotlib.org/</dc:title>
     </cc:Agent>
    </dc:creator>
   </cc:Work>
  </rdf:RDF>
 </metadata>
 <defs>
  <style type="text/css">*{stroke-linejoin: round; stroke-linecap: butt}</style>
 </defs>
 <g id="figure_1">
  <g id="patch_1">
   <path d="M 0 280.634219 
L 846.980625 280.634219 
L 846.980625 0 
L 0 0 
z
" style="fill: #ffffff"/>
  </g>
  <g id="axes_1">
   <g id="patch_2">
    <path d="M 42.942969 117.665781 
L 839.780625 117.665781 
L 839.780625 22.318125 
L 42.942969 22.318125 
z
" style="fill: #ffffff"/>
   </g>
   <g id="matplotlib.axis_1">
    <g id="xtick_1">
     <g id="line2d_1">
      <path d="M 79.162862 117.665781 
L 79.162862 22.318125 
" clip-path="url(#pcb0648a29f)" style="fill: none; stroke: #b0b0b0; stroke-opacity: 0.3; stroke-width: 0.8; stroke-linecap: square"/>
     </g>
     <g id="line2d_2">
      <defs>
       <path id="m47d41382a5" d="M 0 0 
L 0 3.5 
" style="stroke: #000000; stroke-width: 0.8"/>
      </defs>
      <g>
       <use xlink:href="#m47d41382a5" x="79.162862" y="117.665781" style="stroke: #000000; stroke-width: 0.8"/>
      </g>
     </g>
    </g>
    <g id="xtick_2">
     <g id="line2d_3">
      <path d="M 169.894058 117.665781 
L 169.894058 22.318125 
" clip-path="url(#pcb0648a29f)" style="fill: none; stroke: #b0b0b0; stroke-opacity: 0.3; stroke-width: 0.8; stroke-linecap: square"/>
     </g>
     <g id="line2d_4">
      <g>
       <use xlink:href="#m47d41382a5" x="169.894058" y="117.665781" style="stroke: #000000; stroke-width: 0.8"/>
      </g>
     </g>
    </g>
    <g id="xtick_3">
     <g id="line2d_5">
      <path d="M 260.625254 117.665781 
L 260.625254 22.318125 
" clip-path="url(#pcb0648a29f)" style="fill: none; stroke: #b0b0b0; stroke-opacity: 0.3; stroke-width: 0.8; stroke-linecap: square"/>
     </g>
     <g id="line2d_6">
      <g>
       <use xlink:href="#m47d41382a5" x="260.625254" y="117.665781" style="stroke: #000000; stroke-width: 0.8"/>
      </g>
     </g>
    </g>
    <g id="xtick_4">
     <g id="line2d_7">
      <path d="M 351.35645 117.665781 
L 351.35645 22.318125 
" clip-path="url(#pcb0648a29f)" style="fill: none; stroke: #b0b0b0; stroke-opacity: 0.3; stroke-width: 0.8; stroke-linecap: square"/>
     </g>
     <g id="line2d_8">
      <g>
       <use xlink:href="#m47d41382a5" x="351.35645" y="117.665781" style="stroke: #000000; stroke-width: 0.8"/>
      </g>
     </g>
    </g>
    <g id="xtick_5">
     <g id="line2d_9">
      <path d="M 442.087646 117.665781 
L 442.087646 22.318125 
" clip-path="url(#pcb0648a29f)" style="fill: none; stroke: #b0b0b0; stroke-opacity: 0.3; stroke-width: 0.8; stroke-linecap: square"/>
     </g>
     <g id="line2d_10">
      <g>
       <use xlink:href="#m47d41382a5" x="442.087646" y="117.665781" style="stroke: #000000; stroke-width: 0.8"/>
      </g>
     </g>
    </g>
    <g id="xtick_6">
     <g id="line2d_11">
      <path d="M 532.818843 117.665781 
L 532.818843 22.318125 
" clip-path="url(#pcb0648a29f)" style="fill: none; stroke: #b0b0b0; stroke-opacity: 0.3; stroke-width: 0.8; stroke-linecap: square"/>
     </g>
     <g id="line2d_12">
      <g>
       <use xlink:href="#m47d41382a5" x="532.818843" y="117.665781" style="stroke: #000000; stroke-width: 0.8"/>
      </g>
     </g>
    </g>
    <g id="xtick_7">
     <g id="line2d_13">
      <path d="M 623.550039 117.665781 
L 623.550039 22.318125 
" clip-path="url(#pcb0648a29f)" style="fill: none; stroke: #b0b0b0; stroke-opacity: 0.3; stroke-width: 0.8; stroke-linecap: square"/>
     </g>
     <g id="line2d_14">
      <g>
       <use xlink:href="#m47d41382a5" x="623.550039" y="117.665781" style="stroke: #000000; stroke-width: 0.8"/>
      </g>
     </g>
    </g>
    <g id="xtick_8">
     <g id="line2d_15">
      <path d="M 714.281235 117.665781 
L 714.281235 22.318125 
" clip-path="url(#pcb0648a29f)" style="fill: none; stroke: #b0b0b0; stroke-opacity: 0.3; stroke-width: 0.8; stroke-linecap: square"/>
     </g>
     <g id="line2d_16">
      <g>
       <use xlink:href="#m47d41382a5" x="714.281235" y="117.665781" style="stroke: #000000; stroke-width: 0.8"/>
      </g>
     </g>
    </g>
    <g id="xtick_9">
     <g id="line2d_17">
      <path d="M 805.012431 117.665781 
L 805.012431 22.318125 
" clip-path="url(#pcb0648a29f)" style="fill: none; stroke: #b0b0b0; stroke-opacity: 0.3; stroke-width: 0.8; stroke-linecap: square"/>
     </g>
     <g id="line2d_18">
      <g>
       <use xlink:href="#m47d41382a5" x="805.012431" y="117.665781" style="stroke: #000000; stroke-width: 0.8"/>
      </g>
     </g>
    </g>
   </g>
   <g id="matplotlib.axis_2">
    <g id="ytick_1">
     <g id="line2d_19">
      <path d="M 42.942969 113.674897 
L 839.780625 113.674897 
" clip-path="url(#pcb0648a29f)" style="fill: none; stroke: #b0b0b0; stroke-opacity: 0.3; stroke-width: 0.8; stroke-linecap: square"/>
     </g>
     <g id="line2d_20">
      <defs>
       <path id="m57dbd6362f" d="M 0 0 
L -3.5 0 
" style="stroke: #000000; stroke-width: 0.8"/>
      </defs>
      <g>
       <use xlink:href="#m57dbd6362f" x="42.942969" y="113.674897" style="stroke: #000000; stroke-width: 0.8"/>
      </g>
     </g>
     <g id="text_1">
      <!-- −1 -->
      <g transform="translate(21.200781 117.473725) scale(0.1 -0.1)">
       <defs>
        <path id="DejaVuSans-c9c" d="M 678 2272 
L 4684 2272 
L 4684 1741 
L 678 1741 
L 678 2272 
z
" transform="scale(0.015625)"/>
        <path id="DejaVuSans-14" d="M 794 531 
L 1825 531 
L 1825 4091 
L 703 3866 
L 703 4441 
L 1819 4666 
L 2450 4666 
L 2450 531 
L 3481 531 
L 3481 0 
L 794 0 
L 794 531 
z
" transform="scale(0.015625)"/>
       </defs>
       <use xlink:href="#DejaVuSans-c9c"/>
       <use xlink:href="#DejaVuSans-14" transform="translate(83.796875 0)"/>
      </g>
     </g>
    </g>
    <g id="ytick_2">
     <g id="line2d_21">
      <path d="M 42.942969 70.163503 
L 839.780625 70.163503 
" clip-path="url(#pcb0648a29f)" style="fill: none; stroke: #b0b0b0; stroke-opacity: 0.3; stroke-width: 0.8; stroke-linecap: square"/>
     </g>
     <g id="line2d_22">
      <g>
       <use xlink:href="#m57dbd6362f" x="42.942969" y="70.163503" style="stroke: #000000; stroke-width: 0.8"/>
      </g>
     </g>
     <g id="text_2">
      <!-- 0 -->
      <g transform="translate(29.580469 73.962331) scale(0.1 -0.1)">
       <defs>
        <path id="DejaVuSans-13" d="M 2034 4250 
Q 1547 4250 1301 3770 
Q 1056 3291 1056 2328 
Q 1056 1369 1301 889 
Q 1547 409 2034 409 
Q 2525 409 2770 889 
Q 3016 1369 3016 2328 
Q 3016 3291 2770 3770 
Q 2525 4250 2034 4250 
z
M 2034 4750 
Q 2819 4750 3233 4129 
Q 3647 3509 3647 2328 
Q 3647 1150 3233 529 
Q 2819 -91 2034 -91 
Q 1250 -91 836 529 
Q 422 1150 422 2328 
Q 422 3509 836 4129 
Q 1250 4750 2034 4750 
z
" transform="scale(0.015625)"/>
       </defs>
       <use xlink:href="#DejaVuSans-13"/>
      </g>
     </g>
    </g>
    <g id="ytick_3">
     <g id="line2d_23">
      <path d="M 42.942969 26.652109 
L 839.780625 26.652109 
" clip-path="url(#pcb0648a29f)" style="fill: none; stroke: #b0b0b0; stroke-opacity: 0.3; stroke-width: 0.8; stroke-linecap: square"/>
     </g>
     <g id="line2d_24">
      <g>
       <use xlink:href="#m57dbd6362f" x="42.942969" y="26.652109" style="stroke: #000000; stroke-width: 0.8"/>
      </g>
     </g>
     <g id="text_3">
      <!-- 1 -->
      <g transform="translate(29.580469 30.450938) scale(0.1 -0.1)">
       <use xlink:href="#DejaVuSans-14"/>
      </g>
     </g>
    </g>
    <g id="text_4">
     <!-- Amplitude -->
     <g transform="translate(14.798438 95.614609) rotate(-90) scale(0.1 -0.1)">
      <defs>
       <path id="DejaVuSans-24" d="M 2188 4044 
L 1331 1722 
L 3047 1722 
L 2188 4044 
z
M 1831 4666 
L 2547 4666 
L 4325 0 
L 3669 0 
L 3244 1197 
L 1141 1197 
L 716 0 
L 50 0 
L 1831 4666 
z
" transform="scale(0.015625)"/>
       <path id="DejaVuSans-50" d="M 3328 2828 
Q 3544 3216 3844 3400 
Q 4144 3584 4550 3584 
Q 5097 3584 5394 3201 
Q 5691 2819 5691 2113 
L 5691 0 
L 5113 0 
L 5113 2094 
Q 5113 2597 4934 2840 
Q 4756 3084 4391 3084 
Q 3944 3084 3684 2787 
Q 3425 2491 3425 1978 
L 3425 0 
L 2847 0 
L 2847 2094 
Q 2847 2600 2669 2842 
Q 2491 3084 2119 3084 
Q 1678 3084 1418 2786 
Q 1159 2488 1159 1978 
L 1159 0 
L 581 0 
L 581 3500 
L 1159 3500 
L 1159 2956 
Q 1356 3278 1631 3431 
Q 1906 3584 2284 3584 
Q 2666 3584 2933 3390 
Q 3200 3197 3328 2828 
z
" transform="scale(0.015625)"/>
       <path id="DejaVuSans-53" d="M 1159 525 
L 1159 -1331 
L 581 -1331 
L 581 3500 
L 1159 3500 
L 1159 2969 
Q 1341 3281 1617 3432 
Q 1894 3584 2278 3584 
Q 2916 3584 3314 3078 
Q 3713 2572 3713 1747 
Q 3713 922 3314 415 
Q 2916 -91 2278 -91 
Q 1894 -91 1617 61 
Q 1341 213 1159 525 
z
M 3116 1747 
Q 3116 2381 2855 2742 
Q 2594 3103 2138 3103 
Q 1681 3103 1420 2742 
Q 1159 2381 1159 1747 
Q 1159 1113 1420 752 
Q 1681 391 2138 391 
Q 2594 391 2855 752 
Q 3116 1113 3116 1747 
z
" transform="scale(0.015625)"/>
       <path id="DejaVuSans-4f" d="M 603 4863 
L 1178 4863 
L 1178 0 
L 603 0 
L 603 4863 
z
" transform="scale(0.015625)"/>
       <path id="DejaVuSans-4c" d="M 603 3500 
L 1178 3500 
L 1178 0 
L 603 0 
L 603 3500 
z
M 603 4863 
L 1178 4863 
L 1178 4134 
L 603 4134 
L 603 4863 
z
" transform="scale(0.015625)"/>
       <path id="DejaVuSans-57" d="M 1172 4494 
L 1172 3500 
L 2356 3500 
L 2356 3053 
L 1172 3053 
L 1172 1153 
Q 1172 725 1289 603 
Q 1406 481 1766 481 
L 2356 481 
L 2356 0 
L 1766 0 
Q 1100 0 847 248 
Q 594 497 594 1153 
L 594 3053 
L 172 3053 
L 172 3500 
L 594 3500 
L 594 4494 
L 1172 4494 
z
" transform="scale(0.015625)"/>
       <path id="DejaVuSans-58" d="M 544 1381 
L 544 3500 
L 1119 3500 
L 1119 1403 
Q 1119 906 1312 657 
Q 1506 409 1894 409 
Q 2359 409 2629 706 
Q 2900 1003 2900 1516 
L 2900 3500 
L 3475 3500 
L 3475 0 
L 2900 0 
L 2900 538 
Q 2691 219 2414 64 
Q 2138 -91 1772 -91 
Q 1169 -91 856 284 
Q 544 659 544 1381 
z
M 1991 3584 
L 1991 3584 
z
" transform="scale(0.015625)"/>
       <path id="DejaVuSans-47" d="M 2906 2969 
L 2906 4863 
L 3481 4863 
L 3481 0 
L 2906 0 
L 2906 525 
Q 2725 213 2448 61 
Q 2172 -91 1784 -91 
Q 1150 -91 751 415 
Q 353 922 353 1747 
Q 353 2572 751 3078 
Q 1150 3584 1784 3584 
Q 2172 3584 2448 3432 
Q 2725 3281 2906 2969 
z
M 947 1747 
Q 947 1113 1208 752 
Q 1469 391 1925 391 
Q 2381 391 2643 752 
Q 2906 1113 2906 1747 
Q 2906 2381 2643 2742 
Q 2381 3103 1925 3103 
Q 1469 3103 1208 2742 
Q 947 2381 947 1747 
z
" transform="scale(0.015625)"/>
       <path id="DejaVuSans-48" d="M 3597 1894 
L 3597 1613 
L 953 1613 
Q 991 1019 1311 708 
Q 1631 397 2203 397 
Q 2534 397 2845 478 
Q 3156 559 3463 722 
L 3463 178 
Q 3153 47 2828 -22 
Q 2503 -91 2169 -91 
Q 1331 -91 842 396 
Q 353 884 353 1716 
Q 353 2575 817 3079 
Q 1281 3584 2069 3584 
Q 2775 3584 3186 3129 
Q 3597 2675 3597 1894 
z
M 3022 2063 
Q 3016 2534 2758 2815 
Q 2500 3097 2075 3097 
Q 1594 3097 1305 2825 
Q 1016 2553 972 2059 
L 3022 2063 
z
" transform="scale(0.015625)"/>
      </defs>
      <use xlink:href="#DejaVuSans-24"/>
      <use xlink:href="#DejaVuSans-50" transform="translate(68.40625 0)"/>
      <use xlink:href="#DejaVuSans-53" transform="translate(165.8125 0)"/>
      <use xlink:href="#DejaVuSans-4f" transform="translate(229.296875 0)"/>
      <use xlink:href="#DejaVuSans-4c" transform="translate(257.078125 0)"/>
      <use xlink:href="#DejaVuSans-57" transform="translate(284.859375 0)"/>
      <use xlink:href="#DejaVuSans-58" transform="translate(324.0625 0)"/>
      <use xlink:href="#DejaVuSans-47" transform="translate(387.4375 0)"/>
      <use xlink:href="#DejaVuSans-48" transform="translate(450.921875 0)"/>
     </g>
    </g>
   </g>
   <g id="line2d_25">
    <path d="M 79.162862 26.652109 
L 80.614561 28.0191 
L 82.06626 32.034178 
L 83.51796 38.445062 
L 84.969659 46.848933 
L 86.421358 56.717743 
L 90.776455 88.689754 
L 92.228154 97.89871 
L 93.679854 105.36496 
L 95.131553 110.619374 
L 96.583252 113.331797 
L 98.034951 113.331797 
L 99.48665 110.619374 
L 100.938349 105.36496 
L 102.390048 97.89871 
L 103.841748 88.689754 
L 106.745146 67.4314 
L 108.196845 56.717743 
L 109.648544 46.848933 
L 111.100243 38.445062 
L 112.551942 32.034178 
L 114.003642 28.0191 
L 115.455341 26.652109 
L 116.90704 28.0191 
L 118.358739 32.034178 
L 119.810438 38.445062 
L 121.262137 46.848933 
L 122.713836 56.717743 
L 127.068934 88.689754 
L 128.520633 97.89871 
L 129.972332 105.36496 
L 131.424031 110.619374 
L 132.87573 113.331797 
L 134.327429 113.331797 
L 135.779129 110.619374 
L 137.230828 105.36496 
L 138.682527 97.89871 
L 140.134226 88.689754 
L 143.037624 67.4314 
L 144.489323 56.717743 
L 145.941023 46.848933 
L 147.392722 38.445062 
L 148.844421 32.034178 
L 150.29612 28.0191 
L 151.747819 26.652109 
L 153.199518 28.0191 
L 154.651217 32.034178 
L 156.102916 38.445062 
L 157.554616 46.848933 
L 159.006315 56.717743 
L 163.361412 88.689754 
L 164.813111 97.89871 
L 166.26481 105.36496 
L 167.71651 110.619374 
L 169.168209 113.331797 
L 170.619908 113.331797 
L 172.071607 110.619374 
L 173.523306 105.36496 
L 174.975005 97.89871 
L 176.426704 88.689754 
L 179.330103 67.4314 
L 180.781802 56.717743 
L 182.233501 46.848933 
L 183.6852 38.445062 
L 185.136899 32.034178 
L 186.588598 28.0191 
L 188.040297 26.652109 
L 189.491997 28.0191 
L 190.943696 32.034178 
L 192.395395 38.445062 
L 193.847094 46.848933 
L 195.298793 56.717743 
L 199.653891 88.689754 
L 201.10559 97.89871 
L 202.557289 105.36496 
L 204.008988 110.619374 
L 205.460687 113.331797 
L 206.912386 113.331797 
L 208.364085 110.619374 
L 209.815785 105.36496 
L 211.267484 97.89871 
L 212.719183 88.689754 
L 215.622581 67.4314 
L 217.07428 56.717743 
L 218.525979 46.848933 
L 219.977678 38.445062 
L 221.429378 32.034178 
L 222.881077 28.0191 
L 224.332776 26.652109 
L 225.784475 28.0191 
L 227.236174 32.034178 
L 228.687873 38.445062 
L 230.139572 46.848933 
L 231.591272 56.717743 
L 235.946369 88.689754 
L 237.398068 97.89871 
L 238.849767 105.36496 
L 240.301466 110.619374 
L 241.753166 113.331797 
L 243.204865 113.331797 
L 244.656564 110.619374 
L 246.108263 105.36496 
L 247.559962 97.89871 
L 249.011661 88.689754 
L 251.91506 67.4314 
L 253.366759 56.717743 
L 254.818458 46.848933 
L 256.270157 38.445062 
L 257.721856 32.034178 
L 259.173555 28.0191 
L 260.625254 26.652109 
L 262.076953 28.0191 
L 263.528653 32.034178 
L 264.980352 38.445062 
L 266.432051 46.848933 
L 267.88375 56.717743 
L 272.238847 88.689754 
L 273.690547 97.89871 
L 275.142246 105.36496 
L 276.593945 110.619374 
L 278.045644 113.331797 
L 279.497343 113.331797 
L 280.949042 110.619374 
L 282.400741 105.36496 
L 283.852441 97.89871 
L 285.30414 88.689754 
L 288.207538 67.4314 
L 289.659237 56.717743 
L 291.110936 46.848933 
L 292.562635 38.445062 
L 294.014334 32.034178 
L 295.466034 28.0191 
L 296.917733 26.652109 
L 298.369432 28.0191 
L 299.821131 32.034178 
L 301.27283 38.445062 
L 302.724529 46.848933 
L 304.176228 56.717743 
L 308.531326 88.689754 
L 309.983025 97.89871 
L 311.434724 105.36496 
L 312.886423 110.619374 
L 314.338122 113.331797 
L 315.789822 113.331797 
L 317.241521 110.619374 
L 318.69322 105.36496 
L 320.144919 97.89871 
L 321.596618 88.689754 
L 324.500016 67.4314 
L 325.951715 56.717743 
L 327.403415 46.848933 
L 328.855114 38.445062 
L 330.306813 32.034178 
L 331.758512 28.0191 
L 333.210211 26.652109 
L 334.66191 28.0191 
L 336.113609 32.034178 
L 337.565309 38.445062 
L 339.017008 46.848933 
L 340.468707 56.717743 
L 344.823804 88.689754 
L 346.275503 97.89871 
L 347.727203 105.36496 
L 349.178902 110.619374 
L 350.630601 113.331797 
L 352.0823 113.331797 
L 353.533999 110.619374 
L 354.985698 105.36496 
L 356.437397 97.89871 
L 357.889097 88.689754 
L 360.792495 67.4314 
L 362.244194 56.717743 
L 363.695893 46.848933 
L 365.147592 38.445062 
L 366.599291 32.034178 
L 368.05099 28.0191 
L 369.50269 26.652109 
L 370.954389 28.0191 
L 372.406088 32.034178 
L 373.857787 38.445062 
L 375.309486 46.848933 
L 376.761185 56.717743 
L 381.116283 88.689754 
L 382.567982 97.89871 
L 384.019681 105.36496 
L 385.47138 110.619374 
L 386.923079 113.331797 
L 388.374778 113.331797 
L 389.826478 110.619374 
L 391.278177 105.36496 
L 392.729876 97.89871 
L 394.181575 88.689754 
L 397.084973 67.4314 
L 398.536672 56.717743 
L 399.988371 46.848933 
L 401.440071 38.445062 
L 402.89177 32.034178 
L 404.343469 28.0191 
L 405.795168 26.652109 
L 407.246867 28.0191 
L 408.698566 32.034178 
L 410.150265 38.445062 
L 411.601965 46.848933 
L 413.053664 56.717743 
L 417.408761 88.689754 
L 418.86046 97.89871 
L 420.312159 105.36496 
L 421.763859 110.619374 
L 423.215558 113.331797 
L 424.667257 113.331797 
L 426.118956 110.619374 
L 427.570655 105.36496 
L 429.022354 97.89871 
L 430.474053 88.689754 
L 433.377452 67.4314 
L 434.829151 56.717743 
L 436.28085 46.848933 
L 437.732549 38.445062 
L 439.184248 32.034178 
L 440.635947 28.0191 
L 442.087646 26.652109 
L 443.539346 28.0191 
L 444.991045 32.034178 
L 446.442744 38.445062 
L 447.894443 46.848933 
L 449.346142 56.717743 
L 453.70124 88.689754 
L 455.152939 97.89871 
L 456.604638 105.36496 
L 458.056337 110.619374 
L 459.508036 113.331797 
L 460.959735 113.331797 
L 462.411434 110.619374 
L 463.863133 105.36496 
L 465.314833 97.89871 
L 466.766532 88.689754 
L 469.66993 67.4314 
L 471.121629 56.717743 
L 472.573328 46.848933 
L 474.025027 38.445062 
L 475.476727 32.034178 
L 476.928426 28.0191 
L 478.380125 26.652109 
L 479.831824 28.0191 
L 481.283523 32.034178 
L 482.735222 38.445062 
L 484.186921 46.848933 
L 485.638621 56.717743 
L 489.993718 88.689754 
L 491.445417 97.89871 
L 492.897116 105.36496 
L 494.348815 110.619374 
L 495.800515 113.331797 
L 497.252214 113.331797 
L 498.703913 110.619374 
L 500.155612 105.36496 
L 501.607311 97.89871 
L 503.05901 88.689754 
L 505.962408 67.4314 
L 507.414108 56.717743 
L 508.865807 46.848933 
L 510.317506 38.445062 
L 511.769205 32.034178 
L 513.220904 28.0191 
L 514.672603 26.652109 
L 516.124302 28.0191 
L 517.576002 32.034178 
L 519.027701 38.445062 
L 520.4794 46.848933 
L 521.931099 56.717743 
L 526.286196 88.689754 
L 527.737896 97.89871 
L 529.189595 105.36496 
L 530.641294 110.619374 
L 532.092993 113.331797 
L 533.544692 113.331797 
L 534.996391 110.619374 
L 536.44809 105.36496 
L 537.899789 97.89871 
L 539.351489 88.689754 
L 542.254887 67.4314 
L 543.706586 56.717743 
L 545.158285 46.848933 
L 546.609984 38.445062 
L 548.061683 32.034178 
L 549.513383 28.0191 
L 550.965082 26.652109 
L 552.416781 28.0191 
L 553.86848 32.034178 
L 555.320179 38.445062 
L 556.771878 46.848933 
L 558.223577 56.717743 
L 562.578675 88.689754 
L 564.030374 97.89871 
L 565.482073 105.36496 
L 566.933772 110.619374 
L 568.385471 113.331797 
L 569.83717 113.331797 
L 571.28887 110.619374 
L 572.740569 105.36496 
L 574.192268 97.89871 
L 575.643967 88.689754 
L 578.547365 67.4314 
L 579.999064 56.717743 
L 581.450764 46.848933 
L 582.902463 38.445062 
L 584.354162 32.034178 
L 585.805861 28.0191 
L 587.25756 26.652109 
L 588.709259 28.0191 
L 590.160958 32.034178 
L 591.612658 38.445062 
L 593.064357 46.848933 
L 594.516056 56.717743 
L 598.871153 88.689754 
L 600.322852 97.89871 
L 601.774552 105.36496 
L 603.226251 110.619374 
L 604.67795 113.331797 
L 606.129649 113.331797 
L 607.581348 110.619374 
L 609.033047 105.36496 
L 610.484746 97.89871 
L 611.936445 88.689754 
L 614.839844 67.4314 
L 616.291543 56.717743 
L 617.743242 46.848933 
L 619.194941 38.445062 
L 620.64664 32.034178 
L 622.098339 28.0191 
L 623.550039 26.652109 
L 625.001738 28.0191 
L 626.453437 32.034178 
L 627.905136 38.445062 
L 629.356835 46.848933 
L 630.808534 56.717743 
L 635.163632 88.689754 
L 636.615331 97.89871 
L 638.06703 105.36496 
L 639.518729 110.619374 
L 640.970428 113.331797 
L 642.422127 113.331797 
L 643.873826 110.619374 
L 645.325526 105.36496 
L 646.777225 97.89871 
L 648.228924 88.689754 
L 651.132322 67.4314 
L 652.584021 56.717743 
L 654.03572 46.848933 
L 655.48742 38.445062 
L 656.939119 32.034178 
L 658.390818 28.0191 
L 659.842517 26.652109 
L 661.294216 28.0191 
L 662.745915 32.034178 
L 664.197614 38.445062 
L 665.649314 46.848933 
L 667.101013 56.717743 
L 671.45611 88.689754 
L 672.907809 97.89871 
L 674.359508 105.36496 
L 675.811207 110.619374 
L 677.262907 113.331797 
L 678.714606 113.331797 
L 680.166305 110.619374 
L 681.618004 105.36496 
L 683.069703 97.89871 
L 684.521402 88.689754 
L 687.424801 67.4314 
L 688.8765 56.717743 
L 690.328199 46.848933 
L 691.779898 38.445062 
L 693.231597 32.034178 
L 694.683296 28.0191 
L 696.134995 26.652109 
L 697.586695 28.0191 
L 699.038394 32.034178 
L 700.490093 38.445062 
L 701.941792 46.848933 
L 703.393491 56.717743 
L 707.748588 88.689754 
L 709.200288 97.89871 
L 710.651987 105.36496 
L 712.103686 110.619374 
L 713.555385 113.331797 
L 715.007084 113.331797 
L 716.458783 110.619374 
L 717.910482 105.36496 
L 719.362182 97.89871 
L 720.813881 88.689754 
L 723.717279 67.4314 
L 725.168978 56.717743 
L 726.620677 46.848933 
L 728.072376 38.445062 
L 729.524076 32.034178 
L 730.975775 28.0191 
L 732.427474 26.652109 
L 733.879173 28.0191 
L 735.330872 32.034178 
L 736.782571 38.445062 
L 738.23427 46.848933 
L 739.68597 56.717743 
L 744.041067 88.689754 
L 745.492766 97.89871 
L 746.944465 105.36496 
L 748.396164 110.619374 
L 749.847863 113.331797 
L 751.299563 113.331797 
L 752.751262 110.619374 
L 754.202961 105.36496 
L 755.65466 97.89871 
L 757.106359 88.689754 
L 760.009757 67.4314 
L 761.461457 56.717743 
L 762.913156 46.848933 
L 764.364855 38.445062 
L 765.816554 32.034178 
L 767.268253 28.0191 
L 768.719952 26.652109 
L 770.171651 28.0191 
L 771.623351 32.034178 
L 773.07505 38.445062 
L 774.526749 46.848933 
L 775.978448 56.717743 
L 780.333545 88.689754 
L 781.785244 97.89871 
L 783.236944 105.36496 
L 784.688643 110.619374 
L 786.140342 113.331797 
L 787.592041 113.331797 
L 789.04374 110.619374 
L 790.495439 105.36496 
L 791.947138 97.89871 
L 793.398838 88.689754 
L 796.302236 67.4314 
L 797.753935 56.717743 
L 799.205634 46.848933 
L 800.657333 38.445062 
L 802.109032 32.034178 
L 803.560732 28.0191 
L 803.560732 28.0191 
" clip-path="url(#pcb0648a29f)" style="fill: none; stroke: #1f77b4; stroke-width: 0.8; stroke-linecap: square"/>
   </g>
   <g id="patch_3">
    <path d="M 42.942969 117.665781 
L 42.942969 22.318125 
" style="fill: none; stroke: #000000; stroke-width: 0.8; stroke-linejoin: miter; stroke-linecap: square"/>
   </g>
   <g id="patch_4">
    <path d="M 839.780625 117.665781 
L 839.780625 22.318125 
" style="fill: none; stroke: #000000; stroke-width: 0.8; stroke-linejoin: miter; stroke-linecap: square"/>
   </g>
   <g id="patch_5">
    <path d="M 42.942969 117.665781 
L 839.780625 117.665781 
" style="fill: none; stroke: #000000; stroke-width: 0.8; stroke-linejoin: miter; stroke-linecap: square"/>
   </g>
   <g id="patch_6">
    <path d="M 42.942969 22.318125 
L 839.780625 22.318125 
" style="fill: none; stroke: #000000; stroke-width: 0.8; stroke-linejoin: miter; stroke-linecap: square"/>
   </g>
   <g id="text_5">
    <!-- φ = 0 (starts at peak) -->
    <g transform="translate(376.561797 16.318125) scale(0.12 -0.12)">
     <defs>
      <path id="DejaVuSans-35a" d="M 2591 3034 
Q 2388 3034 2388 2581 
L 2388 438 
Q 2684 438 2981 763 
Q 3247 1053 3247 1750 
Q 3247 2400 2978 2750 
Q 2759 3034 2591 3034 
z
M 2591 3525 
Q 3028 3525 3425 3113 
Q 3853 2672 3853 1750 
Q 3853 903 3425 400 
Q 3022 -75 2388 -75 
L 2388 -1331 
L 1816 -1331 
L 1816 -78 
Q 1194 -78 775 400 
Q 350 888 350 1747 
Q 350 2641 775 3097 
Q 1094 3438 1613 3525 
L 1613 3016 
Q 1406 2944 1225 2700 
Q 956 2341 956 1747 
Q 956 1116 1225 756 
Q 1466 434 1816 434 
L 1816 2581 
Q 1816 3525 2591 3525 
z
" transform="scale(0.015625)"/>
      <path id="DejaVuSans-3" transform="scale(0.015625)"/>
      <path id="DejaVuSans-20" d="M 678 2906 
L 4684 2906 
L 4684 2381 
L 678 2381 
L 678 2906 
z
M 678 1631 
L 4684 1631 
L 4684 1100 
L 678 1100 
L 678 1631 
z
" transform="scale(0.015625)"/>
      <path id="DejaVuSans-b" d="M 1984 4856 
Q 1566 4138 1362 3434 
Q 1159 2731 1159 2009 
Q 1159 1288 1364 580 
Q 1569 -128 1984 -844 
L 1484 -844 
Q 1016 -109 783 600 
Q 550 1309 550 2009 
Q 550 2706 781 3412 
Q 1013 4119 1484 4856 
L 1984 4856 
z
" transform="scale(0.015625)"/>
      <path id="DejaVuSans-56" d="M 2834 3397 
L 2834 2853 
Q 2591 2978 2328 3040 
Q 2066 3103 1784 3103 
Q 1356 3103 1142 2972 
Q 928 2841 928 2578 
Q 928 2378 1081 2264 
Q 1234 2150 1697 2047 
L 1894 2003 
Q 2506 1872 2764 1633 
Q 3022 1394 3022 966 
Q 3022 478 2636 193 
Q 2250 -91 1575 -91 
Q 1294 -91 989 -36 
Q 684 19 347 128 
L 347 722 
Q 666 556 975 473 
Q 1284 391 1588 391 
Q 1994 391 2212 530 
Q 2431 669 2431 922 
Q 2431 1156 2273 1281 
Q 2116 1406 1581 1522 
L 1381 1569 
Q 847 1681 609 1914 
Q 372 2147 372 2553 
Q 372 3047 722 3315 
Q 1072 3584 1716 3584 
Q 2034 3584 2315 3537 
Q 2597 3491 2834 3397 
z
" transform="scale(0.015625)"/>
      <path id="DejaVuSans-44" d="M 2194 1759 
Q 1497 1759 1228 1600 
Q 959 1441 959 1056 
Q 959 750 1161 570 
Q 1363 391 1709 391 
Q 2188 391 2477 730 
Q 2766 1069 2766 1631 
L 2766 1759 
L 2194 1759 
z
M 3341 1997 
L 3341 0 
L 2766 0 
L 2766 531 
Q 2569 213 2275 61 
Q 1981 -91 1556 -91 
Q 1019 -91 701 211 
Q 384 513 384 1019 
Q 384 1609 779 1909 
Q 1175 2209 1959 2209 
L 2766 2209 
L 2766 2266 
Q 2766 2663 2505 2880 
Q 2244 3097 1772 3097 
Q 1472 3097 1187 3025 
Q 903 2953 641 2809 
L 641 3341 
Q 956 3463 1253 3523 
Q 1550 3584 1831 3584 
Q 2591 3584 2966 3190 
Q 3341 2797 3341 1997 
z
" transform="scale(0.015625)"/>
      <path id="DejaVuSans-55" d="M 2631 2963 
Q 2534 3019 2420 3045 
Q 2306 3072 2169 3072 
Q 1681 3072 1420 2755 
Q 1159 2438 1159 1844 
L 1159 0 
L 581 0 
L 581 3500 
L 1159 3500 
L 1159 2956 
Q 1341 3275 1631 3429 
Q 1922 3584 2338 3584 
Q 2397 3584 2469 3576 
Q 2541 3569 2628 3553 
L 2631 2963 
z
" transform="scale(0.015625)"/>
      <path id="DejaVuSans-4e" d="M 581 4863 
L 1159 4863 
L 1159 1991 
L 2875 3500 
L 3609 3500 
L 1753 1863 
L 3688 0 
L 2938 0 
L 1159 1709 
L 1159 0 
L 581 0 
L 581 4863 
z
" transform="scale(0.015625)"/>
      <path id="DejaVuSans-c" d="M 513 4856 
L 1013 4856 
Q 1481 4119 1714 3412 
Q 1947 2706 1947 2009 
Q 1947 1309 1714 600 
Q 1481 -109 1013 -844 
L 513 -844 
Q 928 -128 1133 580 
Q 1338 1288 1338 2009 
Q 1338 2731 1133 3434 
Q 928 4138 513 4856 
z
" transform="scale(0.015625)"/>
     </defs>
     <use xlink:href="#DejaVuSans-35a"/>
     <use xlink:href="#DejaVuSans-3" transform="translate(65.96875 0)"/>
     <use xlink:href="#DejaVuSans-20" transform="translate(97.75 0)"/>
     <use xlink:href="#DejaVuSans-3" transform="translate(181.546875 0)"/>
     <use xlink:href="#DejaVuSans-13" transform="translate(213.328125 0)"/>
     <use xlink:href="#DejaVuSans-3" transform="translate(276.953125 0)"/>
     <use xlink:href="#DejaVuSans-b" transform="translate(308.734375 0)"/>
     <use xlink:href="#DejaVuSans-56" transform="translate(347.75 0)"/>
     <use xlink:href="#DejaVuSans-57" transform="translate(399.84375 0)"/>
     <use xlink:href="#DejaVuSans-44" transform="translate(439.046875 0)"/>
     <use xlink:href="#DejaVuSans-55" transform="translate(500.328125 0)"/>
     <use xlink:href="#DejaVuSans-57" transform="translate(541.4375 0)"/>
     <use xlink:href="#DejaVuSans-56" transform="translate(580.640625 0)"/>
     <use xlink:href="#DejaVuSans-3" transform="translate(632.734375 0)"/>
     <use xlink:href="#DejaVuSans-44" transform="translate(664.515625 0)"/>
     <use xlink:href="#DejaVuSans-57" transform="translate(725.796875 0)"/>
     <use xlink:href="#DejaVuSans-3" transform="translate(765 0)"/>
     <use xlink:href="#DejaVuSans-53" transform="translate(796.78125 0)"/>
     <use xlink:href="#DejaVuSans-48" transform="translate(860.265625 0)"/>
     <use xlink:href="#DejaVuSans-44" transform="translate(921.796875 0)"/>
     <use xlink:href="#DejaVuSans-4e" transform="translate(983.078125 0)"/>
     <use xlink:href="#DejaVuSans-c" transform="translate(1040.984375 0)"/>
    </g>
   </g>
   <g id="text_6">
    <!-- Figure B.34 -->
    <g transform="translate(42.942969 16.318125) scale(0.09 -0.09)">
     <defs>
      <path id="DejaVuSans-Oblique-29" d="M 1081 4666 
L 3756 4666 
L 3653 4134 
L 1606 4134 
L 1338 2759 
L 3188 2759 
L 3084 2228 
L 1234 2228 
L 800 0 
L 172 0 
L 1081 4666 
z
" transform="scale(0.015625)"/>
      <path id="DejaVuSans-Oblique-4c" d="M 1172 4863 
L 1747 4863 
L 1606 4134 
L 1031 4134 
L 1172 4863 
z
M 909 3500 
L 1484 3500 
L 800 0 
L 225 0 
L 909 3500 
z
" transform="scale(0.015625)"/>
      <path id="DejaVuSans-Oblique-4a" d="M 3816 3500 
L 3219 434 
Q 3047 -456 2561 -893 
Q 2075 -1331 1253 -1331 
Q 950 -1331 690 -1286 
Q 431 -1241 206 -1147 
L 313 -588 
Q 525 -725 762 -790 
Q 1000 -856 1269 -856 
Q 1816 -856 2167 -557 
Q 2519 -259 2631 300 
L 2681 563 
Q 2441 288 2122 144 
Q 1803 0 1434 0 
Q 903 0 598 351 
Q 294 703 294 1319 
Q 294 1803 478 2267 
Q 663 2731 997 3091 
Q 1219 3328 1514 3456 
Q 1809 3584 2131 3584 
Q 2484 3584 2746 3420 
Q 3009 3256 3138 2956 
L 3238 3500 
L 3816 3500 
z
M 2950 2216 
Q 2950 2641 2750 2872 
Q 2550 3103 2181 3103 
Q 1953 3103 1747 3012 
Q 1541 2922 1394 2759 
Q 1156 2491 1023 2127 
Q 891 1763 891 1375 
Q 891 944 1092 712 
Q 1294 481 1672 481 
Q 2219 481 2584 976 
Q 2950 1472 2950 2216 
z
" transform="scale(0.015625)"/>
      <path id="DejaVuSans-Oblique-58" d="M 428 1388 
L 838 3500 
L 1416 3500 
L 1006 1409 
Q 975 1256 961 1147 
Q 947 1038 947 966 
Q 947 700 1109 554 
Q 1272 409 1569 409 
Q 2031 409 2368 721 
Q 2706 1034 2809 1563 
L 3194 3500 
L 3769 3500 
L 3091 0 
L 2516 0 
L 2631 550 
Q 2388 244 2052 76 
Q 1716 -91 1338 -91 
Q 878 -91 622 161 
Q 366 413 366 863 
Q 366 956 381 1097 
Q 397 1238 428 1388 
z
" transform="scale(0.015625)"/>
      <path id="DejaVuSans-Oblique-55" d="M 2853 2969 
Q 2766 3016 2653 3041 
Q 2541 3066 2413 3066 
Q 1953 3066 1609 2717 
Q 1266 2369 1153 1784 
L 800 0 
L 225 0 
L 909 3500 
L 1484 3500 
L 1375 2956 
Q 1603 3259 1920 3421 
Q 2238 3584 2597 3584 
Q 2691 3584 2781 3573 
Q 2872 3563 2963 3538 
L 2853 2969 
z
" transform="scale(0.015625)"/>
      <path id="DejaVuSans-Oblique-48" d="M 3078 2063 
Q 3088 2113 3092 2166 
Q 3097 2219 3097 2272 
Q 3097 2653 2873 2875 
Q 2650 3097 2266 3097 
Q 1838 3097 1509 2826 
Q 1181 2556 1013 2059 
L 3078 2063 
z
M 3578 1613 
L 903 1613 
Q 884 1494 878 1425 
Q 872 1356 872 1306 
Q 872 872 1139 634 
Q 1406 397 1894 397 
Q 2269 397 2603 481 
Q 2938 566 3225 728 
L 3116 159 
Q 2806 34 2476 -28 
Q 2147 -91 1806 -91 
Q 1078 -91 686 257 
Q 294 606 294 1247 
Q 294 1794 489 2264 
Q 684 2734 1063 3103 
Q 1306 3334 1642 3459 
Q 1978 3584 2356 3584 
Q 2950 3584 3301 3228 
Q 3653 2872 3653 2272 
Q 3653 2128 3634 1964 
Q 3616 1800 3578 1613 
z
" transform="scale(0.015625)"/>
      <path id="DejaVuSans-Oblique-3" transform="scale(0.015625)"/>
      <path id="DejaVuSans-Oblique-25" d="M 1081 4666 
L 2694 4666 
Q 3350 4666 3675 4422 
Q 4000 4178 4000 3688 
Q 4000 3238 3720 2911 
Q 3441 2584 2988 2516 
Q 3375 2428 3569 2181 
Q 3763 1934 3763 1522 
Q 3763 819 3242 409 
Q 2722 0 1819 0 
L 172 0 
L 1081 4666 
z
M 1234 2228 
L 903 519 
L 1919 519 
Q 2491 519 2800 781 
Q 3109 1044 3109 1522 
Q 3109 1891 2904 2059 
Q 2700 2228 2247 2228 
L 1234 2228 
z
M 1606 4147 
L 1331 2741 
L 2272 2741 
Q 2775 2741 3058 2959 
Q 3341 3178 3341 3566 
Q 3341 3869 3150 4008 
Q 2959 4147 2541 4147 
L 1606 4147 
z
" transform="scale(0.015625)"/>
      <path id="DejaVuSans-Oblique-11" d="M 525 794 
L 1184 794 
L 1031 0 
L 372 0 
L 525 794 
z
" transform="scale(0.015625)"/>
      <path id="DejaVuSans-Oblique-16" d="M 1013 4550 
Q 1356 4650 1679 4700 
Q 2003 4750 2316 4750 
Q 2934 4750 3296 4475 
Q 3659 4200 3659 3738 
Q 3659 3284 3373 2959 
Q 3088 2634 2584 2516 
Q 2978 2403 3162 2165 
Q 3347 1928 3347 1538 
Q 3347 1163 3167 834 
Q 2988 506 2650 269 
Q 2394 88 2037 -1 
Q 1681 -91 1216 -91 
Q 922 -91 622 -33 
Q 322 25 13 141 
L 128 738 
Q 422 575 720 495 
Q 1019 416 1331 416 
Q 1947 416 2330 733 
Q 2713 1050 2713 1556 
Q 2713 1881 2469 2057 
Q 2225 2234 1772 2234 
L 1228 2234 
L 1325 2747 
L 1900 2747 
Q 2419 2747 2717 2984 
Q 3016 3222 3016 3628 
Q 3016 3922 2797 4083 
Q 2578 4244 2181 4244 
Q 1881 4244 1567 4180 
Q 1253 4116 916 3988 
L 1013 4550 
z
" transform="scale(0.015625)"/>
      <path id="DejaVuSans-Oblique-17" d="M 2753 4666 
L 3547 4666 
L 2950 1625 
L 3616 1625 
L 3513 1100 
L 2847 1100 
L 2638 0 
L 2009 0 
L 2222 1100 
L 116 1100 
L 238 1709 
L 2753 4666 
z
M 2809 4116 
L 728 1625 
L 2322 1625 
L 2809 4116 
z
" transform="scale(0.015625)"/>
     </defs>
     <use xlink:href="#DejaVuSans-Oblique-29"/>
     <use xlink:href="#DejaVuSans-Oblique-4c" transform="translate(57.515625 0)"/>
     <use xlink:href="#DejaVuSans-Oblique-4a" transform="translate(85.296875 0)"/>
     <use xlink:href="#DejaVuSans-Oblique-58" transform="translate(148.78125 0)"/>
     <use xlink:href="#DejaVuSans-Oblique-55" transform="translate(212.15625 0)"/>
     <use xlink:href="#DejaVuSans-Oblique-48" transform="translate(253.265625 0)"/>
     <use xlink:href="#DejaVuSans-Oblique-3" transform="translate(314.796875 0)"/>
     <use xlink:href="#DejaVuSans-Oblique-25" transform="translate(346.578125 0)"/>
     <use xlink:href="#DejaVuSans-Oblique-11" transform="translate(415.1875 0)"/>
     <use xlink:href="#DejaVuSans-Oblique-16" transform="translate(446.96875 0)"/>
     <use xlink:href="#DejaVuSans-Oblique-17" transform="translate(510.59375 0)"/>
    </g>
   </g>
  </g>
  <g id="axes_2">
   <g id="patch_7">
    <path d="M 42.942969 242.433437 
L 839.780625 242.433437 
L 839.780625 147.085781 
L 42.942969 147.085781 
z
" style="fill: #ffffff"/>
   </g>
   <g id="matplotlib.axis_3">
    <g id="xtick_10">
     <g id="line2d_26">
      <path d="M 79.162862 242.433437 
L 79.162862 147.085781 
" clip-path="url(#p45e844d6b7)" style="fill: none; stroke: #b0b0b0; stroke-opacity: 0.3; stroke-width: 0.8; stroke-linecap: square"/>
     </g>
     <g id="line2d_27">
      <g>
       <use xlink:href="#m47d41382a5" x="79.162862" y="242.433437" style="stroke: #000000; stroke-width: 0.8"/>
      </g>
     </g>
     <g id="text_7">
      <!-- 0.00 -->
      <g transform="translate(68.03005 257.031094) scale(0.1 -0.1)">
       <defs>
        <path id="DejaVuSans-11" d="M 684 794 
L 1344 794 
L 1344 0 
L 684 0 
L 684 794 
z
" transform="scale(0.015625)"/>
       </defs>
       <use xlink:href="#DejaVuSans-13"/>
       <use xlink:href="#DejaVuSans-11" transform="translate(63.625 0)"/>
       <use xlink:href="#DejaVuSans-13" transform="translate(95.40625 0)"/>
       <use xlink:href="#DejaVuSans-13" transform="translate(159.03125 0)"/>
      </g>
     </g>
    </g>
    <g id="xtick_11">
     <g id="line2d_28">
      <path d="M 169.894058 242.433437 
L 169.894058 147.085781 
" clip-path="url(#p45e844d6b7)" style="fill: none; stroke: #b0b0b0; stroke-opacity: 0.3; stroke-width: 0.8; stroke-linecap: square"/>
     </g>
     <g id="line2d_29">
      <g>
       <use xlink:href="#m47d41382a5" x="169.894058" y="242.433437" style="stroke: #000000; stroke-width: 0.8"/>
      </g>
     </g>
     <g id="text_8">
      <!-- 0.25 -->
      <g transform="translate(158.761246 257.031094) scale(0.1 -0.1)">
       <defs>
        <path id="DejaVuSans-15" d="M 1228 531 
L 3431 531 
L 3431 0 
L 469 0 
L 469 531 
Q 828 903 1448 1529 
Q 2069 2156 2228 2338 
Q 2531 2678 2651 2914 
Q 2772 3150 2772 3378 
Q 2772 3750 2511 3984 
Q 2250 4219 1831 4219 
Q 1534 4219 1204 4116 
Q 875 4013 500 3803 
L 500 4441 
Q 881 4594 1212 4672 
Q 1544 4750 1819 4750 
Q 2544 4750 2975 4387 
Q 3406 4025 3406 3419 
Q 3406 3131 3298 2873 
Q 3191 2616 2906 2266 
Q 2828 2175 2409 1742 
Q 1991 1309 1228 531 
z
" transform="scale(0.015625)"/>
        <path id="DejaVuSans-18" d="M 691 4666 
L 3169 4666 
L 3169 4134 
L 1269 4134 
L 1269 2991 
Q 1406 3038 1543 3061 
Q 1681 3084 1819 3084 
Q 2600 3084 3056 2656 
Q 3513 2228 3513 1497 
Q 3513 744 3044 326 
Q 2575 -91 1722 -91 
Q 1428 -91 1123 -41 
Q 819 9 494 109 
L 494 744 
Q 775 591 1075 516 
Q 1375 441 1709 441 
Q 2250 441 2565 725 
Q 2881 1009 2881 1497 
Q 2881 1984 2565 2268 
Q 2250 2553 1709 2553 
Q 1456 2553 1204 2497 
Q 953 2441 691 2322 
L 691 4666 
z
" transform="scale(0.015625)"/>
       </defs>
       <use xlink:href="#DejaVuSans-13"/>
       <use xlink:href="#DejaVuSans-11" transform="translate(63.625 0)"/>
       <use xlink:href="#DejaVuSans-15" transform="translate(95.40625 0)"/>
       <use xlink:href="#DejaVuSans-18" transform="translate(159.03125 0)"/>
      </g>
     </g>
    </g>
    <g id="xtick_12">
     <g id="line2d_30">
      <path d="M 260.625254 242.433437 
L 260.625254 147.085781 
" clip-path="url(#p45e844d6b7)" style="fill: none; stroke: #b0b0b0; stroke-opacity: 0.3; stroke-width: 0.8; stroke-linecap: square"/>
     </g>
     <g id="line2d_31">
      <g>
       <use xlink:href="#m47d41382a5" x="260.625254" y="242.433437" style="stroke: #000000; stroke-width: 0.8"/>
      </g>
     </g>
     <g id="text_9">
      <!-- 0.50 -->
      <g transform="translate(249.492442 257.031094) scale(0.1 -0.1)">
       <use xlink:href="#DejaVuSans-13"/>
       <use xlink:href="#DejaVuSans-11" transform="translate(63.625 0)"/>
       <use xlink:href="#DejaVuSans-18" transform="translate(95.40625 0)"/>
       <use xlink:href="#DejaVuSans-13" transform="translate(159.03125 0)"/>
      </g>
     </g>
    </g>
    <g id="xtick_13">
     <g id="line2d_32">
      <path d="M 351.35645 242.433437 
L 351.35645 147.085781 
" clip-path="url(#p45e844d6b7)" style="fill: none; stroke: #b0b0b0; stroke-opacity: 0.3; stroke-width: 0.8; stroke-linecap: square"/>
     </g>
     <g id="line2d_33">
      <g>
       <use xlink:href="#m47d41382a5" x="351.35645" y="242.433437" style="stroke: #000000; stroke-width: 0.8"/>
      </g>
     </g>
     <g id="text_10">
      <!-- 0.75 -->
      <g transform="translate(340.223638 257.031094) scale(0.1 -0.1)">
       <defs>
        <path id="DejaVuSans-1a" d="M 525 4666 
L 3525 4666 
L 3525 4397 
L 1831 0 
L 1172 0 
L 2766 4134 
L 525 4134 
L 525 4666 
z
" transform="scale(0.015625)"/>
       </defs>
       <use xlink:href="#DejaVuSans-13"/>
       <use xlink:href="#DejaVuSans-11" transform="translate(63.625 0)"/>
       <use xlink:href="#DejaVuSans-1a" transform="translate(95.40625 0)"/>
       <use xlink:href="#DejaVuSans-18" transform="translate(159.03125 0)"/>
      </g>
     </g>
    </g>
    <g id="xtick_14">
     <g id="line2d_34">
      <path d="M 442.087646 242.433437 
L 442.087646 147.085781 
" clip-path="url(#p45e844d6b7)" style="fill: none; stroke: #b0b0b0; stroke-opacity: 0.3; stroke-width: 0.8; stroke-linecap: square"/>
     </g>
     <g id="line2d_35">
      <g>
       <use xlink:href="#m47d41382a5" x="442.087646" y="242.433437" style="stroke: #000000; stroke-width: 0.8"/>
      </g>
     </g>
     <g id="text_11">
      <!-- 1.00 -->
      <g transform="translate(430.954834 257.031094) scale(0.1 -0.1)">
       <use xlink:href="#DejaVuSans-14"/>
       <use xlink:href="#DejaVuSans-11" transform="translate(63.625 0)"/>
       <use xlink:href="#DejaVuSans-13" transform="translate(95.40625 0)"/>
       <use xlink:href="#DejaVuSans-13" transform="translate(159.03125 0)"/>
      </g>
     </g>
    </g>
    <g id="xtick_15">
     <g id="line2d_36">
      <path d="M 532.818843 242.433437 
L 532.818843 147.085781 
" clip-path="url(#p45e844d6b7)" style="fill: none; stroke: #b0b0b0; stroke-opacity: 0.3; stroke-width: 0.8; stroke-linecap: square"/>
     </g>
     <g id="line2d_37">
      <g>
       <use xlink:href="#m47d41382a5" x="532.818843" y="242.433437" style="stroke: #000000; stroke-width: 0.8"/>
      </g>
     </g>
     <g id="text_12">
      <!-- 1.25 -->
      <g transform="translate(521.68603 257.031094) scale(0.1 -0.1)">
       <use xlink:href="#DejaVuSans-14"/>
       <use xlink:href="#DejaVuSans-11" transform="translate(63.625 0)"/>
       <use xlink:href="#DejaVuSans-15" transform="translate(95.40625 0)"/>
       <use xlink:href="#DejaVuSans-18" transform="translate(159.03125 0)"/>
      </g>
     </g>
    </g>
    <g id="xtick_16">
     <g id="line2d_38">
      <path d="M 623.550039 242.433437 
L 623.550039 147.085781 
" clip-path="url(#p45e844d6b7)" style="fill: none; stroke: #b0b0b0; stroke-opacity: 0.3; stroke-width: 0.8; stroke-linecap: square"/>
     </g>
     <g id="line2d_39">
      <g>
       <use xlink:href="#m47d41382a5" x="623.550039" y="242.433437" style="stroke: #000000; stroke-width: 0.8"/>
      </g>
     </g>
     <g id="text_13">
      <!-- 1.50 -->
      <g transform="translate(612.417226 257.031094) scale(0.1 -0.1)">
       <use xlink:href="#DejaVuSans-14"/>
       <use xlink:href="#DejaVuSans-11" transform="translate(63.625 0)"/>
       <use xlink:href="#DejaVuSans-18" transform="translate(95.40625 0)"/>
       <use xlink:href="#DejaVuSans-13" transform="translate(159.03125 0)"/>
      </g>
     </g>
    </g>
    <g id="xtick_17">
     <g id="line2d_40">
      <path d="M 714.281235 242.433437 
L 714.281235 147.085781 
" clip-path="url(#p45e844d6b7)" style="fill: none; stroke: #b0b0b0; stroke-opacity: 0.3; stroke-width: 0.8; stroke-linecap: square"/>
     </g>
     <g id="line2d_41">
      <g>
       <use xlink:href="#m47d41382a5" x="714.281235" y="242.433437" style="stroke: #000000; stroke-width: 0.8"/>
      </g>
     </g>
     <g id="text_14">
      <!-- 1.75 -->
      <g transform="translate(703.148422 257.031094) scale(0.1 -0.1)">
       <use xlink:href="#DejaVuSans-14"/>
       <use xlink:href="#DejaVuSans-11" transform="translate(63.625 0)"/>
       <use xlink:href="#DejaVuSans-1a" transform="translate(95.40625 0)"/>
       <use xlink:href="#DejaVuSans-18" transform="translate(159.03125 0)"/>
      </g>
     </g>
    </g>
    <g id="xtick_18">
     <g id="line2d_42">
      <path d="M 805.012431 242.433437 
L 805.012431 147.085781 
" clip-path="url(#p45e844d6b7)" style="fill: none; stroke: #b0b0b0; stroke-opacity: 0.3; stroke-width: 0.8; stroke-linecap: square"/>
     </g>
     <g id="line2d_43">
      <g>
       <use xlink:href="#m47d41382a5" x="805.012431" y="242.433437" style="stroke: #000000; stroke-width: 0.8"/>
      </g>
     </g>
     <g id="text_15">
      <!-- 2.00 -->
      <g transform="translate(793.879618 257.031094) scale(0.1 -0.1)">
       <use xlink:href="#DejaVuSans-15"/>
       <use xlink:href="#DejaVuSans-11" transform="translate(63.625 0)"/>
       <use xlink:href="#DejaVuSans-13" transform="translate(95.40625 0)"/>
       <use xlink:href="#DejaVuSans-13" transform="translate(159.03125 0)"/>
      </g>
     </g>
    </g>
    <g id="text_16">
     <!-- Time (s) -->
     <g transform="translate(421.030547 271.031875) scale(0.1 -0.1)">
      <defs>
       <path id="DejaVuSans-37" d="M -19 4666 
L 3928 4666 
L 3928 4134 
L 2272 4134 
L 2272 0 
L 1638 0 
L 1638 4134 
L -19 4134 
L -19 4666 
z
" transform="scale(0.015625)"/>
      </defs>
      <use xlink:href="#DejaVuSans-37"/>
      <use xlink:href="#DejaVuSans-4c" transform="translate(58 0)"/>
      <use xlink:href="#DejaVuSans-50" transform="translate(85.78125 0)"/>
      <use xlink:href="#DejaVuSans-48" transform="translate(183.1875 0)"/>
      <use xlink:href="#DejaVuSans-3" transform="translate(244.71875 0)"/>
      <use xlink:href="#DejaVuSans-b" transform="translate(276.5 0)"/>
      <use xlink:href="#DejaVuSans-56" transform="translate(315.515625 0)"/>
      <use xlink:href="#DejaVuSans-c" transform="translate(367.609375 0)"/>
     </g>
    </g>
   </g>
   <g id="matplotlib.axis_4">
    <g id="ytick_4">
     <g id="line2d_44">
      <path d="M 42.942969 238.099453 
L 839.780625 238.099453 
" clip-path="url(#p45e844d6b7)" style="fill: none; stroke: #b0b0b0; stroke-opacity: 0.3; stroke-width: 0.8; stroke-linecap: square"/>
     </g>
     <g id="line2d_45">
      <g>
       <use xlink:href="#m57dbd6362f" x="42.942969" y="238.099453" style="stroke: #000000; stroke-width: 0.8"/>
      </g>
     </g>
     <g id="text_17">
      <!-- −1 -->
      <g transform="translate(21.200781 241.898281) scale(0.1 -0.1)">
       <use xlink:href="#DejaVuSans-c9c"/>
       <use xlink:href="#DejaVuSans-14" transform="translate(83.796875 0)"/>
      </g>
     </g>
    </g>
    <g id="ytick_5">
     <g id="line2d_46">
      <path d="M 42.942969 194.588059 
L 839.780625 194.588059 
" clip-path="url(#p45e844d6b7)" style="fill: none; stroke: #b0b0b0; stroke-opacity: 0.3; stroke-width: 0.8; stroke-linecap: square"/>
     </g>
     <g id="line2d_47">
      <g>
       <use xlink:href="#m57dbd6362f" x="42.942969" y="194.588059" style="stroke: #000000; stroke-width: 0.8"/>
      </g>
     </g>
     <g id="text_18">
      <!-- 0 -->
      <g transform="translate(29.580469 198.386887) scale(0.1 -0.1)">
       <use xlink:href="#DejaVuSans-13"/>
      </g>
     </g>
    </g>
    <g id="ytick_6">
     <g id="line2d_48">
      <path d="M 42.942969 151.076665 
L 839.780625 151.076665 
" clip-path="url(#p45e844d6b7)" style="fill: none; stroke: #b0b0b0; stroke-opacity: 0.3; stroke-width: 0.8; stroke-linecap: square"/>
     </g>
     <g id="line2d_49">
      <g>
       <use xlink:href="#m57dbd6362f" x="42.942969" y="151.076665" style="stroke: #000000; stroke-width: 0.8"/>
      </g>
     </g>
     <g id="text_19">
      <!-- 1 -->
      <g transform="translate(29.580469 154.875493) scale(0.1 -0.1)">
       <use xlink:href="#DejaVuSans-14"/>
      </g>
     </g>
    </g>
    <g id="text_20">
     <!-- Amplitude -->
     <g transform="translate(14.798438 220.382266) rotate(-90) scale(0.1 -0.1)">
      <use xlink:href="#DejaVuSans-24"/>
      <use xlink:href="#DejaVuSans-50" transform="translate(68.40625 0)"/>
      <use xlink:href="#DejaVuSans-53" transform="translate(165.8125 0)"/>
      <use xlink:href="#DejaVuSans-4f" transform="translate(229.296875 0)"/>
      <use xlink:href="#DejaVuSans-4c" transform="translate(257.078125 0)"/>
      <use xlink:href="#DejaVuSans-57" transform="translate(284.859375 0)"/>
      <use xlink:href="#DejaVuSans-58" transform="translate(324.0625 0)"/>
      <use xlink:href="#DejaVuSans-47" transform="translate(387.4375 0)"/>
      <use xlink:href="#DejaVuSans-48" transform="translate(450.921875 0)"/>
     </g>
    </g>
   </g>
   <g id="line2d_50">
    <path d="M 79.162862 238.099453 
L 80.614561 236.732463 
L 82.06626 232.717384 
L 83.51796 226.3065 
L 84.969659 217.90263 
L 86.421358 208.033819 
L 90.776455 176.061809 
L 92.228154 166.852853 
L 93.679854 159.386602 
L 95.131553 154.132188 
L 96.583252 151.419766 
L 98.034951 151.419766 
L 99.48665 154.132188 
L 100.938349 159.386602 
L 102.390048 166.852853 
L 103.841748 176.061809 
L 106.745146 197.320162 
L 108.196845 208.033819 
L 109.648544 217.90263 
L 111.100243 226.3065 
L 112.551942 232.717384 
L 114.003642 236.732463 
L 115.455341 238.099453 
L 116.90704 236.732463 
L 118.358739 232.717384 
L 119.810438 226.3065 
L 121.262137 217.90263 
L 122.713836 208.033819 
L 127.068934 176.061809 
L 128.520633 166.852853 
L 129.972332 159.386602 
L 131.424031 154.132188 
L 132.87573 151.419766 
L 134.327429 151.419766 
L 135.779129 154.132188 
L 137.230828 159.386602 
L 138.682527 166.852853 
L 140.134226 176.061809 
L 143.037624 197.320162 
L 144.489323 208.033819 
L 145.941023 217.90263 
L 147.392722 226.3065 
L 148.844421 232.717384 
L 150.29612 236.732463 
L 151.747819 238.099453 
L 153.199518 236.732463 
L 154.651217 232.717384 
L 156.102916 226.3065 
L 157.554616 217.90263 
L 159.006315 208.033819 
L 163.361412 176.061809 
L 164.813111 166.852853 
L 166.26481 159.386602 
L 167.71651 154.132188 
L 169.168209 151.419766 
L 170.619908 151.419766 
L 172.071607 154.132188 
L 173.523306 159.386602 
L 174.975005 166.852853 
L 176.426704 176.061809 
L 179.330103 197.320162 
L 180.781802 208.033819 
L 182.233501 217.90263 
L 183.6852 226.3065 
L 185.136899 232.717384 
L 186.588598 236.732463 
L 188.040297 238.099453 
L 189.491997 236.732463 
L 190.943696 232.717384 
L 192.395395 226.3065 
L 193.847094 217.90263 
L 195.298793 208.033819 
L 199.653891 176.061809 
L 201.10559 166.852853 
L 202.557289 159.386602 
L 204.008988 154.132188 
L 205.460687 151.419766 
L 206.912386 151.419766 
L 208.364085 154.132188 
L 209.815785 159.386602 
L 211.267484 166.852853 
L 212.719183 176.061809 
L 215.622581 197.320162 
L 217.07428 208.033819 
L 218.525979 217.90263 
L 219.977678 226.3065 
L 221.429378 232.717384 
L 222.881077 236.732463 
L 224.332776 238.099453 
L 225.784475 236.732463 
L 227.236174 232.717384 
L 228.687873 226.3065 
L 230.139572 217.90263 
L 231.591272 208.033819 
L 235.946369 176.061809 
L 237.398068 166.852853 
L 238.849767 159.386602 
L 240.301466 154.132188 
L 241.753166 151.419766 
L 243.204865 151.419766 
L 244.656564 154.132188 
L 246.108263 159.386602 
L 247.559962 166.852853 
L 249.011661 176.061809 
L 251.91506 197.320162 
L 253.366759 208.033819 
L 254.818458 217.90263 
L 256.270157 226.3065 
L 257.721856 232.717384 
L 259.173555 236.732463 
L 260.625254 238.099453 
L 262.076953 236.732463 
L 263.528653 232.717384 
L 264.980352 226.3065 
L 266.432051 217.90263 
L 267.88375 208.033819 
L 272.238847 176.061809 
L 273.690547 166.852853 
L 275.142246 159.386602 
L 276.593945 154.132188 
L 278.045644 151.419766 
L 279.497343 151.419766 
L 280.949042 154.132188 
L 282.400741 159.386602 
L 283.852441 166.852853 
L 285.30414 176.061809 
L 288.207538 197.320162 
L 289.659237 208.033819 
L 291.110936 217.90263 
L 292.562635 226.3065 
L 294.014334 232.717384 
L 295.466034 236.732463 
L 296.917733 238.099453 
L 298.369432 236.732463 
L 299.821131 232.717384 
L 301.27283 226.3065 
L 302.724529 217.90263 
L 304.176228 208.033819 
L 308.531326 176.061809 
L 309.983025 166.852853 
L 311.434724 159.386602 
L 312.886423 154.132188 
L 314.338122 151.419766 
L 315.789822 151.419766 
L 317.241521 154.132188 
L 318.69322 159.386602 
L 320.144919 166.852853 
L 321.596618 176.061809 
L 324.500016 197.320162 
L 325.951715 208.033819 
L 327.403415 217.90263 
L 328.855114 226.3065 
L 330.306813 232.717384 
L 331.758512 236.732463 
L 333.210211 238.099453 
L 334.66191 236.732463 
L 336.113609 232.717384 
L 337.565309 226.3065 
L 339.017008 217.90263 
L 340.468707 208.033819 
L 344.823804 176.061809 
L 346.275503 166.852853 
L 347.727203 159.386602 
L 349.178902 154.132188 
L 350.630601 151.419766 
L 352.0823 151.419766 
L 353.533999 154.132188 
L 354.985698 159.386602 
L 356.437397 166.852853 
L 357.889097 176.061809 
L 360.792495 197.320162 
L 362.244194 208.033819 
L 363.695893 217.90263 
L 365.147592 226.3065 
L 366.599291 232.717384 
L 368.05099 236.732463 
L 369.50269 238.099453 
L 370.954389 236.732463 
L 372.406088 232.717384 
L 373.857787 226.3065 
L 375.309486 217.90263 
L 376.761185 208.033819 
L 381.116283 176.061809 
L 382.567982 166.852853 
L 384.019681 159.386602 
L 385.47138 154.132188 
L 386.923079 151.419766 
L 388.374778 151.419766 
L 389.826478 154.132188 
L 391.278177 159.386602 
L 392.729876 166.852853 
L 394.181575 176.061809 
L 397.084973 197.320162 
L 398.536672 208.033819 
L 399.988371 217.90263 
L 401.440071 226.3065 
L 402.89177 232.717384 
L 404.343469 236.732463 
L 405.795168 238.099453 
L 407.246867 236.732463 
L 408.698566 232.717384 
L 410.150265 226.3065 
L 411.601965 217.90263 
L 413.053664 208.033819 
L 417.408761 176.061809 
L 418.86046 166.852853 
L 420.312159 159.386602 
L 421.763859 154.132188 
L 423.215558 151.419766 
L 424.667257 151.419766 
L 426.118956 154.132188 
L 427.570655 159.386602 
L 429.022354 166.852853 
L 430.474053 176.061809 
L 433.377452 197.320162 
L 434.829151 208.033819 
L 436.28085 217.90263 
L 437.732549 226.3065 
L 439.184248 232.717384 
L 440.635947 236.732463 
L 442.087646 238.099453 
L 443.539346 236.732463 
L 444.991045 232.717384 
L 446.442744 226.3065 
L 447.894443 217.90263 
L 449.346142 208.033819 
L 453.70124 176.061809 
L 455.152939 166.852853 
L 456.604638 159.386602 
L 458.056337 154.132188 
L 459.508036 151.419766 
L 460.959735 151.419766 
L 462.411434 154.132188 
L 463.863133 159.386602 
L 465.314833 166.852853 
L 466.766532 176.061809 
L 469.66993 197.320162 
L 471.121629 208.033819 
L 472.573328 217.90263 
L 474.025027 226.3065 
L 475.476727 232.717384 
L 476.928426 236.732463 
L 478.380125 238.099453 
L 479.831824 236.732463 
L 481.283523 232.717384 
L 482.735222 226.3065 
L 484.186921 217.90263 
L 485.638621 208.033819 
L 489.993718 176.061809 
L 491.445417 166.852853 
L 492.897116 159.386602 
L 494.348815 154.132188 
L 495.800515 151.419766 
L 497.252214 151.419766 
L 498.703913 154.132188 
L 500.155612 159.386602 
L 501.607311 166.852853 
L 503.05901 176.061809 
L 505.962408 197.320162 
L 507.414108 208.033819 
L 508.865807 217.90263 
L 510.317506 226.3065 
L 511.769205 232.717384 
L 513.220904 236.732463 
L 514.672603 238.099453 
L 516.124302 236.732463 
L 517.576002 232.717384 
L 519.027701 226.3065 
L 520.4794 217.90263 
L 521.931099 208.033819 
L 526.286196 176.061809 
L 527.737896 166.852853 
L 529.189595 159.386602 
L 530.641294 154.132188 
L 532.092993 151.419766 
L 533.544692 151.419766 
L 534.996391 154.132188 
L 536.44809 159.386602 
L 537.899789 166.852853 
L 539.351489 176.061809 
L 542.254887 197.320162 
L 543.706586 208.033819 
L 545.158285 217.90263 
L 546.609984 226.3065 
L 548.061683 232.717384 
L 549.513383 236.732463 
L 550.965082 238.099453 
L 552.416781 236.732463 
L 553.86848 232.717384 
L 555.320179 226.3065 
L 556.771878 217.90263 
L 558.223577 208.033819 
L 562.578675 176.061809 
L 564.030374 166.852853 
L 565.482073 159.386602 
L 566.933772 154.132188 
L 568.385471 151.419766 
L 569.83717 151.419766 
L 571.28887 154.132188 
L 572.740569 159.386602 
L 574.192268 166.852853 
L 575.643967 176.061809 
L 578.547365 197.320162 
L 579.999064 208.033819 
L 581.450764 217.90263 
L 582.902463 226.3065 
L 584.354162 232.717384 
L 585.805861 236.732463 
L 587.25756 238.099453 
L 588.709259 236.732463 
L 590.160958 232.717384 
L 591.612658 226.3065 
L 593.064357 217.90263 
L 594.516056 208.033819 
L 598.871153 176.061809 
L 600.322852 166.852853 
L 601.774552 159.386602 
L 603.226251 154.132188 
L 604.67795 151.419766 
L 606.129649 151.419766 
L 607.581348 154.132188 
L 609.033047 159.386602 
L 610.484746 166.852853 
L 611.936445 176.061809 
L 614.839844 197.320162 
L 616.291543 208.033819 
L 617.743242 217.90263 
L 619.194941 226.3065 
L 620.64664 232.717384 
L 622.098339 236.732463 
L 623.550039 238.099453 
L 625.001738 236.732463 
L 626.453437 232.717384 
L 627.905136 226.3065 
L 629.356835 217.90263 
L 630.808534 208.033819 
L 635.163632 176.061809 
L 636.615331 166.852853 
L 638.06703 159.386602 
L 639.518729 154.132188 
L 640.970428 151.419766 
L 642.422127 151.419766 
L 643.873826 154.132188 
L 645.325526 159.386602 
L 646.777225 166.852853 
L 648.228924 176.061809 
L 651.132322 197.320162 
L 652.584021 208.033819 
L 654.03572 217.90263 
L 655.48742 226.3065 
L 656.939119 232.717384 
L 658.390818 236.732463 
L 659.842517 238.099453 
L 661.294216 236.732463 
L 662.745915 232.717384 
L 664.197614 226.3065 
L 665.649314 217.90263 
L 667.101013 208.033819 
L 671.45611 176.061809 
L 672.907809 166.852853 
L 674.359508 159.386602 
L 675.811207 154.132188 
L 677.262907 151.419766 
L 678.714606 151.419766 
L 680.166305 154.132188 
L 681.618004 159.386602 
L 683.069703 166.852853 
L 684.521402 176.061809 
L 687.424801 197.320162 
L 688.8765 208.033819 
L 690.328199 217.90263 
L 691.779898 226.3065 
L 693.231597 232.717384 
L 694.683296 236.732463 
L 696.134995 238.099453 
L 697.586695 236.732463 
L 699.038394 232.717384 
L 700.490093 226.3065 
L 701.941792 217.90263 
L 703.393491 208.033819 
L 707.748588 176.061809 
L 709.200288 166.852853 
L 710.651987 159.386602 
L 712.103686 154.132188 
L 713.555385 151.419766 
L 715.007084 151.419766 
L 716.458783 154.132188 
L 717.910482 159.386602 
L 719.362182 166.852853 
L 720.813881 176.061809 
L 723.717279 197.320162 
L 725.168978 208.033819 
L 726.620677 217.90263 
L 728.072376 226.3065 
L 729.524076 232.717384 
L 730.975775 236.732463 
L 732.427474 238.099453 
L 733.879173 236.732463 
L 735.330872 232.717384 
L 736.782571 226.3065 
L 738.23427 217.90263 
L 739.68597 208.033819 
L 744.041067 176.061809 
L 745.492766 166.852853 
L 746.944465 159.386602 
L 748.396164 154.132188 
L 749.847863 151.419766 
L 751.299563 151.419766 
L 752.751262 154.132188 
L 754.202961 159.386602 
L 755.65466 166.852853 
L 757.106359 176.061809 
L 760.009757 197.320162 
L 761.461457 208.033819 
L 762.913156 217.90263 
L 764.364855 226.3065 
L 765.816554 232.717384 
L 767.268253 236.732463 
L 768.719952 238.099453 
L 770.171651 236.732463 
L 771.623351 232.717384 
L 773.07505 226.3065 
L 774.526749 217.90263 
L 775.978448 208.033819 
L 780.333545 176.061809 
L 781.785244 166.852853 
L 783.236944 159.386602 
L 784.688643 154.132188 
L 786.140342 151.419766 
L 787.592041 151.419766 
L 789.04374 154.132188 
L 790.495439 159.386602 
L 791.947138 166.852853 
L 793.398838 176.061809 
L 796.302236 197.320162 
L 797.753935 208.033819 
L 799.205634 217.90263 
L 800.657333 226.3065 
L 802.109032 232.717384 
L 803.560732 236.732463 
L 803.560732 236.732463 
" clip-path="url(#p45e844d6b7)" style="fill: none; stroke: #ff7f0e; stroke-width: 0.8; stroke-linecap: square"/>
   </g>
   <g id="patch_8">
    <path d="M 42.942969 242.433437 
L 42.942969 147.085781 
" style="fill: none; stroke: #000000; stroke-width: 0.8; stroke-linejoin: miter; stroke-linecap: square"/>
   </g>
   <g id="patch_9">
    <path d="M 839.780625 242.433437 
L 839.780625 147.085781 
" style="fill: none; stroke: #000000; stroke-width: 0.8; stroke-linejoin: miter; stroke-linecap: square"/>
   </g>
   <g id="patch_10">
    <path d="M 42.942969 242.433437 
L 839.780625 242.433437 
" style="fill: none; stroke: #000000; stroke-width: 0.8; stroke-linejoin: miter; stroke-linecap: square"/>
   </g>
   <g id="patch_11">
    <path d="M 42.942969 147.085781 
L 839.780625 147.085781 
" style="fill: none; stroke: #000000; stroke-width: 0.8; stroke-linejoin: miter; stroke-linecap: square"/>
   </g>
   <g id="text_21">
    <!-- φ = π (starts at trough) -->
    <g transform="translate(371.647422 141.085781) scale(0.12 -0.12)">
     <defs>
      <path id="DejaVuSans-354" d="M 231 3500 
L 3584 3500 
L 3584 2925 
L 3144 2925 
L 3144 775 
Q 3144 550 3220 451 
Q 3297 353 3469 353 
Q 3516 353 3584 361 
Q 3653 369 3675 372 
L 3675 -44 
Q 3566 -84 3450 -103 
Q 3334 -122 3219 -122 
Q 2844 -122 2700 83 
Q 2556 288 2556 838 
L 2556 2925 
L 1266 2925 
L 1266 0 
L 678 0 
L 678 2925 
L 231 2925 
L 231 3500 
z
" transform="scale(0.015625)"/>
      <path id="DejaVuSans-52" d="M 1959 3097 
Q 1497 3097 1228 2736 
Q 959 2375 959 1747 
Q 959 1119 1226 758 
Q 1494 397 1959 397 
Q 2419 397 2687 759 
Q 2956 1122 2956 1747 
Q 2956 2369 2687 2733 
Q 2419 3097 1959 3097 
z
M 1959 3584 
Q 2709 3584 3137 3096 
Q 3566 2609 3566 1747 
Q 3566 888 3137 398 
Q 2709 -91 1959 -91 
Q 1206 -91 779 398 
Q 353 888 353 1747 
Q 353 2609 779 3096 
Q 1206 3584 1959 3584 
z
" transform="scale(0.015625)"/>
      <path id="DejaVuSans-4a" d="M 2906 1791 
Q 2906 2416 2648 2759 
Q 2391 3103 1925 3103 
Q 1463 3103 1205 2759 
Q 947 2416 947 1791 
Q 947 1169 1205 825 
Q 1463 481 1925 481 
Q 2391 481 2648 825 
Q 2906 1169 2906 1791 
z
M 3481 434 
Q 3481 -459 3084 -895 
Q 2688 -1331 1869 -1331 
Q 1566 -1331 1297 -1286 
Q 1028 -1241 775 -1147 
L 775 -588 
Q 1028 -725 1275 -790 
Q 1522 -856 1778 -856 
Q 2344 -856 2625 -561 
Q 2906 -266 2906 331 
L 2906 616 
Q 2728 306 2450 153 
Q 2172 0 1784 0 
Q 1141 0 747 490 
Q 353 981 353 1791 
Q 353 2603 747 3093 
Q 1141 3584 1784 3584 
Q 2172 3584 2450 3431 
Q 2728 3278 2906 2969 
L 2906 3500 
L 3481 3500 
L 3481 434 
z
" transform="scale(0.015625)"/>
      <path id="DejaVuSans-4b" d="M 3513 2113 
L 3513 0 
L 2938 0 
L 2938 2094 
Q 2938 2591 2744 2837 
Q 2550 3084 2163 3084 
Q 1697 3084 1428 2787 
Q 1159 2491 1159 1978 
L 1159 0 
L 581 0 
L 581 4863 
L 1159 4863 
L 1159 2956 
Q 1366 3272 1645 3428 
Q 1925 3584 2291 3584 
Q 2894 3584 3203 3211 
Q 3513 2838 3513 2113 
z
" transform="scale(0.015625)"/>
     </defs>
     <use xlink:href="#DejaVuSans-35a"/>
     <use xlink:href="#DejaVuSans-3" transform="translate(65.96875 0)"/>
     <use xlink:href="#DejaVuSans-20" transform="translate(97.75 0)"/>
     <use xlink:href="#DejaVuSans-3" transform="translate(181.546875 0)"/>
     <use xlink:href="#DejaVuSans-354" transform="translate(213.328125 0)"/>
     <use xlink:href="#DejaVuSans-3" transform="translate(273.53125 0)"/>
     <use xlink:href="#DejaVuSans-b" transform="translate(305.3125 0)"/>
     <use xlink:href="#DejaVuSans-56" transform="translate(344.328125 0)"/>
     <use xlink:href="#DejaVuSans-57" transform="translate(396.421875 0)"/>
     <use xlink:href="#DejaVuSans-44" transform="translate(435.625 0)"/>
     <use xlink:href="#DejaVuSans-55" transform="translate(496.90625 0)"/>
     <use xlink:href="#DejaVuSans-57" transform="translate(538.015625 0)"/>
     <use xlink:href="#DejaVuSans-56" transform="translate(577.21875 0)"/>
     <use xlink:href="#DejaVuSans-3" transform="translate(629.3125 0)"/>
     <use xlink:href="#DejaVuSans-44" transform="translate(661.09375 0)"/>
     <use xlink:href="#DejaVuSans-57" transform="translate(722.375 0)"/>
     <use xlink:href="#DejaVuSans-3" transform="translate(761.578125 0)"/>
     <use xlink:href="#DejaVuSans-57" transform="translate(793.359375 0)"/>
     <use xlink:href="#DejaVuSans-55" transform="translate(832.5625 0)"/>
     <use xlink:href="#DejaVuSans-52" transform="translate(871.46875 0)"/>
     <use xlink:href="#DejaVuSans-58" transform="translate(932.65625 0)"/>
     <use xlink:href="#DejaVuSans-4a" transform="translate(996.03125 0)"/>
     <use xlink:href="#DejaVuSans-4b" transform="translate(1059.515625 0)"/>
     <use xlink:href="#DejaVuSans-c" transform="translate(1122.890625 0)"/>
    </g>
   </g>
  </g>
 </g>
 <defs>
  <clipPath id="pcb0648a29f">
   <rect x="42.942969" y="22.318125" width="796.837656" height="95.347656"/>
  </clipPath>
  <clipPath id="p45e844d6b7">
   <rect x="42.942969" y="147.085781" width="796.837656" height="95.347656"/>
  </clipPath>
 </defs>
</svg>
