<?xml version="1.0" encoding="utf-8" standalone="no"?>
<!DOCTYPE svg PUBLIC "-//W3C//DTD SVG 1.1//EN"
  "http://www.w3.org/Graphics/SVG/1.1/DTD/svg11.dtd">
<svg xmlns:xlink="http://www.w3.org/1999/xlink" width="856.189687pt" height="424.633438pt" viewBox="0 0 856.189687 424.633438" xmlns="http://www.w3.org/2000/svg" version="1.1">
 <metadata>
  <rdf:RDF xmlns:dc="http://purl.org/dc/elements/1.1/" xmlns:cc="http://creativecommons.org/ns#" xmlns:rdf="http://www.w3.org/1999/02/22-rdf-syntax-ns#">
   <cc:Work>
    <dc:type rdf:resource="http://purl.org/dc/dcmitype/StillImage"/>
    <dc:date>2026-06-21T18:44:39.593948</dc:date>
    <dc:format>image/svg+xml</dc:format>
    <dc:creator>
     <cc:Agent>
      <dc:title>Matplotlib v3.11.0, https://matplotlib.org/</dc:title>
     </cc:Agent>
    </dc:creator>
   </cc:Work>
  </rdf:RDF>
 </metadata>
 <defs>
  <style type="text/css">*{stroke-linejoin: round; stroke-linecap: butt}</style>
 </defs>
 <g id="figure_1">
  <g id="patch_1">
   <path d="M 0 424.633438 
L 856.189687 424.633438 
L 856.189687 0 
L 0 0 
z
" style="fill: #ffffff"/>
  </g>
  <g id="axes_1">
   <g id="patch_2">
    <path d="M 62.229688 175.833438 
L 848.989687 175.833438 
L 848.989687 22.318125 
L 62.229688 22.318125 
z
" style="fill: #ffffff"/>
   </g>
   <g id="matplotlib.axis_1">
    <g id="xtick_1">
     <g id="line2d_1">
      <path d="M 97.991506 175.833438 
L 97.991506 22.318125 
" clip-path="url(#p3c72763914)" style="fill: none; stroke: #b0b0b0; stroke-opacity: 0.3; stroke-width: 0.8; stroke-linecap: square"/>
     </g>
     <g id="line2d_2">
      <defs>
       <path id="m3fe6ef0728" d="M 0 0 
L 0 3.5 
" style="stroke: #000000; stroke-width: 0.8"/>
      </defs>
      <g>
       <use xlink:href="#m3fe6ef0728" x="97.991506" y="175.833438" style="stroke: #000000; stroke-width: 0.8"/>
      </g>
     </g>
     <g id="text_1">
      <!-- 0.00 -->
      <g transform="translate(86.858693 190.431094) scale(0.1 -0.1)">
       <defs>
        <path id="DejaVuSans-13" d="M 2034 4250 
Q 1547 4250 1301 3770 
Q 1056 3291 1056 2328 
Q 1056 1369 1301 889 
Q 1547 409 2034 409 
Q 2525 409 2770 889 
Q 3016 1369 3016 2328 
Q 3016 3291 2770 3770 
Q 2525 4250 2034 4250 
z
M 2034 4750 
Q 2819 4750 3233 4129 
Q 3647 3509 3647 2328 
Q 3647 1150 3233 529 
Q 2819 -91 2034 -91 
Q 1250 -91 836 529 
Q 422 1150 422 2328 
Q 422 3509 836 4129 
Q 1250 4750 2034 4750 
z
" transform="scale(0.015625)"/>
        <path id="DejaVuSans-11" d="M 684 794 
L 1344 794 
L 1344 0 
L 684 0 
L 684 794 
z
" transform="scale(0.015625)"/>
       </defs>
       <use xlink:href="#DejaVuSans-13"/>
       <use xlink:href="#DejaVuSans-11" transform="translate(63.625 0)"/>
       <use xlink:href="#DejaVuSans-13" transform="translate(95.40625 0)"/>
       <use xlink:href="#DejaVuSans-13" transform="translate(159.03125 0)"/>
      </g>
     </g>
    </g>
    <g id="xtick_2">
     <g id="line2d_3">
      <path d="M 187.396051 175.833438 
L 187.396051 22.318125 
" clip-path="url(#p3c72763914)" style="fill: none; stroke: #b0b0b0; stroke-opacity: 0.3; stroke-width: 0.8; stroke-linecap: square"/>
     </g>
     <g id="line2d_4">
      <g>
       <use xlink:href="#m3fe6ef0728" x="187.396051" y="175.833438" style="stroke: #000000; stroke-width: 0.8"/>
      </g>
     </g>
     <g id="text_2">
      <!-- 0.25 -->
      <g transform="translate(176.263239 190.431094) scale(0.1 -0.1)">
       <defs>
        <path id="DejaVuSans-15" d="M 1228 531 
L 3431 531 
L 3431 0 
L 469 0 
L 469 531 
Q 828 903 1448 1529 
Q 2069 2156 2228 2338 
Q 2531 2678 2651 2914 
Q 2772 3150 2772 3378 
Q 2772 3750 2511 3984 
Q 2250 4219 1831 4219 
Q 1534 4219 1204 4116 
Q 875 4013 500 3803 
L 500 4441 
Q 881 4594 1212 4672 
Q 1544 4750 1819 4750 
Q 2544 4750 2975 4387 
Q 3406 4025 3406 3419 
Q 3406 3131 3298 2873 
Q 3191 2616 2906 2266 
Q 2828 2175 2409 1742 
Q 1991 1309 1228 531 
z
" transform="scale(0.015625)"/>
        <path id="DejaVuSans-18" d="M 691 4666 
L 3169 4666 
L 3169 4134 
L 1269 4134 
L 1269 2991 
Q 1406 3038 1543 3061 
Q 1681 3084 1819 3084 
Q 2600 3084 3056 2656 
Q 3513 2228 3513 1497 
Q 3513 744 3044 326 
Q 2575 -91 1722 -91 
Q 1428 -91 1123 -41 
Q 819 9 494 109 
L 494 744 
Q 775 591 1075 516 
Q 1375 441 1709 441 
Q 2250 441 2565 725 
Q 2881 1009 2881 1497 
Q 2881 1984 2565 2268 
Q 2250 2553 1709 2553 
Q 1456 2553 1204 2497 
Q 953 2441 691 2322 
L 691 4666 
z
" transform="scale(0.015625)"/>
       </defs>
       <use xlink:href="#DejaVuSans-13"/>
       <use xlink:href="#DejaVuSans-11" transform="translate(63.625 0)"/>
       <use xlink:href="#DejaVuSans-15" transform="translate(95.40625 0)"/>
       <use xlink:href="#DejaVuSans-18" transform="translate(159.03125 0)"/>
      </g>
     </g>
    </g>
    <g id="xtick_3">
     <g id="line2d_5">
      <path d="M 276.800597 175.833438 
L 276.800597 22.318125 
" clip-path="url(#p3c72763914)" style="fill: none; stroke: #b0b0b0; stroke-opacity: 0.3; stroke-width: 0.8; stroke-linecap: square"/>
     </g>
     <g id="line2d_6">
      <g>
       <use xlink:href="#m3fe6ef0728" x="276.800597" y="175.833438" style="stroke: #000000; stroke-width: 0.8"/>
      </g>
     </g>
     <g id="text_3">
      <!-- 0.50 -->
      <g transform="translate(265.667784 190.431094) scale(0.1 -0.1)">
       <use xlink:href="#DejaVuSans-13"/>
       <use xlink:href="#DejaVuSans-11" transform="translate(63.625 0)"/>
       <use xlink:href="#DejaVuSans-18" transform="translate(95.40625 0)"/>
       <use xlink:href="#DejaVuSans-13" transform="translate(159.03125 0)"/>
      </g>
     </g>
    </g>
    <g id="xtick_4">
     <g id="line2d_7">
      <path d="M 366.205142 175.833438 
L 366.205142 22.318125 
" clip-path="url(#p3c72763914)" style="fill: none; stroke: #b0b0b0; stroke-opacity: 0.3; stroke-width: 0.8; stroke-linecap: square"/>
     </g>
     <g id="line2d_8">
      <g>
       <use xlink:href="#m3fe6ef0728" x="366.205142" y="175.833438" style="stroke: #000000; stroke-width: 0.8"/>
      </g>
     </g>
     <g id="text_4">
      <!-- 0.75 -->
      <g transform="translate(355.07233 190.431094) scale(0.1 -0.1)">
       <defs>
        <path id="DejaVuSans-1a" d="M 525 4666 
L 3525 4666 
L 3525 4397 
L 1831 0 
L 1172 0 
L 2766 4134 
L 525 4134 
L 525 4666 
z
" transform="scale(0.015625)"/>
       </defs>
       <use xlink:href="#DejaVuSans-13"/>
       <use xlink:href="#DejaVuSans-11" transform="translate(63.625 0)"/>
       <use xlink:href="#DejaVuSans-1a" transform="translate(95.40625 0)"/>
       <use xlink:href="#DejaVuSans-18" transform="translate(159.03125 0)"/>
      </g>
     </g>
    </g>
    <g id="xtick_5">
     <g id="line2d_9">
      <path d="M 455.609688 175.833438 
L 455.609688 22.318125 
" clip-path="url(#p3c72763914)" style="fill: none; stroke: #b0b0b0; stroke-opacity: 0.3; stroke-width: 0.8; stroke-linecap: square"/>
     </g>
     <g id="line2d_10">
      <g>
       <use xlink:href="#m3fe6ef0728" x="455.609688" y="175.833438" style="stroke: #000000; stroke-width: 0.8"/>
      </g>
     </g>
     <g id="text_5">
      <!-- 1.00 -->
      <g transform="translate(444.476875 190.431094) scale(0.1 -0.1)">
       <defs>
        <path id="DejaVuSans-14" d="M 794 531 
L 1825 531 
L 1825 4091 
L 703 3866 
L 703 4441 
L 1819 4666 
L 2450 4666 
L 2450 531 
L 3481 531 
L 3481 0 
L 794 0 
L 794 531 
z
" transform="scale(0.015625)"/>
       </defs>
       <use xlink:href="#DejaVuSans-14"/>
       <use xlink:href="#DejaVuSans-11" transform="translate(63.625 0)"/>
       <use xlink:href="#DejaVuSans-13" transform="translate(95.40625 0)"/>
       <use xlink:href="#DejaVuSans-13" transform="translate(159.03125 0)"/>
      </g>
     </g>
    </g>
    <g id="xtick_6">
     <g id="line2d_11">
      <path d="M 545.014233 175.833438 
L 545.014233 22.318125 
" clip-path="url(#p3c72763914)" style="fill: none; stroke: #b0b0b0; stroke-opacity: 0.3; stroke-width: 0.8; stroke-linecap: square"/>
     </g>
     <g id="line2d_12">
      <g>
       <use xlink:href="#m3fe6ef0728" x="545.014233" y="175.833438" style="stroke: #000000; stroke-width: 0.8"/>
      </g>
     </g>
     <g id="text_6">
      <!-- 1.25 -->
      <g transform="translate(533.88142 190.431094) scale(0.1 -0.1)">
       <use xlink:href="#DejaVuSans-14"/>
       <use xlink:href="#DejaVuSans-11" transform="translate(63.625 0)"/>
       <use xlink:href="#DejaVuSans-15" transform="translate(95.40625 0)"/>
       <use xlink:href="#DejaVuSans-18" transform="translate(159.03125 0)"/>
      </g>
     </g>
    </g>
    <g id="xtick_7">
     <g id="line2d_13">
      <path d="M 634.418778 175.833438 
L 634.418778 22.318125 
" clip-path="url(#p3c72763914)" style="fill: none; stroke: #b0b0b0; stroke-opacity: 0.3; stroke-width: 0.8; stroke-linecap: square"/>
     </g>
     <g id="line2d_14">
      <g>
       <use xlink:href="#m3fe6ef0728" x="634.418778" y="175.833438" style="stroke: #000000; stroke-width: 0.8"/>
      </g>
     </g>
     <g id="text_7">
      <!-- 1.50 -->
      <g transform="translate(623.285966 190.431094) scale(0.1 -0.1)">
       <use xlink:href="#DejaVuSans-14"/>
       <use xlink:href="#DejaVuSans-11" transform="translate(63.625 0)"/>
       <use xlink:href="#DejaVuSans-18" transform="translate(95.40625 0)"/>
       <use xlink:href="#DejaVuSans-13" transform="translate(159.03125 0)"/>
      </g>
     </g>
    </g>
    <g id="xtick_8">
     <g id="line2d_15">
      <path d="M 723.823324 175.833438 
L 723.823324 22.318125 
" clip-path="url(#p3c72763914)" style="fill: none; stroke: #b0b0b0; stroke-opacity: 0.3; stroke-width: 0.8; stroke-linecap: square"/>
     </g>
     <g id="line2d_16">
      <g>
       <use xlink:href="#m3fe6ef0728" x="723.823324" y="175.833438" style="stroke: #000000; stroke-width: 0.8"/>
      </g>
     </g>
     <g id="text_8">
      <!-- 1.75 -->
      <g transform="translate(712.690511 190.431094) scale(0.1 -0.1)">
       <use xlink:href="#DejaVuSans-14"/>
       <use xlink:href="#DejaVuSans-11" transform="translate(63.625 0)"/>
       <use xlink:href="#DejaVuSans-1a" transform="translate(95.40625 0)"/>
       <use xlink:href="#DejaVuSans-18" transform="translate(159.03125 0)"/>
      </g>
     </g>
    </g>
    <g id="xtick_9">
     <g id="line2d_17">
      <path d="M 813.227869 175.833438 
L 813.227869 22.318125 
" clip-path="url(#p3c72763914)" style="fill: none; stroke: #b0b0b0; stroke-opacity: 0.3; stroke-width: 0.8; stroke-linecap: square"/>
     </g>
     <g id="line2d_18">
      <g>
       <use xlink:href="#m3fe6ef0728" x="813.227869" y="175.833438" style="stroke: #000000; stroke-width: 0.8"/>
      </g>
     </g>
     <g id="text_9">
      <!-- 2.00 -->
      <g transform="translate(802.095057 190.431094) scale(0.1 -0.1)">
       <use xlink:href="#DejaVuSans-15"/>
       <use xlink:href="#DejaVuSans-11" transform="translate(63.625 0)"/>
       <use xlink:href="#DejaVuSans-13" transform="translate(95.40625 0)"/>
       <use xlink:href="#DejaVuSans-13" transform="translate(159.03125 0)"/>
      </g>
     </g>
    </g>
    <g id="text_10">
     <!-- Time (s) -->
     <g transform="translate(435.278437 204.431875) scale(0.1 -0.1)">
      <defs>
       <path id="DejaVuSans-37" d="M -19 4666 
L 3928 4666 
L 3928 4134 
L 2272 4134 
L 2272 0 
L 1638 0 
L 1638 4134 
L -19 4134 
L -19 4666 
z
" transform="scale(0.015625)"/>
       <path id="DejaVuSans-4c" d="M 603 3500 
L 1178 3500 
L 1178 0 
L 603 0 
L 603 3500 
z
M 603 4863 
L 1178 4863 
L 1178 4134 
L 603 4134 
L 603 4863 
z
" transform="scale(0.015625)"/>
       <path id="DejaVuSans-50" d="M 3328 2828 
Q 3544 3216 3844 3400 
Q 4144 3584 4550 3584 
Q 5097 3584 5394 3201 
Q 5691 2819 5691 2113 
L 5691 0 
L 5113 0 
L 5113 2094 
Q 5113 2597 4934 2840 
Q 4756 3084 4391 3084 
Q 3944 3084 3684 2787 
Q 3425 2491 3425 1978 
L 3425 0 
L 2847 0 
L 2847 2094 
Q 2847 2600 2669 2842 
Q 2491 3084 2119 3084 
Q 1678 3084 1418 2786 
Q 1159 2488 1159 1978 
L 1159 0 
L 581 0 
L 581 3500 
L 1159 3500 
L 1159 2956 
Q 1356 3278 1631 3431 
Q 1906 3584 2284 3584 
Q 2666 3584 2933 3390 
Q 3200 3197 3328 2828 
z
" transform="scale(0.015625)"/>
       <path id="DejaVuSans-48" d="M 3597 1894 
L 3597 1613 
L 953 1613 
Q 991 1019 1311 708 
Q 1631 397 2203 397 
Q 2534 397 2845 478 
Q 3156 559 3463 722 
L 3463 178 
Q 3153 47 2828 -22 
Q 2503 -91 2169 -91 
Q 1331 -91 842 396 
Q 353 884 353 1716 
Q 353 2575 817 3079 
Q 1281 3584 2069 3584 
Q 2775 3584 3186 3129 
Q 3597 2675 3597 1894 
z
M 3022 2063 
Q 3016 2534 2758 2815 
Q 2500 3097 2075 3097 
Q 1594 3097 1305 2825 
Q 1016 2553 972 2059 
L 3022 2063 
z
" transform="scale(0.015625)"/>
       <path id="DejaVuSans-3" transform="scale(0.015625)"/>
       <path id="DejaVuSans-b" d="M 1984 4856 
Q 1566 4138 1362 3434 
Q 1159 2731 1159 2009 
Q 1159 1288 1364 580 
Q 1569 -128 1984 -844 
L 1484 -844 
Q 1016 -109 783 600 
Q 550 1309 550 2009 
Q 550 2706 781 3412 
Q 1013 4119 1484 4856 
L 1984 4856 
z
" transform="scale(0.015625)"/>
       <path id="DejaVuSans-56" d="M 2834 3397 
L 2834 2853 
Q 2591 2978 2328 3040 
Q 2066 3103 1784 3103 
Q 1356 3103 1142 2972 
Q 928 2841 928 2578 
Q 928 2378 1081 2264 
Q 1234 2150 1697 2047 
L 1894 2003 
Q 2506 1872 2764 1633 
Q 3022 1394 3022 966 
Q 3022 478 2636 193 
Q 2250 -91 1575 -91 
Q 1294 -91 989 -36 
Q 684 19 347 128 
L 347 722 
Q 666 556 975 473 
Q 1284 391 1588 391 
Q 1994 391 2212 530 
Q 2431 669 2431 922 
Q 2431 1156 2273 1281 
Q 2116 1406 1581 1522 
L 1381 1569 
Q 847 1681 609 1914 
Q 372 2147 372 2553 
Q 372 3047 722 3315 
Q 1072 3584 1716 3584 
Q 2034 3584 2315 3537 
Q 2597 3491 2834 3397 
z
" transform="scale(0.015625)"/>
       <path id="DejaVuSans-c" d="M 513 4856 
L 1013 4856 
Q 1481 4119 1714 3412 
Q 1947 2706 1947 2009 
Q 1947 1309 1714 600 
Q 1481 -109 1013 -844 
L 513 -844 
Q 928 -128 1133 580 
Q 1338 1288 1338 2009 
Q 1338 2731 1133 3434 
Q 928 4138 513 4856 
z
" transform="scale(0.015625)"/>
      </defs>
      <use xlink:href="#DejaVuSans-37"/>
      <use xlink:href="#DejaVuSans-4c" transform="translate(58 0)"/>
      <use xlink:href="#DejaVuSans-50" transform="translate(85.78125 0)"/>
      <use xlink:href="#DejaVuSans-48" transform="translate(183.1875 0)"/>
      <use xlink:href="#DejaVuSans-3" transform="translate(244.71875 0)"/>
      <use xlink:href="#DejaVuSans-b" transform="translate(276.5 0)"/>
      <use xlink:href="#DejaVuSans-56" transform="translate(315.515625 0)"/>
      <use xlink:href="#DejaVuSans-c" transform="translate(367.609375 0)"/>
     </g>
    </g>
   </g>
   <g id="matplotlib.axis_2">
    <g id="ytick_1">
     <g id="line2d_19">
      <path d="M 62.229688 137.401232 
L 848.989687 137.401232 
" clip-path="url(#p3c72763914)" style="fill: none; stroke: #b0b0b0; stroke-opacity: 0.3; stroke-width: 0.8; stroke-linecap: square"/>
     </g>
     <g id="line2d_20">
      <defs>
       <path id="mb57f5b8593" d="M 0 0 
L -3.5 0 
" style="stroke: #000000; stroke-width: 0.8"/>
      </defs>
      <g>
       <use xlink:href="#mb57f5b8593" x="62.229688" y="137.401232" style="stroke: #000000; stroke-width: 0.8"/>
      </g>
     </g>
     <g id="text_11">
      <!-- −2 -->
      <g transform="translate(40.4875 141.20006) scale(0.1 -0.1)">
       <defs>
        <path id="DejaVuSans-c9c" d="M 678 2272 
L 4684 2272 
L 4684 1741 
L 678 1741 
L 678 2272 
z
" transform="scale(0.015625)"/>
       </defs>
       <use xlink:href="#DejaVuSans-c9c"/>
       <use xlink:href="#DejaVuSans-15" transform="translate(83.796875 0)"/>
      </g>
     </g>
    </g>
    <g id="ytick_2">
     <g id="line2d_21">
      <path d="M 62.229688 97.18623 
L 848.989687 97.18623 
" clip-path="url(#p3c72763914)" style="fill: none; stroke: #b0b0b0; stroke-opacity: 0.3; stroke-width: 0.8; stroke-linecap: square"/>
     </g>
     <g id="line2d_22">
      <g>
       <use xlink:href="#mb57f5b8593" x="62.229688" y="97.18623" style="stroke: #000000; stroke-width: 0.8"/>
      </g>
     </g>
     <g id="text_12">
      <!-- 0 -->
      <g transform="translate(48.867188 100.985058) scale(0.1 -0.1)">
       <use xlink:href="#DejaVuSans-13"/>
      </g>
     </g>
    </g>
    <g id="ytick_3">
     <g id="line2d_23">
      <path d="M 62.229688 56.971228 
L 848.989687 56.971228 
" clip-path="url(#p3c72763914)" style="fill: none; stroke: #b0b0b0; stroke-opacity: 0.3; stroke-width: 0.8; stroke-linecap: square"/>
     </g>
     <g id="line2d_24">
      <g>
       <use xlink:href="#mb57f5b8593" x="62.229688" y="56.971228" style="stroke: #000000; stroke-width: 0.8"/>
      </g>
     </g>
     <g id="text_13">
      <!-- 2 -->
      <g transform="translate(48.867188 60.770056) scale(0.1 -0.1)">
       <use xlink:href="#DejaVuSans-15"/>
      </g>
     </g>
    </g>
    <g id="text_14">
     <!-- Amplitude -->
     <g transform="translate(34.085156 124.698438) rotate(-90) scale(0.1 -0.1)">
      <defs>
       <path id="DejaVuSans-24" d="M 2188 4044 
L 1331 1722 
L 3047 1722 
L 2188 4044 
z
M 1831 4666 
L 2547 4666 
L 4325 0 
L 3669 0 
L 3244 1197 
L 1141 1197 
L 716 0 
L 50 0 
L 1831 4666 
z
" transform="scale(0.015625)"/>
       <path id="DejaVuSans-53" d="M 1159 525 
L 1159 -1331 
L 581 -1331 
L 581 3500 
L 1159 3500 
L 1159 2969 
Q 1341 3281 1617 3432 
Q 1894 3584 2278 3584 
Q 2916 3584 3314 3078 
Q 3713 2572 3713 1747 
Q 3713 922 3314 415 
Q 2916 -91 2278 -91 
Q 1894 -91 1617 61 
Q 1341 213 1159 525 
z
M 3116 1747 
Q 3116 2381 2855 2742 
Q 2594 3103 2138 3103 
Q 1681 3103 1420 2742 
Q 1159 2381 1159 1747 
Q 1159 1113 1420 752 
Q 1681 391 2138 391 
Q 2594 391 2855 752 
Q 3116 1113 3116 1747 
z
" transform="scale(0.015625)"/>
       <path id="DejaVuSans-4f" d="M 603 4863 
L 1178 4863 
L 1178 0 
L 603 0 
L 603 4863 
z
" transform="scale(0.015625)"/>
       <path id="DejaVuSans-57" d="M 1172 4494 
L 1172 3500 
L 2356 3500 
L 2356 3053 
L 1172 3053 
L 1172 1153 
Q 1172 725 1289 603 
Q 1406 481 1766 481 
L 2356 481 
L 2356 0 
L 1766 0 
Q 1100 0 847 248 
Q 594 497 594 1153 
L 594 3053 
L 172 3053 
L 172 3500 
L 594 3500 
L 594 4494 
L 1172 4494 
z
" transform="scale(0.015625)"/>
       <path id="DejaVuSans-58" d="M 544 1381 
L 544 3500 
L 1119 3500 
L 1119 1403 
Q 1119 906 1312 657 
Q 1506 409 1894 409 
Q 2359 409 2629 706 
Q 2900 1003 2900 1516 
L 2900 3500 
L 3475 3500 
L 3475 0 
L 2900 0 
L 2900 538 
Q 2691 219 2414 64 
Q 2138 -91 1772 -91 
Q 1169 -91 856 284 
Q 544 659 544 1381 
z
M 1991 3584 
L 1991 3584 
z
" transform="scale(0.015625)"/>
       <path id="DejaVuSans-47" d="M 2906 2969 
L 2906 4863 
L 3481 4863 
L 3481 0 
L 2906 0 
L 2906 525 
Q 2725 213 2448 61 
Q 2172 -91 1784 -91 
Q 1150 -91 751 415 
Q 353 922 353 1747 
Q 353 2572 751 3078 
Q 1150 3584 1784 3584 
Q 2172 3584 2448 3432 
Q 2725 3281 2906 2969 
z
M 947 1747 
Q 947 1113 1208 752 
Q 1469 391 1925 391 
Q 2381 391 2643 752 
Q 2906 1113 2906 1747 
Q 2906 2381 2643 2742 
Q 2381 3103 1925 3103 
Q 1469 3103 1208 2742 
Q 947 2381 947 1747 
z
" transform="scale(0.015625)"/>
      </defs>
      <use xlink:href="#DejaVuSans-24"/>
      <use xlink:href="#DejaVuSans-50" transform="translate(68.40625 0)"/>
      <use xlink:href="#DejaVuSans-53" transform="translate(165.8125 0)"/>
      <use xlink:href="#DejaVuSans-4f" transform="translate(229.296875 0)"/>
      <use xlink:href="#DejaVuSans-4c" transform="translate(257.078125 0)"/>
      <use xlink:href="#DejaVuSans-57" transform="translate(284.859375 0)"/>
      <use xlink:href="#DejaVuSans-58" transform="translate(324.0625 0)"/>
      <use xlink:href="#DejaVuSans-47" transform="translate(387.4375 0)"/>
      <use xlink:href="#DejaVuSans-48" transform="translate(450.921875 0)"/>
     </g>
    </g>
   </g>
   <g id="line2d_25">
    <path d="M 97.991506 81.00538 
L 99.421978 108.359818 
L 100.852451 73.286363 
L 102.282924 70.944955 
L 103.713397 131.029603 
L 105.143869 120.263026 
L 106.574342 93.984399 
L 108.004815 105.428963 
L 109.435288 101.804738 
L 110.86576 120.747313 
L 112.296233 87.637389 
L 113.726706 90.894518 
L 115.157178 105.832991 
L 116.587651 84.4947 
L 118.018124 97.133526 
L 119.448597 122.598109 
L 120.879069 96.180075 
L 122.309542 120.747642 
L 123.740015 81.406674 
L 125.170488 97.558835 
L 126.60096 97.79657 
L 128.031433 105.490952 
L 129.461906 65.27511 
L 130.892378 91.483263 
L 132.322851 96.060938 
L 133.753324 94.213005 
L 135.183797 76.744929 
L 136.614269 81.027894 
L 138.044742 81.55834 
L 139.475215 83.136427 
L 140.905687 51.016269 
L 142.33616 104.72694 
L 143.766633 109.370036 
L 145.197106 117.829845 
L 146.627578 91.208925 
L 148.058051 82.619073 
L 149.488524 108.825169 
L 150.918997 124.054151 
L 152.349469 123.73896 
L 153.779942 93.452175 
L 155.210415 90.374901 
L 156.640888 92.673257 
L 158.07136 114.848646 
L 159.501833 94.401931 
L 160.932306 94.20869 
L 162.362778 89.682169 
L 163.793251 74.276906 
L 165.223724 85.361413 
L 166.654197 74.724806 
L 168.084669 86.08949 
L 169.515142 81.319011 
L 170.945615 74.754708 
L 172.376087 117.675823 
L 173.80656 96.28515 
L 175.237033 101.25718 
L 176.667506 106.925687 
L 178.097978 102.087373 
L 179.528451 69.010581 
L 180.958924 118.876609 
L 182.389397 84.125073 
L 183.819869 139.158191 
L 185.250342 113.267672 
L 186.680815 103.888146 
L 188.111288 95.373237 
L 189.54176 92.232981 
L 190.972233 89.367654 
L 192.402706 110.606721 
L 193.833178 110.763648 
L 195.263651 81.818364 
L 198.124597 119.730314 
L 199.555069 114.586735 
L 200.985542 108.345249 
L 202.416015 78.379401 
L 203.846487 84.584511 
L 205.27696 73.248544 
L 206.707433 96.039319 
L 208.137906 85.188224 
L 209.568378 77.278302 
L 210.998851 98.019347 
L 212.429324 84.894841 
L 213.859797 109.864626 
L 215.290269 106.37022 
L 216.720742 109.142704 
L 218.151215 127.640079 
L 219.581688 95.528085 
L 221.01216 115.972479 
L 223.873106 97.49409 
L 225.303578 97.555345 
L 226.734051 91.940653 
L 228.164524 105.575029 
L 229.594997 109.97838 
L 231.025469 100.673049 
L 232.455942 130.483029 
L 233.886415 123.177266 
L 235.316888 118.395345 
L 236.74736 109.909503 
L 238.177833 80.3376 
L 239.608306 105.655257 
L 241.038778 94.736383 
L 242.469251 61.324102 
L 243.899724 95.539639 
L 245.330197 75.027766 
L 246.760669 110.571879 
L 248.191142 98.210286 
L 249.621615 115.657519 
L 251.052087 105.887223 
L 252.48256 84.570412 
L 253.913033 138.326829 
L 255.343506 96.584711 
L 256.773978 101.753702 
L 259.634924 136.237313 
L 261.065397 105.083627 
L 262.495869 115.96666 
L 263.926342 98.916194 
L 265.356815 101.027517 
L 266.787287 66.862344 
L 268.21776 101.367793 
L 269.648233 114.659427 
L 271.078706 88.194376 
L 272.509178 85.433777 
L 273.939651 61.046195 
L 276.800597 79.956694 
L 278.231069 58.024972 
L 279.661542 112.279115 
L 281.092015 102.721166 
L 282.522488 110.430288 
L 283.95296 101.917551 
L 285.383433 124.236668 
L 286.813906 86.298816 
L 288.244378 105.935252 
L 289.674851 133.168971 
L 291.105324 125.740642 
L 292.535797 100.229991 
L 293.966269 90.308073 
L 295.396742 67.011435 
L 296.827215 47.943478 
L 298.257688 96.987147 
L 299.68816 123.49187 
L 301.118633 144.337032 
L 302.549106 93.687106 
L 303.979578 112.901164 
L 305.410051 102.431247 
L 306.840524 104.106898 
L 308.270997 92.688314 
L 309.701469 66.941862 
L 311.131942 84.290482 
L 312.562415 90.322229 
L 313.992887 108.272745 
L 315.42336 122.04975 
L 316.853833 99.635798 
L 318.284306 92.880594 
L 319.714778 58.530797 
L 321.145251 93.935454 
L 322.575724 79.309679 
L 324.006197 111.506495 
L 325.436669 127.42099 
L 326.867142 124.725971 
L 328.297615 121.116455 
L 329.728088 64.362496 
L 331.15856 123.676737 
L 332.589033 89.674048 
L 334.019506 123.475494 
L 335.449978 84.863126 
L 338.310924 102.219711 
L 339.741397 97.374582 
L 341.171869 107.245594 
L 342.602342 82.829764 
L 344.032815 99.005942 
L 345.463287 113.01993 
L 346.89376 113.144467 
L 349.754706 55.696757 
L 351.185178 85.159029 
L 352.615651 92.242881 
L 354.046124 86.051911 
L 355.476597 67.819019 
L 356.907069 92.143716 
L 358.337542 107.332835 
L 359.768015 79.222207 
L 361.198487 94.973511 
L 362.62896 74.43967 
L 365.489906 131.781716 
L 366.920378 134.670966 
L 368.350851 73.337935 
L 369.781324 70.661274 
L 371.211797 107.204414 
L 372.642269 109.171848 
L 374.072742 69.684122 
L 375.503215 118.814872 
L 376.933688 112.070175 
L 378.36416 78.863467 
L 379.794633 97.791884 
L 381.225106 88.479049 
L 382.655578 90.734765 
L 384.086051 80.344699 
L 385.516524 59.147393 
L 386.946997 86.554625 
L 388.377469 76.909361 
L 389.807942 133.022999 
L 391.238415 95.059055 
L 392.668887 113.510203 
L 394.09936 123.5774 
L 395.529833 119.124358 
L 396.960306 110.313119 
L 398.390778 86.903373 
L 399.821251 133.204414 
L 401.251724 106.544781 
L 402.682197 116.896141 
L 404.112669 113.122658 
L 405.543142 85.156931 
L 406.973615 92.774575 
L 408.404088 74.575175 
L 409.83456 102.176838 
L 411.265033 110.548616 
L 414.125978 86.923156 
L 415.556451 86.306912 
L 416.986924 110.180395 
L 418.417397 85.628813 
L 419.847869 82.543378 
L 421.278342 36.828224 
L 422.708815 50.637406 
L 424.139288 107.013953 
L 425.56976 97.577722 
L 427.000233 123.505612 
L 431.291651 77.220206 
L 432.722124 118.254786 
L 434.152597 118.473135 
L 435.583069 149.710587 
L 437.013542 110.431509 
L 438.444015 128.523202 
L 439.874487 117.179675 
L 441.30496 122.951364 
L 442.735433 105.490116 
L 444.165906 136.810434 
L 445.596378 128.568729 
L 447.026851 53.741111 
L 448.457324 119.966301 
L 449.887797 113.852778 
L 451.318269 52.92162 
L 452.748742 29.96242 
L 454.179215 111.005614 
L 455.609688 94.537046 
L 457.04016 80.580508 
L 458.470633 53.616271 
L 459.901106 109.700591 
L 461.331578 96.731085 
L 462.762051 78.449134 
L 464.192524 87.81289 
L 465.622997 106.633673 
L 467.053469 104.157754 
L 468.483942 131.240451 
L 469.914415 110.108964 
L 471.344888 111.890357 
L 472.77536 102.492347 
L 474.205833 118.326946 
L 475.636306 97.052509 
L 477.066778 84.9567 
L 478.497251 100.469436 
L 479.927724 94.393966 
L 481.358197 98.001294 
L 482.788669 96.553253 
L 484.219142 108.588179 
L 485.649615 85.435252 
L 487.080088 91.813551 
L 488.51056 46.287677 
L 489.941033 55.812101 
L 492.801978 102.79151 
L 494.232451 110.743876 
L 495.662924 65.906453 
L 497.093397 86.515931 
L 498.523869 84.424966 
L 499.954342 131.634214 
L 501.384815 80.421644 
L 502.815287 92.329651 
L 504.24576 125.922718 
L 505.676233 114.80107 
L 507.106706 101.231277 
L 508.537178 106.105727 
L 509.967651 113.035536 
L 511.398124 108.614861 
L 512.828597 110.38652 
L 514.259069 100.527081 
L 515.689542 71.878882 
L 517.120015 150.679202 
L 518.550487 101.317417 
L 519.98096 90.530226 
L 521.411433 85.847461 
L 522.841906 97.335634 
L 524.272378 123.699346 
L 525.702851 80.853167 
L 527.133324 52.399783 
L 528.563797 118.290456 
L 529.994269 71.006638 
L 531.424742 96.463182 
L 532.855215 93.03224 
L 534.285687 115.250608 
L 535.71616 103.280027 
L 537.146633 72.929467 
L 538.577106 89.751168 
L 540.007578 68.762274 
L 541.438051 81.645074 
L 542.868524 97.705035 
L 544.298997 72.094538 
L 545.729469 98.333648 
L 547.159942 89.885197 
L 548.590415 111.283186 
L 550.020888 102.256662 
L 551.45136 115.490359 
L 552.881833 79.172055 
L 554.312306 120.247691 
L 555.742778 78.34834 
L 557.173251 95.632677 
L 558.603724 66.306509 
L 560.034197 73.277962 
L 561.464669 50.839692 
L 562.895142 72.438426 
L 564.325615 119.058137 
L 565.756088 89.722322 
L 567.18656 113.423497 
L 568.617033 102.220473 
L 570.047506 63.692423 
L 571.477978 83.735738 
L 572.908451 113.123859 
L 574.338924 121.850232 
L 575.769397 102.935566 
L 577.199869 129.781869 
L 578.630342 120.028925 
L 580.060815 100.886973 
L 581.491287 83.930265 
L 582.92176 94.293299 
L 584.352233 151.391991 
L 585.782706 97.474677 
L 587.213178 100.018493 
L 588.643651 90.747815 
L 590.074124 64.057012 
L 591.504597 135.566016 
L 592.935069 103.684774 
L 594.365542 77.975712 
L 595.796015 120.177972 
L 597.226487 57.770689 
L 598.65696 79.725748 
L 600.087433 70.425648 
L 601.517906 99.856311 
L 602.948378 73.494607 
L 604.378851 70.314868 
L 605.809324 89.396855 
L 607.239797 91.841733 
L 608.670269 93.634188 
L 610.100742 118.826624 
L 611.531215 106.561165 
L 612.961687 108.386732 
L 614.39216 98.824878 
L 615.822633 87.056736 
L 617.253106 128.445219 
L 618.683578 109.04759 
L 620.114051 75.531516 
L 621.544524 118.546433 
L 622.974997 118.000302 
L 624.405469 95.002243 
L 625.835942 79.576473 
L 627.266415 93.849701 
L 628.696888 65.077084 
L 630.12736 72.629375 
L 631.557833 71.449163 
L 632.988306 76.306438 
L 634.418778 40.329192 
L 635.849251 91.573625 
L 637.279724 128.661888 
L 638.710197 57.599815 
L 640.140669 101.002353 
L 641.571142 91.910244 
L 643.001615 70.223158 
L 644.432088 131.28755 
L 645.86256 126.634406 
L 647.293033 135.792429 
L 648.723506 121.287981 
L 650.153978 97.693977 
L 651.584451 96.620596 
L 653.014924 101.60552 
L 654.445397 134.941162 
L 655.875869 151.770292 
L 657.306342 102.501817 
L 658.736815 110.953146 
L 660.167287 89.833015 
L 661.59776 82.440416 
L 663.028233 91.29976 
L 664.458706 76.514784 
L 665.889178 85.248493 
L 667.319651 77.717784 
L 668.750124 101.617555 
L 670.180597 90.744016 
L 671.611069 83.491661 
L 673.041542 71.877284 
L 674.472015 97.774512 
L 675.902488 81.31979 
L 677.33296 99.424804 
L 678.763433 98.918429 
L 680.193906 82.39056 
L 681.624378 141.542372 
L 683.054851 129.66355 
L 684.485324 135.122929 
L 685.915797 153.457159 
L 687.346269 120.798907 
L 688.776742 92.091461 
L 690.207215 112.262277 
L 691.637688 101.342821 
L 693.06816 81.69329 
L 694.498633 74.770458 
L 695.929106 100.460306 
L 697.359578 69.33772 
L 698.790051 92.227013 
L 700.220524 108.637147 
L 701.650997 101.809267 
L 703.081469 118.145951 
L 704.511942 105.306489 
L 705.942415 94.3313 
L 707.372887 71.29025 
L 708.80336 53.77568 
L 710.233833 117.649577 
L 711.664306 83.900382 
L 713.094778 115.002188 
L 714.525251 87.009977 
L 715.955724 101.70594 
L 717.386197 138.28185 
L 718.816669 84.928999 
L 720.247142 117.484937 
L 721.677615 117.26937 
L 723.108088 128.670751 
L 724.53856 120.316705 
L 725.969033 97.930163 
L 727.399506 109.125116 
L 728.829978 96.98616 
L 730.260451 94.189565 
L 731.690924 72.514909 
L 733.121397 103.447522 
L 734.551869 123.77537 
L 735.982342 70.339985 
L 737.412815 96.52276 
L 738.843288 65.964392 
L 740.27376 79.739581 
L 741.704233 89.769327 
L 743.134706 80.435325 
L 744.565178 49.146074 
L 745.995651 48.094473 
L 747.426124 90.40408 
L 748.856597 90.858417 
L 750.287069 74.914449 
L 751.717542 116.074245 
L 753.148015 94.769696 
L 754.578487 104.114769 
L 756.00896 99.007975 
L 757.439433 123.290935 
L 758.869906 139.122934 
L 760.300378 148.84322 
L 761.730851 129.001773 
L 763.161324 114.542699 
L 764.591797 109.490082 
L 766.022269 62.514031 
L 767.452742 76.831352 
L 768.883215 115.900198 
L 770.313688 87.087902 
L 771.74416 99.984487 
L 773.174633 95.575207 
L 774.605106 84.649625 
L 776.035578 74.998352 
L 777.466051 93.95412 
L 778.896524 66.05694 
L 780.326997 111.337585 
L 781.757469 89.729898 
L 783.187942 39.566434 
L 784.618415 89.593874 
L 786.048888 67.736587 
L 787.47936 97.229873 
L 788.909833 89.788932 
L 790.340306 104.7365 
L 791.770778 108.746355 
L 793.201251 122.207414 
L 794.631724 98.508418 
L 796.062197 124.282989 
L 797.492669 93.150715 
L 798.923142 83.497475 
L 800.353615 96.224701 
L 801.784087 107.222655 
L 803.21456 89.942001 
L 804.645033 102.761593 
L 806.075506 75.267935 
L 807.505978 128.624161 
L 808.936451 96.605587 
L 810.366924 128.406315 
L 811.797397 117.510274 
L 813.227869 59.708618 
L 813.227869 59.708618 
" clip-path="url(#p3c72763914)" style="fill: none; stroke: #2563eb; stroke-width: 0.5; stroke-linecap: square"/>
   </g>
   <g id="line2d_26">
    <path d="M 97.991506 85.473725 
L 99.421978 96.78663 
L 100.852451 87.360329 
L 102.282924 76.058974 
L 103.713397 127.123828 
L 105.143869 60.20974 
L 106.574342 105.761025 
L 108.004815 111.062633 
L 109.435288 122.51881 
L 110.86576 84.858722 
L 112.296233 91.747714 
L 113.726706 81.511368 
L 115.157178 89.202947 
L 116.587651 101.872331 
L 118.018124 99.928298 
L 119.448597 86.514471 
L 120.879069 121.241336 
L 122.309542 102.389764 
L 123.740015 91.391628 
L 125.170488 105.654378 
L 126.60096 79.568573 
L 128.031433 98.880287 
L 129.461906 76.329094 
L 130.892378 85.548478 
L 132.322851 78.147397 
L 133.753324 117.648687 
L 135.183797 104.74677 
L 136.614269 61.340143 
L 138.044742 86.27649 
L 139.475215 93.434268 
L 140.905687 74.701836 
L 142.33616 81.45645 
L 143.766633 100.010314 
L 145.197106 114.397658 
L 146.627578 64.165232 
L 148.058051 91.431223 
L 149.488524 138.144071 
L 150.918997 90.281151 
L 152.349469 91.708531 
L 153.779942 90.168117 
L 155.210415 113.441201 
L 156.640888 74.009937 
L 158.07136 116.507308 
L 159.501833 74.717203 
L 160.932306 90.671767 
L 162.362778 59.950206 
L 163.793251 99.613174 
L 165.223724 75.854015 
L 166.654197 71.388609 
L 168.084669 93.958354 
L 169.515142 86.906225 
L 170.945615 95.784963 
L 172.376087 78.759784 
L 173.80656 76.012446 
L 175.237033 97.663634 
L 176.667506 87.12355 
L 178.097978 108.255209 
L 179.528451 109.548111 
L 180.958924 140.125326 
L 182.389397 127.201787 
L 183.819869 118.871008 
L 185.250342 104.358686 
L 186.680815 76.590667 
L 188.111288 101.75095 
L 189.54176 104.69693 
L 190.972233 98.324463 
L 192.402706 131.775162 
L 193.833178 100.494107 
L 195.263651 116.525718 
L 196.694124 108.091037 
L 198.124597 53.134523 
L 199.555069 54.65311 
L 200.985542 70.20927 
L 202.416015 77.457539 
L 203.846487 77.322226 
L 205.27696 106.538608 
L 206.707433 112.692316 
L 208.137906 81.64568 
L 209.568378 98.8493 
L 210.998851 107.417054 
L 212.429324 95.694533 
L 213.859797 98.012202 
L 215.290269 95.265306 
L 216.720742 116.33841 
L 218.151215 103.246713 
L 219.581688 130.239263 
L 221.01216 81.865439 
L 222.442633 76.613314 
L 223.873106 129.367407 
L 225.303578 97.941888 
L 226.734051 109.763128 
L 228.164524 101.308199 
L 229.594997 100.203103 
L 231.025469 75.080092 
L 232.455942 85.430039 
L 233.886415 111.543164 
L 235.316888 90.186911 
L 236.74736 90.210501 
L 238.177833 104.426454 
L 239.608306 83.339607 
L 241.038778 87.590716 
L 242.469251 60.116733 
L 243.899724 92.153706 
L 245.330197 80.990096 
L 246.760669 136.998216 
L 248.191142 127.812009 
L 249.621615 89.975163 
L 251.052087 96.47526 
L 252.48256 83.192826 
L 253.913033 126.763451 
L 255.343506 111.046888 
L 256.773978 156.649455 
L 258.204451 123.982581 
L 259.634924 115.87402 
L 261.065397 108.482412 
L 262.495869 116.475162 
L 263.926342 84.410083 
L 265.356815 130.578872 
L 266.787287 124.869989 
L 268.21776 87.298321 
L 269.648233 101.702426 
L 271.078706 64.924455 
L 272.509178 76.000837 
L 273.939651 81.687004 
L 275.370124 121.914321 
L 276.800597 99.55107 
L 278.231069 82.059812 
L 279.661542 101.322178 
L 281.092015 84.184138 
L 282.522488 85.781157 
L 283.95296 110.793865 
L 285.383433 118.949035 
L 286.813906 79.616196 
L 288.244378 100.49518 
L 289.674851 102.489183 
L 291.105324 85.98778 
L 292.535797 71.68352 
L 293.966269 163.649739 
L 295.396742 77.912377 
L 296.827215 86.463598 
L 298.257688 111.267057 
L 299.68816 79.874922 
L 301.118633 103.145846 
L 302.549106 66.956089 
L 303.979578 73.646377 
L 305.410051 85.785861 
L 306.840524 104.316585 
L 308.270997 88.100482 
L 309.701469 105.980431 
L 311.131942 101.563613 
L 312.562415 83.517366 
L 313.992887 90.024099 
L 315.42336 101.792608 
L 316.853833 56.698381 
L 318.284306 102.924061 
L 319.714778 94.663442 
L 321.145251 96.605641 
L 322.575724 143.118409 
L 324.006197 48.858305 
L 325.436669 115.177399 
L 326.867142 90.473316 
L 328.297615 149.774479 
L 329.728088 110.534482 
L 331.15856 140.113465 
L 332.589033 116.741955 
L 334.019506 79.873822 
L 335.449978 87.887467 
L 336.880451 89.001089 
L 338.310924 89.001647 
L 339.741397 131.846121 
L 341.171869 116.9922 
L 342.602342 80.820411 
L 344.032815 62.520539 
L 345.463287 79.234689 
L 346.89376 76.005257 
L 348.324233 76.171475 
L 349.754706 73.402699 
L 351.185178 78.706311 
L 352.615651 112.082609 
L 354.046124 72.238487 
L 355.476597 112.212419 
L 356.907069 126.094657 
L 358.337542 96.480436 
L 359.768015 128.290199 
L 361.198487 125.343674 
L 362.62896 103.273599 
L 364.059433 123.071083 
L 365.489906 125.048887 
L 366.920378 97.99355 
L 368.350851 84.206787 
L 369.781324 90.619506 
L 371.211797 85.532018 
L 372.642269 131.289883 
L 374.072742 85.918531 
L 376.933688 108.493395 
L 378.36416 97.866219 
L 379.794633 97.549719 
L 381.225106 109.468643 
L 382.655578 126.654431 
L 384.086051 79.684205 
L 385.516524 82.302336 
L 386.946997 61.640221 
L 388.377469 66.944982 
L 389.807942 88.080524 
L 392.668887 65.614043 
L 394.09936 113.040604 
L 395.529833 106.743996 
L 396.960306 98.169114 
L 398.390778 132.63088 
L 399.821251 128.332484 
L 401.251724 93.864593 
L 402.682197 115.824583 
L 404.112669 97.421348 
L 405.543142 107.624411 
L 406.973615 78.779865 
L 408.404088 95.947175 
L 409.83456 96.391863 
L 411.265033 102.123969 
L 412.695506 114.676777 
L 414.125978 122.920874 
L 415.556451 36.223792 
L 416.986924 82.039241 
L 418.417397 66.740134 
L 419.847869 104.911326 
L 421.278342 77.995337 
L 422.708815 80.698041 
L 424.139288 107.232689 
L 425.56976 51.221134 
L 427.000233 64.071496 
L 428.430706 99.78283 
L 429.861178 76.599759 
L 431.291651 77.61343 
L 432.722124 91.710009 
L 434.152597 94.437925 
L 435.583069 103.600823 
L 437.013542 106.94154 
L 438.444015 136.00231 
L 439.874487 115.079827 
L 441.30496 95.951268 
L 442.735433 108.566693 
L 444.165906 79.232382 
L 445.596378 97.044951 
L 447.026851 113.34321 
L 448.457324 119.188619 
L 449.887797 110.398609 
L 451.318269 90.557139 
L 452.748742 92.665223 
L 454.179215 142.131325 
L 455.609688 76.223091 
L 457.04016 55.420586 
L 458.470633 102.329061 
L 459.901106 80.505823 
L 461.331578 107.318346 
L 462.762051 67.896599 
L 464.192524 112.595177 
L 465.622997 102.668542 
L 467.053469 72.523934 
L 468.483942 84.768813 
L 469.914415 111.660784 
L 471.344888 81.675013 
L 472.77536 94.286376 
L 474.205833 85.754998 
L 475.636306 75.639747 
L 477.066778 72.472152 
L 478.497251 121.452114 
L 479.927724 118.211416 
L 481.358197 88.425633 
L 482.788669 102.570287 
L 484.219142 157.394428 
L 485.649615 72.173754 
L 487.080088 115.289554 
L 488.51056 94.317753 
L 489.941033 101.184745 
L 491.371506 94.163516 
L 492.801978 74.883464 
L 494.232451 124.758624 
L 495.662924 96.182047 
L 497.093397 122.691039 
L 498.523869 100.811402 
L 499.954342 91.245608 
L 501.384815 79.571525 
L 502.815287 106.337522 
L 504.24576 53.69676 
L 505.676233 86.59625 
L 507.106706 81.681218 
L 508.537178 92.298825 
L 509.967651 112.343799 
L 511.398124 116.12272 
L 512.828597 123.693646 
L 514.259069 102.954038 
L 515.689542 162.660966 
L 517.120015 108.855033 
L 518.550487 97.199437 
L 519.98096 122.159594 
L 521.411433 113.370098 
L 522.841906 81.73004 
L 524.272378 76.194432 
L 525.702851 81.193469 
L 527.133324 132.863591 
L 528.563797 50.098843 
L 529.994269 93.070918 
L 531.424742 29.296094 
L 532.855215 92.684004 
L 534.285687 83.256613 
L 535.71616 105.58019 
L 538.577106 66.933075 
L 540.007578 93.790385 
L 541.438051 84.955322 
L 542.868524 93.087312 
L 544.298997 140.512775 
L 545.729469 94.387506 
L 547.159942 120.340574 
L 548.590415 95.332091 
L 550.020888 123.4002 
L 551.45136 74.44525 
L 552.881833 110.12258 
L 554.312306 54.322503 
L 555.742778 101.129941 
L 557.173251 74.257393 
L 558.603724 116.152527 
L 560.034197 84.594809 
L 561.464669 102.314595 
L 562.895142 75.165022 
L 564.325615 57.912522 
L 565.756088 65.684991 
L 567.18656 102.105121 
L 568.617033 115.650641 
L 570.047506 101.323497 
L 571.477978 117.780533 
L 572.908451 78.177346 
L 574.338924 94.529874 
L 575.769397 91.76217 
L 577.199869 134.425613 
L 578.630342 126.162976 
L 580.060815 126.62676 
L 581.491287 100.680506 
L 582.92176 99.359788 
L 584.352233 149.832746 
L 585.782706 78.150264 
L 587.213178 62.378182 
L 588.643651 135.410084 
L 590.074124 114.440205 
L 591.504597 78.975835 
L 592.935069 107.330252 
L 594.365542 97.329786 
L 595.796015 92.602887 
L 597.226487 124.177024 
L 598.65696 98.661123 
L 600.087433 112.422645 
L 601.517906 96.078503 
L 602.948378 89.847885 
L 604.378851 86.54327 
L 605.809324 92.536591 
L 607.239797 111.598698 
L 608.670269 95.030382 
L 610.100742 60.78884 
L 611.531215 121.152206 
L 612.961687 168.855469 
L 614.39216 128.65588 
L 615.822633 132.084003 
L 617.253106 143.156168 
L 618.683578 118.422176 
L 620.114051 123.103104 
L 621.544524 105.384358 
L 622.974997 91.998978 
L 624.405469 50.40341 
L 625.835942 83.819127 
L 627.266415 95.84196 
L 628.696888 132.587279 
L 630.12736 121.001482 
L 631.557833 112.980597 
L 632.988306 94.655878 
L 634.418778 127.610119 
L 635.849251 84.139178 
L 637.279724 61.567836 
L 638.710197 79.902658 
L 640.140669 65.079594 
L 641.571142 99.732421 
L 643.001615 86.384082 
L 644.432088 97.555493 
L 645.86256 87.848875 
L 647.293033 85.010976 
L 648.723506 129.583267 
L 650.153978 136.247765 
L 651.584451 128.653088 
L 653.014924 86.492399 
L 654.445397 96.156548 
L 655.875869 84.894214 
L 657.306342 121.475451 
L 658.736815 99.668688 
L 660.167287 89.098572 
L 661.59776 134.996694 
L 663.028233 102.357312 
L 664.458706 85.220617 
L 665.889178 85.108181 
L 667.319651 103.75487 
L 668.750124 91.536323 
L 670.180597 72.911489 
L 671.611069 76.845461 
L 673.041542 73.4104 
L 674.472015 81.585676 
L 675.902488 93.602989 
L 677.33296 83.464132 
L 678.763433 100.300447 
L 680.193906 134.542293 
L 681.624378 95.992213 
L 683.054851 132.105507 
L 684.485324 128.855872 
L 685.915797 116.751208 
L 687.346269 91.310299 
L 688.776742 110.672342 
L 690.207215 62.040381 
L 691.637688 89.701996 
L 693.06816 101.307113 
L 694.498633 141.314552 
L 695.929106 82.817458 
L 697.359578 85.4845 
L 698.790051 84.070554 
L 700.220524 88.580066 
L 701.650997 95.864321 
L 703.081469 78.409126 
L 704.511942 105.374807 
L 705.942415 110.884998 
L 707.372887 65.496146 
L 708.80336 100.013711 
L 710.233833 100.109497 
L 711.664306 84.138629 
L 713.094778 58.40345 
L 714.525251 58.16241 
L 715.955724 81.514099 
L 717.386197 137.856668 
L 718.816669 76.796147 
L 720.247142 70.918627 
L 721.677615 103.9923 
L 723.108088 91.935871 
L 724.53856 127.69072 
L 725.969033 120.061813 
L 727.399506 107.216173 
L 728.829978 104.00222 
L 730.260451 102.721959 
L 731.690924 91.328333 
L 733.121397 99.604695 
L 734.551869 66.175762 
L 735.982342 124.585453 
L 737.412815 62.584021 
L 738.843288 66.505057 
L 740.27376 87.019226 
L 741.704233 92.266448 
L 743.134706 73.186038 
L 744.565178 97.909473 
L 745.995651 77.257957 
L 747.426124 87.179166 
L 748.856597 111.105038 
L 750.287069 66.056117 
L 751.717542 82.372927 
L 753.148015 95.276403 
L 754.578487 67.410038 
L 756.00896 76.000124 
L 757.439433 109.969381 
L 758.869906 103.736794 
L 760.300378 102.536726 
L 763.161324 87.050772 
L 764.591797 95.357683 
L 766.022269 97.905257 
L 767.452742 125.802556 
L 768.883215 102.245692 
L 770.313688 101.868491 
L 771.74416 94.581314 
L 773.174633 103.905356 
L 774.605106 95.813785 
L 776.035578 109.335644 
L 777.466051 86.33821 
L 778.896524 111.283506 
L 780.326997 55.645599 
L 781.757469 97.210691 
L 783.187942 63.128172 
L 784.618415 96.040446 
L 786.048888 94.308717 
L 787.47936 69.00901 
L 788.909833 104.666103 
L 790.340306 66.431133 
L 791.770778 119.680749 
L 793.201251 96.381645 
L 794.631724 94.045996 
L 796.062197 104.423874 
L 797.492669 117.449736 
L 798.923142 75.914923 
L 800.353615 110.557541 
L 801.784087 99.521094 
L 803.21456 127.441737 
L 804.645033 97.183242 
L 806.075506 127.731163 
L 807.505978 67.438527 
L 808.936451 77.904429 
L 810.366924 59.292708 
L 811.797397 88.2706 
L 813.227869 64.963747 
L 813.227869 64.963747 
" clip-path="url(#p3c72763914)" style="fill: none; stroke: #dc2626; stroke-opacity: 0.7; stroke-width: 0.5; stroke-linecap: square"/>
   </g>
   <g id="patch_3">
    <path d="M 62.229688 175.833438 
L 62.229688 22.318125 
" style="fill: none; stroke: #000000; stroke-width: 0.8; stroke-linejoin: miter; stroke-linecap: square"/>
   </g>
   <g id="patch_4">
    <path d="M 848.989687 175.833438 
L 848.989687 22.318125 
" style="fill: none; stroke: #000000; stroke-width: 0.8; stroke-linejoin: miter; stroke-linecap: square"/>
   </g>
   <g id="patch_5">
    <path d="M 62.229687 175.833438 
L 848.989687 175.833438 
" style="fill: none; stroke: #000000; stroke-width: 0.8; stroke-linejoin: miter; stroke-linecap: square"/>
   </g>
   <g id="patch_6">
    <path d="M 62.229687 22.318125 
L 848.989687 22.318125 
" style="fill: none; stroke: #000000; stroke-width: 0.8; stroke-linejoin: miter; stroke-linecap: square"/>
   </g>
   <g id="text_15">
    <!-- Shared 10 Hz tone, independent noise -->
    <g transform="translate(340.343125 16.318125) scale(0.12 -0.12)">
     <defs>
      <path id="DejaVuSans-36" d="M 3425 4513 
L 3425 3897 
Q 3066 4069 2747 4153 
Q 2428 4238 2131 4238 
Q 1616 4238 1336 4038 
Q 1056 3838 1056 3469 
Q 1056 3159 1242 3001 
Q 1428 2844 1947 2747 
L 2328 2669 
Q 3034 2534 3370 2195 
Q 3706 1856 3706 1288 
Q 3706 609 3251 259 
Q 2797 -91 1919 -91 
Q 1588 -91 1214 -16 
Q 841 59 441 206 
L 441 856 
Q 825 641 1194 531 
Q 1563 422 1919 422 
Q 2459 422 2753 634 
Q 3047 847 3047 1241 
Q 3047 1584 2836 1778 
Q 2625 1972 2144 2069 
L 1759 2144 
Q 1053 2284 737 2584 
Q 422 2884 422 3419 
Q 422 4038 858 4394 
Q 1294 4750 2059 4750 
Q 2388 4750 2728 4690 
Q 3069 4631 3425 4513 
z
" transform="scale(0.015625)"/>
      <path id="DejaVuSans-4b" d="M 3513 2113 
L 3513 0 
L 2938 0 
L 2938 2094 
Q 2938 2591 2744 2837 
Q 2550 3084 2163 3084 
Q 1697 3084 1428 2787 
Q 1159 2491 1159 1978 
L 1159 0 
L 581 0 
L 581 4863 
L 1159 4863 
L 1159 2956 
Q 1366 3272 1645 3428 
Q 1925 3584 2291 3584 
Q 2894 3584 3203 3211 
Q 3513 2838 3513 2113 
z
" transform="scale(0.015625)"/>
      <path id="DejaVuSans-44" d="M 2194 1759 
Q 1497 1759 1228 1600 
Q 959 1441 959 1056 
Q 959 750 1161 570 
Q 1363 391 1709 391 
Q 2188 391 2477 730 
Q 2766 1069 2766 1631 
L 2766 1759 
L 2194 1759 
z
M 3341 1997 
L 3341 0 
L 2766 0 
L 2766 531 
Q 2569 213 2275 61 
Q 1981 -91 1556 -91 
Q 1019 -91 701 211 
Q 384 513 384 1019 
Q 384 1609 779 1909 
Q 1175 2209 1959 2209 
L 2766 2209 
L 2766 2266 
Q 2766 2663 2505 2880 
Q 2244 3097 1772 3097 
Q 1472 3097 1187 3025 
Q 903 2953 641 2809 
L 641 3341 
Q 956 3463 1253 3523 
Q 1550 3584 1831 3584 
Q 2591 3584 2966 3190 
Q 3341 2797 3341 1997 
z
" transform="scale(0.015625)"/>
      <path id="DejaVuSans-55" d="M 2631 2963 
Q 2534 3019 2420 3045 
Q 2306 3072 2169 3072 
Q 1681 3072 1420 2755 
Q 1159 2438 1159 1844 
L 1159 0 
L 581 0 
L 581 3500 
L 1159 3500 
L 1159 2956 
Q 1341 3275 1631 3429 
Q 1922 3584 2338 3584 
Q 2397 3584 2469 3576 
Q 2541 3569 2628 3553 
L 2631 2963 
z
" transform="scale(0.015625)"/>
      <path id="DejaVuSans-2b" d="M 628 4666 
L 1259 4666 
L 1259 2753 
L 3553 2753 
L 3553 4666 
L 4184 4666 
L 4184 0 
L 3553 0 
L 3553 2222 
L 1259 2222 
L 1259 0 
L 628 0 
L 628 4666 
z
" transform="scale(0.015625)"/>
      <path id="DejaVuSans-5d" d="M 353 3500 
L 3084 3500 
L 3084 2975 
L 922 459 
L 3084 459 
L 3084 0 
L 275 0 
L 275 525 
L 2438 3041 
L 353 3041 
L 353 3500 
z
" transform="scale(0.015625)"/>
      <path id="DejaVuSans-52" d="M 1959 3097 
Q 1497 3097 1228 2736 
Q 959 2375 959 1747 
Q 959 1119 1226 758 
Q 1494 397 1959 397 
Q 2419 397 2687 759 
Q 2956 1122 2956 1747 
Q 2956 2369 2687 2733 
Q 2419 3097 1959 3097 
z
M 1959 3584 
Q 2709 3584 3137 3096 
Q 3566 2609 3566 1747 
Q 3566 888 3137 398 
Q 2709 -91 1959 -91 
Q 1206 -91 779 398 
Q 353 888 353 1747 
Q 353 2609 779 3096 
Q 1206 3584 1959 3584 
z
" transform="scale(0.015625)"/>
      <path id="DejaVuSans-51" d="M 3513 2113 
L 3513 0 
L 2938 0 
L 2938 2094 
Q 2938 2591 2744 2837 
Q 2550 3084 2163 3084 
Q 1697 3084 1428 2787 
Q 1159 2491 1159 1978 
L 1159 0 
L 581 0 
L 581 3500 
L 1159 3500 
L 1159 2956 
Q 1366 3272 1645 3428 
Q 1925 3584 2291 3584 
Q 2894 3584 3203 3211 
Q 3513 2838 3513 2113 
z
" transform="scale(0.015625)"/>
      <path id="DejaVuSans-f" d="M 750 794 
L 1409 794 
L 1409 256 
L 897 -744 
L 494 -744 
L 750 256 
L 750 794 
z
" transform="scale(0.015625)"/>
     </defs>
     <use xlink:href="#DejaVuSans-36"/>
     <use xlink:href="#DejaVuSans-4b" transform="translate(63.484375 0)"/>
     <use xlink:href="#DejaVuSans-44" transform="translate(126.859375 0)"/>
     <use xlink:href="#DejaVuSans-55" transform="translate(188.140625 0)"/>
     <use xlink:href="#DejaVuSans-48" transform="translate(227.046875 0)"/>
     <use xlink:href="#DejaVuSans-47" transform="translate(288.578125 0)"/>
     <use xlink:href="#DejaVuSans-3" transform="translate(352.0625 0)"/>
     <use xlink:href="#DejaVuSans-14" transform="translate(383.84375 0)"/>
     <use xlink:href="#DejaVuSans-13" transform="translate(447.46875 0)"/>
     <use xlink:href="#DejaVuSans-3" transform="translate(511.09375 0)"/>
     <use xlink:href="#DejaVuSans-2b" transform="translate(542.875 0)"/>
     <use xlink:href="#DejaVuSans-5d" transform="translate(618.078125 0)"/>
     <use xlink:href="#DejaVuSans-3" transform="translate(670.5625 0)"/>
     <use xlink:href="#DejaVuSans-57" transform="translate(702.34375 0)"/>
     <use xlink:href="#DejaVuSans-52" transform="translate(741.546875 0)"/>
     <use xlink:href="#DejaVuSans-51" transform="translate(802.734375 0)"/>
     <use xlink:href="#DejaVuSans-48" transform="translate(866.109375 0)"/>
     <use xlink:href="#DejaVuSans-f" transform="translate(927.640625 0)"/>
     <use xlink:href="#DejaVuSans-3" transform="translate(959.421875 0)"/>
     <use xlink:href="#DejaVuSans-4c" transform="translate(991.203125 0)"/>
     <use xlink:href="#DejaVuSans-51" transform="translate(1018.984375 0)"/>
     <use xlink:href="#DejaVuSans-47" transform="translate(1082.359375 0)"/>
     <use xlink:href="#DejaVuSans-48" transform="translate(1145.84375 0)"/>
     <use xlink:href="#DejaVuSans-53" transform="translate(1207.375 0)"/>
     <use xlink:href="#DejaVuSans-48" transform="translate(1270.859375 0)"/>
     <use xlink:href="#DejaVuSans-51" transform="translate(1332.390625 0)"/>
     <use xlink:href="#DejaVuSans-47" transform="translate(1395.765625 0)"/>
     <use xlink:href="#DejaVuSans-48" transform="translate(1459.25 0)"/>
     <use xlink:href="#DejaVuSans-51" transform="translate(1520.78125 0)"/>
     <use xlink:href="#DejaVuSans-57" transform="translate(1584.15625 0)"/>
     <use xlink:href="#DejaVuSans-3" transform="translate(1623.359375 0)"/>
     <use xlink:href="#DejaVuSans-51" transform="translate(1655.140625 0)"/>
     <use xlink:href="#DejaVuSans-52" transform="translate(1718.515625 0)"/>
     <use xlink:href="#DejaVuSans-4c" transform="translate(1779.703125 0)"/>
     <use xlink:href="#DejaVuSans-56" transform="translate(1807.484375 0)"/>
     <use xlink:href="#DejaVuSans-48" transform="translate(1859.578125 0)"/>
    </g>
   </g>
   <g id="text_16">
    <!-- Figure B.36 -->
    <g transform="translate(62.229688 16.318125) scale(0.09 -0.09)">
     <defs>
      <path id="DejaVuSans-Oblique-29" d="M 1081 4666 
L 3756 4666 
L 3653 4134 
L 1606 4134 
L 1338 2759 
L 3188 2759 
L 3084 2228 
L 1234 2228 
L 800 0 
L 172 0 
L 1081 4666 
z
" transform="scale(0.015625)"/>
      <path id="DejaVuSans-Oblique-4c" d="M 1172 4863 
L 1747 4863 
L 1606 4134 
L 1031 4134 
L 1172 4863 
z
M 909 3500 
L 1484 3500 
L 800 0 
L 225 0 
L 909 3500 
z
" transform="scale(0.015625)"/>
      <path id="DejaVuSans-Oblique-4a" d="M 3816 3500 
L 3219 434 
Q 3047 -456 2561 -893 
Q 2075 -1331 1253 -1331 
Q 950 -1331 690 -1286 
Q 431 -1241 206 -1147 
L 313 -588 
Q 525 -725 762 -790 
Q 1000 -856 1269 -856 
Q 1816 -856 2167 -557 
Q 2519 -259 2631 300 
L 2681 563 
Q 2441 288 2122 144 
Q 1803 0 1434 0 
Q 903 0 598 351 
Q 294 703 294 1319 
Q 294 1803 478 2267 
Q 663 2731 997 3091 
Q 1219 3328 1514 3456 
Q 1809 3584 2131 3584 
Q 2484 3584 2746 3420 
Q 3009 3256 3138 2956 
L 3238 3500 
L 3816 3500 
z
M 2950 2216 
Q 2950 2641 2750 2872 
Q 2550 3103 2181 3103 
Q 1953 3103 1747 3012 
Q 1541 2922 1394 2759 
Q 1156 2491 1023 2127 
Q 891 1763 891 1375 
Q 891 944 1092 712 
Q 1294 481 1672 481 
Q 2219 481 2584 976 
Q 2950 1472 2950 2216 
z
" transform="scale(0.015625)"/>
      <path id="DejaVuSans-Oblique-58" d="M 428 1388 
L 838 3500 
L 1416 3500 
L 1006 1409 
Q 975 1256 961 1147 
Q 947 1038 947 966 
Q 947 700 1109 554 
Q 1272 409 1569 409 
Q 2031 409 2368 721 
Q 2706 1034 2809 1563 
L 3194 3500 
L 3769 3500 
L 3091 0 
L 2516 0 
L 2631 550 
Q 2388 244 2052 76 
Q 1716 -91 1338 -91 
Q 878 -91 622 161 
Q 366 413 366 863 
Q 366 956 381 1097 
Q 397 1238 428 1388 
z
" transform="scale(0.015625)"/>
      <path id="DejaVuSans-Oblique-55" d="M 2853 2969 
Q 2766 3016 2653 3041 
Q 2541 3066 2413 3066 
Q 1953 3066 1609 2717 
Q 1266 2369 1153 1784 
L 800 0 
L 225 0 
L 909 3500 
L 1484 3500 
L 1375 2956 
Q 1603 3259 1920 3421 
Q 2238 3584 2597 3584 
Q 2691 3584 2781 3573 
Q 2872 3563 2963 3538 
L 2853 2969 
z
" transform="scale(0.015625)"/>
      <path id="DejaVuSans-Oblique-48" d="M 3078 2063 
Q 3088 2113 3092 2166 
Q 3097 2219 3097 2272 
Q 3097 2653 2873 2875 
Q 2650 3097 2266 3097 
Q 1838 3097 1509 2826 
Q 1181 2556 1013 2059 
L 3078 2063 
z
M 3578 1613 
L 903 1613 
Q 884 1494 878 1425 
Q 872 1356 872 1306 
Q 872 872 1139 634 
Q 1406 397 1894 397 
Q 2269 397 2603 481 
Q 2938 566 3225 728 
L 3116 159 
Q 2806 34 2476 -28 
Q 2147 -91 1806 -91 
Q 1078 -91 686 257 
Q 294 606 294 1247 
Q 294 1794 489 2264 
Q 684 2734 1063 3103 
Q 1306 3334 1642 3459 
Q 1978 3584 2356 3584 
Q 2950 3584 3301 3228 
Q 3653 2872 3653 2272 
Q 3653 2128 3634 1964 
Q 3616 1800 3578 1613 
z
" transform="scale(0.015625)"/>
      <path id="DejaVuSans-Oblique-3" transform="scale(0.015625)"/>
      <path id="DejaVuSans-Oblique-25" d="M 1081 4666 
L 2694 4666 
Q 3350 4666 3675 4422 
Q 4000 4178 4000 3688 
Q 4000 3238 3720 2911 
Q 3441 2584 2988 2516 
Q 3375 2428 3569 2181 
Q 3763 1934 3763 1522 
Q 3763 819 3242 409 
Q 2722 0 1819 0 
L 172 0 
L 1081 4666 
z
M 1234 2228 
L 903 519 
L 1919 519 
Q 2491 519 2800 781 
Q 3109 1044 3109 1522 
Q 3109 1891 2904 2059 
Q 2700 2228 2247 2228 
L 1234 2228 
z
M 1606 4147 
L 1331 2741 
L 2272 2741 
Q 2775 2741 3058 2959 
Q 3341 3178 3341 3566 
Q 3341 3869 3150 4008 
Q 2959 4147 2541 4147 
L 1606 4147 
z
" transform="scale(0.015625)"/>
      <path id="DejaVuSans-Oblique-11" d="M 525 794 
L 1184 794 
L 1031 0 
L 372 0 
L 525 794 
z
" transform="scale(0.015625)"/>
      <path id="DejaVuSans-Oblique-16" d="M 1013 4550 
Q 1356 4650 1679 4700 
Q 2003 4750 2316 4750 
Q 2934 4750 3296 4475 
Q 3659 4200 3659 3738 
Q 3659 3284 3373 2959 
Q 3088 2634 2584 2516 
Q 2978 2403 3162 2165 
Q 3347 1928 3347 1538 
Q 3347 1163 3167 834 
Q 2988 506 2650 269 
Q 2394 88 2037 -1 
Q 1681 -91 1216 -91 
Q 922 -91 622 -33 
Q 322 25 13 141 
L 128 738 
Q 422 575 720 495 
Q 1019 416 1331 416 
Q 1947 416 2330 733 
Q 2713 1050 2713 1556 
Q 2713 1881 2469 2057 
Q 2225 2234 1772 2234 
L 1228 2234 
L 1325 2747 
L 1900 2747 
Q 2419 2747 2717 2984 
Q 3016 3222 3016 3628 
Q 3016 3922 2797 4083 
Q 2578 4244 2181 4244 
Q 1881 4244 1567 4180 
Q 1253 4116 916 3988 
L 1013 4550 
z
" transform="scale(0.015625)"/>
      <path id="DejaVuSans-Oblique-19" d="M 2938 1728 
Q 2938 2125 2734 2354 
Q 2531 2584 2181 2584 
Q 1697 2584 1367 2211 
Q 1038 1838 1038 1288 
Q 1038 875 1239 642 
Q 1441 409 1797 409 
Q 2284 409 2611 792 
Q 2938 1175 2938 1728 
z
M 3788 4556 
L 3681 3981 
Q 3500 4100 3265 4162 
Q 3031 4225 2766 4225 
Q 2119 4225 1726 3819 
Q 1334 3413 1141 2547 
Q 1369 2813 1670 2948 
Q 1972 3084 2322 3084 
Q 2894 3084 3233 2754 
Q 3572 2425 3572 1869 
Q 3572 1413 3405 1020 
Q 3238 628 2919 331 
Q 2700 128 2409 18 
Q 2119 -91 1791 -91 
Q 1147 -91 775 318 
Q 403 728 403 1441 
Q 403 2103 573 2717 
Q 744 3331 1050 3781 
Q 1372 4256 1830 4503 
Q 2288 4750 2841 4750 
Q 3084 4750 3321 4701 
Q 3559 4653 3788 4556 
z
" transform="scale(0.015625)"/>
     </defs>
     <use xlink:href="#DejaVuSans-Oblique-29"/>
     <use xlink:href="#DejaVuSans-Oblique-4c" transform="translate(57.515625 0)"/>
     <use xlink:href="#DejaVuSans-Oblique-4a" transform="translate(85.296875 0)"/>
     <use xlink:href="#DejaVuSans-Oblique-58" transform="translate(148.78125 0)"/>
     <use xlink:href="#DejaVuSans-Oblique-55" transform="translate(212.15625 0)"/>
     <use xlink:href="#DejaVuSans-Oblique-48" transform="translate(253.265625 0)"/>
     <use xlink:href="#DejaVuSans-Oblique-3" transform="translate(314.796875 0)"/>
     <use xlink:href="#DejaVuSans-Oblique-25" transform="translate(346.578125 0)"/>
     <use xlink:href="#DejaVuSans-Oblique-11" transform="translate(415.1875 0)"/>
     <use xlink:href="#DejaVuSans-Oblique-16" transform="translate(446.96875 0)"/>
     <use xlink:href="#DejaVuSans-Oblique-19" transform="translate(510.59375 0)"/>
    </g>
   </g>
   <g id="legend_1">
    <g id="patch_7">
     <path d="M 67.829688 171.833438 
L 203.212187 171.833438 
Q 204.812187 171.833438 204.812187 170.233438 
L 204.812187 147.032188 
Q 204.812187 145.432188 203.212187 145.432188 
L 67.829688 145.432188 
Q 66.229688 145.432188 66.229688 147.032188 
L 66.229688 170.233438 
Q 66.229688 171.833438 67.829688 171.833438 
z
" style="fill: #ffffff; opacity: 0.8; stroke: #cccccc; stroke-linejoin: miter"/>
    </g>
    <g id="line2d_27">
     <path d="M 69.429688 151.910938 
L 77.429688 151.910938 
L 85.429688 151.910938 
" style="fill: none; stroke: #2563eb; stroke-width: 0.5; stroke-linecap: square"/>
    </g>
    <g id="text_17">
     <!-- x₁: 10 Hz + noise (seed 42) -->
     <g transform="translate(91.829688 154.710938) scale(0.08 -0.08)">
      <defs>
       <path id="DejaVuSans-5b" d="M 3513 3500 
L 2247 1797 
L 3578 0 
L 2900 0 
L 1881 1375 
L 863 0 
L 184 0 
L 1544 1831 
L 300 3500 
L 978 3500 
L 1906 2253 
L 2834 3500 
L 3513 3500 
z
" transform="scale(0.015625)"/>
       <path id="DejaVuSans-b5c" d="M 488 343 
L 1125 343 
L 1125 2253 
L 428 2125 
L 428 2487 
L 1147 2609 
L 1575 2609 
L 1575 343 
L 2216 343 
L 2216 0 
L 488 0 
L 488 343 
z
" transform="scale(0.015625)"/>
       <path id="DejaVuSans-1d" d="M 750 794 
L 1409 794 
L 1409 0 
L 750 0 
L 750 794 
z
M 750 3309 
L 1409 3309 
L 1409 2516 
L 750 2516 
L 750 3309 
z
" transform="scale(0.015625)"/>
       <path id="DejaVuSans-e" d="M 2944 4013 
L 2944 2272 
L 4684 2272 
L 4684 1741 
L 2944 1741 
L 2944 0 
L 2419 0 
L 2419 1741 
L 678 1741 
L 678 2272 
L 2419 2272 
L 2419 4013 
L 2944 4013 
z
" transform="scale(0.015625)"/>
       <path id="DejaVuSans-17" d="M 2419 4116 
L 825 1625 
L 2419 1625 
L 2419 4116 
z
M 2253 4666 
L 3047 4666 
L 3047 1625 
L 3713 1625 
L 3713 1100 
L 3047 1100 
L 3047 0 
L 2419 0 
L 2419 1100 
L 313 1100 
L 313 1709 
L 2253 4666 
z
" transform="scale(0.015625)"/>
      </defs>
      <use xlink:href="#DejaVuSans-5b"/>
      <use xlink:href="#DejaVuSans-b5c" transform="translate(59.1875 0)"/>
      <use xlink:href="#DejaVuSans-1d" transform="translate(99.28125 0)"/>
      <use xlink:href="#DejaVuSans-3" transform="translate(132.96875 0)"/>
      <use xlink:href="#DejaVuSans-14" transform="translate(164.75 0)"/>
      <use xlink:href="#DejaVuSans-13" transform="translate(228.375 0)"/>
      <use xlink:href="#DejaVuSans-3" transform="translate(292 0)"/>
      <use xlink:href="#DejaVuSans-2b" transform="translate(323.78125 0)"/>
      <use xlink:href="#DejaVuSans-5d" transform="translate(398.984375 0)"/>
      <use xlink:href="#DejaVuSans-3" transform="translate(451.46875 0)"/>
      <use xlink:href="#DejaVuSans-e" transform="translate(483.25 0)"/>
      <use xlink:href="#DejaVuSans-3" transform="translate(567.046875 0)"/>
      <use xlink:href="#DejaVuSans-51" transform="translate(598.828125 0)"/>
      <use xlink:href="#DejaVuSans-52" transform="translate(662.203125 0)"/>
      <use xlink:href="#DejaVuSans-4c" transform="translate(723.390625 0)"/>
      <use xlink:href="#DejaVuSans-56" transform="translate(751.171875 0)"/>
      <use xlink:href="#DejaVuSans-48" transform="translate(803.265625 0)"/>
      <use xlink:href="#DejaVuSans-3" transform="translate(864.796875 0)"/>
      <use xlink:href="#DejaVuSans-b" transform="translate(896.578125 0)"/>
      <use xlink:href="#DejaVuSans-56" transform="translate(935.59375 0)"/>
      <use xlink:href="#DejaVuSans-48" transform="translate(987.6875 0)"/>
      <use xlink:href="#DejaVuSans-48" transform="translate(1049.21875 0)"/>
      <use xlink:href="#DejaVuSans-47" transform="translate(1110.75 0)"/>
      <use xlink:href="#DejaVuSans-3" transform="translate(1174.234375 0)"/>
      <use xlink:href="#DejaVuSans-17" transform="translate(1206.015625 0)"/>
      <use xlink:href="#DejaVuSans-15" transform="translate(1269.640625 0)"/>
      <use xlink:href="#DejaVuSans-c" transform="translate(1333.265625 0)"/>
     </g>
    </g>
    <g id="line2d_28">
     <path d="M 69.429688 163.911563 
L 77.429688 163.911563 
L 85.429688 163.911563 
" style="fill: none; stroke: #dc2626; stroke-opacity: 0.7; stroke-width: 0.5; stroke-linecap: square"/>
    </g>
    <g id="text_18">
     <!-- x₂: 10 Hz + noise (seed 99) -->
     <g transform="translate(91.829688 166.711563) scale(0.08 -0.08)">
      <defs>
       <path id="DejaVuSans-b5d" d="M 838 356 
L 2163 356 
L 2163 0 
L 294 0 
L 294 343 
Q 400 440 597 615 
Q 1672 1568 1672 1862 
Q 1672 2068 1509 2194 
Q 1347 2321 1081 2321 
Q 919 2321 728 2266 
Q 538 2212 313 2103 
L 313 2487 
Q 553 2575 761 2618 
Q 969 2662 1147 2662 
Q 1600 2662 1872 2456 
Q 2144 2250 2144 1912 
Q 2144 1478 1109 590 
Q 934 440 838 356 
z
" transform="scale(0.015625)"/>
       <path id="DejaVuSans-1c" d="M 703 97 
L 703 672 
Q 941 559 1184 500 
Q 1428 441 1663 441 
Q 2288 441 2617 861 
Q 2947 1281 2994 2138 
Q 2813 1869 2534 1725 
Q 2256 1581 1919 1581 
Q 1219 1581 811 2004 
Q 403 2428 403 3163 
Q 403 3881 828 4315 
Q 1253 4750 1959 4750 
Q 2769 4750 3195 4129 
Q 3622 3509 3622 2328 
Q 3622 1225 3098 567 
Q 2575 -91 1691 -91 
Q 1453 -91 1209 -44 
Q 966 3 703 97 
z
M 1959 2075 
Q 2384 2075 2632 2365 
Q 2881 2656 2881 3163 
Q 2881 3666 2632 3958 
Q 2384 4250 1959 4250 
Q 1534 4250 1286 3958 
Q 1038 3666 1038 3163 
Q 1038 2656 1286 2365 
Q 1534 2075 1959 2075 
z
" transform="scale(0.015625)"/>
      </defs>
      <use xlink:href="#DejaVuSans-5b"/>
      <use xlink:href="#DejaVuSans-b5d" transform="translate(59.1875 0)"/>
      <use xlink:href="#DejaVuSans-1d" transform="translate(99.28125 0)"/>
      <use xlink:href="#DejaVuSans-3" transform="translate(132.96875 0)"/>
      <use xlink:href="#DejaVuSans-14" transform="translate(164.75 0)"/>
      <use xlink:href="#DejaVuSans-13" transform="translate(228.375 0)"/>
      <use xlink:href="#DejaVuSans-3" transform="translate(292 0)"/>
      <use xlink:href="#DejaVuSans-2b" transform="translate(323.78125 0)"/>
      <use xlink:href="#DejaVuSans-5d" transform="translate(398.984375 0)"/>
      <use xlink:href="#DejaVuSans-3" transform="translate(451.46875 0)"/>
      <use xlink:href="#DejaVuSans-e" transform="translate(483.25 0)"/>
      <use xlink:href="#DejaVuSans-3" transform="translate(567.046875 0)"/>
      <use xlink:href="#DejaVuSans-51" transform="translate(598.828125 0)"/>
      <use xlink:href="#DejaVuSans-52" transform="translate(662.203125 0)"/>
      <use xlink:href="#DejaVuSans-4c" transform="translate(723.390625 0)"/>
      <use xlink:href="#DejaVuSans-56" transform="translate(751.171875 0)"/>
      <use xlink:href="#DejaVuSans-48" transform="translate(803.265625 0)"/>
      <use xlink:href="#DejaVuSans-3" transform="translate(864.796875 0)"/>
      <use xlink:href="#DejaVuSans-b" transform="translate(896.578125 0)"/>
      <use xlink:href="#DejaVuSans-56" transform="translate(935.59375 0)"/>
      <use xlink:href="#DejaVuSans-48" transform="translate(987.6875 0)"/>
      <use xlink:href="#DejaVuSans-48" transform="translate(1049.21875 0)"/>
      <use xlink:href="#DejaVuSans-47" transform="translate(1110.75 0)"/>
      <use xlink:href="#DejaVuSans-3" transform="translate(1174.234375 0)"/>
      <use xlink:href="#DejaVuSans-1c" transform="translate(1206.015625 0)"/>
      <use xlink:href="#DejaVuSans-1c" transform="translate(1269.640625 0)"/>
      <use xlink:href="#DejaVuSans-c" transform="translate(1333.265625 0)"/>
     </g>
    </g>
   </g>
  </g>
  <g id="axes_2">
   <g id="patch_8">
    <path d="M 62.229688 386.433438 
L 848.989687 386.433438 
L 848.989687 232.918125 
L 62.229688 232.918125 
z
" style="fill: #ffffff"/>
   </g>
   <g id="matplotlib.axis_3">
    <g id="xtick_10">
     <g id="line2d_29">
      <path d="M 97.991506 386.433438 
L 97.991506 232.918125 
" clip-path="url(#pf287a800f5)" style="fill: none; stroke: #b0b0b0; stroke-opacity: 0.3; stroke-width: 0.8; stroke-linecap: square"/>
     </g>
     <g id="line2d_30">
      <g>
       <use xlink:href="#m3fe6ef0728" x="97.991506" y="386.433438" style="stroke: #000000; stroke-width: 0.8"/>
      </g>
     </g>
     <g id="text_19">
      <!-- 0.0 -->
      <g transform="translate(90.039943 401.031094) scale(0.1 -0.1)">
       <use xlink:href="#DejaVuSans-13"/>
       <use xlink:href="#DejaVuSans-11" transform="translate(63.625 0)"/>
       <use xlink:href="#DejaVuSans-13" transform="translate(95.40625 0)"/>
      </g>
     </g>
    </g>
    <g id="xtick_11">
     <g id="line2d_31">
      <path d="M 241.613265 386.433438 
L 241.613265 232.918125 
" clip-path="url(#pf287a800f5)" style="fill: none; stroke: #b0b0b0; stroke-opacity: 0.3; stroke-width: 0.8; stroke-linecap: square"/>
     </g>
     <g id="line2d_32">
      <g>
       <use xlink:href="#m3fe6ef0728" x="241.613265" y="386.433438" style="stroke: #000000; stroke-width: 0.8"/>
      </g>
     </g>
     <g id="text_20">
      <!-- 0.2 -->
      <g transform="translate(233.661703 401.031094) scale(0.1 -0.1)">
       <use xlink:href="#DejaVuSans-13"/>
       <use xlink:href="#DejaVuSans-11" transform="translate(63.625 0)"/>
       <use xlink:href="#DejaVuSans-15" transform="translate(95.40625 0)"/>
      </g>
     </g>
    </g>
    <g id="xtick_12">
     <g id="line2d_33">
      <path d="M 385.235025 386.433438 
L 385.235025 232.918125 
" clip-path="url(#pf287a800f5)" style="fill: none; stroke: #b0b0b0; stroke-opacity: 0.3; stroke-width: 0.8; stroke-linecap: square"/>
     </g>
     <g id="line2d_34">
      <g>
       <use xlink:href="#m3fe6ef0728" x="385.235025" y="386.433438" style="stroke: #000000; stroke-width: 0.8"/>
      </g>
     </g>
     <g id="text_21">
      <!-- 0.4 -->
      <g transform="translate(377.283463 401.031094) scale(0.1 -0.1)">
       <use xlink:href="#DejaVuSans-13"/>
       <use xlink:href="#DejaVuSans-11" transform="translate(63.625 0)"/>
       <use xlink:href="#DejaVuSans-17" transform="translate(95.40625 0)"/>
      </g>
     </g>
    </g>
    <g id="xtick_13">
     <g id="line2d_35">
      <path d="M 528.856785 386.433438 
L 528.856785 232.918125 
" clip-path="url(#pf287a800f5)" style="fill: none; stroke: #b0b0b0; stroke-opacity: 0.3; stroke-width: 0.8; stroke-linecap: square"/>
     </g>
     <g id="line2d_36">
      <g>
       <use xlink:href="#m3fe6ef0728" x="528.856785" y="386.433438" style="stroke: #000000; stroke-width: 0.8"/>
      </g>
     </g>
     <g id="text_22">
      <!-- 0.6 -->
      <g transform="translate(520.905222 401.031094) scale(0.1 -0.1)">
       <defs>
        <path id="DejaVuSans-19" d="M 2113 2584 
Q 1688 2584 1439 2293 
Q 1191 2003 1191 1497 
Q 1191 994 1439 701 
Q 1688 409 2113 409 
Q 2538 409 2786 701 
Q 3034 994 3034 1497 
Q 3034 2003 2786 2293 
Q 2538 2584 2113 2584 
z
M 3366 4563 
L 3366 3988 
Q 3128 4100 2886 4159 
Q 2644 4219 2406 4219 
Q 1781 4219 1451 3797 
Q 1122 3375 1075 2522 
Q 1259 2794 1537 2939 
Q 1816 3084 2150 3084 
Q 2853 3084 3261 2657 
Q 3669 2231 3669 1497 
Q 3669 778 3244 343 
Q 2819 -91 2113 -91 
Q 1303 -91 875 529 
Q 447 1150 447 2328 
Q 447 3434 972 4092 
Q 1497 4750 2381 4750 
Q 2619 4750 2861 4703 
Q 3103 4656 3366 4563 
z
" transform="scale(0.015625)"/>
       </defs>
       <use xlink:href="#DejaVuSans-13"/>
       <use xlink:href="#DejaVuSans-11" transform="translate(63.625 0)"/>
       <use xlink:href="#DejaVuSans-19" transform="translate(95.40625 0)"/>
      </g>
     </g>
    </g>
    <g id="xtick_14">
     <g id="line2d_37">
      <path d="M 672.478545 386.433438 
L 672.478545 232.918125 
" clip-path="url(#pf287a800f5)" style="fill: none; stroke: #b0b0b0; stroke-opacity: 0.3; stroke-width: 0.8; stroke-linecap: square"/>
     </g>
     <g id="line2d_38">
      <g>
       <use xlink:href="#m3fe6ef0728" x="672.478545" y="386.433438" style="stroke: #000000; stroke-width: 0.8"/>
      </g>
     </g>
     <g id="text_23">
      <!-- 0.8 -->
      <g transform="translate(664.526982 401.031094) scale(0.1 -0.1)">
       <defs>
        <path id="DejaVuSans-1b" d="M 2034 2216 
Q 1584 2216 1326 1975 
Q 1069 1734 1069 1313 
Q 1069 891 1326 650 
Q 1584 409 2034 409 
Q 2484 409 2743 651 
Q 3003 894 3003 1313 
Q 3003 1734 2745 1975 
Q 2488 2216 2034 2216 
z
M 1403 2484 
Q 997 2584 770 2862 
Q 544 3141 544 3541 
Q 544 4100 942 4425 
Q 1341 4750 2034 4750 
Q 2731 4750 3128 4425 
Q 3525 4100 3525 3541 
Q 3525 3141 3298 2862 
Q 3072 2584 2669 2484 
Q 3125 2378 3379 2068 
Q 3634 1759 3634 1313 
Q 3634 634 3220 271 
Q 2806 -91 2034 -91 
Q 1263 -91 848 271 
Q 434 634 434 1313 
Q 434 1759 690 2068 
Q 947 2378 1403 2484 
z
M 1172 3481 
Q 1172 3119 1398 2916 
Q 1625 2713 2034 2713 
Q 2441 2713 2670 2916 
Q 2900 3119 2900 3481 
Q 2900 3844 2670 4047 
Q 2441 4250 2034 4250 
Q 1625 4250 1398 4047 
Q 1172 3844 1172 3481 
z
" transform="scale(0.015625)"/>
       </defs>
       <use xlink:href="#DejaVuSans-13"/>
       <use xlink:href="#DejaVuSans-11" transform="translate(63.625 0)"/>
       <use xlink:href="#DejaVuSans-1b" transform="translate(95.40625 0)"/>
      </g>
     </g>
    </g>
    <g id="xtick_15">
     <g id="line2d_39">
      <path d="M 816.100305 386.433438 
L 816.100305 232.918125 
" clip-path="url(#pf287a800f5)" style="fill: none; stroke: #b0b0b0; stroke-opacity: 0.3; stroke-width: 0.8; stroke-linecap: square"/>
     </g>
     <g id="line2d_40">
      <g>
       <use xlink:href="#m3fe6ef0728" x="816.100305" y="386.433438" style="stroke: #000000; stroke-width: 0.8"/>
      </g>
     </g>
     <g id="text_24">
      <!-- 1.0 -->
      <g transform="translate(808.148742 401.031094) scale(0.1 -0.1)">
       <use xlink:href="#DejaVuSans-14"/>
       <use xlink:href="#DejaVuSans-11" transform="translate(63.625 0)"/>
       <use xlink:href="#DejaVuSans-13" transform="translate(95.40625 0)"/>
      </g>
     </g>
    </g>
    <g id="text_25">
     <!-- Lag (s) -->
     <g transform="translate(438.490156 415.031094) scale(0.1 -0.1)">
      <defs>
       <path id="DejaVuSans-2f" d="M 628 4666 
L 1259 4666 
L 1259 531 
L 3531 531 
L 3531 0 
L 628 0 
L 628 4666 
z
" transform="scale(0.015625)"/>
       <path id="DejaVuSans-4a" d="M 2906 1791 
Q 2906 2416 2648 2759 
Q 2391 3103 1925 3103 
Q 1463 3103 1205 2759 
Q 947 2416 947 1791 
Q 947 1169 1205 825 
Q 1463 481 1925 481 
Q 2391 481 2648 825 
Q 2906 1169 2906 1791 
z
M 3481 434 
Q 3481 -459 3084 -895 
Q 2688 -1331 1869 -1331 
Q 1566 -1331 1297 -1286 
Q 1028 -1241 775 -1147 
L 775 -588 
Q 1028 -725 1275 -790 
Q 1522 -856 1778 -856 
Q 2344 -856 2625 -561 
Q 2906 -266 2906 331 
L 2906 616 
Q 2728 306 2450 153 
Q 2172 0 1784 0 
Q 1141 0 747 490 
Q 353 981 353 1791 
Q 353 2603 747 3093 
Q 1141 3584 1784 3584 
Q 2172 3584 2450 3431 
Q 2728 3278 2906 2969 
L 2906 3500 
L 3481 3500 
L 3481 434 
z
" transform="scale(0.015625)"/>
      </defs>
      <use xlink:href="#DejaVuSans-2f"/>
      <use xlink:href="#DejaVuSans-44" transform="translate(55.71875 0)"/>
      <use xlink:href="#DejaVuSans-4a" transform="translate(117 0)"/>
      <use xlink:href="#DejaVuSans-3" transform="translate(180.484375 0)"/>
      <use xlink:href="#DejaVuSans-b" transform="translate(212.265625 0)"/>
      <use xlink:href="#DejaVuSans-56" transform="translate(251.28125 0)"/>
      <use xlink:href="#DejaVuSans-c" transform="translate(303.375 0)"/>
     </g>
    </g>
   </g>
   <g id="matplotlib.axis_4">
    <g id="ytick_4">
     <g id="line2d_41">
      <path d="M 62.229688 372.169009 
L 848.989687 372.169009 
" clip-path="url(#pf287a800f5)" style="fill: none; stroke: #b0b0b0; stroke-opacity: 0.3; stroke-width: 0.8; stroke-linecap: square"/>
     </g>
     <g id="line2d_42">
      <g>
       <use xlink:href="#mb57f5b8593" x="62.229688" y="372.169009" style="stroke: #000000; stroke-width: 0.8"/>
      </g>
     </g>
     <g id="text_26">
      <!-- −2000 -->
      <g transform="translate(21.4 375.967837) scale(0.1 -0.1)">
       <use xlink:href="#DejaVuSans-c9c"/>
       <use xlink:href="#DejaVuSans-15" transform="translate(83.796875 0)"/>
       <use xlink:href="#DejaVuSans-13" transform="translate(147.421875 0)"/>
       <use xlink:href="#DejaVuSans-13" transform="translate(211.046875 0)"/>
       <use xlink:href="#DejaVuSans-13" transform="translate(274.671875 0)"/>
      </g>
     </g>
    </g>
    <g id="ytick_5">
     <g id="line2d_43">
      <path d="M 62.229688 340.32153 
L 848.989687 340.32153 
" clip-path="url(#pf287a800f5)" style="fill: none; stroke: #b0b0b0; stroke-opacity: 0.3; stroke-width: 0.8; stroke-linecap: square"/>
     </g>
     <g id="line2d_44">
      <g>
       <use xlink:href="#mb57f5b8593" x="62.229688" y="340.32153" style="stroke: #000000; stroke-width: 0.8"/>
      </g>
     </g>
     <g id="text_27">
      <!-- −1000 -->
      <g transform="translate(21.4 344.120358) scale(0.1 -0.1)">
       <use xlink:href="#DejaVuSans-c9c"/>
       <use xlink:href="#DejaVuSans-14" transform="translate(83.796875 0)"/>
       <use xlink:href="#DejaVuSans-13" transform="translate(147.421875 0)"/>
       <use xlink:href="#DejaVuSans-13" transform="translate(211.046875 0)"/>
       <use xlink:href="#DejaVuSans-13" transform="translate(274.671875 0)"/>
      </g>
     </g>
    </g>
    <g id="ytick_6">
     <g id="line2d_45">
      <path d="M 62.229688 308.474051 
L 848.989687 308.474051 
" clip-path="url(#pf287a800f5)" style="fill: none; stroke: #b0b0b0; stroke-opacity: 0.3; stroke-width: 0.8; stroke-linecap: square"/>
     </g>
     <g id="line2d_46">
      <g>
       <use xlink:href="#mb57f5b8593" x="62.229688" y="308.474051" style="stroke: #000000; stroke-width: 0.8"/>
      </g>
     </g>
     <g id="text_28">
      <!-- 0 -->
      <g transform="translate(48.867188 312.272879) scale(0.1 -0.1)">
       <use xlink:href="#DejaVuSans-13"/>
      </g>
     </g>
    </g>
    <g id="ytick_7">
     <g id="line2d_47">
      <path d="M 62.229688 276.626572 
L 848.989687 276.626572 
" clip-path="url(#pf287a800f5)" style="fill: none; stroke: #b0b0b0; stroke-opacity: 0.3; stroke-width: 0.8; stroke-linecap: square"/>
     </g>
     <g id="line2d_48">
      <g>
       <use xlink:href="#mb57f5b8593" x="62.229688" y="276.626572" style="stroke: #000000; stroke-width: 0.8"/>
      </g>
     </g>
     <g id="text_29">
      <!-- 1000 -->
      <g transform="translate(29.779688 280.4254) scale(0.1 -0.1)">
       <use xlink:href="#DejaVuSans-14"/>
       <use xlink:href="#DejaVuSans-13" transform="translate(63.625 0)"/>
       <use xlink:href="#DejaVuSans-13" transform="translate(127.25 0)"/>
       <use xlink:href="#DejaVuSans-13" transform="translate(190.875 0)"/>
      </g>
     </g>
    </g>
    <g id="ytick_8">
     <g id="line2d_49">
      <path d="M 62.229688 244.779092 
L 848.989687 244.779092 
" clip-path="url(#pf287a800f5)" style="fill: none; stroke: #b0b0b0; stroke-opacity: 0.3; stroke-width: 0.8; stroke-linecap: square"/>
     </g>
     <g id="line2d_50">
      <g>
       <use xlink:href="#mb57f5b8593" x="62.229688" y="244.779092" style="stroke: #000000; stroke-width: 0.8"/>
      </g>
     </g>
     <g id="text_30">
      <!-- 2000 -->
      <g transform="translate(29.779688 248.577921) scale(0.1 -0.1)">
       <use xlink:href="#DejaVuSans-15"/>
       <use xlink:href="#DejaVuSans-13" transform="translate(63.625 0)"/>
       <use xlink:href="#DejaVuSans-13" transform="translate(127.25 0)"/>
       <use xlink:href="#DejaVuSans-13" transform="translate(190.875 0)"/>
      </g>
     </g>
    </g>
    <g id="text_31">
     <!-- $r_{x_1 x_2}[l]$ -->
     <g transform="translate(14.8 324.625781) rotate(-90) scale(0.1 -0.1)">
      <defs>
       <path id="DejaVuSans-Oblique-5b" d="M 3841 3500 
L 2234 1784 
L 3219 0 
L 2559 0 
L 1819 1388 
L 531 0 
L -166 0 
L 1556 1844 
L 641 3500 
L 1300 3500 
L 1972 2234 
L 3144 3500 
L 3841 3500 
z
" transform="scale(0.015625)"/>
       <path id="DejaVuSans-3e" d="M 550 4863 
L 1875 4863 
L 1875 4416 
L 1125 4416 
L 1125 -397 
L 1875 -397 
L 1875 -844 
L 550 -844 
L 550 4863 
z
" transform="scale(0.015625)"/>
       <path id="DejaVuSans-Oblique-4f" d="M 1172 4863 
L 1747 4863 
L 800 0 
L 225 0 
L 1172 4863 
z
" transform="scale(0.015625)"/>
       <path id="DejaVuSans-40" d="M 1947 4863 
L 1947 -844 
L 622 -844 
L 622 -397 
L 1369 -397 
L 1369 4416 
L 622 4416 
L 622 4863 
L 1947 4863 
z
" transform="scale(0.015625)"/>
      </defs>
      <use xlink:href="#DejaVuSans-Oblique-55" transform="translate(0 0.015625)"/>
      <use xlink:href="#DejaVuSans-Oblique-5b" transform="translate(41.113281 -14.984326) scale(0.7)"/>
      <use xlink:href="#DejaVuSans-14" transform="translate(82.539062 -25.484292) scale(0.49)"/>
      <use xlink:href="#DejaVuSans-Oblique-5b" transform="translate(115.628418 -14.984326) scale(0.7)"/>
      <use xlink:href="#DejaVuSans-15" transform="translate(157.054199 -25.484292) scale(0.49)"/>
      <use xlink:href="#DejaVuSans-3e" transform="translate(192.87793 0.015625)"/>
      <use xlink:href="#DejaVuSans-Oblique-4f" transform="translate(231.891602 0.015625)"/>
      <use xlink:href="#DejaVuSans-40" transform="translate(259.674805 0.015625)"/>
     </g>
    </g>
   </g>
   <g id="line2d_51">
    <path d="M 97.991506 251.005503 
L 100.863941 252.128225 
L 103.736376 260.807796 
L 106.608811 259.92694 
L 109.481246 277.996023 
L 112.353682 287.21805 
L 115.226117 307.476443 
L 120.970987 333.521485 
L 123.843422 343.626164 
L 126.715858 351.206793 
L 129.588293 362.017658 
L 132.460728 371.134643 
L 135.333163 369.283761 
L 138.205598 359.686341 
L 141.078034 354.486123 
L 143.950469 346.884976 
L 146.822904 330.815566 
L 149.695339 310.129846 
L 152.567774 308.27147 
L 155.44021 286.458235 
L 158.312645 271.286398 
L 161.18508 266.416027 
L 164.057515 253.796233 
L 166.92995 248.111862 
L 169.802386 254.93504 
L 172.674821 252.623913 
L 175.547256 254.263506 
L 178.419691 259.263257 
L 181.292126 275.737306 
L 184.164562 285.255263 
L 187.036997 304.391764 
L 189.909432 322.149651 
L 192.781867 336.348872 
L 195.654302 339.192838 
L 198.526738 359.704015 
L 201.399173 367.596979 
L 204.271608 369.247419 
L 207.144043 366.799773 
L 210.016478 359.127283 
L 212.888913 356.244472 
L 215.761349 344.851011 
L 218.633784 338.580035 
L 221.506219 323.279807 
L 227.251089 289.522546 
L 230.123525 276.681425 
L 232.99596 260.511178 
L 235.868395 257.783608 
L 238.74083 248.996597 
L 241.613265 254.900022 
L 244.485701 253.339371 
L 247.358136 256.899396 
L 250.230571 269.699046 
L 253.103006 274.825785 
L 255.975441 288.908568 
L 258.847877 308.044587 
L 261.720312 325.585781 
L 267.465182 346.527823 
L 270.337617 359.09544 
L 273.210053 363.766612 
L 276.082488 361.283769 
L 278.954923 367.336009 
L 281.827358 365.019454 
L 284.699793 355.594522 
L 287.572229 350.395535 
L 290.444664 329.10034 
L 293.317099 317.946892 
L 296.189534 306.236631 
L 299.061969 284.0624 
L 301.934405 281.25342 
L 304.80684 263.001761 
L 307.679275 257.423726 
L 310.55171 249.824165 
L 313.424145 247.782879 
L 316.296581 249.97366 
L 319.169016 243.383601 
L 322.041451 270.73747 
L 324.913886 273.257684 
L 327.786321 285.050137 
L 333.531192 323.559286 
L 336.403627 335.11867 
L 339.276062 349.277853 
L 345.020932 369.730181 
L 347.893368 368.794235 
L 350.765803 363.810441 
L 353.638238 359.667514 
L 356.510673 355.286734 
L 359.383108 348.456377 
L 362.255544 326.811395 
L 365.127979 319.079181 
L 368.000414 294.822741 
L 370.872849 283.841034 
L 373.745284 281.2321 
L 376.61772 267.659499 
L 379.490155 257.576448 
L 382.36259 250.509238 
L 385.235025 239.896094 
L 388.10746 253.607411 
L 390.979896 262.316725 
L 393.852331 270.250295 
L 396.724766 285.723121 
L 399.597201 293.207677 
L 402.469636 306.113783 
L 405.342072 313.955688 
L 408.214507 339.564594 
L 411.086942 343.972433 
L 413.959377 357.647177 
L 416.831812 369.338357 
L 419.704248 365.152063 
L 422.576683 366.033164 
L 425.449118 369.899098 
L 428.321553 360.222131 
L 431.193988 343.019286 
L 434.066424 332.129744 
L 436.938859 316.995564 
L 439.811294 298.715548 
L 442.683729 286.490415 
L 445.556164 278.976759 
L 448.4286 260.504989 
L 451.301035 252.183588 
L 454.17347 255.054519 
L 457.045905 245.406593 
L 459.91834 261.321657 
L 462.790775 247.398288 
L 465.663211 260.863335 
L 468.535646 284.265386 
L 471.408081 287.951064 
L 474.280516 310.324086 
L 477.152951 319.732774 
L 480.025387 331.048251 
L 482.897822 347.722049 
L 485.770257 362.568105 
L 488.642692 363.321532 
L 491.515127 361.339702 
L 494.387563 368.032428 
L 497.259998 372.431409 
L 500.132433 357.208577 
L 503.004868 351.599263 
L 505.877303 328.108475 
L 508.749739 319.600206 
L 514.494609 289.283746 
L 517.367044 286.270871 
L 520.239479 265.337466 
L 523.111915 252.946005 
L 525.98435 250.364151 
L 528.856785 251.900125 
L 531.72922 252.679476 
L 534.601655 255.778291 
L 537.474091 262.584175 
L 540.346526 276.687991 
L 543.218961 292.238154 
L 546.091396 310.372674 
L 548.963831 325.746161 
L 551.836267 335.534479 
L 554.708702 351.220113 
L 557.581137 356.300158 
L 560.453572 365.299525 
L 563.326007 371.777784 
L 566.198443 367.801704 
L 569.070878 360.255019 
L 571.943313 356.200035 
L 574.815748 341.233152 
L 577.688183 322.355338 
L 580.560618 321.185221 
L 583.433054 307.692013 
L 586.305489 284.8552 
L 589.177924 275.466107 
L 592.050359 261.129135 
L 594.922794 262.584387 
L 597.79523 246.232033 
L 600.667665 252.633578 
L 603.5401 252.47707 
L 606.412535 253.328607 
L 609.28497 265.481465 
L 612.157406 285.980917 
L 615.029841 286.109998 
L 617.902276 304.27349 
L 620.774711 326.364085 
L 623.647146 337.434806 
L 626.519582 337.78914 
L 629.392017 361.302855 
L 632.264452 367.711321 
L 635.136887 371.752896 
L 638.009322 373.243913 
L 640.881758 365.515007 
L 643.754193 353.001446 
L 646.626628 345.724032 
L 649.499063 331.355896 
L 652.371498 324.527979 
L 658.116369 285.511975 
L 660.988804 278.60366 
L 663.861239 259.028656 
L 666.733674 256.369534 
L 669.60611 245.879872 
L 672.478545 257.664955 
L 675.35098 252.35709 
L 678.223415 256.725484 
L 681.09585 265.698864 
L 683.968286 278.673416 
L 686.840721 289.837754 
L 689.713156 305.85183 
L 692.585591 313.870143 
L 695.458026 329.891011 
L 698.330462 348.515054 
L 701.202897 355.37323 
L 704.075332 364.142395 
L 706.947767 370.606947 
L 709.820202 364.986048 
L 712.692637 365.231537 
L 715.565073 353.948858 
L 718.437508 344.461598 
L 721.309943 333.243393 
L 724.182378 312.67406 
L 727.054813 307.362713 
L 729.927249 286.340668 
L 732.799684 280.216157 
L 735.672119 263.552854 
L 738.544554 254.427108 
L 741.416989 253.551142 
L 744.289425 248.711941 
L 747.16186 253.271249 
L 750.034295 252.90679 
L 752.90673 266.047017 
L 755.779165 278.557112 
L 758.651601 294.915494 
L 764.396471 317.253686 
L 767.268906 330.528764 
L 770.141341 346.286289 
L 773.013777 355.464485 
L 775.886212 362.503175 
L 778.758647 379.455469 
L 781.631082 367.028449 
L 784.503517 362.088867 
L 787.375953 351.115109 
L 790.248388 345.507394 
L 793.120823 340.568413 
L 795.993258 318.01179 
L 798.865693 302.155185 
L 801.738129 292.02163 
L 804.610564 286.312768 
L 807.482999 266.872542 
L 810.355434 258.356076 
L 813.227869 247.621732 
L 813.227869 247.621732 
" clip-path="url(#pf287a800f5)" style="fill: none; stroke: #2563eb; stroke-width: 0.8; stroke-linecap: square"/>
   </g>
   <g id="line2d_52">
    <path d="M 169.802386 386.433438 
L 169.802386 232.918125 
" clip-path="url(#pf287a800f5)" style="fill: none; stroke-dasharray: 1.85,0.8; stroke-dashoffset: 0; stroke: #ff0000; stroke-opacity: 0.5; stroke-width: 0.5"/>
   </g>
   <g id="line2d_53">
    <path d="M 241.613265 386.433438 
L 241.613265 232.918125 
" clip-path="url(#pf287a800f5)" style="fill: none; stroke-dasharray: 1.85,0.8; stroke-dashoffset: 0; stroke: #ff0000; stroke-opacity: 0.5; stroke-width: 0.5"/>
   </g>
   <g id="line2d_54">
    <path d="M 313.424145 386.433438 
L 313.424145 232.918125 
" clip-path="url(#pf287a800f5)" style="fill: none; stroke-dasharray: 1.85,0.8; stroke-dashoffset: 0; stroke: #ff0000; stroke-opacity: 0.5; stroke-width: 0.5"/>
   </g>
   <g id="line2d_55">
    <path d="M 385.235025 386.433438 
L 385.235025 232.918125 
" clip-path="url(#pf287a800f5)" style="fill: none; stroke-dasharray: 1.85,0.8; stroke-dashoffset: 0; stroke: #ff0000; stroke-opacity: 0.5; stroke-width: 0.5"/>
   </g>
   <g id="line2d_56">
    <path d="M 457.045905 386.433438 
L 457.045905 232.918125 
" clip-path="url(#pf287a800f5)" style="fill: none; stroke-dasharray: 1.85,0.8; stroke-dashoffset: 0; stroke: #ff0000; stroke-opacity: 0.5; stroke-width: 0.5"/>
   </g>
   <g id="line2d_57">
    <path d="M 528.856785 386.433438 
L 528.856785 232.918125 
" clip-path="url(#pf287a800f5)" style="fill: none; stroke-dasharray: 1.85,0.8; stroke-dashoffset: 0; stroke: #ff0000; stroke-opacity: 0.5; stroke-width: 0.5"/>
   </g>
   <g id="line2d_58">
    <path d="M 600.667665 386.433438 
L 600.667665 232.918125 
" clip-path="url(#pf287a800f5)" style="fill: none; stroke-dasharray: 1.85,0.8; stroke-dashoffset: 0; stroke: #ff0000; stroke-opacity: 0.5; stroke-width: 0.5"/>
   </g>
   <g id="line2d_59">
    <path d="M 672.478545 386.433438 
L 672.478545 232.918125 
" clip-path="url(#pf287a800f5)" style="fill: none; stroke-dasharray: 1.85,0.8; stroke-dashoffset: 0; stroke: #ff0000; stroke-opacity: 0.5; stroke-width: 0.5"/>
   </g>
   <g id="line2d_60">
    <path d="M 744.289425 386.433438 
L 744.289425 232.918125 
" clip-path="url(#pf287a800f5)" style="fill: none; stroke-dasharray: 1.85,0.8; stroke-dashoffset: 0; stroke: #ff0000; stroke-opacity: 0.5; stroke-width: 0.5"/>
   </g>
   <g id="line2d_61">
    <path d="M 816.100305 386.433438 
L 816.100305 232.918125 
" clip-path="url(#pf287a800f5)" style="fill: none; stroke-dasharray: 1.85,0.8; stroke-dashoffset: 0; stroke: #ff0000; stroke-opacity: 0.5; stroke-width: 0.5"/>
   </g>
   <g id="patch_9">
    <path d="M 62.229688 386.433437 
L 62.229688 232.918125 
" style="fill: none; stroke: #000000; stroke-width: 0.8; stroke-linejoin: miter; stroke-linecap: square"/>
   </g>
   <g id="patch_10">
    <path d="M 848.989687 386.433437 
L 848.989687 232.918125 
" style="fill: none; stroke: #000000; stroke-width: 0.8; stroke-linejoin: miter; stroke-linecap: square"/>
   </g>
   <g id="patch_11">
    <path d="M 62.229687 386.433438 
L 848.989687 386.433438 
" style="fill: none; stroke: #000000; stroke-width: 0.8; stroke-linejoin: miter; stroke-linecap: square"/>
   </g>
   <g id="patch_12">
    <path d="M 62.229687 232.918125 
L 848.989687 232.918125 
" style="fill: none; stroke: #000000; stroke-width: 0.8; stroke-linejoin: miter; stroke-linecap: square"/>
   </g>
   <g id="text_32">
    <!-- Cross-correlation (ρ = 0.1068) — periodic peaks at 1/f₀ = 0.1 s -->
    <g transform="translate(267.375625 226.918125) scale(0.12 -0.12)">
     <defs>
      <path id="DejaVuSans-26" d="M 4122 4306 
L 4122 3641 
Q 3803 3938 3442 4084 
Q 3081 4231 2675 4231 
Q 1875 4231 1450 3742 
Q 1025 3253 1025 2328 
Q 1025 1406 1450 917 
Q 1875 428 2675 428 
Q 3081 428 3442 575 
Q 3803 722 4122 1019 
L 4122 359 
Q 3791 134 3420 21 
Q 3050 -91 2638 -91 
Q 1578 -91 968 557 
Q 359 1206 359 2328 
Q 359 3453 968 4101 
Q 1578 4750 2638 4750 
Q 3056 4750 3426 4639 
Q 3797 4528 4122 4306 
z
" transform="scale(0.015625)"/>
      <path id="DejaVuSans-10" d="M 313 2009 
L 1997 2009 
L 1997 1497 
L 313 1497 
L 313 2009 
z
" transform="scale(0.015625)"/>
      <path id="DejaVuSans-46" d="M 3122 3366 
L 3122 2828 
Q 2878 2963 2633 3030 
Q 2388 3097 2138 3097 
Q 1578 3097 1268 2742 
Q 959 2388 959 1747 
Q 959 1106 1268 751 
Q 1578 397 2138 397 
Q 2388 397 2633 464 
Q 2878 531 3122 666 
L 3122 134 
Q 2881 22 2623 -34 
Q 2366 -91 2075 -91 
Q 1284 -91 818 406 
Q 353 903 353 1747 
Q 353 2603 823 3093 
Q 1294 3584 2113 3584 
Q 2378 3584 2631 3529 
Q 2884 3475 3122 3366 
z
" transform="scale(0.015625)"/>
      <path id="DejaVuSans-355" d="M 863 2875 
Q 1053 3194 1525 3475 
Q 1709 3584 2278 3584 
Q 2916 3584 3314 3078 
Q 3713 2572 3713 1747 
Q 3713 922 3314 415 
Q 2916 -91 2278 -91 
Q 1894 -91 1617 61 
Q 1341 213 1159 525 
L 1159 -1331 
L 581 -1331 
L 581 1716 
Q 581 2438 863 2875 
z
M 3116 1747 
Q 3116 2381 2855 2742 
Q 2594 3103 2138 3103 
Q 1681 3103 1420 2742 
Q 1159 2381 1159 1747 
Q 1159 1113 1420 752 
Q 1681 391 2138 391 
Q 2594 391 2855 752 
Q 3116 1113 3116 1747 
z
" transform="scale(0.015625)"/>
      <path id="DejaVuSans-20" d="M 678 2906 
L 4684 2906 
L 4684 2381 
L 678 2381 
L 678 2906 
z
M 678 1631 
L 4684 1631 
L 4684 1100 
L 678 1100 
L 678 1631 
z
" transform="scale(0.015625)"/>
      <path id="DejaVuSans-af6" d="M 313 1978 
L 6088 1978 
L 6088 1528 
L 313 1528 
L 313 1978 
z
" transform="scale(0.015625)"/>
      <path id="DejaVuSans-4e" d="M 581 4863 
L 1159 4863 
L 1159 1991 
L 2875 3500 
L 3609 3500 
L 1753 1863 
L 3688 0 
L 2938 0 
L 1159 1709 
L 1159 0 
L 581 0 
L 581 4863 
z
" transform="scale(0.015625)"/>
      <path id="DejaVuSans-12" d="M 1625 4666 
L 2156 4666 
L 531 -594 
L 0 -594 
L 1625 4666 
z
" transform="scale(0.015625)"/>
      <path id="DejaVuSans-49" d="M 2375 4863 
L 2375 4384 
L 1825 4384 
Q 1516 4384 1395 4259 
Q 1275 4134 1275 3809 
L 1275 3500 
L 2222 3500 
L 2222 3053 
L 1275 3053 
L 1275 0 
L 697 0 
L 697 3053 
L 147 3053 
L 147 3500 
L 697 3500 
L 697 3744 
Q 697 4328 969 4595 
Q 1241 4863 1831 4863 
L 2375 4863 
z
" transform="scale(0.015625)"/>
      <path id="DejaVuSans-b5b" d="M 1781 2115 
Q 1625 2384 1309 2384 
Q 994 2384 838 2115 
Q 678 1846 678 1309 
Q 678 768 838 500 
Q 994 231 1309 231 
Q 1625 231 1781 500 
Q 1941 768 1941 1309 
Q 1941 1846 1781 2115 
z
M 1309 2662 
Q 1813 2662 2078 2315 
Q 2344 1968 2344 1309 
Q 2344 646 2078 299 
Q 1813 -47 1309 -47 
Q 803 -47 537 299 
Q 272 646 272 1309 
Q 272 1968 537 2315 
Q 803 2662 1309 2662 
z
" transform="scale(0.015625)"/>
     </defs>
     <use xlink:href="#DejaVuSans-26"/>
     <use xlink:href="#DejaVuSans-55" transform="translate(69.828125 0)"/>
     <use xlink:href="#DejaVuSans-52" transform="translate(108.734375 0)"/>
     <use xlink:href="#DejaVuSans-56" transform="translate(169.921875 0)"/>
     <use xlink:href="#DejaVuSans-56" transform="translate(222.015625 0)"/>
     <use xlink:href="#DejaVuSans-10" transform="translate(274.109375 0)"/>
     <use xlink:href="#DejaVuSans-46" transform="translate(310.1875 0)"/>
     <use xlink:href="#DejaVuSans-52" transform="translate(365.171875 0)"/>
     <use xlink:href="#DejaVuSans-55" transform="translate(426.359375 0)"/>
     <use xlink:href="#DejaVuSans-55" transform="translate(465.71875 0)"/>
     <use xlink:href="#DejaVuSans-48" transform="translate(504.625 0)"/>
     <use xlink:href="#DejaVuSans-4f" transform="translate(566.15625 0)"/>
     <use xlink:href="#DejaVuSans-44" transform="translate(593.9375 0)"/>
     <use xlink:href="#DejaVuSans-57" transform="translate(655.21875 0)"/>
     <use xlink:href="#DejaVuSans-4c" transform="translate(694.421875 0)"/>
     <use xlink:href="#DejaVuSans-52" transform="translate(722.203125 0)"/>
     <use xlink:href="#DejaVuSans-51" transform="translate(783.390625 0)"/>
     <use xlink:href="#DejaVuSans-3" transform="translate(846.765625 0)"/>
     <use xlink:href="#DejaVuSans-b" transform="translate(878.546875 0)"/>
     <use xlink:href="#DejaVuSans-355" transform="translate(917.5625 0)"/>
     <use xlink:href="#DejaVuSans-3" transform="translate(981.046875 0)"/>
     <use xlink:href="#DejaVuSans-20" transform="translate(1012.828125 0)"/>
     <use xlink:href="#DejaVuSans-3" transform="translate(1096.625 0)"/>
     <use xlink:href="#DejaVuSans-13" transform="translate(1128.40625 0)"/>
     <use xlink:href="#DejaVuSans-11" transform="translate(1192.03125 0)"/>
     <use xlink:href="#DejaVuSans-14" transform="translate(1223.8125 0)"/>
     <use xlink:href="#DejaVuSans-13" transform="translate(1287.4375 0)"/>
     <use xlink:href="#DejaVuSans-19" transform="translate(1351.0625 0)"/>
     <use xlink:href="#DejaVuSans-1b" transform="translate(1414.6875 0)"/>
     <use xlink:href="#DejaVuSans-c" transform="translate(1478.3125 0)"/>
     <use xlink:href="#DejaVuSans-3" transform="translate(1517.328125 0)"/>
     <use xlink:href="#DejaVuSans-af6" transform="translate(1549.109375 0)"/>
     <use xlink:href="#DejaVuSans-3" transform="translate(1649.109375 0)"/>
     <use xlink:href="#DejaVuSans-53" transform="translate(1680.890625 0)"/>
     <use xlink:href="#DejaVuSans-48" transform="translate(1744.375 0)"/>
     <use xlink:href="#DejaVuSans-55" transform="translate(1805.90625 0)"/>
     <use xlink:href="#DejaVuSans-4c" transform="translate(1847.015625 0)"/>
     <use xlink:href="#DejaVuSans-52" transform="translate(1874.796875 0)"/>
     <use xlink:href="#DejaVuSans-47" transform="translate(1935.984375 0)"/>
     <use xlink:href="#DejaVuSans-4c" transform="translate(1999.46875 0)"/>
     <use xlink:href="#DejaVuSans-46" transform="translate(2027.25 0)"/>
     <use xlink:href="#DejaVuSans-3" transform="translate(2082.234375 0)"/>
     <use xlink:href="#DejaVuSans-53" transform="translate(2114.015625 0)"/>
     <use xlink:href="#DejaVuSans-48" transform="translate(2177.5 0)"/>
     <use xlink:href="#DejaVuSans-44" transform="translate(2239.03125 0)"/>
     <use xlink:href="#DejaVuSans-4e" transform="translate(2300.3125 0)"/>
     <use xlink:href="#DejaVuSans-56" transform="translate(2358.21875 0)"/>
     <use xlink:href="#DejaVuSans-3" transform="translate(2410.3125 0)"/>
     <use xlink:href="#DejaVuSans-44" transform="translate(2442.09375 0)"/>
     <use xlink:href="#DejaVuSans-57" transform="translate(2503.375 0)"/>
     <use xlink:href="#DejaVuSans-3" transform="translate(2542.578125 0)"/>
     <use xlink:href="#DejaVuSans-14" transform="translate(2574.359375 0)"/>
     <use xlink:href="#DejaVuSans-12" transform="translate(2637.984375 0)"/>
     <use xlink:href="#DejaVuSans-49" transform="translate(2671.671875 0)"/>
     <use xlink:href="#DejaVuSans-b5b" transform="translate(2706.875 0)"/>
     <use xlink:href="#DejaVuSans-3" transform="translate(2746.96875 0)"/>
     <use xlink:href="#DejaVuSans-20" transform="translate(2778.75 0)"/>
     <use xlink:href="#DejaVuSans-3" transform="translate(2862.546875 0)"/>
     <use xlink:href="#DejaVuSans-13" transform="translate(2894.328125 0)"/>
     <use xlink:href="#DejaVuSans-11" transform="translate(2957.953125 0)"/>
     <use xlink:href="#DejaVuSans-14" transform="translate(2989.734375 0)"/>
     <use xlink:href="#DejaVuSans-3" transform="translate(3053.359375 0)"/>
     <use xlink:href="#DejaVuSans-56" transform="translate(3085.140625 0)"/>
    </g>
   </g>
  </g>
 </g>
 <defs>
  <clipPath id="p3c72763914">
   <rect x="62.229688" y="22.318125" width="786.76" height="153.515313"/>
  </clipPath>
  <clipPath id="pf287a800f5">
   <rect x="62.229688" y="232.918125" width="786.76" height="153.515312"/>
  </clipPath>
 </defs>
</svg>
