<?xml version="1.0" encoding="utf-8" standalone="no"?>
<!DOCTYPE svg PUBLIC "-//W3C//DTD SVG 1.1//EN"
  "http://www.w3.org/Graphics/SVG/1.1/DTD/svg11.dtd">
<svg xmlns:xlink="http://www.w3.org/1999/xlink" width="856.228125pt" height="280.633437pt" viewBox="0 0 856.228125 280.633437" xmlns="http://www.w3.org/2000/svg" version="1.1">
 <metadata>
  <rdf:RDF xmlns:dc="http://purl.org/dc/elements/1.1/" xmlns:cc="http://creativecommons.org/ns#" xmlns:rdf="http://www.w3.org/1999/02/22-rdf-syntax-ns#">
   <cc:Work>
    <dc:type rdf:resource="http://purl.org/dc/dcmitype/StillImage"/>
    <dc:date>2026-06-21T18:44:39.228600</dc:date>
    <dc:format>image/svg+xml</dc:format>
    <dc:creator>
     <cc:Agent>
      <dc:title>Matplotlib v3.11.0, https://matplotlib.org/</dc:title>
     </cc:Agent>
    </dc:creator>
   </cc:Work>
  </rdf:RDF>
 </metadata>
 <defs>
  <style type="text/css">*{stroke-linejoin: round; stroke-linecap: butt}</style>
 </defs>
 <g id="figure_1">
  <g id="patch_1">
   <path d="M 0 280.633437 
L 856.228125 280.633437 
L 856.228125 0 
L 0 0 
z
" style="fill: #ffffff"/>
  </g>
  <g id="axes_1">
   <g id="patch_2">
    <path d="M 62.030469 242.433437 
L 849.028125 242.433437 
L 849.028125 22.318125 
L 62.030469 22.318125 
z
" style="fill: #ffffff"/>
   </g>
   <g id="matplotlib.axis_1">
    <g id="xtick_1">
     <g id="line2d_1">
      <path d="M 97.803089 242.433437 
L 97.803089 22.318125 
" clip-path="url(#pb6817ec80f)" style="fill: none; stroke: #b0b0b0; stroke-opacity: 0.3; stroke-width: 0.8; stroke-linecap: square"/>
     </g>
     <g id="line2d_2">
      <defs>
       <path id="m98ea4268a8" d="M 0 0 
L 0 3.5 
" style="stroke: #000000; stroke-width: 0.8"/>
      </defs>
      <g>
       <use xlink:href="#m98ea4268a8" x="97.803089" y="242.433437" style="stroke: #000000; stroke-width: 0.8"/>
      </g>
     </g>
     <g id="text_1">
      <!-- 0.0 -->
      <g transform="translate(89.851527 257.031094) scale(0.1 -0.1)">
       <defs>
        <path id="DejaVuSans-13" d="M 2034 4250 
Q 1547 4250 1301 3770 
Q 1056 3291 1056 2328 
Q 1056 1369 1301 889 
Q 1547 409 2034 409 
Q 2525 409 2770 889 
Q 3016 1369 3016 2328 
Q 3016 3291 2770 3770 
Q 2525 4250 2034 4250 
z
M 2034 4750 
Q 2819 4750 3233 4129 
Q 3647 3509 3647 2328 
Q 3647 1150 3233 529 
Q 2819 -91 2034 -91 
Q 1250 -91 836 529 
Q 422 1150 422 2328 
Q 422 3509 836 4129 
Q 1250 4750 2034 4750 
z
" transform="scale(0.015625)"/>
        <path id="DejaVuSans-11" d="M 684 794 
L 1344 794 
L 1344 0 
L 684 0 
L 684 794 
z
" transform="scale(0.015625)"/>
       </defs>
       <use xlink:href="#DejaVuSans-13"/>
       <use xlink:href="#DejaVuSans-11" transform="translate(63.625 0)"/>
       <use xlink:href="#DejaVuSans-13" transform="translate(95.40625 0)"/>
      </g>
     </g>
    </g>
    <g id="xtick_2">
     <g id="line2d_3">
      <path d="M 187.684046 242.433437 
L 187.684046 22.318125 
" clip-path="url(#pb6817ec80f)" style="fill: none; stroke: #b0b0b0; stroke-opacity: 0.3; stroke-width: 0.8; stroke-linecap: square"/>
     </g>
     <g id="line2d_4">
      <g>
       <use xlink:href="#m98ea4268a8" x="187.684046" y="242.433437" style="stroke: #000000; stroke-width: 0.8"/>
      </g>
     </g>
     <g id="text_2">
      <!-- 0.1 -->
      <g transform="translate(179.732484 257.031094) scale(0.1 -0.1)">
       <defs>
        <path id="DejaVuSans-14" d="M 794 531 
L 1825 531 
L 1825 4091 
L 703 3866 
L 703 4441 
L 1819 4666 
L 2450 4666 
L 2450 531 
L 3481 531 
L 3481 0 
L 794 0 
L 794 531 
z
" transform="scale(0.015625)"/>
       </defs>
       <use xlink:href="#DejaVuSans-13"/>
       <use xlink:href="#DejaVuSans-11" transform="translate(63.625 0)"/>
       <use xlink:href="#DejaVuSans-14" transform="translate(95.40625 0)"/>
      </g>
     </g>
    </g>
    <g id="xtick_3">
     <g id="line2d_5">
      <path d="M 277.565003 242.433437 
L 277.565003 22.318125 
" clip-path="url(#pb6817ec80f)" style="fill: none; stroke: #b0b0b0; stroke-opacity: 0.3; stroke-width: 0.8; stroke-linecap: square"/>
     </g>
     <g id="line2d_6">
      <g>
       <use xlink:href="#m98ea4268a8" x="277.565003" y="242.433437" style="stroke: #000000; stroke-width: 0.8"/>
      </g>
     </g>
     <g id="text_3">
      <!-- 0.2 -->
      <g transform="translate(269.61344 257.031094) scale(0.1 -0.1)">
       <defs>
        <path id="DejaVuSans-15" d="M 1228 531 
L 3431 531 
L 3431 0 
L 469 0 
L 469 531 
Q 828 903 1448 1529 
Q 2069 2156 2228 2338 
Q 2531 2678 2651 2914 
Q 2772 3150 2772 3378 
Q 2772 3750 2511 3984 
Q 2250 4219 1831 4219 
Q 1534 4219 1204 4116 
Q 875 4013 500 3803 
L 500 4441 
Q 881 4594 1212 4672 
Q 1544 4750 1819 4750 
Q 2544 4750 2975 4387 
Q 3406 4025 3406 3419 
Q 3406 3131 3298 2873 
Q 3191 2616 2906 2266 
Q 2828 2175 2409 1742 
Q 1991 1309 1228 531 
z
" transform="scale(0.015625)"/>
       </defs>
       <use xlink:href="#DejaVuSans-13"/>
       <use xlink:href="#DejaVuSans-11" transform="translate(63.625 0)"/>
       <use xlink:href="#DejaVuSans-15" transform="translate(95.40625 0)"/>
      </g>
     </g>
    </g>
    <g id="xtick_4">
     <g id="line2d_7">
      <path d="M 367.445959 242.433437 
L 367.445959 22.318125 
" clip-path="url(#pb6817ec80f)" style="fill: none; stroke: #b0b0b0; stroke-opacity: 0.3; stroke-width: 0.8; stroke-linecap: square"/>
     </g>
     <g id="line2d_8">
      <g>
       <use xlink:href="#m98ea4268a8" x="367.445959" y="242.433437" style="stroke: #000000; stroke-width: 0.8"/>
      </g>
     </g>
     <g id="text_4">
      <!-- 0.3 -->
      <g transform="translate(359.494397 257.031094) scale(0.1 -0.1)">
       <defs>
        <path id="DejaVuSans-16" d="M 2597 2516 
Q 3050 2419 3304 2112 
Q 3559 1806 3559 1356 
Q 3559 666 3084 287 
Q 2609 -91 1734 -91 
Q 1441 -91 1130 -33 
Q 819 25 488 141 
L 488 750 
Q 750 597 1062 519 
Q 1375 441 1716 441 
Q 2309 441 2620 675 
Q 2931 909 2931 1356 
Q 2931 1769 2642 2001 
Q 2353 2234 1838 2234 
L 1294 2234 
L 1294 2753 
L 1863 2753 
Q 2328 2753 2575 2939 
Q 2822 3125 2822 3475 
Q 2822 3834 2567 4026 
Q 2313 4219 1838 4219 
Q 1578 4219 1281 4162 
Q 984 4106 628 3988 
L 628 4550 
Q 988 4650 1302 4700 
Q 1616 4750 1894 4750 
Q 2613 4750 3031 4423 
Q 3450 4097 3450 3541 
Q 3450 3153 3228 2886 
Q 3006 2619 2597 2516 
z
" transform="scale(0.015625)"/>
       </defs>
       <use xlink:href="#DejaVuSans-13"/>
       <use xlink:href="#DejaVuSans-11" transform="translate(63.625 0)"/>
       <use xlink:href="#DejaVuSans-16" transform="translate(95.40625 0)"/>
      </g>
     </g>
    </g>
    <g id="xtick_5">
     <g id="line2d_9">
      <path d="M 457.326916 242.433437 
L 457.326916 22.318125 
" clip-path="url(#pb6817ec80f)" style="fill: none; stroke: #b0b0b0; stroke-opacity: 0.3; stroke-width: 0.8; stroke-linecap: square"/>
     </g>
     <g id="line2d_10">
      <g>
       <use xlink:href="#m98ea4268a8" x="457.326916" y="242.433437" style="stroke: #000000; stroke-width: 0.8"/>
      </g>
     </g>
     <g id="text_5">
      <!-- 0.4 -->
      <g transform="translate(449.375354 257.031094) scale(0.1 -0.1)">
       <defs>
        <path id="DejaVuSans-17" d="M 2419 4116 
L 825 1625 
L 2419 1625 
L 2419 4116 
z
M 2253 4666 
L 3047 4666 
L 3047 1625 
L 3713 1625 
L 3713 1100 
L 3047 1100 
L 3047 0 
L 2419 0 
L 2419 1100 
L 313 1100 
L 313 1709 
L 2253 4666 
z
" transform="scale(0.015625)"/>
       </defs>
       <use xlink:href="#DejaVuSans-13"/>
       <use xlink:href="#DejaVuSans-11" transform="translate(63.625 0)"/>
       <use xlink:href="#DejaVuSans-17" transform="translate(95.40625 0)"/>
      </g>
     </g>
    </g>
    <g id="xtick_6">
     <g id="line2d_11">
      <path d="M 547.207873 242.433437 
L 547.207873 22.318125 
" clip-path="url(#pb6817ec80f)" style="fill: none; stroke: #b0b0b0; stroke-opacity: 0.3; stroke-width: 0.8; stroke-linecap: square"/>
     </g>
     <g id="line2d_12">
      <g>
       <use xlink:href="#m98ea4268a8" x="547.207873" y="242.433437" style="stroke: #000000; stroke-width: 0.8"/>
      </g>
     </g>
     <g id="text_6">
      <!-- 0.5 -->
      <g transform="translate(539.25631 257.031094) scale(0.1 -0.1)">
       <defs>
        <path id="DejaVuSans-18" d="M 691 4666 
L 3169 4666 
L 3169 4134 
L 1269 4134 
L 1269 2991 
Q 1406 3038 1543 3061 
Q 1681 3084 1819 3084 
Q 2600 3084 3056 2656 
Q 3513 2228 3513 1497 
Q 3513 744 3044 326 
Q 2575 -91 1722 -91 
Q 1428 -91 1123 -41 
Q 819 9 494 109 
L 494 744 
Q 775 591 1075 516 
Q 1375 441 1709 441 
Q 2250 441 2565 725 
Q 2881 1009 2881 1497 
Q 2881 1984 2565 2268 
Q 2250 2553 1709 2553 
Q 1456 2553 1204 2497 
Q 953 2441 691 2322 
L 691 4666 
z
" transform="scale(0.015625)"/>
       </defs>
       <use xlink:href="#DejaVuSans-13"/>
       <use xlink:href="#DejaVuSans-11" transform="translate(63.625 0)"/>
       <use xlink:href="#DejaVuSans-18" transform="translate(95.40625 0)"/>
      </g>
     </g>
    </g>
    <g id="xtick_7">
     <g id="line2d_13">
      <path d="M 637.088829 242.433437 
L 637.088829 22.318125 
" clip-path="url(#pb6817ec80f)" style="fill: none; stroke: #b0b0b0; stroke-opacity: 0.3; stroke-width: 0.8; stroke-linecap: square"/>
     </g>
     <g id="line2d_14">
      <g>
       <use xlink:href="#m98ea4268a8" x="637.088829" y="242.433437" style="stroke: #000000; stroke-width: 0.8"/>
      </g>
     </g>
     <g id="text_7">
      <!-- 0.6 -->
      <g transform="translate(629.137267 257.031094) scale(0.1 -0.1)">
       <defs>
        <path id="DejaVuSans-19" d="M 2113 2584 
Q 1688 2584 1439 2293 
Q 1191 2003 1191 1497 
Q 1191 994 1439 701 
Q 1688 409 2113 409 
Q 2538 409 2786 701 
Q 3034 994 3034 1497 
Q 3034 2003 2786 2293 
Q 2538 2584 2113 2584 
z
M 3366 4563 
L 3366 3988 
Q 3128 4100 2886 4159 
Q 2644 4219 2406 4219 
Q 1781 4219 1451 3797 
Q 1122 3375 1075 2522 
Q 1259 2794 1537 2939 
Q 1816 3084 2150 3084 
Q 2853 3084 3261 2657 
Q 3669 2231 3669 1497 
Q 3669 778 3244 343 
Q 2819 -91 2113 -91 
Q 1303 -91 875 529 
Q 447 1150 447 2328 
Q 447 3434 972 4092 
Q 1497 4750 2381 4750 
Q 2619 4750 2861 4703 
Q 3103 4656 3366 4563 
z
" transform="scale(0.015625)"/>
       </defs>
       <use xlink:href="#DejaVuSans-13"/>
       <use xlink:href="#DejaVuSans-11" transform="translate(63.625 0)"/>
       <use xlink:href="#DejaVuSans-19" transform="translate(95.40625 0)"/>
      </g>
     </g>
    </g>
    <g id="xtick_8">
     <g id="line2d_15">
      <path d="M 726.969786 242.433437 
L 726.969786 22.318125 
" clip-path="url(#pb6817ec80f)" style="fill: none; stroke: #b0b0b0; stroke-opacity: 0.3; stroke-width: 0.8; stroke-linecap: square"/>
     </g>
     <g id="line2d_16">
      <g>
       <use xlink:href="#m98ea4268a8" x="726.969786" y="242.433437" style="stroke: #000000; stroke-width: 0.8"/>
      </g>
     </g>
     <g id="text_8">
      <!-- 0.7 -->
      <g transform="translate(719.018223 257.031094) scale(0.1 -0.1)">
       <defs>
        <path id="DejaVuSans-1a" d="M 525 4666 
L 3525 4666 
L 3525 4397 
L 1831 0 
L 1172 0 
L 2766 4134 
L 525 4134 
L 525 4666 
z
" transform="scale(0.015625)"/>
       </defs>
       <use xlink:href="#DejaVuSans-13"/>
       <use xlink:href="#DejaVuSans-11" transform="translate(63.625 0)"/>
       <use xlink:href="#DejaVuSans-1a" transform="translate(95.40625 0)"/>
      </g>
     </g>
    </g>
    <g id="xtick_9">
     <g id="line2d_17">
      <path d="M 816.850743 242.433437 
L 816.850743 22.318125 
" clip-path="url(#pb6817ec80f)" style="fill: none; stroke: #b0b0b0; stroke-opacity: 0.3; stroke-width: 0.8; stroke-linecap: square"/>
     </g>
     <g id="line2d_18">
      <g>
       <use xlink:href="#m98ea4268a8" x="816.850743" y="242.433437" style="stroke: #000000; stroke-width: 0.8"/>
      </g>
     </g>
     <g id="text_9">
      <!-- 0.8 -->
      <g transform="translate(808.89918 257.031094) scale(0.1 -0.1)">
       <defs>
        <path id="DejaVuSans-1b" d="M 2034 2216 
Q 1584 2216 1326 1975 
Q 1069 1734 1069 1313 
Q 1069 891 1326 650 
Q 1584 409 2034 409 
Q 2484 409 2743 651 
Q 3003 894 3003 1313 
Q 3003 1734 2745 1975 
Q 2488 2216 2034 2216 
z
M 1403 2484 
Q 997 2584 770 2862 
Q 544 3141 544 3541 
Q 544 4100 942 4425 
Q 1341 4750 2034 4750 
Q 2731 4750 3128 4425 
Q 3525 4100 3525 3541 
Q 3525 3141 3298 2862 
Q 3072 2584 2669 2484 
Q 3125 2378 3379 2068 
Q 3634 1759 3634 1313 
Q 3634 634 3220 271 
Q 2806 -91 2034 -91 
Q 1263 -91 848 271 
Q 434 634 434 1313 
Q 434 1759 690 2068 
Q 947 2378 1403 2484 
z
M 1172 3481 
Q 1172 3119 1398 2916 
Q 1625 2713 2034 2713 
Q 2441 2713 2670 2916 
Q 2900 3119 2900 3481 
Q 2900 3844 2670 4047 
Q 2441 4250 2034 4250 
Q 1625 4250 1398 4047 
Q 1172 3844 1172 3481 
z
" transform="scale(0.015625)"/>
       </defs>
       <use xlink:href="#DejaVuSans-13"/>
       <use xlink:href="#DejaVuSans-11" transform="translate(63.625 0)"/>
       <use xlink:href="#DejaVuSans-1b" transform="translate(95.40625 0)"/>
      </g>
     </g>
    </g>
    <g id="text_10">
     <!-- Lag (s) -->
     <g transform="translate(438.409766 271.031094) scale(0.1 -0.1)">
      <defs>
       <path id="DejaVuSans-2f" d="M 628 4666 
L 1259 4666 
L 1259 531 
L 3531 531 
L 3531 0 
L 628 0 
L 628 4666 
z
" transform="scale(0.015625)"/>
       <path id="DejaVuSans-44" d="M 2194 1759 
Q 1497 1759 1228 1600 
Q 959 1441 959 1056 
Q 959 750 1161 570 
Q 1363 391 1709 391 
Q 2188 391 2477 730 
Q 2766 1069 2766 1631 
L 2766 1759 
L 2194 1759 
z
M 3341 1997 
L 3341 0 
L 2766 0 
L 2766 531 
Q 2569 213 2275 61 
Q 1981 -91 1556 -91 
Q 1019 -91 701 211 
Q 384 513 384 1019 
Q 384 1609 779 1909 
Q 1175 2209 1959 2209 
L 2766 2209 
L 2766 2266 
Q 2766 2663 2505 2880 
Q 2244 3097 1772 3097 
Q 1472 3097 1187 3025 
Q 903 2953 641 2809 
L 641 3341 
Q 956 3463 1253 3523 
Q 1550 3584 1831 3584 
Q 2591 3584 2966 3190 
Q 3341 2797 3341 1997 
z
" transform="scale(0.015625)"/>
       <path id="DejaVuSans-4a" d="M 2906 1791 
Q 2906 2416 2648 2759 
Q 2391 3103 1925 3103 
Q 1463 3103 1205 2759 
Q 947 2416 947 1791 
Q 947 1169 1205 825 
Q 1463 481 1925 481 
Q 2391 481 2648 825 
Q 2906 1169 2906 1791 
z
M 3481 434 
Q 3481 -459 3084 -895 
Q 2688 -1331 1869 -1331 
Q 1566 -1331 1297 -1286 
Q 1028 -1241 775 -1147 
L 775 -588 
Q 1028 -725 1275 -790 
Q 1522 -856 1778 -856 
Q 2344 -856 2625 -561 
Q 2906 -266 2906 331 
L 2906 616 
Q 2728 306 2450 153 
Q 2172 0 1784 0 
Q 1141 0 747 490 
Q 353 981 353 1791 
Q 353 2603 747 3093 
Q 1141 3584 1784 3584 
Q 2172 3584 2450 3431 
Q 2728 3278 2906 2969 
L 2906 3500 
L 3481 3500 
L 3481 434 
z
" transform="scale(0.015625)"/>
       <path id="DejaVuSans-3" transform="scale(0.015625)"/>
       <path id="DejaVuSans-b" d="M 1984 4856 
Q 1566 4138 1362 3434 
Q 1159 2731 1159 2009 
Q 1159 1288 1364 580 
Q 1569 -128 1984 -844 
L 1484 -844 
Q 1016 -109 783 600 
Q 550 1309 550 2009 
Q 550 2706 781 3412 
Q 1013 4119 1484 4856 
L 1984 4856 
z
" transform="scale(0.015625)"/>
       <path id="DejaVuSans-56" d="M 2834 3397 
L 2834 2853 
Q 2591 2978 2328 3040 
Q 2066 3103 1784 3103 
Q 1356 3103 1142 2972 
Q 928 2841 928 2578 
Q 928 2378 1081 2264 
Q 1234 2150 1697 2047 
L 1894 2003 
Q 2506 1872 2764 1633 
Q 3022 1394 3022 966 
Q 3022 478 2636 193 
Q 2250 -91 1575 -91 
Q 1294 -91 989 -36 
Q 684 19 347 128 
L 347 722 
Q 666 556 975 473 
Q 1284 391 1588 391 
Q 1994 391 2212 530 
Q 2431 669 2431 922 
Q 2431 1156 2273 1281 
Q 2116 1406 1581 1522 
L 1381 1569 
Q 847 1681 609 1914 
Q 372 2147 372 2553 
Q 372 3047 722 3315 
Q 1072 3584 1716 3584 
Q 2034 3584 2315 3537 
Q 2597 3491 2834 3397 
z
" transform="scale(0.015625)"/>
       <path id="DejaVuSans-c" d="M 513 4856 
L 1013 4856 
Q 1481 4119 1714 3412 
Q 1947 2706 1947 2009 
Q 1947 1309 1714 600 
Q 1481 -109 1013 -844 
L 513 -844 
Q 928 -128 1133 580 
Q 1338 1288 1338 2009 
Q 1338 2731 1133 3434 
Q 928 4138 513 4856 
z
" transform="scale(0.015625)"/>
      </defs>
      <use xlink:href="#DejaVuSans-2f"/>
      <use xlink:href="#DejaVuSans-44" transform="translate(55.71875 0)"/>
      <use xlink:href="#DejaVuSans-4a" transform="translate(117 0)"/>
      <use xlink:href="#DejaVuSans-3" transform="translate(180.484375 0)"/>
      <use xlink:href="#DejaVuSans-b" transform="translate(212.265625 0)"/>
      <use xlink:href="#DejaVuSans-56" transform="translate(251.28125 0)"/>
      <use xlink:href="#DejaVuSans-c" transform="translate(303.375 0)"/>
     </g>
    </g>
   </g>
   <g id="matplotlib.axis_2">
    <g id="ytick_1">
     <g id="line2d_19">
      <path d="M 62.030469 213.546023 
L 849.028125 213.546023 
" clip-path="url(#pb6817ec80f)" style="fill: none; stroke: #b0b0b0; stroke-opacity: 0.3; stroke-width: 0.8; stroke-linecap: square"/>
     </g>
     <g id="line2d_20">
      <defs>
       <path id="m4b87a6b863" d="M 0 0 
L -3.5 0 
" style="stroke: #000000; stroke-width: 0.8"/>
      </defs>
      <g>
       <use xlink:href="#m4b87a6b863" x="62.030469" y="213.546023" style="stroke: #000000; stroke-width: 0.8"/>
      </g>
     </g>
     <g id="text_11">
      <!-- −1000 -->
      <g transform="translate(21.200781 217.344851) scale(0.1 -0.1)">
       <defs>
        <path id="DejaVuSans-c9c" d="M 678 2272 
L 4684 2272 
L 4684 1741 
L 678 1741 
L 678 2272 
z
" transform="scale(0.015625)"/>
       </defs>
       <use xlink:href="#DejaVuSans-c9c"/>
       <use xlink:href="#DejaVuSans-14" transform="translate(83.796875 0)"/>
       <use xlink:href="#DejaVuSans-13" transform="translate(147.421875 0)"/>
       <use xlink:href="#DejaVuSans-13" transform="translate(211.046875 0)"/>
       <use xlink:href="#DejaVuSans-13" transform="translate(274.671875 0)"/>
      </g>
     </g>
    </g>
    <g id="ytick_2">
     <g id="line2d_21">
      <path d="M 62.030469 173.274321 
L 849.028125 173.274321 
" clip-path="url(#pb6817ec80f)" style="fill: none; stroke: #b0b0b0; stroke-opacity: 0.3; stroke-width: 0.8; stroke-linecap: square"/>
     </g>
     <g id="line2d_22">
      <g>
       <use xlink:href="#m4b87a6b863" x="62.030469" y="173.274321" style="stroke: #000000; stroke-width: 0.8"/>
      </g>
     </g>
     <g id="text_12">
      <!-- −500 -->
      <g transform="translate(27.563281 177.07315) scale(0.1 -0.1)">
       <use xlink:href="#DejaVuSans-c9c"/>
       <use xlink:href="#DejaVuSans-18" transform="translate(83.796875 0)"/>
       <use xlink:href="#DejaVuSans-13" transform="translate(147.421875 0)"/>
       <use xlink:href="#DejaVuSans-13" transform="translate(211.046875 0)"/>
      </g>
     </g>
    </g>
    <g id="ytick_3">
     <g id="line2d_23">
      <path d="M 62.030469 133.00262 
L 849.028125 133.00262 
" clip-path="url(#pb6817ec80f)" style="fill: none; stroke: #b0b0b0; stroke-opacity: 0.3; stroke-width: 0.8; stroke-linecap: square"/>
     </g>
     <g id="line2d_24">
      <g>
       <use xlink:href="#m4b87a6b863" x="62.030469" y="133.00262" style="stroke: #000000; stroke-width: 0.8"/>
      </g>
     </g>
     <g id="text_13">
      <!-- 0 -->
      <g transform="translate(48.667969 136.801448) scale(0.1 -0.1)">
       <use xlink:href="#DejaVuSans-13"/>
      </g>
     </g>
    </g>
    <g id="ytick_4">
     <g id="line2d_25">
      <path d="M 62.030469 92.730919 
L 849.028125 92.730919 
" clip-path="url(#pb6817ec80f)" style="fill: none; stroke: #b0b0b0; stroke-opacity: 0.3; stroke-width: 0.8; stroke-linecap: square"/>
     </g>
     <g id="line2d_26">
      <g>
       <use xlink:href="#m4b87a6b863" x="62.030469" y="92.730919" style="stroke: #000000; stroke-width: 0.8"/>
      </g>
     </g>
     <g id="text_14">
      <!-- 500 -->
      <g transform="translate(35.942969 96.529747) scale(0.1 -0.1)">
       <use xlink:href="#DejaVuSans-18"/>
       <use xlink:href="#DejaVuSans-13" transform="translate(63.625 0)"/>
       <use xlink:href="#DejaVuSans-13" transform="translate(127.25 0)"/>
      </g>
     </g>
    </g>
    <g id="ytick_5">
     <g id="line2d_27">
      <path d="M 62.030469 52.459217 
L 849.028125 52.459217 
" clip-path="url(#pb6817ec80f)" style="fill: none; stroke: #b0b0b0; stroke-opacity: 0.3; stroke-width: 0.8; stroke-linecap: square"/>
     </g>
     <g id="line2d_28">
      <g>
       <use xlink:href="#m4b87a6b863" x="62.030469" y="52.459217" style="stroke: #000000; stroke-width: 0.8"/>
      </g>
     </g>
     <g id="text_15">
      <!-- 1000 -->
      <g transform="translate(29.580469 56.258045) scale(0.1 -0.1)">
       <use xlink:href="#DejaVuSans-14"/>
       <use xlink:href="#DejaVuSans-13" transform="translate(63.625 0)"/>
       <use xlink:href="#DejaVuSans-13" transform="translate(127.25 0)"/>
       <use xlink:href="#DejaVuSans-13" transform="translate(190.875 0)"/>
      </g>
     </g>
    </g>
    <g id="text_16">
     <!-- r[l] -->
     <g transform="translate(14.798437 139.721875) rotate(-90) scale(0.1 -0.1)">
      <defs>
       <path id="DejaVuSans-55" d="M 2631 2963 
Q 2534 3019 2420 3045 
Q 2306 3072 2169 3072 
Q 1681 3072 1420 2755 
Q 1159 2438 1159 1844 
L 1159 0 
L 581 0 
L 581 3500 
L 1159 3500 
L 1159 2956 
Q 1341 3275 1631 3429 
Q 1922 3584 2338 3584 
Q 2397 3584 2469 3576 
Q 2541 3569 2628 3553 
L 2631 2963 
z
" transform="scale(0.015625)"/>
       <path id="DejaVuSans-3e" d="M 550 4863 
L 1875 4863 
L 1875 4416 
L 1125 4416 
L 1125 -397 
L 1875 -397 
L 1875 -844 
L 550 -844 
L 550 4863 
z
" transform="scale(0.015625)"/>
       <path id="DejaVuSans-4f" d="M 603 4863 
L 1178 4863 
L 1178 0 
L 603 0 
L 603 4863 
z
" transform="scale(0.015625)"/>
       <path id="DejaVuSans-40" d="M 1947 4863 
L 1947 -844 
L 622 -844 
L 622 -397 
L 1369 -397 
L 1369 4416 
L 622 4416 
L 622 4863 
L 1947 4863 
z
" transform="scale(0.015625)"/>
      </defs>
      <use xlink:href="#DejaVuSans-55"/>
      <use xlink:href="#DejaVuSans-3e" transform="translate(41.109375 0)"/>
      <use xlink:href="#DejaVuSans-4f" transform="translate(80.125 0)"/>
      <use xlink:href="#DejaVuSans-40" transform="translate(107.90625 0)"/>
     </g>
    </g>
   </g>
   <g id="line2d_29">
    <path d="M 97.803089 32.323366 
L 101.398328 35.564403 
L 104.993566 44.92286 
L 108.588804 59.806043 
L 112.184043 79.274724 
L 115.779281 102.102414 
L 126.564996 175.874507 
L 130.160234 197.067814 
L 133.755472 214.220235 
L 137.35071 226.257682 
L 140.945949 232.428196 
L 144.541187 232.348925 
L 148.136425 226.029871 
L 151.731663 213.872947 
L 155.326902 196.646416 
L 158.92214 175.436344 
L 162.517378 151.57813 
L 169.707855 101.990741 
L 173.303093 79.376699 
L 176.898331 60.149083 
L 180.49357 45.512834 
L 184.088808 36.38354 
L 187.684046 33.330159 
L 191.279284 36.539566 
L 194.874523 45.805119 
L 198.469761 60.539963 
L 202.064999 79.81419 
L 205.660237 102.41353 
L 216.445952 175.445835 
L 220.041191 196.42606 
L 223.636429 213.405723 
L 227.231667 225.32159 
L 230.826905 231.429342 
L 234.422144 231.350072 
L 238.017382 225.093779 
L 241.61262 213.058435 
L 245.207858 196.004662 
L 248.803097 175.007673 
L 252.398335 151.389476 
L 259.588811 102.301857 
L 263.18405 79.916165 
L 266.779288 60.883003 
L 270.374526 46.395093 
L 273.969764 37.358702 
L 277.565003 34.336952 
L 281.160241 37.514728 
L 284.755479 46.687378 
L 288.350718 61.273883 
L 291.945956 80.353657 
L 295.541194 102.724646 
L 306.326909 175.017164 
L 309.922147 195.784306 
L 313.517385 212.591211 
L 317.112624 224.385498 
L 320.707862 230.430489 
L 324.3031 230.351218 
L 327.898338 224.157687 
L 331.493577 212.243922 
L 335.088815 195.362908 
L 338.684053 174.579002 
L 342.279292 151.200822 
L 349.469768 102.612973 
L 353.065006 80.455632 
L 356.660245 61.616923 
L 360.255483 47.277352 
L 363.850721 38.333864 
L 367.445959 35.343744 
L 371.041198 38.48989 
L 374.636436 47.569637 
L 378.231674 62.007803 
L 381.826912 80.893123 
L 385.422151 103.035762 
L 396.207865 174.588492 
L 399.803104 195.142552 
L 403.398342 211.776698 
L 406.99358 223.449406 
L 410.588819 229.431635 
L 414.184057 229.352364 
L 417.779295 223.221595 
L 421.374533 211.42941 
L 424.969772 194.721155 
L 428.56501 174.15033 
L 432.160248 151.012168 
L 439.350725 102.924089 
L 442.945963 80.995098 
L 446.541201 62.350843 
L 450.136439 48.159611 
L 453.731678 39.309027 
L 457.326916 36.350537 
L 460.922154 39.465053 
L 464.517393 48.451896 
L 468.112631 62.741724 
L 471.707869 81.43259 
L 475.303107 103.346878 
L 486.088822 174.159821 
L 489.68406 194.500799 
L 493.279299 210.962186 
L 496.874537 222.513314 
L 500.469775 228.432781 
L 504.065013 228.353511 
L 507.660252 222.285503 
L 511.25549 210.614898 
L 514.850728 194.079401 
L 518.445967 173.721659 
L 522.041205 150.823514 
L 529.231681 103.235205 
L 532.82692 81.534565 
L 536.422158 63.084763 
L 540.017396 49.04187 
L 543.612634 40.284189 
L 547.207873 37.357329 
L 550.803111 40.440215 
L 554.398349 49.334156 
L 557.993587 63.475644 
L 561.588826 81.972056 
L 565.184064 103.657994 
L 575.969779 173.73115 
L 579.565017 193.859045 
L 583.160255 210.147674 
L 586.755494 221.577221 
L 590.350732 227.433928 
L 593.94597 227.354657 
L 597.541208 221.349411 
L 601.136447 209.800385 
L 604.731685 193.437647 
L 608.326923 173.292987 
L 611.922161 150.63486 
L 619.112638 103.546321 
L 622.707876 82.074031 
L 626.303114 63.818684 
L 629.898353 49.924129 
L 633.493591 41.259351 
L 637.088829 38.364122 
L 640.684068 41.415377 
L 644.279306 50.216415 
L 647.874544 64.209564 
L 651.469782 82.511522 
L 655.065021 103.96911 
L 665.850735 173.302478 
L 669.445974 193.217291 
L 673.041212 209.333161 
L 676.63645 220.641129 
L 680.231688 226.435074 
L 683.826927 226.355803 
L 687.422165 220.413319 
L 691.017403 208.985873 
L 694.612642 192.795893 
L 698.20788 172.864316 
L 701.803118 150.446206 
L 708.993595 103.857437 
L 712.588833 82.613497 
L 716.184071 64.552604 
L 719.779309 50.806388 
L 723.374548 42.234513 
L 726.969786 39.370914 
L 730.565024 42.390539 
L 734.160262 51.098674 
L 737.755501 64.943484 
L 741.350739 83.050989 
L 744.945977 104.280226 
L 755.731692 172.873807 
L 759.32693 192.575538 
L 762.922169 208.518649 
L 766.517407 219.705037 
L 770.112645 225.43622 
L 773.707883 225.35695 
L 777.303122 219.477227 
L 780.89836 208.171361 
L 784.493598 192.15414 
L 788.088836 172.435645 
L 791.684075 150.257551 
L 798.874551 104.168553 
L 802.469789 83.152964 
L 806.065028 65.286524 
L 809.660266 51.688647 
L 813.255504 43.209676 
L 813.255504 43.209676 
" clip-path="url(#pb6817ec80f)" style="fill: none; stroke: #1f77b4; stroke-opacity: 0.8; stroke-linecap: square"/>
   </g>
   <g id="line2d_30">
    <path d="M 97.803089 32.323366 
L 101.398328 35.564403 
L 104.993566 44.92286 
L 108.588804 59.806043 
L 112.184043 79.274724 
L 115.779281 102.102414 
L 126.564996 175.874507 
L 130.160234 197.067814 
L 133.755472 214.220235 
L 137.35071 226.257682 
L 140.945949 232.428196 
L 144.541187 232.348925 
L 148.136425 226.029871 
L 151.731663 213.872947 
L 155.326902 196.646416 
L 158.92214 175.436344 
L 162.517378 151.57813 
L 169.707855 101.990741 
L 173.303093 79.376699 
L 176.898331 60.149083 
L 180.49357 45.512834 
L 184.088808 36.38354 
L 187.684046 33.330159 
L 191.279284 36.539566 
L 194.874523 45.805119 
L 198.469761 60.539963 
L 202.064999 79.81419 
L 205.660237 102.41353 
L 216.445952 175.445835 
L 220.041191 196.42606 
L 223.636429 213.405723 
L 227.231667 225.32159 
L 230.826905 231.429342 
L 234.422144 231.350072 
L 238.017382 225.093779 
L 241.61262 213.058435 
L 245.207858 196.004662 
L 248.803097 175.007673 
L 252.398335 151.389476 
L 259.588811 102.301857 
L 263.18405 79.916165 
L 266.779288 60.883003 
L 270.374526 46.395093 
L 273.969764 37.358702 
L 277.565003 34.336952 
L 281.160241 37.514728 
L 284.755479 46.687378 
L 288.350718 61.273883 
L 291.945956 80.353657 
L 295.541194 102.724646 
L 306.326909 175.017164 
L 309.922147 195.784306 
L 313.517385 212.591211 
L 317.112624 224.385498 
L 320.707862 230.430489 
L 324.3031 230.351218 
L 327.898338 224.157687 
L 331.493577 212.243922 
L 335.088815 195.362908 
L 338.684053 174.579002 
L 342.279292 151.200822 
L 349.469768 102.612973 
L 353.065006 80.455632 
L 356.660245 61.616923 
L 360.255483 47.277352 
L 363.850721 38.333864 
L 367.445959 35.343744 
L 371.041198 38.48989 
L 374.636436 47.569637 
L 378.231674 62.007803 
L 381.826912 80.893123 
L 385.422151 103.035762 
L 396.207865 174.588492 
L 399.803104 195.142552 
L 403.398342 211.776698 
L 406.99358 223.449406 
L 410.588819 229.431635 
L 414.184057 229.352364 
L 417.779295 223.221595 
L 421.374533 211.42941 
L 424.969772 194.721155 
L 428.56501 174.15033 
L 432.160248 151.012168 
L 439.350725 102.924089 
L 442.945963 80.995098 
L 446.541201 62.350843 
L 450.136439 48.159611 
L 453.731678 39.309027 
L 457.326916 36.350537 
L 460.922154 39.465053 
L 464.517393 48.451896 
L 468.112631 62.741724 
L 471.707869 81.43259 
L 475.303107 103.346878 
L 486.088822 174.159821 
L 489.68406 194.500799 
L 493.279299 210.962186 
L 496.874537 222.513314 
L 500.469775 228.432781 
L 504.065013 228.353511 
L 507.660252 222.285503 
L 511.25549 210.614898 
L 514.850728 194.079401 
L 518.445967 173.721659 
L 522.041205 150.823514 
L 529.231681 103.235205 
L 532.82692 81.534565 
L 536.422158 63.084763 
L 540.017396 49.04187 
L 543.612634 40.284189 
L 547.207873 37.357329 
L 550.803111 40.440215 
L 554.398349 49.334156 
L 557.993587 63.475644 
L 561.588826 81.972056 
L 565.184064 103.657994 
L 575.969779 173.73115 
L 579.565017 193.859045 
L 583.160255 210.147674 
L 586.755494 221.577221 
L 590.350732 227.433928 
L 593.94597 227.354657 
L 597.541208 221.349411 
L 601.136447 209.800385 
L 604.731685 193.437647 
L 608.326923 173.292987 
L 611.922161 150.63486 
L 619.112638 103.546321 
L 622.707876 82.074031 
L 626.303114 63.818684 
L 629.898353 49.924129 
L 633.493591 41.259351 
L 637.088829 38.364122 
L 640.684068 41.415377 
L 644.279306 50.216415 
L 647.874544 64.209564 
L 651.469782 82.511522 
L 655.065021 103.96911 
L 665.850735 173.302478 
L 669.445974 193.217291 
L 673.041212 209.333161 
L 676.63645 220.641129 
L 680.231688 226.435074 
L 683.826927 226.355803 
L 687.422165 220.413319 
L 691.017403 208.985873 
L 694.612642 192.795893 
L 698.20788 172.864316 
L 701.803118 150.446206 
L 708.993595 103.857437 
L 712.588833 82.613497 
L 716.184071 64.552604 
L 719.779309 50.806388 
L 723.374548 42.234513 
L 726.969786 39.370914 
L 730.565024 42.390539 
L 734.160262 51.098674 
L 737.755501 64.943484 
L 741.350739 83.050989 
L 744.945977 104.280226 
L 755.731692 172.873807 
L 759.32693 192.575538 
L 762.922169 208.518649 
L 766.517407 219.705037 
L 770.112645 225.43622 
L 773.707883 225.35695 
L 777.303122 219.477227 
L 780.89836 208.171361 
L 784.493598 192.15414 
L 788.088836 172.435645 
L 791.684075 150.257551 
L 798.874551 104.168553 
L 802.469789 83.152964 
L 806.065028 65.286524 
L 809.660266 51.688647 
L 813.255504 43.209676 
L 813.255504 43.209676 
" clip-path="url(#pb6817ec80f)" style="fill: none; stroke-dasharray: 3.7,1.6; stroke-dashoffset: 0; stroke: #ff7f0e; stroke-opacity: 0.8"/>
   </g>
   <g id="patch_3">
    <path d="M 62.030469 242.433437 
L 62.030469 22.318125 
" style="fill: none; stroke: #000000; stroke-width: 0.8; stroke-linejoin: miter; stroke-linecap: square"/>
   </g>
   <g id="patch_4">
    <path d="M 849.028125 242.433437 
L 849.028125 22.318125 
" style="fill: none; stroke: #000000; stroke-width: 0.8; stroke-linejoin: miter; stroke-linecap: square"/>
   </g>
   <g id="patch_5">
    <path d="M 62.030469 242.433437 
L 849.028125 242.433437 
" style="fill: none; stroke: #000000; stroke-width: 0.8; stroke-linejoin: miter; stroke-linecap: square"/>
   </g>
   <g id="patch_6">
    <path d="M 62.030469 22.318125 
L 849.028125 22.318125 
" style="fill: none; stroke: #000000; stroke-width: 0.8; stroke-linejoin: miter; stroke-linecap: square"/>
   </g>
   <g id="text_17">
    <!-- Autocorrelation: φ = 0 vs φ = π (identical) -->
    <g transform="translate(329.735547 16.318125) scale(0.12 -0.12)">
     <defs>
      <path id="DejaVuSans-24" d="M 2188 4044 
L 1331 1722 
L 3047 1722 
L 2188 4044 
z
M 1831 4666 
L 2547 4666 
L 4325 0 
L 3669 0 
L 3244 1197 
L 1141 1197 
L 716 0 
L 50 0 
L 1831 4666 
z
" transform="scale(0.015625)"/>
      <path id="DejaVuSans-58" d="M 544 1381 
L 544 3500 
L 1119 3500 
L 1119 1403 
Q 1119 906 1312 657 
Q 1506 409 1894 409 
Q 2359 409 2629 706 
Q 2900 1003 2900 1516 
L 2900 3500 
L 3475 3500 
L 3475 0 
L 2900 0 
L 2900 538 
Q 2691 219 2414 64 
Q 2138 -91 1772 -91 
Q 1169 -91 856 284 
Q 544 659 544 1381 
z
M 1991 3584 
L 1991 3584 
z
" transform="scale(0.015625)"/>
      <path id="DejaVuSans-57" d="M 1172 4494 
L 1172 3500 
L 2356 3500 
L 2356 3053 
L 1172 3053 
L 1172 1153 
Q 1172 725 1289 603 
Q 1406 481 1766 481 
L 2356 481 
L 2356 0 
L 1766 0 
Q 1100 0 847 248 
Q 594 497 594 1153 
L 594 3053 
L 172 3053 
L 172 3500 
L 594 3500 
L 594 4494 
L 1172 4494 
z
" transform="scale(0.015625)"/>
      <path id="DejaVuSans-52" d="M 1959 3097 
Q 1497 3097 1228 2736 
Q 959 2375 959 1747 
Q 959 1119 1226 758 
Q 1494 397 1959 397 
Q 2419 397 2687 759 
Q 2956 1122 2956 1747 
Q 2956 2369 2687 2733 
Q 2419 3097 1959 3097 
z
M 1959 3584 
Q 2709 3584 3137 3096 
Q 3566 2609 3566 1747 
Q 3566 888 3137 398 
Q 2709 -91 1959 -91 
Q 1206 -91 779 398 
Q 353 888 353 1747 
Q 353 2609 779 3096 
Q 1206 3584 1959 3584 
z
" transform="scale(0.015625)"/>
      <path id="DejaVuSans-46" d="M 3122 3366 
L 3122 2828 
Q 2878 2963 2633 3030 
Q 2388 3097 2138 3097 
Q 1578 3097 1268 2742 
Q 959 2388 959 1747 
Q 959 1106 1268 751 
Q 1578 397 2138 397 
Q 2388 397 2633 464 
Q 2878 531 3122 666 
L 3122 134 
Q 2881 22 2623 -34 
Q 2366 -91 2075 -91 
Q 1284 -91 818 406 
Q 353 903 353 1747 
Q 353 2603 823 3093 
Q 1294 3584 2113 3584 
Q 2378 3584 2631 3529 
Q 2884 3475 3122 3366 
z
" transform="scale(0.015625)"/>
      <path id="DejaVuSans-48" d="M 3597 1894 
L 3597 1613 
L 953 1613 
Q 991 1019 1311 708 
Q 1631 397 2203 397 
Q 2534 397 2845 478 
Q 3156 559 3463 722 
L 3463 178 
Q 3153 47 2828 -22 
Q 2503 -91 2169 -91 
Q 1331 -91 842 396 
Q 353 884 353 1716 
Q 353 2575 817 3079 
Q 1281 3584 2069 3584 
Q 2775 3584 3186 3129 
Q 3597 2675 3597 1894 
z
M 3022 2063 
Q 3016 2534 2758 2815 
Q 2500 3097 2075 3097 
Q 1594 3097 1305 2825 
Q 1016 2553 972 2059 
L 3022 2063 
z
" transform="scale(0.015625)"/>
      <path id="DejaVuSans-4c" d="M 603 3500 
L 1178 3500 
L 1178 0 
L 603 0 
L 603 3500 
z
M 603 4863 
L 1178 4863 
L 1178 4134 
L 603 4134 
L 603 4863 
z
" transform="scale(0.015625)"/>
      <path id="DejaVuSans-51" d="M 3513 2113 
L 3513 0 
L 2938 0 
L 2938 2094 
Q 2938 2591 2744 2837 
Q 2550 3084 2163 3084 
Q 1697 3084 1428 2787 
Q 1159 2491 1159 1978 
L 1159 0 
L 581 0 
L 581 3500 
L 1159 3500 
L 1159 2956 
Q 1366 3272 1645 3428 
Q 1925 3584 2291 3584 
Q 2894 3584 3203 3211 
Q 3513 2838 3513 2113 
z
" transform="scale(0.015625)"/>
      <path id="DejaVuSans-1d" d="M 750 794 
L 1409 794 
L 1409 0 
L 750 0 
L 750 794 
z
M 750 3309 
L 1409 3309 
L 1409 2516 
L 750 2516 
L 750 3309 
z
" transform="scale(0.015625)"/>
      <path id="DejaVuSans-35a" d="M 2591 3034 
Q 2388 3034 2388 2581 
L 2388 438 
Q 2684 438 2981 763 
Q 3247 1053 3247 1750 
Q 3247 2400 2978 2750 
Q 2759 3034 2591 3034 
z
M 2591 3525 
Q 3028 3525 3425 3113 
Q 3853 2672 3853 1750 
Q 3853 903 3425 400 
Q 3022 -75 2388 -75 
L 2388 -1331 
L 1816 -1331 
L 1816 -78 
Q 1194 -78 775 400 
Q 350 888 350 1747 
Q 350 2641 775 3097 
Q 1094 3438 1613 3525 
L 1613 3016 
Q 1406 2944 1225 2700 
Q 956 2341 956 1747 
Q 956 1116 1225 756 
Q 1466 434 1816 434 
L 1816 2581 
Q 1816 3525 2591 3525 
z
" transform="scale(0.015625)"/>
      <path id="DejaVuSans-20" d="M 678 2906 
L 4684 2906 
L 4684 2381 
L 678 2381 
L 678 2906 
z
M 678 1631 
L 4684 1631 
L 4684 1100 
L 678 1100 
L 678 1631 
z
" transform="scale(0.015625)"/>
      <path id="DejaVuSans-59" d="M 191 3500 
L 800 3500 
L 1894 563 
L 2988 3500 
L 3597 3500 
L 2284 0 
L 1503 0 
L 191 3500 
z
" transform="scale(0.015625)"/>
      <path id="DejaVuSans-354" d="M 231 3500 
L 3584 3500 
L 3584 2925 
L 3144 2925 
L 3144 775 
Q 3144 550 3220 451 
Q 3297 353 3469 353 
Q 3516 353 3584 361 
Q 3653 369 3675 372 
L 3675 -44 
Q 3566 -84 3450 -103 
Q 3334 -122 3219 -122 
Q 2844 -122 2700 83 
Q 2556 288 2556 838 
L 2556 2925 
L 1266 2925 
L 1266 0 
L 678 0 
L 678 2925 
L 231 2925 
L 231 3500 
z
" transform="scale(0.015625)"/>
      <path id="DejaVuSans-47" d="M 2906 2969 
L 2906 4863 
L 3481 4863 
L 3481 0 
L 2906 0 
L 2906 525 
Q 2725 213 2448 61 
Q 2172 -91 1784 -91 
Q 1150 -91 751 415 
Q 353 922 353 1747 
Q 353 2572 751 3078 
Q 1150 3584 1784 3584 
Q 2172 3584 2448 3432 
Q 2725 3281 2906 2969 
z
M 947 1747 
Q 947 1113 1208 752 
Q 1469 391 1925 391 
Q 2381 391 2643 752 
Q 2906 1113 2906 1747 
Q 2906 2381 2643 2742 
Q 2381 3103 1925 3103 
Q 1469 3103 1208 2742 
Q 947 2381 947 1747 
z
" transform="scale(0.015625)"/>
     </defs>
     <use xlink:href="#DejaVuSans-24"/>
     <use xlink:href="#DejaVuSans-58" transform="translate(68.40625 0)"/>
     <use xlink:href="#DejaVuSans-57" transform="translate(131.78125 0)"/>
     <use xlink:href="#DejaVuSans-52" transform="translate(170.984375 0)"/>
     <use xlink:href="#DejaVuSans-46" transform="translate(232.171875 0)"/>
     <use xlink:href="#DejaVuSans-52" transform="translate(287.15625 0)"/>
     <use xlink:href="#DejaVuSans-55" transform="translate(348.34375 0)"/>
     <use xlink:href="#DejaVuSans-55" transform="translate(387.703125 0)"/>
     <use xlink:href="#DejaVuSans-48" transform="translate(426.609375 0)"/>
     <use xlink:href="#DejaVuSans-4f" transform="translate(488.140625 0)"/>
     <use xlink:href="#DejaVuSans-44" transform="translate(515.921875 0)"/>
     <use xlink:href="#DejaVuSans-57" transform="translate(577.203125 0)"/>
     <use xlink:href="#DejaVuSans-4c" transform="translate(616.40625 0)"/>
     <use xlink:href="#DejaVuSans-52" transform="translate(644.1875 0)"/>
     <use xlink:href="#DejaVuSans-51" transform="translate(705.375 0)"/>
     <use xlink:href="#DejaVuSans-1d" transform="translate(768.75 0)"/>
     <use xlink:href="#DejaVuSans-3" transform="translate(802.4375 0)"/>
     <use xlink:href="#DejaVuSans-35a" transform="translate(834.21875 0)"/>
     <use xlink:href="#DejaVuSans-3" transform="translate(900.1875 0)"/>
     <use xlink:href="#DejaVuSans-20" transform="translate(931.96875 0)"/>
     <use xlink:href="#DejaVuSans-3" transform="translate(1015.765625 0)"/>
     <use xlink:href="#DejaVuSans-13" transform="translate(1047.546875 0)"/>
     <use xlink:href="#DejaVuSans-3" transform="translate(1111.171875 0)"/>
     <use xlink:href="#DejaVuSans-59" transform="translate(1142.953125 0)"/>
     <use xlink:href="#DejaVuSans-56" transform="translate(1202.140625 0)"/>
     <use xlink:href="#DejaVuSans-3" transform="translate(1254.234375 0)"/>
     <use xlink:href="#DejaVuSans-35a" transform="translate(1286.015625 0)"/>
     <use xlink:href="#DejaVuSans-3" transform="translate(1351.984375 0)"/>
     <use xlink:href="#DejaVuSans-20" transform="translate(1383.765625 0)"/>
     <use xlink:href="#DejaVuSans-3" transform="translate(1467.5625 0)"/>
     <use xlink:href="#DejaVuSans-354" transform="translate(1499.34375 0)"/>
     <use xlink:href="#DejaVuSans-3" transform="translate(1559.546875 0)"/>
     <use xlink:href="#DejaVuSans-b" transform="translate(1591.328125 0)"/>
     <use xlink:href="#DejaVuSans-4c" transform="translate(1630.34375 0)"/>
     <use xlink:href="#DejaVuSans-47" transform="translate(1658.125 0)"/>
     <use xlink:href="#DejaVuSans-48" transform="translate(1721.609375 0)"/>
     <use xlink:href="#DejaVuSans-51" transform="translate(1783.140625 0)"/>
     <use xlink:href="#DejaVuSans-57" transform="translate(1846.515625 0)"/>
     <use xlink:href="#DejaVuSans-4c" transform="translate(1885.71875 0)"/>
     <use xlink:href="#DejaVuSans-46" transform="translate(1913.5 0)"/>
     <use xlink:href="#DejaVuSans-44" transform="translate(1968.484375 0)"/>
     <use xlink:href="#DejaVuSans-4f" transform="translate(2029.765625 0)"/>
     <use xlink:href="#DejaVuSans-c" transform="translate(2057.546875 0)"/>
    </g>
   </g>
   <g id="text_18">
    <!-- Figure B.35 -->
    <g transform="translate(62.030469 16.318125) scale(0.09 -0.09)">
     <defs>
      <path id="DejaVuSans-Oblique-29" d="M 1081 4666 
L 3756 4666 
L 3653 4134 
L 1606 4134 
L 1338 2759 
L 3188 2759 
L 3084 2228 
L 1234 2228 
L 800 0 
L 172 0 
L 1081 4666 
z
" transform="scale(0.015625)"/>
      <path id="DejaVuSans-Oblique-4c" d="M 1172 4863 
L 1747 4863 
L 1606 4134 
L 1031 4134 
L 1172 4863 
z
M 909 3500 
L 1484 3500 
L 800 0 
L 225 0 
L 909 3500 
z
" transform="scale(0.015625)"/>
      <path id="DejaVuSans-Oblique-4a" d="M 3816 3500 
L 3219 434 
Q 3047 -456 2561 -893 
Q 2075 -1331 1253 -1331 
Q 950 -1331 690 -1286 
Q 431 -1241 206 -1147 
L 313 -588 
Q 525 -725 762 -790 
Q 1000 -856 1269 -856 
Q 1816 -856 2167 -557 
Q 2519 -259 2631 300 
L 2681 563 
Q 2441 288 2122 144 
Q 1803 0 1434 0 
Q 903 0 598 351 
Q 294 703 294 1319 
Q 294 1803 478 2267 
Q 663 2731 997 3091 
Q 1219 3328 1514 3456 
Q 1809 3584 2131 3584 
Q 2484 3584 2746 3420 
Q 3009 3256 3138 2956 
L 3238 3500 
L 3816 3500 
z
M 2950 2216 
Q 2950 2641 2750 2872 
Q 2550 3103 2181 3103 
Q 1953 3103 1747 3012 
Q 1541 2922 1394 2759 
Q 1156 2491 1023 2127 
Q 891 1763 891 1375 
Q 891 944 1092 712 
Q 1294 481 1672 481 
Q 2219 481 2584 976 
Q 2950 1472 2950 2216 
z
" transform="scale(0.015625)"/>
      <path id="DejaVuSans-Oblique-58" d="M 428 1388 
L 838 3500 
L 1416 3500 
L 1006 1409 
Q 975 1256 961 1147 
Q 947 1038 947 966 
Q 947 700 1109 554 
Q 1272 409 1569 409 
Q 2031 409 2368 721 
Q 2706 1034 2809 1563 
L 3194 3500 
L 3769 3500 
L 3091 0 
L 2516 0 
L 2631 550 
Q 2388 244 2052 76 
Q 1716 -91 1338 -91 
Q 878 -91 622 161 
Q 366 413 366 863 
Q 366 956 381 1097 
Q 397 1238 428 1388 
z
" transform="scale(0.015625)"/>
      <path id="DejaVuSans-Oblique-55" d="M 2853 2969 
Q 2766 3016 2653 3041 
Q 2541 3066 2413 3066 
Q 1953 3066 1609 2717 
Q 1266 2369 1153 1784 
L 800 0 
L 225 0 
L 909 3500 
L 1484 3500 
L 1375 2956 
Q 1603 3259 1920 3421 
Q 2238 3584 2597 3584 
Q 2691 3584 2781 3573 
Q 2872 3563 2963 3538 
L 2853 2969 
z
" transform="scale(0.015625)"/>
      <path id="DejaVuSans-Oblique-48" d="M 3078 2063 
Q 3088 2113 3092 2166 
Q 3097 2219 3097 2272 
Q 3097 2653 2873 2875 
Q 2650 3097 2266 3097 
Q 1838 3097 1509 2826 
Q 1181 2556 1013 2059 
L 3078 2063 
z
M 3578 1613 
L 903 1613 
Q 884 1494 878 1425 
Q 872 1356 872 1306 
Q 872 872 1139 634 
Q 1406 397 1894 397 
Q 2269 397 2603 481 
Q 2938 566 3225 728 
L 3116 159 
Q 2806 34 2476 -28 
Q 2147 -91 1806 -91 
Q 1078 -91 686 257 
Q 294 606 294 1247 
Q 294 1794 489 2264 
Q 684 2734 1063 3103 
Q 1306 3334 1642 3459 
Q 1978 3584 2356 3584 
Q 2950 3584 3301 3228 
Q 3653 2872 3653 2272 
Q 3653 2128 3634 1964 
Q 3616 1800 3578 1613 
z
" transform="scale(0.015625)"/>
      <path id="DejaVuSans-Oblique-3" transform="scale(0.015625)"/>
      <path id="DejaVuSans-Oblique-25" d="M 1081 4666 
L 2694 4666 
Q 3350 4666 3675 4422 
Q 4000 4178 4000 3688 
Q 4000 3238 3720 2911 
Q 3441 2584 2988 2516 
Q 3375 2428 3569 2181 
Q 3763 1934 3763 1522 
Q 3763 819 3242 409 
Q 2722 0 1819 0 
L 172 0 
L 1081 4666 
z
M 1234 2228 
L 903 519 
L 1919 519 
Q 2491 519 2800 781 
Q 3109 1044 3109 1522 
Q 3109 1891 2904 2059 
Q 2700 2228 2247 2228 
L 1234 2228 
z
M 1606 4147 
L 1331 2741 
L 2272 2741 
Q 2775 2741 3058 2959 
Q 3341 3178 3341 3566 
Q 3341 3869 3150 4008 
Q 2959 4147 2541 4147 
L 1606 4147 
z
" transform="scale(0.015625)"/>
      <path id="DejaVuSans-Oblique-11" d="M 525 794 
L 1184 794 
L 1031 0 
L 372 0 
L 525 794 
z
" transform="scale(0.015625)"/>
      <path id="DejaVuSans-Oblique-16" d="M 1013 4550 
Q 1356 4650 1679 4700 
Q 2003 4750 2316 4750 
Q 2934 4750 3296 4475 
Q 3659 4200 3659 3738 
Q 3659 3284 3373 2959 
Q 3088 2634 2584 2516 
Q 2978 2403 3162 2165 
Q 3347 1928 3347 1538 
Q 3347 1163 3167 834 
Q 2988 506 2650 269 
Q 2394 88 2037 -1 
Q 1681 -91 1216 -91 
Q 922 -91 622 -33 
Q 322 25 13 141 
L 128 738 
Q 422 575 720 495 
Q 1019 416 1331 416 
Q 1947 416 2330 733 
Q 2713 1050 2713 1556 
Q 2713 1881 2469 2057 
Q 2225 2234 1772 2234 
L 1228 2234 
L 1325 2747 
L 1900 2747 
Q 2419 2747 2717 2984 
Q 3016 3222 3016 3628 
Q 3016 3922 2797 4083 
Q 2578 4244 2181 4244 
Q 1881 4244 1567 4180 
Q 1253 4116 916 3988 
L 1013 4550 
z
" transform="scale(0.015625)"/>
      <path id="DejaVuSans-Oblique-18" d="M 3719 4666 
L 3622 4141 
L 1691 4141 
L 1466 2988 
Q 1609 3034 1757 3056 
Q 1906 3078 2059 3078 
Q 2706 3078 3081 2731 
Q 3456 2384 3456 1791 
Q 3456 1375 3264 994 
Q 3072 613 2719 325 
Q 2469 125 2108 17 
Q 1747 -91 1319 -91 
Q 1038 -91 744 -41 
Q 450 9 128 109 
L 244 697 
Q 531 556 820 486 
Q 1109 416 1403 416 
Q 2013 416 2411 781 
Q 2809 1147 2809 1697 
Q 2809 2103 2548 2328 
Q 2288 2553 1819 2553 
Q 1572 2553 1305 2495 
Q 1038 2438 756 2322 
L 1209 4666 
L 3719 4666 
z
" transform="scale(0.015625)"/>
     </defs>
     <use xlink:href="#DejaVuSans-Oblique-29"/>
     <use xlink:href="#DejaVuSans-Oblique-4c" transform="translate(57.515625 0)"/>
     <use xlink:href="#DejaVuSans-Oblique-4a" transform="translate(85.296875 0)"/>
     <use xlink:href="#DejaVuSans-Oblique-58" transform="translate(148.78125 0)"/>
     <use xlink:href="#DejaVuSans-Oblique-55" transform="translate(212.15625 0)"/>
     <use xlink:href="#DejaVuSans-Oblique-48" transform="translate(253.265625 0)"/>
     <use xlink:href="#DejaVuSans-Oblique-3" transform="translate(314.796875 0)"/>
     <use xlink:href="#DejaVuSans-Oblique-25" transform="translate(346.578125 0)"/>
     <use xlink:href="#DejaVuSans-Oblique-11" transform="translate(415.1875 0)"/>
     <use xlink:href="#DejaVuSans-Oblique-16" transform="translate(446.96875 0)"/>
     <use xlink:href="#DejaVuSans-Oblique-18" transform="translate(510.59375 0)"/>
    </g>
   </g>
   <g id="legend_1">
    <g id="patch_7">
     <path d="M 68.330469 237.933437 
L 122.05625 237.933437 
Q 123.85625 237.933437 123.85625 236.133437 
L 123.85625 210.032031 
Q 123.85625 208.232031 122.05625 208.232031 
L 68.330469 208.232031 
Q 66.530469 208.232031 66.530469 210.032031 
L 66.530469 236.133437 
Q 66.530469 237.933437 68.330469 237.933437 
z
" style="fill: #ffffff; opacity: 0.8; stroke: #cccccc; stroke-linejoin: miter"/>
    </g>
    <g id="line2d_31">
     <path d="M 70.130469 215.520625 
L 79.130469 215.520625 
L 88.130469 215.520625 
" style="fill: none; stroke: #1f77b4; stroke-opacity: 0.8; stroke-linecap: square"/>
    </g>
    <g id="text_19">
     <!-- φ = 0 -->
     <g transform="translate(95.330469 218.670625) scale(0.09 -0.09)">
      <use xlink:href="#DejaVuSans-35a"/>
      <use xlink:href="#DejaVuSans-3" transform="translate(65.96875 0)"/>
      <use xlink:href="#DejaVuSans-20" transform="translate(97.75 0)"/>
      <use xlink:href="#DejaVuSans-3" transform="translate(181.546875 0)"/>
      <use xlink:href="#DejaVuSans-13" transform="translate(213.328125 0)"/>
     </g>
    </g>
    <g id="line2d_32">
     <path d="M 70.130469 229.021328 
L 79.130469 229.021328 
L 88.130469 229.021328 
" style="fill: none; stroke-dasharray: 3.7,1.6; stroke-dashoffset: 0; stroke: #ff7f0e; stroke-opacity: 0.8"/>
    </g>
    <g id="text_20">
     <!-- φ = π -->
     <g transform="translate(95.330469 232.171328) scale(0.09 -0.09)">
      <use xlink:href="#DejaVuSans-35a"/>
      <use xlink:href="#DejaVuSans-3" transform="translate(65.96875 0)"/>
      <use xlink:href="#DejaVuSans-20" transform="translate(97.75 0)"/>
      <use xlink:href="#DejaVuSans-3" transform="translate(181.546875 0)"/>
      <use xlink:href="#DejaVuSans-354" transform="translate(213.328125 0)"/>
     </g>
    </g>
   </g>
  </g>
 </g>
 <defs>
  <clipPath id="pb6817ec80f">
   <rect x="62.030469" y="22.318125" width="786.997656" height="220.115313"/>
  </clipPath>
 </defs>
</svg>
