<?xml version="1.0" encoding="utf-8" standalone="no"?>
<!DOCTYPE svg PUBLIC "-//W3C//DTD SVG 1.1//EN"
  "http://www.w3.org/Graphics/SVG/1.1/DTD/svg11.dtd">
<svg xmlns:xlink="http://www.w3.org/1999/xlink" width="856.580625pt" height="208.634219pt" viewBox="0 0 856.580625 208.634219" xmlns="http://www.w3.org/2000/svg" version="1.1">
 <metadata>
  <rdf:RDF xmlns:dc="http://purl.org/dc/elements/1.1/" xmlns:cc="http://creativecommons.org/ns#" xmlns:rdf="http://www.w3.org/1999/02/22-rdf-syntax-ns#">
   <cc:Work>
    <dc:type rdf:resource="http://purl.org/dc/dcmitype/StillImage"/>
    <dc:date>2026-06-21T23:56:13.585352</dc:date>
    <dc:format>image/svg+xml</dc:format>
    <dc:creator>
     <cc:Agent>
      <dc:title>Matplotlib v3.11.0, https://matplotlib.org/</dc:title>
     </cc:Agent>
    </dc:creator>
   </cc:Work>
  </rdf:RDF>
 </metadata>
 <defs>
  <style type="text/css">*{stroke-linejoin: round; stroke-linecap: butt}</style>
 </defs>
 <g id="figure_1">
  <g id="patch_1">
   <path d="M 0 208.634219 
L 856.580625 208.634219 
L 856.580625 0 
L 0 0 
z
" style="fill: #ffffff"/>
  </g>
  <g id="axes_1">
   <g id="patch_2">
    <path d="M 42.942969 170.433438 
L 849.380625 170.433438 
L 849.380625 22.318125 
L 42.942969 22.318125 
z
" style="fill: #ffffff"/>
   </g>
   <g id="matplotlib.axis_1">
    <g id="xtick_1">
     <g id="line2d_1">
      <path d="M 79.599226 170.433438 
L 79.599226 22.318125 
" clip-path="url(#p2980a0bb02)" style="fill: none; stroke: #b0b0b0; stroke-opacity: 0.3; stroke-width: 0.8; stroke-linecap: square"/>
     </g>
     <g id="line2d_2">
      <defs>
       <path id="ma8bd456c6a" d="M 0 0 
L 0 3.5 
" style="stroke: #000000; stroke-width: 0.8"/>
      </defs>
      <g>
       <use xlink:href="#ma8bd456c6a" x="79.599226" y="170.433438" style="stroke: #000000; stroke-width: 0.8"/>
      </g>
     </g>
     <g id="text_1">
      <!-- 0.00 -->
      <g transform="translate(68.466413 185.031094) scale(0.1 -0.1)">
       <defs>
        <path id="DejaVuSans-13" d="M 2034 4250 
Q 1547 4250 1301 3770 
Q 1056 3291 1056 2328 
Q 1056 1369 1301 889 
Q 1547 409 2034 409 
Q 2525 409 2770 889 
Q 3016 1369 3016 2328 
Q 3016 3291 2770 3770 
Q 2525 4250 2034 4250 
z
M 2034 4750 
Q 2819 4750 3233 4129 
Q 3647 3509 3647 2328 
Q 3647 1150 3233 529 
Q 2819 -91 2034 -91 
Q 1250 -91 836 529 
Q 422 1150 422 2328 
Q 422 3509 836 4129 
Q 1250 4750 2034 4750 
z
" transform="scale(0.015625)"/>
        <path id="DejaVuSans-11" d="M 684 794 
L 1344 794 
L 1344 0 
L 684 0 
L 684 794 
z
" transform="scale(0.015625)"/>
       </defs>
       <use xlink:href="#DejaVuSans-13"/>
       <use xlink:href="#DejaVuSans-11" transform="translate(63.625 0)"/>
       <use xlink:href="#DejaVuSans-13" transform="translate(95.40625 0)"/>
       <use xlink:href="#DejaVuSans-13" transform="translate(159.03125 0)"/>
      </g>
     </g>
    </g>
    <g id="xtick_2">
     <g id="line2d_3">
      <path d="M 171.423517 170.433438 
L 171.423517 22.318125 
" clip-path="url(#p2980a0bb02)" style="fill: none; stroke: #b0b0b0; stroke-opacity: 0.3; stroke-width: 0.8; stroke-linecap: square"/>
     </g>
     <g id="line2d_4">
      <g>
       <use xlink:href="#ma8bd456c6a" x="171.423517" y="170.433438" style="stroke: #000000; stroke-width: 0.8"/>
      </g>
     </g>
     <g id="text_2">
      <!-- 0.25 -->
      <g transform="translate(160.290705 185.031094) scale(0.1 -0.1)">
       <defs>
        <path id="DejaVuSans-15" d="M 1228 531 
L 3431 531 
L 3431 0 
L 469 0 
L 469 531 
Q 828 903 1448 1529 
Q 2069 2156 2228 2338 
Q 2531 2678 2651 2914 
Q 2772 3150 2772 3378 
Q 2772 3750 2511 3984 
Q 2250 4219 1831 4219 
Q 1534 4219 1204 4116 
Q 875 4013 500 3803 
L 500 4441 
Q 881 4594 1212 4672 
Q 1544 4750 1819 4750 
Q 2544 4750 2975 4387 
Q 3406 4025 3406 3419 
Q 3406 3131 3298 2873 
Q 3191 2616 2906 2266 
Q 2828 2175 2409 1742 
Q 1991 1309 1228 531 
z
" transform="scale(0.015625)"/>
        <path id="DejaVuSans-18" d="M 691 4666 
L 3169 4666 
L 3169 4134 
L 1269 4134 
L 1269 2991 
Q 1406 3038 1543 3061 
Q 1681 3084 1819 3084 
Q 2600 3084 3056 2656 
Q 3513 2228 3513 1497 
Q 3513 744 3044 326 
Q 2575 -91 1722 -91 
Q 1428 -91 1123 -41 
Q 819 9 494 109 
L 494 744 
Q 775 591 1075 516 
Q 1375 441 1709 441 
Q 2250 441 2565 725 
Q 2881 1009 2881 1497 
Q 2881 1984 2565 2268 
Q 2250 2553 1709 2553 
Q 1456 2553 1204 2497 
Q 953 2441 691 2322 
L 691 4666 
z
" transform="scale(0.015625)"/>
       </defs>
       <use xlink:href="#DejaVuSans-13"/>
       <use xlink:href="#DejaVuSans-11" transform="translate(63.625 0)"/>
       <use xlink:href="#DejaVuSans-15" transform="translate(95.40625 0)"/>
       <use xlink:href="#DejaVuSans-18" transform="translate(159.03125 0)"/>
      </g>
     </g>
    </g>
    <g id="xtick_3">
     <g id="line2d_5">
      <path d="M 263.247809 170.433438 
L 263.247809 22.318125 
" clip-path="url(#p2980a0bb02)" style="fill: none; stroke: #b0b0b0; stroke-opacity: 0.3; stroke-width: 0.8; stroke-linecap: square"/>
     </g>
     <g id="line2d_6">
      <g>
       <use xlink:href="#ma8bd456c6a" x="263.247809" y="170.433438" style="stroke: #000000; stroke-width: 0.8"/>
      </g>
     </g>
     <g id="text_3">
      <!-- 0.50 -->
      <g transform="translate(252.114996 185.031094) scale(0.1 -0.1)">
       <use xlink:href="#DejaVuSans-13"/>
       <use xlink:href="#DejaVuSans-11" transform="translate(63.625 0)"/>
       <use xlink:href="#DejaVuSans-18" transform="translate(95.40625 0)"/>
       <use xlink:href="#DejaVuSans-13" transform="translate(159.03125 0)"/>
      </g>
     </g>
    </g>
    <g id="xtick_4">
     <g id="line2d_7">
      <path d="M 355.0721 170.433438 
L 355.0721 22.318125 
" clip-path="url(#p2980a0bb02)" style="fill: none; stroke: #b0b0b0; stroke-opacity: 0.3; stroke-width: 0.8; stroke-linecap: square"/>
     </g>
     <g id="line2d_8">
      <g>
       <use xlink:href="#ma8bd456c6a" x="355.0721" y="170.433438" style="stroke: #000000; stroke-width: 0.8"/>
      </g>
     </g>
     <g id="text_4">
      <!-- 0.75 -->
      <g transform="translate(343.939287 185.031094) scale(0.1 -0.1)">
       <defs>
        <path id="DejaVuSans-1a" d="M 525 4666 
L 3525 4666 
L 3525 4397 
L 1831 0 
L 1172 0 
L 2766 4134 
L 525 4134 
L 525 4666 
z
" transform="scale(0.015625)"/>
       </defs>
       <use xlink:href="#DejaVuSans-13"/>
       <use xlink:href="#DejaVuSans-11" transform="translate(63.625 0)"/>
       <use xlink:href="#DejaVuSans-1a" transform="translate(95.40625 0)"/>
       <use xlink:href="#DejaVuSans-18" transform="translate(159.03125 0)"/>
      </g>
     </g>
    </g>
    <g id="xtick_5">
     <g id="line2d_9">
      <path d="M 446.896391 170.433438 
L 446.896391 22.318125 
" clip-path="url(#p2980a0bb02)" style="fill: none; stroke: #b0b0b0; stroke-opacity: 0.3; stroke-width: 0.8; stroke-linecap: square"/>
     </g>
     <g id="line2d_10">
      <g>
       <use xlink:href="#ma8bd456c6a" x="446.896391" y="170.433438" style="stroke: #000000; stroke-width: 0.8"/>
      </g>
     </g>
     <g id="text_5">
      <!-- 1.00 -->
      <g transform="translate(435.763579 185.031094) scale(0.1 -0.1)">
       <defs>
        <path id="DejaVuSans-14" d="M 794 531 
L 1825 531 
L 1825 4091 
L 703 3866 
L 703 4441 
L 1819 4666 
L 2450 4666 
L 2450 531 
L 3481 531 
L 3481 0 
L 794 0 
L 794 531 
z
" transform="scale(0.015625)"/>
       </defs>
       <use xlink:href="#DejaVuSans-14"/>
       <use xlink:href="#DejaVuSans-11" transform="translate(63.625 0)"/>
       <use xlink:href="#DejaVuSans-13" transform="translate(95.40625 0)"/>
       <use xlink:href="#DejaVuSans-13" transform="translate(159.03125 0)"/>
      </g>
     </g>
    </g>
    <g id="xtick_6">
     <g id="line2d_11">
      <path d="M 538.720683 170.433438 
L 538.720683 22.318125 
" clip-path="url(#p2980a0bb02)" style="fill: none; stroke: #b0b0b0; stroke-opacity: 0.3; stroke-width: 0.8; stroke-linecap: square"/>
     </g>
     <g id="line2d_12">
      <g>
       <use xlink:href="#ma8bd456c6a" x="538.720683" y="170.433438" style="stroke: #000000; stroke-width: 0.8"/>
      </g>
     </g>
     <g id="text_6">
      <!-- 1.25 -->
      <g transform="translate(527.58787 185.031094) scale(0.1 -0.1)">
       <use xlink:href="#DejaVuSans-14"/>
       <use xlink:href="#DejaVuSans-11" transform="translate(63.625 0)"/>
       <use xlink:href="#DejaVuSans-15" transform="translate(95.40625 0)"/>
       <use xlink:href="#DejaVuSans-18" transform="translate(159.03125 0)"/>
      </g>
     </g>
    </g>
    <g id="xtick_7">
     <g id="line2d_13">
      <path d="M 630.544974 170.433438 
L 630.544974 22.318125 
" clip-path="url(#p2980a0bb02)" style="fill: none; stroke: #b0b0b0; stroke-opacity: 0.3; stroke-width: 0.8; stroke-linecap: square"/>
     </g>
     <g id="line2d_14">
      <g>
       <use xlink:href="#ma8bd456c6a" x="630.544974" y="170.433438" style="stroke: #000000; stroke-width: 0.8"/>
      </g>
     </g>
     <g id="text_7">
      <!-- 1.50 -->
      <g transform="translate(619.412161 185.031094) scale(0.1 -0.1)">
       <use xlink:href="#DejaVuSans-14"/>
       <use xlink:href="#DejaVuSans-11" transform="translate(63.625 0)"/>
       <use xlink:href="#DejaVuSans-18" transform="translate(95.40625 0)"/>
       <use xlink:href="#DejaVuSans-13" transform="translate(159.03125 0)"/>
      </g>
     </g>
    </g>
    <g id="xtick_8">
     <g id="line2d_15">
      <path d="M 722.369265 170.433438 
L 722.369265 22.318125 
" clip-path="url(#p2980a0bb02)" style="fill: none; stroke: #b0b0b0; stroke-opacity: 0.3; stroke-width: 0.8; stroke-linecap: square"/>
     </g>
     <g id="line2d_16">
      <g>
       <use xlink:href="#ma8bd456c6a" x="722.369265" y="170.433438" style="stroke: #000000; stroke-width: 0.8"/>
      </g>
     </g>
     <g id="text_8">
      <!-- 1.75 -->
      <g transform="translate(711.236453 185.031094) scale(0.1 -0.1)">
       <use xlink:href="#DejaVuSans-14"/>
       <use xlink:href="#DejaVuSans-11" transform="translate(63.625 0)"/>
       <use xlink:href="#DejaVuSans-1a" transform="translate(95.40625 0)"/>
       <use xlink:href="#DejaVuSans-18" transform="translate(159.03125 0)"/>
      </g>
     </g>
    </g>
    <g id="xtick_9">
     <g id="line2d_17">
      <path d="M 814.193557 170.433438 
L 814.193557 22.318125 
" clip-path="url(#p2980a0bb02)" style="fill: none; stroke: #b0b0b0; stroke-opacity: 0.3; stroke-width: 0.8; stroke-linecap: square"/>
     </g>
     <g id="line2d_18">
      <g>
       <use xlink:href="#ma8bd456c6a" x="814.193557" y="170.433438" style="stroke: #000000; stroke-width: 0.8"/>
      </g>
     </g>
     <g id="text_9">
      <!-- 2.00 -->
      <g transform="translate(803.060744 185.031094) scale(0.1 -0.1)">
       <use xlink:href="#DejaVuSans-15"/>
       <use xlink:href="#DejaVuSans-11" transform="translate(63.625 0)"/>
       <use xlink:href="#DejaVuSans-13" transform="translate(95.40625 0)"/>
       <use xlink:href="#DejaVuSans-13" transform="translate(159.03125 0)"/>
      </g>
     </g>
    </g>
    <g id="text_10">
     <!-- Time (s) -->
     <g transform="translate(425.830547 199.031875) scale(0.1 -0.1)">
      <defs>
       <path id="DejaVuSans-37" d="M -19 4666 
L 3928 4666 
L 3928 4134 
L 2272 4134 
L 2272 0 
L 1638 0 
L 1638 4134 
L -19 4134 
L -19 4666 
z
" transform="scale(0.015625)"/>
       <path id="DejaVuSans-4c" d="M 603 3500 
L 1178 3500 
L 1178 0 
L 603 0 
L 603 3500 
z
M 603 4863 
L 1178 4863 
L 1178 4134 
L 603 4134 
L 603 4863 
z
" transform="scale(0.015625)"/>
       <path id="DejaVuSans-50" d="M 3328 2828 
Q 3544 3216 3844 3400 
Q 4144 3584 4550 3584 
Q 5097 3584 5394 3201 
Q 5691 2819 5691 2113 
L 5691 0 
L 5113 0 
L 5113 2094 
Q 5113 2597 4934 2840 
Q 4756 3084 4391 3084 
Q 3944 3084 3684 2787 
Q 3425 2491 3425 1978 
L 3425 0 
L 2847 0 
L 2847 2094 
Q 2847 2600 2669 2842 
Q 2491 3084 2119 3084 
Q 1678 3084 1418 2786 
Q 1159 2488 1159 1978 
L 1159 0 
L 581 0 
L 581 3500 
L 1159 3500 
L 1159 2956 
Q 1356 3278 1631 3431 
Q 1906 3584 2284 3584 
Q 2666 3584 2933 3390 
Q 3200 3197 3328 2828 
z
" transform="scale(0.015625)"/>
       <path id="DejaVuSans-48" d="M 3597 1894 
L 3597 1613 
L 953 1613 
Q 991 1019 1311 708 
Q 1631 397 2203 397 
Q 2534 397 2845 478 
Q 3156 559 3463 722 
L 3463 178 
Q 3153 47 2828 -22 
Q 2503 -91 2169 -91 
Q 1331 -91 842 396 
Q 353 884 353 1716 
Q 353 2575 817 3079 
Q 1281 3584 2069 3584 
Q 2775 3584 3186 3129 
Q 3597 2675 3597 1894 
z
M 3022 2063 
Q 3016 2534 2758 2815 
Q 2500 3097 2075 3097 
Q 1594 3097 1305 2825 
Q 1016 2553 972 2059 
L 3022 2063 
z
" transform="scale(0.015625)"/>
       <path id="DejaVuSans-3" transform="scale(0.015625)"/>
       <path id="DejaVuSans-b" d="M 1984 4856 
Q 1566 4138 1362 3434 
Q 1159 2731 1159 2009 
Q 1159 1288 1364 580 
Q 1569 -128 1984 -844 
L 1484 -844 
Q 1016 -109 783 600 
Q 550 1309 550 2009 
Q 550 2706 781 3412 
Q 1013 4119 1484 4856 
L 1984 4856 
z
" transform="scale(0.015625)"/>
       <path id="DejaVuSans-56" d="M 2834 3397 
L 2834 2853 
Q 2591 2978 2328 3040 
Q 2066 3103 1784 3103 
Q 1356 3103 1142 2972 
Q 928 2841 928 2578 
Q 928 2378 1081 2264 
Q 1234 2150 1697 2047 
L 1894 2003 
Q 2506 1872 2764 1633 
Q 3022 1394 3022 966 
Q 3022 478 2636 193 
Q 2250 -91 1575 -91 
Q 1294 -91 989 -36 
Q 684 19 347 128 
L 347 722 
Q 666 556 975 473 
Q 1284 391 1588 391 
Q 1994 391 2212 530 
Q 2431 669 2431 922 
Q 2431 1156 2273 1281 
Q 2116 1406 1581 1522 
L 1381 1569 
Q 847 1681 609 1914 
Q 372 2147 372 2553 
Q 372 3047 722 3315 
Q 1072 3584 1716 3584 
Q 2034 3584 2315 3537 
Q 2597 3491 2834 3397 
z
" transform="scale(0.015625)"/>
       <path id="DejaVuSans-c" d="M 513 4856 
L 1013 4856 
Q 1481 4119 1714 3412 
Q 1947 2706 1947 2009 
Q 1947 1309 1714 600 
Q 1481 -109 1013 -844 
L 513 -844 
Q 928 -128 1133 580 
Q 1338 1288 1338 2009 
Q 1338 2731 1133 3434 
Q 928 4138 513 4856 
z
" transform="scale(0.015625)"/>
      </defs>
      <use xlink:href="#DejaVuSans-37"/>
      <use xlink:href="#DejaVuSans-4c" transform="translate(58 0)"/>
      <use xlink:href="#DejaVuSans-50" transform="translate(85.78125 0)"/>
      <use xlink:href="#DejaVuSans-48" transform="translate(183.1875 0)"/>
      <use xlink:href="#DejaVuSans-3" transform="translate(244.71875 0)"/>
      <use xlink:href="#DejaVuSans-b" transform="translate(276.5 0)"/>
      <use xlink:href="#DejaVuSans-56" transform="translate(315.515625 0)"/>
      <use xlink:href="#DejaVuSans-c" transform="translate(367.609375 0)"/>
     </g>
    </g>
   </g>
   <g id="matplotlib.axis_2">
    <g id="ytick_1">
     <g id="line2d_19">
      <path d="M 42.942969 163.967724 
L 849.380625 163.967724 
" clip-path="url(#p2980a0bb02)" style="fill: none; stroke: #b0b0b0; stroke-opacity: 0.3; stroke-width: 0.8; stroke-linecap: square"/>
     </g>
     <g id="line2d_20">
      <defs>
       <path id="me2b41e7dde" d="M 0 0 
L -3.5 0 
" style="stroke: #000000; stroke-width: 0.8"/>
      </defs>
      <g>
       <use xlink:href="#me2b41e7dde" x="42.942969" y="163.967724" style="stroke: #000000; stroke-width: 0.8"/>
      </g>
     </g>
     <g id="text_11">
      <!-- −2 -->
      <g transform="translate(21.200781 167.766552) scale(0.1 -0.1)">
       <defs>
        <path id="DejaVuSans-c9c" d="M 678 2272 
L 4684 2272 
L 4684 1741 
L 678 1741 
L 678 2272 
z
" transform="scale(0.015625)"/>
       </defs>
       <use xlink:href="#DejaVuSans-c9c"/>
       <use xlink:href="#DejaVuSans-15" transform="translate(83.796875 0)"/>
      </g>
     </g>
    </g>
    <g id="ytick_2">
     <g id="line2d_21">
      <path d="M 42.942969 130.238453 
L 849.380625 130.238453 
" clip-path="url(#p2980a0bb02)" style="fill: none; stroke: #b0b0b0; stroke-opacity: 0.3; stroke-width: 0.8; stroke-linecap: square"/>
     </g>
     <g id="line2d_22">
      <g>
       <use xlink:href="#me2b41e7dde" x="42.942969" y="130.238453" style="stroke: #000000; stroke-width: 0.8"/>
      </g>
     </g>
     <g id="text_12">
      <!-- −1 -->
      <g transform="translate(21.200781 134.037281) scale(0.1 -0.1)">
       <use xlink:href="#DejaVuSans-c9c"/>
       <use xlink:href="#DejaVuSans-14" transform="translate(83.796875 0)"/>
      </g>
     </g>
    </g>
    <g id="ytick_3">
     <g id="line2d_23">
      <path d="M 42.942969 96.509182 
L 849.380625 96.509182 
" clip-path="url(#p2980a0bb02)" style="fill: none; stroke: #b0b0b0; stroke-opacity: 0.3; stroke-width: 0.8; stroke-linecap: square"/>
     </g>
     <g id="line2d_24">
      <g>
       <use xlink:href="#me2b41e7dde" x="42.942969" y="96.509182" style="stroke: #000000; stroke-width: 0.8"/>
      </g>
     </g>
     <g id="text_13">
      <!-- 0 -->
      <g transform="translate(29.580469 100.30801) scale(0.1 -0.1)">
       <use xlink:href="#DejaVuSans-13"/>
      </g>
     </g>
    </g>
    <g id="ytick_4">
     <g id="line2d_25">
      <path d="M 42.942969 62.77991 
L 849.380625 62.77991 
" clip-path="url(#p2980a0bb02)" style="fill: none; stroke: #b0b0b0; stroke-opacity: 0.3; stroke-width: 0.8; stroke-linecap: square"/>
     </g>
     <g id="line2d_26">
      <g>
       <use xlink:href="#me2b41e7dde" x="42.942969" y="62.77991" style="stroke: #000000; stroke-width: 0.8"/>
      </g>
     </g>
     <g id="text_14">
      <!-- 1 -->
      <g transform="translate(29.580469 66.578738) scale(0.1 -0.1)">
       <use xlink:href="#DejaVuSans-14"/>
      </g>
     </g>
    </g>
    <g id="ytick_5">
     <g id="line2d_27">
      <path d="M 42.942969 29.050639 
L 849.380625 29.050639 
" clip-path="url(#p2980a0bb02)" style="fill: none; stroke: #b0b0b0; stroke-opacity: 0.3; stroke-width: 0.8; stroke-linecap: square"/>
     </g>
     <g id="line2d_28">
      <g>
       <use xlink:href="#me2b41e7dde" x="42.942969" y="29.050639" style="stroke: #000000; stroke-width: 0.8"/>
      </g>
     </g>
     <g id="text_15">
      <!-- 2 -->
      <g transform="translate(29.580469 32.849467) scale(0.1 -0.1)">
       <use xlink:href="#DejaVuSans-15"/>
      </g>
     </g>
    </g>
    <g id="text_16">
     <!-- Amplitude -->
     <g transform="translate(14.798438 121.998438) rotate(-90) scale(0.1 -0.1)">
      <defs>
       <path id="DejaVuSans-24" d="M 2188 4044 
L 1331 1722 
L 3047 1722 
L 2188 4044 
z
M 1831 4666 
L 2547 4666 
L 4325 0 
L 3669 0 
L 3244 1197 
L 1141 1197 
L 716 0 
L 50 0 
L 1831 4666 
z
" transform="scale(0.015625)"/>
       <path id="DejaVuSans-53" d="M 1159 525 
L 1159 -1331 
L 581 -1331 
L 581 3500 
L 1159 3500 
L 1159 2969 
Q 1341 3281 1617 3432 
Q 1894 3584 2278 3584 
Q 2916 3584 3314 3078 
Q 3713 2572 3713 1747 
Q 3713 922 3314 415 
Q 2916 -91 2278 -91 
Q 1894 -91 1617 61 
Q 1341 213 1159 525 
z
M 3116 1747 
Q 3116 2381 2855 2742 
Q 2594 3103 2138 3103 
Q 1681 3103 1420 2742 
Q 1159 2381 1159 1747 
Q 1159 1113 1420 752 
Q 1681 391 2138 391 
Q 2594 391 2855 752 
Q 3116 1113 3116 1747 
z
" transform="scale(0.015625)"/>
       <path id="DejaVuSans-4f" d="M 603 4863 
L 1178 4863 
L 1178 0 
L 603 0 
L 603 4863 
z
" transform="scale(0.015625)"/>
       <path id="DejaVuSans-57" d="M 1172 4494 
L 1172 3500 
L 2356 3500 
L 2356 3053 
L 1172 3053 
L 1172 1153 
Q 1172 725 1289 603 
Q 1406 481 1766 481 
L 2356 481 
L 2356 0 
L 1766 0 
Q 1100 0 847 248 
Q 594 497 594 1153 
L 594 3053 
L 172 3053 
L 172 3500 
L 594 3500 
L 594 4494 
L 1172 4494 
z
" transform="scale(0.015625)"/>
       <path id="DejaVuSans-58" d="M 544 1381 
L 544 3500 
L 1119 3500 
L 1119 1403 
Q 1119 906 1312 657 
Q 1506 409 1894 409 
Q 2359 409 2629 706 
Q 2900 1003 2900 1516 
L 2900 3500 
L 3475 3500 
L 3475 0 
L 2900 0 
L 2900 538 
Q 2691 219 2414 64 
Q 2138 -91 1772 -91 
Q 1169 -91 856 284 
Q 544 659 544 1381 
z
M 1991 3584 
L 1991 3584 
z
" transform="scale(0.015625)"/>
       <path id="DejaVuSans-47" d="M 2906 2969 
L 2906 4863 
L 3481 4863 
L 3481 0 
L 2906 0 
L 2906 525 
Q 2725 213 2448 61 
Q 2172 -91 1784 -91 
Q 1150 -91 751 415 
Q 353 922 353 1747 
Q 353 2572 751 3078 
Q 1150 3584 1784 3584 
Q 2172 3584 2448 3432 
Q 2725 3281 2906 2969 
z
M 947 1747 
Q 947 1113 1208 752 
Q 1469 391 1925 391 
Q 2381 391 2643 752 
Q 2906 1113 2906 1747 
Q 2906 2381 2643 2742 
Q 2381 3103 1925 3103 
Q 1469 3103 1208 2742 
Q 947 2381 947 1747 
z
" transform="scale(0.015625)"/>
      </defs>
      <use xlink:href="#DejaVuSans-24"/>
      <use xlink:href="#DejaVuSans-50" transform="translate(68.40625 0)"/>
      <use xlink:href="#DejaVuSans-53" transform="translate(165.8125 0)"/>
      <use xlink:href="#DejaVuSans-4f" transform="translate(229.296875 0)"/>
      <use xlink:href="#DejaVuSans-4c" transform="translate(257.078125 0)"/>
      <use xlink:href="#DejaVuSans-57" transform="translate(284.859375 0)"/>
      <use xlink:href="#DejaVuSans-58" transform="translate(324.0625 0)"/>
      <use xlink:href="#DejaVuSans-47" transform="translate(387.4375 0)"/>
      <use xlink:href="#DejaVuSans-48" transform="translate(450.921875 0)"/>
     </g>
    </g>
   </g>
   <g id="line2d_29">
    <path d="M 79.599226 29.050639 
L 81.068415 45.783462 
L 82.537603 81.444859 
L 84.006792 105.806723 
L 85.47598 100.861327 
L 86.945169 77.28827 
L 88.414358 64.161702 
L 89.883546 81.47007 
L 91.352735 120.988271 
L 92.821924 153.299079 
L 94.291112 154.493946 
L 97.22949 100.229432 
L 98.698678 97.09301 
L 101.637056 139.673236 
L 103.106244 133.789957 
L 104.575433 98.081117 
L 106.044622 56.85861 
L 107.51381 39.911584 
L 108.982999 55.74998 
L 110.452188 84.516802 
L 111.921376 97.049988 
L 113.390565 82.310372 
L 114.859754 57.649545 
L 116.328942 52.356992 
L 117.798131 79.775163 
L 119.26732 123.930605 
L 120.736508 153.197358 
L 122.205697 148.448313 
L 123.674886 119.719706 
L 125.144074 96.076533 
L 126.613263 98.221082 
L 128.082452 119.360156 
L 129.55164 132.114083 
L 131.020829 114.998741 
L 132.490018 73.765314 
L 133.959206 37.592982 
L 135.428395 33.436301 
L 136.897584 62.104883 
L 138.366772 98.080105 
L 139.835961 113.111022 
L 141.30515 101.659813 
L 142.774338 84.668512 
L 144.243527 88.357411 
L 145.712716 118.031199 
L 147.181904 151.543348 
L 148.651093 158.799854 
L 150.120282 129.427497 
L 151.58947 83.016521 
L 153.058659 52.356992 
L 154.527848 54.990912 
L 155.997036 79.115133 
L 157.466225 96.480261 
L 158.935414 89.890208 
L 160.404602 69.466929 
L 161.873791 62.466668 
L 163.34298 86.221435 
L 164.812168 129.671854 
L 166.281357 161.147301 
L 167.750546 155.741671 
L 169.219734 117.369111 
L 170.688923 75.323702 
L 172.158112 58.547447 
L 173.6273 71.191033 
L 175.096489 91.58985 
L 176.565678 94.903733 
L 179.504055 61.434207 
L 180.973243 70.890978 
L 182.442432 108.864747 
L 183.911621 150.285621 
L 185.380809 162.700311 
L 186.849998 134.678607 
L 188.319187 86.347164 
L 189.788375 52.356992 
L 191.257564 52.675675 
L 192.726753 77.484232 
L 194.195941 99.177682 
L 195.66513 99.423632 
L 197.134319 85.66242 
L 198.603507 81.826653 
L 200.072696 102.590648 
L 201.541885 136.160486 
L 203.011073 152.757091 
L 204.480262 131.773674 
L 205.949451 82.623629 
L 207.418639 39.407679 
L 208.887828 33.225179 
L 210.357017 66.461167 
L 211.826205 111.775222 
L 213.295394 136.241571 
L 214.764583 128.611752 
L 216.233771 105.549868 
L 217.70296 92.596294 
L 219.172149 98.895936 
L 220.641337 109.801664 
L 222.110526 103.865158 
L 225.048903 50.697506 
L 226.518092 52.356992 
L 227.987281 89.725823 
L 229.456469 139.266921 
L 230.925658 163.554451 
L 232.394847 142.433518 
L 233.864035 90.73383 
L 235.333224 46.575218 
L 236.802413 40.282229 
L 238.271601 70.917274 
L 239.74079 110.141682 
L 241.209979 128.444301 
L 242.679167 119.369876 
L 244.148356 100.657936 
L 245.617545 93.462453 
L 247.086733 100.977793 
L 248.555922 107.177401 
L 250.025111 96.069128 
L 251.494299 71.506324 
L 252.963488 56.737375 
L 254.432677 72.539328 
L 255.901865 114.335474 
L 257.371054 151.319048 
L 258.840243 150.998556 
L 260.309431 108.481868 
L 261.77862 53.80218 
L 263.247809 29.050639 
L 264.716997 53.895027 
L 266.186186 109.023325 
L 267.655375 151.939071 
L 269.124563 151.590991 
L 270.593752 112.34323 
L 272.06294 67.747199 
L 273.532129 51.135012 
L 275.001318 69.353514 
L 276.470506 101.338457 
L 277.939695 119.990171 
L 279.408884 115.681442 
L 280.878072 100.552342 
L 282.347261 92.38121 
L 283.81645 95.933596 
L 285.285638 100.400315 
L 286.754827 94.143048 
L 288.224016 80.12606 
L 289.693204 74.817197 
L 291.162393 90.558331 
L 292.631582 119.294901 
L 294.10077 135.881221 
L 295.569959 120.586745 
L 297.039148 80.41653 
L 298.508336 47.423989 
L 299.977525 52.356992 
L 301.446714 95.845924 
L 302.915902 144.125448 
L 304.385091 155.842064 
L 305.85428 118.195523 
L 307.323468 60.369633 
L 308.792657 30.613287 
L 310.261846 55.243288 
L 311.731034 114.945919 
L 313.200223 159.943065 
L 314.669412 152.045945 
L 317.607789 42.64474 
L 319.076978 33.546794 
L 320.546166 77.536457 
L 322.015355 136.606407 
L 323.484544 160.427057 
L 324.953732 129.548171 
L 326.422921 71.56557 
L 327.89211 36.61194 
L 329.361298 53.879378 
L 330.830487 107.00737 
L 332.299676 149.259348 
L 333.768864 144.594752 
L 336.707242 52.356992 
L 338.17643 46.20917 
L 339.645619 84.255465 
L 341.114808 131.853425 
L 342.583996 146.836395 
L 344.053185 116.783475 
L 345.522374 69.425556 
L 346.991562 47.380494 
L 348.460751 69.982299 
L 349.92994 116.229396 
L 351.399128 143.963634 
L 352.868317 128.044092 
L 354.337506 83.186337 
L 355.806694 50.687941 
L 357.275883 60.719352 
L 358.745072 104.315629 
L 360.21426 141.05501 
L 361.683449 136.191049 
L 364.621826 52.709793 
L 366.091015 53.036467 
L 369.029392 140.169408 
L 370.498581 143.800261 
L 371.967769 101.164556 
L 373.436958 52.356992 
L 374.906147 45.372861 
L 376.375335 88.929565 
L 377.844524 141.771933 
L 379.313713 151.390362 
L 380.782901 106.253163 
L 382.25209 49.570461 
L 383.721279 38.238407 
L 385.190467 85.565057 
L 386.659656 145.569192 
L 388.128845 157.430178 
L 389.598033 107.451501 
L 391.067222 45.114346 
L 392.536411 34.183579 
L 394.005599 86.975591 
L 395.474788 150.053701 
L 396.943977 158.396237 
L 398.413165 103.151541 
L 399.882354 41.615022 
L 401.351543 37.518879 
L 404.28992 151.105409 
L 405.759109 149.646875 
L 407.228297 94.015561 
L 408.697486 44.884036 
L 410.166675 52.356992 
L 411.635863 103.641301 
L 413.105052 141.45422 
L 414.574241 128.938444 
L 416.043429 86.561745 
L 417.512618 62.689843 
L 418.981807 77.336153 
L 420.450995 105.641856 
L 421.920184 114.75583 
L 423.389373 103.005538 
L 424.858561 93.460451 
L 426.32775 97.084149 
L 427.796939 99.287065 
L 429.266127 87.443578 
L 430.735316 76.547876 
L 432.204505 90.746938 
L 433.673693 122.786104 
L 435.142882 132.435474 
L 436.612071 97.126768 
L 438.081259 51.124067 
L 439.550448 52.399594 
L 441.019637 108.623286 
L 442.488825 157.614309 
L 443.958014 137.997633 
L 445.427203 67.94874 
L 446.896391 29.050639 
L 448.36558 68.077735 
L 449.834769 138.316523 
L 451.303957 156.896838 
L 452.773146 106.55972 
L 454.242335 52.399594 
L 455.711523 55.763836 
L 457.180712 101.026895 
L 458.6499 127.34725 
L 460.119089 112.383631 
L 461.588278 90.746938 
L 463.057466 92.002764 
L 464.526655 98.764018 
L 467.465032 72.450462 
L 468.934221 93.460451 
L 470.40341 134.589323 
L 471.872598 136.521044 
L 473.341787 81.600077 
L 474.810976 34.751434 
L 476.280164 62.689843 
L 477.749353 136.282035 
L 479.218542 161.716315 
L 480.68773 106.794435 
L 482.156919 44.870423 
L 483.626108 52.356992 
L 485.095296 107.609737 
L 486.564485 133.448093 
L 489.502862 87.410932 
L 490.972051 94.063202 
L 492.44124 97.531205 
L 493.910428 76.636328 
L 495.379617 70.851978 
L 498.317994 150.053701 
L 499.787183 119.731206 
L 501.256372 49.223813 
L 502.72556 35.756259 
L 504.194749 102.104415 
L 505.663938 157.430178 
L 507.133126 130.427489 
L 508.602315 69.936671 
L 510.071504 59.836749 
L 511.540692 93.347622 
L 513.009881 106.253163 
L 514.47907 93.843264 
L 515.948258 103.567185 
L 517.417447 128.454132 
L 518.886636 109.105182 
L 520.355824 52.356992 
L 521.825013 45.399948 
L 523.294202 114.103683 
L 524.76339 163.700923 
L 526.232579 121.579657 
L 527.701768 53.036467 
L 529.170956 54.128624 
L 530.640145 103.257256 
L 532.109334 117.862061 
L 533.578522 98.954841 
L 535.047711 104.315629 
L 536.5169 120.47715 
L 537.986088 90.028909 
L 539.455277 43.850365 
L 540.924466 68.499982 
L 542.393654 143.963634 
L 543.862843 155.894697 
L 545.332032 85.390593 
L 546.80122 42.331804 
L 549.739598 116.783475 
L 551.208786 104.9801 
L 552.677975 98.525204 
L 554.147163 122.351604 
L 555.616352 110.35924 
L 557.085541 52.356992 
L 558.554729 46.249459 
L 560.023918 120.7436 
L 561.493107 162.24908 
L 564.431484 53.879378 
L 565.900673 74.165702 
L 567.369861 103.888237 
L 568.83905 91.507781 
L 570.308239 96.349592 
L 571.777427 136.606407 
L 573.246616 125.199927 
L 574.715805 52.193153 
L 576.184993 37.20094 
L 577.654182 111.509796 
L 579.123371 152.045945 
L 580.592559 108.058015 
L 582.061748 76.636422 
L 583.530937 94.650023 
L 585.000125 87.309165 
L 586.469314 60.369633 
L 587.938503 98.032885 
L 589.407691 158.550547 
L 590.87688 126.50706 
L 592.346069 47.370906 
L 593.815257 52.356992 
L 595.284446 111.321358 
L 596.753635 115.249146 
L 598.222823 96.260668 
L 599.692012 120.363742 
L 601.161201 119.294901 
L 602.630389 54.323635 
L 604.099578 40.856373 
L 605.568767 119.537195 
L 607.037955 154.916268 
L 608.507144 100.400315 
L 609.976333 73.338731 
L 611.445521 95.884463 
L 612.91471 80.137141 
L 614.383899 61.790216 
L 615.853087 119.990171 
L 617.322276 161.575805 
L 618.791465 96.409287 
L 620.260653 40.235484 
L 621.729842 80.370317 
L 623.199031 112.34323 
L 624.668219 92.691518 
L 626.137408 112.417707 
L 627.606597 142.329935 
L 630.544974 29.050639 
L 633.483351 142.130217 
L 634.95254 111.387091 
L 636.421729 94.176821 
L 637.890917 114.335474 
L 640.829295 38.585353 
L 642.298483 105.04881 
L 643.767672 160.204934 
L 645.23686 107.177401 
L 646.706049 69.618825 
L 648.175238 94.976828 
L 649.644426 78.560634 
L 651.113615 60.86064 
L 652.582804 128.444301 
L 654.051992 159.07848 
L 655.521181 82.58107 
L 656.99037 51.028365 
L 658.459558 94.838373 
L 659.928747 90.73383 
L 661.397936 84.5763 
L 662.867124 143.344653 
L 664.336313 136.956254 
L 665.805502 50.620566 
L 667.27469 52.356992 
L 668.743879 112.156389 
L 670.213068 101.810824 
L 671.682256 101.594286 
L 673.151445 143.878605 
L 674.620634 98.895936 
L 676.089822 30.21395 
L 679.0282 131.479286 
L 680.497388 101.891825 
L 681.966577 111.775222 
L 683.435766 128.102015 
L 684.904954 56.916812 
L 686.374143 39.925866 
L 687.843332 122.491383 
L 689.31252 131.773674 
L 690.781709 94.35417 
L 692.250898 118.043913 
L 693.720086 94.750054 
L 695.189275 32.516484 
L 696.658464 85.66242 
L 698.127652 149.58925 
L 699.596841 107.369621 
L 701.06603 95.989724 
L 702.535218 112.074618 
L 704.004407 52.356992 
L 705.473596 52.763437 
L 706.942784 140.9503 
L 708.411973 132.327202 
L 709.881162 86.141062 
L 711.35035 108.864747 
L 712.819539 77.522359 
L 714.288728 38.192398 
L 715.757916 116.512198 
L 717.227105 150.346604 
L 718.696294 91.58985 
L 720.165482 98.770042 
L 721.634671 95.421473 
L 723.10386 38.464349 
L 724.573048 90.315332 
L 726.042237 155.741671 
L 727.511426 104.18206 
L 728.980614 91.699633 
L 730.449803 105.393339 
L 731.918992 45.141147 
L 733.38818 69.466929 
L 734.857369 151.706789 
L 736.326558 115.826384 
L 737.795746 90.244418 
L 739.264935 111.656574 
L 740.734123 52.356992 
L 742.203312 55.08861 
L 743.672501 143.391892 
L 745.141689 122.226369 
L 746.610878 93.007682 
L 748.080067 118.031199 
L 749.549255 57.619294 
L 751.018444 46.161142 
L 752.487633 134.52714 
L 753.956821 121.983158 
L 755.42601 98.080105 
L 756.895199 126.248145 
L 758.364387 60.199312 
L 759.833576 42.087669 
L 761.302765 126.764704 
L 762.771953 114.998741 
L 764.241142 104.768234 
L 765.710331 135.899379 
L 767.179519 59.963476 
L 768.648708 43.591231 
L 770.117897 119.719706 
L 771.587085 101.923503 
L 773.056274 113.886962 
L 774.525463 144.482328 
L 775.994651 57.542898 
L 777.46384 52.356992 
L 778.933029 110.86605 
L 780.402217 84.979085 
L 781.871406 126.772965 
L 783.340595 147.451134 
L 784.809783 55.74998 
L 786.278972 69.224815 
L 787.748161 95.968784 
L 789.217349 69.603126 
L 790.686538 142.59821 
L 792.155727 139.673236 
L 793.624915 61.005128 
L 795.094104 90.663928 
L 796.563293 72.002233 
L 798.032481 64.704391 
L 799.50167 154.493946 
L 800.970859 120.321899 
L 802.440047 81.408048 
L 803.909236 105.638448 
L 805.378425 43.754309 
L 806.847613 77.28827 
L 808.316802 148.954114 
L 809.785991 100.126118 
L 811.255179 117.456897 
L 812.724368 99.883684 
L 812.724368 99.883684 
" clip-path="url(#p2980a0bb02)" style="fill: none; stroke: #1f77b4; stroke-width: 0.5; stroke-linecap: square"/>
   </g>
   <g id="patch_3">
    <path d="M 42.942969 170.433438 
L 42.942969 22.318125 
" style="fill: none; stroke: #000000; stroke-width: 0.8; stroke-linejoin: miter; stroke-linecap: square"/>
   </g>
   <g id="patch_4">
    <path d="M 849.380625 170.433438 
L 849.380625 22.318125 
" style="fill: none; stroke: #000000; stroke-width: 0.8; stroke-linejoin: miter; stroke-linecap: square"/>
   </g>
   <g id="patch_5">
    <path d="M 42.942969 170.433438 
L 849.380625 170.433438 
" style="fill: none; stroke: #000000; stroke-width: 0.8; stroke-linejoin: miter; stroke-linecap: square"/>
   </g>
   <g id="patch_6">
    <path d="M 42.942969 22.318125 
L 849.380625 22.318125 
" style="fill: none; stroke: #000000; stroke-width: 0.8; stroke-linejoin: miter; stroke-linecap: square"/>
   </g>
   <g id="text_17">
    <!-- Chirp (10.0-90.0 Hz) + Tone (40.0 Hz) -->
    <g transform="translate(333.017734 16.318125) scale(0.12 -0.12)">
     <defs>
      <path id="DejaVuSans-26" d="M 4122 4306 
L 4122 3641 
Q 3803 3938 3442 4084 
Q 3081 4231 2675 4231 
Q 1875 4231 1450 3742 
Q 1025 3253 1025 2328 
Q 1025 1406 1450 917 
Q 1875 428 2675 428 
Q 3081 428 3442 575 
Q 3803 722 4122 1019 
L 4122 359 
Q 3791 134 3420 21 
Q 3050 -91 2638 -91 
Q 1578 -91 968 557 
Q 359 1206 359 2328 
Q 359 3453 968 4101 
Q 1578 4750 2638 4750 
Q 3056 4750 3426 4639 
Q 3797 4528 4122 4306 
z
" transform="scale(0.015625)"/>
      <path id="DejaVuSans-4b" d="M 3513 2113 
L 3513 0 
L 2938 0 
L 2938 2094 
Q 2938 2591 2744 2837 
Q 2550 3084 2163 3084 
Q 1697 3084 1428 2787 
Q 1159 2491 1159 1978 
L 1159 0 
L 581 0 
L 581 4863 
L 1159 4863 
L 1159 2956 
Q 1366 3272 1645 3428 
Q 1925 3584 2291 3584 
Q 2894 3584 3203 3211 
Q 3513 2838 3513 2113 
z
" transform="scale(0.015625)"/>
      <path id="DejaVuSans-55" d="M 2631 2963 
Q 2534 3019 2420 3045 
Q 2306 3072 2169 3072 
Q 1681 3072 1420 2755 
Q 1159 2438 1159 1844 
L 1159 0 
L 581 0 
L 581 3500 
L 1159 3500 
L 1159 2956 
Q 1341 3275 1631 3429 
Q 1922 3584 2338 3584 
Q 2397 3584 2469 3576 
Q 2541 3569 2628 3553 
L 2631 2963 
z
" transform="scale(0.015625)"/>
      <path id="DejaVuSans-10" d="M 313 2009 
L 1997 2009 
L 1997 1497 
L 313 1497 
L 313 2009 
z
" transform="scale(0.015625)"/>
      <path id="DejaVuSans-1c" d="M 703 97 
L 703 672 
Q 941 559 1184 500 
Q 1428 441 1663 441 
Q 2288 441 2617 861 
Q 2947 1281 2994 2138 
Q 2813 1869 2534 1725 
Q 2256 1581 1919 1581 
Q 1219 1581 811 2004 
Q 403 2428 403 3163 
Q 403 3881 828 4315 
Q 1253 4750 1959 4750 
Q 2769 4750 3195 4129 
Q 3622 3509 3622 2328 
Q 3622 1225 3098 567 
Q 2575 -91 1691 -91 
Q 1453 -91 1209 -44 
Q 966 3 703 97 
z
M 1959 2075 
Q 2384 2075 2632 2365 
Q 2881 2656 2881 3163 
Q 2881 3666 2632 3958 
Q 2384 4250 1959 4250 
Q 1534 4250 1286 3958 
Q 1038 3666 1038 3163 
Q 1038 2656 1286 2365 
Q 1534 2075 1959 2075 
z
" transform="scale(0.015625)"/>
      <path id="DejaVuSans-2b" d="M 628 4666 
L 1259 4666 
L 1259 2753 
L 3553 2753 
L 3553 4666 
L 4184 4666 
L 4184 0 
L 3553 0 
L 3553 2222 
L 1259 2222 
L 1259 0 
L 628 0 
L 628 4666 
z
" transform="scale(0.015625)"/>
      <path id="DejaVuSans-5d" d="M 353 3500 
L 3084 3500 
L 3084 2975 
L 922 459 
L 3084 459 
L 3084 0 
L 275 0 
L 275 525 
L 2438 3041 
L 353 3041 
L 353 3500 
z
" transform="scale(0.015625)"/>
      <path id="DejaVuSans-e" d="M 2944 4013 
L 2944 2272 
L 4684 2272 
L 4684 1741 
L 2944 1741 
L 2944 0 
L 2419 0 
L 2419 1741 
L 678 1741 
L 678 2272 
L 2419 2272 
L 2419 4013 
L 2944 4013 
z
" transform="scale(0.015625)"/>
      <path id="DejaVuSans-52" d="M 1959 3097 
Q 1497 3097 1228 2736 
Q 959 2375 959 1747 
Q 959 1119 1226 758 
Q 1494 397 1959 397 
Q 2419 397 2687 759 
Q 2956 1122 2956 1747 
Q 2956 2369 2687 2733 
Q 2419 3097 1959 3097 
z
M 1959 3584 
Q 2709 3584 3137 3096 
Q 3566 2609 3566 1747 
Q 3566 888 3137 398 
Q 2709 -91 1959 -91 
Q 1206 -91 779 398 
Q 353 888 353 1747 
Q 353 2609 779 3096 
Q 1206 3584 1959 3584 
z
" transform="scale(0.015625)"/>
      <path id="DejaVuSans-51" d="M 3513 2113 
L 3513 0 
L 2938 0 
L 2938 2094 
Q 2938 2591 2744 2837 
Q 2550 3084 2163 3084 
Q 1697 3084 1428 2787 
Q 1159 2491 1159 1978 
L 1159 0 
L 581 0 
L 581 3500 
L 1159 3500 
L 1159 2956 
Q 1366 3272 1645 3428 
Q 1925 3584 2291 3584 
Q 2894 3584 3203 3211 
Q 3513 2838 3513 2113 
z
" transform="scale(0.015625)"/>
      <path id="DejaVuSans-17" d="M 2419 4116 
L 825 1625 
L 2419 1625 
L 2419 4116 
z
M 2253 4666 
L 3047 4666 
L 3047 1625 
L 3713 1625 
L 3713 1100 
L 3047 1100 
L 3047 0 
L 2419 0 
L 2419 1100 
L 313 1100 
L 313 1709 
L 2253 4666 
z
" transform="scale(0.015625)"/>
     </defs>
     <use xlink:href="#DejaVuSans-26"/>
     <use xlink:href="#DejaVuSans-4b" transform="translate(69.828125 0)"/>
     <use xlink:href="#DejaVuSans-4c" transform="translate(133.203125 0)"/>
     <use xlink:href="#DejaVuSans-55" transform="translate(160.984375 0)"/>
     <use xlink:href="#DejaVuSans-53" transform="translate(202.09375 0)"/>
     <use xlink:href="#DejaVuSans-3" transform="translate(265.578125 0)"/>
     <use xlink:href="#DejaVuSans-b" transform="translate(297.359375 0)"/>
     <use xlink:href="#DejaVuSans-14" transform="translate(336.375 0)"/>
     <use xlink:href="#DejaVuSans-13" transform="translate(400 0)"/>
     <use xlink:href="#DejaVuSans-11" transform="translate(463.625 0)"/>
     <use xlink:href="#DejaVuSans-13" transform="translate(495.40625 0)"/>
     <use xlink:href="#DejaVuSans-10" transform="translate(559.03125 0)"/>
     <use xlink:href="#DejaVuSans-1c" transform="translate(595.109375 0)"/>
     <use xlink:href="#DejaVuSans-13" transform="translate(658.734375 0)"/>
     <use xlink:href="#DejaVuSans-11" transform="translate(722.359375 0)"/>
     <use xlink:href="#DejaVuSans-13" transform="translate(754.140625 0)"/>
     <use xlink:href="#DejaVuSans-3" transform="translate(817.765625 0)"/>
     <use xlink:href="#DejaVuSans-2b" transform="translate(849.546875 0)"/>
     <use xlink:href="#DejaVuSans-5d" transform="translate(924.75 0)"/>
     <use xlink:href="#DejaVuSans-c" transform="translate(977.234375 0)"/>
     <use xlink:href="#DejaVuSans-3" transform="translate(1016.25 0)"/>
     <use xlink:href="#DejaVuSans-e" transform="translate(1048.03125 0)"/>
     <use xlink:href="#DejaVuSans-3" transform="translate(1131.828125 0)"/>
     <use xlink:href="#DejaVuSans-37" transform="translate(1163.609375 0)"/>
     <use xlink:href="#DejaVuSans-52" transform="translate(1207.703125 0)"/>
     <use xlink:href="#DejaVuSans-51" transform="translate(1268.890625 0)"/>
     <use xlink:href="#DejaVuSans-48" transform="translate(1332.265625 0)"/>
     <use xlink:href="#DejaVuSans-3" transform="translate(1393.796875 0)"/>
     <use xlink:href="#DejaVuSans-b" transform="translate(1425.578125 0)"/>
     <use xlink:href="#DejaVuSans-17" transform="translate(1464.59375 0)"/>
     <use xlink:href="#DejaVuSans-13" transform="translate(1528.21875 0)"/>
     <use xlink:href="#DejaVuSans-11" transform="translate(1591.84375 0)"/>
     <use xlink:href="#DejaVuSans-13" transform="translate(1623.625 0)"/>
     <use xlink:href="#DejaVuSans-3" transform="translate(1687.25 0)"/>
     <use xlink:href="#DejaVuSans-2b" transform="translate(1719.03125 0)"/>
     <use xlink:href="#DejaVuSans-5d" transform="translate(1794.234375 0)"/>
     <use xlink:href="#DejaVuSans-c" transform="translate(1846.71875 0)"/>
    </g>
   </g>
   <g id="text_18">
    <!-- Figure B.41 -->
    <g transform="translate(42.942969 16.318125) scale(0.09 -0.09)">
     <defs>
      <path id="DejaVuSans-Oblique-29" d="M 1081 4666 
L 3756 4666 
L 3653 4134 
L 1606 4134 
L 1338 2759 
L 3188 2759 
L 3084 2228 
L 1234 2228 
L 800 0 
L 172 0 
L 1081 4666 
z
" transform="scale(0.015625)"/>
      <path id="DejaVuSans-Oblique-4c" d="M 1172 4863 
L 1747 4863 
L 1606 4134 
L 1031 4134 
L 1172 4863 
z
M 909 3500 
L 1484 3500 
L 800 0 
L 225 0 
L 909 3500 
z
" transform="scale(0.015625)"/>
      <path id="DejaVuSans-Oblique-4a" d="M 3816 3500 
L 3219 434 
Q 3047 -456 2561 -893 
Q 2075 -1331 1253 -1331 
Q 950 -1331 690 -1286 
Q 431 -1241 206 -1147 
L 313 -588 
Q 525 -725 762 -790 
Q 1000 -856 1269 -856 
Q 1816 -856 2167 -557 
Q 2519 -259 2631 300 
L 2681 563 
Q 2441 288 2122 144 
Q 1803 0 1434 0 
Q 903 0 598 351 
Q 294 703 294 1319 
Q 294 1803 478 2267 
Q 663 2731 997 3091 
Q 1219 3328 1514 3456 
Q 1809 3584 2131 3584 
Q 2484 3584 2746 3420 
Q 3009 3256 3138 2956 
L 3238 3500 
L 3816 3500 
z
M 2950 2216 
Q 2950 2641 2750 2872 
Q 2550 3103 2181 3103 
Q 1953 3103 1747 3012 
Q 1541 2922 1394 2759 
Q 1156 2491 1023 2127 
Q 891 1763 891 1375 
Q 891 944 1092 712 
Q 1294 481 1672 481 
Q 2219 481 2584 976 
Q 2950 1472 2950 2216 
z
" transform="scale(0.015625)"/>
      <path id="DejaVuSans-Oblique-58" d="M 428 1388 
L 838 3500 
L 1416 3500 
L 1006 1409 
Q 975 1256 961 1147 
Q 947 1038 947 966 
Q 947 700 1109 554 
Q 1272 409 1569 409 
Q 2031 409 2368 721 
Q 2706 1034 2809 1563 
L 3194 3500 
L 3769 3500 
L 3091 0 
L 2516 0 
L 2631 550 
Q 2388 244 2052 76 
Q 1716 -91 1338 -91 
Q 878 -91 622 161 
Q 366 413 366 863 
Q 366 956 381 1097 
Q 397 1238 428 1388 
z
" transform="scale(0.015625)"/>
      <path id="DejaVuSans-Oblique-55" d="M 2853 2969 
Q 2766 3016 2653 3041 
Q 2541 3066 2413 3066 
Q 1953 3066 1609 2717 
Q 1266 2369 1153 1784 
L 800 0 
L 225 0 
L 909 3500 
L 1484 3500 
L 1375 2956 
Q 1603 3259 1920 3421 
Q 2238 3584 2597 3584 
Q 2691 3584 2781 3573 
Q 2872 3563 2963 3538 
L 2853 2969 
z
" transform="scale(0.015625)"/>
      <path id="DejaVuSans-Oblique-48" d="M 3078 2063 
Q 3088 2113 3092 2166 
Q 3097 2219 3097 2272 
Q 3097 2653 2873 2875 
Q 2650 3097 2266 3097 
Q 1838 3097 1509 2826 
Q 1181 2556 1013 2059 
L 3078 2063 
z
M 3578 1613 
L 903 1613 
Q 884 1494 878 1425 
Q 872 1356 872 1306 
Q 872 872 1139 634 
Q 1406 397 1894 397 
Q 2269 397 2603 481 
Q 2938 566 3225 728 
L 3116 159 
Q 2806 34 2476 -28 
Q 2147 -91 1806 -91 
Q 1078 -91 686 257 
Q 294 606 294 1247 
Q 294 1794 489 2264 
Q 684 2734 1063 3103 
Q 1306 3334 1642 3459 
Q 1978 3584 2356 3584 
Q 2950 3584 3301 3228 
Q 3653 2872 3653 2272 
Q 3653 2128 3634 1964 
Q 3616 1800 3578 1613 
z
" transform="scale(0.015625)"/>
      <path id="DejaVuSans-Oblique-3" transform="scale(0.015625)"/>
      <path id="DejaVuSans-Oblique-25" d="M 1081 4666 
L 2694 4666 
Q 3350 4666 3675 4422 
Q 4000 4178 4000 3688 
Q 4000 3238 3720 2911 
Q 3441 2584 2988 2516 
Q 3375 2428 3569 2181 
Q 3763 1934 3763 1522 
Q 3763 819 3242 409 
Q 2722 0 1819 0 
L 172 0 
L 1081 4666 
z
M 1234 2228 
L 903 519 
L 1919 519 
Q 2491 519 2800 781 
Q 3109 1044 3109 1522 
Q 3109 1891 2904 2059 
Q 2700 2228 2247 2228 
L 1234 2228 
z
M 1606 4147 
L 1331 2741 
L 2272 2741 
Q 2775 2741 3058 2959 
Q 3341 3178 3341 3566 
Q 3341 3869 3150 4008 
Q 2959 4147 2541 4147 
L 1606 4147 
z
" transform="scale(0.015625)"/>
      <path id="DejaVuSans-Oblique-11" d="M 525 794 
L 1184 794 
L 1031 0 
L 372 0 
L 525 794 
z
" transform="scale(0.015625)"/>
      <path id="DejaVuSans-Oblique-17" d="M 2753 4666 
L 3547 4666 
L 2950 1625 
L 3616 1625 
L 3513 1100 
L 2847 1100 
L 2638 0 
L 2009 0 
L 2222 1100 
L 116 1100 
L 238 1709 
L 2753 4666 
z
M 2809 4116 
L 728 1625 
L 2322 1625 
L 2809 4116 
z
" transform="scale(0.015625)"/>
      <path id="DejaVuSans-Oblique-14" d="M 416 531 
L 1447 531 
L 2144 4122 
L 978 3897 
L 1088 4441 
L 2247 4666 
L 2881 4666 
L 2075 531 
L 3103 531 
L 3003 0 
L 313 0 
L 416 531 
z
" transform="scale(0.015625)"/>
     </defs>
     <use xlink:href="#DejaVuSans-Oblique-29"/>
     <use xlink:href="#DejaVuSans-Oblique-4c" transform="translate(57.515625 0)"/>
     <use xlink:href="#DejaVuSans-Oblique-4a" transform="translate(85.296875 0)"/>
     <use xlink:href="#DejaVuSans-Oblique-58" transform="translate(148.78125 0)"/>
     <use xlink:href="#DejaVuSans-Oblique-55" transform="translate(212.15625 0)"/>
     <use xlink:href="#DejaVuSans-Oblique-48" transform="translate(253.265625 0)"/>
     <use xlink:href="#DejaVuSans-Oblique-3" transform="translate(314.796875 0)"/>
     <use xlink:href="#DejaVuSans-Oblique-25" transform="translate(346.578125 0)"/>
     <use xlink:href="#DejaVuSans-Oblique-11" transform="translate(415.1875 0)"/>
     <use xlink:href="#DejaVuSans-Oblique-17" transform="translate(446.96875 0)"/>
     <use xlink:href="#DejaVuSans-Oblique-14" transform="translate(510.59375 0)"/>
    </g>
   </g>
  </g>
 </g>
 <defs>
  <clipPath id="p2980a0bb02">
   <rect x="42.942969" y="22.318125" width="806.437656" height="148.115313"/>
  </clipPath>
 </defs>
</svg>
