<?xml version="1.0" encoding="utf-8" standalone="no"?>
<!DOCTYPE svg PUBLIC "-//W3C//DTD SVG 1.1//EN"
  "http://www.w3.org/Graphics/SVG/1.1/DTD/svg11.dtd">
<svg xmlns:xlink="http://www.w3.org/1999/xlink" width="856.52125pt" height="208.634219pt" viewBox="0 0 856.52125 208.634219" xmlns="http://www.w3.org/2000/svg" version="1.1">
 <metadata>
  <rdf:RDF xmlns:dc="http://purl.org/dc/elements/1.1/" xmlns:cc="http://creativecommons.org/ns#" xmlns:rdf="http://www.w3.org/1999/02/22-rdf-syntax-ns#">
   <cc:Work>
    <dc:type rdf:resource="http://purl.org/dc/dcmitype/StillImage"/>
    <dc:date>2026-06-21T23:56:17.424285</dc:date>
    <dc:format>image/svg+xml</dc:format>
    <dc:creator>
     <cc:Agent>
      <dc:title>Matplotlib v3.11.0, https://matplotlib.org/</dc:title>
     </cc:Agent>
    </dc:creator>
   </cc:Work>
  </rdf:RDF>
 </metadata>
 <defs>
  <style type="text/css">*{stroke-linejoin: round; stroke-linecap: butt}</style>
 </defs>
 <g id="figure_1">
  <g id="patch_1">
   <path d="M 0 208.634219 
L 856.52125 208.634219 
L 856.52125 0 
L 0 0 
z
" style="fill: #ffffff"/>
  </g>
  <g id="axes_1">
   <g id="patch_2">
    <path d="M 52.483594 170.433438 
L 849.32125 170.433438 
L 849.32125 22.318125 
L 52.483594 22.318125 
z
" style="fill: #ffffff"/>
   </g>
   <g id="matplotlib.axis_1">
    <g id="xtick_1">
     <g id="line2d_1">
      <path d="M 88.703487 170.433438 
L 88.703487 22.318125 
" clip-path="url(#p73625c147d)" style="fill: none; stroke: #b0b0b0; stroke-opacity: 0.3; stroke-width: 0.8; stroke-linecap: square"/>
     </g>
     <g id="line2d_2">
      <defs>
       <path id="m17742161b4" d="M 0 0 
L 0 3.5 
" style="stroke: #000000; stroke-width: 0.8"/>
      </defs>
      <g>
       <use xlink:href="#m17742161b4" x="88.703487" y="170.433438" style="stroke: #000000; stroke-width: 0.8"/>
      </g>
     </g>
     <g id="text_1">
      <!-- 0.00 -->
      <g transform="translate(77.570675 185.031094) scale(0.1 -0.1)">
       <defs>
        <path id="DejaVuSans-13" d="M 2034 4250 
Q 1547 4250 1301 3770 
Q 1056 3291 1056 2328 
Q 1056 1369 1301 889 
Q 1547 409 2034 409 
Q 2525 409 2770 889 
Q 3016 1369 3016 2328 
Q 3016 3291 2770 3770 
Q 2525 4250 2034 4250 
z
M 2034 4750 
Q 2819 4750 3233 4129 
Q 3647 3509 3647 2328 
Q 3647 1150 3233 529 
Q 2819 -91 2034 -91 
Q 1250 -91 836 529 
Q 422 1150 422 2328 
Q 422 3509 836 4129 
Q 1250 4750 2034 4750 
z
" transform="scale(0.015625)"/>
        <path id="DejaVuSans-11" d="M 684 794 
L 1344 794 
L 1344 0 
L 684 0 
L 684 794 
z
" transform="scale(0.015625)"/>
       </defs>
       <use xlink:href="#DejaVuSans-13"/>
       <use xlink:href="#DejaVuSans-11" transform="translate(63.625 0)"/>
       <use xlink:href="#DejaVuSans-13" transform="translate(95.40625 0)"/>
       <use xlink:href="#DejaVuSans-13" transform="translate(159.03125 0)"/>
      </g>
     </g>
    </g>
    <g id="xtick_2">
     <g id="line2d_3">
      <path d="M 179.434683 170.433438 
L 179.434683 22.318125 
" clip-path="url(#p73625c147d)" style="fill: none; stroke: #b0b0b0; stroke-opacity: 0.3; stroke-width: 0.8; stroke-linecap: square"/>
     </g>
     <g id="line2d_4">
      <g>
       <use xlink:href="#m17742161b4" x="179.434683" y="170.433438" style="stroke: #000000; stroke-width: 0.8"/>
      </g>
     </g>
     <g id="text_2">
      <!-- 0.25 -->
      <g transform="translate(168.301871 185.031094) scale(0.1 -0.1)">
       <defs>
        <path id="DejaVuSans-15" d="M 1228 531 
L 3431 531 
L 3431 0 
L 469 0 
L 469 531 
Q 828 903 1448 1529 
Q 2069 2156 2228 2338 
Q 2531 2678 2651 2914 
Q 2772 3150 2772 3378 
Q 2772 3750 2511 3984 
Q 2250 4219 1831 4219 
Q 1534 4219 1204 4116 
Q 875 4013 500 3803 
L 500 4441 
Q 881 4594 1212 4672 
Q 1544 4750 1819 4750 
Q 2544 4750 2975 4387 
Q 3406 4025 3406 3419 
Q 3406 3131 3298 2873 
Q 3191 2616 2906 2266 
Q 2828 2175 2409 1742 
Q 1991 1309 1228 531 
z
" transform="scale(0.015625)"/>
        <path id="DejaVuSans-18" d="M 691 4666 
L 3169 4666 
L 3169 4134 
L 1269 4134 
L 1269 2991 
Q 1406 3038 1543 3061 
Q 1681 3084 1819 3084 
Q 2600 3084 3056 2656 
Q 3513 2228 3513 1497 
Q 3513 744 3044 326 
Q 2575 -91 1722 -91 
Q 1428 -91 1123 -41 
Q 819 9 494 109 
L 494 744 
Q 775 591 1075 516 
Q 1375 441 1709 441 
Q 2250 441 2565 725 
Q 2881 1009 2881 1497 
Q 2881 1984 2565 2268 
Q 2250 2553 1709 2553 
Q 1456 2553 1204 2497 
Q 953 2441 691 2322 
L 691 4666 
z
" transform="scale(0.015625)"/>
       </defs>
       <use xlink:href="#DejaVuSans-13"/>
       <use xlink:href="#DejaVuSans-11" transform="translate(63.625 0)"/>
       <use xlink:href="#DejaVuSans-15" transform="translate(95.40625 0)"/>
       <use xlink:href="#DejaVuSans-18" transform="translate(159.03125 0)"/>
      </g>
     </g>
    </g>
    <g id="xtick_3">
     <g id="line2d_5">
      <path d="M 270.165879 170.433438 
L 270.165879 22.318125 
" clip-path="url(#p73625c147d)" style="fill: none; stroke: #b0b0b0; stroke-opacity: 0.3; stroke-width: 0.8; stroke-linecap: square"/>
     </g>
     <g id="line2d_6">
      <g>
       <use xlink:href="#m17742161b4" x="270.165879" y="170.433438" style="stroke: #000000; stroke-width: 0.8"/>
      </g>
     </g>
     <g id="text_3">
      <!-- 0.50 -->
      <g transform="translate(259.033067 185.031094) scale(0.1 -0.1)">
       <use xlink:href="#DejaVuSans-13"/>
       <use xlink:href="#DejaVuSans-11" transform="translate(63.625 0)"/>
       <use xlink:href="#DejaVuSans-18" transform="translate(95.40625 0)"/>
       <use xlink:href="#DejaVuSans-13" transform="translate(159.03125 0)"/>
      </g>
     </g>
    </g>
    <g id="xtick_4">
     <g id="line2d_7">
      <path d="M 360.897075 170.433438 
L 360.897075 22.318125 
" clip-path="url(#p73625c147d)" style="fill: none; stroke: #b0b0b0; stroke-opacity: 0.3; stroke-width: 0.8; stroke-linecap: square"/>
     </g>
     <g id="line2d_8">
      <g>
       <use xlink:href="#m17742161b4" x="360.897075" y="170.433438" style="stroke: #000000; stroke-width: 0.8"/>
      </g>
     </g>
     <g id="text_4">
      <!-- 0.75 -->
      <g transform="translate(349.764263 185.031094) scale(0.1 -0.1)">
       <defs>
        <path id="DejaVuSans-1a" d="M 525 4666 
L 3525 4666 
L 3525 4397 
L 1831 0 
L 1172 0 
L 2766 4134 
L 525 4134 
L 525 4666 
z
" transform="scale(0.015625)"/>
       </defs>
       <use xlink:href="#DejaVuSans-13"/>
       <use xlink:href="#DejaVuSans-11" transform="translate(63.625 0)"/>
       <use xlink:href="#DejaVuSans-1a" transform="translate(95.40625 0)"/>
       <use xlink:href="#DejaVuSans-18" transform="translate(159.03125 0)"/>
      </g>
     </g>
    </g>
    <g id="xtick_5">
     <g id="line2d_9">
      <path d="M 451.628271 170.433438 
L 451.628271 22.318125 
" clip-path="url(#p73625c147d)" style="fill: none; stroke: #b0b0b0; stroke-opacity: 0.3; stroke-width: 0.8; stroke-linecap: square"/>
     </g>
     <g id="line2d_10">
      <g>
       <use xlink:href="#m17742161b4" x="451.628271" y="170.433438" style="stroke: #000000; stroke-width: 0.8"/>
      </g>
     </g>
     <g id="text_5">
      <!-- 1.00 -->
      <g transform="translate(440.495459 185.031094) scale(0.1 -0.1)">
       <defs>
        <path id="DejaVuSans-14" d="M 794 531 
L 1825 531 
L 1825 4091 
L 703 3866 
L 703 4441 
L 1819 4666 
L 2450 4666 
L 2450 531 
L 3481 531 
L 3481 0 
L 794 0 
L 794 531 
z
" transform="scale(0.015625)"/>
       </defs>
       <use xlink:href="#DejaVuSans-14"/>
       <use xlink:href="#DejaVuSans-11" transform="translate(63.625 0)"/>
       <use xlink:href="#DejaVuSans-13" transform="translate(95.40625 0)"/>
       <use xlink:href="#DejaVuSans-13" transform="translate(159.03125 0)"/>
      </g>
     </g>
    </g>
    <g id="xtick_6">
     <g id="line2d_11">
      <path d="M 542.359468 170.433438 
L 542.359468 22.318125 
" clip-path="url(#p73625c147d)" style="fill: none; stroke: #b0b0b0; stroke-opacity: 0.3; stroke-width: 0.8; stroke-linecap: square"/>
     </g>
     <g id="line2d_12">
      <g>
       <use xlink:href="#m17742161b4" x="542.359468" y="170.433438" style="stroke: #000000; stroke-width: 0.8"/>
      </g>
     </g>
     <g id="text_6">
      <!-- 1.25 -->
      <g transform="translate(531.226655 185.031094) scale(0.1 -0.1)">
       <use xlink:href="#DejaVuSans-14"/>
       <use xlink:href="#DejaVuSans-11" transform="translate(63.625 0)"/>
       <use xlink:href="#DejaVuSans-15" transform="translate(95.40625 0)"/>
       <use xlink:href="#DejaVuSans-18" transform="translate(159.03125 0)"/>
      </g>
     </g>
    </g>
    <g id="xtick_7">
     <g id="line2d_13">
      <path d="M 633.090664 170.433438 
L 633.090664 22.318125 
" clip-path="url(#p73625c147d)" style="fill: none; stroke: #b0b0b0; stroke-opacity: 0.3; stroke-width: 0.8; stroke-linecap: square"/>
     </g>
     <g id="line2d_14">
      <g>
       <use xlink:href="#m17742161b4" x="633.090664" y="170.433438" style="stroke: #000000; stroke-width: 0.8"/>
      </g>
     </g>
     <g id="text_7">
      <!-- 1.50 -->
      <g transform="translate(621.957851 185.031094) scale(0.1 -0.1)">
       <use xlink:href="#DejaVuSans-14"/>
       <use xlink:href="#DejaVuSans-11" transform="translate(63.625 0)"/>
       <use xlink:href="#DejaVuSans-18" transform="translate(95.40625 0)"/>
       <use xlink:href="#DejaVuSans-13" transform="translate(159.03125 0)"/>
      </g>
     </g>
    </g>
    <g id="xtick_8">
     <g id="line2d_15">
      <path d="M 723.82186 170.433438 
L 723.82186 22.318125 
" clip-path="url(#p73625c147d)" style="fill: none; stroke: #b0b0b0; stroke-opacity: 0.3; stroke-width: 0.8; stroke-linecap: square"/>
     </g>
     <g id="line2d_16">
      <g>
       <use xlink:href="#m17742161b4" x="723.82186" y="170.433438" style="stroke: #000000; stroke-width: 0.8"/>
      </g>
     </g>
     <g id="text_8">
      <!-- 1.75 -->
      <g transform="translate(712.689047 185.031094) scale(0.1 -0.1)">
       <use xlink:href="#DejaVuSans-14"/>
       <use xlink:href="#DejaVuSans-11" transform="translate(63.625 0)"/>
       <use xlink:href="#DejaVuSans-1a" transform="translate(95.40625 0)"/>
       <use xlink:href="#DejaVuSans-18" transform="translate(159.03125 0)"/>
      </g>
     </g>
    </g>
    <g id="xtick_9">
     <g id="line2d_17">
      <path d="M 814.553056 170.433438 
L 814.553056 22.318125 
" clip-path="url(#p73625c147d)" style="fill: none; stroke: #b0b0b0; stroke-opacity: 0.3; stroke-width: 0.8; stroke-linecap: square"/>
     </g>
     <g id="line2d_18">
      <g>
       <use xlink:href="#m17742161b4" x="814.553056" y="170.433438" style="stroke: #000000; stroke-width: 0.8"/>
      </g>
     </g>
     <g id="text_9">
      <!-- 2.00 -->
      <g transform="translate(803.420243 185.031094) scale(0.1 -0.1)">
       <use xlink:href="#DejaVuSans-15"/>
       <use xlink:href="#DejaVuSans-11" transform="translate(63.625 0)"/>
       <use xlink:href="#DejaVuSans-13" transform="translate(95.40625 0)"/>
       <use xlink:href="#DejaVuSans-13" transform="translate(159.03125 0)"/>
      </g>
     </g>
    </g>
    <g id="text_10">
     <!-- Time (s) -->
     <g transform="translate(430.571172 199.031875) scale(0.1 -0.1)">
      <defs>
       <path id="DejaVuSans-37" d="M -19 4666 
L 3928 4666 
L 3928 4134 
L 2272 4134 
L 2272 0 
L 1638 0 
L 1638 4134 
L -19 4134 
L -19 4666 
z
" transform="scale(0.015625)"/>
       <path id="DejaVuSans-4c" d="M 603 3500 
L 1178 3500 
L 1178 0 
L 603 0 
L 603 3500 
z
M 603 4863 
L 1178 4863 
L 1178 4134 
L 603 4134 
L 603 4863 
z
" transform="scale(0.015625)"/>
       <path id="DejaVuSans-50" d="M 3328 2828 
Q 3544 3216 3844 3400 
Q 4144 3584 4550 3584 
Q 5097 3584 5394 3201 
Q 5691 2819 5691 2113 
L 5691 0 
L 5113 0 
L 5113 2094 
Q 5113 2597 4934 2840 
Q 4756 3084 4391 3084 
Q 3944 3084 3684 2787 
Q 3425 2491 3425 1978 
L 3425 0 
L 2847 0 
L 2847 2094 
Q 2847 2600 2669 2842 
Q 2491 3084 2119 3084 
Q 1678 3084 1418 2786 
Q 1159 2488 1159 1978 
L 1159 0 
L 581 0 
L 581 3500 
L 1159 3500 
L 1159 2956 
Q 1356 3278 1631 3431 
Q 1906 3584 2284 3584 
Q 2666 3584 2933 3390 
Q 3200 3197 3328 2828 
z
" transform="scale(0.015625)"/>
       <path id="DejaVuSans-48" d="M 3597 1894 
L 3597 1613 
L 953 1613 
Q 991 1019 1311 708 
Q 1631 397 2203 397 
Q 2534 397 2845 478 
Q 3156 559 3463 722 
L 3463 178 
Q 3153 47 2828 -22 
Q 2503 -91 2169 -91 
Q 1331 -91 842 396 
Q 353 884 353 1716 
Q 353 2575 817 3079 
Q 1281 3584 2069 3584 
Q 2775 3584 3186 3129 
Q 3597 2675 3597 1894 
z
M 3022 2063 
Q 3016 2534 2758 2815 
Q 2500 3097 2075 3097 
Q 1594 3097 1305 2825 
Q 1016 2553 972 2059 
L 3022 2063 
z
" transform="scale(0.015625)"/>
       <path id="DejaVuSans-3" transform="scale(0.015625)"/>
       <path id="DejaVuSans-b" d="M 1984 4856 
Q 1566 4138 1362 3434 
Q 1159 2731 1159 2009 
Q 1159 1288 1364 580 
Q 1569 -128 1984 -844 
L 1484 -844 
Q 1016 -109 783 600 
Q 550 1309 550 2009 
Q 550 2706 781 3412 
Q 1013 4119 1484 4856 
L 1984 4856 
z
" transform="scale(0.015625)"/>
       <path id="DejaVuSans-56" d="M 2834 3397 
L 2834 2853 
Q 2591 2978 2328 3040 
Q 2066 3103 1784 3103 
Q 1356 3103 1142 2972 
Q 928 2841 928 2578 
Q 928 2378 1081 2264 
Q 1234 2150 1697 2047 
L 1894 2003 
Q 2506 1872 2764 1633 
Q 3022 1394 3022 966 
Q 3022 478 2636 193 
Q 2250 -91 1575 -91 
Q 1294 -91 989 -36 
Q 684 19 347 128 
L 347 722 
Q 666 556 975 473 
Q 1284 391 1588 391 
Q 1994 391 2212 530 
Q 2431 669 2431 922 
Q 2431 1156 2273 1281 
Q 2116 1406 1581 1522 
L 1381 1569 
Q 847 1681 609 1914 
Q 372 2147 372 2553 
Q 372 3047 722 3315 
Q 1072 3584 1716 3584 
Q 2034 3584 2315 3537 
Q 2597 3491 2834 3397 
z
" transform="scale(0.015625)"/>
       <path id="DejaVuSans-c" d="M 513 4856 
L 1013 4856 
Q 1481 4119 1714 3412 
Q 1947 2706 1947 2009 
Q 1947 1309 1714 600 
Q 1481 -109 1013 -844 
L 513 -844 
Q 928 -128 1133 580 
Q 1338 1288 1338 2009 
Q 1338 2731 1133 3434 
Q 928 4138 513 4856 
z
" transform="scale(0.015625)"/>
      </defs>
      <use xlink:href="#DejaVuSans-37"/>
      <use xlink:href="#DejaVuSans-4c" transform="translate(58 0)"/>
      <use xlink:href="#DejaVuSans-50" transform="translate(85.78125 0)"/>
      <use xlink:href="#DejaVuSans-48" transform="translate(183.1875 0)"/>
      <use xlink:href="#DejaVuSans-3" transform="translate(244.71875 0)"/>
      <use xlink:href="#DejaVuSans-b" transform="translate(276.5 0)"/>
      <use xlink:href="#DejaVuSans-56" transform="translate(315.515625 0)"/>
      <use xlink:href="#DejaVuSans-c" transform="translate(367.609375 0)"/>
     </g>
    </g>
   </g>
   <g id="matplotlib.axis_2">
    <g id="ytick_1">
     <g id="line2d_19">
      <path d="M 52.483594 164.233904 
L 849.32125 164.233904 
" clip-path="url(#p73625c147d)" style="fill: none; stroke: #b0b0b0; stroke-opacity: 0.3; stroke-width: 0.8; stroke-linecap: square"/>
     </g>
     <g id="line2d_20">
      <defs>
       <path id="m5a07be4f1a" d="M 0 0 
L -3.5 0 
" style="stroke: #000000; stroke-width: 0.8"/>
      </defs>
      <g>
       <use xlink:href="#m5a07be4f1a" x="52.483594" y="164.233904" style="stroke: #000000; stroke-width: 0.8"/>
      </g>
     </g>
     <g id="text_11">
      <!-- −1.0 -->
      <g transform="translate(21.200781 168.032732) scale(0.1 -0.1)">
       <defs>
        <path id="DejaVuSans-c9c" d="M 678 2272 
L 4684 2272 
L 4684 1741 
L 678 1741 
L 678 2272 
z
" transform="scale(0.015625)"/>
       </defs>
       <use xlink:href="#DejaVuSans-c9c"/>
       <use xlink:href="#DejaVuSans-14" transform="translate(83.796875 0)"/>
       <use xlink:href="#DejaVuSans-11" transform="translate(147.421875 0)"/>
       <use xlink:href="#DejaVuSans-13" transform="translate(179.203125 0)"/>
      </g>
     </g>
    </g>
    <g id="ytick_2">
     <g id="line2d_21">
      <path d="M 52.483594 130.438087 
L 849.32125 130.438087 
" clip-path="url(#p73625c147d)" style="fill: none; stroke: #b0b0b0; stroke-opacity: 0.3; stroke-width: 0.8; stroke-linecap: square"/>
     </g>
     <g id="line2d_22">
      <g>
       <use xlink:href="#m5a07be4f1a" x="52.483594" y="130.438087" style="stroke: #000000; stroke-width: 0.8"/>
      </g>
     </g>
     <g id="text_12">
      <!-- −0.5 -->
      <g transform="translate(21.200781 134.236916) scale(0.1 -0.1)">
       <use xlink:href="#DejaVuSans-c9c"/>
       <use xlink:href="#DejaVuSans-13" transform="translate(83.796875 0)"/>
       <use xlink:href="#DejaVuSans-11" transform="translate(147.421875 0)"/>
       <use xlink:href="#DejaVuSans-18" transform="translate(179.203125 0)"/>
      </g>
     </g>
    </g>
    <g id="ytick_3">
     <g id="line2d_23">
      <path d="M 52.483594 96.642271 
L 849.32125 96.642271 
" clip-path="url(#p73625c147d)" style="fill: none; stroke: #b0b0b0; stroke-opacity: 0.3; stroke-width: 0.8; stroke-linecap: square"/>
     </g>
     <g id="line2d_24">
      <g>
       <use xlink:href="#m5a07be4f1a" x="52.483594" y="96.642271" style="stroke: #000000; stroke-width: 0.8"/>
      </g>
     </g>
     <g id="text_13">
      <!-- 0.0 -->
      <g transform="translate(29.580469 100.441099) scale(0.1 -0.1)">
       <use xlink:href="#DejaVuSans-13"/>
       <use xlink:href="#DejaVuSans-11" transform="translate(63.625 0)"/>
       <use xlink:href="#DejaVuSans-13" transform="translate(95.40625 0)"/>
      </g>
     </g>
    </g>
    <g id="ytick_4">
     <g id="line2d_25">
      <path d="M 52.483594 62.846455 
L 849.32125 62.846455 
" clip-path="url(#p73625c147d)" style="fill: none; stroke: #b0b0b0; stroke-opacity: 0.3; stroke-width: 0.8; stroke-linecap: square"/>
     </g>
     <g id="line2d_26">
      <g>
       <use xlink:href="#m5a07be4f1a" x="52.483594" y="62.846455" style="stroke: #000000; stroke-width: 0.8"/>
      </g>
     </g>
     <g id="text_14">
      <!-- 0.5 -->
      <g transform="translate(29.580469 66.645283) scale(0.1 -0.1)">
       <use xlink:href="#DejaVuSans-13"/>
       <use xlink:href="#DejaVuSans-11" transform="translate(63.625 0)"/>
       <use xlink:href="#DejaVuSans-18" transform="translate(95.40625 0)"/>
      </g>
     </g>
    </g>
    <g id="ytick_5">
     <g id="line2d_27">
      <path d="M 52.483594 29.050639 
L 849.32125 29.050639 
" clip-path="url(#p73625c147d)" style="fill: none; stroke: #b0b0b0; stroke-opacity: 0.3; stroke-width: 0.8; stroke-linecap: square"/>
     </g>
     <g id="line2d_28">
      <g>
       <use xlink:href="#m5a07be4f1a" x="52.483594" y="29.050639" style="stroke: #000000; stroke-width: 0.8"/>
      </g>
     </g>
     <g id="text_15">
      <!-- 1.0 -->
      <g transform="translate(29.580469 32.849467) scale(0.1 -0.1)">
       <use xlink:href="#DejaVuSans-14"/>
       <use xlink:href="#DejaVuSans-11" transform="translate(63.625 0)"/>
       <use xlink:href="#DejaVuSans-13" transform="translate(95.40625 0)"/>
      </g>
     </g>
    </g>
    <g id="text_16">
     <!-- Amplitude -->
     <g transform="translate(14.798438 121.998438) rotate(-90) scale(0.1 -0.1)">
      <defs>
       <path id="DejaVuSans-24" d="M 2188 4044 
L 1331 1722 
L 3047 1722 
L 2188 4044 
z
M 1831 4666 
L 2547 4666 
L 4325 0 
L 3669 0 
L 3244 1197 
L 1141 1197 
L 716 0 
L 50 0 
L 1831 4666 
z
" transform="scale(0.015625)"/>
       <path id="DejaVuSans-53" d="M 1159 525 
L 1159 -1331 
L 581 -1331 
L 581 3500 
L 1159 3500 
L 1159 2969 
Q 1341 3281 1617 3432 
Q 1894 3584 2278 3584 
Q 2916 3584 3314 3078 
Q 3713 2572 3713 1747 
Q 3713 922 3314 415 
Q 2916 -91 2278 -91 
Q 1894 -91 1617 61 
Q 1341 213 1159 525 
z
M 3116 1747 
Q 3116 2381 2855 2742 
Q 2594 3103 2138 3103 
Q 1681 3103 1420 2742 
Q 1159 2381 1159 1747 
Q 1159 1113 1420 752 
Q 1681 391 2138 391 
Q 2594 391 2855 752 
Q 3116 1113 3116 1747 
z
" transform="scale(0.015625)"/>
       <path id="DejaVuSans-4f" d="M 603 4863 
L 1178 4863 
L 1178 0 
L 603 0 
L 603 4863 
z
" transform="scale(0.015625)"/>
       <path id="DejaVuSans-57" d="M 1172 4494 
L 1172 3500 
L 2356 3500 
L 2356 3053 
L 1172 3053 
L 1172 1153 
Q 1172 725 1289 603 
Q 1406 481 1766 481 
L 2356 481 
L 2356 0 
L 1766 0 
Q 1100 0 847 248 
Q 594 497 594 1153 
L 594 3053 
L 172 3053 
L 172 3500 
L 594 3500 
L 594 4494 
L 1172 4494 
z
" transform="scale(0.015625)"/>
       <path id="DejaVuSans-58" d="M 544 1381 
L 544 3500 
L 1119 3500 
L 1119 1403 
Q 1119 906 1312 657 
Q 1506 409 1894 409 
Q 2359 409 2629 706 
Q 2900 1003 2900 1516 
L 2900 3500 
L 3475 3500 
L 3475 0 
L 2900 0 
L 2900 538 
Q 2691 219 2414 64 
Q 2138 -91 1772 -91 
Q 1169 -91 856 284 
Q 544 659 544 1381 
z
M 1991 3584 
L 1991 3584 
z
" transform="scale(0.015625)"/>
       <path id="DejaVuSans-47" d="M 2906 2969 
L 2906 4863 
L 3481 4863 
L 3481 0 
L 2906 0 
L 2906 525 
Q 2725 213 2448 61 
Q 2172 -91 1784 -91 
Q 1150 -91 751 415 
Q 353 922 353 1747 
Q 353 2572 751 3078 
Q 1150 3584 1784 3584 
Q 2172 3584 2448 3432 
Q 2725 3281 2906 2969 
z
M 947 1747 
Q 947 1113 1208 752 
Q 1469 391 1925 391 
Q 2381 391 2643 752 
Q 2906 1113 2906 1747 
Q 2906 2381 2643 2742 
Q 2381 3103 1925 3103 
Q 1469 3103 1208 2742 
Q 947 2381 947 1747 
z
" transform="scale(0.015625)"/>
      </defs>
      <use xlink:href="#DejaVuSans-24"/>
      <use xlink:href="#DejaVuSans-50" transform="translate(68.40625 0)"/>
      <use xlink:href="#DejaVuSans-53" transform="translate(165.8125 0)"/>
      <use xlink:href="#DejaVuSans-4f" transform="translate(229.296875 0)"/>
      <use xlink:href="#DejaVuSans-4c" transform="translate(257.078125 0)"/>
      <use xlink:href="#DejaVuSans-57" transform="translate(284.859375 0)"/>
      <use xlink:href="#DejaVuSans-58" transform="translate(324.0625 0)"/>
      <use xlink:href="#DejaVuSans-47" transform="translate(387.4375 0)"/>
      <use xlink:href="#DejaVuSans-48" transform="translate(450.921875 0)"/>
     </g>
    </g>
   </g>
   <g id="line2d_29">
    <path d="M 88.703487 29.050639 
L 90.155186 47.370092 
L 93.058585 139.726799 
L 94.510284 163.700923 
L 95.961983 151.32505 
L 97.413682 109.30768 
L 98.865381 60.424864 
L 100.31708 31.174155 
L 101.768779 37.411273 
L 103.220479 75.755308 
L 104.672178 125.421389 
L 106.123877 159.487382 
L 107.575576 159.487382 
L 109.027275 125.421389 
L 110.478974 75.755308 
L 111.930673 37.411273 
L 113.382373 31.174155 
L 114.834072 60.424864 
L 116.285771 109.30768 
L 117.73747 151.32505 
L 119.189169 163.700923 
L 120.640868 139.726799 
L 123.544267 47.370092 
L 124.995966 29.050639 
L 126.447665 47.370092 
L 129.351063 139.726799 
L 130.802762 163.700923 
L 132.254461 151.32505 
L 133.70616 109.30768 
L 135.15786 60.424864 
L 136.609559 31.174155 
L 138.061258 37.411273 
L 139.512957 75.755308 
L 140.964656 125.421389 
L 142.416355 159.487382 
L 143.868054 159.487382 
L 145.319754 125.421389 
L 146.771453 75.755308 
L 148.223152 37.411273 
L 149.674851 31.174155 
L 151.12655 60.424864 
L 152.578249 109.30768 
L 154.029948 151.32505 
L 155.481648 163.700923 
L 156.933347 139.726799 
L 159.836745 47.370092 
L 161.288444 29.050639 
L 162.740143 47.370092 
L 165.643541 139.726799 
L 167.095241 163.700923 
L 168.54694 151.32505 
L 169.998639 109.30768 
L 171.450338 60.424864 
L 172.902037 31.174155 
L 174.353736 37.411273 
L 175.805435 75.755308 
L 177.257135 125.421389 
L 178.708834 159.487382 
L 180.160533 159.487382 
L 181.612232 125.421389 
L 183.063931 75.755308 
L 184.51563 37.411273 
L 185.967329 31.174155 
L 187.419029 60.424864 
L 188.870728 109.30768 
L 190.322427 151.32505 
L 191.774126 163.700923 
L 193.225825 139.726799 
L 196.129223 47.370092 
L 197.580922 29.050639 
L 199.032622 47.370092 
L 201.93602 139.726799 
L 203.387719 163.700923 
L 204.839418 151.32505 
L 206.291117 109.30768 
L 207.742816 60.424864 
L 209.194516 31.174155 
L 210.646215 37.411273 
L 212.097914 75.755308 
L 213.549613 125.421389 
L 215.001312 159.487382 
L 216.453011 159.487382 
L 217.90471 125.421389 
L 219.35641 75.755308 
L 220.808109 37.411273 
L 222.259808 31.174155 
L 223.711507 60.424864 
L 225.163206 109.30768 
L 226.614905 151.32505 
L 228.066604 163.700923 
L 229.518303 139.726799 
L 232.421702 47.370092 
L 233.873401 29.050639 
L 235.3251 47.370092 
L 238.228498 139.726799 
L 239.680197 163.700923 
L 241.131897 151.32505 
L 242.583596 109.30768 
L 244.035295 60.424864 
L 245.486994 31.174155 
L 246.938693 37.411273 
L 248.390392 75.755308 
L 249.842091 125.421389 
L 251.293791 159.487382 
L 252.74549 159.487382 
L 254.197189 125.421389 
L 255.648888 75.755308 
L 257.100587 37.411273 
L 258.552286 31.174155 
L 260.003985 60.424864 
L 261.455685 109.30768 
L 262.907384 151.32505 
L 264.359083 163.700923 
L 265.810782 139.726799 
L 268.71418 47.370092 
L 270.165879 29.050639 
L 271.617578 47.370092 
L 274.520977 139.726799 
L 275.972676 163.700923 
L 277.424375 151.32505 
L 278.876074 109.30768 
L 280.327773 60.424864 
L 281.779472 31.174155 
L 283.231172 37.411273 
L 284.682871 75.755308 
L 286.13457 125.421389 
L 287.586269 159.487382 
L 289.037968 159.487382 
L 290.489667 125.421389 
L 291.941366 75.755308 
L 293.393066 37.411273 
L 294.844765 31.174155 
L 296.296464 60.424864 
L 297.748163 109.30768 
L 299.199862 151.32505 
L 300.651561 163.700923 
L 302.10326 139.726799 
L 305.006659 47.370092 
L 306.458358 29.050639 
L 307.910057 47.370092 
L 310.813455 139.726799 
L 312.265154 163.700923 
L 313.716853 151.32505 
L 315.168553 109.30768 
L 316.620252 60.424864 
L 318.071951 31.174155 
L 319.52365 37.411273 
L 320.975349 75.755308 
L 322.427048 125.421389 
L 323.878747 159.487382 
L 325.330447 159.487382 
L 326.782146 125.421389 
L 328.233845 75.755308 
L 329.685544 37.411273 
L 331.137243 31.174155 
L 332.588942 60.424864 
L 334.040641 109.30768 
L 335.49234 151.32505 
L 336.94404 163.700923 
L 338.395739 139.726799 
L 341.299137 47.370092 
L 342.750836 29.050639 
L 344.202535 47.370092 
L 347.105934 139.726799 
L 348.557633 163.700923 
L 350.009332 151.32505 
L 351.461031 109.30768 
L 352.91273 60.424864 
L 354.364429 31.174155 
L 355.816128 37.411273 
L 357.267828 75.755308 
L 358.719527 125.421389 
L 360.171226 159.487382 
L 361.622925 159.487382 
L 363.074624 125.421389 
L 364.526323 75.755308 
L 365.978022 37.411273 
L 367.429722 31.174155 
L 368.881421 60.424864 
L 370.33312 109.30768 
L 371.784819 151.32505 
L 373.236518 163.700923 
L 374.688217 139.726799 
L 377.591615 47.370092 
L 379.043315 29.050639 
L 380.495014 47.370092 
L 383.398412 139.726799 
L 384.850111 163.700923 
L 386.30181 151.32505 
L 387.753509 109.30768 
L 389.205209 60.424864 
L 390.656908 31.174155 
L 392.108607 37.411273 
L 393.560306 75.755308 
L 395.012005 125.421389 
L 396.463704 159.487382 
L 397.915403 159.487382 
L 399.367103 125.421389 
L 400.818802 75.755308 
L 402.270501 37.411273 
L 403.7222 31.174155 
L 405.173899 60.424864 
L 406.625598 109.30768 
L 408.077297 151.32505 
L 409.528996 163.700923 
L 410.980696 139.726799 
L 413.884094 47.370092 
L 415.335793 29.050639 
L 416.787492 47.370092 
L 419.69089 139.726799 
L 421.14259 163.700923 
L 422.594289 151.32505 
L 424.045988 109.30768 
L 425.497687 60.424864 
L 426.949386 31.174155 
L 428.401085 37.411273 
L 429.852784 75.755308 
L 431.304484 125.421389 
L 432.756183 159.487382 
L 434.207882 159.487382 
L 435.659581 125.421389 
L 437.11128 75.755308 
L 438.562979 37.411273 
L 440.014678 31.174155 
L 441.466377 60.424864 
L 442.918077 109.30768 
L 444.369776 151.32505 
L 445.821475 163.700923 
L 447.273174 139.726799 
L 450.176572 47.370092 
L 451.628271 29.050639 
L 453.079971 47.370092 
L 455.983369 139.726799 
L 457.435068 163.700923 
L 458.886767 151.32505 
L 460.338466 109.30768 
L 461.790165 60.424864 
L 463.241865 31.174155 
L 464.693564 37.411273 
L 466.145263 75.755308 
L 467.596962 125.421389 
L 469.048661 159.487382 
L 470.50036 159.487382 
L 471.952059 125.421389 
L 473.403758 75.755308 
L 474.855458 37.411273 
L 476.307157 31.174155 
L 477.758856 60.424864 
L 479.210555 109.30768 
L 480.662254 151.32505 
L 482.113953 163.700923 
L 483.565652 139.726799 
L 486.469051 47.370092 
L 487.92075 29.050639 
L 489.372449 47.370092 
L 492.275847 139.726799 
L 493.727546 163.700923 
L 495.179246 151.32505 
L 496.630945 109.30768 
L 498.082644 60.424864 
L 499.534343 31.174155 
L 500.986042 37.411273 
L 502.437741 75.755308 
L 503.88944 125.421389 
L 505.34114 159.487382 
L 506.792839 159.487382 
L 508.244538 125.421389 
L 509.696237 75.755308 
L 511.147936 37.411273 
L 512.599635 31.174155 
L 514.051334 60.424864 
L 515.503033 109.30768 
L 516.954733 151.32505 
L 518.406432 163.700923 
L 519.858131 139.726799 
L 522.761529 47.370092 
L 524.213228 29.050639 
L 525.664927 47.370092 
L 528.568326 139.726799 
L 530.020025 163.700923 
L 531.471724 151.32505 
L 532.923423 109.30768 
L 534.375122 60.424864 
L 535.826821 31.174155 
L 537.278521 37.411273 
L 538.73022 75.755308 
L 540.181919 125.421389 
L 541.633618 159.487382 
L 543.085317 159.487382 
L 544.537016 125.421389 
L 545.988715 75.755308 
L 547.440414 37.411273 
L 548.892114 31.174155 
L 550.343813 60.424864 
L 551.795512 109.30768 
L 553.247211 151.32505 
L 554.69891 163.700923 
L 556.150609 139.726799 
L 559.054008 47.370092 
L 560.505707 29.050639 
L 561.957406 47.370092 
L 564.860804 139.726799 
L 566.312503 163.700923 
L 567.764202 151.32505 
L 569.215902 109.30768 
L 570.667601 60.424864 
L 572.1193 31.174155 
L 573.570999 37.411273 
L 575.022698 75.755308 
L 576.474397 125.421389 
L 577.926096 159.487382 
L 579.377795 159.487382 
L 580.829495 125.421389 
L 582.281194 75.755308 
L 583.732893 37.411273 
L 585.184592 31.174155 
L 586.636291 60.424864 
L 588.08799 109.30768 
L 589.539689 151.32505 
L 590.991389 163.700923 
L 592.443088 139.726799 
L 595.346486 47.370092 
L 596.798185 29.050639 
L 598.249884 47.370092 
L 601.153283 139.726799 
L 602.604982 163.700923 
L 604.056681 151.32505 
L 605.50838 109.30768 
L 606.960079 60.424864 
L 608.411778 31.174155 
L 609.863477 37.411273 
L 611.315177 75.755308 
L 612.766876 125.421389 
L 614.218575 159.487382 
L 615.670274 159.487382 
L 617.121973 125.421389 
L 618.573672 75.755308 
L 620.025371 37.411273 
L 621.47707 31.174155 
L 622.92877 60.424864 
L 624.380469 109.30768 
L 625.832168 151.32505 
L 627.283867 163.700923 
L 628.735566 139.726799 
L 631.638964 47.370092 
L 633.090664 29.050639 
L 634.542363 47.370092 
L 637.445761 139.726799 
L 638.89746 163.700923 
L 640.349159 151.32505 
L 641.800858 109.30768 
L 643.252558 60.424864 
L 644.704257 31.174155 
L 646.155956 37.411273 
L 647.607655 75.755308 
L 649.059354 125.421389 
L 650.511053 159.487382 
L 651.962752 159.487382 
L 653.414451 125.421389 
L 654.866151 75.755308 
L 656.31785 37.411273 
L 657.769549 31.174155 
L 659.221248 60.424864 
L 660.672947 109.30768 
L 662.124646 151.32505 
L 663.576345 163.700923 
L 665.028045 139.726799 
L 667.931443 47.370092 
L 669.383142 29.050639 
L 670.834841 47.370092 
L 673.738239 139.726799 
L 675.189939 163.700923 
L 676.641638 151.32505 
L 678.093337 109.30768 
L 679.545036 60.424864 
L 680.996735 31.174155 
L 682.448434 37.411273 
L 683.900133 75.755308 
L 685.351832 125.421389 
L 686.803532 159.487382 
L 688.255231 159.487382 
L 689.70693 125.421389 
L 691.158629 75.755308 
L 692.610328 37.411273 
L 694.062027 31.174155 
L 695.513726 60.424864 
L 696.965426 109.30768 
L 698.417125 151.32505 
L 699.868824 163.700923 
L 701.320523 139.726799 
L 704.223921 47.370092 
L 705.67562 29.050639 
L 707.12732 47.370092 
L 710.030718 139.726799 
L 711.482417 163.700923 
L 712.934116 151.32505 
L 714.385815 109.30768 
L 715.837514 60.424864 
L 717.289213 31.174155 
L 718.740913 37.411273 
L 720.192612 75.755308 
L 721.644311 125.421389 
L 723.09601 159.487382 
L 724.547709 159.487382 
L 725.999408 125.421389 
L 727.451107 75.755308 
L 728.902807 37.411273 
L 730.354506 31.174155 
L 731.806205 60.424864 
L 733.257904 109.30768 
L 734.709603 151.32505 
L 736.161302 163.700923 
L 737.613001 139.726799 
L 740.5164 47.370092 
L 741.968099 29.050639 
L 743.419798 47.370092 
L 746.323196 139.726799 
L 747.774895 163.700923 
L 749.226595 151.32505 
L 750.678294 109.30768 
L 752.129993 60.424864 
L 753.581692 31.174155 
L 755.033391 37.411273 
L 756.48509 75.755308 
L 757.936789 125.421389 
L 759.388488 159.487382 
L 760.840188 159.487382 
L 762.291887 125.421389 
L 763.743586 75.755308 
L 765.195285 37.411273 
L 766.646984 31.174155 
L 768.098683 60.424864 
L 769.550382 109.30768 
L 771.002082 151.32505 
L 772.453781 163.700923 
L 773.90548 139.726799 
L 776.808878 47.370092 
L 778.260577 29.050639 
L 779.712276 47.370092 
L 782.615675 139.726799 
L 784.067374 163.700923 
L 785.519073 151.32505 
L 786.970772 109.30768 
L 788.422471 60.424864 
L 789.87417 31.174155 
L 791.325869 37.411273 
L 792.777569 75.755308 
L 794.229268 125.421389 
L 795.680967 159.487382 
L 797.132666 159.487382 
L 798.584365 125.421389 
L 800.036064 75.755308 
L 801.487763 37.411273 
L 802.939463 31.174155 
L 804.391162 60.424864 
L 805.842861 109.30768 
L 807.29456 151.32505 
L 808.746259 163.700923 
L 810.197958 139.726799 
L 813.101357 47.370092 
L 813.101357 47.370092 
" clip-path="url(#p73625c147d)" style="fill: none; stroke: #1f77b4; stroke-width: 0.5; stroke-linecap: square"/>
   </g>
   <g id="patch_3">
    <path d="M 52.483594 170.433438 
L 52.483594 22.318125 
" style="fill: none; stroke: #000000; stroke-width: 0.8; stroke-linejoin: miter; stroke-linecap: square"/>
   </g>
   <g id="patch_4">
    <path d="M 849.32125 170.433438 
L 849.32125 22.318125 
" style="fill: none; stroke: #000000; stroke-width: 0.8; stroke-linejoin: miter; stroke-linecap: square"/>
   </g>
   <g id="patch_5">
    <path d="M 52.483594 170.433438 
L 849.32125 170.433438 
" style="fill: none; stroke: #000000; stroke-width: 0.8; stroke-linejoin: miter; stroke-linecap: square"/>
   </g>
   <g id="patch_6">
    <path d="M 52.483594 22.318125 
L 849.32125 22.318125 
" style="fill: none; stroke: #000000; stroke-width: 0.8; stroke-linejoin: miter; stroke-linecap: square"/>
   </g>
   <g id="text_17">
    <!-- Tone at 30.0 Hz (real-valued) -->
    <g transform="translate(364.160234 16.318125) scale(0.12 -0.12)">
     <defs>
      <path id="DejaVuSans-52" d="M 1959 3097 
Q 1497 3097 1228 2736 
Q 959 2375 959 1747 
Q 959 1119 1226 758 
Q 1494 397 1959 397 
Q 2419 397 2687 759 
Q 2956 1122 2956 1747 
Q 2956 2369 2687 2733 
Q 2419 3097 1959 3097 
z
M 1959 3584 
Q 2709 3584 3137 3096 
Q 3566 2609 3566 1747 
Q 3566 888 3137 398 
Q 2709 -91 1959 -91 
Q 1206 -91 779 398 
Q 353 888 353 1747 
Q 353 2609 779 3096 
Q 1206 3584 1959 3584 
z
" transform="scale(0.015625)"/>
      <path id="DejaVuSans-51" d="M 3513 2113 
L 3513 0 
L 2938 0 
L 2938 2094 
Q 2938 2591 2744 2837 
Q 2550 3084 2163 3084 
Q 1697 3084 1428 2787 
Q 1159 2491 1159 1978 
L 1159 0 
L 581 0 
L 581 3500 
L 1159 3500 
L 1159 2956 
Q 1366 3272 1645 3428 
Q 1925 3584 2291 3584 
Q 2894 3584 3203 3211 
Q 3513 2838 3513 2113 
z
" transform="scale(0.015625)"/>
      <path id="DejaVuSans-44" d="M 2194 1759 
Q 1497 1759 1228 1600 
Q 959 1441 959 1056 
Q 959 750 1161 570 
Q 1363 391 1709 391 
Q 2188 391 2477 730 
Q 2766 1069 2766 1631 
L 2766 1759 
L 2194 1759 
z
M 3341 1997 
L 3341 0 
L 2766 0 
L 2766 531 
Q 2569 213 2275 61 
Q 1981 -91 1556 -91 
Q 1019 -91 701 211 
Q 384 513 384 1019 
Q 384 1609 779 1909 
Q 1175 2209 1959 2209 
L 2766 2209 
L 2766 2266 
Q 2766 2663 2505 2880 
Q 2244 3097 1772 3097 
Q 1472 3097 1187 3025 
Q 903 2953 641 2809 
L 641 3341 
Q 956 3463 1253 3523 
Q 1550 3584 1831 3584 
Q 2591 3584 2966 3190 
Q 3341 2797 3341 1997 
z
" transform="scale(0.015625)"/>
      <path id="DejaVuSans-16" d="M 2597 2516 
Q 3050 2419 3304 2112 
Q 3559 1806 3559 1356 
Q 3559 666 3084 287 
Q 2609 -91 1734 -91 
Q 1441 -91 1130 -33 
Q 819 25 488 141 
L 488 750 
Q 750 597 1062 519 
Q 1375 441 1716 441 
Q 2309 441 2620 675 
Q 2931 909 2931 1356 
Q 2931 1769 2642 2001 
Q 2353 2234 1838 2234 
L 1294 2234 
L 1294 2753 
L 1863 2753 
Q 2328 2753 2575 2939 
Q 2822 3125 2822 3475 
Q 2822 3834 2567 4026 
Q 2313 4219 1838 4219 
Q 1578 4219 1281 4162 
Q 984 4106 628 3988 
L 628 4550 
Q 988 4650 1302 4700 
Q 1616 4750 1894 4750 
Q 2613 4750 3031 4423 
Q 3450 4097 3450 3541 
Q 3450 3153 3228 2886 
Q 3006 2619 2597 2516 
z
" transform="scale(0.015625)"/>
      <path id="DejaVuSans-2b" d="M 628 4666 
L 1259 4666 
L 1259 2753 
L 3553 2753 
L 3553 4666 
L 4184 4666 
L 4184 0 
L 3553 0 
L 3553 2222 
L 1259 2222 
L 1259 0 
L 628 0 
L 628 4666 
z
" transform="scale(0.015625)"/>
      <path id="DejaVuSans-5d" d="M 353 3500 
L 3084 3500 
L 3084 2975 
L 922 459 
L 3084 459 
L 3084 0 
L 275 0 
L 275 525 
L 2438 3041 
L 353 3041 
L 353 3500 
z
" transform="scale(0.015625)"/>
      <path id="DejaVuSans-55" d="M 2631 2963 
Q 2534 3019 2420 3045 
Q 2306 3072 2169 3072 
Q 1681 3072 1420 2755 
Q 1159 2438 1159 1844 
L 1159 0 
L 581 0 
L 581 3500 
L 1159 3500 
L 1159 2956 
Q 1341 3275 1631 3429 
Q 1922 3584 2338 3584 
Q 2397 3584 2469 3576 
Q 2541 3569 2628 3553 
L 2631 2963 
z
" transform="scale(0.015625)"/>
      <path id="DejaVuSans-10" d="M 313 2009 
L 1997 2009 
L 1997 1497 
L 313 1497 
L 313 2009 
z
" transform="scale(0.015625)"/>
      <path id="DejaVuSans-59" d="M 191 3500 
L 800 3500 
L 1894 563 
L 2988 3500 
L 3597 3500 
L 2284 0 
L 1503 0 
L 191 3500 
z
" transform="scale(0.015625)"/>
     </defs>
     <use xlink:href="#DejaVuSans-37"/>
     <use xlink:href="#DejaVuSans-52" transform="translate(44.09375 0)"/>
     <use xlink:href="#DejaVuSans-51" transform="translate(105.28125 0)"/>
     <use xlink:href="#DejaVuSans-48" transform="translate(168.65625 0)"/>
     <use xlink:href="#DejaVuSans-3" transform="translate(230.1875 0)"/>
     <use xlink:href="#DejaVuSans-44" transform="translate(261.96875 0)"/>
     <use xlink:href="#DejaVuSans-57" transform="translate(323.25 0)"/>
     <use xlink:href="#DejaVuSans-3" transform="translate(362.453125 0)"/>
     <use xlink:href="#DejaVuSans-16" transform="translate(394.234375 0)"/>
     <use xlink:href="#DejaVuSans-13" transform="translate(457.859375 0)"/>
     <use xlink:href="#DejaVuSans-11" transform="translate(521.484375 0)"/>
     <use xlink:href="#DejaVuSans-13" transform="translate(553.265625 0)"/>
     <use xlink:href="#DejaVuSans-3" transform="translate(616.890625 0)"/>
     <use xlink:href="#DejaVuSans-2b" transform="translate(648.671875 0)"/>
     <use xlink:href="#DejaVuSans-5d" transform="translate(723.875 0)"/>
     <use xlink:href="#DejaVuSans-3" transform="translate(776.359375 0)"/>
     <use xlink:href="#DejaVuSans-b" transform="translate(808.140625 0)"/>
     <use xlink:href="#DejaVuSans-55" transform="translate(847.15625 0)"/>
     <use xlink:href="#DejaVuSans-48" transform="translate(886.0625 0)"/>
     <use xlink:href="#DejaVuSans-44" transform="translate(947.59375 0)"/>
     <use xlink:href="#DejaVuSans-4f" transform="translate(1008.875 0)"/>
     <use xlink:href="#DejaVuSans-10" transform="translate(1036.65625 0)"/>
     <use xlink:href="#DejaVuSans-59" transform="translate(1070.046875 0)"/>
     <use xlink:href="#DejaVuSans-44" transform="translate(1129.234375 0)"/>
     <use xlink:href="#DejaVuSans-4f" transform="translate(1190.515625 0)"/>
     <use xlink:href="#DejaVuSans-58" transform="translate(1218.296875 0)"/>
     <use xlink:href="#DejaVuSans-48" transform="translate(1281.671875 0)"/>
     <use xlink:href="#DejaVuSans-47" transform="translate(1343.203125 0)"/>
     <use xlink:href="#DejaVuSans-c" transform="translate(1406.6875 0)"/>
    </g>
   </g>
   <g id="text_18">
    <!-- Figure B.43 -->
    <g transform="translate(52.483594 16.318125) scale(0.09 -0.09)">
     <defs>
      <path id="DejaVuSans-Oblique-29" d="M 1081 4666 
L 3756 4666 
L 3653 4134 
L 1606 4134 
L 1338 2759 
L 3188 2759 
L 3084 2228 
L 1234 2228 
L 800 0 
L 172 0 
L 1081 4666 
z
" transform="scale(0.015625)"/>
      <path id="DejaVuSans-Oblique-4c" d="M 1172 4863 
L 1747 4863 
L 1606 4134 
L 1031 4134 
L 1172 4863 
z
M 909 3500 
L 1484 3500 
L 800 0 
L 225 0 
L 909 3500 
z
" transform="scale(0.015625)"/>
      <path id="DejaVuSans-Oblique-4a" d="M 3816 3500 
L 3219 434 
Q 3047 -456 2561 -893 
Q 2075 -1331 1253 -1331 
Q 950 -1331 690 -1286 
Q 431 -1241 206 -1147 
L 313 -588 
Q 525 -725 762 -790 
Q 1000 -856 1269 -856 
Q 1816 -856 2167 -557 
Q 2519 -259 2631 300 
L 2681 563 
Q 2441 288 2122 144 
Q 1803 0 1434 0 
Q 903 0 598 351 
Q 294 703 294 1319 
Q 294 1803 478 2267 
Q 663 2731 997 3091 
Q 1219 3328 1514 3456 
Q 1809 3584 2131 3584 
Q 2484 3584 2746 3420 
Q 3009 3256 3138 2956 
L 3238 3500 
L 3816 3500 
z
M 2950 2216 
Q 2950 2641 2750 2872 
Q 2550 3103 2181 3103 
Q 1953 3103 1747 3012 
Q 1541 2922 1394 2759 
Q 1156 2491 1023 2127 
Q 891 1763 891 1375 
Q 891 944 1092 712 
Q 1294 481 1672 481 
Q 2219 481 2584 976 
Q 2950 1472 2950 2216 
z
" transform="scale(0.015625)"/>
      <path id="DejaVuSans-Oblique-58" d="M 428 1388 
L 838 3500 
L 1416 3500 
L 1006 1409 
Q 975 1256 961 1147 
Q 947 1038 947 966 
Q 947 700 1109 554 
Q 1272 409 1569 409 
Q 2031 409 2368 721 
Q 2706 1034 2809 1563 
L 3194 3500 
L 3769 3500 
L 3091 0 
L 2516 0 
L 2631 550 
Q 2388 244 2052 76 
Q 1716 -91 1338 -91 
Q 878 -91 622 161 
Q 366 413 366 863 
Q 366 956 381 1097 
Q 397 1238 428 1388 
z
" transform="scale(0.015625)"/>
      <path id="DejaVuSans-Oblique-55" d="M 2853 2969 
Q 2766 3016 2653 3041 
Q 2541 3066 2413 3066 
Q 1953 3066 1609 2717 
Q 1266 2369 1153 1784 
L 800 0 
L 225 0 
L 909 3500 
L 1484 3500 
L 1375 2956 
Q 1603 3259 1920 3421 
Q 2238 3584 2597 3584 
Q 2691 3584 2781 3573 
Q 2872 3563 2963 3538 
L 2853 2969 
z
" transform="scale(0.015625)"/>
      <path id="DejaVuSans-Oblique-48" d="M 3078 2063 
Q 3088 2113 3092 2166 
Q 3097 2219 3097 2272 
Q 3097 2653 2873 2875 
Q 2650 3097 2266 3097 
Q 1838 3097 1509 2826 
Q 1181 2556 1013 2059 
L 3078 2063 
z
M 3578 1613 
L 903 1613 
Q 884 1494 878 1425 
Q 872 1356 872 1306 
Q 872 872 1139 634 
Q 1406 397 1894 397 
Q 2269 397 2603 481 
Q 2938 566 3225 728 
L 3116 159 
Q 2806 34 2476 -28 
Q 2147 -91 1806 -91 
Q 1078 -91 686 257 
Q 294 606 294 1247 
Q 294 1794 489 2264 
Q 684 2734 1063 3103 
Q 1306 3334 1642 3459 
Q 1978 3584 2356 3584 
Q 2950 3584 3301 3228 
Q 3653 2872 3653 2272 
Q 3653 2128 3634 1964 
Q 3616 1800 3578 1613 
z
" transform="scale(0.015625)"/>
      <path id="DejaVuSans-Oblique-3" transform="scale(0.015625)"/>
      <path id="DejaVuSans-Oblique-25" d="M 1081 4666 
L 2694 4666 
Q 3350 4666 3675 4422 
Q 4000 4178 4000 3688 
Q 4000 3238 3720 2911 
Q 3441 2584 2988 2516 
Q 3375 2428 3569 2181 
Q 3763 1934 3763 1522 
Q 3763 819 3242 409 
Q 2722 0 1819 0 
L 172 0 
L 1081 4666 
z
M 1234 2228 
L 903 519 
L 1919 519 
Q 2491 519 2800 781 
Q 3109 1044 3109 1522 
Q 3109 1891 2904 2059 
Q 2700 2228 2247 2228 
L 1234 2228 
z
M 1606 4147 
L 1331 2741 
L 2272 2741 
Q 2775 2741 3058 2959 
Q 3341 3178 3341 3566 
Q 3341 3869 3150 4008 
Q 2959 4147 2541 4147 
L 1606 4147 
z
" transform="scale(0.015625)"/>
      <path id="DejaVuSans-Oblique-11" d="M 525 794 
L 1184 794 
L 1031 0 
L 372 0 
L 525 794 
z
" transform="scale(0.015625)"/>
      <path id="DejaVuSans-Oblique-17" d="M 2753 4666 
L 3547 4666 
L 2950 1625 
L 3616 1625 
L 3513 1100 
L 2847 1100 
L 2638 0 
L 2009 0 
L 2222 1100 
L 116 1100 
L 238 1709 
L 2753 4666 
z
M 2809 4116 
L 728 1625 
L 2322 1625 
L 2809 4116 
z
" transform="scale(0.015625)"/>
      <path id="DejaVuSans-Oblique-16" d="M 1013 4550 
Q 1356 4650 1679 4700 
Q 2003 4750 2316 4750 
Q 2934 4750 3296 4475 
Q 3659 4200 3659 3738 
Q 3659 3284 3373 2959 
Q 3088 2634 2584 2516 
Q 2978 2403 3162 2165 
Q 3347 1928 3347 1538 
Q 3347 1163 3167 834 
Q 2988 506 2650 269 
Q 2394 88 2037 -1 
Q 1681 -91 1216 -91 
Q 922 -91 622 -33 
Q 322 25 13 141 
L 128 738 
Q 422 575 720 495 
Q 1019 416 1331 416 
Q 1947 416 2330 733 
Q 2713 1050 2713 1556 
Q 2713 1881 2469 2057 
Q 2225 2234 1772 2234 
L 1228 2234 
L 1325 2747 
L 1900 2747 
Q 2419 2747 2717 2984 
Q 3016 3222 3016 3628 
Q 3016 3922 2797 4083 
Q 2578 4244 2181 4244 
Q 1881 4244 1567 4180 
Q 1253 4116 916 3988 
L 1013 4550 
z
" transform="scale(0.015625)"/>
     </defs>
     <use xlink:href="#DejaVuSans-Oblique-29"/>
     <use xlink:href="#DejaVuSans-Oblique-4c" transform="translate(57.515625 0)"/>
     <use xlink:href="#DejaVuSans-Oblique-4a" transform="translate(85.296875 0)"/>
     <use xlink:href="#DejaVuSans-Oblique-58" transform="translate(148.78125 0)"/>
     <use xlink:href="#DejaVuSans-Oblique-55" transform="translate(212.15625 0)"/>
     <use xlink:href="#DejaVuSans-Oblique-48" transform="translate(253.265625 0)"/>
     <use xlink:href="#DejaVuSans-Oblique-3" transform="translate(314.796875 0)"/>
     <use xlink:href="#DejaVuSans-Oblique-25" transform="translate(346.578125 0)"/>
     <use xlink:href="#DejaVuSans-Oblique-11" transform="translate(415.1875 0)"/>
     <use xlink:href="#DejaVuSans-Oblique-17" transform="translate(446.96875 0)"/>
     <use xlink:href="#DejaVuSans-Oblique-16" transform="translate(510.59375 0)"/>
    </g>
   </g>
  </g>
 </g>
 <defs>
  <clipPath id="p73625c147d">
   <rect x="52.483594" y="22.318125" width="796.837656" height="148.115313"/>
  </clipPath>
 </defs>
</svg>
