<?xml version="1.0" encoding="utf-8" standalone="no"?>
<!DOCTYPE svg PUBLIC "-//W3C//DTD SVG 1.1//EN"
  "http://www.w3.org/Graphics/SVG/1.1/DTD/svg11.dtd">
<svg xmlns:xlink="http://www.w3.org/1999/xlink" width="856.52125pt" height="208.634219pt" viewBox="0 0 856.52125 208.634219" xmlns="http://www.w3.org/2000/svg" version="1.1">
 <metadata>
  <rdf:RDF xmlns:dc="http://purl.org/dc/elements/1.1/" xmlns:cc="http://creativecommons.org/ns#" xmlns:rdf="http://www.w3.org/1999/02/22-rdf-syntax-ns#">
   <cc:Work>
    <dc:type rdf:resource="http://purl.org/dc/dcmitype/StillImage"/>
    <dc:date>2026-06-21T23:56:09.735372</dc:date>
    <dc:format>image/svg+xml</dc:format>
    <dc:creator>
     <cc:Agent>
      <dc:title>Matplotlib v3.11.0, https://matplotlib.org/</dc:title>
     </cc:Agent>
    </dc:creator>
   </cc:Work>
  </rdf:RDF>
 </metadata>
 <defs>
  <style type="text/css">*{stroke-linejoin: round; stroke-linecap: butt}</style>
 </defs>
 <g id="figure_1">
  <g id="patch_1">
   <path d="M 0 208.634219 
L 856.52125 208.634219 
L 856.52125 0 
L 0 0 
z
" style="fill: #ffffff"/>
  </g>
  <g id="axes_1">
   <g id="patch_2">
    <path d="M 52.483594 170.433438 
L 849.32125 170.433438 
L 849.32125 22.318125 
L 52.483594 22.318125 
z
" style="fill: #ffffff"/>
   </g>
   <g id="matplotlib.axis_1">
    <g id="xtick_1">
     <g id="line2d_1">
      <path d="M 88.703487 170.433438 
L 88.703487 22.318125 
" clip-path="url(#pc6829060a3)" style="fill: none; stroke: #b0b0b0; stroke-opacity: 0.3; stroke-width: 0.8; stroke-linecap: square"/>
     </g>
     <g id="line2d_2">
      <defs>
       <path id="m98a8ee4119" d="M 0 0 
L 0 3.5 
" style="stroke: #000000; stroke-width: 0.8"/>
      </defs>
      <g>
       <use xlink:href="#m98a8ee4119" x="88.703487" y="170.433438" style="stroke: #000000; stroke-width: 0.8"/>
      </g>
     </g>
     <g id="text_1">
      <!-- 0.00 -->
      <g transform="translate(77.570675 185.031094) scale(0.1 -0.1)">
       <defs>
        <path id="DejaVuSans-13" d="M 2034 4250 
Q 1547 4250 1301 3770 
Q 1056 3291 1056 2328 
Q 1056 1369 1301 889 
Q 1547 409 2034 409 
Q 2525 409 2770 889 
Q 3016 1369 3016 2328 
Q 3016 3291 2770 3770 
Q 2525 4250 2034 4250 
z
M 2034 4750 
Q 2819 4750 3233 4129 
Q 3647 3509 3647 2328 
Q 3647 1150 3233 529 
Q 2819 -91 2034 -91 
Q 1250 -91 836 529 
Q 422 1150 422 2328 
Q 422 3509 836 4129 
Q 1250 4750 2034 4750 
z
" transform="scale(0.015625)"/>
        <path id="DejaVuSans-11" d="M 684 794 
L 1344 794 
L 1344 0 
L 684 0 
L 684 794 
z
" transform="scale(0.015625)"/>
       </defs>
       <use xlink:href="#DejaVuSans-13"/>
       <use xlink:href="#DejaVuSans-11" transform="translate(63.625 0)"/>
       <use xlink:href="#DejaVuSans-13" transform="translate(95.40625 0)"/>
       <use xlink:href="#DejaVuSans-13" transform="translate(159.03125 0)"/>
      </g>
     </g>
    </g>
    <g id="xtick_2">
     <g id="line2d_3">
      <path d="M 179.434683 170.433438 
L 179.434683 22.318125 
" clip-path="url(#pc6829060a3)" style="fill: none; stroke: #b0b0b0; stroke-opacity: 0.3; stroke-width: 0.8; stroke-linecap: square"/>
     </g>
     <g id="line2d_4">
      <g>
       <use xlink:href="#m98a8ee4119" x="179.434683" y="170.433438" style="stroke: #000000; stroke-width: 0.8"/>
      </g>
     </g>
     <g id="text_2">
      <!-- 0.25 -->
      <g transform="translate(168.301871 185.031094) scale(0.1 -0.1)">
       <defs>
        <path id="DejaVuSans-15" d="M 1228 531 
L 3431 531 
L 3431 0 
L 469 0 
L 469 531 
Q 828 903 1448 1529 
Q 2069 2156 2228 2338 
Q 2531 2678 2651 2914 
Q 2772 3150 2772 3378 
Q 2772 3750 2511 3984 
Q 2250 4219 1831 4219 
Q 1534 4219 1204 4116 
Q 875 4013 500 3803 
L 500 4441 
Q 881 4594 1212 4672 
Q 1544 4750 1819 4750 
Q 2544 4750 2975 4387 
Q 3406 4025 3406 3419 
Q 3406 3131 3298 2873 
Q 3191 2616 2906 2266 
Q 2828 2175 2409 1742 
Q 1991 1309 1228 531 
z
" transform="scale(0.015625)"/>
        <path id="DejaVuSans-18" d="M 691 4666 
L 3169 4666 
L 3169 4134 
L 1269 4134 
L 1269 2991 
Q 1406 3038 1543 3061 
Q 1681 3084 1819 3084 
Q 2600 3084 3056 2656 
Q 3513 2228 3513 1497 
Q 3513 744 3044 326 
Q 2575 -91 1722 -91 
Q 1428 -91 1123 -41 
Q 819 9 494 109 
L 494 744 
Q 775 591 1075 516 
Q 1375 441 1709 441 
Q 2250 441 2565 725 
Q 2881 1009 2881 1497 
Q 2881 1984 2565 2268 
Q 2250 2553 1709 2553 
Q 1456 2553 1204 2497 
Q 953 2441 691 2322 
L 691 4666 
z
" transform="scale(0.015625)"/>
       </defs>
       <use xlink:href="#DejaVuSans-13"/>
       <use xlink:href="#DejaVuSans-11" transform="translate(63.625 0)"/>
       <use xlink:href="#DejaVuSans-15" transform="translate(95.40625 0)"/>
       <use xlink:href="#DejaVuSans-18" transform="translate(159.03125 0)"/>
      </g>
     </g>
    </g>
    <g id="xtick_3">
     <g id="line2d_5">
      <path d="M 270.165879 170.433438 
L 270.165879 22.318125 
" clip-path="url(#pc6829060a3)" style="fill: none; stroke: #b0b0b0; stroke-opacity: 0.3; stroke-width: 0.8; stroke-linecap: square"/>
     </g>
     <g id="line2d_6">
      <g>
       <use xlink:href="#m98a8ee4119" x="270.165879" y="170.433438" style="stroke: #000000; stroke-width: 0.8"/>
      </g>
     </g>
     <g id="text_3">
      <!-- 0.50 -->
      <g transform="translate(259.033067 185.031094) scale(0.1 -0.1)">
       <use xlink:href="#DejaVuSans-13"/>
       <use xlink:href="#DejaVuSans-11" transform="translate(63.625 0)"/>
       <use xlink:href="#DejaVuSans-18" transform="translate(95.40625 0)"/>
       <use xlink:href="#DejaVuSans-13" transform="translate(159.03125 0)"/>
      </g>
     </g>
    </g>
    <g id="xtick_4">
     <g id="line2d_7">
      <path d="M 360.897075 170.433438 
L 360.897075 22.318125 
" clip-path="url(#pc6829060a3)" style="fill: none; stroke: #b0b0b0; stroke-opacity: 0.3; stroke-width: 0.8; stroke-linecap: square"/>
     </g>
     <g id="line2d_8">
      <g>
       <use xlink:href="#m98a8ee4119" x="360.897075" y="170.433438" style="stroke: #000000; stroke-width: 0.8"/>
      </g>
     </g>
     <g id="text_4">
      <!-- 0.75 -->
      <g transform="translate(349.764263 185.031094) scale(0.1 -0.1)">
       <defs>
        <path id="DejaVuSans-1a" d="M 525 4666 
L 3525 4666 
L 3525 4397 
L 1831 0 
L 1172 0 
L 2766 4134 
L 525 4134 
L 525 4666 
z
" transform="scale(0.015625)"/>
       </defs>
       <use xlink:href="#DejaVuSans-13"/>
       <use xlink:href="#DejaVuSans-11" transform="translate(63.625 0)"/>
       <use xlink:href="#DejaVuSans-1a" transform="translate(95.40625 0)"/>
       <use xlink:href="#DejaVuSans-18" transform="translate(159.03125 0)"/>
      </g>
     </g>
    </g>
    <g id="xtick_5">
     <g id="line2d_9">
      <path d="M 451.628271 170.433438 
L 451.628271 22.318125 
" clip-path="url(#pc6829060a3)" style="fill: none; stroke: #b0b0b0; stroke-opacity: 0.3; stroke-width: 0.8; stroke-linecap: square"/>
     </g>
     <g id="line2d_10">
      <g>
       <use xlink:href="#m98a8ee4119" x="451.628271" y="170.433438" style="stroke: #000000; stroke-width: 0.8"/>
      </g>
     </g>
     <g id="text_5">
      <!-- 1.00 -->
      <g transform="translate(440.495459 185.031094) scale(0.1 -0.1)">
       <defs>
        <path id="DejaVuSans-14" d="M 794 531 
L 1825 531 
L 1825 4091 
L 703 3866 
L 703 4441 
L 1819 4666 
L 2450 4666 
L 2450 531 
L 3481 531 
L 3481 0 
L 794 0 
L 794 531 
z
" transform="scale(0.015625)"/>
       </defs>
       <use xlink:href="#DejaVuSans-14"/>
       <use xlink:href="#DejaVuSans-11" transform="translate(63.625 0)"/>
       <use xlink:href="#DejaVuSans-13" transform="translate(95.40625 0)"/>
       <use xlink:href="#DejaVuSans-13" transform="translate(159.03125 0)"/>
      </g>
     </g>
    </g>
    <g id="xtick_6">
     <g id="line2d_11">
      <path d="M 542.359468 170.433438 
L 542.359468 22.318125 
" clip-path="url(#pc6829060a3)" style="fill: none; stroke: #b0b0b0; stroke-opacity: 0.3; stroke-width: 0.8; stroke-linecap: square"/>
     </g>
     <g id="line2d_12">
      <g>
       <use xlink:href="#m98a8ee4119" x="542.359468" y="170.433438" style="stroke: #000000; stroke-width: 0.8"/>
      </g>
     </g>
     <g id="text_6">
      <!-- 1.25 -->
      <g transform="translate(531.226655 185.031094) scale(0.1 -0.1)">
       <use xlink:href="#DejaVuSans-14"/>
       <use xlink:href="#DejaVuSans-11" transform="translate(63.625 0)"/>
       <use xlink:href="#DejaVuSans-15" transform="translate(95.40625 0)"/>
       <use xlink:href="#DejaVuSans-18" transform="translate(159.03125 0)"/>
      </g>
     </g>
    </g>
    <g id="xtick_7">
     <g id="line2d_13">
      <path d="M 633.090664 170.433438 
L 633.090664 22.318125 
" clip-path="url(#pc6829060a3)" style="fill: none; stroke: #b0b0b0; stroke-opacity: 0.3; stroke-width: 0.8; stroke-linecap: square"/>
     </g>
     <g id="line2d_14">
      <g>
       <use xlink:href="#m98a8ee4119" x="633.090664" y="170.433438" style="stroke: #000000; stroke-width: 0.8"/>
      </g>
     </g>
     <g id="text_7">
      <!-- 1.50 -->
      <g transform="translate(621.957851 185.031094) scale(0.1 -0.1)">
       <use xlink:href="#DejaVuSans-14"/>
       <use xlink:href="#DejaVuSans-11" transform="translate(63.625 0)"/>
       <use xlink:href="#DejaVuSans-18" transform="translate(95.40625 0)"/>
       <use xlink:href="#DejaVuSans-13" transform="translate(159.03125 0)"/>
      </g>
     </g>
    </g>
    <g id="xtick_8">
     <g id="line2d_15">
      <path d="M 723.82186 170.433438 
L 723.82186 22.318125 
" clip-path="url(#pc6829060a3)" style="fill: none; stroke: #b0b0b0; stroke-opacity: 0.3; stroke-width: 0.8; stroke-linecap: square"/>
     </g>
     <g id="line2d_16">
      <g>
       <use xlink:href="#m98a8ee4119" x="723.82186" y="170.433438" style="stroke: #000000; stroke-width: 0.8"/>
      </g>
     </g>
     <g id="text_8">
      <!-- 1.75 -->
      <g transform="translate(712.689047 185.031094) scale(0.1 -0.1)">
       <use xlink:href="#DejaVuSans-14"/>
       <use xlink:href="#DejaVuSans-11" transform="translate(63.625 0)"/>
       <use xlink:href="#DejaVuSans-1a" transform="translate(95.40625 0)"/>
       <use xlink:href="#DejaVuSans-18" transform="translate(159.03125 0)"/>
      </g>
     </g>
    </g>
    <g id="xtick_9">
     <g id="line2d_17">
      <path d="M 814.553056 170.433438 
L 814.553056 22.318125 
" clip-path="url(#pc6829060a3)" style="fill: none; stroke: #b0b0b0; stroke-opacity: 0.3; stroke-width: 0.8; stroke-linecap: square"/>
     </g>
     <g id="line2d_18">
      <g>
       <use xlink:href="#m98a8ee4119" x="814.553056" y="170.433438" style="stroke: #000000; stroke-width: 0.8"/>
      </g>
     </g>
     <g id="text_9">
      <!-- 2.00 -->
      <g transform="translate(803.420243 185.031094) scale(0.1 -0.1)">
       <use xlink:href="#DejaVuSans-15"/>
       <use xlink:href="#DejaVuSans-11" transform="translate(63.625 0)"/>
       <use xlink:href="#DejaVuSans-13" transform="translate(95.40625 0)"/>
       <use xlink:href="#DejaVuSans-13" transform="translate(159.03125 0)"/>
      </g>
     </g>
    </g>
    <g id="text_10">
     <!-- Time (s) -->
     <g transform="translate(430.571172 199.031875) scale(0.1 -0.1)">
      <defs>
       <path id="DejaVuSans-37" d="M -19 4666 
L 3928 4666 
L 3928 4134 
L 2272 4134 
L 2272 0 
L 1638 0 
L 1638 4134 
L -19 4134 
L -19 4666 
z
" transform="scale(0.015625)"/>
       <path id="DejaVuSans-4c" d="M 603 3500 
L 1178 3500 
L 1178 0 
L 603 0 
L 603 3500 
z
M 603 4863 
L 1178 4863 
L 1178 4134 
L 603 4134 
L 603 4863 
z
" transform="scale(0.015625)"/>
       <path id="DejaVuSans-50" d="M 3328 2828 
Q 3544 3216 3844 3400 
Q 4144 3584 4550 3584 
Q 5097 3584 5394 3201 
Q 5691 2819 5691 2113 
L 5691 0 
L 5113 0 
L 5113 2094 
Q 5113 2597 4934 2840 
Q 4756 3084 4391 3084 
Q 3944 3084 3684 2787 
Q 3425 2491 3425 1978 
L 3425 0 
L 2847 0 
L 2847 2094 
Q 2847 2600 2669 2842 
Q 2491 3084 2119 3084 
Q 1678 3084 1418 2786 
Q 1159 2488 1159 1978 
L 1159 0 
L 581 0 
L 581 3500 
L 1159 3500 
L 1159 2956 
Q 1356 3278 1631 3431 
Q 1906 3584 2284 3584 
Q 2666 3584 2933 3390 
Q 3200 3197 3328 2828 
z
" transform="scale(0.015625)"/>
       <path id="DejaVuSans-48" d="M 3597 1894 
L 3597 1613 
L 953 1613 
Q 991 1019 1311 708 
Q 1631 397 2203 397 
Q 2534 397 2845 478 
Q 3156 559 3463 722 
L 3463 178 
Q 3153 47 2828 -22 
Q 2503 -91 2169 -91 
Q 1331 -91 842 396 
Q 353 884 353 1716 
Q 353 2575 817 3079 
Q 1281 3584 2069 3584 
Q 2775 3584 3186 3129 
Q 3597 2675 3597 1894 
z
M 3022 2063 
Q 3016 2534 2758 2815 
Q 2500 3097 2075 3097 
Q 1594 3097 1305 2825 
Q 1016 2553 972 2059 
L 3022 2063 
z
" transform="scale(0.015625)"/>
       <path id="DejaVuSans-3" transform="scale(0.015625)"/>
       <path id="DejaVuSans-b" d="M 1984 4856 
Q 1566 4138 1362 3434 
Q 1159 2731 1159 2009 
Q 1159 1288 1364 580 
Q 1569 -128 1984 -844 
L 1484 -844 
Q 1016 -109 783 600 
Q 550 1309 550 2009 
Q 550 2706 781 3412 
Q 1013 4119 1484 4856 
L 1984 4856 
z
" transform="scale(0.015625)"/>
       <path id="DejaVuSans-56" d="M 2834 3397 
L 2834 2853 
Q 2591 2978 2328 3040 
Q 2066 3103 1784 3103 
Q 1356 3103 1142 2972 
Q 928 2841 928 2578 
Q 928 2378 1081 2264 
Q 1234 2150 1697 2047 
L 1894 2003 
Q 2506 1872 2764 1633 
Q 3022 1394 3022 966 
Q 3022 478 2636 193 
Q 2250 -91 1575 -91 
Q 1294 -91 989 -36 
Q 684 19 347 128 
L 347 722 
Q 666 556 975 473 
Q 1284 391 1588 391 
Q 1994 391 2212 530 
Q 2431 669 2431 922 
Q 2431 1156 2273 1281 
Q 2116 1406 1581 1522 
L 1381 1569 
Q 847 1681 609 1914 
Q 372 2147 372 2553 
Q 372 3047 722 3315 
Q 1072 3584 1716 3584 
Q 2034 3584 2315 3537 
Q 2597 3491 2834 3397 
z
" transform="scale(0.015625)"/>
       <path id="DejaVuSans-c" d="M 513 4856 
L 1013 4856 
Q 1481 4119 1714 3412 
Q 1947 2706 1947 2009 
Q 1947 1309 1714 600 
Q 1481 -109 1013 -844 
L 513 -844 
Q 928 -128 1133 580 
Q 1338 1288 1338 2009 
Q 1338 2731 1133 3434 
Q 928 4138 513 4856 
z
" transform="scale(0.015625)"/>
      </defs>
      <use xlink:href="#DejaVuSans-37"/>
      <use xlink:href="#DejaVuSans-4c" transform="translate(58 0)"/>
      <use xlink:href="#DejaVuSans-50" transform="translate(85.78125 0)"/>
      <use xlink:href="#DejaVuSans-48" transform="translate(183.1875 0)"/>
      <use xlink:href="#DejaVuSans-3" transform="translate(244.71875 0)"/>
      <use xlink:href="#DejaVuSans-b" transform="translate(276.5 0)"/>
      <use xlink:href="#DejaVuSans-56" transform="translate(315.515625 0)"/>
      <use xlink:href="#DejaVuSans-c" transform="translate(367.609375 0)"/>
     </g>
    </g>
   </g>
   <g id="matplotlib.axis_2">
    <g id="ytick_1">
     <g id="line2d_19">
      <path d="M 52.483594 163.700923 
L 849.32125 163.700923 
" clip-path="url(#pc6829060a3)" style="fill: none; stroke: #b0b0b0; stroke-opacity: 0.3; stroke-width: 0.8; stroke-linecap: square"/>
     </g>
     <g id="line2d_20">
      <defs>
       <path id="m1da9ddff65" d="M 0 0 
L -3.5 0 
" style="stroke: #000000; stroke-width: 0.8"/>
      </defs>
      <g>
       <use xlink:href="#m1da9ddff65" x="52.483594" y="163.700923" style="stroke: #000000; stroke-width: 0.8"/>
      </g>
     </g>
     <g id="text_11">
      <!-- −1.0 -->
      <g transform="translate(21.200781 167.499751) scale(0.1 -0.1)">
       <defs>
        <path id="DejaVuSans-c9c" d="M 678 2272 
L 4684 2272 
L 4684 1741 
L 678 1741 
L 678 2272 
z
" transform="scale(0.015625)"/>
       </defs>
       <use xlink:href="#DejaVuSans-c9c"/>
       <use xlink:href="#DejaVuSans-14" transform="translate(83.796875 0)"/>
       <use xlink:href="#DejaVuSans-11" transform="translate(147.421875 0)"/>
       <use xlink:href="#DejaVuSans-13" transform="translate(179.203125 0)"/>
      </g>
     </g>
    </g>
    <g id="ytick_2">
     <g id="line2d_21">
      <path d="M 52.483594 130.038352 
L 849.32125 130.038352 
" clip-path="url(#pc6829060a3)" style="fill: none; stroke: #b0b0b0; stroke-opacity: 0.3; stroke-width: 0.8; stroke-linecap: square"/>
     </g>
     <g id="line2d_22">
      <g>
       <use xlink:href="#m1da9ddff65" x="52.483594" y="130.038352" style="stroke: #000000; stroke-width: 0.8"/>
      </g>
     </g>
     <g id="text_12">
      <!-- −0.5 -->
      <g transform="translate(21.200781 133.83718) scale(0.1 -0.1)">
       <use xlink:href="#DejaVuSans-c9c"/>
       <use xlink:href="#DejaVuSans-13" transform="translate(83.796875 0)"/>
       <use xlink:href="#DejaVuSans-11" transform="translate(147.421875 0)"/>
       <use xlink:href="#DejaVuSans-18" transform="translate(179.203125 0)"/>
      </g>
     </g>
    </g>
    <g id="ytick_3">
     <g id="line2d_23">
      <path d="M 52.483594 96.375781 
L 849.32125 96.375781 
" clip-path="url(#pc6829060a3)" style="fill: none; stroke: #b0b0b0; stroke-opacity: 0.3; stroke-width: 0.8; stroke-linecap: square"/>
     </g>
     <g id="line2d_24">
      <g>
       <use xlink:href="#m1da9ddff65" x="52.483594" y="96.375781" style="stroke: #000000; stroke-width: 0.8"/>
      </g>
     </g>
     <g id="text_13">
      <!-- 0.0 -->
      <g transform="translate(29.580469 100.174609) scale(0.1 -0.1)">
       <use xlink:href="#DejaVuSans-13"/>
       <use xlink:href="#DejaVuSans-11" transform="translate(63.625 0)"/>
       <use xlink:href="#DejaVuSans-13" transform="translate(95.40625 0)"/>
      </g>
     </g>
    </g>
    <g id="ytick_4">
     <g id="line2d_25">
      <path d="M 52.483594 62.71321 
L 849.32125 62.71321 
" clip-path="url(#pc6829060a3)" style="fill: none; stroke: #b0b0b0; stroke-opacity: 0.3; stroke-width: 0.8; stroke-linecap: square"/>
     </g>
     <g id="line2d_26">
      <g>
       <use xlink:href="#m1da9ddff65" x="52.483594" y="62.71321" style="stroke: #000000; stroke-width: 0.8"/>
      </g>
     </g>
     <g id="text_14">
      <!-- 0.5 -->
      <g transform="translate(29.580469 66.512038) scale(0.1 -0.1)">
       <use xlink:href="#DejaVuSans-13"/>
       <use xlink:href="#DejaVuSans-11" transform="translate(63.625 0)"/>
       <use xlink:href="#DejaVuSans-18" transform="translate(95.40625 0)"/>
      </g>
     </g>
    </g>
    <g id="ytick_5">
     <g id="line2d_27">
      <path d="M 52.483594 29.050639 
L 849.32125 29.050639 
" clip-path="url(#pc6829060a3)" style="fill: none; stroke: #b0b0b0; stroke-opacity: 0.3; stroke-width: 0.8; stroke-linecap: square"/>
     </g>
     <g id="line2d_28">
      <g>
       <use xlink:href="#m1da9ddff65" x="52.483594" y="29.050639" style="stroke: #000000; stroke-width: 0.8"/>
      </g>
     </g>
     <g id="text_15">
      <!-- 1.0 -->
      <g transform="translate(29.580469 32.849467) scale(0.1 -0.1)">
       <use xlink:href="#DejaVuSans-14"/>
       <use xlink:href="#DejaVuSans-11" transform="translate(63.625 0)"/>
       <use xlink:href="#DejaVuSans-13" transform="translate(95.40625 0)"/>
      </g>
     </g>
    </g>
    <g id="text_16">
     <!-- Amplitude -->
     <g transform="translate(14.798438 121.998438) rotate(-90) scale(0.1 -0.1)">
      <defs>
       <path id="DejaVuSans-24" d="M 2188 4044 
L 1331 1722 
L 3047 1722 
L 2188 4044 
z
M 1831 4666 
L 2547 4666 
L 4325 0 
L 3669 0 
L 3244 1197 
L 1141 1197 
L 716 0 
L 50 0 
L 1831 4666 
z
" transform="scale(0.015625)"/>
       <path id="DejaVuSans-53" d="M 1159 525 
L 1159 -1331 
L 581 -1331 
L 581 3500 
L 1159 3500 
L 1159 2969 
Q 1341 3281 1617 3432 
Q 1894 3584 2278 3584 
Q 2916 3584 3314 3078 
Q 3713 2572 3713 1747 
Q 3713 922 3314 415 
Q 2916 -91 2278 -91 
Q 1894 -91 1617 61 
Q 1341 213 1159 525 
z
M 3116 1747 
Q 3116 2381 2855 2742 
Q 2594 3103 2138 3103 
Q 1681 3103 1420 2742 
Q 1159 2381 1159 1747 
Q 1159 1113 1420 752 
Q 1681 391 2138 391 
Q 2594 391 2855 752 
Q 3116 1113 3116 1747 
z
" transform="scale(0.015625)"/>
       <path id="DejaVuSans-4f" d="M 603 4863 
L 1178 4863 
L 1178 0 
L 603 0 
L 603 4863 
z
" transform="scale(0.015625)"/>
       <path id="DejaVuSans-57" d="M 1172 4494 
L 1172 3500 
L 2356 3500 
L 2356 3053 
L 1172 3053 
L 1172 1153 
Q 1172 725 1289 603 
Q 1406 481 1766 481 
L 2356 481 
L 2356 0 
L 1766 0 
Q 1100 0 847 248 
Q 594 497 594 1153 
L 594 3053 
L 172 3053 
L 172 3500 
L 594 3500 
L 594 4494 
L 1172 4494 
z
" transform="scale(0.015625)"/>
       <path id="DejaVuSans-58" d="M 544 1381 
L 544 3500 
L 1119 3500 
L 1119 1403 
Q 1119 906 1312 657 
Q 1506 409 1894 409 
Q 2359 409 2629 706 
Q 2900 1003 2900 1516 
L 2900 3500 
L 3475 3500 
L 3475 0 
L 2900 0 
L 2900 538 
Q 2691 219 2414 64 
Q 2138 -91 1772 -91 
Q 1169 -91 856 284 
Q 544 659 544 1381 
z
M 1991 3584 
L 1991 3584 
z
" transform="scale(0.015625)"/>
       <path id="DejaVuSans-47" d="M 2906 2969 
L 2906 4863 
L 3481 4863 
L 3481 0 
L 2906 0 
L 2906 525 
Q 2725 213 2448 61 
Q 2172 -91 1784 -91 
Q 1150 -91 751 415 
Q 353 922 353 1747 
Q 353 2572 751 3078 
Q 1150 3584 1784 3584 
Q 2172 3584 2448 3432 
Q 2725 3281 2906 2969 
z
M 947 1747 
Q 947 1113 1208 752 
Q 1469 391 1925 391 
Q 2381 391 2643 752 
Q 2906 1113 2906 1747 
Q 2906 2381 2643 2742 
Q 2381 3103 1925 3103 
Q 1469 3103 1208 2742 
Q 947 2381 947 1747 
z
" transform="scale(0.015625)"/>
      </defs>
      <use xlink:href="#DejaVuSans-24"/>
      <use xlink:href="#DejaVuSans-50" transform="translate(68.40625 0)"/>
      <use xlink:href="#DejaVuSans-53" transform="translate(165.8125 0)"/>
      <use xlink:href="#DejaVuSans-4f" transform="translate(229.296875 0)"/>
      <use xlink:href="#DejaVuSans-4c" transform="translate(257.078125 0)"/>
      <use xlink:href="#DejaVuSans-57" transform="translate(284.859375 0)"/>
      <use xlink:href="#DejaVuSans-58" transform="translate(324.0625 0)"/>
      <use xlink:href="#DejaVuSans-47" transform="translate(387.4375 0)"/>
      <use xlink:href="#DejaVuSans-48" transform="translate(450.921875 0)"/>
     </g>
    </g>
   </g>
   <g id="line2d_29">
    <path d="M 88.703487 29.050639 
L 90.155186 31.195339 
L 91.606885 37.608013 
L 93.058585 48.033714 
L 94.510284 61.915343 
L 95.961983 78.406567 
L 100.31708 131.704435 
L 101.768779 146.222763 
L 103.220479 156.928368 
L 104.672178 162.796278 
L 106.123877 163.152944 
L 107.575576 157.767431 
L 109.027275 146.910671 
L 110.478974 131.372558 
L 111.930673 112.429603 
L 114.834072 71.308814 
L 116.285771 53.110096 
L 117.73747 39.082457 
L 119.189169 30.815304 
L 120.640868 29.370489 
L 122.092567 35.123819 
L 123.544267 47.670104 
L 124.995966 65.810806 
L 129.351063 132.278794 
L 130.802762 149.697287 
L 132.254461 160.662172 
L 133.70616 163.591386 
L 135.15786 157.871179 
L 136.609559 144.005769 
L 138.061258 123.625351 
L 142.416355 52.388416 
L 143.868054 36.519778 
L 145.319754 29.315423 
L 146.771453 32.08939 
L 148.223152 44.684696 
L 149.674851 65.40445 
L 154.029948 141.529783 
L 155.481648 157.732654 
L 156.933347 163.698012 
L 158.385046 158.143564 
L 159.836745 141.755234 
L 161.288444 117.180394 
L 164.191842 61.33565 
L 165.643541 40.333598 
L 167.095241 29.784462 
L 168.54694 31.965006 
L 169.998639 46.745466 
L 171.450338 71.481655 
L 174.353736 130.530483 
L 175.805435 152.762476 
L 177.257135 163.265056 
L 178.708834 159.529391 
L 180.160533 142.054389 
L 181.612232 114.393911 
L 183.063931 82.516052 
L 184.51563 53.565508 
L 185.967329 34.269764 
L 187.419029 29.338388 
L 188.870728 40.240008 
L 190.322427 64.685572 
L 193.225825 129.37188 
L 194.677524 153.695748 
L 196.129223 163.640919 
L 197.580922 156.362922 
L 199.032622 133.416568 
L 201.93602 66.369947 
L 203.387719 40.109577 
L 204.839418 29.135674 
L 206.291117 36.793206 
L 207.742816 61.277875 
L 210.646215 130.894347 
L 212.097914 155.974105 
L 213.549613 163.543671 
L 215.001312 151.011545 
L 216.453011 121.819188 
L 217.90471 84.642311 
L 219.35641 50.908904 
L 220.808109 31.306887 
L 222.259808 32.335317 
L 223.711507 54.024232 
L 226.614905 127.692144 
L 228.066604 155.470804 
L 229.518303 163.420936 
L 230.970003 148.487184 
L 232.421702 115.451182 
L 233.873401 75.571168 
L 235.3251 42.848342 
L 236.776799 29.113534 
L 238.228498 39.649452 
L 239.680197 70.995051 
L 241.131897 111.886782 
L 242.583596 147.178076 
L 244.035295 163.430109 
L 245.486994 154.126287 
L 246.938693 122.460124 
L 248.390392 80.453453 
L 249.842091 44.533239 
L 251.293791 29.129008 
L 252.74549 40.768663 
L 254.197189 75.121097 
L 255.648888 118.383564 
L 257.100587 152.688399 
L 258.552286 163.479209 
L 260.003985 145.822762 
L 261.455685 106.874328 
L 262.907384 63.202843 
L 264.359083 33.859757 
L 265.810782 32.029369 
L 267.262481 58.926225 
L 270.165879 143.981846 
L 271.617578 163.413175 
L 273.069278 151.791419 
L 274.520977 114.132911 
L 275.972676 67.909316 
L 277.424375 35.102767 
L 278.876074 31.733322 
L 280.327773 59.845167 
L 281.779472 106.037838 
L 283.231172 147.619639 
L 284.682871 163.688963 
L 286.13457 145.776803 
L 287.586269 102.57686 
L 289.037968 56.01332 
L 290.489667 30.252683 
L 291.941366 39.082457 
L 293.393066 78.276149 
L 294.844765 127.287001 
L 296.296464 159.823234 
L 297.748163 157.980881 
L 299.199862 122.335278 
L 300.651561 72.190697 
L 302.10326 35.364839 
L 303.554959 32.765887 
L 305.006659 66.294235 
L 306.458358 117.180394 
L 307.910057 156.224036 
L 309.361756 160.51985 
L 310.813455 127.121534 
L 312.265154 75.378153 
L 313.716853 36.009296 
L 315.168553 32.900081 
L 316.620252 68.370133 
L 318.071951 121.128351 
L 319.52365 158.765411 
L 320.975349 157.648795 
L 322.427048 118.031426 
L 323.878747 64.566205 
L 325.330447 31.237913 
L 326.782146 39.731616 
L 328.233845 85.009046 
L 329.685544 137.866747 
L 331.137243 163.537839 
L 332.588942 144.658926 
L 335.49234 43.965696 
L 336.94404 30.051702 
L 338.395739 61.567105 
L 339.847438 117.228666 
L 341.299137 158.540429 
L 342.750836 156.362922 
L 344.202535 111.7715 
L 345.654234 56.081066 
L 347.105934 29.146182 
L 348.557633 50.746917 
L 350.009332 105.652532 
L 351.461031 153.907715 
L 352.91273 159.760736 
L 354.364429 118.415544 
L 355.816128 60.415532 
L 357.267828 29.434339 
L 358.719527 49.335366 
L 360.171226 105.367541 
L 361.622925 154.607603 
L 363.074624 158.675996 
L 364.526323 113.936973 
L 365.978022 55.21877 
L 367.429722 29.055538 
L 368.881421 56.707293 
L 370.33312 116.406459 
L 371.784819 160.002287 
L 373.236518 151.704796 
L 376.139916 42.633567 
L 377.591615 32.124673 
L 379.043315 75.571168 
L 380.495014 136.724698 
L 381.946713 163.666089 
L 383.398412 132.977432 
L 384.850111 70.619381 
L 386.30181 30.492683 
L 387.753509 47.904354 
L 389.205209 108.042599 
L 390.656908 157.980881 
L 392.108607 153.065629 
L 395.012005 40.484078 
L 396.463704 34.474145 
L 397.915403 85.14249 
L 399.367103 146.279592 
L 400.818802 161.258615 
L 402.270501 115.694455 
L 403.7222 51.878256 
L 405.173899 29.997224 
L 406.625598 71.230314 
L 408.077297 136.629819 
L 409.528996 163.382719 
L 410.980696 125.225025 
L 412.432395 58.841899 
L 413.884094 29.165053 
L 415.335793 65.810806 
L 416.787492 132.906395 
L 418.239191 163.613319 
L 419.69089 126.7446 
L 421.14259 59.066956 
L 422.594289 29.241917 
L 424.045988 68.124164 
L 425.497687 136.194505 
L 426.949386 163.120152 
L 428.401085 120.497689 
L 429.852784 52.490983 
L 431.304484 30.660992 
L 432.756183 78.537058 
L 434.207882 145.546262 
L 435.659581 159.87963 
L 437.11128 105.652532 
L 438.562979 41.249988 
L 440.014678 36.959477 
L 442.918077 157.307792 
L 444.369776 149.050354 
L 445.821475 81.904005 
L 447.273174 30.908864 
L 448.724873 53.827233 
L 450.176572 125.14856 
L 451.628271 163.700923 
L 453.079971 124.934216 
L 454.53167 53.097134 
L 455.983369 31.439049 
L 457.435068 85.626605 
L 458.886767 152.53023 
L 460.338466 153.202139 
L 461.790165 86.378938 
L 463.241865 31.390161 
L 464.693564 54.340682 
L 466.145263 128.06599 
L 467.596962 163.445058 
L 469.048661 117.051612 
L 470.50036 45.230825 
L 471.952059 36.365612 
L 473.403758 101.868881 
L 474.855458 160.621833 
L 476.307157 138.989862 
L 477.758856 63.675081 
L 479.210555 29.640315 
L 480.662254 80.453453 
L 482.113953 151.695153 
L 483.565652 151.935161 
L 485.017352 80.404135 
L 486.469051 29.515816 
L 487.92075 65.810806 
L 489.372449 142.240518 
L 490.824148 158.310637 
L 492.275847 92.351067 
L 493.727546 31.667518 
L 495.179246 57.490617 
L 496.630945 135.632998 
L 498.082644 160.820928 
L 500.986042 33.222171 
L 502.437741 54.446505 
L 503.88944 133.473068 
L 505.34114 161.222354 
L 508.244538 32.905722 
L 509.696237 56.121743 
L 511.147936 136.18086 
L 512.599635 159.874008 
L 515.503033 30.952542 
L 516.954733 62.835398 
L 518.406432 143.222133 
L 519.858131 155.672306 
L 521.30983 81.639721 
L 522.761529 29.129827 
L 524.213228 75.571168 
L 525.664927 152.827106 
L 527.116627 146.279592 
L 528.568326 65.239305 
L 530.020025 30.811457 
L 532.923423 161.379056 
L 534.375122 128.913659 
L 535.826821 46.745466 
L 537.278521 40.61649 
L 538.73022 120.371262 
L 540.181919 163.065713 
L 541.633618 102.155522 
L 543.085317 32.175421 
L 544.537016 62.791394 
L 545.988715 146.313651 
L 547.440414 150.922421 
L 548.892114 68.894314 
L 550.343813 30.64631 
L 553.247211 162.661715 
L 554.69891 120.576656 
L 556.150609 39.189353 
L 557.602308 50.946355 
L 559.054008 137.06253 
L 560.505707 156.362922 
L 561.957406 76.668443 
L 563.409105 29.587899 
L 566.312503 162.30038 
L 567.764202 120.371262 
L 569.215902 37.983271 
L 570.667601 54.3539 
L 572.1193 142.128919 
L 573.570999 151.896907 
L 575.022698 66.56702 
L 576.474397 32.461777 
L 577.926096 108.708585 
L 579.377795 163.608951 
L 580.829495 101.497785 
L 582.281194 30.406901 
L 583.732893 75.040837 
L 585.184592 157.278974 
L 586.636291 131.833979 
L 588.08799 43.417898 
L 589.539689 49.371695 
L 590.991389 139.446698 
L 592.443088 152.172975 
L 593.894787 64.26835 
L 595.346486 34.467493 
L 596.798185 117.180394 
L 598.249884 161.959276 
L 599.701583 86.630005 
L 601.153283 29.197661 
L 604.056681 163.476456 
L 605.50838 106.456282 
L 606.960079 30.606279 
L 608.411778 77.966699 
L 609.863477 159.957909 
L 611.315177 121.944463 
L 612.766876 35.479802 
L 614.218575 64.805068 
L 615.670274 154.39415 
L 617.121973 132.849524 
L 618.573672 41.172389 
L 620.025371 56.01332 
L 621.47707 149.029271 
L 622.92877 139.706252 
L 624.380469 45.852074 
L 625.832168 50.908904 
L 627.283867 145.302857 
L 628.735566 143.222133 
L 630.187265 48.435886 
L 631.638964 48.853543 
L 633.090664 143.981846 
L 634.542363 143.898019 
L 635.994062 48.435886 
L 637.445761 49.529429 
L 638.89746 145.302857 
L 640.349159 141.842658 
L 641.800858 45.852074 
L 643.252558 53.04531 
L 644.704257 149.029271 
L 646.155956 136.738242 
L 647.607655 41.172389 
L 649.059354 59.902038 
L 650.511053 154.39415 
L 651.962752 127.946495 
L 653.414451 35.479802 
L 654.866151 70.8071 
L 656.31785 159.957909 
L 657.769549 114.784863 
L 659.221248 30.606279 
L 660.672947 86.295281 
L 662.124646 163.476456 
L 665.028045 29.197661 
L 666.479744 106.121558 
L 667.931443 161.959276 
L 669.383142 75.571168 
L 670.834841 34.467493 
L 672.28654 128.483213 
L 673.738239 152.172975 
L 675.189939 53.304865 
L 676.641638 49.371695 
L 678.093337 149.333664 
L 679.545036 131.833979 
L 680.996735 35.472588 
L 682.448434 75.040837 
L 683.900133 162.344662 
L 685.351832 101.497785 
L 686.803532 29.142611 
L 688.255231 108.708585 
L 689.70693 160.289785 
L 691.158629 66.56702 
L 692.610328 40.854656 
L 694.062027 142.128919 
L 695.513726 138.397662 
L 696.965426 37.983271 
L 698.417125 72.380301 
L 699.868824 162.30038 
L 701.320523 99.11617 
L 702.772222 29.587899 
L 704.223921 116.083119 
L 705.67562 156.362922 
L 707.12732 55.689033 
L 708.579019 50.946355 
L 710.030718 153.56221 
L 711.482417 120.576656 
L 712.934116 30.089848 
L 715.837514 162.105252 
L 717.289213 68.894314 
L 718.740913 41.829142 
L 720.192612 146.313651 
L 721.644311 129.960169 
L 723.09601 32.175421 
L 724.547709 90.596041 
L 725.999408 163.065713 
L 727.451107 72.380301 
L 728.902807 40.61649 
L 730.354506 146.006096 
L 731.806205 128.913659 
L 733.257904 31.372506 
L 736.161302 161.940105 
L 737.613001 65.239305 
L 739.064701 46.471971 
L 740.5164 152.827106 
L 741.968099 117.180394 
L 743.419798 29.129827 
L 744.871497 111.111841 
L 746.323196 155.672306 
L 747.774895 49.529429 
L 749.226595 62.835398 
L 750.678294 161.799021 
L 752.129993 93.111376 
L 753.581692 32.877554 
L 755.033391 136.18086 
L 756.48509 136.629819 
L 757.936789 32.905722 
L 759.388488 93.973558 
L 760.840188 161.222354 
L 762.291887 59.278495 
L 763.743586 54.446505 
L 765.195285 159.529391 
L 766.646984 98.524339 
L 768.098683 31.930635 
L 769.550382 135.632998 
L 771.002082 135.260946 
L 772.453781 31.667518 
L 773.90548 100.400496 
L 775.357179 158.310637 
L 776.808878 50.511044 
L 778.260577 65.810806 
L 779.712276 163.235747 
L 781.163976 80.404135 
L 782.615675 40.816402 
L 784.067374 151.695153 
L 785.519073 112.29811 
L 786.970772 29.640315 
L 788.422471 129.076481 
L 789.87417 138.989862 
L 791.325869 32.129729 
L 792.777569 101.868881 
L 794.229268 156.38595 
L 795.680967 45.230825 
L 797.132666 75.69995 
L 798.584365 163.445058 
L 800.036064 64.685572 
L 801.487763 54.340682 
L 802.939463 161.361402 
L 804.391162 86.378938 
L 805.842861 39.549424 
L 807.29456 152.53023 
L 808.746259 107.124958 
L 810.197958 31.439049 
L 811.649657 139.654429 
L 813.101357 124.934216 
L 813.101357 124.934216 
" clip-path="url(#pc6829060a3)" style="fill: none; stroke: #1f77b4; stroke-width: 0.5; stroke-linecap: square"/>
   </g>
   <g id="patch_3">
    <path d="M 52.483594 170.433438 
L 52.483594 22.318125 
" style="fill: none; stroke: #000000; stroke-width: 0.8; stroke-linejoin: miter; stroke-linecap: square"/>
   </g>
   <g id="patch_4">
    <path d="M 849.32125 170.433438 
L 849.32125 22.318125 
" style="fill: none; stroke: #000000; stroke-width: 0.8; stroke-linejoin: miter; stroke-linecap: square"/>
   </g>
   <g id="patch_5">
    <path d="M 52.483594 170.433438 
L 849.32125 170.433438 
" style="fill: none; stroke: #000000; stroke-width: 0.8; stroke-linejoin: miter; stroke-linecap: square"/>
   </g>
   <g id="patch_6">
    <path d="M 52.483594 22.318125 
L 849.32125 22.318125 
" style="fill: none; stroke: #000000; stroke-width: 0.8; stroke-linejoin: miter; stroke-linecap: square"/>
   </g>
   <g id="text_17">
    <!-- Linear chirp 10.0-80.0 Hz -->
    <g transform="translate(374.945234 16.318125) scale(0.12 -0.12)">
     <defs>
      <path id="DejaVuSans-2f" d="M 628 4666 
L 1259 4666 
L 1259 531 
L 3531 531 
L 3531 0 
L 628 0 
L 628 4666 
z
" transform="scale(0.015625)"/>
      <path id="DejaVuSans-51" d="M 3513 2113 
L 3513 0 
L 2938 0 
L 2938 2094 
Q 2938 2591 2744 2837 
Q 2550 3084 2163 3084 
Q 1697 3084 1428 2787 
Q 1159 2491 1159 1978 
L 1159 0 
L 581 0 
L 581 3500 
L 1159 3500 
L 1159 2956 
Q 1366 3272 1645 3428 
Q 1925 3584 2291 3584 
Q 2894 3584 3203 3211 
Q 3513 2838 3513 2113 
z
" transform="scale(0.015625)"/>
      <path id="DejaVuSans-44" d="M 2194 1759 
Q 1497 1759 1228 1600 
Q 959 1441 959 1056 
Q 959 750 1161 570 
Q 1363 391 1709 391 
Q 2188 391 2477 730 
Q 2766 1069 2766 1631 
L 2766 1759 
L 2194 1759 
z
M 3341 1997 
L 3341 0 
L 2766 0 
L 2766 531 
Q 2569 213 2275 61 
Q 1981 -91 1556 -91 
Q 1019 -91 701 211 
Q 384 513 384 1019 
Q 384 1609 779 1909 
Q 1175 2209 1959 2209 
L 2766 2209 
L 2766 2266 
Q 2766 2663 2505 2880 
Q 2244 3097 1772 3097 
Q 1472 3097 1187 3025 
Q 903 2953 641 2809 
L 641 3341 
Q 956 3463 1253 3523 
Q 1550 3584 1831 3584 
Q 2591 3584 2966 3190 
Q 3341 2797 3341 1997 
z
" transform="scale(0.015625)"/>
      <path id="DejaVuSans-55" d="M 2631 2963 
Q 2534 3019 2420 3045 
Q 2306 3072 2169 3072 
Q 1681 3072 1420 2755 
Q 1159 2438 1159 1844 
L 1159 0 
L 581 0 
L 581 3500 
L 1159 3500 
L 1159 2956 
Q 1341 3275 1631 3429 
Q 1922 3584 2338 3584 
Q 2397 3584 2469 3576 
Q 2541 3569 2628 3553 
L 2631 2963 
z
" transform="scale(0.015625)"/>
      <path id="DejaVuSans-46" d="M 3122 3366 
L 3122 2828 
Q 2878 2963 2633 3030 
Q 2388 3097 2138 3097 
Q 1578 3097 1268 2742 
Q 959 2388 959 1747 
Q 959 1106 1268 751 
Q 1578 397 2138 397 
Q 2388 397 2633 464 
Q 2878 531 3122 666 
L 3122 134 
Q 2881 22 2623 -34 
Q 2366 -91 2075 -91 
Q 1284 -91 818 406 
Q 353 903 353 1747 
Q 353 2603 823 3093 
Q 1294 3584 2113 3584 
Q 2378 3584 2631 3529 
Q 2884 3475 3122 3366 
z
" transform="scale(0.015625)"/>
      <path id="DejaVuSans-4b" d="M 3513 2113 
L 3513 0 
L 2938 0 
L 2938 2094 
Q 2938 2591 2744 2837 
Q 2550 3084 2163 3084 
Q 1697 3084 1428 2787 
Q 1159 2491 1159 1978 
L 1159 0 
L 581 0 
L 581 4863 
L 1159 4863 
L 1159 2956 
Q 1366 3272 1645 3428 
Q 1925 3584 2291 3584 
Q 2894 3584 3203 3211 
Q 3513 2838 3513 2113 
z
" transform="scale(0.015625)"/>
      <path id="DejaVuSans-10" d="M 313 2009 
L 1997 2009 
L 1997 1497 
L 313 1497 
L 313 2009 
z
" transform="scale(0.015625)"/>
      <path id="DejaVuSans-1b" d="M 2034 2216 
Q 1584 2216 1326 1975 
Q 1069 1734 1069 1313 
Q 1069 891 1326 650 
Q 1584 409 2034 409 
Q 2484 409 2743 651 
Q 3003 894 3003 1313 
Q 3003 1734 2745 1975 
Q 2488 2216 2034 2216 
z
M 1403 2484 
Q 997 2584 770 2862 
Q 544 3141 544 3541 
Q 544 4100 942 4425 
Q 1341 4750 2034 4750 
Q 2731 4750 3128 4425 
Q 3525 4100 3525 3541 
Q 3525 3141 3298 2862 
Q 3072 2584 2669 2484 
Q 3125 2378 3379 2068 
Q 3634 1759 3634 1313 
Q 3634 634 3220 271 
Q 2806 -91 2034 -91 
Q 1263 -91 848 271 
Q 434 634 434 1313 
Q 434 1759 690 2068 
Q 947 2378 1403 2484 
z
M 1172 3481 
Q 1172 3119 1398 2916 
Q 1625 2713 2034 2713 
Q 2441 2713 2670 2916 
Q 2900 3119 2900 3481 
Q 2900 3844 2670 4047 
Q 2441 4250 2034 4250 
Q 1625 4250 1398 4047 
Q 1172 3844 1172 3481 
z
" transform="scale(0.015625)"/>
      <path id="DejaVuSans-2b" d="M 628 4666 
L 1259 4666 
L 1259 2753 
L 3553 2753 
L 3553 4666 
L 4184 4666 
L 4184 0 
L 3553 0 
L 3553 2222 
L 1259 2222 
L 1259 0 
L 628 0 
L 628 4666 
z
" transform="scale(0.015625)"/>
      <path id="DejaVuSans-5d" d="M 353 3500 
L 3084 3500 
L 3084 2975 
L 922 459 
L 3084 459 
L 3084 0 
L 275 0 
L 275 525 
L 2438 3041 
L 353 3041 
L 353 3500 
z
" transform="scale(0.015625)"/>
     </defs>
     <use xlink:href="#DejaVuSans-2f"/>
     <use xlink:href="#DejaVuSans-4c" transform="translate(55.71875 0)"/>
     <use xlink:href="#DejaVuSans-51" transform="translate(83.5 0)"/>
     <use xlink:href="#DejaVuSans-48" transform="translate(146.875 0)"/>
     <use xlink:href="#DejaVuSans-44" transform="translate(208.40625 0)"/>
     <use xlink:href="#DejaVuSans-55" transform="translate(269.6875 0)"/>
     <use xlink:href="#DejaVuSans-3" transform="translate(310.796875 0)"/>
     <use xlink:href="#DejaVuSans-46" transform="translate(342.578125 0)"/>
     <use xlink:href="#DejaVuSans-4b" transform="translate(397.5625 0)"/>
     <use xlink:href="#DejaVuSans-4c" transform="translate(460.9375 0)"/>
     <use xlink:href="#DejaVuSans-55" transform="translate(488.71875 0)"/>
     <use xlink:href="#DejaVuSans-53" transform="translate(529.828125 0)"/>
     <use xlink:href="#DejaVuSans-3" transform="translate(593.3125 0)"/>
     <use xlink:href="#DejaVuSans-14" transform="translate(625.09375 0)"/>
     <use xlink:href="#DejaVuSans-13" transform="translate(688.71875 0)"/>
     <use xlink:href="#DejaVuSans-11" transform="translate(752.34375 0)"/>
     <use xlink:href="#DejaVuSans-13" transform="translate(784.125 0)"/>
     <use xlink:href="#DejaVuSans-10" transform="translate(847.75 0)"/>
     <use xlink:href="#DejaVuSans-1b" transform="translate(883.828125 0)"/>
     <use xlink:href="#DejaVuSans-13" transform="translate(947.453125 0)"/>
     <use xlink:href="#DejaVuSans-11" transform="translate(1011.078125 0)"/>
     <use xlink:href="#DejaVuSans-13" transform="translate(1042.859375 0)"/>
     <use xlink:href="#DejaVuSans-3" transform="translate(1106.484375 0)"/>
     <use xlink:href="#DejaVuSans-2b" transform="translate(1138.265625 0)"/>
     <use xlink:href="#DejaVuSans-5d" transform="translate(1213.46875 0)"/>
    </g>
   </g>
   <g id="text_18">
    <!-- Figure B.39 -->
    <g transform="translate(52.483594 16.318125) scale(0.09 -0.09)">
     <defs>
      <path id="DejaVuSans-Oblique-29" d="M 1081 4666 
L 3756 4666 
L 3653 4134 
L 1606 4134 
L 1338 2759 
L 3188 2759 
L 3084 2228 
L 1234 2228 
L 800 0 
L 172 0 
L 1081 4666 
z
" transform="scale(0.015625)"/>
      <path id="DejaVuSans-Oblique-4c" d="M 1172 4863 
L 1747 4863 
L 1606 4134 
L 1031 4134 
L 1172 4863 
z
M 909 3500 
L 1484 3500 
L 800 0 
L 225 0 
L 909 3500 
z
" transform="scale(0.015625)"/>
      <path id="DejaVuSans-Oblique-4a" d="M 3816 3500 
L 3219 434 
Q 3047 -456 2561 -893 
Q 2075 -1331 1253 -1331 
Q 950 -1331 690 -1286 
Q 431 -1241 206 -1147 
L 313 -588 
Q 525 -725 762 -790 
Q 1000 -856 1269 -856 
Q 1816 -856 2167 -557 
Q 2519 -259 2631 300 
L 2681 563 
Q 2441 288 2122 144 
Q 1803 0 1434 0 
Q 903 0 598 351 
Q 294 703 294 1319 
Q 294 1803 478 2267 
Q 663 2731 997 3091 
Q 1219 3328 1514 3456 
Q 1809 3584 2131 3584 
Q 2484 3584 2746 3420 
Q 3009 3256 3138 2956 
L 3238 3500 
L 3816 3500 
z
M 2950 2216 
Q 2950 2641 2750 2872 
Q 2550 3103 2181 3103 
Q 1953 3103 1747 3012 
Q 1541 2922 1394 2759 
Q 1156 2491 1023 2127 
Q 891 1763 891 1375 
Q 891 944 1092 712 
Q 1294 481 1672 481 
Q 2219 481 2584 976 
Q 2950 1472 2950 2216 
z
" transform="scale(0.015625)"/>
      <path id="DejaVuSans-Oblique-58" d="M 428 1388 
L 838 3500 
L 1416 3500 
L 1006 1409 
Q 975 1256 961 1147 
Q 947 1038 947 966 
Q 947 700 1109 554 
Q 1272 409 1569 409 
Q 2031 409 2368 721 
Q 2706 1034 2809 1563 
L 3194 3500 
L 3769 3500 
L 3091 0 
L 2516 0 
L 2631 550 
Q 2388 244 2052 76 
Q 1716 -91 1338 -91 
Q 878 -91 622 161 
Q 366 413 366 863 
Q 366 956 381 1097 
Q 397 1238 428 1388 
z
" transform="scale(0.015625)"/>
      <path id="DejaVuSans-Oblique-55" d="M 2853 2969 
Q 2766 3016 2653 3041 
Q 2541 3066 2413 3066 
Q 1953 3066 1609 2717 
Q 1266 2369 1153 1784 
L 800 0 
L 225 0 
L 909 3500 
L 1484 3500 
L 1375 2956 
Q 1603 3259 1920 3421 
Q 2238 3584 2597 3584 
Q 2691 3584 2781 3573 
Q 2872 3563 2963 3538 
L 2853 2969 
z
" transform="scale(0.015625)"/>
      <path id="DejaVuSans-Oblique-48" d="M 3078 2063 
Q 3088 2113 3092 2166 
Q 3097 2219 3097 2272 
Q 3097 2653 2873 2875 
Q 2650 3097 2266 3097 
Q 1838 3097 1509 2826 
Q 1181 2556 1013 2059 
L 3078 2063 
z
M 3578 1613 
L 903 1613 
Q 884 1494 878 1425 
Q 872 1356 872 1306 
Q 872 872 1139 634 
Q 1406 397 1894 397 
Q 2269 397 2603 481 
Q 2938 566 3225 728 
L 3116 159 
Q 2806 34 2476 -28 
Q 2147 -91 1806 -91 
Q 1078 -91 686 257 
Q 294 606 294 1247 
Q 294 1794 489 2264 
Q 684 2734 1063 3103 
Q 1306 3334 1642 3459 
Q 1978 3584 2356 3584 
Q 2950 3584 3301 3228 
Q 3653 2872 3653 2272 
Q 3653 2128 3634 1964 
Q 3616 1800 3578 1613 
z
" transform="scale(0.015625)"/>
      <path id="DejaVuSans-Oblique-3" transform="scale(0.015625)"/>
      <path id="DejaVuSans-Oblique-25" d="M 1081 4666 
L 2694 4666 
Q 3350 4666 3675 4422 
Q 4000 4178 4000 3688 
Q 4000 3238 3720 2911 
Q 3441 2584 2988 2516 
Q 3375 2428 3569 2181 
Q 3763 1934 3763 1522 
Q 3763 819 3242 409 
Q 2722 0 1819 0 
L 172 0 
L 1081 4666 
z
M 1234 2228 
L 903 519 
L 1919 519 
Q 2491 519 2800 781 
Q 3109 1044 3109 1522 
Q 3109 1891 2904 2059 
Q 2700 2228 2247 2228 
L 1234 2228 
z
M 1606 4147 
L 1331 2741 
L 2272 2741 
Q 2775 2741 3058 2959 
Q 3341 3178 3341 3566 
Q 3341 3869 3150 4008 
Q 2959 4147 2541 4147 
L 1606 4147 
z
" transform="scale(0.015625)"/>
      <path id="DejaVuSans-Oblique-11" d="M 525 794 
L 1184 794 
L 1031 0 
L 372 0 
L 525 794 
z
" transform="scale(0.015625)"/>
      <path id="DejaVuSans-Oblique-16" d="M 1013 4550 
Q 1356 4650 1679 4700 
Q 2003 4750 2316 4750 
Q 2934 4750 3296 4475 
Q 3659 4200 3659 3738 
Q 3659 3284 3373 2959 
Q 3088 2634 2584 2516 
Q 2978 2403 3162 2165 
Q 3347 1928 3347 1538 
Q 3347 1163 3167 834 
Q 2988 506 2650 269 
Q 2394 88 2037 -1 
Q 1681 -91 1216 -91 
Q 922 -91 622 -33 
Q 322 25 13 141 
L 128 738 
Q 422 575 720 495 
Q 1019 416 1331 416 
Q 1947 416 2330 733 
Q 2713 1050 2713 1556 
Q 2713 1881 2469 2057 
Q 2225 2234 1772 2234 
L 1228 2234 
L 1325 2747 
L 1900 2747 
Q 2419 2747 2717 2984 
Q 3016 3222 3016 3628 
Q 3016 3922 2797 4083 
Q 2578 4244 2181 4244 
Q 1881 4244 1567 4180 
Q 1253 4116 916 3988 
L 1013 4550 
z
" transform="scale(0.015625)"/>
      <path id="DejaVuSans-Oblique-1c" d="M 281 103 
L 397 678 
Q 578 559 809 496 
Q 1041 434 1306 434 
Q 1953 434 2348 843 
Q 2744 1253 2938 2119 
Q 2706 1853 2401 1714 
Q 2097 1575 1747 1575 
Q 1178 1575 842 1904 
Q 506 2234 506 2791 
Q 506 3247 672 3639 
Q 838 4031 1159 4325 
Q 1378 4531 1665 4640 
Q 1953 4750 2278 4750 
Q 2925 4750 3300 4339 
Q 3675 3928 3675 3219 
Q 3675 2559 3501 1943 
Q 3328 1328 3022 878 
Q 2697 403 2240 156 
Q 1784 -91 1228 -91 
Q 988 -91 748 -42 
Q 509 6 281 103 
z
M 1131 2938 
Q 1131 2541 1337 2308 
Q 1544 2075 1894 2075 
Q 2378 2075 2706 2447 
Q 3034 2819 3034 3372 
Q 3034 3784 2831 4017 
Q 2628 4250 2272 4250 
Q 1788 4250 1459 3870 
Q 1131 3491 1131 2938 
z
" transform="scale(0.015625)"/>
     </defs>
     <use xlink:href="#DejaVuSans-Oblique-29"/>
     <use xlink:href="#DejaVuSans-Oblique-4c" transform="translate(57.515625 0)"/>
     <use xlink:href="#DejaVuSans-Oblique-4a" transform="translate(85.296875 0)"/>
     <use xlink:href="#DejaVuSans-Oblique-58" transform="translate(148.78125 0)"/>
     <use xlink:href="#DejaVuSans-Oblique-55" transform="translate(212.15625 0)"/>
     <use xlink:href="#DejaVuSans-Oblique-48" transform="translate(253.265625 0)"/>
     <use xlink:href="#DejaVuSans-Oblique-3" transform="translate(314.796875 0)"/>
     <use xlink:href="#DejaVuSans-Oblique-25" transform="translate(346.578125 0)"/>
     <use xlink:href="#DejaVuSans-Oblique-11" transform="translate(415.1875 0)"/>
     <use xlink:href="#DejaVuSans-Oblique-16" transform="translate(446.96875 0)"/>
     <use xlink:href="#DejaVuSans-Oblique-1c" transform="translate(510.59375 0)"/>
    </g>
   </g>
  </g>
 </g>
 <defs>
  <clipPath id="pc6829060a3">
   <rect x="52.483594" y="22.318125" width="796.837656" height="148.115313"/>
  </clipPath>
 </defs>
</svg>
